<svg xmlns="http://www.w3.org/2000/svg" width="512" height="512"><path fill="#EFEFEF" d="M64 0h384c35.346 0 64 28.654 64 64v384c0 35.347-28.654 64-64 64H64c-35.348 0-64-28.653-64-64V64C0 28.654 28.654 0 64 0z"/><path d="M313.212 153.354l-21.932 63.097 22.508 4.04c21.16-57.839 31.74-91.056 31.74-99.647 0-7.182-2.437-10.772-7.31-10.772-7.31-.002-15.645 14.426-25.006 43.282zm-57.518 132.157l6.348 16.929c4.745-5.387 9.299-9.684 13.658-12.89l-6.348-1.058-7.406-1.348-6.252-1.633zm-56.172-172.363c0 12.567 10.195 45.976 30.586 100.224 2.309-1.283 5.451-1.924 9.426-1.924 1.924 0 6.733.32 14.429.962l-23.277-67.521c-9.618-28.214-17.505-42.32-23.661-42.32-2.437 0-4.296 1.123-5.579 3.366a14.283 14.283 0 0 0-1.924 7.213zm-15.199 146.008c0 4.616 3.302 12.247 9.907 22.892 6.604 10.646 14.139 20.455 22.604 29.434 8.464 8.977 14.875 13.466 19.236 13.466 1.795 0 3.43-.834 4.905-2.501 1.475-1.667 2.212-3.398 2.212-5.194 0-3.078-2.052-9.618-6.156-19.621-1.667-4.104-3.719-8.721-6.156-13.851-2.437-5.13-5.481-10.837-9.137-17.121s-7.599-11.479-11.831-15.582c-4.231-4.104-8.208-6.156-11.927-6.156-2.565 0-5.482 1.731-8.753 5.194-3.267 3.461-4.904 6.475-4.904 9.04zM153.93 323.6c0 5.259 1.603 11.928 4.809 20.006 7.566 18.597 19.333 33.151 35.3 43.668 15.967 10.518 34.018 15.774 54.152 15.774 29.112 0 53.607-10.901 73.485-32.703 19.492-21.674 29.239-49.054 29.239-82.142 0-5.516-.063-9.812-.191-12.889-.129-3.077-.866-7.055-2.213-11.928-1.348-4.873-3.303-8.464-5.867-10.771-7.183-6.284-20.743-11.125-40.687-14.524-19.941-3.397-37.287-5.098-52.035-5.098-4.745 0-7.888.706-9.427 2.116-1.539.641-2.309 2.885-2.309 6.732 0 4.36 1.378 8.208 4.136 11.542 2.757 3.334 6.316 5.899 10.676 7.694 4.36 1.796 9.33 3.303 14.908 4.521 5.579 1.219 11.189 1.955 16.833 2.212s11.093.514 16.352.771c5.259.256 9.747.256 13.466 0h4.425c3.078 0 5.643 1.218 7.695 3.655 1.923 2.437 3.142 5.963 3.653 10.58-3.591 3.591-9.746 7.054-18.467 10.388-7.823 2.821-13.787 5.771-17.891 8.849-8.208 5.899-15.165 13.21-20.872 21.932-5.707 8.721-8.562 17.505-8.562 26.354 0 3.977 1.188 9.65 3.56 17.024 2.373 7.374 3.56 12.984 3.56 16.832l-.577 2.309c-.514 1.539-.77 2.437-.77 2.693-17.57-1.282-26.932-15.134-28.086-41.553-1.026.258-3.655.386-7.887.386.256.896.385 2.244.385 4.04 0 6.797-2.597 12.535-7.791 17.217-5.194 4.681-11.253 7.021-18.179 7.021-10.518 0-21.193-5.002-32.03-15.005s-16.255-20.199-16.255-30.587c0-4.36 2.115-8.656 6.348-12.889 6.668 8.208 10.516 13.081 11.542 14.62 9.875 13.338 18.403 20.007 25.585 20.007 1.539 0 3.238-.545 5.098-1.636s2.789-2.404 2.789-3.943c0-4.36-5.61-13.658-16.832-27.894s-18.691-21.354-22.41-21.354c-5.516 0-10.004 2.854-13.467 8.561-3.461 5.708-5.191 11.512-5.191 17.412zM132 325.331c0-12.953 2.725-23.405 8.176-31.356 5.45-7.95 14.203-13.594 26.258-16.929-3.591-9.49-5.386-16.159-5.386-20.006 0-7.952 3.911-15.838 11.733-23.662 7.823-7.823 15.646-11.734 23.47-11.734 3.719 0 8.208.962 13.466 2.886-20.904-59.25-31.356-95.607-31.356-109.073 0-10.259 2.629-18.627 7.888-25.104 5.258-6.476 12.889-9.714 22.892-9.714 16.8 0 37.64 37.255 62.52 111.767.771 2.18 1.282 3.654 1.539 4.424.77-2.052 2.63-7.149 5.578-15.293a2598.318 2598.318 0 0 1 8.368-22.796c2.629-7.055 6.092-15.229 10.388-24.527s8.434-17.185 12.408-23.662c3.977-6.476 8.496-12.022 13.563-16.64 5.064-4.617 9.972-6.925 14.717-6.925 9.104 0 16.287 3.142 21.545 9.426s7.887 14.106 7.887 23.469c0 13.852-10.194 49.118-30.586 105.803 7.822 1.925 14.268 4.874 19.333 8.85s8.816 8.977 11.253 15.004c2.438 6.027 4.104 12.022 5.002 17.986s1.348 13.05 1.348 21.257c0 19.236-3.015 37.19-9.041 53.862-6.028 16.673-14.492 31.101-25.394 43.283-10.9 12.185-24.432 21.802-40.59 28.855-16.159 7.054-33.985 10.58-53.479 10.58-14.235 0-28.535-2.693-42.898-8.079-19.109-7.312-35.653-19.59-49.631-36.839C138.99 363.195 132 344.824 132 325.331z"/></svg>