<svg height="512" width="512" xmlns="http://www.w3.org/2000/svg"><rect height="512" rx="64" ry="64" width="512" fill="#515151"/><path d="M111.797 239.164c-.635 0 6.965 16.085 7.176 16.085 16.592 29.596 48.566 48.001 102.516 53.08-7.7 5.747-16.95 16.66-18.232 29.255-9.68 6.144-29.149 8.18-44.279 3.493-21.212-6.586-29.33-47.846-61.087-41.965-6.87 1.267-5.505 5.726.436 9.514 9.685 6.151 18.79 13.856 25.809 30.254 5.404 12.579 16.75 35.074 52.633 35.074 14.228 0 24.208-1.692 24.208-1.692s.268 32.137.268 44.628c0 14.418-19.79 18.474-19.79 25.402 0 2.738 6.556 2.998 11.815 2.998 10.402 0 32.04-8.537 32.04-23.509 0-11.889.198-51.897.198-58.894 0-15.29 8.343-20.142 8.343-20.142s1.033 81.666-1.989 92.618c-3.555 12.868-9.967 11.04-9.967 16.786 0 8.548 26.052 2.087 34.689-16.66 6.67-14.592 3.752-94.708 3.752-94.708l7.116-.148s.402 36.674.155 53.447c-.25 17.362-1.45 39.316 9.041 49.669 6.894 6.803 29.229 18.76 29.229 7.837 0-6.344-12.238-11.55-12.238-28.711v-79.003c9.78 0 8.309 25.966 8.309 25.966l.71 48.279s-2.155 17.581 19.363 24.93c7.595 2.622 23.815 3.31 24.588-1.054.768-4.39-19.556-10.915-19.743-24.542-.124-8.294.383-13.144.383-49.243 0-36.1-4.939-49.437-22.13-60.067 53.033-5.35 85.87-18.253 101.862-52.782 1.243.025 6.523-16.128 5.835-16.128 3.586-13.039 5.54-28.464 5.903-46.723-.088-49.54-24.203-67.05-28.834-75.27 6.828-37.508-1.147-54.557-4.847-60.416-13.67-4.775-47.545 12.293-66.065 24.31-30.157-8.662-93.944-7.836-117.864 2.235-44.132-31.06-67.484-26.298-67.484-26.298s-15.09 26.576-3.987 65.472c-14.518 18.193-25.344 31.056-25.344 65.168.014 19.24 2.317 36.44 7.503 51.455z" fill="#fff"/></svg>