<svg height="512" width="512" xmlns="http://www.w3.org/2000/svg"><g transform="translate(-.004 -.004)"><rect height="512" rx="64" ry="64" width="512" fill="#ec0005"/><path d="M347.457 386.752c49.606-31.075 82.63-86.705 82.63-150.13 0-97.44-77.953-176.457-174.083-176.457-96.165 0-174.083 79.016-174.083 176.457 0 97.476 77.918 176.457 174.083 176.457a172.32 172.32 0 0 0 41.031-4.96c16.512 30.046 41.705 51.342 95.138 41.172v-29.94s-34.264-8.61-44.716-32.599zm-1.205-126.78c0 29.445-9.39 56.197-24.626 75.934-19.134-20.375-49.11-37.099-87.165-34.973v34.689s25.83 1.028 43.476 31.394c-6.626 1.949-13.5 3.012-20.622 3.012-49.11 0-88.902-49.288-88.902-110.056v-45.46c0-60.803 39.792-110.09 88.902-110.09s88.937 49.287 88.937 110.09v45.46z" fill="#fff"/></g></svg>