<svg xmlns="http://www.w3.org/2000/svg" width="256" height="256" viewBox="0 -90 256 256"><path fill="#DCDDDE" d="M228.902 57.096l-.159-.077v-.473l-.237-.63-.478-.552-.636-.393-.079-.157-.477-.473-.716-.393-.635-.236h-.159l-.636-.552-.873-.472-.954-.472-1.032-.315h-.159l-.795-.866-.953-.786-.953-.473-.954-.236h-.158l-.874-.629-1.431-.552-.635-.078-.875-.551-.952-.395-.875-.156-.953-.079-.953.079-.716.156-.396-.708-1.192-.787-1.509-.314h-1.351l-1.669.314-.476.16-1.192-.473-1.351-.394-1.43-.157h-1.352l-1.43.157h-.158l-1.431-.551-1.51-.393-1.51-.236-.794-.08-1.271-1.18-1.43-1.023-1.43-.707-1.271-.395-1.589-.078-.716.078-.635-.551-1.112-.473-1.351-.157-.795.157-1.112-.394-1.192-.314-1.112-.157h-.396l-1.669-.63-2.065-.551-1.907-.157h-.238l-1.748-1.023-1.986-.472h-1.351l-2.939-.708-1.906-.157h-.636l-.954-.945-1.351-.787-1.51-.394-1.509.157-.954.236-1.271-.236-1.351-.079-1.59.079h-.079v-.236l-2.384-.551-2.225-.314-2.065-.079-.715.079v-.079l-1.59-.236-1.588-.158h-.159l-1.748-.708-1.828-.472-1.668-.236h-1.191l-1.749-.629-1.43-.315L126.57 29h-.238l-1.668-1.102-1.589-.629-1.191-.157-1.271-.629-1.907-.473-1.668.079-1.668-.787-1.749-.394h-.874l-1.748-.944-1.748-.472-1.748-.079-.318.079-2.304-1.181-1.748-.629-1.827-.157h-.08l-.954-.551-1.033-.472-1.112-.315-1.192-.079-.954.079-1.112-.787-1.351-.551-1.509-.236-1.271.078-1.51.315-.159.079-1.51-.708-1.589-.394-1.51-.079-1.192-.787-1.271-.472-1.351-.157-1.271.157-1.112.314-.874-.865-1.112-.708-1.351-.236-1.191.236-.874.394-.557-.394-.556-.236-.636-.236-.477-.079-.715.079-.715.236-.715.473-.159.157-1.351-.315-1.351.079-1.191.394-.954.708-.794.944-.556 1.181-.397 1.259-.318 1.338-.159 1.337.08 5.981c-.794-.314-1.589-.63-2.304-.866l.079-.866.159-.944.08-1.023.079-1.023.08-.944.08-.944-.08-.944-.08-.944-.079-.944-.159-.787-.238-.787-.079-.314.079-.236.238-.787.318-.787.238-.787.397-.787-1.351 1.259-.635.551-.238-.315-.556-.551-.636-.472.159.944.159.944.159.629-.397.551-.238.551-.08-.236-.159-.472-.159-.551-.159-.629v-.551l-.08-.63-.079-.551-.08-.63v-.629l.08-.551.079-.551.08-.551.159-.551.159-.472-.715.942-.556 1.023-.397 1.023-.239 1.023-.079 1.102v1.102l.159 1.102.238 1.102.238.866-.397-.236-.397-.551-.477-.629-.477-.63-.397-.708-.397-.787-.318-.944-.238-1.102-.08-1.259-.874.787-.477.866-.238.944v.945l.159.944.397 1.023.477 1.023.477.787-.874-.157-.953-.081.636.394.635.394.636.394.556.394.556.394.477.472.795.866.794.787.715.787.636.709.556.629.318.394.318.393.159.236c-9.296-3.699-19.307-8.106-31.542-13.93 2.463 4.014 11.521 8.185 15.254 11.019 3.973 2.125 9.455 4.407 14.222 6.217l-1.033.236-1.033.157-.397.079h-.238l-.715.079-.715.078h-.715l-.715.079h-1.43l-.715-.079-.715-.078-.715-.079-.715-.079-.715-.157-.715-.157.794.55.794.473.794.315.794.236.477.079-1.033.315-1.033.394-1.271.708-.954.629-.795.63-.715.787-.636.787-.475.941-.318 1.102.318-.394.397-.393.397-.394.397-.394.477-.315.477-.314.477-.315.477-.315.556-.236.477-.236.557-.157.556-.236.556-.157.557-.158.477-.078.556-.079.954-.394 1.033-.551 1.033-.629 1.033-.63.953-.551.477-.157h.08l-.715.394-.715.472-.794.472-.795.551-.715.472-.794.472-.715.472-.795.472-.794.472-.794.473-.795.472-.794.472-.954.63-.874.472.874.079.874-.079.794-.157.794-.236.795-.315-.239.236-.556.866-.397.944-.159 1.022.159 1.023.397 1.023.636-1.181.636-.944.636-.865.635-.708.636-.552.715-.472.715-.472.715-.394.397-.236-.08.079-.238 1.023-.159 1.259.079 1.338.239 1.495.477 1.731.159-.865.158-.788.239-.786.238-.787.238-.787.318-.708.318-.787.397-.787.397-.708.397-.708.397-.787.397-.708.477-.708.477-.787.477-.787.397-.629c.636.236 1.192.472 1.748.629l-1.033 1.731-.954 1.889-.794 2.282-.318 1.26-.08 1.18.08 1.182.238 1.022.556 1.103.874.943 1.271.708 1.269.394.318.708.715.944.715.63.635.473.715.393.715.236.636.079h.794l.715.944 1.033.787 1.192.472 1.43.079 1.113-.314.159.235 1.033.944 1.033.709 1.033.472 1.43.236.874-.078.874.629 1.351.551 1.191.315.874.629 1.43.63 1.827.393 1.668.08.08.078 1.271.944 1.271.708 1.192.394 1.509.158 1.351-.236.556.314 1.033.473 1.112.236 1.033.078.954-.157.318.235 1.668.552 1.907.236 2.066-.079.397.236 1.669.55 1.668.236 2.224-.078 1.43.472 1.748.236 1.668-.078.556.314 1.668.629 1.907.236 1.907-.236v-.077l.954.236h1.589l1.748-.394 1.033.394 1.351.314 1.351.157h1.668l.398.158 1.588.472 1.669.315 1.827.078 1.827-.158v-.077l.953.235 1.51.236 1.51.078.079-.156 1.033.314 1.986.314 2.146.078 2.304-.078.317.078 1.431.315 1.351.157 1.351.079.08.079 1.271.629 1.511.394h1.351l1.43-.314 1.191-.708 1.351.393 1.827.157h1.906l.398.158 1.906.314 1.827-.157 1.907-.63 1.589.157 1.986-.079 1.51-.236.874.158 1.112.078 2.463-.236.794.315 1.192.157 1.033-.236.795-.393h.079l1.272.396 1.351.236h1.351l1.43-.314 1.509-.708 1.431-.865 1.112.078 1.509-.078 1.271-.158.715.236 1.271.236 1.271.157 1.351-.079 1.271-.236.238.079 1.589.551 1.43.315h1.271l1.271-.395.636-.629.317.078.875.236.873.157.954-.078.874-.157.636-.236 1.112.078 1.19-.156 1.113-.473h.158l1.113-.079.952-.157 1.113-.473.794-.55h1.033l.953-.158.874-.235.954-.395h.396l.556-.078.557-.236.159-.157.636-.079.715-.314.318-.551.079-.394h.238l.715-.709.08-.314.158.079.08-1.968-.951-1.102zM58.957 27.82l-1.192-.472-.079-.158v-.157l.079.157-.079-.236v-.314l.079-.945.08-.944.08-.945.08-.866.079-.63.08.708.08.787.159.787.159.787.159.787.159.787.077.867zm-3.337 2.833h.08l-.397.236h-.477l.238-.157.556-.079zm-2.065 2.204l.715-.708.715-.787.318-.315.477-.236-.317.079.159-.157c.397.157.874.314 1.271.472l-.477.315-.794.394-.953.472-.954.472-.556.236.396-.237zm4.131-1.102l-.397.394-.556.314-.477.315.159-.315.636-1.259c.318.158.636.236.954.315l-.319.236z"/><path fill="#231F20" stroke="#231F20" stroke-width=".596" d="M229.696 56.897c-16.392-2.228-77.028-5.331-104.004-9.708-21.724-3.581-42.971-10.026-63.262-16.79-5.252-1.75-14.483-5.332-20.451-8.594-3.74-2.865-12.812-7.162-15.278-11.141 39.31 18.621 55.146 23.713 101.219 33.103 18.701 3.821 86.657 9.311 101.776 13.13h0z"/><linearGradient id="a" gradientUnits="userSpaceOnUse" x1="-65.408" y1="218.228" x2="-65.384" y2="217.252" gradientTransform="matrix(28.7 0 0 -18.6 2037.05 4106.96)"><stop offset="0" stop-color="#6a3894"/><stop offset=".106" stop-color="#8a2f83"/><stop offset=".265" stop-color="#b4256c"/><stop offset=".409" stop-color="#d31c5d"/><stop offset=".531" stop-color="#e51e54"/><stop offset=".616" stop-color="#ec1e4f"/><stop offset="1" stop-color="#f8e47f"/></linearGradient><path fill="url(#a)" stroke="#231F20" stroke-width=".254" d="M171.607 64.14h0l-1.751.637-1.75.079-1.672-.238-1.751-.717-1.671-.875-1.671-1.273-1.591-1.353-1.513-1.512-1.512-1.512-1.433-1.513-1.353-1.512-1.194-1.353-1.193-1.193-1.034-.876-.955-.637-.796-.238h.638l.796.079.795.08.875.079.796.08.875.079.796.08.717.08 1.193 1.113 1.114.955.954 1.034.876 1.034.875.955.876.955.796.955.796.875.875.876.875.796.955.796 1.034.716 1.114.716 1.272.637 1.354.637 1.593.479z"/><linearGradient id="b" gradientUnits="userSpaceOnUse" x1="-65.315" y1="216.135" x2="-65.295" y2="215.261" gradientTransform="matrix(28 0 0 -17.1 1994.906 3750.006)"><stop offset="0" stop-color="#6a3894"/><stop offset=".106" stop-color="#8a2f83"/><stop offset=".265" stop-color="#b4256c"/><stop offset=".409" stop-color="#d31c5d"/><stop offset=".531" stop-color="#e51e54"/><stop offset=".616" stop-color="#ec1e4f"/><stop offset="1" stop-color="#f8e47f"/></linearGradient><path fill="url(#b)" stroke="#231F20" stroke-width=".254" d="M177.337 63.9h0l-1.99.318-1.909.079-1.75-.158-1.672-.478-1.592-.637-1.353-.796-1.433-.875-1.193-1.114-1.273-1.114-1.193-1.193-1.114-1.273-1.113-1.272-1.194-1.274-1.114-1.193-1.193-1.193-1.193-1.034h.956l.477.079h.479l.557.08.473.078.557.08h.478l.478.079.557.079.558.08h.557l.558.079h1.114l.558.08.397.637.478.796.716.955.637.954.876 1.035.875 1.113.955 1.115.955 1.034 1.034 1.034.955.955 1.113.875 1.035.716.955.637 1.034.398 1.035.238h.872z"/><linearGradient id="c" gradientUnits="userSpaceOnUse" x1="-63.972" y1="215.095" x2="-63.944" y2="214.105" gradientTransform="matrix(22.4 0 0 -16.1 1604.898 3512.412)"><stop offset="0" stop-color="#6a3894"/><stop offset=".106" stop-color="#8a2f83"/><stop offset=".265" stop-color="#b4256c"/><stop offset=".409" stop-color="#d31c5d"/><stop offset=".531" stop-color="#e51e54"/><stop offset=".616" stop-color="#ec1e4f"/><stop offset="1" stop-color="#f8e47f"/></linearGradient><path fill="url(#c)" stroke="#231F20" stroke-width=".254" d="M181.156 63.98h0l-1.194.079-1.113.159-1.035-.079-1.034-.159-1.113-.238-1.035-.398-.954-.557-1.114-.717-1.035-.716-1.114-.955-1.034-1.114-1.114-1.193-1.193-1.433-1.194-1.592-1.272-1.75-1.272-1.91h.795l.716.08.796.079.717.08.716.079.796.08h1.671l.796.716.637.796.717.795.715.796.637.796.717.876.637.716.716.876.637.795.717.796.715.796.717.716.796.717.796.636.796.717.867.635z"/><linearGradient id="d" gradientUnits="userSpaceOnUse" x1="-62.987" y1="214.263" x2="-62.957" y2="213.312" gradientTransform="matrix(19.5 0 0 -15.7 1405.547 3417.606)"><stop offset="0" stop-color="#6a3894"/><stop offset=".106" stop-color="#8a2f83"/><stop offset=".265" stop-color="#b4256c"/><stop offset=".409" stop-color="#d31c5d"/><stop offset=".531" stop-color="#e51e54"/><stop offset=".616" stop-color="#ec1e4f"/><stop offset="1" stop-color="#f8e47f"/></linearGradient><path fill="url(#d)" stroke="#231F20" stroke-width=".254" d="M185.215 63.742h0l-.876.477-1.034.159-.955-.08-1.034-.397-1.034-.637-1.034-.875-1.035-.876-1.114-1.113-1.034-1.193-1.035-1.193-.954-1.194-1.035-1.193-.875-1.114-.875-1.034-.876-.875-.716-.717 4.934.478.557.716.637.717.558.796.557.716.558.716.557.716.557.796.638.717.636.716.637.716.637.717.796.716.716.637.796.716.875.637.87.632z"/><linearGradient id="e" gradientUnits="userSpaceOnUse" x1="-64.374" y1="213.891" x2="-64.348" y2="212.891" gradientTransform="matrix(23.3 0 0 -15.3 1683.747 3322.816)"><stop offset="0" stop-color="#6a3894"/><stop offset=".106" stop-color="#8a2f83"/><stop offset=".265" stop-color="#b4256c"/><stop offset=".409" stop-color="#d31c5d"/><stop offset=".531" stop-color="#e51e54"/><stop offset=".616" stop-color="#ec1e4f"/><stop offset="1" stop-color="#f8e47f"/></linearGradient><path fill="url(#e)" stroke="#231F20" stroke-width=".254" d="M193.411 62.707h0l-1.433.875-1.353.637-1.354.318H188l-1.273-.239-1.194-.477-1.193-.637-1.113-.796-1.114-1.034-1.114-1.035-1.035-1.272-1.113-1.273-1.035-1.353-.954-1.354-1.035-1.432-.954-1.273.875.08.637.079h.478l.397.08.398.079h1.034l.796.079.875 1.193.876 1.194.875 1.114.955.955.955.875.954.875.955.716.955.637.875.558.955.557.876.318.795.318.875.318.717.159.796.079.634.082z"/><linearGradient id="f" gradientUnits="userSpaceOnUse" x1="-64.245" y1="208.182" x2="-64.22" y2="206.987" gradientTransform="matrix(22.7 0 0 -12.5 1646.848 2655.508)"><stop offset="0" stop-color="#6a3894"/><stop offset=".106" stop-color="#8a2f83"/><stop offset=".265" stop-color="#b4256c"/><stop offset=".409" stop-color="#d31c5d"/><stop offset=".531" stop-color="#e51e54"/><stop offset=".616" stop-color="#ec1e4f"/><stop offset="1" stop-color="#f8e47f"/></linearGradient><path fill="url(#f)" stroke="#231F20" stroke-width=".254" d="M197.707 62.389h0l-1.511.238-1.433.08-1.353-.08-1.354-.238-1.272-.238-1.273-.398-1.114-.557-1.114-.637-1.114-.716-1.034-.796-1.034-.875-.955-.955-.955-1.034-.875-1.115-.875-1.114-.796-1.193h.875l1.034.08.955.159h1.034l.796.079.717.079h.477l.239.08.08.08.238.238.397.397.478.479.478.557.637.637.717.637.796.796.875.716.955.796.875.716 1.034.796 1.035.637 1.113.637 1.114.557 1.113.475z"/><linearGradient id="g" gradientUnits="userSpaceOnUse" x1="-64.163" y1="207.9" x2="-64.141" y2="206.848" gradientTransform="matrix(22.2 0 0 -12.3 1618.706 2608.41)"><stop offset="0" stop-color="#6a3894"/><stop offset=".106" stop-color="#8a2f83"/><stop offset=".265" stop-color="#b4256c"/><stop offset=".409" stop-color="#d31c5d"/><stop offset=".531" stop-color="#e51e54"/><stop offset=".616" stop-color="#ec1e4f"/><stop offset="1" stop-color="#f8e47f"/></linearGradient><path fill="url(#g)" stroke="#231F20" stroke-width=".254" d="M203.357 62.707h0l-1.193.239-1.193.079-1.273-.079-1.273-.239-1.272-.398-1.194-.557-1.193-.557-1.193-.796-1.114-.796-1.114-.796-1.035-.875-1.034-.955-.955-.955-.955-.955-.875-.875-.796-.955h.558l.716.08h1.512l.796.08.717.079.637.079.477.08v.079l.159.238.478.398.638.478.795.716.955.717 1.035.796 1.034.795 1.113.796 1.114.875 1.114.717.954.717.955.636.876.558.637.317.392.239z"/><linearGradient id="h" gradientUnits="userSpaceOnUse" x1="-64.631" y1="208.781" x2="-64.606" y2="207.605" gradientTransform="matrix(23.6 0 0 -12.7 1725.4 2704.31)"><stop offset="0" stop-color="#6a3894"/><stop offset=".106" stop-color="#8a2f83"/><stop offset=".265" stop-color="#b4256c"/><stop offset=".409" stop-color="#d31c5d"/><stop offset=".531" stop-color="#e51e54"/><stop offset=".616" stop-color="#ec1e4f"/><stop offset="1" stop-color="#f8e47f"/></linearGradient><path fill="url(#h)" stroke="#231F20" stroke-width=".254" d="M209.724 62.707h0l-.796.716-.955.319h-1.193l-1.353-.319-1.512-.557-1.513-.796-1.591-.875-1.592-1.034-1.592-1.114-1.432-1.114-1.433-1.114-1.193-.955-1.035-.875-.796-.716-.557-.398-.239-.238.638.079h.636l.716.08.638.079.796.079h.716l.716.08h.796l.875.558.796.477.876.558.796.558.795.556.796.558.875.557.796.558.796.637.796.557.796.558.796.557.875.478.795.478.796.557.875.471z"/><linearGradient id="i" gradientUnits="userSpaceOnUse" x1="-64.256" y1="205.94" x2="-64.249" y2="205.335" gradientTransform="matrix(22.1 0 0 -11.5 1625.447 2418.712)"><stop offset="0" stop-color="#f8e47f"/><stop offset=".106" stop-color="#f7db7c"/><stop offset=".349" stop-color="#f3c87b"/><stop offset=".52" stop-color="#f2c179"/><stop offset=".71" stop-color="#f6d17b"/><stop offset="1" stop-color="#f8e47f"/></linearGradient><path fill="url(#i)" stroke="#231F20" stroke-width=".254" d="M214.339 62.787h0l-.796.238-.796.159-.796.079-.795-.159-.796-.238-.796-.318-.875-.478-.955-.558-1.034-.636-1.035-.716-1.193-.876-1.273-.875-1.432-.955-1.513-1.034-1.671-1.114-1.83-1.194.716.08h1.672l.796.08h.716l.557.079.398.08h.079l.159.159.238.238.398.398.557.477.717.637.796.717.795.636 1.035.796.955.717 1.034.716 1.034.637 1.034.716 1.035.558 1.034.397.955.318.876.239z"/><linearGradient id="j" gradientUnits="userSpaceOnUse" x1="-63.541" y1="203.595" x2="-63.654" y2="202.169" gradientTransform="matrix(20.1 0 0 -10.6 1488.65 2204.46)"><stop offset="0" stop-color="#f8e47f"/><stop offset=".106" stop-color="#f7db7c"/><stop offset=".349" stop-color="#f3c87b"/><stop offset=".52" stop-color="#f2c179"/><stop offset=".71" stop-color="#f6d17b"/><stop offset="1" stop-color="#f8e47f"/></linearGradient><path fill="url(#j)" stroke="#231F20" stroke-width=".254" d="M217.682 62.229h0l-1.035.478-1.114.159-1.272-.079-1.193-.319-1.354-.477-1.193-.637-1.353-.717-1.194-.795-1.114-.876-1.113-.875-1.034-.796-.876-.875-.796-.717-.637-.557-.477-.398-.239-.317.716.079h.717l.716.08.637.079.716.079h.637l.796.08.717.079.557.479.637.556.477.479.637.557.638.637.556.558.638.556.716.558.637.478.637.478.716.478.637.397.716.397.717.319.716.238.71.157z"/><linearGradient id="k" gradientUnits="userSpaceOnUse" x1="-62.895" y1="198.356" x2="-62.887" y2="197.608" gradientTransform="matrix(18.1 0 0 -9.3 1352.852 1894.91)"><stop offset="0" stop-color="#f8e47f"/><stop offset=".106" stop-color="#f7db7c"/><stop offset=".349" stop-color="#f3c87b"/><stop offset=".52" stop-color="#f2c179"/><stop offset=".71" stop-color="#f6d17b"/><stop offset="1" stop-color="#f8e47f"/></linearGradient><path fill="url(#k)" stroke="#231F20" stroke-width=".254" d="M221.819 60.957h0l-.955.636-.955.398-.875.238h-.955l-.955-.159-.875-.318-.955-.397-.876-.558-.954-.557-.876-.796-.875-.717-.876-.795-.875-.796-.875-.796-.795-.796-.876-.716h.557l.478.079.637.08.637.079.716.08h.717l.795.08.796.079.159.557.318.558.397.477.398.558.478.478.478.397.478.478.637.398.637.397.636.318.717.318.637.238.796.159.716.159.796.08.792.082z"/><linearGradient id="l" gradientUnits="userSpaceOnUse" x1="-61.742" y1="186.35" x2="-61.884" y2="184.223" gradientTransform="matrix(15.9 0 0 -7.1 1202.35 1370.812)"><stop offset="0" stop-color="#f8e47f"/><stop offset=".106" stop-color="#f7db7c"/><stop offset=".349" stop-color="#f3c87b"/><stop offset=".52" stop-color="#f2c179"/><stop offset=".71" stop-color="#f6d17b"/><stop offset="1" stop-color="#f8e47f"/></linearGradient><path fill="url(#l)" stroke="#231F20" stroke-width=".254" d="M225.479 60.24h0l-.796.318-.875.238-.876.16h-.955l-.954-.08-.955-.08-1.034-.318-.955-.238-.955-.478-.875-.397-.796-.558-.717-.557-.636-.637-.558-.717-.397-.795-.318-.796.557.08h.558l.636.079.558.079h.637l.636.08.717.079h.796l.318.479.398.477.317.398.397.397.319.318.477.318.398.318.397.238.479.239.477.238.558.239.557.238.557.159.558.159.716.159.634.164z"/><linearGradient id="m" gradientUnits="userSpaceOnUse" x1="-58.847" y1="172.06" x2="-58.834" y2="170.817" gradientTransform="matrix(11.9 0 0 -5.6 922.748 1013.562)"><stop offset="0" stop-color="#f8e47f"/><stop offset=".106" stop-color="#f7db7c"/><stop offset=".349" stop-color="#f3c87b"/><stop offset=".52" stop-color="#f2c179"/><stop offset=".71" stop-color="#f6d17b"/><stop offset="1" stop-color="#f8e47f"/></linearGradient><path fill="url(#m)" stroke="#231F20" stroke-width=".254" d="M227.39 59.604h0l-.318.318-.398.159-.557.08h-.558l-.637-.08-.636-.079-.796-.239-.717-.239-.716-.317-.796-.398-.716-.397-.637-.478-.637-.478-.557-.558-.478-.557-.318-.637.397.08h.398l.397.079.478.079h.397l.398.08h.636v.16l.398.397.715.478.876.636 1.114.558 1.114.637 1.113.478 1.041.238z"/><linearGradient id="n" gradientUnits="userSpaceOnUse" x1="-56.145" y1="157.716" x2="-56.129" y2="156.202" gradientTransform="matrix(9.7 0 0 -4.6 769.253 775.46)"><stop offset="0" stop-color="#f8e47f"/><stop offset=".106" stop-color="#f7db7c"/><stop offset=".349" stop-color="#f3c87b"/><stop offset=".52" stop-color="#f2c179"/><stop offset=".71" stop-color="#f6d17b"/><stop offset="1" stop-color="#f8e47f"/></linearGradient><path fill="url(#n)" stroke="#231F20" stroke-width=".254" d="M228.662 58.33h0l-.079.637-.239.398-.317.158-.558.159-.557-.159-.716-.158-.717-.318-.717-.398-.716-.397-.716-.478-.716-.397-.558-.479-.478-.317-.398-.318-.238-.159v-.08l3.581.398.318.159.398.238.557.318.637.239.637.317.636.239.558.239.398.159z"/><linearGradient id="o" gradientUnits="userSpaceOnUse" x1="-48.906" y1="75.108" x2="-48.891" y2="73.159" gradientTransform="matrix(6.5 0 0 -2.3 544.95 227.41)"><stop offset="0" stop-color="#f8e47f"/><stop offset=".106" stop-color="#f7db7c"/><stop offset=".349" stop-color="#f3c87b"/><stop offset=".52" stop-color="#f2c179"/><stop offset=".71" stop-color="#f6d17b"/><stop offset="1" stop-color="#f8e47f"/></linearGradient><path fill="url(#o)" stroke="#231F20" stroke-width=".254" d="M224.524 56.421h.796l.717.079.636.08h.558l.557.079h.637l.637.159.636.079-.079.876-.478.478h-.637l-.796-.238-.875-.479-.875-.397-.796-.478-.638-.238z"/><linearGradient id="p" gradientUnits="userSpaceOnUse" x1="-48.925" y1="83.186" x2="-48.901" y2="80.282" gradientTransform="matrix(6.5 0 0 -2.4 545.148 249.56)"><stop offset="0" stop-color="#f8e47f"/><stop offset=".106" stop-color="#f7db7c"/><stop offset=".349" stop-color="#f3c87b"/><stop offset=".52" stop-color="#f2c179"/><stop offset=".71" stop-color="#f6d17b"/><stop offset="1" stop-color="#f8e47f"/></linearGradient><path fill="url(#p)" stroke="#231F20" stroke-width=".254" d="M224.684 55.942h0l.796.16.637.08.636.158.638.08.557.159.557.079.637.159.637.159.08-.955-.398-.716-.637-.159-.875-.08-.955.16-.954.238-.796.318-.56.16z"/><linearGradient id="q" gradientUnits="userSpaceOnUse" x1="-65.866" y1="213.023" x2="-65.656" y2="214.376" gradientTransform="matrix(30.5 0 0 -15.7 2170.047 3397.216)"><stop offset="0" stop-color="#6a3894"/><stop offset=".106" stop-color="#8a2f83"/><stop offset=".265" stop-color="#b4256c"/><stop offset=".409" stop-color="#d31c5d"/><stop offset=".531" stop-color="#e51e54"/><stop offset=".616" stop-color="#ec1e4f"/><stop offset="1" stop-color="#f8e47f"/></linearGradient><path fill="url(#q)" stroke="#231F20" stroke-width=".254" d="M176.462 37.084h0l-2.069-.716-1.91-.557-1.83-.159-1.75.159-1.672.318-1.512.557-1.433.795-1.433.875-1.432 1.035-1.354 1.114-1.353 1.193-1.273 1.193-1.272 1.114-1.353 1.114-1.274 1.114-1.352.954.477.08.558.079h.477l.479.159h.477l.558.08h.558l.477.08h.478l.557.079.558.08.557.079h.558l.557.079.557.08.558.079.477-.637.638-.795.637-.875.875-.955.875-1.035.955-1.035 1.114-1.034 1.034-.955 1.193-.954 1.114-.796 1.194-.716 1.193-.636 1.113-.478 1.193-.239 1.114-.079 1.112.162z"/><linearGradient id="r" gradientUnits="userSpaceOnUse" x1="-64.451" y1="212.784" x2="-63.974" y2="213.903" gradientTransform="matrix(24.2 0 0 -15.1 1730.3 3255.709)"><stop offset="0" stop-color="#6a3894"/><stop offset=".106" stop-color="#8a2f83"/><stop offset=".265" stop-color="#b4256c"/><stop offset=".409" stop-color="#d31c5d"/><stop offset=".531" stop-color="#e51e54"/><stop offset=".616" stop-color="#ec1e4f"/><stop offset="1" stop-color="#f8e47f"/></linearGradient><path fill="url(#r)" stroke="#231F20" stroke-width=".254" d="M179.962 37.879h0l-1.193-.398-1.113-.238-1.035-.239-1.113-.079-1.114.079-1.114.239-1.035.318-1.113.557-1.193.636-1.114.796-1.194 1.034-1.272 1.114-1.354 1.354-1.353 1.511-1.433 1.751-1.512 1.91h.796l.796.158h.637l.716.08.637.08.637.159.796.079.954.159.876-.716.716-.717.876-.795.716-.796.796-.796.795-.796.717-.796.796-.717.796-.795.875-.637.716-.716.876-.717.875-.636.955-.479.875-.477 1.03-.474z"/><linearGradient id="s" gradientUnits="userSpaceOnUse" x1="-63.868" y1="211.435" x2="-63.569" y2="212.871" gradientTransform="matrix(21.5 0 0 -14.8 1544.75 3185.16)"><stop offset="0" stop-color="#6a3894"/><stop offset=".106" stop-color="#8a2f83"/><stop offset=".265" stop-color="#b4256c"/><stop offset=".409" stop-color="#d31c5d"/><stop offset=".531" stop-color="#e51e54"/><stop offset=".616" stop-color="#ec1e4f"/><stop offset="1" stop-color="#f8e47f"/></linearGradient><path fill="url(#s)" stroke="#231F20" stroke-width=".254" d="M183.782 38.914h0l-.875-.716-.955-.398-1.035-.079-1.114.238-1.113.478-1.193.637-1.194.796-1.193 1.034-1.193 1.034-1.193 1.115-1.194 1.113-1.114 1.193-1.034 1.034-.955.955-.875.876-.876.716 5.094.557.636-.716.637-.796.558-.716.716-.717.637-.795.637-.716.716-.796.637-.717.717-.637.716-.716.796-.637.875-.637.875-.557.875-.558 1.035-.477.949-.395z"/><linearGradient id="t" gradientUnits="userSpaceOnUse" x1="-64.745" y1="211.074" x2="-64.274" y2="212.257" gradientTransform="matrix(24.5 0 0 -14.3 1765.844 3067.206)"><stop offset="0" stop-color="#6a3894"/><stop offset=".106" stop-color="#8a2f83"/><stop offset=".265" stop-color="#b4256c"/><stop offset=".409" stop-color="#d31c5d"/><stop offset=".531" stop-color="#e51e54"/><stop offset=".616" stop-color="#ec1e4f"/><stop offset="1" stop-color="#f8e47f"/></linearGradient><path fill="url(#t)" stroke="#231F20" stroke-width=".254" d="M191.422 42.177h0l-1.354-1.354-1.353-.954-1.354-.637-1.272-.398-1.273-.079-1.273.238-1.272.479-1.193.556-1.194.876-1.193.955-1.193 1.114-1.114 1.193-1.114 1.273-1.114 1.353-1.114 1.353-1.113 1.273.875.079.716.08h.637l.558.08.557.159.557.079.717.079.875.159.955-1.272.876-1.114 1.034-1.034.875-.875 1.034-.717.876-.717.875-.557.955-.397.875-.397.796-.319.954-.159.796-.238.796-.079.796-.08h1.508z"/><linearGradient id="u" gradientUnits="userSpaceOnUse" x1="-64.85" y1="202.264" x2="-64.586" y2="204.197" gradientTransform="matrix(24.4 0 0 -11 1765.6 2284.36)"><stop offset="0" stop-color="#6a3894"/><stop offset=".106" stop-color="#8a2f83"/><stop offset=".265" stop-color="#b4256c"/><stop offset=".409" stop-color="#d31c5d"/><stop offset=".531" stop-color="#e51e54"/><stop offset=".616" stop-color="#ec1e4f"/><stop offset="1" stop-color="#f8e47f"/></linearGradient><path fill="url(#u)" stroke="#231F20" stroke-width=".254" d="M196.832 43.37h0l-1.512-.558-1.433-.397-1.432-.238-1.354-.079h-1.353l-1.273.238-1.272.238-1.193.398-1.194.557-1.114.637-1.193.717-1.034.875-1.114.875-.955 1.035-1.034 1.113-.955 1.193.955.159 1.114.159 1.113.159 1.114.08 1.034.159.796.079.637.08h.239l.079-.08.239-.238.318-.318.397-.397.478-.479.637-.557.716-.557.796-.717.875-.557.876-.637 1.034-.637 1.114-.557 1.113-.558 1.194-.477 1.273-.398 1.274-.315z"/><linearGradient id="v" gradientUnits="userSpaceOnUse" x1="-64.952" y1="200.356" x2="-64.477" y2="201.999" gradientTransform="matrix(24.3 0 0 -10.3 1767.153 2118.809)"><stop offset="0" stop-color="#6a3894"/><stop offset=".106" stop-color="#8a2f83"/><stop offset=".265" stop-color="#b4256c"/><stop offset=".409" stop-color="#d31c5d"/><stop offset=".531" stop-color="#e51e54"/><stop offset=".616" stop-color="#ec1e4f"/><stop offset="1" stop-color="#f8e47f"/></linearGradient><path fill="url(#v)" stroke="#231F20" stroke-width=".254" d="M203.676 44.246h0l-1.193-.479-1.273-.397-1.353-.159h-1.273l-1.353.159-1.354.238-1.272.479-1.353.477-1.273.637-1.273.638-1.193.795-1.194.796-1.034.796-1.114.875-.954.875-.876.876.637.079.716.08.796.079.875.079.955.159.717.08h1.273v-.08l.16-.238.477-.318.717-.478.796-.477 1.034-.638 1.114-.636 1.113-.637 1.194-.637 1.193-.637 1.193-.637 1.114-.557 1.034-.478.876-.318.796-.239.555-.157z"/><linearGradient id="w" gradientUnits="userSpaceOnUse" x1="-65.224" y1="201.094" x2="-64.969" y2="203.08" gradientTransform="matrix(25.3 0 0 -10.7 1845.856 2214.911)"><stop offset="0" stop-color="#6a3894"/><stop offset=".106" stop-color="#8a2f83"/><stop offset=".265" stop-color="#b4256c"/><stop offset=".409" stop-color="#d31c5d"/><stop offset=".531" stop-color="#e51e54"/><stop offset=".616" stop-color="#ec1e4f"/><stop offset="1" stop-color="#f8e47f"/></linearGradient><path fill="url(#w)" stroke="#231F20" stroke-width=".254" d="M210.201 45.598h0l-.637-1.034-.955-.636-1.272-.16h-1.354l-1.512.319-1.671.477-1.751.717-1.751.796-1.75.875-1.592.876-1.591.954-1.354.876-1.193.716-.876.557-.557.397-.318.16.637.159.796.079.796.08.795.079.876.079.875.08.875.159.796.079.876-.397.875-.397.876-.478.796-.478.875-.398.796-.477.875-.479.875-.477.796-.398.875-.477.876-.398.796-.397.875-.398.875-.318.876-.397.875-.32z"/><linearGradient id="x" gradientUnits="userSpaceOnUse" x1="-64.082" y1="194.369" x2="-64.074" y2="193.569" gradientTransform="matrix(21.4 0 0 -8.7 1581.303 1741.31)"><stop offset="0" stop-color="#f8e47f"/><stop offset=".106" stop-color="#f7db7c"/><stop offset=".349" stop-color="#f3c87b"/><stop offset=".52" stop-color="#f2c179"/><stop offset=".71" stop-color="#f6d17b"/><stop offset="1" stop-color="#f8e47f"/></linearGradient><path fill="url(#x)" stroke="#231F20" stroke-width=".254" d="M218.477 47.827h0l-1.034-.796-1.114-.398-1.193-.159h-1.354l-1.353.239-1.353.397-1.353.478-1.353.637-1.194.716-1.272.637-1.114.796-.955.637-.875.637-.717.557-.557.318-.239.238.717.08.716.079.637.159h.557l.638.079.636.08.716.08.717.08.637-.398.636-.397.717-.558.717-.478.716-.478.716-.477.796-.558.716-.478.717-.398.796-.397.795-.398.717-.238.796-.238.796-.159h.716l.712.079z"/><linearGradient id="y" gradientUnits="userSpaceOnUse" x1="-64.712" y1="198.421" x2="-64.807" y2="196.829" gradientTransform="matrix(23.8 0 0 -9.5 1746.7 1930.61)"><stop offset="0" stop-color="#f8e47f"/><stop offset=".106" stop-color="#f7db7c"/><stop offset=".349" stop-color="#f3c87b"/><stop offset=".52" stop-color="#f2c179"/><stop offset=".71" stop-color="#f6d17b"/><stop offset="1" stop-color="#f8e47f"/></linearGradient><path fill="url(#y)" stroke="#231F20" stroke-width=".254" d="M215.453 46.474h0l-.796-.557-.876-.319-.795-.238-.796-.079-.796.079-.955.159-.954.319-1.035.397-1.113.478-1.115.557-1.272.716-1.433.717-1.512.795-1.671.876-1.831.875-1.989.955.796.079.796.08.796.08.876.159.715.079.558.079.478.08.159-.08.08-.079.317-.238.398-.398.557-.397.717-.479.875-.556.876-.638.954-.557 1.035-.637 1.113-.637 1.114-.477 1.193-.479 1.114-.397 1.193-.239 1.114-.079h1.115z"/><linearGradient id="z" gradientUnits="userSpaceOnUse" x1="-63.351" y1="191.131" x2="-63.468" y2="189.242" gradientTransform="matrix(19.3 0 0 -8 1437.95 1575.96)"><stop offset="0" stop-color="#f8e47f"/><stop offset=".106" stop-color="#f7db7c"/><stop offset=".349" stop-color="#f3c87b"/><stop offset=".52" stop-color="#f2c179"/><stop offset=".71" stop-color="#f6d17b"/><stop offset="1" stop-color="#f8e47f"/></linearGradient><path fill="url(#z)" stroke="#231F20" stroke-width=".254" d="M222.217 50.134h0l-.875-.875-.875-.716-.876-.478-.875-.238-.955-.08-.955.08-1.034.238-.955.317-1.035.558-.954.478-1.035.637-1.034.637-1.034.716-.955.637-.955.716-.955.638.479.079h.636l.717.159.716.079.796.08.875.158.716.08.796.079.318-.636.318-.478.397-.557.398-.398.478-.478.558-.318.556-.318.638-.238.637-.239.716-.238.637-.08.796-.079.796-.08h.716l.796.08.871.078z"/><linearGradient id="A" gradientUnits="userSpaceOnUse" x1="-59.533" y1="149.21" x2="-59.711" y2="145.609" gradientTransform="matrix(12.7 0 0 -4.2 979.848 674.86)"><stop offset="0" stop-color="#f8e47f"/><stop offset=".106" stop-color="#f7db7c"/><stop offset=".349" stop-color="#f3c87b"/><stop offset=".52" stop-color="#f2c179"/><stop offset=".71" stop-color="#f6d17b"/><stop offset="1" stop-color="#f8e47f"/></linearGradient><path fill="url(#A)" stroke="#231F20" stroke-width=".254" d="M227.946 53.237h0l-.239-.397-.397-.318-.478-.318-.557-.159-.717-.159h-2.307l-.796.159-.796.238-.796.239-.717.318-.716.397-.637.478-.557.478-.397.557.397.08.478.079.557.08.478.159h.478l.398.08h.317l.238-.08.398-.318.796-.397.955-.398 1.034-.318 1.193-.397 1.193-.16 1.197.077z"/><linearGradient id="B" gradientUnits="userSpaceOnUse" x1="-57.009" y1="131.27" x2="-56.994" y2="129.282" gradientTransform="matrix(10.3 0 0 -3.5 812.052 509.41)"><stop offset="0" stop-color="#f8e47f"/><stop offset=".106" stop-color="#f7db7c"/><stop offset=".349" stop-color="#f3c87b"/><stop offset=".52" stop-color="#f2c179"/><stop offset=".71" stop-color="#f6d17b"/><stop offset="1" stop-color="#f8e47f"/></linearGradient><path fill="url(#B)" stroke="#231F20" stroke-width=".254" d="M229.061 55.147h0v-.796l-.159-.557-.318-.318-.557-.239-.558-.159-.717.079-.715.08-.876.239-.796.238-.796.318-.716.239-.637.318-.557.238-.479.159-.238.239h-.079l3.74.636.317-.079.479-.159.557-.159.637-.238.637-.08.716-.159h.557l.558.16z"/><linearGradient id="C" gradientUnits="userSpaceOnUse" x1="-62.334" y1="177.3" x2="-62.325" y2="176.178" gradientTransform="matrix(16.8 0 0 -6.2 1266.403 1149.36)"><stop offset="0" stop-color="#f8e47f"/><stop offset=".106" stop-color="#f7db7c"/><stop offset=".349" stop-color="#f3c87b"/><stop offset=".52" stop-color="#f2c179"/><stop offset=".71" stop-color="#f6d17b"/><stop offset="1" stop-color="#f8e47f"/></linearGradient><path fill="url(#C)" stroke="#231F20" stroke-width=".254" d="M225.957 52.044h0l-.716-.637-.796-.478-.876-.397-.954-.318-1.035-.159-.954-.159h-1.035l-1.034.159-.955.159-.955.318-.875.397-.875.397-.717.637-.716.638-.478.716-.398.795.558.08.557.08.637.079.637.08.636.079.717.08.717.079.796.159.317-.478.318-.318.318-.318.478-.317.398-.319.557-.238.478-.238.557-.239.558-.159.637-.159.557-.08.557-.079h1.832l.552.158z"/><linearGradient id="D" gradientUnits="userSpaceOnUse" x1="-39.463" y1="215.278" x2="-40.307" y2="214.378" gradientTransform="matrix(6 0 0 -16.6 299.7 3604.554)"><stop offset="0" stop-color="#7f3996"/><stop offset=".071" stop-color="#9c2f82"/><stop offset=".16" stop-color="#b92770"/><stop offset=".254" stop-color="#d02162"/><stop offset=".355" stop-color="#df1e57"/><stop offset=".468" stop-color="#e91f52"/><stop offset=".616" stop-color="#ec1e4f"/><stop offset="1" stop-color="#f8e47f"/></linearGradient><path fill="url(#D)" stroke="#231F20" stroke-width=".254" d="M60.918 29.842h0l-.08.159-.238.319-.318.637-.398.716-.478.875-.477 1.034-.398 1.114-.398 1.114-.239 1.114-.08 1.114v1.113l.239 1.035.557.955.796.795 1.114.637 1.432.479-.238-.717-.16-.717-.159-.716-.079-.876-.08-.795v-.875l.08-.875.079-.875.08-.875.08-.875.16-.875.159-.796.159-.716.159-.716.239-.716.159-.557-.239-.159h-.159l-.239-.08-.159-.079-.239-.08-.159-.08-.239-.08-.239-.08z"/><linearGradient id="E" gradientUnits="userSpaceOnUse" x1="-44.477" y1="219.201" x2="-45.19" y2="218.455" gradientTransform="matrix(7.1 0 0 -20 382.548 4416.265)"><stop offset="0" stop-color="#7f3996"/><stop offset=".071" stop-color="#9c2f82"/><stop offset=".16" stop-color="#b92770"/><stop offset=".254" stop-color="#d02162"/><stop offset=".355" stop-color="#df1e57"/><stop offset=".468" stop-color="#e91f52"/><stop offset=".616" stop-color="#ec1e4f"/><stop offset="1" stop-color="#f8e47f"/></linearGradient><path fill="url(#E)" stroke="#231F20" stroke-width=".254" d="M62.51 30.479h0l-.637 2.546-.478 2.308-.239 1.989v1.75l.08 1.592.238 1.272.398 1.115.398.954.557.716.636.558.557.478.637.318.637.238.557.079h.955l-.239-.716-.318-.716-.238-.875-.16-.796-.159-.955-.159-.875-.16-.955-.079-.955-.08-1.034v-.955l.08-1.035.079-.955.16-1.034.159-.955.239-.955.318-.955-.557-.239-.557-.159-.557-.159-.477-.159-.398-.159-.478-.159-.398-.08-.317-.078z"/><linearGradient id="F" gradientUnits="userSpaceOnUse" x1="-49.274" y1="220.463" x2="-49.863" y2="219.765" gradientTransform="matrix(8.6 0 0 -21.4 495.103 4751.666)"><stop offset="0" stop-color="#7f3996"/><stop offset=".071" stop-color="#9c2f82"/><stop offset=".16" stop-color="#b92770"/><stop offset=".254" stop-color="#d02162"/><stop offset=".355" stop-color="#df1e57"/><stop offset=".468" stop-color="#e91f52"/><stop offset=".616" stop-color="#ec1e4f"/><stop offset="1" stop-color="#f8e47f"/></linearGradient><path fill="url(#F)" stroke="#231F20" stroke-width=".254" d="M66.25 31.673h0l-.238.875-.318 1.193-.159 1.273-.08 1.433-.08 1.592v1.591l.16 1.592.238 1.512.319 1.433.398 1.353.636 1.114.716.955.875.716 1.034.318 1.114.08 1.353-.398-.478-.796-.557-.875-.398-.955-.398-.875-.239-.955-.318-.955-.159-.955-.16-.955-.159-1.034v-1.989l.08-.955.08-1.034.16-.955.238-1.034.239-1.034-.477-.16-.558-.159-.557-.159-.557-.242-.557-.159-.398-.159-.478-.159-.317-.079z"/><linearGradient id="G" gradientUnits="userSpaceOnUse" x1="-53.813" y1="221.416" x2="-54.282" y2="220.756" gradientTransform="matrix(10.8 0 0 -22.6 657.496 5039.459)"><stop offset="0" stop-color="#7f3996"/><stop offset=".071" stop-color="#9c2f82"/><stop offset=".16" stop-color="#b92770"/><stop offset=".254" stop-color="#d02162"/><stop offset=".355" stop-color="#df1e57"/><stop offset=".468" stop-color="#e91f52"/><stop offset=".616" stop-color="#ec1e4f"/><stop offset="1" stop-color="#f8e47f"/></linearGradient><path fill="url(#G)" stroke="#231F20" stroke-width=".254" d="M78.027 50.851h0l-1.193.079-1.273-.159-1.035-.478-.955-.636-.955-.876-.796-1.034-.636-1.194-.558-1.353-.478-1.433-.398-1.591-.239-1.512-.08-1.592V37.48l.159-1.591.239-1.512.398-1.432.557.159.478.239.557.08.557.239.557.159.637.159.557.238.557.16v2.069l.08 1.194v1.193l.08 1.273.079 1.273.08 1.353.159 1.273.239 1.273.159 1.113.239 1.114.318 1.035.398.795.478.717.478.478.556.32z"/><linearGradient id="H" gradientUnits="userSpaceOnUse" x1="-48.875" y1="221.58" x2="-49.274" y2="220.746" gradientTransform="matrix(8.3 0 0 -22.6 485.45 5041.256)"><stop offset="0" stop-color="#7f3996"/><stop offset=".096" stop-color="#873a93"/><stop offset=".247" stop-color="#9e3b90"/><stop offset=".433" stop-color="#c23b89"/><stop offset=".616" stop-color="#ec3e81"/><stop offset="1" stop-color="#f8e47f"/></linearGradient><path fill="url(#H)" stroke="#231F20" stroke-width=".254" d="M74.764 34.378h0l.478.238.478.16.397.08.478.08.398.159.478.16.478.159.398.159.08.955.079.955.08 1.114v3.58l.08 1.273v1.193l.159 1.194.079 1.193.239 1.113.238 1.034.398.955.398.955.557.717.637.557-1.353-.318-1.115-.397-.955-.717-.796-.716-.637-.876-.477-1.034-.398-1.114-.239-1.113-.239-1.354-.159-1.353v-1.353l-.08-1.512v-1.433l-.079-1.512V35.97l-.08-1.592z"/><linearGradient id="I" gradientUnits="userSpaceOnUse" x1="-54.229" y1="221.856" x2="-54.385" y2="221.363" gradientTransform="matrix(10.8 0 0 -23.4 668.802 5233.557)"><stop offset="0" stop-color="#7f3996"/><stop offset=".071" stop-color="#9c2f82"/><stop offset=".16" stop-color="#b92770"/><stop offset=".254" stop-color="#d02162"/><stop offset=".355" stop-color="#df1e57"/><stop offset=".468" stop-color="#e91f52"/><stop offset=".616" stop-color="#ec1e4f"/><stop offset="1" stop-color="#f8e47f"/></linearGradient><path fill="url(#I)" stroke="#231F20" stroke-width=".254" d="M87.019 54.192h0l-1.83-.08-1.592-.397-1.273-.558-1.035-.795-.875-1.035-.637-1.193-.477-1.273-.318-1.433-.159-1.512-.159-1.513-.08-1.592v-4.534l-.08-1.432-.079-1.273.477.16.478.079.398.159.478.159.478.159.398.08.478.159.557.08-.08.159-.079.318-.08.557-.16.636-.08.796-.079.954-.08 1.035.08 1.194.079 1.272.239 1.433.478 1.432.477 1.434.716 1.591.955 1.592 1.114 1.592 1.352 1.59z"/><linearGradient id="J" gradientUnits="userSpaceOnUse" x1="-58.904" y1="222.881" x2="-59.017" y2="222.417" gradientTransform="matrix(14.9 0 0 -24.9 965.85 5592.604)"><stop offset="0" stop-color="#7f3996"/><stop offset=".071" stop-color="#9c2f82"/><stop offset=".16" stop-color="#b92770"/><stop offset=".254" stop-color="#d02162"/><stop offset=".355" stop-color="#df1e57"/><stop offset=".468" stop-color="#e91f52"/><stop offset=".616" stop-color="#ec1e4f"/><stop offset="1" stop-color="#f8e47f"/></linearGradient><path fill="url(#J)" stroke="#231F20" stroke-width=".254" d="M93.385 56.183h0l-1.273.238-1.273-.08-1.194-.398-1.193-.715-1.194-.876-1.114-1.034-.955-1.273-.955-1.432-.796-1.592-.716-1.672-.557-1.751-.398-1.75-.159-1.83-.08-1.83.159-1.751.398-1.83 4.377 1.433v.716l-.08.875.08.955.08 1.114.159 1.193.238 1.273.16 1.273.398 1.353.397 1.353.557 1.273.557 1.273.716 1.272.716 1.193.875 1.115.955 1.034 1.115.878z"/><linearGradient id="K" gradientUnits="userSpaceOnUse" x1="-58.834" y1="222.523" x2="-59.014" y2="221.47" gradientTransform="matrix(14.7 0 0 -24.2 957.652 5427.356)"><stop offset="0" stop-color="#7f3996"/><stop offset=".071" stop-color="#9c2f82"/><stop offset=".16" stop-color="#b92770"/><stop offset=".254" stop-color="#d02162"/><stop offset=".355" stop-color="#df1e57"/><stop offset=".468" stop-color="#e91f52"/><stop offset=".616" stop-color="#ec1e4f"/><stop offset="1" stop-color="#f8e47f"/></linearGradient><path fill="url(#K)" stroke="#231F20" stroke-width=".254" d="M86.382 37.959h0l.716.239.875.159.955.398 1.035.238.955.319.955.317.875.159.636.159.08 1.114.08 1.114.08 1.193.08 1.193.08 1.194.159 1.273.08 1.193.239 1.193.239 1.194.239 1.113.398 1.114.398.955.477 1.034.637.796.637.796.795.716-.955.08h-.957l-.955-.239-.955-.393-1.035-.638-.955-.715-.875-.955-.955-1.115-.875-1.272-.716-1.512-.716-1.592-.557-1.83-.478-1.989-.398-2.149-.239-2.387-.079-2.467z"/><linearGradient id="L" gradientUnits="userSpaceOnUse" x1="-57.87" y1="221.557" x2="-57.995" y2="221.05" gradientTransform="matrix(13.5 0 0 -22.8 880.648 5095.956)"><stop offset="0" stop-color="#7f3996"/><stop offset=".071" stop-color="#9c2f82"/><stop offset=".16" stop-color="#b92770"/><stop offset=".254" stop-color="#d02162"/><stop offset=".355" stop-color="#df1e57"/><stop offset=".468" stop-color="#e91f52"/><stop offset=".616" stop-color="#ec1e4f"/><stop offset="1" stop-color="#f8e47f"/></linearGradient><path fill="url(#L)" stroke="#231F20" stroke-width=".254" d="M104.127 58.013h0l-2.069.079-1.75-.159-1.512-.478-1.194-.796-1.034-.955-.875-1.193-.557-1.273-.478-1.512-.398-1.433-.239-1.671-.08-1.591-.159-1.513-.08-1.591-.08-1.433-.08-1.353-.159-1.194.637.079.557.16.557.159.477.159.557.159.478.158.637.159.717.163.159 1.272.08 1.193.159 1.194.159 1.193.159 1.114.159 1.114.239 1.113.239 1.035.318 1.034.397 1.035.478.955.478.954.637.955.716.955.875.875.875.879z"/><linearGradient id="M" gradientUnits="userSpaceOnUse" x1="-59.029" y1="221.443" x2="-59.209" y2="220.311" gradientTransform="matrix(14.7 0 0 -22.5 972.347 5026.016)"><stop offset="0" stop-color="#7f3996"/><stop offset=".071" stop-color="#9c2f82"/><stop offset=".16" stop-color="#b92770"/><stop offset=".254" stop-color="#d02162"/><stop offset=".355" stop-color="#df1e57"/><stop offset=".468" stop-color="#e91f52"/><stop offset=".616" stop-color="#ec1e4f"/><stop offset="1" stop-color="#f8e47f"/></linearGradient><path fill="url(#M)" stroke="#231F20" stroke-width=".254" d="M109.777 59.047h0l-1.831.079-1.67-.238-1.433-.478-1.273-.796-1.034-.955-.955-1.193-.716-1.354-.636-1.432-.557-1.433-.398-1.591-.398-1.513-.159-1.592-.239-1.511-.159-1.354-.16-1.353-.08-1.114.637.159.557.159.478.159.557.079.477.159.478.08.637.159.637.159.238 1.83.319 1.672.318 1.591.318 1.512.398 1.273.398 1.353.478 1.114.478 1.034.398.955.557.875.557.796.478.637.557.716.558.479.636.477.554.401z"/><linearGradient id="N" gradientUnits="userSpaceOnUse" x1="-59.884" y1="221.111" x2="-59.942" y2="220.51" gradientTransform="matrix(15.7 0 0 -22 1049.448 4908.156)"><stop offset="0" stop-color="#7f3996"/><stop offset=".071" stop-color="#9c2f82"/><stop offset=".16" stop-color="#b92770"/><stop offset=".254" stop-color="#d02162"/><stop offset=".355" stop-color="#df1e57"/><stop offset=".468" stop-color="#e91f52"/><stop offset=".616" stop-color="#ec1e4f"/><stop offset="1" stop-color="#f8e47f"/></linearGradient><path fill="url(#N)" stroke="#231F20" stroke-width=".254" d="M115.029 59.763h0l-1.75.08-1.592-.239-1.353-.478-1.272-.796-1.115-.954-.955-1.114-.875-1.273-.716-1.433-.637-1.433-.557-1.511-.398-1.513-.318-1.512-.398-1.433-.159-1.433-.239-1.272-.159-1.114.557.159.557.079.557.159.557.159.557.16.557.079.557.159.557.159.08.875.159.955.159 1.034.318 1.114.318 1.193.478 1.194.478 1.193.478 1.193.637 1.273.636 1.114.637 1.113.716.955.716 1.034.716.796.796.717.715.562z"/><linearGradient id="O" gradientUnits="userSpaceOnUse" x1="-61.052" y1="221.138" x2="-61.116" y2="220.346" gradientTransform="matrix(17.4 0 0 -22.1 1176.6 4933.412)"><stop offset="0" stop-color="#7f3996"/><stop offset=".071" stop-color="#9c2f82"/><stop offset=".16" stop-color="#b92770"/><stop offset=".254" stop-color="#d02162"/><stop offset=".355" stop-color="#df1e57"/><stop offset=".468" stop-color="#e91f52"/><stop offset=".616" stop-color="#ec1e4f"/><stop offset="1" stop-color="#f8e47f"/></linearGradient><path fill="url(#O)" stroke="#231F20" stroke-width=".254" d="M120.838 60.797h0l-1.83.239-1.671-.239-1.512-.557-1.353-.955-1.353-1.193-1.114-1.354-.955-1.591-.955-1.592-.716-1.75-.716-1.672-.557-1.591-.398-1.512-.318-1.273-.239-1.114-.159-.716v-.477l.716.079.636.159.637.239.716.079.636.239.558.079.636.159.557.079.239.796.239.955.318 1.034.318 1.194.398 1.273.398 1.272.478 1.354.478 1.353.557 1.272.637 1.194.636 1.193.716.955.716.875.796.717.875.557.955.241z"/><linearGradient id="P" gradientUnits="userSpaceOnUse" x1="-60.324" y1="219.841" x2="-60.394" y2="218.988" gradientTransform="matrix(16.1 0 0 -20.5 1090.252 4553.313)"><stop offset="0" stop-color="#7f3996"/><stop offset=".071" stop-color="#9c2f82"/><stop offset=".16" stop-color="#b92770"/><stop offset=".254" stop-color="#d02162"/><stop offset=".355" stop-color="#df1e57"/><stop offset=".468" stop-color="#e91f52"/><stop offset=".616" stop-color="#ec1e4f"/><stop offset="1" stop-color="#f8e47f"/></linearGradient><path fill="url(#P)" stroke="#231F20" stroke-width=".254" d="M125.056 60.559h0l-1.671.398h-1.433l-1.353-.319-1.273-.636-1.114-.876-.955-1.113-.875-1.274-.795-1.432-.637-1.433-.637-1.512-.398-1.592-.477-1.433-.398-1.432-.239-1.273-.318-1.114-.239-.875.557.159h.478l.478.08.397.079.478.159.398.079.398.08.398.079.159 1.034.239 1.114.238 1.114.318 1.035.318 1.113.478 1.114.398 1.034.557.955.557 1.034.716.955.716.955.716.796.875.875.875.717 1.035.716 1.035.64z"/><linearGradient id="Q" gradientUnits="userSpaceOnUse" x1="-61.647" y1="219.661" x2="-61.791" y2="218.399" gradientTransform="matrix(18.3 0 0 -20.2 1252.044 4482.653)"><stop offset="0" stop-color="#7f3996"/><stop offset=".071" stop-color="#9c2f82"/><stop offset=".16" stop-color="#b92770"/><stop offset=".254" stop-color="#d02162"/><stop offset=".355" stop-color="#df1e57"/><stop offset=".468" stop-color="#e91f52"/><stop offset=".616" stop-color="#ec1e4f"/><stop offset="1" stop-color="#f8e47f"/></linearGradient><path fill="url(#Q)" stroke="#231F20" stroke-width=".254" d="M130.388 61.434h0-1.433l-1.353-.159-1.273-.317-1.273-.479-1.114-.636-1.193-.796-1.034-.955-1.035-1.034-.875-1.115-.795-1.272-.796-1.353-.637-1.433-.557-1.592-.478-1.591-.397-1.671-.318-1.672.636.08.557.079.637.159.636.08.557.159.558.079.636.08.557.159.318.954.159 1.035.319.954.238 1.035.239.954.319.955.397.955.398.955.477.955.558.954.716.955.796.876.955.875 1.114.955 1.273.955 1.511.878z"/><linearGradient id="R" gradientUnits="userSpaceOnUse" x1="-63.111" y1="219.688" x2="-63.234" y2="218.424" gradientTransform="matrix(21.5 0 0 -20.2 1487.046 4483.855)"><stop offset="0" stop-color="#7f3996"/><stop offset=".071" stop-color="#9c2f82"/><stop offset=".16" stop-color="#b92770"/><stop offset=".254" stop-color="#d02162"/><stop offset=".355" stop-color="#df1e57"/><stop offset=".468" stop-color="#e91f52"/><stop offset=".616" stop-color="#ec1e4f"/><stop offset="1" stop-color="#f8e47f"/></linearGradient><path fill="url(#R)" stroke="#231F20" stroke-width=".254" d="M137.867 62.309h0l-1.83.08-1.75-.08-1.592-.238-1.592-.478-1.433-.636-1.353-.796-1.194-.876-1.114-1.113-1.035-1.194-.955-1.273-.796-1.432-.716-1.433-.637-1.592-.477-1.591-.398-1.672-.239-1.671.478.079.557.159.557.08.557.08.557.079.637.159.557.08.637.158.159 1.114.318 1.193.318 1.115.478 1.113.557 1.114.637 1.113.716 1.114.716 1.035.875.955.955.955.955.875 1.034.875 1.114.716 1.194.717 1.272.557 1.276.56z"/><linearGradient id="S" gradientUnits="userSpaceOnUse" x1="-62.98" y1="218.894" x2="-63.06" y2="218.302" gradientTransform="matrix(21 0 0 -19.5 1457 4318.016)"><stop offset="0" stop-color="#7f3996"/><stop offset=".071" stop-color="#9c2f82"/><stop offset=".16" stop-color="#b92770"/><stop offset=".254" stop-color="#d02162"/><stop offset=".355" stop-color="#df1e57"/><stop offset=".468" stop-color="#e91f52"/><stop offset=".616" stop-color="#ec1e4f"/><stop offset="1" stop-color="#f8e47f"/></linearGradient><path fill="url(#S)" stroke="#231F20" stroke-width=".254" d="M142.005 62.707h0l-1.592-.08-1.432-.238-1.512-.318-1.433-.558-1.353-.716-1.353-.716-1.194-.875-1.193-1.034-1.034-1.114-1.035-1.194-.874-1.353-.796-1.354-.636-1.432-.557-1.433-.478-1.512-.239-1.592.478.08h.477l.398.079.478.08h.398l.477.081.558.16.636.079.637 1.353.558 1.193.557 1.194.478 1.114.557 1.113.558.955.557.955.557.875.717.876.716.796.796.795.954.796 1.035.716 1.273.796 1.272.717 1.589.716z"/><linearGradient id="T" gradientUnits="userSpaceOnUse" x1="-64.449" y1="219.148" x2="-64.552" y2="217.847" gradientTransform="matrix(25.5 0 0 -19.6 1783.547 4342.46)"><stop offset="0" stop-color="#7f3996"/><stop offset=".071" stop-color="#9c2f82"/><stop offset=".16" stop-color="#b92770"/><stop offset=".254" stop-color="#d02162"/><stop offset=".355" stop-color="#df1e57"/><stop offset=".468" stop-color="#e91f52"/><stop offset=".616" stop-color="#ec1e4f"/><stop offset="1" stop-color="#f8e47f"/></linearGradient><path fill="url(#T)" stroke="#231F20" stroke-width=".254" d="M149.406 63.185h0l-2.309.079-2.068-.079-1.91-.318-1.751-.478-1.671-.716-1.432-.876-1.354-.954-1.193-1.115-1.114-1.193-1.034-1.272-.875-1.354-.796-1.432-.796-1.433-.716-1.432-.637-1.513-.637-1.432.398.079.556.08.717.079.717.079.716.159.636.08.558.079.478.079.557 1.274.557 1.272.717 1.273.716 1.114.796 1.114.796 1.034.876.955.955.955 1.034.875 1.034.875 1.114.796 1.193.796 1.194.637 1.272.716 1.272.557 1.434.561z"/><linearGradient id="U" gradientUnits="userSpaceOnUse" x1="-64.369" y1="218.794" x2="-64.436" y2="218.198" gradientTransform="matrix(25 0 0 -19.4 1753.797 4295.666)"><stop offset="0" stop-color="#7f3996"/><stop offset=".071" stop-color="#9c2f82"/><stop offset=".16" stop-color="#b92770"/><stop offset=".254" stop-color="#d02162"/><stop offset=".355" stop-color="#df1e57"/><stop offset=".468" stop-color="#e91f52"/><stop offset=".616" stop-color="#ec1e4f"/><stop offset="1" stop-color="#f8e47f"/></linearGradient><path fill="url(#U)" stroke="#231F20" stroke-width=".254" d="M153.782 63.821h0-1.193l-1.353-.239-1.354-.318-1.432-.477-1.433-.637-1.433-.717-1.512-.875-1.432-.955-1.354-1.114-1.353-1.193-1.273-1.273-1.193-1.432-1.035-1.434-.954-1.511-.876-1.592-.716-1.672.716.08.717.08.716.079.716.08h.637l.558.159.477.079.239.159.875.637.796.637.875.875.876.796.875.955.955.954.955 1.035.875 1.034.955 1.035.955 1.034 1.034 1.034.955 1.035 1.034.954 1.034.955 1.034.955 1.037.798z"/><linearGradient id="V" gradientUnits="userSpaceOnUse" x1="-64.999" y1="219.654" x2="-65.096" y2="218.385" gradientTransform="matrix(27.4 0 0 -20.1 1931.506 4463.304)"><stop offset="0" stop-color="#7f3996"/><stop offset=".071" stop-color="#9c2f82"/><stop offset=".16" stop-color="#b92770"/><stop offset=".254" stop-color="#d02162"/><stop offset=".355" stop-color="#df1e57"/><stop offset=".468" stop-color="#e91f52"/><stop offset=".616" stop-color="#ec1e4f"/><stop offset="1" stop-color="#f8e47f"/></linearGradient><path fill="url(#V)" stroke="#231F20" stroke-width=".254" d="M160.547 63.821h0l-1.194.796-1.273.318h-1.193l-1.354-.318-1.272-.637-1.272-.876-1.354-1.113-1.353-1.273-1.354-1.433-1.353-1.433-1.512-1.591-1.432-1.592-1.434-1.513-1.432-1.511-1.512-1.433-1.513-1.273h.558l.558.159h.715l.717.159.716.079.796.159.637.08.637.159 1.113 1.034 1.194 1.035 1.114 1.113 1.114 1.114 1.034 1.114 1.113 1.114 1.035 1.114 1.034 1.034 1.035 1.034 1.034.955.955.796.955.716.955.637.954.557.955.478.879.242z"/><linearGradient id="W" gradientUnits="userSpaceOnUse" x1="-65.035" y1="218.05" x2="-65.097" y2="217.431" gradientTransform="matrix(27.3 0 0 -18.7 1931.044 4130.217)"><stop offset="0" stop-color="#7f3996"/><stop offset=".071" stop-color="#9c2f82"/><stop offset=".16" stop-color="#b92770"/><stop offset=".254" stop-color="#d02162"/><stop offset=".355" stop-color="#df1e57"/><stop offset=".468" stop-color="#e91f52"/><stop offset=".616" stop-color="#ec1e4f"/><stop offset="1" stop-color="#f8e47f"/></linearGradient><path fill="url(#W)" stroke="#231F20" stroke-width=".254" d="M165.798 64.457h0-1.91l-1.75-.238-1.671-.397-1.592-.637-1.433-.717-1.353-.955-1.272-1.034-1.194-1.113-1.193-1.193-1.193-1.274-1.114-1.193-1.114-1.353-1.193-1.273-1.193-1.272-1.273-1.114-1.273-1.114h.478l.557.08.637.079.717.08.716.079h.557l.478.079h.239l.796.159.795.398.796.478.796.716.875.876.876.954.954 1.035.876 1.113 1.113 1.114 1.035 1.194 1.193 1.193 1.273 1.113 1.353 1.193 1.433 1.035 1.512 1.034 1.666.875z"/><linearGradient id="X" gradientUnits="userSpaceOnUse" x1="-48.678" y1="215.055" x2="-47.893" y2="216.306" gradientTransform="matrix(8.2 0 0 -17 462.8 3679.156)"><stop offset="0" stop-color="#6a3894"/><stop offset=".106" stop-color="#8a2f83"/><stop offset=".265" stop-color="#b4256c"/><stop offset=".409" stop-color="#d31c5d"/><stop offset=".531" stop-color="#e51e54"/><stop offset=".616" stop-color="#ec1e4f"/><stop offset="1" stop-color="#f8e47f"/></linearGradient><path fill="url(#X)" stroke="#231F20" stroke-width=".254" d="M62.669 26.262h0v-.159l-.08-.557v-.796l-.08-.955-.08-1.114.08-1.273.08-1.273.08-1.353.318-1.273.319-1.194.477-1.114.716-.875.796-.636 1.034-.318 1.194-.08 1.432.398-.398.397-.477.558-.398.716-.398.716-.318.875-.318.795-.318.955-.318.955-.318.955-.239.955-.239.955-.239.955-.159.955-.159.875-.159.796-.159.716h-.238l-.16-.08-.238-.08-.159-.079-.16-.08-.238-.08-.239-.08-.24-.078z"/><linearGradient id="Y" gradientUnits="userSpaceOnUse" x1="-55.292" y1="216.959" x2="-54.638" y2="218.065" gradientTransform="matrix(11.6 0 0 -18.6 708.298 4060.053)"><stop offset="0" stop-color="#6a3894"/><stop offset=".106" stop-color="#8a2f83"/><stop offset=".265" stop-color="#b4256c"/><stop offset=".409" stop-color="#d31c5d"/><stop offset=".531" stop-color="#e51e54"/><stop offset=".616" stop-color="#ec1e4f"/><stop offset="1" stop-color="#f8e47f"/></linearGradient><path fill="url(#Y)" stroke="#231F20" stroke-width=".254" d="M64.34 26.978h0l.637-3.024.637-2.546.636-2.149.637-1.83.636-1.432.716-1.194.637-.796.557-.636.637-.398.557-.159.637-.08.477.08.557.159.478.239.398.318.398.239-.716.636-.637.716-.557.637-.557.716-.557.716-.478.796-.478.795-.397.875-.398.875-.398.875-.399.956-.318.955-.239 1.034-.318 1.035-.238 1.035-.239 1.114-.557-.08h-.398l-.319-.159-.159-.08h-.239l-.159-.08-.159-.08-.318-.078z"/><linearGradient id="Z" gradientUnits="userSpaceOnUse" x1="-59.035" y1="218.74" x2="-58.611" y2="219.788" gradientTransform="matrix(15.2 0 0 -20.3 968.597 4466.003)"><stop offset="0" stop-color="#6a3894"/><stop offset=".106" stop-color="#8a2f83"/><stop offset=".265" stop-color="#b4256c"/><stop offset=".409" stop-color="#d31c5d"/><stop offset=".531" stop-color="#e51e54"/><stop offset=".616" stop-color="#ec1e4f"/><stop offset="1" stop-color="#f8e47f"/></linearGradient><path fill="url(#Z)" stroke="#231F20" stroke-width=".254" d="M66.647 27.853h0l.159-1.114.239-1.273.398-1.353.478-1.512.557-1.513.716-1.512.716-1.432.875-1.353.875-1.193.875-1.035 1.035-.795.955-.478 1.114-.159 1.035.159 1.034.557 1.035 1.114-.796.557-.796.716-.716.716-.716.716-.716.716-.557.795-.557.875-.557.796-.478.955-.398.955-.477.955-.318 1.034-.319 1.035-.238 1.114-.239 1.193-.159 1.194-.478-.159-.557-.159-.637-.239-.557-.159-.557-.239-.557-.239-.398-.159-.318-.077z"/><linearGradient id="aa" gradientUnits="userSpaceOnUse" x1="-60.679" y1="218.712" x2="-60.242" y2="219.726" gradientTransform="matrix(17.4 0 0 -20.3 1131.303 4467.613)"><stop offset="0" stop-color="#6a3894"/><stop offset=".106" stop-color="#8a2f83"/><stop offset=".265" stop-color="#b4256c"/><stop offset=".409" stop-color="#d31c5d"/><stop offset=".531" stop-color="#e51e54"/><stop offset=".616" stop-color="#ec1e4f"/><stop offset="1" stop-color="#f8e47f"/></linearGradient><path fill="url(#aa)" stroke="#231F20" stroke-width=".254" d="M84.791 15.678h0l-1.114-.716-1.114-.398-1.193-.159-1.114.159-1.193.318-1.114.637-1.035.795-1.034 1.035-.875 1.114-.955 1.273-.796 1.433-.716 1.512-.557 1.512-.478 1.671-.398 1.671-.16 1.751.558.159.557.08.557.239.557.159.636.239.558.159.557.159.637.08.398-1.035.398-1.193.398-1.114.478-1.193.397-1.194.557-1.193.478-1.194.557-1.114.557-1.035.557-.955.637-.955.716-.796.717-.716.716-.557.796-.398.872-.24z"/><linearGradient id="ab" gradientUnits="userSpaceOnUse" x1="-61.091" y1="218.856" x2="-60.735" y2="219.898" gradientTransform="matrix(18.1 0 0 -20.4 1187.056 4493.26)"><stop offset="0" stop-color="#6a3894"/><stop offset=".106" stop-color="#8a2f83"/><stop offset=".265" stop-color="#b4256c"/><stop offset=".409" stop-color="#d31c5d"/><stop offset=".531" stop-color="#e51e54"/><stop offset=".616" stop-color="#ec1e4f"/><stop offset="1" stop-color="#f8e47f"/></linearGradient><path fill="url(#ab)" stroke="#231F20" stroke-width=".254" d="M89.884 17.031h0l-1.831-.717-1.512-.477h-1.432l-1.273.239-1.114.478-.955.795-.875.955-.796 1.193-.637 1.273-.636 1.433-.637 1.512-.557 1.512-.478 1.512-.557 1.512-.557 1.433-.557 1.353.478.08.478.08.477.159.398.159.478.159.478.159.557.16.477.08.08-.159v-.478l.16-.557.159-.875.159-.955.398-1.114.318-1.193.557-1.273.557-1.273.717-1.194.875-1.273.955-1.194 1.193-1.114 1.273-.875 1.512-.875 1.67-.64z"/><linearGradient id="ac" gradientUnits="userSpaceOnUse" x1="-62.706" y1="219.511" x2="-62.35" y2="220.481" gradientTransform="matrix(21.3 0 0 -21.2 1420.856 4684.965)"><stop offset="0" stop-color="#6a3894"/><stop offset=".106" stop-color="#8a2f83"/><stop offset=".265" stop-color="#b4256c"/><stop offset=".409" stop-color="#d31c5d"/><stop offset=".531" stop-color="#e51e54"/><stop offset=".616" stop-color="#ec1e4f"/><stop offset="1" stop-color="#f8e47f"/></linearGradient><path fill="url(#ac)" stroke="#231F20" stroke-width=".254" d="M96.409 18.065h0l-1.035-.796-1.193-.557-1.353-.159-1.273.08-1.353.238-1.432.557-1.353.796-1.353.876-1.273 1.194-1.194 1.273-1.035 1.512-1.034 1.591-.796 1.751-.637 1.83-.398 1.91-.239 2.068 4.775 1.194.238-.796.398-.875.319-1.035.477-1.034.557-1.114.557-1.193.636-1.114.716-1.194.796-1.114.875-1.114.955-1.034.955-.955 1.035-.875 1.193-.796 1.194-.636 1.275-.479z"/><linearGradient id="ad" gradientUnits="userSpaceOnUse" x1="-62.938" y1="220.19" x2="-62.645" y2="221.162" gradientTransform="matrix(21.9 0 0 -21.9 1469.647 4853.807)"><stop offset="0" stop-color="#6a3894"/><stop offset=".106" stop-color="#8a2f83"/><stop offset=".265" stop-color="#b4256c"/><stop offset=".409" stop-color="#d31c5d"/><stop offset=".531" stop-color="#e51e54"/><stop offset=".616" stop-color="#ec1e4f"/><stop offset="1" stop-color="#f8e47f"/></linearGradient><path fill="url(#ad)" stroke="#231F20" stroke-width=".254" d="M84.154 33.583h0l.716.159.875.159.875.239.955.318.955.318.875.238.795.239.796.238-.159-.08.637-1.114.557-1.194.478-1.193.478-1.273.557-1.273.478-1.114.478-1.273.637-1.273.636-1.114.637-.955.795-1.034.795-.875.716-.796.955-.637.955-.477.955-.398-.875-.557-.875-.398-.955-.318-1.114-.08-1.114.08-1.114.318-1.194.478-1.193.716-1.194.875-1.194 1.114-1.193 1.353-1.194 1.592-1.114 1.83-1.114 2.069-1.034 2.467-.956 2.626z"/><linearGradient id="ae" gradientUnits="userSpaceOnUse" x1="-62.507" y1="219.679" x2="-62.194" y2="220.677" gradientTransform="matrix(20.6 0 0 -21.3 1385.306 4712.706)"><stop offset="0" stop-color="#6a3894"/><stop offset=".106" stop-color="#8a2f83"/><stop offset=".265" stop-color="#b4256c"/><stop offset=".409" stop-color="#d31c5d"/><stop offset=".531" stop-color="#e51e54"/><stop offset=".616" stop-color="#ec1e4f"/><stop offset="1" stop-color="#f8e47f"/></linearGradient><path fill="url(#ae)" stroke="#231F20" stroke-width=".254" d="M107.39 21.408h0l-1.91-1.035-1.671-.557-1.591-.16-1.433.239-1.273.557-1.193.796-1.035 1.114-.955 1.273-.795 1.432-.796 1.512-.716 1.671-.637 1.591-.636 1.592-.637 1.512-.557 1.432-.557 1.193.636.16.558.079.557.159.477.08.557.159.557.159.557.08.716.159.637-1.273.557-1.273.557-1.194.557-1.193.477-1.114.637-1.035.637-1.114.557-.955.716-.955.716-.875.716-.875.875-.795.955-.716.955-.636 1.115-.637 1.113-.557z"/><linearGradient id="af" gradientUnits="userSpaceOnUse" x1="-63.13" y1="218.679" x2="-62.783" y2="219.692" gradientTransform="matrix(21.9 0 0 -20.3 1484.256 4476.613)"><stop offset="0" stop-color="#6a3894"/><stop offset=".106" stop-color="#8a2f83"/><stop offset=".265" stop-color="#b4256c"/><stop offset=".409" stop-color="#d31c5d"/><stop offset=".531" stop-color="#e51e54"/><stop offset=".616" stop-color="#ec1e4f"/><stop offset="1" stop-color="#f8e47f"/></linearGradient><path fill="url(#af)" stroke="#231F20" stroke-width=".254" d="M113.199 23.079h0l-1.75-.955-1.592-.398-1.591-.16-1.433.239-1.353.557-1.273.875-1.193 1.034-1.114 1.194-1.035 1.353-.955 1.432-.955 1.512-.716 1.512-.795 1.591-.637 1.353-.557 1.353-.478 1.114.637.159.637.159.557.16.478.08.557.159.557.08.716.08.716.159.795-1.831.875-1.75.796-1.512.795-1.512.716-1.273.716-1.114.716-1.035.716-1.035.716-.716.716-.716.795-.636.796-.478.716-.398.875-.318.875-.159.958-.159z"/><linearGradient id="ag" gradientUnits="userSpaceOnUse" x1="-62.872" y1="218.017" x2="-62.568" y2="219.107" gradientTransform="matrix(21.2 0 0 -19.5 1440.3 4287.813)"><stop offset="0" stop-color="#6a3894"/><stop offset=".106" stop-color="#8a2f83"/><stop offset=".265" stop-color="#b4256c"/><stop offset=".409" stop-color="#d31c5d"/><stop offset=".531" stop-color="#e51e54"/><stop offset=".616" stop-color="#ec1e4f"/><stop offset="1" stop-color="#f8e47f"/></linearGradient><path fill="url(#ag)" stroke="#231F20" stroke-width=".254" d="M117.496 24.352h0l-1.671-.795-1.512-.398h-1.512l-1.432.318-1.273.557-1.273.795-1.193.955-1.114 1.194-.955 1.273-.875 1.433-.955 1.432-.716 1.433-.716 1.432-.637 1.353-.557 1.273-.478 1.193.557.159.478.08.557.08.478.159.477.08.478.08.557.159.637.08.239-.876.477-1.034.478-1.034.637-1.115.637-1.114.796-1.114.795-1.114.875-1.114.875-1.035.955-1.035 1.035-.875.955-.795 1.035-.716.955-.637.955-.477.951-.24z"/><linearGradient id="ah" gradientUnits="userSpaceOnUse" x1="-63.463" y1="217.769" x2="-63.126" y2="218.829" gradientTransform="matrix(22.5 0 0 -19.4 1538.547 4265.462)"><stop offset="0" stop-color="#6a3894"/><stop offset=".106" stop-color="#8a2f83"/><stop offset=".265" stop-color="#b4256c"/><stop offset=".409" stop-color="#d31c5d"/><stop offset=".531" stop-color="#e51e54"/><stop offset=".616" stop-color="#ec1e4f"/><stop offset="1" stop-color="#f8e47f"/></linearGradient><path fill="url(#ah)" stroke="#231F20" stroke-width=".254" d="M122.748 25.705h0l-1.671-.955-1.67-.398h-1.671l-1.591.478-1.512.716-1.512 1.114-1.353 1.273-1.353 1.353-1.194 1.512-1.034 1.512-.955 1.512-.796 1.433-.636 1.193-.558 1.114-.238.795-.159.477.716.08.557.159.637.159.557.159.636.08.557.079.637.159.557.079.398-.796.478-.954.557-1.114.637-1.114.716-1.273.716-1.194.796-1.193.875-1.273.875-1.193.875-1.035 1.034-.955.955-.795 1.034-.637.955-.478 1.114-.159 1.034.08z"/><linearGradient id="ai" gradientUnits="userSpaceOnUse" x1="-62.873" y1="217.703" x2="-62.565" y2="218.811" gradientTransform="matrix(20.9 0 0 -19.2 1430.553 4219.153)"><stop offset="0" stop-color="#6a3894"/><stop offset=".106" stop-color="#8a2f83"/><stop offset=".265" stop-color="#b4256c"/><stop offset=".409" stop-color="#d31c5d"/><stop offset=".531" stop-color="#e51e54"/><stop offset=".616" stop-color="#ec1e4f"/><stop offset="1" stop-color="#f8e47f"/></linearGradient><path fill="url(#ai)" stroke="#231F20" stroke-width=".254" d="M126.568 27.137h0l-1.512-1.034-1.512-.557-1.353-.08-1.433.239-1.273.557-1.273.795-1.114 1.035-1.114 1.273-1.034 1.353-.955 1.433-.875 1.432-.875 1.512-.716 1.353-.636 1.353-.478 1.114-.478.875.557.08.478.158.398.16.397.159.398.079.398.159.318.08.478.079.398-1.114.478-1.193.557-1.114.557-1.114.636-1.114.637-.955.716-1.035.796-.955.875-.955.875-.875.955-.716 1.034-.716 1.114-.557 1.114-.557 1.193-.319 1.274-.318z"/><linearGradient id="aj" gradientUnits="userSpaceOnUse" x1="-63.702" y1="216.561" x2="-63.37" y2="217.685" gradientTransform="matrix(22.9 0 0 -18.3 1577.647 4006.816)"><stop offset="0" stop-color="#6a3894"/><stop offset=".106" stop-color="#8a2f83"/><stop offset=".265" stop-color="#b4256c"/><stop offset=".409" stop-color="#d31c5d"/><stop offset=".531" stop-color="#e51e54"/><stop offset=".616" stop-color="#ec1e4f"/><stop offset="1" stop-color="#f8e47f"/></linearGradient><path fill="url(#aj)" stroke="#231F20" stroke-width=".254" d="M131.422 28.251h0l-1.354-.477-1.352-.319-1.433-.159-1.273.159-1.353.239-1.273.398-1.193.716-1.273.716-1.194.955-1.114 1.114-1.035 1.193-1.035 1.353-.955 1.512-.796 1.592-.875 1.75-.716 1.751.637.159.636.079.557.16.637.159.557.159.636.158.557.159.637.08.398-1.035.397-1.034.478-1.034.398-1.114.478-.955.557-1.035.557-.955.636-.955.796-.875.875-.875.955-.796 1.034-.796 1.273-.636 1.273-.557 1.592-.557 1.673-.397z"/><linearGradient id="ak" gradientUnits="userSpaceOnUse" x1="-64.394" y1="216.109" x2="-64.14" y2="217.304" gradientTransform="matrix(25.3 0 0 -17.8 1755.45 3888.956)"><stop offset="0" stop-color="#6a3894"/><stop offset=".106" stop-color="#8a2f83"/><stop offset=".265" stop-color="#b4256c"/><stop offset=".409" stop-color="#d31c5d"/><stop offset=".531" stop-color="#e51e54"/><stop offset=".616" stop-color="#ec1e4f"/><stop offset="1" stop-color="#f8e47f"/></linearGradient><path fill="url(#ak)" stroke="#231F20" stroke-width=".254" d="M138.266 29.842h0l-1.751-.716-1.751-.478-1.671-.239h-1.591l-1.513.239-1.512.397-1.432.637-1.273.716-1.273 1.035-1.194 1.114-1.035 1.193-1.034 1.432-.955 1.512-.716 1.671-.796 1.67-.636 1.751.557.08.557.159.637.08.637.079.636.08.637.079.636.079.637.159.397-1.353.398-1.194.557-1.193.637-1.193.716-1.035.796-1.035.796-.955.955-.875.954-.875 1.115-.637 1.193-.716 1.193-.557 1.273-.398 1.353-.397 1.432-.16 1.434-.156z"/><linearGradient id="al" gradientUnits="userSpaceOnUse" x1="-63.992" y1="215.005" x2="-63.668" y2="216.207" gradientTransform="matrix(23.4 0 0 -17.1 1625.695 3723.804)"><stop offset="0" stop-color="#6a3894"/><stop offset=".106" stop-color="#8a2f83"/><stop offset=".265" stop-color="#b4256c"/><stop offset=".409" stop-color="#d31c5d"/><stop offset=".531" stop-color="#e51e54"/><stop offset=".616" stop-color="#ec1e4f"/><stop offset="1" stop-color="#f8e47f"/></linearGradient><path fill="url(#al)" stroke="#231F20" stroke-width=".254" d="M141.607 30.24h0l-1.512-.239-1.592-.159-1.512.08-1.512.16-1.433.397-1.433.478-1.353.557-1.273.795-1.193.875-1.194 1.034-.955 1.115-1.034 1.193-.796 1.432-.716 1.513-.637 1.591-.477 1.671.557.079.478.08.478.08.477.08.478.079.398.079.557.159.636.08.796-1.353.717-1.274.636-1.193.637-1.113.637-1.035.637-.955.557-.955.717-.795.716-.796.875-.716.875-.637 1.035-.636 1.194-.478 1.352-.478 1.513-.398 1.669-.397z"/><linearGradient id="am" gradientUnits="userSpaceOnUse" x1="-65.029" y1="215.952" x2="-64.796" y2="217.152" gradientTransform="matrix(27.5 0 0 -17.7 1924.046 3867.403)"><stop offset="0" stop-color="#6a3894"/><stop offset=".106" stop-color="#8a2f83"/><stop offset=".265" stop-color="#b4256c"/><stop offset=".409" stop-color="#d31c5d"/><stop offset=".531" stop-color="#e51e54"/><stop offset=".616" stop-color="#ec1e4f"/><stop offset="1" stop-color="#f8e47f"/></linearGradient><path fill="url(#am)" stroke="#231F20" stroke-width=".254" d="M149.008 31.195h0l-2.308-.557-2.228-.318-1.99-.08-1.83.159-1.671.398-1.592.557-1.433.716-1.353.875-1.193 1.034-1.114 1.193-1.034 1.273-.955 1.353-.875 1.353-.875 1.513-.717 1.433-.716 1.511.318.08.558.08.558.08.557.159.637.08.557.159.478.079h.397l.717-1.353.716-1.273.876-1.193.875-1.114.955-1.114.955-.955 1.034-.875 1.113-.796 1.193-.795 1.194-.637 1.273-.636 1.272-.636 1.354-.478 1.353-.478 1.433-.398 1.511-.399z"/><linearGradient id="an" gradientUnits="userSpaceOnUse" x1="-65.119" y1="215.306" x2="-64.886" y2="216.542" gradientTransform="matrix(27.7 0 0 -17.2 1943.644 3749.56)"><stop offset="0" stop-color="#6a3894"/><stop offset=".106" stop-color="#8a2f83"/><stop offset=".265" stop-color="#b4256c"/><stop offset=".409" stop-color="#d31c5d"/><stop offset=".531" stop-color="#e51e54"/><stop offset=".616" stop-color="#ec1e4f"/><stop offset="1" stop-color="#f8e47f"/></linearGradient><path fill="url(#an)" stroke="#231F20" stroke-width=".254" d="M153.385 31.673h0l-1.273-.239-1.354-.08-1.511.08-1.513.239-1.512.318-1.591.478-1.592.636-1.513.716-1.591.875-1.513 1.035-1.432 1.114-1.354 1.273-1.272 1.353-1.193 1.511-.955 1.592-.875 1.751.636.079.637.08.637.159.637.079.557.16.478.159h.636l.875-.558.955-.637.955-.795 1.034-.796 1.034-.876 1.035-.955 1.114-.954 1.114-.955 1.193-.955 1.113-.955 1.194-.955 1.193-.955 1.273-.875 1.193-.796 1.354-.716 1.197-.635z"/><linearGradient id="ao" gradientUnits="userSpaceOnUse" x1="-65.67" y1="215.996" x2="-65.458" y2="217.19" gradientTransform="matrix(30.3 0 0 -17.8 2134.747 3892.566)"><stop offset="0" stop-color="#6a3894"/><stop offset=".106" stop-color="#8a2f83"/><stop offset=".265" stop-color="#b4256c"/><stop offset=".409" stop-color="#d31c5d"/><stop offset=".531" stop-color="#e51e54"/><stop offset=".616" stop-color="#ec1e4f"/><stop offset="1" stop-color="#f8e47f"/></linearGradient><path fill="url(#ao)" stroke="#231F20" stroke-width=".254" d="M159.592 33.423h0l-1.194-1.194-1.273-.636-1.272-.318-1.354.08-1.353.398-1.512.716-1.432.955-1.592 1.035-1.592 1.273-1.591 1.353-1.672 1.433-1.592 1.432-1.671 1.433-1.671 1.353-1.671 1.273-1.671 1.114.477.079.637.08h.717l.796.079.716.08h1.512l.637-.08 1.193-.875 1.273-.955 1.194-1.034 1.113-.955 1.114-1.034 1.034-.955 1.034-.955 1.114-.955 1.114-.796 1.035-.796 1.113-.716 1.193-.637 1.194-.478 1.273-.397 1.272-.239 1.358-.161z"/><linearGradient id="ap" gradientUnits="userSpaceOnUse" x1="-65.697" y1="214.422" x2="-65.162" y2="215.52" gradientTransform="matrix(29.9 0 0 -16.4 2112.35 3561.259)"><stop offset="0" stop-color="#6a3894"/><stop offset=".106" stop-color="#8a2f83"/><stop offset=".265" stop-color="#b4256c"/><stop offset=".409" stop-color="#d31c5d"/><stop offset=".531" stop-color="#e51e54"/><stop offset=".616" stop-color="#ec1e4f"/><stop offset="1" stop-color="#f8e47f"/></linearGradient><path fill="url(#ap)" stroke="#231F20" stroke-width=".254" d="M164.207 33.98h0l-1.91-.478-1.83-.159-1.751.08-1.592.318-1.512.557-1.512.716-1.433.875-1.353.955-1.353 1.114-1.353 1.114-1.354 1.194-1.273 1.272-1.352 1.114-1.354 1.193-1.432.955-1.434 1.035h.479l.557.079.716.159h.717l.637.079.636.159h.479l.238.079h.875l.796-.238.876-.478.954-.557.955-.717.955-.875 1.114-1.034 1.113-1.034 1.114-1.035 1.273-1.113 1.353-1.035 1.354-1.034 1.591-.955 1.512-.955 1.672-.717 1.832-.633z"/><linearGradient id="aq" gradientUnits="userSpaceOnUse" x1="-65.975" y1="214.147" x2="-65.456" y2="215.252" gradientTransform="matrix(30.9 0 0 -16.3 2190.148 3538.503)"><stop offset="0" stop-color="#6a3894"/><stop offset=".106" stop-color="#8a2f83"/><stop offset=".265" stop-color="#b4256c"/><stop offset=".409" stop-color="#d31c5d"/><stop offset=".531" stop-color="#e51e54"/><stop offset=".616" stop-color="#ec1e4f"/><stop offset="1" stop-color="#f8e47f"/></linearGradient><path fill="url(#aq)" stroke="#231F20" stroke-width=".254" d="M170.016 35.572h0l-1.671-.955-1.83-.398h-1.751l-1.83.398-1.751.637-1.83 1.034-1.75 1.114-1.751 1.274-1.592 1.352-1.592 1.434-1.512 1.272-1.433 1.194-1.193 1.034-1.193.796-1.034.478-.875.158.795.08.716.159.955.08.875.159.955.079.876.159.954.079h.717l1.353-.954 1.114-.955 1.114-.876.955-.954.955-.876.875-.875.955-.796.875-.796.875-.716.955-.716 1.035-.637 1.113-.637 1.193-.557 1.273-.478 1.512-.398 1.593-.396z"/><g transform="translate(19)"><linearGradient id="ar" gradientUnits="userSpaceOnUse" x1="-47.642" y1="220.01" x2="-49.947" y2="218.437" gradientTransform="matrix(4.5 0 0 -21.1 255.352 4650.116)"><stop offset="0" stop-color="#d4e5ee"/><stop offset=".072" stop-color="#cddfe8"/><stop offset=".186" stop-color="#b4cbd7"/><stop offset=".327" stop-color="#90abbb"/><stop offset=".488" stop-color="#5f8096"/><stop offset=".554" stop-color="#486d86"/><stop offset=".594" stop-color="#5d7e95"/><stop offset=".685" stop-color="#88a3b5"/><stop offset=".773" stop-color="#aac1ce"/><stop offset=".857" stop-color="#c1d5e0"/><stop offset=".935" stop-color="#d0e1ea"/><stop offset="1" stop-color="#d4e5ee"/></linearGradient><path fill="url(#ar)" stroke="#231F20" stroke-width=".254" d="M38.735 16.554h0l-.159-.398-.239-.557-.159-.478-.159-.557-.159-.557-.08-.557-.08-.557-.08-.637-.079-.557v-1.75l.079-.557.08-.557.159-.557.16-.478-.796.955-.556 1.035-.398 1.035-.239 1.114-.079 1.114v1.114l.159 1.114.239 1.114.239 1.035.397 1.114.398 1.034.398 1.114.478.955.398 1.034.478.955.398.955-.08-.239-.08-.318v-.716l-.08-.557v-1.592l-.08-.637v-1.274l-.079-.557v-.557l-.159-.557-.08-.557-.16-.476z"/><linearGradient id="as" gradientUnits="userSpaceOnUse" x1="-77.697" y1="201.361" x2="-78.346" y2="197.975" gradientTransform="matrix(16 0 0 -9.8 1281.898 1980.558)"><stop offset="0" stop-color="#d4e5ee"/><stop offset=".072" stop-color="#cddfe8"/><stop offset=".186" stop-color="#b4cbd7"/><stop offset=".327" stop-color="#90abbb"/><stop offset=".488" stop-color="#5f8096"/><stop offset=".554" stop-color="#486d86"/><stop offset=".594" stop-color="#5d7e95"/><stop offset=".685" stop-color="#88a3b5"/><stop offset=".773" stop-color="#aac1ce"/><stop offset=".857" stop-color="#c1d5e0"/><stop offset=".935" stop-color="#d0e1ea"/><stop offset="1" stop-color="#d4e5ee"/></linearGradient><path fill="url(#as)" stroke="#231F20" stroke-width=".254" d="M24.65 35.811h0l.875-.477.875-.557.875-.558.795-.477.796-.478.796-.478.716-.478.796-.478.716-.477.795-.478.716-.557.795-.398.716-.478.796-.398.875-.477.795-.478-.716.716-.716.796-.796.716-.716.716-.796.716-.795.636-.796.637-.796.637-.795.557-.875.478-.796.398-.796.318-.796.319-.875.079-.796.08-.872-.077z"/><linearGradient id="at" gradientUnits="userSpaceOnUse" x1="-70.78" y1="199.543" x2="-71.817" y2="196.122" gradientTransform="matrix(10 0 0 -9.7 747.602 1943.106)"><stop offset="0" stop-color="#d4e5ee"/><stop offset=".072" stop-color="#cddfe8"/><stop offset=".186" stop-color="#b4cbd7"/><stop offset=".327" stop-color="#90abbb"/><stop offset=".488" stop-color="#5f8096"/><stop offset=".554" stop-color="#486d86"/><stop offset=".594" stop-color="#5d7e95"/><stop offset=".685" stop-color="#88a3b5"/><stop offset=".773" stop-color="#aac1ce"/><stop offset=".857" stop-color="#c1d5e0"/><stop offset=".935" stop-color="#d0e1ea"/><stop offset="1" stop-color="#d4e5ee"/></linearGradient><path fill="url(#at)" stroke="#231F20" stroke-width=".254" d="M31.574 17.27h0l.636.398.557.398.637.398.557.478.557.398.478.478.557.477.477.478.478.478.478.557.478.477.398.557.478.478.398.557.398.558.398.557-.159-.557-.239-.637-.239-.637-.239-.637-.318-.637-.318-.636-.318-.557-.478-.637-.398-.557-.636-.477-.557-.478-.637-.398-.796-.318-.716-.239-.955-.239-.957-.081z"/><linearGradient id="au" gradientUnits="userSpaceOnUse" x1="-35.781" y1="216.076" x2="-38.75" y2="214.143" gradientTransform="matrix(3.5 0 0 -17.2 167.95 3724.856)"><stop offset="0" stop-color="#d4e5ee"/><stop offset=".072" stop-color="#cddfe8"/><stop offset=".186" stop-color="#b4cbd7"/><stop offset=".327" stop-color="#90abbb"/><stop offset=".488" stop-color="#5f8096"/><stop offset=".554" stop-color="#486d86"/><stop offset=".594" stop-color="#5d7e95"/><stop offset=".685" stop-color="#88a3b5"/><stop offset=".773" stop-color="#aac1ce"/><stop offset=".857" stop-color="#c1d5e0"/><stop offset=".935" stop-color="#d0e1ea"/><stop offset="1" stop-color="#d4e5ee"/></linearGradient><path fill="url(#au)" stroke="#231F20" stroke-width=".254" d="M38.417 11.699h0l.239.955.08.955.239.875.159.875.079.875.08.796.16.875.08.795.159.875.08.796.08.796.159.875.159.796.159.875.159.796.159.875.159-1.035.08-.955.159-1.035.08-1.034v-.955l.08-.955-.08-.955v-.955l-.159-.955-.08-.796-.239-.875-.318-.716-.318-.716-.477-.637-.478-.557-.639-.554z"/><linearGradient id="av" gradientUnits="userSpaceOnUse" x1="-68.486" y1="216.54" x2="-69.652" y2="214.654" gradientTransform="matrix(8.9 0 0 -17.6 648.45 3818.366)"><stop offset="0" stop-color="#d4e5ee"/><stop offset=".072" stop-color="#cddfe8"/><stop offset=".186" stop-color="#b4cbd7"/><stop offset=".327" stop-color="#90abbb"/><stop offset=".488" stop-color="#5f8096"/><stop offset=".554" stop-color="#486d86"/><stop offset=".594" stop-color="#5d7e95"/><stop offset=".685" stop-color="#88a3b5"/><stop offset=".773" stop-color="#aac1ce"/><stop offset=".857" stop-color="#c1d5e0"/><stop offset=".935" stop-color="#d0e1ea"/><stop offset="1" stop-color="#d4e5ee"/></linearGradient><path fill="url(#av)" stroke="#231F20" stroke-width=".254" d="M33.483 10.188h0l-.796.796-.557.875-.238.955v.955l.159.955.398 1.035.478 1.034.637 1.035.636.955.796.955.796.955.796.795.716.875.637.637.557.716.478.478-.08-1.433-.239-1.194-.239-1.034-.318-.875-.398-.795-.478-.716-.477-.637-.478-.637-.478-.557-.478-.636-.478-.637-.398-.716-.317-.877-.318-.875-.239-1.114-.08-1.273z"/><linearGradient id="aw" gradientUnits="userSpaceOnUse" x1="-55.487" y1="216.413" x2="-57.373" y2="214.516" gradientTransform="matrix(5.5 0 0 -17.5 347.648 3795.61)"><stop offset="0" stop-color="#d4e5ee"/><stop offset=".072" stop-color="#cddfe8"/><stop offset=".186" stop-color="#b4cbd7"/><stop offset=".327" stop-color="#90abbb"/><stop offset=".488" stop-color="#5f8096"/><stop offset=".554" stop-color="#486d86"/><stop offset=".594" stop-color="#5d7e95"/><stop offset=".685" stop-color="#88a3b5"/><stop offset=".773" stop-color="#aac1ce"/><stop offset=".857" stop-color="#c1d5e0"/><stop offset=".935" stop-color="#d0e1ea"/><stop offset="1" stop-color="#d4e5ee"/></linearGradient><path fill="url(#aw)" stroke="#231F20" stroke-width=".254" d="M39.452 24.989h0v-1.83l.08-.955v-.955l.079-.875.08-.875.08-.875.08-.796.159-.875.159-.875.239-.875.159-.796.239-.796.318-.875.318-.796.318-.875-1.353 1.273-1.114 1.273-.716 1.194-.557 1.114-.398 1.035-.159.955-.08 1.035.08.875.239.795.239.796.318.716.318.636.318.716.239.557.239.557.079.397z"/><linearGradient id="ax" gradientUnits="userSpaceOnUse" x1="-76.605" y1="73.218" x2="-77.315" y2="58.138" gradientTransform="matrix(14.6 0 0 -2.2 1156.698 168.161)"><stop offset="0" stop-color="#d4e5ee"/><stop offset=".072" stop-color="#cddfe8"/><stop offset=".186" stop-color="#b4cbd7"/><stop offset=".327" stop-color="#90abbb"/><stop offset=".488" stop-color="#5f8096"/><stop offset=".554" stop-color="#486d86"/><stop offset=".594" stop-color="#5d7e95"/><stop offset=".685" stop-color="#88a3b5"/><stop offset=".773" stop-color="#aac1ce"/><stop offset=".857" stop-color="#c1d5e0"/><stop offset=".935" stop-color="#d0e1ea"/><stop offset="1" stop-color="#d4e5ee"/></linearGradient><path fill="url(#ax)" stroke="#231F20" stroke-width=".254" d="M25.844 28.251h0l.716.08.796.159.716.08.717.159h.796l.716.08h1.432l.716-.08h.716l.716-.08.716-.08h.796l.636-.08.796-.159.637-.08-.557.318-.636.239-.637.238-.637.239-.716.238-.716.16-.716.238-.716.08h-2.308l-.796-.159-.795-.238-.796-.318-.796-.478-.796-.556z"/><linearGradient id="ay" gradientUnits="userSpaceOnUse" x1="-79.448" y1="202.498" x2="-80.003" y2="199.211" gradientTransform="matrix(18.7 0 0 -10.1 1523.35 2052.108)"><stop offset="0" stop-color="#d4e5ee"/><stop offset=".072" stop-color="#cddfe8"/><stop offset=".186" stop-color="#b4cbd7"/><stop offset=".327" stop-color="#90abbb"/><stop offset=".488" stop-color="#5f8096"/><stop offset=".554" stop-color="#486d86"/><stop offset=".594" stop-color="#5d7e95"/><stop offset=".685" stop-color="#88a3b5"/><stop offset=".773" stop-color="#aac1ce"/><stop offset=".857" stop-color="#c1d5e0"/><stop offset=".935" stop-color="#d0e1ea"/><stop offset="1" stop-color="#d4e5ee"/></linearGradient><path fill="url(#ay)" stroke="#231F20" stroke-width=".254" d="M30.141 31.991h0l-.557.08-.478.08-.558.159-.557.16-.557.238-.557.159-.477.239-.557.239-.557.318-.476.317-.478.318-.478.318-.397.398-.398.319-.318.398-.398.397.398-1.114.478-.955.557-.796.796-.795.796-.637.955-.636 1.034-.478 1.035-.478 1.114-.318 1.114-.398 1.193-.318 1.114-.239 1.193-.239 1.114-.239 1.035-.159.955-.239-.477.159-.717.398-.795.557-1.035.557-1.034.716-1.035.557-1.034.557-.956.4z"/><linearGradient id="az" gradientUnits="userSpaceOnUse" x1="-75.969" y1="213.733" x2="-76.71" y2="211.478" gradientTransform="matrix(14 0 0 -14.7 1104.5 3149.81)"><stop offset="0" stop-color="#d4e5ee"/><stop offset=".072" stop-color="#cddfe8"/><stop offset=".186" stop-color="#b4cbd7"/><stop offset=".327" stop-color="#90abbb"/><stop offset=".488" stop-color="#5f8096"/><stop offset=".554" stop-color="#486d86"/><stop offset=".594" stop-color="#5d7e95"/><stop offset=".685" stop-color="#88a3b5"/><stop offset=".773" stop-color="#aac1ce"/><stop offset=".857" stop-color="#c1d5e0"/><stop offset=".935" stop-color="#d0e1ea"/><stop offset="1" stop-color="#d4e5ee"/></linearGradient><path fill="url(#az)" stroke="#231F20" stroke-width=".254" d="M28.072 40.268h0l-.477-1.035-.08-1.035.08-1.034.398-.955.557-.875.716-.875.875-.796 1.035-.716.955-.796 1.114-.637 1.114-.637 1.034-.557.955-.557.955-.398.796-.478.557-.318-.637 1.353-.637 1.114-.716.875-.637.795-.636.557-.716.557-.716.397-.716.478-.637.398-.716.478-.716.478-.637.557-.637.637-.637.875-.636.955-.557 1.195z"/><linearGradient id="aA" gradientUnits="userSpaceOnUse" x1="-65.915" y1="215.429" x2="-67.197" y2="213.327" gradientTransform="matrix(8.1 0 0 -15.8 577.75 3412.566)"><stop offset="0" stop-color="#d4e5ee"/><stop offset=".072" stop-color="#cddfe8"/><stop offset=".186" stop-color="#b4cbd7"/><stop offset=".327" stop-color="#90abbb"/><stop offset=".488" stop-color="#5f8096"/><stop offset=".554" stop-color="#486d86"/><stop offset=".594" stop-color="#5d7e95"/><stop offset=".685" stop-color="#88a3b5"/><stop offset=".773" stop-color="#aac1ce"/><stop offset=".857" stop-color="#c1d5e0"/><stop offset=".935" stop-color="#d0e1ea"/><stop offset="1" stop-color="#d4e5ee"/></linearGradient><path fill="url(#aA)" stroke="#231F20" stroke-width=".254" d="M39.69 28.888h0l-.478.796-.557.795-.478.716-.478.796-.398.716-.398.796-.398.716-.397.796-.398.796-.318.796-.318.716-.239.796-.239.795-.238.796-.239.875-.159.876-.478-1.751-.239-1.591v-1.353l.159-1.194.238-1.034.398-.955.557-.796.557-.636.637-.557.636-.557.717-.398.636-.398.557-.318.557-.318.478-.398.32-.319z"/></g></svg>