<svg xmlns="http://www.w3.org/2000/svg" width="256" height="256" viewBox="0 -78 256 256"><path fill="#F90" d="M65.079 79.739l-9.958-3.572V61.57l9.958 3.394v14.775m1.826 0l9.958-3.572V61.57l-9.958 3.394v14.775m-10.761-19.26l10.079-2.837 9.345 3.014-9.345 3.173-10.079-3.35m-2.921-1.13l-9.958-3.572V41.18l9.958 3.393v14.776m1.826 0l9.959-3.572V41.18l-9.959 3.393v14.776M44.288 40.087l10.079-2.836 9.345 3.013-9.345 3.173-10.079-3.35m32.171 19.262L66.5 55.776V41.18l9.959 3.393v14.776m1.826 0l9.959-3.572V41.18l-9.959 3.393v14.776m-10.76-19.262l10.078-2.836 9.345 3.013-9.345 3.173-10.078-3.35m20.79-1.13l-9.958-3.572V20.789l9.958 3.392v14.776m1.826 0l9.958-3.572V20.789l-9.958 3.392v14.776M79.38 19.697l10.079-2.837 9.345 3.013-9.345 3.173-10.079-3.349m32.171 19.26l-9.958-3.572V20.789l9.958 3.392v14.776m1.826 0l9.958-3.572V20.789l-9.958 3.392v14.776m-10.761-19.26l10.079-2.837 9.345 3.013-9.345 3.173-10.079-3.349"/><path d="M106.485 70.23l-3.345 11.621h-1.454l-2.604-8.631-2.388 8.631h-1.482L91.735 70.23h1.797l2.532 8.66 2.411-8.66h1.326l2.62 8.688 2.603-8.688h1.461z"/><path stroke="#000" d="M106.485 70.23l-3.345 11.621h-1.454l-2.604-8.631-2.388 8.631h-1.482L91.735 70.23h1.797l2.532 8.66 2.411-8.66h1.326l2.62 8.688 2.603-8.688h1.461z"/><path d="M115.739 78.386l1.684.345c-.307.994-.904 1.817-1.791 2.468-.889.651-1.934.977-3.136.977-1.585 0-2.868-.558-3.848-1.676-.98-1.117-1.47-2.582-1.47-4.394 0-1.852.509-3.346 1.527-4.486 1.019-1.141 2.297-1.711 3.837-1.711 1.517 0 2.736.524 3.658 1.575.923 1.051 1.396 2.621 1.419 4.713h-8.435c0 1.758.367 2.941 1.102 3.557.734.613 1.511.92 2.33.92 1.478-.001 2.518-.764 3.123-2.288zm-.098-3.537c-.016-.651-.122-1.23-.322-1.736-.199-.506-.536-.938-1.01-1.294s-1.045-.534-1.71-.534c-.896 0-1.655.322-2.279.966-.624.645-.974 1.51-1.05 2.599h6.371v-.001z"/><path stroke="#000" d="M115.739 78.386l1.684.345c-.307.994-.904 1.817-1.791 2.468-.889.651-1.934.977-3.136.977-1.585 0-2.868-.558-3.848-1.676-.98-1.117-1.47-2.582-1.47-4.394 0-1.852.509-3.346 1.527-4.486 1.019-1.141 2.297-1.711 3.837-1.711 1.517 0 2.736.524 3.658 1.575.923 1.051 1.396 2.621 1.419 4.713h-8.435c0 1.758.367 2.941 1.102 3.557.734.613 1.511.92 2.33.92 1.478-.001 2.518-.764 3.123-2.288h0zm-.098-3.537c-.016-.651-.122-1.23-.322-1.736-.199-.506-.536-.938-1.01-1.294s-1.045-.534-1.71-.534c-.896 0-1.655.322-2.279.966-.624.645-.974 1.51-1.05 2.599h6.371v-.001z"/><path d="M120.868 81.852h-.87v-15.69h1.811v6.007c.826-1.507 1.965-2.26 3.419-2.26 1.331 0 2.446.526 3.345 1.578.898 1.053 1.349 2.58 1.349 4.584 0 1.728-.442 3.177-1.326 4.348-.885 1.171-2.036 1.757-3.452 1.757-1.578 0-2.787-.749-3.629-2.246l-.647 1.922zm.941-4.556c.084 1.193.45 2.059 1.097 2.598.647.538 1.332.808 2.051.808.92 0 1.661-.399 2.224-1.197.563-.799.844-1.893.844-3.281 0-1.496-.271-2.672-.815-3.529-.544-.854-1.299-1.283-2.264-1.283-.759 0-1.443.305-2.052.914s-.971 1.396-1.085 2.361v2.609z"/><path stroke="#000" d="M120.868 81.852h-.87v-15.69h1.811v6.007c.826-1.507 1.965-2.26 3.419-2.26 1.331 0 2.446.526 3.345 1.578.898 1.053 1.349 2.58 1.349 4.584 0 1.728-.442 3.177-1.326 4.348-.885 1.171-2.036 1.757-3.452 1.757-1.578 0-2.787-.749-3.629-2.246l-.647 1.922h0zm.941-4.556c.084 1.193.45 2.059 1.097 2.598.647.538 1.332.808 2.051.808.92 0 1.661-.399 2.224-1.197.563-.799.844-1.893.844-3.281 0-1.496-.271-2.672-.815-3.529-.544-.854-1.299-1.283-2.264-1.283-.759 0-1.443.305-2.052.914s-.971 1.396-1.085 2.361v2.609h0z"/><path d="M134.534 78.84l1.727-.356c.383 1.46 1.596 2.189 3.637 2.189.751 0 1.389-.168 1.91-.504.521-.337.782-.812.782-1.424 0-.909-.664-1.487-1.992-1.732l-2.447-.466c-.959-.184-1.721-.544-2.289-1.081-.566-.537-.851-1.246-.851-2.129 0-.974.387-1.789 1.162-2.444.773-.656 1.815-.984 3.126-.984 2.521 0 4.076.985 4.667 2.955l-1.656.357c-.476-1.207-1.451-1.811-2.929-1.811-.736 0-1.34.15-1.811.452-.472.302-.706.723-.706 1.265 0 .854.603 1.393 1.805 1.614l2.263.416c2.369.43 3.553 1.578 3.553 3.445 0 1.067-.44 1.93-1.323 2.587-.881.657-2.055.985-3.52.985-2.753.001-4.456-1.111-5.108-3.334z"/><path stroke="#000" d="M134.534 78.84l1.727-.356c.383 1.46 1.596 2.189 3.637 2.189.751 0 1.389-.168 1.91-.504.521-.337.782-.812.782-1.424 0-.909-.664-1.487-1.992-1.732l-2.447-.466c-.959-.184-1.721-.544-2.289-1.081-.566-.537-.851-1.246-.851-2.129 0-.974.387-1.789 1.162-2.444.773-.656 1.815-.984 3.126-.984 2.521 0 4.076.985 4.667 2.955l-1.656.357c-.476-1.207-1.451-1.811-2.929-1.811-.736 0-1.34.15-1.811.452-.472.302-.706.723-.706 1.265 0 .854.603 1.393 1.805 1.614l2.263.416c2.369.43 3.553 1.578 3.553 3.445 0 1.067-.44 1.93-1.323 2.587-.881.657-2.055.985-3.52.985-2.753.001-4.456-1.111-5.108-3.334h0z"/><path d="M154.112 78.386l1.685.345c-.306.994-.903 1.817-1.793 2.468-.887.651-1.932.977-3.135.977-1.585 0-2.868-.558-3.847-1.676-.981-1.117-1.471-2.582-1.471-4.394 0-1.852.509-3.346 1.528-4.486 1.018-1.141 2.297-1.711 3.837-1.711 1.515 0 2.735.524 3.657 1.575.924 1.051 1.396 2.621 1.418 4.713h-8.435c0 1.758.369 2.941 1.103 3.557.735.613 1.512.92 2.331.92 1.478-.001 2.519-.764 3.122-2.288zm-.097-3.537c-.016-.651-.123-1.23-.322-1.736s-.535-.938-1.009-1.294c-.475-.356-1.047-.534-1.711-.534-.896 0-1.656.322-2.279.966-.624.645-.975 1.51-1.051 2.599h6.372v-.001z"/><path stroke="#000" d="M154.112 78.386l1.685.345c-.306.994-.903 1.817-1.793 2.468-.887.651-1.932.977-3.135.977-1.585 0-2.868-.558-3.847-1.676-.981-1.117-1.471-2.582-1.471-4.394 0-1.852.509-3.346 1.528-4.486 1.018-1.141 2.297-1.711 3.837-1.711 1.515 0 2.735.524 3.657 1.575.924 1.051 1.396 2.621 1.418 4.713h-8.435c0 1.758.369 2.941 1.103 3.557.735.613 1.512.92 2.331.92 1.478-.001 2.519-.764 3.122-2.288h0zm-.097-3.537c-.016-.651-.123-1.23-.322-1.736s-.535-.938-1.009-1.294c-.475-.356-1.047-.534-1.711-.534-.896 0-1.656.322-2.279.966-.624.645-.975 1.51-1.051 2.599h6.372v-.001z"/><path d="M159.75 81.852h-1.81V70.23h1.586v2.71c.56-1.27 1.121-2.092 1.684-2.467.563-.377 1.14-.565 1.729-.565.185 0 .422.015.713.043v1.726h-.367c-.994 0-1.821.37-2.479 1.109-.657.738-1.009 1.71-1.056 2.913v6.153z"/><path stroke="#000" d="M159.75 81.852h-1.81V70.23h1.586v2.71c.56-1.27 1.121-2.092 1.684-2.467.563-.377 1.14-.565 1.729-.565.185 0 .422.015.713.043v1.726h-.367c-.994 0-1.821.37-2.479 1.109-.657.738-1.009 1.71-1.056 2.913v6.153h0z"/><path d="M174.896 70.23l-4.012 11.621h-1.877l-4.146-11.621h2.004l3.226 9.446 3.2-9.446h1.605z"/><path stroke="#000" d="M174.896 70.23l-4.012 11.621h-1.877l-4.146-11.621h2.004l3.226 9.446 3.2-9.446h1.605z"/><path d="M176.344 66.161h1.938v2.007h-1.938v-2.007zm.084 4.069h1.811v11.621h-1.811V70.23z"/><path stroke="#000" d="M176.344 66.161h1.938v2.007h-1.938v-2.007zm.084 4.069h1.811v11.621h-1.811V70.23z"/><path d="M187.696 77.782l1.628.287c-.229 1.283-.74 2.289-1.529 3.016s-1.773 1.09-2.953 1.09c-1.602 0-2.823-.592-3.662-1.773-.839-1.183-1.259-2.626-1.259-4.331 0-1.766.443-3.234 1.328-4.405s2.09-1.757 3.614-1.757c1.266 0 2.279.378 3.041 1.136.763.756 1.236 1.734 1.42 2.933l-1.628.311c-.306-1.918-1.232-2.877-2.779-2.877-.996 0-1.762.423-2.297 1.27-.536.848-.804 1.944-.804 3.293 0 1.486.266 2.641.798 3.465s1.28 1.235 2.245 1.235c1.494-.002 2.439-.965 2.837-2.893z"/><path stroke="#000" d="M187.696 77.782l1.628.287c-.229 1.283-.74 2.289-1.529 3.016s-1.773 1.09-2.953 1.09c-1.602 0-2.823-.592-3.662-1.773-.839-1.183-1.259-2.626-1.259-4.331 0-1.766.443-3.234 1.328-4.405s2.09-1.757 3.614-1.757c1.266 0 2.279.378 3.041 1.136.763.756 1.236 1.734 1.42 2.933l-1.628.311c-.306-1.918-1.232-2.877-2.779-2.877-.996 0-1.762.423-2.297 1.27-.536.848-.804 1.944-.804 3.293 0 1.486.266 2.641.798 3.465s1.28 1.235 2.245 1.235c1.494-.002 2.439-.965 2.837-2.893h0z"/><path d="M199.534 78.386l1.684.345c-.306.994-.903 1.817-1.792 2.468-.888.651-1.934.977-3.135.977-1.586 0-2.868-.558-3.849-1.676-.979-1.117-1.47-2.582-1.47-4.394 0-1.852.509-3.346 1.528-4.486 1.018-1.141 2.297-1.711 3.837-1.711 1.516 0 2.735.524 3.658 1.575s1.396 2.621 1.418 4.713h-8.434c0 1.758.367 2.941 1.102 3.557.734.613 1.511.92 2.33.92 1.478-.001 2.519-.764 3.123-2.288zm-.098-3.537c-.016-.651-.122-1.23-.321-1.736s-.535-.938-1.011-1.294c-.474-.356-1.045-.534-1.71-.534-.896 0-1.655.322-2.279.966-.624.645-.975 1.51-1.05 2.599h6.371v-.001z"/><path stroke="#000" d="M199.534 78.386l1.684.345c-.306.994-.903 1.817-1.792 2.468-.888.651-1.934.977-3.135.977-1.586 0-2.868-.558-3.849-1.676-.979-1.117-1.47-2.582-1.47-4.394 0-1.852.509-3.346 1.528-4.486 1.018-1.141 2.297-1.711 3.837-1.711 1.516 0 2.735.524 3.658 1.575s1.396 2.621 1.418 4.713h-8.434c0 1.758.367 2.941 1.102 3.557.734.613 1.511.92 2.33.92 1.478-.001 2.519-.764 3.123-2.288h0zm-.098-3.537c-.016-.651-.122-1.23-.321-1.736s-.535-.938-1.011-1.294c-.474-.356-1.045-.534-1.71-.534-.896 0-1.655.322-2.279.966-.624.645-.975 1.51-1.05 2.599h6.371v-.001z"/><path d="M202.438 78.84l1.726-.356c.385 1.46 1.597 2.189 3.637 2.189.752 0 1.389-.168 1.91-.504.521-.337.782-.812.782-1.424 0-.909-.663-1.487-1.992-1.732l-2.447-.466c-.958-.184-1.721-.544-2.288-1.081s-.851-1.246-.851-2.129c0-.974.386-1.789 1.161-2.444.773-.656 1.815-.984 3.126-.984 2.521 0 4.076.985 4.667 2.955l-1.656.357c-.475-1.207-1.451-1.811-2.929-1.811-.736 0-1.339.15-1.81.452s-.707.723-.707 1.265c0 .854.603 1.393 1.806 1.614l2.263.416c2.368.43 3.553 1.578 3.553 3.445 0 1.067-.44 1.93-1.322 2.587s-2.057.985-3.521.985c-2.755.001-4.457-1.111-5.108-3.334z"/><path stroke="#000" d="M202.438 78.84l1.726-.356c.385 1.46 1.597 2.189 3.637 2.189.752 0 1.389-.168 1.91-.504.521-.337.782-.812.782-1.424 0-.909-.663-1.487-1.992-1.732l-2.447-.466c-.958-.184-1.721-.544-2.288-1.081s-.851-1.246-.851-2.129c0-.974.386-1.789 1.161-2.444.773-.656 1.815-.984 3.126-.984 2.521 0 4.076.985 4.667 2.955l-1.656.357c-.475-1.207-1.451-1.811-2.929-1.811-.736 0-1.339.15-1.81.452s-.707.723-.707 1.265c0 .854.603 1.393 1.806 1.614l2.263.416c2.368.43 3.553 1.578 3.553 3.445 0 1.067-.44 1.93-1.322 2.587s-2.057.985-3.521.985c-2.755.001-4.457-1.111-5.108-3.334h0z"/><path d="M161.63 45.395v-2.791a.691.691 0 0 1 .708-.708l12.511-.001c.4 0 .721.291.722.705l-.001 2.394c-.003.401-.341.925-.941 1.757l-6.48 9.253c2.405-.057 4.95.304 7.136 1.532.493.277.625.688.663 1.09v2.978c0 .41-.449.886-.92.639-3.853-2.017-8.962-2.238-13.22.024-.435.231-.891-.236-.891-.647v-2.831c0-.452.009-1.228.466-1.919l7.508-10.771-6.536-.001c-.402 0-.722-.285-.725-.703m-44.773 17.434h-3.806a.718.718 0 0 1-.681-.644l.002-19.535c0-.391.329-.704.735-.704h3.544a.716.716 0 0 1 .692.656v2.551h.071c.923-2.467 2.665-3.618 5.009-3.618 2.381 0 3.873 1.151 4.939 3.618.923-2.467 3.02-3.618 5.258-3.618 1.6 0 3.34.658 4.406 2.138 1.207 1.644.959 4.028.959 6.125l-.004 12.328c0 .391-.328.703-.732.703h-3.803a.714.714 0 0 1-.683-.701l-.002-10.356c0-.822.071-2.877-.106-3.659-.284-1.315-1.137-1.686-2.237-1.686-.924 0-1.884.617-2.275 1.604-.391.986-.354 2.63-.354 3.741v10.354c0 .391-.329.703-.734.703h-3.802a.714.714 0 0 1-.683-.701l-.004-10.356c0-2.179.355-5.385-2.345-5.385-2.736 0-2.629 3.124-2.629 5.385l-.002 10.354c.001.391-.328.703-.733.703m67.904-21.293c5.604 0 8.636 4.851 8.636 11.017 0 5.96-3.349 10.688-8.636 10.688-5.499 0-8.494-4.851-8.494-10.894 0-6.084 3.031-10.811 8.494-10.811zm.035 4.49c-2.785 0-2.961 3.823-2.961 6.207s-.035 6.979 2.926 6.979c2.926 0 3.067-3.607 3.067-6.115 0-1.645-.07-3.618-.564-5.18-.424-1.357-1.27-1.891-2.468-1.891zm16.711 16.803h-3.792a.714.714 0 0 1-.683-.701l-.006-19.542c.031-.357.348-.638.73-.638h3.531a.726.726 0 0 1 .677.547v2.988h.071c1.065-2.672 2.557-3.946 5.187-3.946 1.705 0 3.376.617 4.441 2.302.994 1.562.994 4.193.994 6.084v12.291c-.042.348-.353.616-.729.616h-3.816a.716.716 0 0 1-.677-.616V51.607c0-2.138.248-5.262-2.381-5.262-.925 0-1.776.617-2.203 1.562-.532 1.192-.604 2.384-.604 3.7v10.519a.726.726 0 0 1-.74.703M152.089 53.5c0 1.483.035 2.72-.713 4.038-.604 1.07-1.566 1.729-2.635 1.729-1.46 0-2.314-1.112-2.314-2.76 0-3.241 2.908-3.831 5.662-3.831v.824zm3.837 9.28a.789.789 0 0 1-.899.089c-1.264-1.051-1.49-1.537-2.182-2.537-2.09 2.129-3.569 2.767-6.275 2.767-3.204 0-5.697-1.978-5.697-5.932 0-3.09 1.674-5.191 4.06-6.222 2.064-.906 4.949-1.071 7.157-1.318v-.494c0-.906.07-1.978-.464-2.76-.462-.701-1.353-.989-2.136-.989-1.452 0-2.742.744-3.059 2.286-.066.343-.317.682-.662.699l-3.688-.399c-.313-.07-.658-.32-.568-.795.848-4.476 4.889-5.828 8.512-5.828 1.852 0 4.272.494 5.731 1.896 1.853 1.73 1.674 4.037 1.674 6.55v5.93c0 1.783.741 2.565 1.438 3.527.242.346.298.758-.014 1.011-.777.651-2.158 1.852-2.918 2.528l-.01-.009zm-53.302-9.28c0 1.483.036 2.72-.712 4.038-.605 1.07-1.566 1.729-2.635 1.729-1.459 0-2.314-1.112-2.314-2.76 0-3.241 2.908-3.831 5.661-3.831v.824zm3.838 9.28a.788.788 0 0 1-.899.089c-1.265-1.051-1.491-1.537-2.182-2.537-2.089 2.129-3.569 2.767-6.275 2.767-3.205 0-5.697-1.978-5.697-5.932 0-3.09 1.673-5.191 4.06-6.222 2.064-.906 4.949-1.071 7.156-1.318v-.494c0-.906.071-1.978-.462-2.76-.463-.701-1.354-.989-2.137-.989-1.452 0-2.742.744-3.059 2.286-.066.343-.316.682-.662.699l-3.689-.399c-.311-.07-.658-.32-.567-.795.847-4.476 4.889-5.828 8.511-5.828 1.852 0 4.272.494 5.732 1.896 1.852 1.73 1.674 4.037 1.674 6.55v5.93c0 1.783.741 2.565 1.436 3.527.243.346.298.758-.012 1.011-.778.651-2.159 1.852-2.919 2.528l-.009-.009z"/><path fill="#FFF" d="M152.089 53.5c0 1.483.035 2.72-.713 4.038-.604 1.07-1.566 1.729-2.635 1.729-1.46 0-2.314-1.112-2.314-2.76 0-3.241 2.908-3.831 5.662-3.831v.824m-49.465 0c0 1.483.036 2.72-.712 4.038-.605 1.07-1.566 1.729-2.635 1.729-1.459 0-2.314-1.112-2.314-2.76 0-3.241 2.908-3.831 5.661-3.831v.824"/></svg>