<?xml version="1.0" encoding="UTF-8" standalone="no"?>
<!DOCTYPE svg PUBLIC "-//W3C//DTD SVG 1.1//EN" "http://www.w3.org/Graphics/SVG/1.1/DTD/svg11.dtd">
<svg width="100%" height="100%" viewBox="0 0 256 256" version="1.1" xmlns="http://www.w3.org/2000/svg" xmlns:xlink="http://www.w3.org/1999/xlink" xml:space="preserve" xmlns:serif="http://www.serif.com/" style="fill-rule:evenodd;clip-rule:evenodd;stroke-linejoin:round;stroke-miterlimit:2;">
    <g transform="matrix(0.776133,0,0,0.776133,28.6534,28.8913)">
        <path d="M172.772,89.108L172.718,88.592L171.882,88.663L171.935,89.179L172.772,89.108ZM178.395,102.632L178.414,102.917L179,102.864C178.982,102.686 179.053,102.401 179.178,102.046L179.124,101.529C178.875,101.547 178.626,101.92 178.395,102.632ZM156.453,119.662C156.418,119.182 154.923,117.313 151.969,114.021C151.916,113.417 152.93,112.509 155.012,111.317L160.955,106.138C162.29,104.448 163.073,101.707 163.305,97.899L163.234,97.027C163.003,94.394 161.099,92.276 157.486,90.657C155.351,89.216 151.507,88.415 145.955,88.272C141.364,88.664 135.368,90.3 127.983,93.201C125.954,94.66 123.641,96.119 121.044,97.578L121.079,98.023C121.24,98.005 121.489,97.916 121.773,97.72C122.076,97.684 122.254,97.827 122.272,98.112L122.717,97.88L122.93,97.862L122.948,98.058C122.966,98.289 121.364,99.553 118.125,101.812L118.375,102.275L118.162,102.293L117.628,102.098C117.646,102.258 117.415,102.365 116.969,102.4L116.987,102.596L117.503,103.237C117.343,103.255 117.093,103.184 116.756,103.059C116.008,103.13 115.279,103.521 114.549,104.269L114.851,102.952C115.936,98.272 116.684,94.125 117.076,90.531L117.022,90.3C116.275,89.82 115.544,89.143 114.869,88.289C114.887,87.738 114.887,87.417 114.869,87.346L114.816,87.15L114.602,87.203C112.254,90.726 107.733,96.741 101.025,105.247C95.918,111.297 93.284,114.661 93.124,115.337C91.042,117.49 90.045,118.789 90.152,119.234C89.6,119.59 89.369,119.945 89.458,120.337C89.298,120.373 89.191,120.32 89.156,120.159C88.266,121.6 86.949,122.526 85.188,122.935L83.337,123.363C83.088,123.416 82.963,123.594 82.982,123.896L83.035,124.128L83.729,123.967L83.783,124.163L82.217,124.768L79.441,125.409L77.982,125.498C77.768,125.711 79.139,125.481 78.605,125.605L76.79,126.032C75.686,126.281 75.082,126.192 74.975,125.747L74.761,125.8C74.797,125.996 74.814,126.138 74.779,126.262L74.672,125.817L73.213,126.155C73.107,125.48 71.131,123.023 67.305,118.788C67.234,117.97 68.586,116.777 71.345,115.229L79.139,108.377C80.883,106.135 81.914,102.541 82.253,97.593L82.147,96.436C81.844,92.949 79.317,90.137 74.566,87.966C71.754,86.062 66.701,85.048 59.405,84.887C53.355,85.404 45.453,87.556 35.738,91.311C33.069,93.25 30.026,95.172 26.61,97.076L26.663,97.681C26.895,97.663 27.197,97.539 27.571,97.326C27.963,97.29 28.176,97.468 28.212,97.825L28.817,97.486L29.12,97.468L29.138,97.753C29.156,98.038 27.038,99.693 22.75,102.718L23.087,103.252L22.785,103.27L22.126,103.039C22.144,103.217 21.841,103.342 21.219,103.395L21.254,103.715L21.966,104.498C21.735,104.516 21.414,104.444 21.005,104.302C19.617,104.427 18.265,105.423 16.93,107.309L17.268,107.843C18.425,106.775 19.101,106.241 19.297,106.224L19.368,107.096C19.172,107.114 18.87,107.239 18.461,107.452L19.19,108.556C20.568,107.066 22.129,105.757 23.835,104.659C24.671,104.872 25.116,105.139 25.133,105.424L25.774,105.37C30.365,101.971 34.903,99.516 39.405,98.003L39.458,98.607C38.622,99.853 38.052,100.494 37.75,100.529C37.786,100.956 37.928,101.33 38.195,101.651C38.266,102.416 36.22,107.577 32.073,117.114C22.66,139.287 14.759,155.693 8.335,166.3C8.352,166.513 8.477,166.797 8.709,167.154C10.292,166.781 11.289,166.389 11.716,166.015L12.054,165.979L12.108,166.584L12.695,166.53L13.3,166.192C13.318,166.37 13.514,166.46 13.923,166.423L13.976,167.028C14.03,167.615 13.692,168.505 12.979,169.732C12.339,170.461 11.645,171.992 10.915,174.324L10.933,174.608L11.52,174.554C14.083,171.69 16.022,168.877 17.357,166.137C24.831,163.949 30.525,161.795 34.476,159.678C38.444,159.34 41.469,158.289 43.534,156.564L43.498,156.244L42.003,156.689L41.664,156.724L41.629,156.404C44.547,155.959 46.558,155.318 47.679,154.428C53.356,150.051 57.644,146.954 60.545,145.121C66.506,140.744 70.385,136.473 72.147,132.327C72.467,132.256 72.788,132.184 73.144,132.096C73.98,132.061 74.443,132.042 74.567,132.007C74.531,131.847 74.603,131.758 74.763,131.722C76.097,131.58 75.457,131.811 76.311,131.616L78.553,131.099C78.41,131.135 78.357,131.206 78.393,131.348L78.731,131.135C78.67,131.134 78.61,131.121 78.553,131.099L78.927,131.011L78.749,131.117C78.998,131.152 79.265,131.135 79.567,131.063L79.727,131.721L69.531,147.933L67.271,150.762L66.168,154.463L66.382,154.41L67.485,153.947L67.13,155.388L67.237,155.815L67.539,156.188C67.397,156.224 67.344,156.313 67.379,156.472L67.433,156.704L67.895,156.597C68.571,156.01 68.856,155.477 68.749,154.996C69.478,155.12 69.958,155.174 70.208,155.102L70.261,155.332C69.816,155.439 69.585,155.795 69.549,156.4L69.603,156.631L69.853,156.577C73.555,152.538 82.63,138.711 89.908,129.333C89.677,128.319 93.467,126.913 101.297,125.098L101.546,125.045C101.831,126.273 101.226,129.244 99.731,133.96C98.77,136.808 98.307,138.374 98.378,138.623C97.132,142.412 96.545,144.459 96.616,144.78L93.84,153.872C92.043,158.535 90.673,163.429 89.713,168.589C89.873,168.554 90.122,168.571 90.478,168.66L90.869,168.321C90.905,168.482 91.011,168.535 91.171,168.5L91.011,167.842L92.221,167.806C92.577,167.717 92.879,167.272 93.129,166.454C93.075,165.225 93.325,164.567 93.877,164.425C94.624,161.507 95.087,160.048 95.247,159.994C95.94,157.094 96.457,155.438 96.795,155.029C97.845,151.257 98.61,149.317 99.108,149.192L99.214,149.655L98.449,151.631C97.115,157.556 95.762,162.235 94.392,165.671L94.783,167.379L95.033,167.325C98.343,160.207 103.112,146.114 109.322,125.045C109.5,123.194 110.389,121.753 111.973,120.739L111.617,120.365L111.564,120.169C112.276,120.009 112.774,119.725 113.058,119.333C113.023,119.172 112.4,118.941 111.19,118.621L114.287,105.346C114.963,104.741 115.354,104.421 115.479,104.421L115.533,105.097C115.372,105.115 115.123,105.203 114.839,105.399L115.426,106.235C116.464,105.102 117.635,104.098 118.914,103.245C119.555,103.423 119.875,103.637 119.911,103.85L120.373,103.814C123.896,101.233 127.349,99.383 130.748,98.262L130.783,98.707C130.161,99.65 129.734,100.131 129.502,100.148C129.538,100.468 129.627,100.753 129.787,101.002C129.841,101.589 128.31,105.504 125.178,112.765C118.025,129.58 112.028,142.019 107.152,150.099C107.17,150.258 107.277,150.472 107.472,150.757C108.664,150.472 109.429,150.17 109.732,149.885L109.946,149.866L109.981,150.311L110.48,150.276L110.925,150.045C110.942,150.17 111.103,150.223 111.405,150.205L111.441,150.685C111.477,151.112 111.228,151.788 110.676,152.713C110.16,153.265 109.626,154.421 109.056,156.183L109.074,156.414L109.536,156.379C111.476,154.208 112.953,152.072 113.967,149.973C119.643,148.3 123.967,146.681 126.957,145.079C129.999,144.811 132.295,144.029 133.862,142.712L133.843,142.482L132.687,142.82L132.438,142.838L132.42,142.607C134.626,142.287 136.175,141.789 137.011,141.13C141.318,137.819 144.574,135.453 146.781,134.066C153.642,129.075 156.845,124.271 156.453,119.662ZM155.28,119.964L155.44,121.761C155.226,122.206 154.995,122.437 154.782,122.455L154.515,119.394C155.012,119.573 155.262,119.751 155.28,119.964ZM20.537,105.479L20.235,105.497L20.182,104.946L21.41,104.839L21.428,105.124C21.232,105.142 20.929,105.248 20.537,105.479ZM14.541,165.466C13.829,165.146 13.188,165.021 12.637,165.074L12.566,164.202C12.531,163.864 12.727,163.633 13.153,163.544C13.544,163.509 13.776,163.793 13.811,164.362C14.844,163.098 15.413,162.459 15.519,162.44L16.178,162.708C15.964,164.487 15.413,165.395 14.541,165.466ZM78.62,98.433C78.317,98.469 77.712,97.526 76.84,95.657L76.787,95.105C77.356,95.052 77.944,95.977 78.566,97.881L78.62,98.433ZM77.765,91.795L77.516,92.382L68.814,88.752C74.615,88.948 77.605,89.962 77.765,91.795ZM41.019,123.346L39.791,123.452L39.737,122.9L40.965,122.794L41.019,123.346ZM40.023,104.394L40.325,104.376L40.396,105.248C40.111,105.266 39.737,105.693 39.275,106.512L39.221,105.907C39.774,105.248 40.058,104.75 40.023,104.394ZM37.442,110.479L37.549,111.636L37.246,111.654L37.14,110.497L37.442,110.479ZM36.09,112.651L36.677,112.597C36.624,113.558 36.357,114.075 35.877,114.11L35.574,114.128C35.948,113.487 36.126,112.989 36.09,112.651ZM35.076,115.676L35.414,115.64L35.432,115.925L34.88,116.851L34.293,116.904L34.275,116.619C34.862,116.566 35.129,116.263 35.076,115.676ZM34.079,118.399L33.901,119.857L33.598,119.875L33.474,118.434L34.079,118.399ZM24.096,146.781C23.705,148.774 23.277,149.789 22.832,149.824L22.814,149.54C22.708,148.561 23.135,147.635 24.096,146.781ZM22.263,150.749L22.281,151.034C22.316,151.426 22.138,151.657 21.747,151.675L21.729,151.39C21.694,151.052 21.872,150.838 22.263,150.749ZM21.73,158.988L22.655,158.899L22.69,159.219C22.459,159.237 22.157,159.362 21.783,159.574L21.196,159.628C21.16,159.327 21.356,159.096 21.73,158.988ZM48.066,150.856C42.87,153.418 39.809,155.163 38.902,156.07C33.279,158.027 30.485,159.237 30.538,159.717C25.538,161.693 22.246,163.152 20.663,164.059C20.289,164.095 19.755,163.953 19.043,163.632C18.954,162.618 19.417,161.799 20.395,161.141C21.251,161.065 22.112,161.199 22.904,161.533C23.83,161.053 25.449,160.518 27.744,159.949L27.69,159.345L25.84,159.505C26.071,159.184 27.85,158.348 31.196,156.995L32.121,156.906L32.139,157.191C30.555,157.333 29.683,157.796 29.487,158.632C29.523,159.006 29.736,159.165 30.128,159.13C31.32,158.383 31.908,157.938 31.89,157.813C34.15,157.386 40.396,154.112 50.628,148.009L50.682,148.56C50.699,148.827 49.828,149.574 48.066,150.856ZM32.371,156.017C33.866,155.892 35.147,155.288 36.215,154.238C36.642,154.202 36.873,154.362 36.891,154.736C36.161,154.807 34.755,155.412 32.709,156.587L32.406,156.605L32.371,156.017ZM57.693,136.566L49.846,142.777C44.009,146.603 40.877,148.525 40.433,148.56C31.144,153.667 25.361,156.319 23.119,156.514L22.781,156.549C23.066,155.5 27.194,147.047 35.201,131.139C38.724,130.836 44.277,129.2 51.84,126.21L53.69,126.05C57.516,125.712 60.38,126.459 62.267,128.239L62.373,129.395C60.949,133.488 59.384,135.873 57.693,136.566ZM42.354,127.937L43.617,127.83L43.635,128.115L42.372,128.222L42.354,127.937ZM60.095,124.929L61.02,124.84C61.874,125.249 62.319,125.605 62.354,125.925L62.372,126.21C61.554,126.282 60.789,125.855 60.095,124.929ZM62.605,110.64C61.786,111.619 59.543,113.291 55.878,115.64C54.668,115.747 50.166,117.491 42.372,120.907C41.982,120.729 41.553,120.655 41.126,120.694L41.072,120.142C40.983,119.021 41.481,117.616 42.585,115.907C43.19,112.704 43.848,110.871 44.578,110.427L51.073,95.817C51.002,94.909 52.39,94.215 55.238,93.735L56.163,93.646L56.235,94.483C59.028,94.056 60.772,93.807 61.449,93.753C66.609,93.309 69.296,94.358 69.51,96.868L70.097,96.814L69.972,95.337L70.613,95.283C72.125,96.12 72.944,97.134 73.051,98.326C73.122,99.145 72.677,100.159 71.734,101.369C71.343,101.404 71.111,101.119 71.076,100.55L70.435,100.604L70.293,102.383C67.676,106.298 65.772,108.309 64.598,108.415C63.53,109.893 62.871,110.622 62.605,110.64ZM66.59,120.872C66.057,120.516 65.629,120.356 65.309,120.373L65.237,119.501L65.824,119.448L67.123,120.213C67.177,120.623 67,120.836 66.59,120.872ZM70.719,125.765C71.288,125.997 71.627,126.246 71.698,126.477L71.413,126.548L71.431,126.566C71.37,126.569 71.31,126.581 71.253,126.602L70.826,126.94L70.719,125.765ZM71.11,128.222L71.057,127.99L71.804,127.812L71.857,128.043L71.11,128.222ZM72.907,130.232C73.672,130.107 74.046,130.054 75.47,129.733L75.523,129.964L72.818,130.587C72.854,130.463 72.889,130.339 72.907,130.232ZM75.541,131.353C74.402,131.46 74.651,131.318 72.836,131.727L72.783,131.496L75.043,130.767L76.128,130.518L76.235,130.946C75.754,131.051 76.111,131.051 75.541,131.353ZM77.944,130.783C77.676,130.854 77.464,130.73 77.339,130.428L78.033,130.268C78.335,130.197 78.531,130.322 78.602,130.624L77.944,130.783ZM84.456,123.772L84.402,123.541L85.523,123.274L85.63,123.701L84.456,123.772ZM91.414,166.444C91.485,166.124 91.503,165.892 91.467,165.732L91.716,165.679C92.018,165.608 92.196,165.714 92.268,165.999L92.321,166.229L91.414,166.444ZM96.29,125.605L95.791,125.516C94.99,125.836 94.314,126.067 93.762,126.192L93.299,126.299C93.032,126.37 92.819,126.263 92.712,125.979L95.968,125.231L97.036,124.733L97.392,125.142C96.877,125.25 96.503,125.41 96.29,125.605ZM98.799,124.804L98.746,124.573C98.906,124.537 99.12,124.413 99.351,124.181L101.664,123.647L101.717,123.878C100.49,124.182 99.511,124.484 98.799,124.804ZM99.155,120.125C98.994,120.161 98.781,120.303 98.514,120.517C98.479,120.357 98.159,120.357 97.553,120.499C97.447,120.054 99.155,119.431 102.696,118.612L103.194,118.505L103.3,118.933C100.809,119.662 99.422,120.071 99.155,120.125ZM105.383,113.398C105.134,116.227 104.137,117.829 102.376,118.238L102.323,118.007L100.757,118.611L100.063,118.772C99.747,118.856 99.414,118.85 99.102,118.754L98.96,118.131C98.906,117.9 101.167,114.768 105.757,108.753L106.291,108.842C106.487,109.661 106.184,111.174 105.383,113.398ZM116.398,103.967L116.185,103.985L116.149,103.54L117.075,103.451L117.092,103.682C116.932,103.718 116.7,103.807 116.398,103.967ZM111.861,149.54C111.326,149.29 110.846,149.184 110.437,149.219L110.383,148.543C110.365,148.312 110.508,148.151 110.81,148.063C111.113,148.027 111.291,148.241 111.326,148.704C112.091,147.725 112.519,147.227 112.608,147.227L113.088,147.422C112.91,148.774 112.501,149.486 111.861,149.54ZM160.511,98.646C160.28,98.664 159.835,97.952 159.141,96.511L159.106,96.066C159.55,96.03 160.013,96.724 160.476,98.148L160.511,98.646ZM159.87,93.557L159.656,94.02L153.072,91.262C157.468,91.404 159.746,92.169 159.87,93.557ZM131.95,117.527L131.024,117.616L130.989,117.171L131.914,117.1L131.95,117.527ZM131.186,103.13L131.435,103.112L131.488,103.788C131.258,103.806 130.972,104.126 130.634,104.749L130.599,104.304C131.008,103.789 131.203,103.397 131.186,103.13ZM129.245,107.757L129.316,108.629L129.067,108.647L128.996,107.775L129.245,107.757ZM128.196,109.412L128.658,109.376C128.605,110.124 128.409,110.515 128.071,110.551L127.822,110.568C128.089,110.071 128.214,109.679 128.196,109.412ZM127.449,111.69L127.662,111.672L127.679,111.903L127.27,112.615L126.807,112.651L126.789,112.42C127.271,112.384 127.484,112.135 127.449,111.69ZM126.701,113.754L126.54,114.893L126.326,114.911L126.238,113.79L126.701,113.754ZM119.103,135.339C118.801,136.834 118.48,137.6 118.142,137.634L118.124,137.439C118.071,136.691 118.391,135.979 119.103,135.339ZM117.697,138.347L117.715,138.542C117.751,138.862 117.609,139.04 117.288,139.058L117.27,138.828C117.252,138.596 117.395,138.436 117.697,138.347ZM117.305,144.61L118.017,144.556L118.035,144.787C117.874,144.806 117.625,144.893 117.34,145.055L116.878,145.09C116.861,144.842 117.003,144.682 117.305,144.61ZM137.289,138.436C133.374,140.375 131.043,141.693 130.313,142.369C126.042,143.863 123.925,144.79 123.96,145.163C120.169,146.676 117.678,147.761 116.503,148.455C116.219,148.473 115.809,148.366 115.276,148.117C115.205,147.351 115.56,146.729 116.308,146.265C116.984,146.212 117.625,146.301 118.212,146.55C118.924,146.195 120.151,145.803 121.895,145.358L121.86,144.914L120.401,145.02C120.579,144.771 121.949,144.13 124.494,143.098L125.205,143.044L125.223,143.24C124.013,143.346 123.337,143.703 123.195,144.343C123.213,144.628 123.391,144.771 123.693,144.735C124.583,144.148 125.01,143.81 125.01,143.704C126.718,143.401 131.452,140.91 139.228,136.248L139.263,136.692C139.281,136.887 138.624,137.457 137.289,138.436ZM125.366,142.351C126.522,142.244 127.501,141.799 128.32,141.016C128.622,140.98 128.8,141.122 128.818,141.408C128.284,141.462 127.235,141.906 125.651,142.761L125.402,142.779L125.366,142.351ZM144.62,127.563L138.694,132.332C134.263,135.232 131.861,136.691 131.487,136.728C124.441,140.607 120.063,142.618 118.337,142.76L118.088,142.778C118.301,141.977 121.451,135.553 127.537,123.488C130.188,123.257 134.389,121.993 140.154,119.716L141.594,119.591C144.494,119.342 146.666,119.911 148.089,121.281L148.16,122.153C147.076,125.214 145.902,127.011 144.62,127.563ZM132.983,121.014L133.908,120.925L133.927,121.156L133,121.246L132.983,121.014ZM146.453,118.719L147.165,118.666C147.823,118.986 148.161,119.271 148.18,119.502L148.198,119.698C147.574,119.751 146.987,119.431 146.453,118.719ZM148.322,107.882C147.699,108.63 146.009,109.91 143.251,111.69C142.325,111.779 138.909,113.096 133.001,115.658C132.699,115.552 132.378,115.51 132.058,115.533L132.023,115.088C131.952,114.234 132.326,113.166 133.144,111.867C133.607,109.411 134.123,108.041 134.657,107.721L139.621,96.617C139.568,95.958 140.618,95.425 142.754,95.015L143.465,94.962L143.519,95.638C145.62,95.3 146.936,95.104 147.47,95.051C151.384,94.713 153.431,95.496 153.591,97.418L154.053,97.382L153.964,96.314L154.427,96.279C155.566,96.902 156.171,97.649 156.242,98.539C156.295,99.18 155.974,99.962 155.299,100.87C154.996,100.906 154.819,100.692 154.783,100.23L154.32,100.265L154.177,101.599C152.202,104.606 150.76,106.155 149.853,106.226C149.051,107.313 148.553,107.864 148.322,107.882ZM150.404,115.284L150.35,114.608L150.813,114.573L151.81,115.177C151.828,115.462 151.685,115.622 151.382,115.658C150.955,115.391 150.635,115.267 150.404,115.284ZM67.569,158.508L67.106,158.615L66.714,158.953C66.785,159.237 66.964,159.345 67.266,159.273C67.569,159.202 67.693,159.024 67.622,158.739L67.569,158.508ZM65.808,155.003L65.861,155.233C66.163,155.163 66.287,154.984 66.216,154.7L66.163,154.469C65.879,154.54 65.754,154.718 65.808,155.003ZM78.335,125.196L78.869,125.072L78.762,124.609L78.228,124.734L78.335,125.196ZM239.805,138.756C234.395,139.966 233.719,139.752 232.58,139.841L232.615,140.286L233.113,140.251L233.381,140.232L233.31,140.179L233.897,139.947C239.252,139.36 239.876,139.574 239.823,138.968L239.805,138.756ZM210.674,142.617L210.71,143.062L210.781,143.062L210.746,142.617L210.674,142.617ZM207.329,130.891L206.849,130.731C206.457,131.781 206.261,132.404 206.28,132.582L206.298,132.777C206.671,132.759 207.009,132.118 207.329,130.891ZM240.908,138.667L240.943,139.111L241.726,139.254L241.69,138.809L240.908,138.667ZM204.09,143.169L202.88,143.026L202.666,143.489L202.685,143.72L209.892,143.115L209.856,142.671L204.09,143.169ZM200.816,127.385L200.799,127.153L200.549,127.171L200.105,127.456L200.354,127.883C200.692,127.848 200.852,127.687 200.816,127.385ZM244.324,135.393L244.662,135.357C244.858,135.339 244.947,135.18 244.93,134.895L244.734,134.467C243.506,134.573 242.937,134.627 241.94,135.18L241.922,134.948L240.445,135.091C240.409,134.647 240.285,134.415 240.089,134.433L239.324,134.504C238.434,134.574 238.007,134.54 237.562,134.877C237.543,134.718 237.491,134.647 237.402,134.647L236.548,134.718L236.05,135.002C236.032,134.842 235.979,134.771 235.89,134.771L235.587,135.039L235.569,134.808L234.377,134.719L234.092,134.737L234.128,135.182L234.733,135.341L235.302,135.306C235.497,135.431 235.711,135.466 235.96,135.449L236.458,135.199L236.476,135.395C233.682,136.089 233.7,135.964 231.778,136.285C231.565,136.142 231.405,136.072 231.299,136.09L231.263,136.125C231.049,136.106 230.925,135.965 230.908,135.733L231.904,135.609C231.975,135.609 232.029,135.68 232.581,135.787C233.382,135.395 233.417,135.235 233.844,135.199L233.809,134.755C231.069,135.289 232.171,134.934 228.738,135.235L228.578,135.253L228.542,134.809C232.955,134.275 231.479,134.577 232.991,134.151C233.009,134.31 233.062,134.381 233.151,134.381C233.313,134.215 233.525,134.109 233.755,134.079L234.058,134.06C235.606,133.936 236.122,134.238 239.183,133.384L239.201,133.579L239.699,133.33L240.162,133.295C240.127,132.85 240.803,132.778 241.034,132.761L240.998,132.281C235.624,133.367 234.219,133.064 232.724,133.491L232.706,133.296C231.301,133.545 231.247,133.438 230.892,133.456C230.785,133.474 230.624,133.562 230.447,133.74C230.429,133.58 230.376,133.509 230.269,133.509C230.215,133.509 230.198,133.528 230.18,133.528L225.624,134.275C225.605,134.151 225.553,134.08 225.446,134.097C223.079,134.595 223.719,134.684 220.552,134.968C220.409,134.987 220.214,135.058 219.964,135.218C219.946,135.093 219.875,135.022 219.715,135.039L217.776,135.199L216.477,135.519C216.459,135.395 216.388,135.324 216.228,135.341C215.499,135.537 214.858,135.661 214.341,135.697L214.306,135.697C213.986,135.732 214.466,135.608 214.216,135.501L213.825,135.732C213.255,135.786 213.557,135.697 211.6,135.713C208.166,136.141 208.539,136.194 208.166,136.212L206.885,136.123C206.902,136.248 206.831,136.337 206.689,136.337C205.229,136.141 204.482,135.909 204.464,135.643C204.659,134.255 204.998,133.543 205.479,133.507L205.728,133.489L205.514,133.952L205.763,133.934C206.226,133.685 206.44,133.454 206.422,133.24L206.386,132.76L205.924,132.795L205.888,132.351C205.85,132.047 205.899,131.738 206.031,131.461L207.081,129.771L207.116,130.215L207.614,130.18L207.579,129.735L207.294,129.326C207.668,129.007 207.953,128.828 208.184,128.81L208.167,128.579L207.49,128.633L207.436,127.957C208.789,125.145 209.429,123.508 209.394,123.045L209.874,123.241C210.177,123.223 210.318,123.045 210.301,122.725L209.838,122.761L209.82,122.565C209.787,122.24 209.849,121.913 209.998,121.622C210.728,120.857 211.065,120.092 210.994,119.29C211.137,119.272 211.208,119.344 211.226,119.504C211.848,119.148 212.329,118.205 212.684,116.639C213.788,114.646 215.354,110.66 217.4,104.699C221.315,94.164 221.155,93.043 221.707,90.552L221.244,90.587C221.28,90.908 221.209,91.21 221.066,91.495C220.746,91.37 220.497,91.3 220.319,91.317L220.301,91.121C220.229,90.213 220.603,89.128 221.457,87.847L221.671,87.829L222.063,89.359L222.525,89.323C222.507,89.217 222.632,88.611 222.881,87.49C222.863,87.259 222.685,87.116 222.329,87.099L221.884,87.384C221.849,87.064 221.866,86.227 221.92,84.892L221.689,84.91C221.297,84.518 221.102,84.198 221.084,83.931L218.54,84.181C218.521,84.003 218.433,83.736 218.255,83.398C218.237,83.166 218.807,82.935 219.982,82.704L220.498,82.9L220.978,82.615C220.996,82.775 221.084,82.846 221.262,82.829L221.742,82.544C221.76,82.704 221.849,82.775 222.027,82.757L222.258,82.74L222.222,82.223C221.867,82.259 220.923,82.259 219.429,82.205L218.949,82.526L218.931,82.241C206.991,83.22 200.21,83.771 198.591,83.931C198.377,83.949 197.541,83.931 196.064,83.896C196.083,84.091 195.905,84.198 195.548,84.234L195.031,84.003L193.288,84.448C192.878,84.483 192.184,84.466 191.224,84.359C190.943,84.579 190.601,84.709 190.245,84.733C190.031,84.751 192.789,84.59 195.351,84.412C195.084,84.626 194.675,84.75 194.106,84.804C193.714,84.84 193.377,84.786 193.091,84.626C192.699,84.804 191.437,85.088 189.32,85.516L188.803,85.321L180.475,86.602C180.155,86.442 179.781,86.389 179.354,86.424C178.909,86.46 178.162,86.62 177.129,86.904L173.108,88.576L173.411,89.075C173.606,89.057 173.891,88.95 174.229,88.755L175.653,88.88L175.475,90.214C174.158,90.801 173.393,91.673 173.179,92.777C171.203,93.649 170.225,94.272 170.225,94.646L170.243,94.877L170.546,94.859L171.08,94.574L171.703,95.322L171.792,96.354C171.827,96.675 168.499,103.668 161.845,117.334C156.079,130.502 153.054,137.709 152.77,139.008C150.794,139.559 149.656,140.361 149.318,141.428C149.353,141.766 149.94,141.997 151.079,142.087L151.133,142.603L150.617,143.457L150.706,144.49C150.759,145.023 152.201,145.432 155.03,145.717C155.011,145.54 155.101,145.433 155.297,145.415C155.351,146.056 155.172,147.301 154.763,149.152L155.066,149.133C156.241,147.531 156.793,146.428 156.739,145.823L156.988,145.805C157.273,145.786 157.576,146.107 157.931,146.801C157.576,146.944 156.329,149.773 154.194,155.308L154.497,155.805L154.8,155.787C157.415,149.168 159.053,145.502 159.729,144.808C163.164,144.504 169.107,143.9 177.542,142.993L178.076,142.673C178.094,142.851 178.201,142.94 178.396,142.922L178.948,142.869L179.482,142.548C179.5,142.726 179.606,142.815 179.801,142.797L186.19,142.245C187.88,142.103 188.681,141.587 188.611,140.715C188.592,140.485 189.589,140.217 191.6,139.933C191.795,139.914 192.08,139.968 192.472,140.093C192.454,139.933 193.468,139.773 195.496,139.594C195.55,138.527 195.888,137.957 196.493,137.904L196.439,137.388C195.87,137.441 195.229,137.583 194.482,137.832C193.147,137.761 192.293,137.654 191.937,137.529C191.581,137.725 191.314,137.832 191.119,137.85L186.67,137.993L186.136,138.277C186.119,138.117 186.012,138.046 185.816,138.063L185.567,138.081L184.998,138.366C184.98,138.206 184.518,138.081 183.593,137.957L183.024,138.295L181.92,138.384L181.901,138.099C187.631,137.477 190.462,136.694 190.389,135.769C190.763,135.733 190.959,135.911 190.994,136.285L192.667,135.858L192.613,135.341L178.893,135.714C178.911,135.893 178.822,135.999 178.626,136.018L176.953,135.875C176.525,135.91 176.17,136.035 175.886,136.249L175.263,136.018C173.537,136.16 172.256,136.373 171.402,136.641C170.227,136.551 168.928,136.569 167.487,136.694L164.408,136.961L162.985,136.801C162.914,135.894 164.675,131.427 168.305,123.42C169.356,120.715 170.316,119.025 171.242,118.384C171.438,118.366 171.722,118.437 172.114,118.597L174.302,117.849L175.423,118.027C177.309,117.867 179.498,117.334 182.007,116.408C182.63,116.355 183.093,116.39 183.431,116.533L185.104,116.141L190.086,115.715C192.203,115.537 194.499,115.074 196.99,114.309L196.936,113.793C196.011,113.882 195.531,113.722 195.495,113.348C195.442,112.654 194.766,112.369 193.467,112.476L193.414,111.96L194.783,111.568L198.378,111.265L198.324,110.749C198.182,110.766 197.453,110.749 196.1,110.695L196.046,110.143L197.435,110.018C197.808,109.982 197.968,109.804 197.933,109.449C196.064,109.503 195.121,109.413 195.103,109.164C182.078,109.804 175.547,109.929 175.511,109.519C175.316,109.537 175.048,109.662 174.693,109.875L174.355,109.341C177.807,102.009 179.835,98.309 180.422,98.255C180.44,98.54 180.298,99.002 179.977,99.625L179.996,99.856L180.548,99.802C181.918,96.528 183.074,94.838 184.035,94.766C188.128,94.41 183.466,94.143 192.221,92.773C192.577,92.933 192.826,93.004 193.004,92.986C196.439,92.292 201.226,91.563 207.364,90.816L207.329,90.299L204.055,90.602L204.019,90.086C204.411,90.05 204.731,89.926 204.998,89.712L205.016,89.997C205.194,89.979 205.443,89.855 205.763,89.641C206.332,89.588 206.76,89.641 207.063,89.801C208.202,89.499 209.126,89.321 209.802,89.249L211.849,89.053C212.347,88.733 212.578,88.448 212.561,88.181L212.543,87.95C212.026,88.003 211.439,87.968 210.746,87.843C210.728,87.558 210.87,87.363 211.208,87.274L215.017,86.918L216.76,86.473C216.778,86.669 216.867,86.74 217.01,86.74C217.188,86.722 217.437,86.597 217.757,86.384C217.846,86.402 217.952,86.402 218.041,86.42C217.811,86.9 217.543,87.594 217.276,88.502L216.777,88.538C216.751,88.218 216.654,87.908 216.493,87.63L216.244,87.648C211.617,100.531 209.554,106.528 205.283,116.422C204.5,118.949 203.841,120.355 203.271,120.657C203.29,120.942 203.467,121.084 203.77,121.049C203.876,122.294 203.591,123.522 202.898,124.732C200.922,130.426 199.605,133.541 198.929,134.11L199.374,136.797C199.392,137.082 199.249,137.242 198.946,137.277L198.484,137.313C198.413,136.565 198.145,136.209 197.665,136.263L197.416,136.281C196.812,137.224 196.349,138.309 196.046,139.573L196.508,139.538C197.132,139.129 197.416,138.648 197.362,138.096L198.288,138.008L198.821,138.203C198.395,138.879 198.199,139.414 198.234,139.822L198.484,140.25L197.879,141.673L197.897,141.904C198.431,141.851 199.018,142.028 199.641,142.402C200.068,142.367 200.531,142.172 201.047,141.833C201.58,141.78 203.573,141.762 207.008,141.762L208.734,141.175C210.835,141.156 211.172,141.211 212.987,141.051L213.735,140.979L214.127,140.712L214.145,140.944C216.049,140.783 216.173,140.908 217.668,141.086L217.686,141.317L216.636,141.406L216.671,141.851C216.991,141.815 217.276,141.726 217.508,141.531C217.775,141.512 217.935,141.655 217.952,141.975C217.461,142.025 216.977,142.132 216.511,142.295L216.049,142.135C215.32,142.33 215.479,142.384 214.981,142.419L214.252,142.277C214.27,142.401 214.198,142.491 214.074,142.491C214.092,142.775 214.252,142.918 214.518,142.899L215.266,142.829L219.162,142.491L220.64,142.171C220.658,142.295 220.711,142.366 220.835,142.349L221.547,142.082L222.882,141.975C223.914,141.886 223.896,141.815 226.138,141.459C226.12,141.316 226.174,141.263 226.281,141.245L226.3,141.44C229.947,140.818 230.179,140.782 230.766,140.586L230.819,140.693C231.727,140.48 231.211,140.533 231.461,140.355C231.479,140.515 231.532,140.585 231.621,140.585L232.262,140.532L232.226,140.052L230.927,140.034L230.909,139.999C230.855,140.016 230.819,140.016 230.766,140.034L230.588,140.034L230.588,140.069C229.716,140.248 229.698,140.123 229.128,140.176L225.872,140.354L225.854,140.123L227.668,139.874L228.326,139.82L228.7,139.552L228.718,139.784C231.281,139.57 232.189,140.211 244.04,137.684C244.68,137.629 244.627,137.097 245.036,135.993C244.819,136.009 244.602,135.959 244.413,135.851C243.434,136.224 242.918,136.046 241.032,136.349C240.872,136.367 240.748,136.224 240.694,135.94L240.675,135.744L242.49,135.798C242.829,135.763 243.486,135.708 244.466,135.157C244.467,135.321 244.111,135.41 244.324,135.393ZM156.703,136.798L155.866,136.869C155.831,136.531 156.275,135.25 157.201,133.061L157.753,133.008C157.771,133.524 157.433,134.788 156.703,136.798ZM157.717,132.741L157.699,132.51C157.68,132.226 157.859,132.03 158.251,131.941L158.269,132.172C158.286,132.51 158.109,132.705 157.717,132.741ZM168.839,141.337L168.857,141.567L167.469,141.692L167.45,141.461L168.839,141.337ZM167.166,141.193C167.184,141.477 166.757,141.798 165.831,142.118L164.123,141.994L163.571,142.048L163.518,141.532L167.166,141.193ZM178.413,89.429L177.576,89.5L177.558,89.215C177.539,88.93 177.7,88.735 178.055,88.645L178.359,88.627L178.928,88.858C178.947,89.197 178.786,89.393 178.413,89.429ZM191.136,86.938L191.403,86.92L191.439,87.436L190.673,87.507C190.656,87.222 190.798,87.026 191.136,86.938ZM187.933,88.059L186.669,87.916L186.651,87.685C188.305,87.543 188.857,87.365 189.872,87.08C189.891,87.276 190.068,87.347 190.388,87.311L190.424,87.827L189.926,87.88C189.534,87.916 189.197,87.862 188.911,87.702C188.619,87.899 188.283,88.021 187.933,88.059ZM189.517,92.667L189.499,92.436L191.545,92.24L191.563,92.471L189.517,92.667ZM191.705,90.888L191.687,90.603L192.683,90.514L192.701,90.799L191.705,90.888ZM191.937,87.4L191.67,87.418L191.9,86.866L194.178,86.653L194.196,86.938C193.61,86.991 192.845,87.151 191.937,87.4ZM193.093,92.311L193.057,91.795L194.054,91.706C194.393,91.67 194.571,91.83 194.588,92.186L193.093,92.311ZM199.126,84.09L197.845,84.446L197.614,84.464C197.009,84.517 196.225,84.5 195.301,84.41C196.954,84.304 198.538,84.179 199.126,84.09ZM197.755,89.785L197.774,90.016L196.012,90.177L195.993,89.946L197.755,89.785ZM200.638,91.154C200.62,90.941 200.283,90.799 199.588,90.727L197.827,91.226L196.474,91.279C196.171,91.065 196.011,90.923 195.993,90.817L197.559,90.906L201.082,90.337L202.879,90.408L202.898,90.693C202.009,90.781 201.261,90.941 200.638,91.154ZM218.772,86.475C218.985,86.493 219.127,86.493 219.181,86.493C219.791,85.89 220.509,85.407 221.298,85.07C220.657,87.882 219.66,89.964 218.291,91.316L217.294,90.711C218.13,88.592 218.629,87.187 218.772,86.475ZM215.711,91.724L215.959,91.706C215.621,92.347 215.319,92.684 215.069,92.702L215.016,92.026C215.177,92.026 215.408,91.919 215.711,91.724ZM213.736,96.439C214.215,94.517 214.678,93.432 215.106,93.147L215.124,93.378C214.875,95.158 214.483,96.101 213.968,96.172L214.057,97.293C213.629,97.898 213.434,98.361 213.452,98.717L213.203,98.735L213.06,97.187C213.344,97.152 213.575,96.902 213.736,96.439ZM212.97,99.002C212.988,99.27 212.81,99.892 212.454,100.853L212.205,100.871L212.151,100.195C212.49,99.411 212.775,99.02 212.97,99.002ZM198.611,140.678L198.592,140.483L199.055,140.447L199.108,141.123C198.859,141.141 198.681,140.998 198.611,140.678ZM219.127,141.212C219.109,141.052 219.038,140.98 218.878,140.998L217.721,141.104L217.703,140.873L217.81,140.873L220.55,140.642L220.568,140.873C219.768,140.909 219.287,141.033 219.127,141.212ZM217.757,140.642C217.863,140.696 217.811,140.749 217.757,140.785C217.703,140.767 217.633,140.713 217.757,140.642ZM217.9,137.438L216.37,137.563L216.351,137.332L217.739,137.208L218.95,136.905C218.968,137.047 219.039,137.101 219.199,137.083C220.64,136.834 220.498,136.763 221.191,136.71C221.423,136.691 221.565,136.834 221.583,137.118L217.9,137.438ZM223.256,136.977C222.402,136.887 222.348,136.817 221.743,136.87L221.724,136.675L223.094,136.55L223.112,136.746C222.971,136.763 223.487,136.798 223.256,136.977ZM223.363,136.728L223.345,136.532L224.092,136.462L224.11,136.657L223.363,136.728ZM225.017,136.585L224.999,136.389C225.124,136.371 225.302,136.283 225.533,136.104C225.907,136.07 226.102,136.319 226.138,136.603L225.017,136.585ZM227.135,136.318L227.116,136.087L228.024,136.016L228.042,136.247L227.135,136.318ZM228.399,136.211C228.38,135.944 228.487,135.784 228.719,135.748L229.021,136.14C229.003,136.016 229.057,135.945 229.164,135.927L229.395,136.354L228.399,136.211ZM214.963,142.013L214.928,141.568L214.785,141.586L214.82,142.03L214.963,142.013ZM246.229,133.915C246.371,133.826 246.442,133.737 246.104,133.685C245.944,133.863 246.283,133.915 245.926,133.934L245.944,134.094C245.979,134.058 246.069,134.005 246.14,133.951L245.944,134.111L245.944,134.129L245.571,134.609L246.318,134.342L246.407,134.342L246.371,133.897L246.229,133.915ZM247.528,134.931L247.385,134.948L247.421,135.393L248.471,135.304C248.453,135.019 247.759,134.931 247.528,134.931ZM245.908,134.147L245.926,134.128L245.926,134.11C245.926,134.111 245.908,134.129 245.908,134.147Z" style="fill-rule:nonzero;"/>
        <path d="M177.594,101.208L177.612,101.493L178.2,101.44C178.181,101.262 178.253,100.978 178.378,100.622L178.324,100.106C178.074,100.124 177.825,100.497 177.594,101.208ZM171.971,87.685L171.917,87.169L171.081,87.24L171.134,87.756L171.971,87.685ZM155.654,118.238C155.618,117.758 154.124,115.889 151.17,112.597C151.116,111.993 152.131,111.085 154.212,109.893L160.156,104.714C161.49,103.024 162.273,100.283 162.505,96.475L162.434,95.603C162.203,92.969 160.298,90.852 156.686,89.232C154.551,87.791 150.707,86.99 145.156,86.847C140.564,87.239 134.568,88.876 127.183,91.777C125.154,93.236 122.841,94.695 120.243,96.154L120.279,96.599C120.439,96.581 120.688,96.492 120.973,96.296C121.275,96.26 121.453,96.403 121.471,96.688L121.916,96.457L122.129,96.439L122.147,96.635C122.165,96.867 120.564,98.13 117.325,100.39L117.574,100.852L117.36,100.87L116.826,100.674C116.844,100.834 116.613,100.941 116.168,100.977L116.186,101.173L116.702,101.813C116.542,101.831 116.294,101.76 115.955,101.635C115.208,101.706 114.478,102.098 113.748,102.845L114.051,101.528C115.137,96.848 115.884,92.702 116.276,89.108L116.222,88.877C115.475,88.397 114.745,87.72 114.069,86.866C114.087,86.314 114.087,85.994 114.069,85.923L114.015,85.727L113.803,85.781C111.453,89.304 106.933,95.319 100.225,103.825C95.118,109.875 92.484,113.238 92.324,113.914C90.242,116.067 89.245,117.366 89.352,117.811C88.8,118.167 88.569,118.522 88.658,118.914C88.497,118.95 88.391,118.896 88.356,118.736C87.466,120.177 86.149,121.102 84.387,121.512L82.536,121.939C82.286,121.993 82.162,122.17 82.18,122.473L82.234,122.704L82.927,122.544L82.981,122.74L81.415,123.345L78.639,123.985L77.181,124.074C76.967,124.287 78.337,124.056 77.804,124.18L75.989,124.607C74.886,124.856 74.281,124.767 74.174,124.323L73.961,124.376C73.997,124.572 74.015,124.714 73.979,124.839L73.873,124.394L72.414,124.732C72.307,124.056 70.331,121.6 66.506,117.365C66.435,116.547 67.788,115.354 70.546,113.806L78.34,106.955C80.084,104.713 81.116,101.118 81.454,96.171L81.347,95.014C81.045,91.526 78.518,88.715 73.766,86.544C70.954,84.64 65.901,83.626 58.605,83.465C52.555,83.981 44.654,86.134 34.938,89.889C32.269,91.828 29.226,93.75 25.81,95.655L25.863,96.26C26.094,96.242 26.397,96.118 26.771,95.905C27.163,95.869 27.376,96.047 27.411,96.403L28.016,96.065L28.319,96.047L28.336,96.332C28.354,96.617 26.236,98.272 21.948,101.297L22.286,101.831L21.983,101.849L21.325,101.618C21.343,101.796 21.04,101.92 20.417,101.973L20.453,102.293L21.164,103.076C20.933,103.094 20.613,103.023 20.204,102.88C18.816,103.005 17.463,104.001 16.129,105.887L16.467,106.421C17.624,105.353 18.3,104.819 18.495,104.801L18.566,105.673C18.37,105.691 18.068,105.815 17.658,106.029L18.388,107.132C19.766,105.643 21.326,104.334 23.032,103.235C23.868,103.448 24.314,103.715 24.331,104L24.972,103.947C29.563,100.548 34.1,98.093 38.602,96.58L38.656,97.184C37.819,98.43 37.25,99.071 36.948,99.106C36.984,99.533 37.126,99.907 37.393,100.228C37.464,100.993 35.417,106.153 31.271,115.691C21.857,137.863 13.957,154.27 7.533,164.875C7.551,165.089 7.676,165.374 7.907,165.729C9.491,165.355 10.487,164.964 10.914,164.59L11.252,164.554L11.306,165.159L11.893,165.106L12.498,164.768C12.516,164.945 12.711,165.035 13.121,164.998L13.174,165.603C13.227,166.19 12.889,167.08 12.178,168.307C11.537,169.036 10.843,170.567 10.114,172.899L10.132,173.183L10.719,173.129C13.282,170.265 15.221,167.453 16.556,164.713C24.03,162.524 29.724,160.37 33.675,158.254C37.643,157.915 40.668,156.864 42.733,155.139L42.697,154.819L41.203,155.264L40.865,155.3L40.829,154.979C43.747,154.535 45.758,153.894 46.879,153.004C52.555,148.626 56.844,145.53 59.744,143.697C65.705,139.319 69.585,135.049 71.347,130.902C71.667,130.831 71.988,130.759 72.344,130.671C73.18,130.636 73.643,130.618 73.767,130.582C73.732,130.422 73.803,130.333 73.963,130.298C75.298,130.155 74.657,130.386 75.511,130.191L77.753,129.675L78.127,129.585L77.949,129.692C78.198,129.727 78.465,129.71 78.767,129.638L78.927,130.297L68.731,146.507L66.471,149.337L65.367,153.038L65.58,152.985L66.683,152.522L66.328,153.963L66.435,154.39L66.737,154.764C66.594,154.799 66.541,154.888 66.577,155.048L66.631,155.279L67.093,155.173C67.769,154.585 68.054,154.052 67.947,153.571C68.676,153.695 69.157,153.749 69.406,153.677L69.46,153.908C69.015,154.015 68.783,154.371 68.749,154.975L68.802,155.206L69.052,155.153C72.753,151.113 81.829,137.287 89.107,127.909C88.876,126.895 92.666,125.489 100.496,123.674L100.745,123.621C101.03,124.849 100.425,127.82 98.931,132.537C97.97,135.384 97.507,136.949 97.578,137.199C96.332,140.989 95.745,143.035 95.816,143.355L93.04,152.449C91.243,157.111 89.873,162.005 88.912,167.165C89.072,167.13 89.322,167.147 89.677,167.236L90.069,166.898C90.104,167.058 90.211,167.111 90.371,167.076L90.211,166.418L91.421,166.383C91.776,166.294 92.079,165.849 92.328,165.03C92.275,163.801 92.524,163.143 93.075,163.001C93.822,160.083 94.285,158.624 94.446,158.57C95.14,155.67 95.656,154.015 95.994,153.605C97.044,149.833 97.809,147.893 98.307,147.768L98.414,148.231L97.649,150.207C96.314,156.133 94.961,160.812 93.591,164.247L93.983,165.955L94.232,165.902C97.542,158.783 102.311,144.69 108.522,123.621C108.7,121.77 109.589,120.329 111.173,119.315L110.817,118.941L110.763,118.745C111.475,118.585 111.973,118.3 112.259,117.909C112.223,117.748 111.6,117.517 110.39,117.197L113.487,103.922C114.163,103.317 114.555,102.997 114.679,102.997L114.733,103.673C114.573,103.691 114.324,103.78 114.039,103.976L114.626,104.812C115.664,103.679 116.835,102.675 118.113,101.822C118.754,102 119.074,102.214 119.11,102.427L119.573,102.391C123.096,99.811 126.548,97.96 129.947,96.839L129.982,97.283C129.36,98.226 128.932,98.707 128.702,98.725C128.737,99.045 128.826,99.33 128.986,99.579C129.039,100.166 127.509,104.081 124.378,111.341C117.224,128.157 111.227,140.596 106.351,148.675C106.369,148.835 106.476,149.048 106.672,149.333C107.864,149.048 108.629,148.746 108.932,148.461L109.145,148.443L109.181,148.887L109.679,148.852L110.124,148.621C110.142,148.746 110.302,148.799 110.604,148.781L110.64,149.261C110.676,149.688 110.426,150.365 109.875,151.289C109.359,151.842 108.825,152.998 108.255,154.76L108.273,154.991L108.736,154.955C110.675,152.784 112.152,150.648 113.167,148.549C118.843,146.876 123.168,145.257 126.157,143.655C129.2,143.388 131.495,142.605 133.062,141.289L133.044,141.058L131.887,141.396L131.638,141.414L131.62,141.183C133.826,140.863 135.375,140.365 136.211,139.706C140.518,136.396 143.774,134.029 145.981,132.641C152.841,127.652 156.045,122.847 155.654,118.238ZM154.479,118.541L154.639,120.338C154.425,120.783 154.194,121.014 153.98,121.032L153.713,117.971C154.211,118.149 154.461,118.327 154.479,118.541ZM19.737,104.056L19.435,104.074L19.381,103.522L20.609,103.415L20.627,103.7C20.431,103.718 20.128,103.825 19.737,104.056ZM13.74,164.042C13.029,163.722 12.387,163.598 11.836,163.65L11.765,162.778C11.729,162.44 11.925,162.209 12.352,162.12C12.743,162.085 12.974,162.369 13.01,162.939C14.042,161.675 14.612,161.035 14.718,161.017L15.377,161.284C15.163,163.063 14.612,163.971 13.74,164.042ZM77.819,97.009C77.516,97.045 76.911,96.102 76.04,94.233L75.986,93.682C76.555,93.629 77.143,94.554 77.765,96.458L77.819,97.009ZM76.965,90.372L76.715,90.959L68.013,87.329C73.815,87.524 76.805,88.539 76.965,90.372ZM40.219,121.922L38.991,122.029L38.938,121.477L40.166,121.37L40.219,121.922ZM39.221,102.97L39.524,102.952L39.596,103.824C39.311,103.842 38.938,104.269 38.474,105.087L38.421,104.482C38.972,103.825 39.258,103.326 39.221,102.97ZM36.641,109.056L36.748,110.213L36.446,110.231L36.339,109.074L36.641,109.056ZM35.29,111.228L35.877,111.174C35.823,112.135 35.557,112.651 35.076,112.686L34.773,112.704C35.147,112.063 35.324,111.565 35.29,111.228ZM34.275,114.252L34.613,114.216L34.631,114.501L34.08,115.426L33.493,115.479L33.475,115.194C34.062,115.142 34.329,114.84 34.275,114.252ZM33.279,116.975L33.101,118.434L32.798,118.452L32.673,117.011L33.279,116.975ZM23.296,145.357C22.904,147.35 22.478,148.365 22.032,148.4L22.014,148.116C21.908,147.137 22.335,146.212 23.296,145.357ZM21.463,149.326L21.481,149.61C21.517,150.002 21.339,150.233 20.948,150.251L20.93,149.966C20.893,149.628 21.071,149.415 21.463,149.326ZM20.929,157.564L21.854,157.476L21.89,157.796C21.659,157.813 21.356,157.938 20.982,158.151L20.395,158.204C20.36,157.902 20.555,157.672 20.929,157.564ZM47.265,149.433C42.069,151.996 39.009,153.74 38.101,154.647C32.478,156.604 29.684,157.814 29.737,158.294C24.737,160.27 21.445,161.729 19.862,162.636C19.488,162.672 18.954,162.53 18.242,162.209C18.153,161.195 18.616,160.376 19.595,159.718C20.451,159.642 21.312,159.776 22.104,160.11C23.029,159.63 24.648,159.096 26.944,158.526L26.891,157.922L25.04,158.082C25.271,157.762 27.05,156.926 30.396,155.573L31.321,155.484L31.339,155.768C29.756,155.911 28.884,156.372 28.688,157.209C28.723,157.583 28.937,157.743 29.328,157.707C30.52,156.96 31.107,156.515 31.09,156.391C33.35,155.963 39.596,152.69 49.828,146.586L49.881,147.137C49.899,147.404 49.027,148.151 47.265,149.433ZM31.571,154.593C33.066,154.469 34.347,153.864 35.414,152.814C35.841,152.779 36.073,152.939 36.09,153.312C35.361,153.384 33.955,153.989 31.909,155.164L31.606,155.182L31.571,154.593ZM56.892,135.144L49.044,141.372C43.207,145.198 40.076,147.12 39.612,147.156C30.323,152.262 24.54,154.915 22.298,155.11L21.96,155.145C22.244,154.095 26.373,145.643 34.38,129.734C37.903,129.431 43.455,127.795 51.018,124.805L52.869,124.645C56.695,124.307 59.56,125.054 61.447,126.833L61.553,127.99C60.149,132.065 58.582,134.449 56.892,135.144ZM41.553,126.513L42.816,126.406L42.834,126.691L41.571,126.798L41.553,126.513ZM59.295,123.505L60.22,123.416C61.074,123.826 61.519,124.181 61.554,124.502L61.572,124.787C60.753,124.858 59.988,124.431 59.295,123.505ZM61.803,109.216C60.985,110.195 58.742,111.868 55.077,114.216C53.867,114.323 49.364,116.067 41.571,119.484C41.181,119.306 40.752,119.232 40.325,119.271L40.272,118.719C40.183,117.598 40.681,116.193 41.784,114.484C42.389,111.281 43.048,109.448 43.777,109.003L50.273,94.394C50.202,93.486 51.589,92.792 54.437,92.311L55.363,92.222L55.434,93.059C58.228,92.632 59.972,92.383 60.648,92.329C65.809,91.884 68.496,92.934 68.709,95.443L69.296,95.389L69.171,93.912L69.812,93.858C71.324,94.694 72.143,95.709 72.25,96.901C72.321,97.72 71.876,98.734 70.934,99.944C70.542,99.979 70.311,99.694 70.276,99.125L69.635,99.179L69.493,100.958C66.877,104.873 64.973,106.884 63.799,106.991C62.729,108.469 62.071,109.199 61.803,109.216ZM65.79,119.449C65.256,119.093 64.829,118.933 64.509,118.95L64.438,118.078L65.025,118.024L66.324,118.79C66.377,119.199 66.198,119.413 65.79,119.449ZM69.918,124.342C70.487,124.573 70.825,124.822 70.896,125.054L70.612,125.125L70.63,125.143C70.569,125.146 70.509,125.158 70.452,125.179L70.025,125.517L69.918,124.342ZM70.309,126.798L70.256,126.567L71.003,126.389L71.057,126.621L70.309,126.798ZM72.107,128.809C72.872,128.684 73.246,128.631 74.67,128.31L74.723,128.541L72.019,129.165C72.053,129.04 72.089,128.915 72.107,128.809ZM74.74,129.93C73.601,130.036 73.85,129.894 72.035,130.304L71.982,130.072L74.26,129.343L75.345,129.095L75.452,129.522C74.954,129.627 75.31,129.627 74.74,129.93ZM77.143,129.36C76.876,129.43 76.663,129.306 76.538,129.005L77.232,128.844C77.535,128.774 77.73,128.898 77.801,129.2L77.143,129.36ZM83.656,122.349L83.602,122.118L84.724,121.851L84.831,122.278L83.656,122.349ZM90.613,165.021C90.684,164.701 90.702,164.47 90.667,164.309L90.916,164.256C91.219,164.185 91.396,164.291 91.468,164.576L91.521,164.806L90.613,165.021ZM95.489,124.182L94.99,124.093C94.19,124.413 93.513,124.645 92.962,124.769L92.499,124.876C92.232,124.947 92.019,124.84 91.912,124.556L95.168,123.808L96.236,123.309L96.592,123.719C96.076,123.826 95.703,123.986 95.489,124.182ZM97.998,123.381L97.944,123.15C98.105,123.114 98.318,122.99 98.549,122.758L100.862,122.224L100.915,122.455C99.689,122.758 98.71,123.061 97.998,123.381ZM98.354,118.701C98.194,118.737 97.98,118.879 97.713,119.093C97.677,118.933 97.357,118.933 96.752,119.075C96.645,118.63 98.354,118.008 101.894,117.189L102.393,117.082L102.499,117.509C100.009,118.238 98.62,118.647 98.354,118.701ZM104.582,111.975C104.333,114.804 103.337,116.406 101.575,116.815L101.522,116.584L99.956,117.189L99.262,117.349C98.946,117.433 98.613,117.427 98.301,117.331L98.159,116.708C98.106,116.477 100.365,113.345 104.956,107.33L105.49,107.419C105.685,108.238 105.383,109.75 104.582,111.975ZM115.597,102.543L115.383,102.561L115.347,102.116L116.273,102.027L116.291,102.258C116.131,102.294 115.9,102.383 115.597,102.543ZM111.059,148.116C110.526,147.867 110.045,147.76 109.636,147.796L109.582,147.119C109.565,146.888 109.707,146.728 110.009,146.639C110.312,146.604 110.489,146.817 110.526,147.28C111.291,146.301 111.717,145.803 111.807,145.803L112.287,145.998C112.109,147.351 111.7,148.063 111.059,148.116ZM159.71,97.223C159.479,97.241 159.033,96.529 158.34,95.087L158.305,94.643C158.749,94.607 159.212,95.301 159.675,96.725L159.71,97.223ZM159.07,92.133L158.856,92.595L152.272,89.837C156.667,89.98 158.946,90.746 159.07,92.133ZM131.15,116.103L130.225,116.192L130.189,115.747L131.115,115.658L131.15,116.103ZM130.384,101.707L130.633,101.689L130.688,102.365C130.456,102.383 130.171,102.703 129.834,103.326L129.798,102.881C130.206,102.365 130.403,101.974 130.384,101.707ZM128.445,106.333L128.516,107.205L128.267,107.223L128.196,106.351L128.445,106.333ZM127.395,107.988L127.857,107.953C127.804,108.7 127.608,109.092 127.271,109.127L127.021,109.145C127.288,108.647 127.413,108.255 127.395,107.988ZM126.648,110.267L126.862,110.249L126.88,110.48L126.471,111.192L126.008,111.228L125.99,110.997C126.47,110.96 126.684,110.711 126.648,110.267ZM125.901,112.331L125.74,113.47L125.527,113.488L125.438,112.367L125.901,112.331ZM118.302,133.915C118,135.41 117.679,136.176 117.341,136.211L117.324,136.016C117.27,135.268 117.59,134.556 118.302,133.915ZM116.896,136.923L116.914,137.118C116.95,137.438 116.808,137.617 116.487,137.634L116.469,137.404C116.451,137.172 116.594,137.012 116.896,136.923ZM116.504,143.187L117.216,143.134L117.234,143.364C117.074,143.383 116.825,143.47 116.54,143.632L116.078,143.667C116.06,143.418 116.202,143.259 116.504,143.187ZM136.489,137.012C132.574,138.952 130.243,140.269 129.513,140.946C125.242,142.44 123.124,143.365 123.16,143.739C119.369,145.252 116.878,146.338 115.704,147.031C115.419,147.049 115.01,146.942 114.475,146.693C114.404,145.928 114.76,145.305 115.508,144.842C116.184,144.789 116.824,144.877 117.412,145.126C118.123,144.771 119.351,144.379 121.096,143.934L121.06,143.49L119.619,143.615C119.797,143.365 121.167,142.724 123.712,141.693L124.423,141.639L124.441,141.834C123.231,141.94 122.555,142.297 122.412,142.938C122.43,143.223 122.608,143.365 122.91,143.33C123.801,142.743 124.227,142.404 124.227,142.298C125.935,141.995 130.669,139.504 138.445,134.842L138.48,135.287C138.481,135.464 137.823,136.033 136.489,137.012ZM124.566,140.927C125.723,140.821 126.701,140.375 127.52,139.592C127.823,139.574 128,139.699 128.019,139.984C127.484,140.038 126.435,140.483 124.851,141.338L124.602,141.355L124.566,140.927ZM143.821,126.14L137.894,130.909C133.463,133.809 131.061,135.268 130.688,135.305C123.641,139.184 119.263,141.195 117.537,141.338L117.288,141.355C117.502,140.555 120.652,134.13 126.737,122.065C129.388,121.834 133.589,120.57 139.353,118.293L140.794,118.168C143.695,117.919 145.866,118.488 147.289,119.858L147.36,120.73C146.276,123.79 145.101,125.587 143.821,126.14ZM132.182,119.591L133.108,119.502L133.126,119.733L132.2,119.822L132.182,119.591ZM145.653,117.295L146.365,117.242C147.023,117.562 147.361,117.846 147.379,118.078L147.398,118.274C146.774,118.327 146.187,118.007 145.653,117.295ZM147.521,106.458C146.899,107.206 145.208,108.487 142.45,110.267C141.524,110.356 138.108,111.673 132.2,114.235C131.898,114.129 131.577,114.087 131.258,114.11L131.222,113.665C131.151,112.811 131.525,111.743 132.343,110.444C132.806,107.988 133.322,106.618 133.856,106.298L138.821,95.194C138.767,94.536 139.817,94.002 141.953,93.593L142.665,93.54L142.718,94.216C144.818,93.878 146.135,93.682 146.669,93.629C150.583,93.291 152.63,94.074 152.79,95.996L153.252,95.96L153.164,94.892L153.626,94.857C154.765,95.48 155.37,96.227 155.441,97.117C155.494,97.758 155.173,98.541 154.498,99.449C154.195,99.484 154.018,99.271 153.981,98.808L153.519,98.844L153.376,100.179C151.4,103.186 149.959,104.734 149.052,104.805C148.25,105.889 147.752,106.44 147.521,106.458ZM149.603,113.861L149.55,113.185L150.012,113.15L151.008,113.754C151.027,114.039 150.884,114.199 150.581,114.234C150.155,113.968 149.834,113.843 149.603,113.861ZM66.768,157.085L66.305,157.191L65.913,157.529C65.985,157.813 66.163,157.921 66.465,157.849C66.767,157.778 66.892,157.6 66.821,157.316L66.768,157.085ZM65.007,153.579L65.06,153.809C65.363,153.739 65.488,153.561 65.416,153.276L65.362,153.045C65.078,153.116 64.953,153.294 65.007,153.579ZM77.605,129.912L77.943,129.698C77.871,129.698 77.818,129.68 77.765,129.663C77.641,129.698 77.588,129.787 77.605,129.912ZM77.534,123.772L78.067,123.647L77.961,123.184L77.427,123.309L77.534,123.772ZM203.29,141.745L202.08,141.602L201.866,142.065L201.884,142.296L209.091,141.692L209.055,141.247L203.29,141.745ZM209.874,141.193L209.909,141.638L209.979,141.638L209.945,141.193L209.874,141.193ZM240.107,137.243L240.143,137.688L240.926,137.83L240.89,137.386L240.107,137.243ZM239.004,137.332C233.595,138.542 232.918,138.329 231.779,138.417L231.814,138.862L232.312,138.827L232.58,138.808L232.509,138.755L233.096,138.524C238.452,137.937 239.075,138.15 239.022,137.545L239.004,137.332ZM206.529,129.467L206.049,129.307C205.657,130.357 205.462,130.98 205.48,131.158L205.498,131.353C205.87,131.336 206.208,130.695 206.529,129.467ZM200.016,125.961L199.997,125.73L199.749,125.748L199.304,126.033L199.553,126.46C199.891,126.424 200.051,126.264 200.016,125.961ZM214.162,140.588L214.127,140.144L213.984,140.163L214.019,140.607L214.162,140.588ZM243.524,133.969L243.862,133.934C244.057,133.915 244.147,133.756 244.129,133.471L243.934,133.043C242.706,133.15 242.136,133.204 241.141,133.756L241.122,133.525L239.644,133.667C239.61,133.223 239.485,132.991 239.289,133.01L238.524,133.08C237.634,133.151 237.207,133.116 236.761,133.454C236.744,133.294 236.691,133.223 236.602,133.223L235.748,133.294L235.25,133.578C235.231,133.418 235.179,133.347 235.09,133.347L234.787,133.615L234.769,133.384L233.577,133.295L233.292,133.313L233.328,133.758L233.932,133.917L234.502,133.882C234.697,134.007 234.911,134.042 235.16,134.025L235.658,133.776L235.676,133.971C232.883,134.665 232.901,134.541 230.979,134.861C230.765,134.719 230.605,134.648 230.499,134.666L230.463,134.701C230.25,134.683 230.125,134.542 230.108,134.309L231.105,134.184C231.175,134.184 231.229,134.256 231.78,134.363C232.582,133.971 232.617,133.811 233.044,133.776L233.009,133.331C230.269,133.865 231.371,133.509 227.938,133.811L227.778,133.829L227.742,133.385C232.155,132.851 230.679,133.154 232.191,132.727C232.209,132.887 232.262,132.957 232.351,132.957C232.529,132.779 232.724,132.69 232.955,132.654L233.258,132.636C234.807,132.512 235.322,132.815 238.383,131.96L238.401,132.156L238.899,131.906L239.362,131.871C239.327,131.426 240.004,131.354 240.234,131.338L240.199,130.857C234.825,131.943 233.419,131.64 231.924,132.068L231.906,131.872C230.501,132.121 230.447,132.015 230.091,132.032C229.985,132.05 229.824,132.138 229.647,132.316C229.629,132.157 229.576,132.086 229.469,132.086C229.415,132.086 229.398,132.104 229.38,132.104L224.824,132.851C224.806,132.727 224.753,132.655 224.645,132.673C222.279,133.171 222.919,133.261 219.752,133.545C219.609,133.563 219.414,133.634 219.165,133.793C219.146,133.669 219.075,133.599 218.915,133.616L216.976,133.776L215.677,134.096C215.659,133.971 215.588,133.9 215.428,133.917C214.699,134.113 214.058,134.237 213.541,134.273L213.506,134.273C213.186,134.308 213.666,134.183 213.417,134.078L213.025,134.308C212.456,134.362 212.758,134.273 210.8,134.29C207.365,134.718 207.739,134.77 207.365,134.789L206.084,134.699C206.103,134.824 206.031,134.913 205.889,134.913C204.43,134.718 203.683,134.486 203.664,134.219C203.86,132.831 204.198,132.119 204.679,132.084L204.928,132.066L204.714,132.528L204.964,132.51C205.426,132.26 205.64,132.03 205.621,131.816L205.586,131.337L205.123,131.372L205.088,130.927C205.049,130.623 205.098,130.314 205.23,130.037L206.281,128.347L206.316,128.791L206.815,128.756L206.779,128.311L206.495,127.902C206.868,127.582 207.152,127.404 207.385,127.386L207.366,127.155L206.69,127.209L206.636,126.532C207.989,123.721 208.629,122.084 208.594,121.621L209.073,121.817C209.377,121.799 209.518,121.621 209.501,121.3L209.038,121.336L209.02,121.141C208.987,120.816 209.049,120.489 209.198,120.198C209.927,119.433 210.266,118.668 210.194,117.867C210.338,117.849 210.408,117.921 210.425,118.08C211.049,117.725 211.529,116.781 211.885,115.215C212.988,113.222 214.554,109.236 216.6,103.275C220.516,92.741 220.355,91.62 220.907,89.128L220.444,89.164C220.48,89.484 220.409,89.787 220.266,90.072C219.946,89.947 219.697,89.876 219.519,89.894L219.501,89.699C219.43,88.791 219.803,87.706 220.657,86.425L220.871,86.407L221.263,87.937L221.725,87.902C221.707,87.795 221.832,87.19 222.081,86.069C222.063,85.838 221.885,85.695 221.529,85.677L221.085,85.962C221.049,85.642 221.066,84.805 221.12,83.471L220.889,83.489C220.497,83.097 220.302,82.777 220.284,82.51L217.739,82.759C217.721,82.581 217.634,82.314 217.455,81.976C217.437,81.745 218.007,81.513 219.182,81.282L219.698,81.478L220.178,81.193C220.196,81.353 220.284,81.424 220.463,81.406L220.943,81.121C220.961,81.282 221.049,81.352 221.227,81.335L221.458,81.317L221.423,80.801C221.067,80.836 220.124,80.836 218.629,80.783L218.149,81.104L218.13,80.819C206.19,81.797 199.41,82.349 197.791,82.509C197.577,82.527 196.741,82.509 195.265,82.473C195.283,82.669 195.104,82.776 194.748,82.811L194.231,82.58L192.488,83.025C192.079,83.06 191.384,83.042 190.424,82.936C190.143,83.156 189.801,83.286 189.445,83.31C189.231,83.327 191.99,83.167 194.552,82.989C194.284,83.203 193.875,83.327 193.306,83.381C192.914,83.417 192.577,83.363 192.291,83.203C191.899,83.381 190.637,83.665 188.519,84.092L188.003,83.897L179.675,85.178C179.355,85.018 178.982,84.964 178.554,85C178.11,85.036 177.362,85.196 176.329,85.48L172.308,87.153L172.611,87.651C172.806,87.633 173.091,87.526 173.429,87.331L174.853,87.456L174.675,88.791C173.359,89.378 172.593,90.25 172.379,91.353C170.404,92.225 169.425,92.848 169.425,93.222L169.444,93.452L169.746,93.435L170.28,93.15L170.903,93.897L170.992,94.929C171.027,95.249 167.7,102.242 161.045,115.909C155.279,129.077 152.254,136.284 151.969,137.583C149.994,138.135 148.856,138.936 148.517,140.004C148.553,140.341 149.141,140.573 150.28,140.662L150.333,141.178L149.817,142.032L149.906,143.065C149.959,143.598 151.4,144.008 154.23,144.293C154.211,144.115 154.301,144.009 154.497,143.99C154.551,144.631 154.372,145.877 153.963,147.727L154.266,147.708C155.441,146.106 155.993,145.004 155.939,144.399L156.188,144.38C156.473,144.362 156.775,144.683 157.131,145.376C156.775,145.519 155.529,148.348 153.394,153.882L153.697,154.381L154,154.362C156.616,147.743 158.253,144.077 158.929,143.383C162.364,143.079 168.307,142.476 176.742,141.568L177.276,141.248C177.294,141.426 177.401,141.515 177.596,141.497L178.148,141.443L178.682,141.123C178.7,141.302 178.807,141.391 179.002,141.372L185.39,140.821C187.08,140.678 187.881,140.163 187.81,139.291C187.792,139.059 188.789,138.792 190.8,138.508C190.995,138.489 191.28,138.543 191.672,138.667C191.653,138.508 192.668,138.348 194.697,138.17C194.75,137.103 195.088,136.532 195.693,136.479L195.639,135.963C195.07,136.017 194.429,136.158 193.682,136.408C192.347,136.337 191.494,136.229 191.137,136.104C190.781,136.3 190.514,136.408 190.319,136.425L185.87,136.567L185.337,136.852C185.318,136.692 185.212,136.621 185.017,136.639L184.768,136.656L184.198,136.941C184.18,136.781 183.718,136.656 182.793,136.532L182.224,136.87L181.121,136.959L181.102,136.675C186.831,136.052 189.661,135.269 189.589,134.344C189.964,134.308 190.159,134.487 190.194,134.86L191.867,134.433L191.814,133.916L178.093,134.29C178.112,134.468 178.023,134.574 177.826,134.593L176.153,134.45C175.726,134.486 175.37,134.61 175.086,134.824L174.463,134.593C172.736,134.736 171.455,134.948 170.602,135.216C169.427,135.127 168.128,135.145 166.687,135.269L163.609,135.537L162.185,135.377C162.114,134.469 163.875,130.003 167.505,121.995C168.556,119.29 169.517,117.599 170.442,116.959C170.637,116.941 170.922,117.012 171.314,117.172L173.502,116.425L174.623,116.603C176.51,116.443 178.698,115.909 181.207,114.983C181.83,114.93 182.292,114.966 182.631,115.108L184.304,114.716L189.286,114.289C191.403,114.111 193.699,113.648 196.19,112.883L196.136,112.367C195.211,112.456 194.731,112.295 194.696,111.922C194.642,111.229 193.966,110.943 192.667,111.05L192.613,110.534L193.984,110.142L197.578,109.84L197.525,109.324C197.382,109.342 196.653,109.324 195.3,109.271L195.246,108.719L196.634,108.594C197.008,108.558 197.168,108.38 197.133,108.025C195.265,108.078 194.321,107.989 194.304,107.74C181.278,108.381 174.747,108.506 174.712,108.096C174.516,108.114 174.248,108.239 173.893,108.452L173.555,107.918C177.007,100.586 179.035,96.885 179.622,96.832C179.641,97.117 179.498,97.58 179.195,98.203L179.213,98.434L179.766,98.381C181.135,95.107 182.291,93.416 183.252,93.345C187.345,92.989 182.683,92.722 191.439,91.351C191.794,91.512 192.043,91.583 192.221,91.565C195.656,90.871 200.443,90.142 206.581,89.394L206.546,88.878L203.272,89.181L203.237,88.664C203.629,88.629 203.949,88.504 204.216,88.29L204.234,88.575C204.412,88.557 204.661,88.433 204.981,88.22C205.551,88.166 205.978,88.22 206.281,88.38C207.42,88.078 208.345,87.9 209.021,87.829L211.067,87.633C211.566,87.313 211.797,87.028 211.779,86.761L211.761,86.53C211.245,86.584 210.658,86.548 209.964,86.424C209.946,86.139 210.088,85.944 210.426,85.854L214.235,85.499L215.979,85.054C215.997,85.25 216.085,85.321 216.228,85.321C216.406,85.303 216.655,85.179 216.975,84.965C217.065,84.983 217.17,84.983 217.26,85.001C217.029,85.481 216.761,86.176 216.494,87.083L215.996,87.119C215.969,86.799 215.872,86.489 215.712,86.211L215.462,86.229C210.836,99.112 208.772,105.109 204.501,115.003C203.718,117.53 203.059,118.936 202.489,119.238C202.508,119.523 202.685,119.665 202.988,119.63C203.094,120.876 202.81,122.104 202.116,123.313C200.14,129.008 198.823,132.122 198.147,132.691L198.592,135.379C198.61,135.663 198.467,135.823 198.165,135.859L197.702,135.894C197.631,135.147 197.363,134.791 196.884,134.844L196.634,134.862C196.03,135.805 195.567,136.89 195.265,138.154L195.728,138.119C196.35,137.71 196.634,137.229 196.582,136.678L197.507,136.589L198.041,136.784C197.614,137.461 197.418,137.995 197.454,138.403L197.703,138.831L197.098,140.255L197.116,140.486C197.651,140.432 198.237,140.61 198.86,140.983C199.287,140.949 199.751,140.753 200.266,140.414C200.8,140.361 202.792,140.343 206.227,140.343L207.954,139.756C210.054,139.738 210.392,139.792 212.207,139.631L212.954,139.56L213.346,139.294L213.364,139.525C215.268,139.364 215.392,139.489 216.887,139.667L216.905,139.898L215.855,139.987L215.891,140.432C216.21,140.396 216.495,140.307 216.727,140.111C216.994,140.094 217.154,140.236 217.171,140.557C216.744,140.591 216.264,140.699 215.731,140.876L215.268,140.716C214.539,140.912 214.699,140.965 214.2,141.001L213.471,140.858C213.49,140.982 213.418,141.072 213.293,141.072C213.311,141.356 213.471,141.499 213.738,141.48L214.485,141.41L218.382,141.072L219.859,140.752C219.877,140.876 219.93,140.948 220.054,140.93L220.766,140.663L222.101,140.557C223.133,140.467 223.115,140.396 225.358,140.04C225.34,139.897 225.393,139.844 225.5,139.826L225.519,140.021C229.166,139.399 229.398,139.363 229.985,139.167L230.039,139.273C230.946,139.059 230.431,139.113 230.68,138.935C230.698,139.095 230.751,139.166 230.84,139.166L231.481,139.112L231.445,138.633L230.147,138.614L230.128,138.578C230.074,138.597 230.039,138.597 229.985,138.614L229.807,138.614L229.807,138.65C228.935,138.828 228.917,138.703 228.348,138.756L225.091,138.934L225.073,138.703L226.888,138.454L227.546,138.4L227.919,138.133L227.938,138.364C230.501,138.15 231.408,138.791 243.259,136.264C243.9,136.21 243.846,135.677 244.255,134.573C244.038,134.589 243.821,134.54 243.633,134.431C242.654,134.805 242.137,134.626 240.251,134.93C240.091,134.947 239.967,134.805 239.913,134.52L239.894,134.325L241.709,134.378C242.048,134.343 242.706,134.289 243.685,133.737C243.684,133.897 243.31,133.986 243.524,133.969ZM155.902,135.375L155.066,135.446C155.031,135.107 155.476,133.826 156.401,131.637L156.953,131.584C156.97,132.101 156.632,133.364 155.902,135.375ZM156.916,131.317L156.898,131.087C156.88,130.802 157.058,130.606 157.45,130.517L157.468,130.748C157.486,131.087 157.308,131.282 156.916,131.317ZM168.038,139.912L168.056,140.143L166.668,140.268L166.65,140.037L168.038,139.912ZM166.365,139.771C166.383,140.055 165.956,140.375 165.031,140.696L163.322,140.572L162.77,140.625L162.717,140.108L166.365,139.771ZM177.612,88.005L176.776,88.076L176.758,87.791C176.739,87.506 176.9,87.311 177.256,87.222L177.559,87.204L178.128,87.435C178.146,87.773 177.986,87.969 177.612,88.005ZM190.335,85.514L190.602,85.496L190.638,86.012L189.872,86.083C189.855,85.798 189.996,85.603 190.335,85.514ZM187.132,86.635L185.868,86.492L185.85,86.261C187.505,86.118 188.056,85.941 189.071,85.656C189.089,85.851 189.266,85.923 189.587,85.887L189.623,86.403L189.125,86.457C188.733,86.492 188.396,86.439 188.11,86.279C187.818,86.475 187.482,86.597 187.132,86.635ZM188.716,91.244L188.697,91.013L190.744,90.818L190.762,91.049L188.716,91.244ZM190.905,89.464L190.887,89.179L191.884,89.09L191.901,89.375L190.905,89.464ZM191.136,85.977L190.868,85.995L191.1,85.443L193.377,85.23L193.395,85.515C192.809,85.567 192.043,85.727 191.136,85.977ZM192.292,90.888L192.257,90.372L193.253,90.283C193.592,90.247 193.77,90.408 193.787,90.763L192.292,90.888ZM198.324,82.667L197.044,83.023L196.813,83.04C196.208,83.094 195.424,83.076 194.5,82.987C196.154,82.88 197.738,82.755 198.324,82.667ZM196.954,88.361L196.973,88.592L195.211,88.752L195.192,88.521L196.954,88.361ZM199.838,89.731C199.819,89.518 199.482,89.376 198.788,89.304L197.025,89.802L195.672,89.856C195.369,89.642 195.21,89.5 195.192,89.393L196.758,89.482L200.281,88.913L202.079,88.984L202.096,89.269C201.207,89.357 200.46,89.518 199.838,89.731ZM217.971,85.051C218.184,85.069 218.326,85.069 218.38,85.069C218.99,84.466 219.708,83.982 220.497,83.645C219.856,86.457 218.86,88.539 217.489,89.891L216.493,89.286C217.33,87.168 217.828,85.763 217.971,85.051ZM214.909,90.3L215.158,90.282C214.82,90.923 214.517,91.261 214.268,91.279L214.214,90.603C214.376,90.603 214.607,90.496 214.909,90.3ZM212.935,95.016C213.415,93.094 213.877,92.009 214.305,91.724L214.323,91.955C214.074,93.734 213.682,94.678 213.167,94.749L213.255,95.87C212.829,96.475 212.633,96.938 212.651,97.293L212.402,97.311L212.26,95.763C212.543,95.728 212.775,95.479 212.935,95.016ZM212.169,97.579C212.187,97.846 212.009,98.469 211.653,99.43L211.404,99.448L211.35,98.772C211.69,97.988 211.974,97.596 212.169,97.579ZM197.809,139.254L197.791,139.058L198.253,139.024L198.307,139.7C198.058,139.717 197.88,139.574 197.809,139.254ZM218.326,139.788C218.307,139.627 218.237,139.556 218.077,139.574L216.92,139.68L216.902,139.449L217.009,139.449L219.749,139.219L219.767,139.449C218.967,139.485 218.487,139.61 218.326,139.788ZM216.956,139.219C217.063,139.272 217.01,139.325 216.956,139.361C216.903,139.343 216.831,139.29 216.956,139.219ZM217.099,136.016L215.568,136.14L215.55,135.909L216.939,135.785L218.149,135.482C218.167,135.625 218.238,135.678 218.398,135.66C219.839,135.411 219.697,135.34 220.391,135.287C220.621,135.268 220.764,135.411 220.783,135.696L217.099,136.016ZM222.455,135.553C221.601,135.464 221.547,135.393 220.942,135.447L220.923,135.251L222.294,135.127L222.312,135.322C222.17,135.339 222.686,135.375 222.455,135.553ZM222.562,135.304L222.543,135.108L223.291,135.037L223.309,135.233L222.562,135.304ZM224.217,135.161L224.198,134.965C224.323,134.947 224.501,134.859 224.732,134.681C225.105,134.646 225.301,134.895 225.337,135.18L224.217,135.161ZM226.334,134.895L226.316,134.664L227.223,134.593L227.241,134.824L226.334,134.895ZM227.597,134.788C227.58,134.52 227.686,134.36 227.917,134.325L228.221,134.717C228.202,134.592 228.256,134.521 228.363,134.503L228.594,134.931L227.597,134.788ZM245.108,132.724L245.126,132.705L245.126,132.687C245.125,132.688 245.108,132.705 245.108,132.724ZM245.428,132.492C245.571,132.403 245.642,132.313 245.303,132.261C245.143,132.439 245.481,132.492 245.125,132.51L245.143,132.67C245.179,132.634 245.268,132.581 245.339,132.527L245.143,132.687L245.143,132.705L244.77,133.185L245.517,132.918L245.606,132.918L245.571,132.474L245.428,132.492ZM246.727,133.507L246.584,133.525L246.619,133.969L247.67,133.88C247.653,133.596 246.958,133.507 246.727,133.507Z" style="fill:rgb(249,220,62);fill-rule:nonzero;"/>
    </g>
</svg>
