<svg xmlns="http://www.w3.org/2000/svg" width="256" height="256" viewBox="128 -28 256 256"><path d="M300.772 61.108l-.054-.516-.836.071.053.516.837-.071zm5.623 13.524l.019.285.586-.053c-.018-.178.053-.463.178-.818l-.054-.517c-.249.018-.498.391-.729 1.103zm-21.942 17.03c-.035-.48-1.53-2.349-4.484-5.641-.053-.604.961-1.512 3.043-2.704l5.943-5.179c1.335-1.69 2.118-4.431 2.35-8.239l-.071-.872c-.231-2.633-2.135-4.751-5.748-6.37-2.135-1.441-5.979-2.242-11.531-2.385-4.591.392-10.587 2.028-17.972 4.929-2.029 1.459-4.342 2.918-6.939 4.377l.035.445c.161-.018.41-.107.694-.303.303-.036.481.107.499.392l.445-.232.213-.018.018.196c.018.231-1.584 1.495-4.823 3.754l.25.463-.213.018-.534-.195c.018.16-.213.267-.659.302l.018.196.516.641c-.16.018-.41-.053-.747-.178-.748.071-1.477.462-2.207 1.21l.302-1.317c1.085-4.68 1.833-8.827 2.225-12.421l-.054-.231c-.747-.48-1.478-1.157-2.153-2.011.018-.551.018-.872 0-.943l-.053-.196-.214.053c-2.348 3.523-6.869 9.538-13.577 18.044-5.107 6.05-7.741 9.414-7.901 10.09-2.082 2.153-3.079 3.452-2.972 3.897-.552.356-.783.711-.694 1.103-.16.036-.267-.017-.302-.178-.89 1.441-2.207 2.367-3.968 2.776l-1.851.428c-.249.053-.374.231-.355.533l.053.232.694-.161.054.196-1.566.605-2.776.641-1.459.089c-.214.213 1.157-.017.623.107l-1.815.427c-1.104.249-1.708.16-1.815-.285l-.214.053c.036.196.053.338.018.462l-.107-.445-1.459.338c-.106-.675-2.082-3.132-5.908-7.367-.071-.818 1.281-2.011 4.04-3.559l7.794-6.852c1.744-2.242 2.775-5.836 3.114-10.784l-.106-1.157c-.303-3.487-2.83-6.299-7.581-8.47-2.812-1.904-7.865-2.918-15.161-3.079-6.05.517-13.952 2.669-23.667 6.424-2.669 1.939-5.712 3.861-9.128 5.765l.053.605c.232-.018.534-.142.908-.355.392-.036.605.142.641.499l.605-.339.303-.018.018.285c.018.285-2.1 1.94-6.388 4.965l.337.534-.302.018-.659-.231c.018.178-.285.303-.907.356l.035.32.712.783c-.231.018-.552-.054-.961-.196-1.388.125-2.74 1.121-4.075 3.007l.338.534c1.157-1.068 1.833-1.602 2.029-1.619l.071.872c-.196.018-.498.143-.907.356l.729 1.104a24.072 24.072 0 0 1 4.645-3.897c.836.213 1.281.48 1.298.765l.641-.054c4.591-3.399 9.129-5.854 13.631-7.367l.053.604c-.836 1.246-1.406 1.887-1.708 1.922.036.427.178.801.445 1.122.071.765-1.975 5.926-6.122 15.463-9.413 22.173-17.314 38.579-23.738 49.186.017.213.142.497.374.854 1.583-.373 2.58-.765 3.007-1.139l.338-.036.054.605.587-.054.605-.338c.018.178.214.268.623.231l.053.605c.054.587-.284 1.477-.997 2.704-.64.729-1.334 2.26-2.064 4.592l.018.284.587-.054c2.563-2.864 4.502-5.677 5.837-8.417 7.474-2.188 13.168-4.342 17.119-6.459 3.968-.338 6.993-1.389 9.058-3.114l-.036-.32-1.495.445-.339.035-.035-.32c2.918-.445 4.929-1.086 6.05-1.976 5.677-4.377 9.965-7.474 12.866-9.307 5.961-4.377 9.84-8.648 11.602-12.794.32-.071.641-.143.997-.231.836-.035 1.299-.054 1.423-.089-.036-.16.036-.249.196-.285 1.334-.142.694.089 1.548-.106l2.242-.517c-.143.036-.196.107-.16.249l.338-.213a.52.52 0 0 1-.178-.036l.374-.088-.178.106c.249.035.516.018.818-.054l.16.658-10.196 16.212-2.26 2.829-1.103 3.701.214-.053 1.103-.463-.355 1.441.107.427.302.373c-.142.036-.195.125-.16.284l.054.232.462-.107c.676-.587.961-1.12.854-1.601.729.124 1.209.178 1.459.106l.053.23c-.445.107-.676.463-.712 1.068l.054.231.25-.054c3.702-4.039 12.777-17.866 20.055-27.244-.231-1.014 3.559-2.42 11.389-4.235l.249-.053c.285 1.228-.32 4.199-1.815 8.915-.961 2.848-1.424 4.414-1.353 4.663-1.246 3.789-1.833 5.836-1.762 6.157l-2.776 9.092c-1.797 4.663-3.167 9.557-4.127 14.717.16-.035.409-.018.765.071l.391-.339c.036.161.142.214.302.179l-.16-.658 1.21-.036c.356-.089.658-.534.908-1.352-.054-1.229.196-1.887.748-2.029.747-2.918 1.21-4.377 1.37-4.431.693-2.9 1.21-4.556 1.548-4.965 1.05-3.772 1.815-5.712 2.313-5.837l.106.463-.765 1.976c-1.334 5.925-2.687 10.604-4.057 14.04l.391 1.708.25-.054c3.31-7.118 8.079-21.211 14.289-42.28.178-1.851 1.067-3.292 2.651-4.306l-.356-.374-.053-.196c.712-.16 1.21-.444 1.494-.836-.035-.161-.658-.392-1.868-.712l3.097-13.275c.676-.605 1.067-.925 1.192-.925l.054.676c-.161.018-.41.106-.694.302l.587.836a19.09 19.09 0 0 1 3.488-2.99c.641.178.961.392.997.605l.462-.036c3.523-2.581 6.976-4.431 10.375-5.552l.035.445c-.622.943-1.049 1.424-1.281 1.441.036.32.125.605.285.854.054.587-1.477 4.502-4.609 11.763-7.153 16.815-13.15 29.254-18.026 37.334.018.159.125.373.32.658 1.192-.285 1.957-.587 2.26-.872l.214-.019.035.445.499-.035.445-.231c.017.125.178.178.48.16l.036.48c.036.427-.213 1.103-.765 2.028-.516.552-1.05 1.708-1.62 3.47l.018.231.462-.035c1.94-2.171 3.417-4.307 4.431-6.406 5.676-1.673 10-3.292 12.99-4.894 3.042-.268 5.338-1.05 6.905-2.367l-.019-.23-1.156.338-.249.018-.018-.231c2.206-.32 3.755-.818 4.591-1.477 4.307-3.311 7.563-5.677 9.77-7.064 6.861-4.991 10.064-9.795 9.672-14.404zm-1.173.302l.16 1.797c-.214.445-.445.676-.658.694l-.267-3.061c.497.179.747.357.765.57zM148.537 77.479l-.302.018-.053-.551 1.228-.107.018.285c-.196.018-.499.124-.891.355zm-5.996 59.987c-.712-.32-1.353-.445-1.904-.392l-.071-.872c-.035-.338.161-.569.587-.658.391-.035.623.249.658.818 1.033-1.264 1.602-1.903 1.708-1.922l.659.268c-.214 1.779-.765 2.687-1.637 2.758zm64.079-67.033c-.303.036-.908-.907-1.78-2.776l-.053-.552c.569-.053 1.157.872 1.779 2.776l.054.552zm-.855-6.638l-.249.587-8.702-3.63c5.801.196 8.791 1.21 8.951 3.043zm-36.746 31.551l-1.228.106-.054-.552 1.228-.106.054.552zm-.996-18.952l.302-.018.071.872c-.285.018-.659.445-1.121 1.264l-.054-.605c.553-.659.837-1.157.802-1.513zm-2.581 6.085l.107 1.157-.303.018-.106-1.157.302-.018zm-1.352 2.172l.587-.054c-.053.961-.32 1.478-.8 1.513l-.303.018c.374-.641.552-1.139.516-1.477zm-1.014 3.025l.338-.036.018.285-.552.926-.587.053-.018-.285c.587-.053.854-.356.801-.943zm-.997 2.723l-.178 1.458-.303.018-.124-1.441.605-.035zm-9.983 28.382c-.391 1.993-.819 3.008-1.264 3.043l-.018-.284c-.106-.979.321-1.905 1.282-2.759zm-1.833 3.968l.018.285c.035.392-.143.623-.534.641l-.018-.285c-.035-.338.143-.552.534-.641zm-.533 8.239l.925-.089.035.32c-.231.018-.533.143-.907.355l-.587.054c-.036-.301.16-.532.534-.64zm26.336-8.132c-5.196 2.562-8.257 4.307-9.164 5.214-5.623 1.957-8.417 3.167-8.364 3.647-5 1.976-8.292 3.435-9.875 4.342-.374.036-.908-.106-1.62-.427-.089-1.014.374-1.833 1.352-2.491a5.257 5.257 0 0 1 2.509.392c.926-.48 2.545-1.015 4.84-1.584l-.054-.604-1.85.16c.231-.321 2.01-1.157 5.356-2.51l.925-.089.018.285c-1.584.142-2.456.605-2.652 1.441.036.374.249.533.641.498 1.192-.747 1.78-1.192 1.762-1.317 2.26-.427 8.506-3.701 18.738-9.804l.054.551c.017.267-.854 1.014-2.616 2.296zm-15.695 5.161c1.495-.125 2.776-.729 3.844-1.779.427-.036.658.124.676.498-.73.071-2.136.676-4.182 1.851l-.303.018-.035-.588zm25.322-19.451l-7.847 6.211c-5.837 3.826-8.969 5.748-9.413 5.783-9.289 5.107-15.072 7.759-17.314 7.954l-.338.035c.285-1.049 4.413-9.502 12.42-25.41 3.523-.303 9.076-1.939 16.639-4.929l1.85-.16c3.826-.338 6.69.409 8.577 2.189l.106 1.156c-1.424 4.093-2.989 6.478-4.68 7.171zm-15.339-8.629l1.263-.107.018.285-1.263.107-.018-.285zm17.741-3.008l.925-.089c.854.409 1.299.765 1.334 1.085l.018.285c-.818.072-1.583-.355-2.277-1.281zm2.51-14.289c-.819.979-3.062 2.651-6.727 5-1.21.107-5.712 1.851-13.506 5.267a2.463 2.463 0 0 0-1.246-.213l-.054-.552c-.089-1.121.409-2.526 1.513-4.235.605-3.203 1.263-5.036 1.993-5.48l6.495-14.61c-.071-.908 1.317-1.602 4.165-2.082l.925-.089.072.837c2.793-.427 4.537-.676 5.214-.73 5.16-.444 7.847.605 8.061 3.115l.587-.054-.125-1.477.641-.054c1.512.837 2.331 1.851 2.438 3.043.071.819-.374 1.833-1.317 3.043-.391.035-.623-.25-.658-.819l-.641.054-.142 1.779c-2.617 3.915-4.521 5.926-5.695 6.032-1.068 1.478-1.727 2.207-1.993 2.225zm3.985 10.232c-.533-.356-.961-.516-1.281-.499l-.072-.872.587-.053 1.299.765c.054.41-.123.623-.533.659zm4.129 4.893c.569.232.908.481.979.712l-.285.071.018.018a.62.62 0 0 0-.178.036l-.427.338-.107-1.175zm.391 2.457l-.053-.232.747-.178.053.231-.747.179zm1.797 2.01c.765-.125 1.139-.178 2.563-.499l.053.231-2.705.623c.036-.124.071-.248.089-.355zm2.634 1.121c-1.139.107-.89-.035-2.705.374l-.053-.231 2.26-.729 1.085-.249.107.428c-.481.105-.124.105-.694.407zm2.403-.57c-.268.071-.48-.053-.605-.355l.694-.16c.302-.071.498.054.569.356l-.658.159zm6.512-7.011l-.054-.231 1.121-.267.107.427-1.174.071zm6.958 42.672c.071-.32.089-.552.053-.712l.249-.053c.302-.071.48.035.552.32l.053.23-.907.215zm4.876-40.839l-.499-.089c-.801.32-1.477.551-2.029.676l-.463.107c-.267.071-.48-.036-.587-.32l3.256-.748 1.068-.498.356.409c-.515.108-.889.268-1.102.463zm2.509-.801l-.053-.231c.16-.036.374-.16.605-.392l2.313-.534.053.231c-1.227.304-2.206.606-2.918.926zm.356-4.679c-.161.036-.374.178-.641.392-.035-.16-.355-.16-.961-.018-.106-.445 1.602-1.068 5.143-1.887l.498-.107.106.428c-2.491.729-3.878 1.138-4.145 1.192zm6.228-6.727c-.249 2.829-1.246 4.431-3.007 4.84l-.053-.231-1.566.604-.694.161a1.747 1.747 0 0 1-.961-.018l-.142-.623c-.054-.231 2.207-3.363 6.797-9.378l.534.089c.196.819-.107 2.332-.908 4.556zm11.015-9.431l-.213.018-.036-.445.926-.089.017.231c-.16.036-.392.125-.694.285zm-4.537 45.573c-.535-.25-1.015-.356-1.424-.321l-.054-.676c-.018-.231.125-.392.427-.48.303-.036.481.178.516.641.765-.979 1.193-1.477 1.282-1.477l.48.195c-.178 1.352-.587 2.064-1.227 2.118zm48.65-50.894c-.231.018-.676-.694-1.37-2.135l-.035-.445c.444-.036.907.658 1.37 2.082l.035.498zm-.641-5.089l-.214.463-6.584-2.758c4.396.142 6.674.907 6.798 2.295zm-27.92 23.97l-.926.089-.035-.445.925-.071.036.427zm-.764-14.397l.249-.018.053.676c-.23.018-.516.338-.854.961l-.035-.445c.409-.515.604-.907.587-1.174zm-1.941 4.627l.071.872-.249.018-.071-.872.249-.018zm-1.049 1.655l.462-.036c-.053.748-.249 1.139-.587 1.175l-.249.017c.267-.497.392-.889.374-1.156zm-.747 2.278l.213-.018.017.231-.409.712-.463.036-.018-.231c.482-.036.695-.285.66-.73zm-.748 2.064l-.161 1.139-.214.018-.088-1.121.463-.036zm-7.598 21.585c-.302 1.495-.623 2.261-.961 2.295l-.018-.195c-.053-.748.267-1.46.979-2.1zm-1.406 3.008l.018.195c.036.32-.106.498-.427.516l-.018-.23c-.018-.232.125-.392.427-.481zm-.392 6.263l.712-.054.018.231c-.161.019-.41.106-.695.268l-.462.035c-.017-.248.125-.408.427-.48zm19.984-6.174c-3.915 1.939-6.246 3.257-6.976 3.933-4.271 1.494-6.388 2.421-6.353 2.794-3.791 1.513-6.282 2.598-7.457 3.292-.284.018-.694-.089-1.227-.338-.071-.766.284-1.388 1.032-1.852.676-.053 1.317.036 1.904.285.712-.355 1.939-.747 3.683-1.192l-.035-.444-1.459.106c.178-.249 1.548-.89 4.093-1.922l.711-.054.018.196c-1.21.106-1.886.463-2.028 1.103.018.285.196.428.498.392.89-.587 1.317-.925 1.317-1.031 1.708-.303 6.442-2.794 14.218-7.456l.035.444c.018.195-.639.765-1.974 1.744zm-11.923 3.915c1.156-.107 2.135-.552 2.954-1.335.302-.036.48.106.498.392-.534.054-1.583.498-3.167 1.353l-.249.018-.036-.428zm19.254-14.788l-5.926 4.769c-4.431 2.9-6.833 4.359-7.207 4.396-7.046 3.879-11.424 5.89-13.15 6.032l-.249.018c.213-.801 3.363-7.225 9.449-19.29 2.651-.231 6.852-1.495 12.617-3.772l1.44-.125c2.9-.249 5.072.32 6.495 1.69l.071.872c-1.084 3.061-2.258 4.858-3.54 5.41zm-11.637-6.549l.925-.089.019.231-.927.09-.017-.232zm13.47-2.295l.712-.053c.658.32.996.605 1.015.836l.018.196c-.624.053-1.211-.267-1.745-.979zm1.869-10.837c-.623.748-2.313 2.028-5.071 3.808-.926.089-4.342 1.406-10.25 3.968a2.34 2.34 0 0 0-.943-.125l-.035-.445c-.071-.854.303-1.922 1.121-3.221.463-2.456.979-3.826 1.513-4.146l4.964-11.104c-.053-.659.997-1.192 3.133-1.602l.711-.053.054.676c2.101-.338 3.417-.534 3.951-.587 3.914-.338 5.961.445 6.121 2.367l.462-.036-.089-1.068.463-.035c1.139.623 1.744 1.37 1.815 2.26.053.641-.268 1.423-.943 2.331-.303.036-.48-.178-.516-.64l-.463.035-.143 1.334c-1.975 3.007-3.417 4.556-4.324 4.627-.802 1.087-1.3 1.638-1.531 1.656zm2.082 7.402l-.054-.676.463-.035.997.604c.018.285-.125.445-.428.481-.427-.267-.747-.391-.978-.374zm-82.835 43.224l-.463.107-.392.338c.071.284.25.392.552.32.303-.071.427-.249.356-.534l-.053-.231zm-1.761-3.505l.053.23c.302-.07.426-.249.355-.533l-.053-.231c-.284.071-.409.249-.355.534zm12.527-29.807l.534-.124-.107-.463-.534.125.107.462zm161.47 13.56c-5.41 1.21-6.086.996-7.225 1.085l.035.445.498-.035.268-.019-.071-.053.587-.232c5.355-.587 5.979-.373 5.926-.979l-.018-.212zm-29.131 3.861l.036.445h.071l-.035-.445h-.072zm-3.345-11.726l-.48-.16c-.392 1.05-.588 1.673-.569 1.851l.018.195c.373-.018.711-.659 1.031-1.886zm33.579 7.776l.035.444.783.143-.036-.445-.782-.142zm-36.818 4.502l-1.21-.143-.214.463.019.231 7.207-.605-.036-.444-5.766.498zm-3.274-15.784l-.017-.232-.25.018-.444.285.249.427c.338-.035.498-.196.462-.498zm43.508 8.008l.338-.036c.196-.018.285-.177.268-.462l-.196-.428c-1.228.106-1.797.16-2.794.713l-.018-.232-1.477.143c-.036-.444-.16-.676-.356-.658l-.765.071c-.89.07-1.317.036-1.762.373-.019-.159-.071-.23-.16-.23l-.854.071-.498.284c-.018-.16-.071-.231-.16-.231l-.303.268-.018-.231-1.192-.089-.285.018.036.445.605.159.569-.035c.195.125.409.16.658.143l.498-.25.018.196c-2.794.694-2.776.569-4.698.89-.213-.143-.373-.213-.479-.195l-.036.035c-.214-.019-.338-.16-.355-.392l.996-.124c.071 0 .125.071.677.178.801-.392.836-.552 1.263-.588l-.035-.444c-2.74.534-1.638.179-5.071.48l-.16.018-.036-.444c4.413-.534 2.937-.232 4.449-.658.018.159.071.23.16.23a1.03 1.03 0 0 1 .604-.302l.303-.019c1.548-.124 2.064.178 5.125-.676l.018.195.498-.249.463-.035c-.035-.445.641-.517.872-.534l-.036-.48c-5.374 1.086-6.779.783-8.274 1.21l-.018-.195c-1.405.249-1.459.142-1.814.16-.107.018-.268.106-.445.284-.018-.16-.071-.231-.178-.231-.054 0-.071.019-.089.019l-4.556.747c-.019-.124-.071-.195-.178-.178-2.367.498-1.727.587-4.894.871-.143.019-.338.09-.588.25-.018-.125-.089-.196-.249-.179l-1.939.16-1.299.32c-.018-.124-.089-.195-.249-.178-.729.196-1.37.32-1.887.356h-.035c-.32.035.16-.089-.09-.196l-.391.231c-.57.054-.268-.035-2.225-.019-3.434.428-3.061.481-3.434.499l-1.281-.089c.017.125-.054.214-.196.214-1.46-.196-2.207-.428-2.225-.694.195-1.388.534-2.1 1.015-2.136l.249-.018-.214.463.249-.018c.463-.249.677-.48.659-.694l-.036-.48-.462.035-.036-.444a1.602 1.602 0 0 1 .143-.89l1.05-1.69.035.444.498-.035-.035-.445-.285-.409c.374-.319.659-.498.89-.516l-.017-.231-.677.054-.054-.676c1.353-2.812 1.993-4.449 1.958-4.912l.48.196c.303-.018.444-.196.427-.516l-.463.036-.018-.196a1.696 1.696 0 0 1 .178-.943c.73-.765 1.067-1.53.996-2.332.143-.018.214.054.232.214.622-.356 1.103-1.299 1.458-2.865 1.104-1.993 2.67-5.979 4.716-11.94 3.915-10.535 3.755-11.656 4.307-14.147l-.463.035c.036.321-.035.623-.178.908-.32-.125-.569-.195-.747-.178l-.018-.196c-.072-.908.302-1.993 1.156-3.274l.214-.018.392 1.53.462-.036c-.018-.106.107-.712.356-1.833-.018-.231-.196-.374-.552-.391l-.445.285c-.035-.32-.018-1.157.036-2.492l-.231.018c-.392-.392-.587-.712-.605-.979l-2.544.25c-.019-.178-.107-.445-.285-.783-.018-.232.552-.463 1.727-.694l.516.196.48-.285c.018.16.106.231.284.214l.48-.285c.018.16.107.231.285.213l.231-.017-.036-.517c-.355.036-1.299.036-2.793-.018l-.48.321-.018-.285c-11.94.979-18.721 1.53-20.34 1.69-.214.018-1.05 0-2.527-.035.019.195-.159.302-.516.338l-.517-.231-1.743.445c-.41.035-1.104.018-2.064-.089a1.78 1.78 0 0 1-.979.374c-.214.018 2.544-.143 5.106-.321-.267.214-.676.338-1.245.392-.392.036-.729-.018-1.015-.178-.392.178-1.654.462-3.771.89l-.517-.195-8.328 1.281c-.32-.16-.694-.213-1.121-.178-.445.036-1.192.196-2.225.48l-4.021 1.672.303.499c.195-.018.48-.125.818-.32l1.424.125-.178 1.334c-1.317.587-2.082 1.459-2.296 2.563-1.976.872-2.954 1.495-2.954 1.869l.018.231.303-.018.534-.285.623.748.089 1.032c.035.321-3.293 7.314-9.947 20.98-5.766 13.168-8.791 20.375-9.075 21.674-1.976.551-3.114 1.353-3.452 2.42.035.338.622.569 1.761.659l.054.516-.516.854.089 1.033c.053.533 1.495.942 4.324 1.227-.019-.177.071-.284.267-.302.054.641-.125 1.886-.534 3.737l.303-.019c1.175-1.602 1.727-2.705 1.673-3.31l.249-.018c.285-.019.588.302.943.996-.355.143-1.602 2.972-3.737 8.507l.303.497.303-.018c2.615-6.619 4.253-10.285 4.929-10.979 3.435-.304 9.378-.908 17.813-1.815l.534-.32c.018.178.125.267.32.249l.552-.053.534-.321c.018.178.124.267.319.249l6.389-.552c1.69-.142 2.491-.658 2.421-1.53-.019-.23.978-.498 2.989-.782.195-.019.48.035.872.16-.018-.16.996-.32 3.024-.499.054-1.067.392-1.637.997-1.69l-.054-.516c-.569.053-1.21.195-1.957.444-1.335-.071-2.189-.178-2.545-.303-.356.196-.623.303-.818.321l-4.449.143-.534.284c-.017-.16-.124-.231-.32-.214l-.249.018-.569.285c-.018-.16-.48-.285-1.405-.409l-.569.338-1.104.089-.019-.285c5.73-.622 8.561-1.405 8.488-2.33.374-.036.57.142.605.516l1.673-.427-.054-.517-13.72.373c.018.179-.071.285-.267.304l-1.673-.143c-.428.035-.783.16-1.067.374l-.623-.231c-1.726.142-3.007.355-3.861.623-1.175-.09-2.474-.072-3.915.053l-3.079.267-1.423-.16c-.071-.907 1.69-5.374 5.32-13.381 1.051-2.705 2.011-4.395 2.937-5.036.196-.018.48.053.872.213l2.188-.748 1.121.178c1.886-.16 4.075-.693 6.584-1.619.623-.053 1.086-.018 1.424.125l1.673-.392 4.982-.426c2.117-.178 4.413-.641 6.904-1.406l-.054-.516c-.925.089-1.405-.071-1.441-.445-.053-.694-.729-.979-2.028-.872l-.053-.516 1.369-.392 3.595-.303-.054-.516c-.142.017-.871 0-2.224-.054l-.054-.552 1.389-.125c.373-.036.533-.214.498-.569-1.869.054-2.812-.036-2.83-.285-13.025.64-19.556.765-19.592.355-.195.018-.463.143-.818.356l-.338-.534c3.452-7.332 5.48-11.032 6.067-11.086.018.285-.124.747-.445 1.37l.019.231.552-.054c1.37-3.274 2.526-4.964 3.487-5.036 4.093-.356-.569-.623 8.186-1.993.356.16.605.231.783.213 3.435-.694 8.222-1.423 14.36-2.17l-.035-.517-3.274.303-.036-.516c.392-.036.712-.16.979-.374l.018.285c.178-.018.427-.142.747-.356.569-.053.997 0 1.3.16 1.139-.302 2.063-.48 2.739-.552l2.047-.196c.498-.32.729-.605.712-.872l-.018-.231c-.517.053-1.104.018-1.797-.107-.018-.285.124-.48.462-.569l3.809-.356 1.743-.445c.018.196.107.267.25.267.178-.018.427-.143.747-.356.089.018.195.018.284.036-.23.48-.498 1.174-.765 2.082l-.499.036a2.173 2.173 0 0 0-.284-.908l-.249.018c-4.627 12.883-6.69 18.88-10.961 28.774-.783 2.527-1.442 3.933-2.012 4.235.019.285.196.427.499.392.106 1.245-.179 2.473-.872 3.683-1.976 5.694-3.293 8.809-3.969 9.378l.445 2.687c.018.285-.125.445-.428.48l-.462.036c-.071-.748-.339-1.104-.819-1.05l-.249.018c-.604.943-1.067 2.028-1.37 3.292l.462-.035c.624-.409.908-.89.854-1.442l.926-.088.533.195c-.426.676-.622 1.211-.587 1.619l.25.428-.605 1.423.018.231c.534-.053 1.121.124 1.744.498.427-.035.89-.23 1.406-.569.533-.053 2.526-.071 5.961-.071l1.726-.587c2.101-.019 2.438.036 4.253-.124l.748-.072.392-.267.018.232c1.904-.161 2.028-.036 3.523.142l.018.231-1.05.089.035.445c.32-.036.605-.125.837-.32.267-.019.427.124.444.444a6.284 6.284 0 0 0-1.441.32l-.462-.16c-.729.195-.57.249-1.068.284l-.729-.142c.018.124-.054.214-.178.214.018.284.178.427.444.408l.748-.07 3.896-.338 1.478-.32c.018.124.071.195.195.178l.712-.267 1.335-.107c1.032-.089 1.014-.16 3.256-.516-.018-.143.036-.196.143-.214l.019.195c3.647-.622 3.879-.658 4.466-.854l.053.107c.908-.213.392-.16.642-.338.018.16.071.23.16.23l.641-.053-.036-.48-1.299-.018-.018-.035c-.054.017-.09.017-.143.035h-.178v.035c-.872.179-.89.054-1.46.107l-3.256.178-.018-.231 1.814-.249.658-.054.374-.268.018.232c2.563-.214 3.471.427 15.322-2.1.64-.055.587-.587.996-1.691a1.097 1.097 0 0 1-.623-.142c-.979.373-1.495.195-3.381.498-.16.018-.284-.125-.338-.409l-.019-.196 1.815.054c.339-.035.996-.09 1.976-.641.001.164-.355.253-.142.236zm-87.621 1.405l-.837.071c-.035-.338.409-1.619 1.335-3.808l.552-.053c.018.516-.32 1.78-1.05 3.79zm1.014-4.057l-.018-.231c-.019-.284.16-.48.552-.569l.018.231c.017.338-.16.533-.552.569zm11.122 8.596l.018.23-1.388.125-.019-.231 1.389-.124zm-1.673-.144c.018.284-.409.605-1.335.925l-1.708-.124-.552.054-.053-.516 3.648-.339zm11.247-51.764l-.837.071-.018-.285c-.019-.285.142-.48.497-.57l.304-.018.569.231c.019.339-.142.535-.515.571zm12.723-2.491l.267-.018.036.516-.766.071c-.017-.285.125-.481.463-.569zm-3.203 1.121l-1.264-.143-.018-.231c1.654-.142 2.206-.32 3.221-.605.019.196.196.267.516.231l.036.516-.498.053c-.392.036-.729-.018-1.015-.178a2.172 2.172 0 0 1-.978.357zm1.584 4.608l-.018-.231 2.046-.196.018.231-2.046.196zm2.188-1.779l-.018-.285.996-.089.018.285-.996.089zm.232-3.488l-.267.018.23-.552 2.278-.213.018.285c-.586.053-1.351.213-2.259.462zm1.156 4.911l-.036-.516.997-.089c.339-.036.517.124.534.48l-1.495.125zm6.033-8.221l-1.281.356-.231.018c-.605.053-1.389.036-2.313-.054 1.653-.106 3.237-.231 3.825-.32zm-1.371 5.695l.019.231-1.762.161-.019-.231 1.762-.161zm2.883 1.369c-.018-.213-.355-.355-1.05-.427l-1.761.499-1.353.053c-.303-.214-.463-.356-.481-.462l1.566.089 3.523-.569 1.797.071.019.285c-.889.088-1.637.248-2.26.461zm18.134-4.679c.213.018.355.018.409.018a6.825 6.825 0 0 1 2.117-1.423c-.641 2.812-1.638 4.894-3.007 6.246l-.997-.605c.836-2.119 1.335-3.524 1.478-4.236zm-3.061 5.249l.248-.018c-.338.641-.64.978-.89.996l-.053-.676c.161 0 .392-.107.695-.302zm-1.975 4.715c.479-1.922.942-3.007 1.37-3.292l.018.231c-.249 1.78-.641 2.723-1.156 2.794l.089 1.121c-.428.605-.623 1.068-.605 1.424l-.249.018-.143-1.548c.284-.035.515-.285.676-.748zm-.766 2.563c.018.268-.16.89-.516 1.851l-.249.018-.054-.676c.339-.784.624-1.175.819-1.193zm-14.359 41.676l-.019-.195.463-.036.053.676c-.249.018-.427-.125-.497-.445zm20.516.534c-.018-.16-.089-.232-.249-.214l-1.157.106-.018-.231h.107l2.74-.231.018.231c-.8.036-1.281.16-1.441.339zm-1.37-.57c.106.054.054.107 0 .143-.054-.018-.124-.072 0-.143zm.143-3.204l-1.53.125-.019-.231 1.388-.124 1.211-.303c.018.142.089.196.249.178 1.441-.249 1.299-.32 1.992-.373.232-.019.374.124.392.408l-3.683.32zm5.356-.461c-.854-.09-.908-.16-1.513-.107l-.019-.195 1.37-.125.018.196c-.141.017.375.052.144.231zm.107-.249l-.018-.196.747-.07.018.195-.747.071zm1.654-.143l-.018-.196c.125-.018.303-.106.534-.285.374-.034.569.215.605.499l-1.121-.018zm2.118-.267l-.019-.231.908-.071.018.231-.907.071zm1.264-.107c-.019-.267.088-.427.32-.463l.302.392c-.018-.124.036-.195.143-.213l.231.427-.996-.143zm-13.436 5.802l-.035-.445-.143.018.035.444.143-.017zm31.266-8.098c.142-.089.213-.178-.125-.23-.16.178.179.23-.178.249l.018.16c.035-.036.125-.089.196-.143l-.196.16v.018l-.373.48.747-.267h.089l-.036-.445-.142.018zm1.299 1.016l-.143.017.036.445 1.05-.089c-.018-.285-.712-.373-.943-.373zm-1.62-.784l.018-.019v-.018c0 .001-.018.019-.018.037z"/><path fill="#F9DC3E" d="M305.594 73.208l.018.285.588-.053c-.019-.178.053-.462.178-.818l-.054-.516c-.25.018-.499.391-.73 1.102zm-5.623-13.523l-.054-.516-.836.071.053.516.837-.071zm-16.317 30.553c-.036-.48-1.53-2.349-4.484-5.641-.054-.604.961-1.512 3.042-2.704l5.944-5.179c1.334-1.69 2.117-4.431 2.349-8.239l-.071-.872c-.231-2.634-2.136-4.751-5.748-6.371-2.135-1.441-5.979-2.242-11.53-2.385-4.592.392-10.588 2.029-17.973 4.93-2.029 1.459-4.342 2.918-6.94 4.377l.036.445c.16-.018.409-.107.694-.303.302-.036.48.107.498.392l.445-.231.213-.018.018.196c.018.232-1.583 1.495-4.822 3.755l.249.462-.214.018-.534-.196c.018.16-.213.267-.658.303l.018.196.516.64c-.16.018-.408-.053-.747-.178-.747.071-1.477.463-2.207 1.21l.303-1.317c1.086-4.68 1.833-8.826 2.225-12.42l-.054-.231c-.747-.48-1.477-1.157-2.153-2.011.018-.552.018-.872 0-.943l-.054-.196-.212.054c-2.35 3.523-6.87 9.538-13.578 18.044-5.107 6.05-7.741 9.413-7.901 10.089-2.082 2.153-3.079 3.452-2.972 3.897-.552.356-.783.711-.694 1.103-.161.036-.267-.018-.302-.178-.89 1.441-2.207 2.366-3.969 2.776l-1.851.427c-.25.054-.374.231-.356.534l.054.231.693-.16.054.196-1.566.605-2.776.64-1.458.089c-.214.213 1.156-.018.623.106l-1.815.427c-1.103.249-1.708.16-1.815-.284l-.213.053c.036.196.054.338.018.463l-.106-.445-1.459.338c-.107-.676-2.083-3.132-5.908-7.367-.071-.818 1.282-2.011 4.04-3.559l7.794-6.851c1.744-2.242 2.776-5.837 3.114-10.784l-.107-1.157c-.302-3.488-2.829-6.299-7.581-8.47-2.812-1.904-7.865-2.918-15.161-3.079-6.05.516-13.951 2.669-23.667 6.424-2.669 1.939-5.712 3.861-9.128 5.766l.053.605c.231-.018.534-.142.908-.355.392-.036.605.142.64.498l.605-.338.303-.018.017.285c.018.285-2.1 1.94-6.388 4.965l.338.534-.303.018-.658-.231c.018.178-.285.302-.908.355l.036.32.711.783c-.231.018-.551-.053-.96-.196-1.388.125-2.741 1.121-4.075 3.007l.338.534c1.157-1.068 1.833-1.602 2.028-1.62l.071.872c-.196.018-.498.142-.908.356l.73 1.103a24.133 24.133 0 0 1 4.644-3.897c.836.213 1.282.48 1.299.765l.641-.053c4.591-3.399 9.128-5.854 13.63-7.367l.054.604c-.837 1.246-1.406 1.887-1.708 1.922.036.427.178.801.445 1.122.071.765-1.976 5.925-6.122 15.463-9.414 22.172-17.314 38.579-23.738 49.184.018.214.143.499.374.854 1.584-.374 2.58-.765 3.007-1.139l.338-.036.054.605.587-.053.605-.338c.018.177.213.267.623.23l.053.605c.053.587-.285 1.477-.996 2.704-.641.729-1.335 2.26-2.064 4.592l.018.284.587-.054c2.563-2.864 4.502-5.676 5.837-8.416 7.474-2.189 13.168-4.343 17.119-6.459 3.968-.339 6.993-1.39 9.058-3.115l-.036-.32-1.494.445-.338.036-.036-.321c2.918-.444 4.929-1.085 6.05-1.975 5.676-4.378 9.965-7.474 12.865-9.307 5.961-4.378 9.841-8.648 11.603-12.795.32-.071.641-.143.997-.231.836-.035 1.299-.053 1.423-.089-.035-.16.036-.249.196-.284 1.335-.143.694.088 1.548-.107l2.242-.516.374-.09-.178.107c.249.035.516.018.818-.054l.16.659-10.196 16.21-2.26 2.83-1.104 3.701.213-.053 1.103-.463-.355 1.441.107.427.302.374c-.143.035-.196.124-.16.284l.054.231.462-.106c.676-.588.961-1.121.854-1.602.729.124 1.21.178 1.459.106l.054.231c-.445.107-.677.463-.711 1.067l.053.231.25-.053c3.701-4.04 12.777-17.866 20.055-27.244-.231-1.014 3.559-2.42 11.389-4.235l.249-.053c.285 1.228-.32 4.199-1.814 8.916-.961 2.847-1.424 4.412-1.353 4.662-1.246 3.79-1.833 5.836-1.762 6.156l-2.776 9.094c-1.797 4.662-3.167 9.556-4.128 14.716.16-.035.41-.018.765.071l.392-.338c.035.16.142.213.302.178l-.16-.658 1.21-.035c.355-.089.658-.534.907-1.353-.053-1.229.196-1.887.747-2.029.747-2.918 1.21-4.377 1.371-4.431.694-2.9 1.21-4.555 1.548-4.965 1.05-3.772 1.815-5.712 2.313-5.837l.107.463-.765 1.976c-1.335 5.926-2.688 10.605-4.058 14.04l.392 1.708.249-.053c3.31-7.119 8.079-21.212 14.29-42.281.178-1.851 1.067-3.292 2.651-4.306l-.356-.374-.054-.196c.712-.16 1.21-.445 1.496-.836-.036-.161-.659-.392-1.869-.712l3.097-13.275c.676-.605 1.068-.925 1.192-.925l.054.676c-.16.018-.409.107-.694.303l.587.836a19.117 19.117 0 0 1 3.487-2.99c.641.178.961.392.997.605l.463-.036c3.523-2.58 6.975-4.431 10.374-5.552l.035.444c-.622.943-1.05 1.424-1.28 1.442.035.32.124.605.284.854.053.587-1.477 4.502-4.608 11.762-7.154 16.816-13.151 29.255-18.027 37.334.018.16.125.373.321.658 1.192-.285 1.957-.587 2.26-.872l.213-.018.036.444.498-.035.445-.231c.018.125.178.178.48.16l.036.48c.036.427-.214 1.104-.765 2.028-.516.553-1.05 1.709-1.62 3.471l.018.231.463-.036c1.939-2.171 3.416-4.307 4.431-6.406 5.676-1.673 10.001-3.292 12.99-4.894 3.043-.267 5.338-1.05 6.905-2.366l-.018-.231-1.157.338-.249.018-.018-.231c2.206-.32 3.755-.818 4.591-1.477 4.307-3.31 7.563-5.677 9.77-7.065 6.86-4.989 10.064-9.794 9.673-14.403zm-1.175.303l.16 1.797c-.214.445-.445.676-.659.694l-.267-3.061c.498.178.748.356.766.57zM147.737 76.056l-.302.018-.054-.552 1.228-.107.018.285c-.196.018-.499.125-.89.356zm-5.997 59.986c-.711-.32-1.353-.444-1.904-.392l-.071-.872c-.036-.338.16-.569.587-.658.391-.035.622.249.658.819 1.032-1.264 1.602-1.904 1.708-1.922l.659.267c-.214 1.779-.765 2.687-1.637 2.758zm64.079-67.033c-.303.036-.908-.907-1.779-2.776l-.054-.551c.569-.053 1.157.872 1.779 2.776l.054.551zm-.854-6.637l-.25.587-8.702-3.63c5.802.195 8.792 1.21 8.952 3.043zm-36.746 31.55l-1.228.107-.053-.552 1.228-.107.053.552zm-.998-18.952l.303-.018.072.872c-.285.018-.658.445-1.122 1.263l-.053-.605c.551-.657.837-1.156.8-1.512zm-2.58 6.086l.107 1.157-.302.018-.107-1.157.302-.018zm-1.351 2.172l.587-.054c-.054.961-.32 1.477-.801 1.512l-.303.018c.374-.641.551-1.139.517-1.476zm-1.015 3.024l.338-.036.018.285-.551.925-.587.053-.018-.285c.587-.052.854-.354.8-.942zm-.996 2.723l-.178 1.459-.303.018-.125-1.441.606-.036zm-9.983 28.382c-.392 1.993-.818 3.008-1.264 3.043l-.018-.284c-.106-.979.321-1.904 1.282-2.759zm-1.833 3.969l.018.284c.036.392-.142.623-.533.641l-.018-.285c-.037-.338.141-.551.533-.64zm-.534 8.238l.925-.088.036.32c-.231.017-.534.142-.908.355l-.587.053c-.035-.302.16-.532.534-.64zm26.336-8.131c-5.196 2.563-8.256 4.307-9.164 5.214-5.623 1.957-8.417 3.167-8.364 3.647-5 1.976-8.292 3.435-9.875 4.342-.374.036-.908-.106-1.62-.427-.089-1.014.374-1.833 1.353-2.491a5.257 5.257 0 0 1 2.509.392c.925-.48 2.544-1.014 4.84-1.584l-.053-.604-1.851.16c.231-.32 2.01-1.156 5.356-2.509l.925-.089.018.284c-1.583.143-2.455.604-2.651 1.441.035.374.249.534.64.498 1.192-.747 1.779-1.192 1.762-1.316 2.26-.428 8.506-3.701 18.738-9.805l.053.551c.018.267-.854 1.014-2.616 2.296zm-15.694 5.16c1.495-.124 2.776-.729 3.843-1.779.427-.035.659.125.676.498-.729.072-2.135.677-4.181 1.852l-.303.018-.035-.589zm25.321-19.449l-7.848 6.228c-5.837 3.826-8.968 5.748-9.432 5.784-9.289 5.106-15.072 7.759-17.314 7.954l-.338.035c.284-1.05 4.413-9.502 12.42-25.411 3.523-.303 9.075-1.939 16.638-4.929l1.851-.16c3.826-.338 6.691.409 8.578 2.188l.106 1.157c-1.404 4.075-2.971 6.459-4.661 7.154zm-15.339-8.631l1.263-.107.018.285-1.263.107-.018-.285zm17.742-3.008l.925-.089c.854.41 1.299.765 1.334 1.086l.018.285c-.819.071-1.584-.356-2.277-1.282zm2.508-14.289c-.818.979-3.061 2.652-6.726 5-1.21.107-5.713 1.851-13.506 5.268a2.463 2.463 0 0 0-1.246-.213l-.053-.552c-.089-1.121.409-2.526 1.512-4.235.605-3.203 1.264-5.036 1.993-5.481l6.496-14.609c-.071-.908 1.316-1.602 4.164-2.083l.926-.089.071.837c2.794-.427 4.538-.676 5.214-.73 5.161-.445 7.848.605 8.061 3.114l.587-.054-.125-1.477.641-.054c1.512.836 2.331 1.851 2.438 3.043.071.819-.374 1.833-1.316 3.043-.392.035-.623-.25-.658-.819l-.641.054-.142 1.779c-2.616 3.915-4.52 5.926-5.694 6.033-1.07 1.478-1.728 2.208-1.996 2.225zm3.987 10.233c-.534-.356-.961-.516-1.281-.499l-.071-.872.587-.054 1.299.766c.053.409-.126.623-.534.659zm4.128 4.893c.569.231.907.48.978.712l-.284.071.018.018a.626.626 0 0 0-.178.036l-.427.338-.107-1.175zm.391 2.456l-.053-.231.747-.178.054.232-.748.177zm1.798 2.011c.765-.125 1.139-.178 2.563-.499l.053.231-2.704.624c.034-.125.07-.25.088-.356zm2.633 1.121c-1.139.106-.89-.036-2.705.374l-.053-.232 2.278-.729 1.085-.248.107.427c-.498.105-.142.105-.712.408zm2.403-.57c-.267.07-.48-.054-.605-.355l.694-.161c.303-.07.498.054.569.356l-.658.16zm6.513-7.011l-.054-.231 1.122-.267.107.427-1.175.071zm6.957 42.672c.071-.32.089-.551.054-.712l.249-.053c.303-.071.48.035.552.32l.053.23-.908.215zm4.876-40.839l-.499-.089c-.8.32-1.477.552-2.028.676l-.463.107c-.267.071-.48-.036-.587-.32l3.256-.748 1.068-.499.356.41c-.516.107-.889.267-1.103.463zm2.509-.801l-.054-.231c.161-.036.374-.16.605-.392l2.313-.534.053.231c-1.226.303-2.205.606-2.917.926zm.356-4.68c-.16.036-.374.178-.641.392-.036-.16-.356-.16-.961-.018-.107-.445 1.602-1.067 5.142-1.886l.499-.107.106.427c-2.49.729-3.879 1.138-4.145 1.192zm6.228-6.726c-.249 2.829-1.245 4.431-3.007 4.84l-.053-.231-1.566.605-.694.16a1.747 1.747 0 0 1-.961-.018l-.142-.623c-.053-.231 2.206-3.363 6.797-9.378l.534.089c.195.819-.107 2.331-.908 4.556zm11.015-9.432l-.214.018-.036-.445.926-.089.018.231c-.16.036-.391.125-.694.285zm-4.538 45.573c-.533-.249-1.014-.356-1.423-.32l-.054-.677c-.017-.231.125-.391.427-.48.303-.035.48.178.517.641.765-.979 1.191-1.477 1.281-1.477l.48.195c-.178 1.353-.587 2.065-1.228 2.118zm48.651-50.893c-.231.018-.677-.694-1.37-2.136l-.035-.444c.444-.036.907.658 1.37 2.082l.035.498zm-.64-5.09l-.214.462-6.584-2.758c4.395.143 6.674.909 6.798 2.296zm-27.92 23.97l-.925.089-.036-.445.926-.089.035.445zm-.766-14.396l.249-.018.055.676c-.232.018-.517.338-.854.961l-.036-.445c.408-.516.605-.907.586-1.174zm-1.939 4.626l.071.872-.249.018-.071-.872.249-.018zm-1.05 1.655l.462-.035c-.053.747-.249 1.139-.586 1.174l-.25.018c.267-.498.392-.89.374-1.157zm-.747 2.279l.214-.018.018.231-.409.712-.463.036-.018-.231c.48-.037.694-.286.658-.73zm-.747 2.064l-.161 1.139-.213.018-.089-1.121.463-.036zm-7.599 21.584c-.302 1.495-.623 2.261-.961 2.296l-.017-.195c-.054-.748.266-1.46.978-2.101zm-1.406 3.008l.018.195c.036.32-.106.499-.427.516l-.018-.23c-.018-.232.125-.392.427-.481zm-.392 6.264l.712-.053.018.23c-.16.019-.409.106-.694.268l-.462.035c-.018-.249.124-.408.426-.48zm19.985-6.175c-3.915 1.94-6.246 3.257-6.976 3.934-4.271 1.494-6.389 2.419-6.353 2.793-3.791 1.513-6.282 2.599-7.456 3.292-.285.018-.694-.089-1.229-.338-.071-.765.285-1.388 1.033-1.851.676-.053 1.316.035 1.904.284.711-.355 1.939-.747 3.684-1.192l-.036-.444-1.441.125c.178-.25 1.548-.891 4.093-1.922l.711-.054.018.195c-1.21.106-1.886.463-2.029 1.104.018.285.196.427.498.392.891-.587 1.317-.926 1.317-1.032 1.708-.303 6.442-2.794 14.218-7.456l.035.445c.001.177-.657.746-1.991 1.725zm-11.923 3.915c1.157-.106 2.135-.552 2.954-1.335.303-.018.48.107.499.392-.535.054-1.584.499-3.168 1.354l-.249.017-.036-.428zm19.255-14.787l-5.927 4.769c-4.431 2.9-6.833 4.359-7.206 4.396-7.047 3.879-11.425 5.89-13.151 6.033l-.249.017c.214-.8 3.364-7.225 9.449-19.29 2.651-.231 6.852-1.495 12.616-3.772l1.441-.125c2.901-.249 5.072.32 6.495 1.69l.071.872c-1.084 3.06-2.259 4.857-3.539 5.41zm-11.639-6.549l.926-.089.018.231-.926.089-.018-.231zm13.471-2.296l.712-.053c.658.32.996.604 1.014.836l.019.196c-.624.053-1.211-.267-1.745-.979zm1.868-10.837c-.622.748-2.313 2.029-5.071 3.809-.926.089-4.342 1.406-10.25 3.968a2.342 2.342 0 0 0-.942-.125l-.036-.445c-.071-.854.303-1.922 1.121-3.221.463-2.456.979-3.826 1.513-4.146l4.965-11.104c-.054-.658.996-1.192 3.132-1.601l.712-.053.053.676c2.1-.338 3.417-.534 3.951-.587 3.914-.338 5.961.445 6.121 2.367l.462-.036-.088-1.068.462-.035c1.139.623 1.744 1.37 1.815 2.26.053.641-.268 1.424-.943 2.332-.303.035-.48-.178-.517-.641l-.462.036-.143 1.335c-1.976 3.007-3.417 4.555-4.324 4.626-.802 1.084-1.3 1.635-1.531 1.653zm2.082 7.403l-.053-.676.462-.035.996.604c.019.285-.124.445-.427.48-.426-.266-.747-.391-.978-.373zm-82.835 43.224l-.463.106-.392.338c.072.284.25.392.552.32.302-.071.427-.249.356-.533l-.053-.231zm-1.761-3.506l.053.23c.303-.07.428-.248.356-.533l-.054-.231c-.284.071-.409.249-.355.534zm12.598-23.667l.338-.214c-.072 0-.125-.018-.178-.035-.124.035-.177.124-.16.249zm-.071-6.14l.533-.125-.106-.463-.534.125.107.463zm125.756 17.973l-1.21-.143-.214.463.018.231 7.207-.604-.036-.445-5.765.498zm6.584-.552l.035.445h.07l-.034-.445h-.071zm30.233-3.95l.036.445.783.142-.036-.444-.783-.143zm-1.103.089c-5.409 1.21-6.086.997-7.225 1.085l.035.445.498-.035.268-.019-.071-.053.587-.231c5.356-.587 5.979-.374 5.926-.979l-.018-.213zm-32.475-7.865l-.48-.16c-.392 1.05-.587 1.673-.569 1.851l.018.195c.372-.017.71-.658 1.031-1.886zm-6.513-3.506l-.019-.231-.248.018-.445.285.249.427c.338-.036.498-.196.463-.499zm14.146 14.627l-.035-.444-.143.019.035.444.143-.019zm29.362-6.619l.338-.035c.195-.019.285-.178.267-.463l-.195-.428c-1.228.107-1.798.161-2.793.713l-.019-.231-1.478.142c-.034-.444-.159-.676-.355-.657l-.765.07c-.89.071-1.317.036-1.763.374-.017-.16-.07-.231-.159-.231l-.854.071-.498.284c-.019-.16-.071-.231-.16-.231l-.303.268-.018-.231-1.192-.089-.285.018.036.445.604.159.57-.035c.195.125.409.16.658.143l.498-.249.018.195c-2.793.694-2.775.57-4.697.89-.214-.142-.374-.213-.48-.195l-.036.035c-.213-.018-.338-.159-.355-.392l.997-.125c.07 0 .124.072.675.179.802-.392.837-.552 1.264-.587l-.035-.445c-2.74.534-1.638.178-5.071.48l-.16.018-.036-.444c4.413-.534 2.937-.231 4.449-.658.018.16.071.23.16.23.178-.178.373-.267.604-.303l.303-.018c1.549-.124 2.064.179 5.125-.676l.018.196.498-.25.463-.035c-.035-.445.642-.517.872-.533l-.035-.481c-5.374 1.086-6.78.783-8.275 1.211l-.018-.196c-1.405.249-1.459.143-1.815.16-.106.018-.267.106-.444.284-.018-.159-.071-.23-.178-.23-.054 0-.071.018-.089.018l-4.556.747c-.018-.124-.071-.196-.179-.178-2.366.498-1.726.588-4.893.872-.143.018-.338.089-.587.248-.019-.124-.09-.194-.25-.177l-1.939.16-1.299.32c-.018-.125-.089-.196-.249-.179-.729.196-1.37.32-1.887.356h-.035c-.32.035.16-.09-.089-.195l-.392.23c-.569.054-.267-.035-2.225-.018-3.435.428-3.061.48-3.435.499l-1.281-.09c.019.125-.053.214-.195.214-1.459-.195-2.206-.427-2.225-.694.196-1.388.534-2.1 1.015-2.135l.249-.018-.214.462.25-.018c.462-.25.676-.48.657-.694l-.035-.479-.463.035-.035-.445a1.602 1.602 0 0 1 .142-.89l1.051-1.69.035.444.499-.035-.036-.445-.284-.409c.373-.32.657-.498.89-.516l-.019-.231-.676.054-.054-.677c1.353-2.811 1.993-4.448 1.958-4.911l.479.196c.304-.018.445-.196.428-.517l-.463.036-.018-.195a1.694 1.694 0 0 1 .178-.943c.729-.765 1.068-1.53.996-2.331.144-.018.214.054.231.213.624-.355 1.104-1.299 1.46-2.865 1.103-1.993 2.669-5.979 4.715-11.94 3.916-10.534 3.755-11.655 4.307-14.147l-.463.036c.036.32-.035.623-.178.908-.32-.125-.569-.196-.747-.178l-.018-.195c-.071-.908.302-1.993 1.156-3.274l.214-.018.392 1.53.462-.035c-.018-.107.107-.712.356-1.833-.018-.231-.196-.374-.552-.392l-.444.285c-.036-.32-.019-1.157.035-2.491l-.231.018c-.392-.392-.587-.712-.605-.979l-2.545.249c-.018-.178-.105-.445-.284-.783-.018-.231.552-.463 1.727-.694l.516.196.48-.285c.018.16.106.231.285.213l.48-.285c.018.161.106.231.284.214l.231-.018-.035-.516c-.356.035-1.299.035-2.794-.018l-.48.321-.019-.285c-11.94.978-18.72 1.53-20.339 1.69-.214.018-1.05 0-2.526-.036.018.196-.161.303-.517.338l-.517-.231-1.743.445c-.409.035-1.104.017-2.064-.089a1.78 1.78 0 0 1-.979.374c-.214.017 2.545-.143 5.107-.321-.268.214-.677.338-1.246.392-.392.036-.729-.018-1.015-.178-.392.178-1.654.462-3.772.889l-.516-.195-8.328 1.281c-.32-.16-.693-.214-1.121-.178-.444.036-1.192.196-2.225.48l-4.021 1.673.303.498c.195-.018.48-.125.818-.32l1.424.125-.178 1.335c-1.316.587-2.082 1.459-2.296 2.562-1.975.872-2.954 1.495-2.954 1.869l.019.23.302-.017.534-.285.623.747.089 1.032c.035.32-3.292 7.313-9.947 20.98-5.766 13.168-8.791 20.375-9.076 21.674-1.975.552-3.113 1.353-3.452 2.421.036.337.624.569 1.763.658l.053.516-.516.854.089 1.033c.053.533 1.494.943 4.324 1.228-.019-.178.071-.284.267-.303.054.641-.125 1.887-.534 3.737l.303-.019c1.175-1.602 1.727-2.704 1.673-3.309l.249-.019c.285-.018.587.303.943.996-.356.143-1.602 2.972-3.737 8.506l.303.499.303-.019c2.616-6.619 4.253-10.285 4.929-10.979 3.435-.304 9.378-.907 17.813-1.815l.534-.32c.018.178.125.267.32.249l.552-.054.534-.32c.018.179.125.268.32.249l6.388-.551c1.69-.143 2.491-.658 2.42-1.53-.018-.232.979-.499 2.99-.783.195-.019.48.035.872.159-.019-.159.996-.319 3.025-.497.053-1.067.391-1.638.996-1.691l-.054-.516c-.569.054-1.21.195-1.957.445-1.335-.071-2.188-.179-2.545-.304-.356.196-.623.304-.818.321l-4.449.142-.533.285c-.019-.16-.125-.231-.32-.213l-.249.017-.57.285c-.018-.16-.48-.285-1.405-.409l-.569.338-1.103.089-.019-.284c5.729-.623 8.559-1.406 8.487-2.331.375-.036.57.143.605.516l1.673-.427-.053-.517-13.721.374c.019.178-.07.284-.267.303l-1.673-.143c-.427.036-.783.16-1.067.374l-.623-.231c-1.727.143-3.008.355-3.861.623-1.175-.089-2.474-.071-3.915.053l-3.078.268-1.424-.16c-.071-.908 1.69-5.374 5.32-13.382 1.051-2.705 2.012-4.396 2.937-5.036.195-.018.48.053.872.213l2.188-.747 1.121.178c1.887-.16 4.075-.694 6.584-1.62.623-.053 1.085-.017 1.424.125l1.673-.392 4.982-.427c2.117-.178 4.413-.641 6.904-1.406l-.054-.516c-.925.089-1.405-.072-1.44-.445-.054-.693-.73-.979-2.029-.872l-.054-.516 1.371-.392 3.594-.302-.053-.516c-.143.018-.872 0-2.225-.053l-.054-.552 1.388-.125c.374-.036.534-.214.499-.569-1.868.053-2.812-.036-2.829-.285-13.026.641-19.557.766-19.592.356-.196.018-.464.143-.819.356l-.338-.534c3.452-7.332 5.48-11.033 6.067-11.086.019.285-.124.748-.427 1.371l.018.231.553-.053c1.369-3.274 2.525-4.965 3.486-5.036 4.093-.356-.569-.623 8.187-1.994.355.161.604.232.782.214 3.435-.694 8.222-1.423 14.36-2.171l-.035-.516-3.274.303-.035-.517c.392-.035.712-.16.979-.374l.018.285c.178-.018.427-.142.747-.355.57-.054.997 0 1.3.16 1.139-.302 2.064-.48 2.74-.551l2.046-.196c.499-.32.73-.605.712-.872l-.018-.231c-.516.054-1.103.018-1.797-.106-.018-.285.124-.48.462-.57l3.809-.355 1.744-.445c.018.196.106.267.249.267.178-.018.427-.142.747-.356.09.018.195.018.285.036-.231.48-.499 1.175-.766 2.082l-.498.036a2.202 2.202 0 0 0-.284-.908l-.25.018c-4.626 12.883-6.69 18.88-10.961 28.774-.783 2.527-1.442 3.933-2.012 4.235.019.285.196.427.499.392.106 1.246-.178 2.474-.872 3.683-1.976 5.695-3.293 8.809-3.969 9.378l.445 2.688c.018.284-.125.444-.427.48l-.463.035c-.071-.747-.339-1.103-.818-1.05l-.25.018c-.604.943-1.067 2.028-1.369 3.292l.463-.035c.622-.409.906-.89.854-1.441l.925-.089.534.195c-.427.677-.623 1.211-.587 1.619l.249.428-.605 1.424.018.231c.535-.054 1.121.124 1.744.497.427-.034.891-.23 1.406-.569.534-.053 2.526-.071 5.961-.071l1.727-.587c2.1-.018 2.438.036 4.253-.125l.747-.071.392-.266.018.231c1.904-.161 2.028-.036 3.523.142l.018.231-1.05.089.036.445c.319-.036.604-.125.836-.321.267-.017.427.125.444.446-.427.034-.907.142-1.44.319l-.463-.16c-.729.196-.569.249-1.068.285l-.729-.143c.019.124-.053.214-.178.214.018.284.178.427.445.408l.747-.07 3.897-.338 1.477-.32c.018.124.071.196.195.178l.712-.267 1.335-.106c1.032-.09 1.014-.161 3.257-.517-.018-.143.035-.196.142-.214l.019.195c3.647-.622 3.879-.658 4.466-.854l.054.106c.907-.214.392-.16.641-.338.018.16.071.231.16.231l.641-.054-.036-.479-1.298-.019-.019-.036c-.054.019-.089.019-.143.036h-.178v.036c-.872.178-.89.053-1.459.106l-3.257.178-.018-.231 1.815-.249.658-.054.373-.267.019.231c2.563-.214 3.47.427 15.321-2.1.641-.054.587-.587.996-1.691a1.085 1.085 0 0 1-.622-.142c-.979.374-1.496.195-3.382.499-.16.017-.284-.125-.338-.41l-.019-.195 1.815.053c.339-.035.997-.089 1.976-.641-.001.16-.375.249-.161.232zm-87.622 1.406l-.836.071c-.035-.339.41-1.62 1.335-3.809l.552-.053c.017.517-.321 1.78-1.051 3.791zm1.014-4.058l-.018-.23c-.018-.285.16-.481.552-.57l.018.231c.018.339-.16.534-.552.569zm11.122 8.595l.018.231-1.388.125-.018-.231 1.388-.125zm-1.673-.141c.018.284-.409.604-1.334.925l-1.709-.124-.552.053-.053-.517 3.648-.337zm11.247-51.766l-.836.071-.018-.285c-.019-.285.142-.48.498-.569l.303-.018.569.231c.018.338-.142.534-.516.57zm12.723-2.491l.267-.018.036.516-.766.071c-.017-.285.124-.48.463-.569zm-3.203 1.121l-1.264-.143-.018-.231c1.655-.143 2.206-.32 3.221-.605.018.195.195.267.516.231l.036.516-.498.054c-.392.035-.729-.018-1.015-.178a2.17 2.17 0 0 1-.978.356zm1.584 4.609l-.019-.231 2.047-.195.018.231-2.046.195zm2.189-1.78l-.018-.285.997-.089.017.285-.996.089zm.231-3.487l-.268.018.232-.552 2.277-.213.018.285c-.586.052-1.352.212-2.259.462zm1.156 4.911l-.035-.516.996-.089c.339-.036.517.125.534.48l-1.495.125zm6.032-8.221l-1.28.356-.231.017c-.605.054-1.389.036-2.313-.053 1.654-.107 3.238-.232 3.824-.32zm-1.37 5.694l.019.231-1.762.16-.019-.231 1.762-.16zm2.884 1.37c-.019-.213-.356-.355-1.05-.427l-1.763.498-1.353.054c-.303-.214-.462-.356-.48-.463l1.566.089 3.523-.569 1.798.071.017.285c-.889.088-1.636.249-2.258.462zm18.133-4.68c.213.018.355.018.409.018a6.828 6.828 0 0 1 2.117-1.424c-.641 2.812-1.637 4.894-3.008 6.246l-.996-.605c.837-2.118 1.335-3.523 1.478-4.235zm-3.062 5.249l.249-.018c-.338.641-.641.979-.89.997l-.054-.676c.162 0 .393-.107.695-.303zm-1.974 4.716c.48-1.922.942-3.007 1.37-3.292l.018.231c-.249 1.779-.641 2.723-1.156 2.794l.088 1.121c-.426.605-.622 1.068-.604 1.423l-.249.018-.142-1.548c.283-.035.515-.284.675-.747zm-.766 2.563c.018.267-.16.89-.516 1.851l-.249.018-.054-.676c.34-.784.624-1.176.819-1.193zm-14.36 41.675l-.018-.196.462-.034.054.676c-.249.017-.427-.126-.498-.446zm20.517.534c-.019-.161-.089-.232-.249-.214l-1.157.106-.018-.231h.107l2.74-.23.018.23c-.8.036-1.28.161-1.441.339zm-1.37-.569c.107.053.054.106 0 .142-.053-.018-.125-.071 0-.142zm.143-3.203l-1.531.124-.018-.231 1.389-.124 1.21-.303c.018.143.089.196.249.178 1.441-.249 1.299-.32 1.993-.373.23-.019.373.124.392.409l-3.684.32zm5.356-.463c-.854-.089-.908-.16-1.513-.106l-.019-.196 1.371-.124.018.195c-.142.017.374.053.143.231zm.107-.249l-.019-.196.748-.071.018.196-.747.071zm1.655-.143l-.019-.196c.125-.018.303-.106.534-.284.373-.035.569.214.605.499l-1.12-.019zm2.117-.266l-.018-.231.907-.071.018.231-.907.071zm1.263-.107c-.017-.268.089-.428.32-.463l.304.392c-.019-.125.035-.196.142-.214l.231.428-.997-.143zm17.511-2.064l.018-.019v-.018c-.001.001-.018.018-.018.037zm.32-.232c.143-.089.214-.179-.125-.231-.16.178.178.231-.178.249l.018.16c.036-.036.125-.089.196-.143l-.196.16v.018l-.373.48.747-.267h.089l-.035-.444-.143.018zm1.299 1.015l-.143.018.035.444 1.051-.089c-.017-.284-.712-.373-.943-.373z"/></svg>