<svg xmlns="http://www.w3.org/2000/svg" width="256" height="256"><path fill="#563D7C" d="M47.5 187.74c0 11.467 9.294 20.76 20.759 20.76H187.74c11.467 0 20.76-9.294 20.76-20.76V68.259c0-11.466-9.294-20.759-20.76-20.759H68.259C56.793 47.5 47.5 56.794 47.5 68.259V187.74z"/><path fill="#FFF" d="M114.263 118.716v-22.8h20.07c1.911 0 3.754.159 5.529.478 1.774.319 3.345.888 4.71 1.707s2.457 1.957 3.276 3.413c.819 1.456 1.229 3.322 1.229 5.598 0 4.096-1.229 7.054-3.686 8.875-2.458 1.82-5.598 2.73-9.421 2.73h-21.707v-.001zM92.828 79.26v97.48h47.239c4.368 0 8.623-.546 12.765-1.639 4.142-1.092 7.827-2.776 11.059-5.051 3.231-2.276 5.803-5.211 7.714-8.806 1.911-3.596 2.867-7.852 2.867-12.767 0-6.098-1.479-11.309-4.437-15.632-2.959-4.323-7.441-7.35-13.448-9.079 4.368-2.093 7.668-4.778 9.898-8.055 2.229-3.277 3.345-7.373 3.345-12.287 0-4.551-.751-8.374-2.253-11.469-1.502-3.094-3.618-5.575-6.349-7.44s-6.008-3.208-9.83-4.028c-3.822-.819-8.056-1.229-12.697-1.229H92.828v.002zm21.435 80.824v-26.759h23.346c4.642 0 8.373 1.069 11.195 3.208 2.821 2.139 4.232 5.711 4.232 10.717 0 2.549-.433 4.643-1.297 6.281-.865 1.638-2.025 2.935-3.481 3.891-1.457.955-3.141 1.638-5.052 2.048a28.645 28.645 0 0 1-6.008.614h-22.935z"/></svg>