<svg xmlns="http://www.w3.org/2000/svg" width="256" height="257"><path fill="#EF3F36" d="M127.915 49.704s46.143-2.071 70.606 44.31h-74.532s-14.065-.453-26.081 16.611c-3.452 7.162-7.162 14.54-2.999 29.08-5.997-10.161-31.841-55.161-31.841-55.161s18.229-33.006 64.847-34.84z"/><path fill="#FCD900" d="M196.127 167.445s-21.293 41.01-73.67 38.982c6.472-11.196 37.277-64.545 37.277-64.545s7.442-11.951-1.338-30.892c-4.466-6.58-9.017-13.461-23.687-17.128 11.8-.108 63.682 0 63.682 0s19.437 32.295-2.264 73.583z"/><path fill="#61BC5B" d="M60.026 167.77s-24.873-38.938 3.085-83.291c6.45 11.196 37.255 64.544 37.255 64.544s6.645 12.426 27.419 14.281c7.917-.582 16.158-1.078 26.685-11.929-5.803 10.268-31.841 55.139-31.841 55.139s-37.708.69-62.603-38.744z"/><path fill="#5AB055" d="M122.436 206.815l10.484-43.749s11.52-.906 21.184-11.497c-5.998 10.548-31.668 55.246-31.668 55.246z"/><path fill="#FFF" d="M92.795 128.745c0-19.286 15.64-34.925 34.926-34.925s34.926 15.64 34.926 34.925c0 19.286-15.64 34.926-34.926 34.926-19.286-.022-34.926-15.64-34.926-34.926z"/><linearGradient id="a" gradientUnits="userSpaceOnUse" x1="-69.215" y1="325.731" x2="-69.215" y2="325.141" gradientTransform="matrix(94.9348 0 0 -94.9348 6698.714 31023.297)"><stop offset="0" stop-color="#86bbe5"/><stop offset="1" stop-color="#1072ba"/></linearGradient><path fill="url(#a)" d="M98.641 128.745c0-16.05 13.008-29.08 29.08-29.08 16.05 0 29.08 13.008 29.08 29.08 0 16.05-13.009 29.079-29.08 29.079-16.05 0-29.08-13.029-29.08-29.079z"/><path fill="#EACA05" d="M198.37 93.884l-43.166 12.663s-6.515-9.557-20.516-12.663c12.146-.064 63.682 0 63.682 0z"/><path fill="#DF3A32" d="M94.068 138.107c-6.062-10.506-31-53.564-31-53.564l31.97 31.625s-3.279 6.752-2.049 16.417l1.079 5.522z"/></svg>