<?xml version="1.0" encoding="UTF-8" standalone="no"?>
<!DOCTYPE svg PUBLIC "-//W3C//DTD SVG 1.1//EN" "http://www.w3.org/Graphics/SVG/1.1/DTD/svg11.dtd">
<svg width="100%" height="100%" viewBox="0 0 259 259" version="1.1" xmlns="http://www.w3.org/2000/svg" xmlns:xlink="http://www.w3.org/1999/xlink" xml:space="preserve" xmlns:serif="http://www.serif.com/" style="fill-rule:evenodd;clip-rule:evenodd;stroke-linejoin:round;stroke-miterlimit:2;">
    <g transform="matrix(0.989261,0,0,0.989261,1.39071,1.8794)">
        <circle cx="128.15" cy="129.008" r="22.414" style="fill:rgb(52,52,52);"/>
        <path d="M36.605,105.244C36.605,105.514 36.335,106.054 36.335,106.324C36.335,108.754 38.225,110.915 40.926,110.915L79.002,110.915C80.893,110.915 82.243,109.835 83.053,108.214C90.884,90.931 108.167,79.319 127.88,79.319C155.154,79.319 177.298,101.463 177.298,128.737C177.298,156.011 155.154,178.154 127.88,178.154C107.897,178.154 90.884,166.273 83.053,149.53C82.243,147.64 80.893,146.559 79.002,146.559L40.926,146.559C38.495,146.559 36.335,148.45 36.335,151.15C36.335,151.421 36.335,151.96 36.605,152.23C47.137,193.277 84.133,223.521 128.15,223.521C180.268,223.521 222.665,181.125 222.665,129.006C222.665,76.887 180.268,34.491 128.15,34.491C84.133,34.493 47.137,64.738 36.605,105.244Z" style="fill:rgb(52,52,52);fill-rule:nonzero;"/>
    </g>
</svg>
