<?xml version="1.0" encoding="utf-8"?>
<!-- Generator: Adobe Illustrator 16.0.3, SVG Export Plug-In . SVG Version: 6.00 Build 0)  -->
<!DOCTYPE svg PUBLIC "-//W3C//DTD SVG 1.1//EN" "http://www.w3.org/Graphics/SVG/1.1/DTD/svg11.dtd">
<svg version="1.1" id="Ebene_1" xmlns="http://www.w3.org/2000/svg" xmlns:xlink="http://www.w3.org/1999/xlink" x="0px" y="0px"
	 width="259px" height="259px" viewBox="-1.5 0 259 259" enable-background="new -1.5 0 259 259" xml:space="preserve">
<g>
	<circle fill="#343434" cx="126.65" cy="129.008" r="22.414"/>
	<path fill="#343434" d="M35.105,105.244c0,0.27-0.27,0.81-0.27,1.08c0,2.43,1.89,4.591,4.591,4.591h38.076
		c1.891,0,3.241-1.08,4.051-2.701c7.831-17.283,25.114-28.895,44.827-28.895c27.274,0,49.418,22.144,49.418,49.418
		c0,27.274-22.144,49.417-49.418,49.417c-19.983,0-36.996-11.881-44.827-28.624c-0.81-1.89-2.16-2.971-4.051-2.971H39.426
		c-2.431,0-4.591,1.891-4.591,4.591c0,0.271,0,0.81,0.27,1.08c10.532,41.047,47.528,71.291,91.545,71.291
		c52.118,0,94.515-42.396,94.515-94.515s-42.397-94.515-94.515-94.515C82.633,34.493,45.637,64.738,35.105,105.244L35.105,105.244z"
		/>
</g>
</svg>
