<?xml version="1.0" encoding="UTF-8" standalone="no"?>
<!DOCTYPE svg PUBLIC "-//W3C//DTD SVG 1.1//EN" "http://www.w3.org/Graphics/SVG/1.1/DTD/svg11.dtd">
<svg width="100%" height="100%" viewBox="0 0 256 256" version="1.1" xmlns="http://www.w3.org/2000/svg" xmlns:xlink="http://www.w3.org/1999/xlink" xml:space="preserve" xmlns:serif="http://www.serif.com/" style="fill-rule:evenodd;clip-rule:evenodd;stroke-linejoin:round;stroke-miterlimit:2;">
    <g transform="matrix(0.958085,0,0,0.958085,5.36463,5.80152)">
        <path d="M127.915,225.135L71.444,209.458L58.861,68.312L197.14,68.312L184.542,209.436L127.915,225.135Z" style="fill:rgb(38,77,228);fill-rule:nonzero;"/>
        <path d="M173.757,200.449L184.523,79.851L128,79.851L128,213.134L173.757,200.449Z" style="fill:rgb(41,101,241);fill-rule:nonzero;"/>
        <path d="M87.709,132.202L89.26,149.512L128,149.512L128,132.202L87.709,132.202ZM84.592,97.163L86.166,114.474L128,114.474L128,97.163L84.592,97.163ZM128,177.16L127.924,177.18L108.645,171.975L107.413,158.168L90.035,158.168L92.46,185.349L127.92,195.193L128,195.172L128,177.16Z" style="fill:rgb(235,235,235);fill-rule:nonzero;"/>
        <path d="M91.403,29.954L112.37,29.954L112.37,38.722L100.171,38.722L100.171,47.49L112.37,47.49L112.37,56.258L91.403,56.258L91.403,29.954ZM116.563,29.954L137.53,29.954L137.53,37.578L125.331,37.578L125.331,39.103L137.53,39.103L137.53,56.639L116.563,56.639L116.563,48.633L128.762,48.633L128.762,47.108L116.563,47.108L116.563,29.954ZM141.724,29.954L162.691,29.954L162.691,37.578L150.492,37.578L150.492,39.103L162.691,39.103L162.691,56.639L141.724,56.639L141.724,48.633L153.923,48.633L153.923,47.108L141.724,47.108L141.724,29.954Z" style="fill-rule:nonzero;"/>
        <path d="M168.18,132.202L171.305,97.163L127.94,97.163L127.94,114.474L152.333,114.474L150.758,132.202L127.94,132.202L127.94,149.512L149.258,149.512L147.248,171.963L127.94,177.175L127.94,195.185L163.43,185.349L163.69,182.424L167.758,136.85L168.18,132.202Z" style="fill:white;fill-rule:nonzero;"/>
    </g>
</svg>
