<svg xmlns="http://www.w3.org/2000/svg" width="256" height="256" viewBox="0 52.5 256 256"><path fill="#264DE4" d="M127.915 277.635l-56.471-15.677-12.583-141.146H197.14l-12.598 141.124-56.627 15.699z"/><path fill="#2965F1" d="M173.757 252.949l10.766-120.598H128v133.283l45.757-12.685z"/><path fill="#EBEBEB" d="M87.709 184.702l1.551 17.31H128v-17.31H87.709zm-3.117-35.039l1.574 17.311H128v-17.311H84.592zM128 229.66l-.076.02-19.279-5.205-1.232-13.807H90.035l2.425 27.181 35.46 9.844.08-.021V229.66z"/><path d="M91.403 82.454h20.967v8.768h-12.199v8.768h12.199v8.768H91.403V82.454zm25.16 0h20.967v7.624h-12.199v1.525h12.199v17.536h-20.967v-8.006h12.199v-1.525h-12.199V82.454zm25.161 0h20.967v7.624h-12.199v1.525h12.199v17.536h-20.967v-8.006h12.199v-1.525h-12.199V82.454z"/><path fill="#FFF" d="M168.18 184.702l3.125-35.039H127.94v17.311h24.393l-1.575 17.728H127.94v17.31h21.318l-2.01 22.451-19.308 5.212v18.01l35.49-9.836.26-2.925 4.068-45.574.422-4.648z"/></svg>