<?xml version="1.0" encoding="UTF-8" standalone="no"?>
<!DOCTYPE svg PUBLIC "-//W3C//DTD SVG 1.1//EN" "http://www.w3.org/Graphics/SVG/1.1/DTD/svg11.dtd">
<svg width="100%" height="100%" viewBox="0 0 256 256" version="1.1" xmlns="http://www.w3.org/2000/svg" xmlns:xlink="http://www.w3.org/1999/xlink" xml:space="preserve" xmlns:serif="http://www.serif.com/" style="fill-rule:evenodd;clip-rule:evenodd;stroke-linejoin:round;stroke-miterlimit:2;">
    <g transform="matrix(0.730469,0,0,0.730469,34.5,34.5)">
        <path d="M128,0C198.692,0 256,57.308 256,128C256,198.692 198.692,256 128,256C57.308,256 0,198.692 0,128C0,57.308 57.308,0 128,0Z" style="fill-rule:nonzero;"/>
        <path d="M123,72.45C140.9,72.45 156.25,77.4 168.35,86.85C178.534,94.81 186.03,105.751 189.967,118.128L190.1,118.55L190.2,118.85L190.3,119.2L190.5,119.85L190.8,121.05L191.6,123.85L192.45,127.05L196.2,140.75L199.9,154.55L204.1,170.25L210.85,195.5L213.4,205L212.85,205.6C195.228,224.856 171.137,238.083 144.023,241.888L143.2,242L142.95,240.35L142.5,237.05L142.1,234.65L141.65,231.5L141.05,227.65L140.8,226.15L140.25,222.5L139.9,220.35L139.45,217.55L139,214.85L138.55,212.25L138.1,209.7L137.7,207.2L137.25,204.8L136.85,202.5L136.55,200.8L136.2,199.15L135.6,196L135.3,194.5L134.95,192.65L134.65,191.35L134.4,190.1L134.15,188.9L134,188.1L133.65,186.6L133.15,184.4L132.95,183.7L132.7,182.7L132.5,181.75L132.25,180.8L132,179.9L131.85,179.35L131.6,178.5L131.4,177.7L131.25,177.15L131.05,176.65L130.9,176.2L130.7,175.5L130.55,175L130.45,174.7C130.234,174.065 129.998,173.436 129.744,172.814L129.55,172.35L129.4,172.05L130.55,169.05L126,169.2L124.75,169.25C83.45,170.1 56.8,152.55 56.8,125.05C56.8,95.9 85.8,72.45 123,72.45ZM82.7,210.15C83.635,206.95 86.946,205.059 90.15,205.86L90.3,205.9C93.549,206.737 95.49,209.998 94.785,213.248L94.75,213.4L94.7,213.55L88.65,236.1L87.8,235.75C84.421,234.49 81.104,233.07 77.86,231.497L77.05,231.1L82.65,210.3L82.7,210.15ZM117.5,194.9C118.45,191.65 121.85,189.75 125.15,190.65C126.775,191.094 128.149,192.174 128.965,193.641L129.05,193.8L129.25,194.7L129.55,196.15L129.75,197.2L129.7,197.45L129.55,198.15L129.55,198.3L121.05,229.8L121,229.95C119.959,233.099 116.64,234.887 113.438,234.023C110.286,233.173 108.328,230.045 108.92,226.852L108.95,226.7L108.95,226.55L117.45,195.05L117.5,194.9ZM65.9,158.2C68.924,160.84 72.409,163.25 76.222,165.296L76.7,165.55L69,194.15L68.95,194.3C67.956,197.525 64.581,199.378 61.327,198.487C58.122,197.609 56.173,194.383 56.866,191.151L56.9,191L56.95,190.85L65.45,159.35L65.5,159.15L65.9,158.2ZM38,126.2C38.95,123 42.35,121.1 45.65,121.95C48.85,122.836 50.79,126.098 50.085,129.348L50.05,129.5L50.05,129.65L41.55,161.15L41.5,161.3C40.506,164.525 37.131,166.378 33.877,165.487C30.672,164.609 28.723,161.383 29.416,158.151L29.45,158L29.45,157.85L37.95,126.35L38,126.2ZM228.6,119.05C229.55,115.85 232.95,113.95 236.2,114.8C239.449,115.686 241.39,118.948 240.685,122.15L240.65,122.3L240.65,122.5L232.1,154L232.1,154.15C231.189,157.491 227.741,159.461 224.4,158.55C221.109,157.652 219.148,154.294 219.961,151L220,150.85L220.05,150.7L228.55,119.2L228.6,119.05ZM27.1,72.75L27.317,72.757C27.75,72.777 28.18,72.842 28.6,72.95C31.849,73.836 33.79,77.098 33.085,80.348L33.05,80.5L33,80.65L24.5,112.15L24.45,112.3C23.5,115.5 20.1,117.4 16.85,116.55C15.65,116.241 14.57,115.579 13.75,114.65C15.418,100.17 19.843,86.145 26.783,73.332L27.1,72.75ZM207.05,77.2C208.05,74 211.4,72.1 214.7,72.95C217.9,73.836 219.888,77.098 219.185,80.348L219.15,80.5L219.1,80.65L210.6,112.15L210.55,112.3C209.556,115.525 206.181,117.378 202.927,116.487C199.722,115.609 197.773,112.383 198.466,109.151L198.5,109L198.55,108.85L207.05,77.35L207.05,77.2ZM56.5,47.25C57.45,44.05 60.85,42.15 64.1,43C67.349,43.886 69.29,47.148 68.585,50.35L68.55,50.5L68.5,50.7L60,82.2L59.95,82.35C58.956,85.575 55.581,87.428 52.327,86.537C49.122,85.659 47.173,82.433 47.866,79.201L47.9,79.05L47.95,78.9L56.45,47.4L56.5,47.25ZM165.7,53.2C166.65,50 170.05,48.1 173.35,48.95C176.55,49.836 178.49,53.098 177.785,56.348L177.75,56.5L177.75,56.65L171.05,81.4L170.5,80.95C167.363,78.646 164.04,76.607 160.565,74.856L159.95,74.55L165.65,53.35L165.7,53.2ZM117.75,13.45C117.933,14.309 117.931,15.196 117.746,16.053L117.7,16.25L117.65,16.4L109.15,47.9L109.1,48.05C108.059,51.199 104.74,52.987 101.538,52.123C98.386,51.273 96.428,48.145 97.02,44.952L97.05,44.8L97.1,44.65L105,15.3L105.85,15.15C109.784,14.376 113.756,13.809 117.75,13.45ZM195.95,35.2L196.7,35.75C199.905,38.144 202.983,40.703 205.922,43.416L206.55,44L206.35,44.65L206.3,44.8C205.259,47.949 201.94,49.737 198.738,48.873C195.586,48.023 193.628,44.895 194.22,41.702L194.25,41.55L194.3,41.4L195.95,35.2ZM146.5,14.5L147.4,14.65C150.914,15.243 154.398,15.999 157.84,16.917L158.7,17.15L155.55,28.9L155.5,29.05C154.459,32.199 151.14,33.987 147.938,33.123C144.786,32.273 142.828,29.145 143.42,25.952L143.45,25.8L143.5,25.65L146.5,14.5Z" style="fill:white;fill-rule:nonzero;"/>
        <path d="M131,93.5C135.418,93.5 139,97.082 139,101.5C139,105.918 135.418,109.5 131,109.5C126.582,109.5 123,105.918 123,101.5C123,97.082 126.582,93.5 131,93.5Z" style="fill-rule:nonzero;"/>
    </g>
</svg>
