<svg xmlns="http://www.w3.org/2000/svg" width="256" height="256" viewBox="0 -32 256 256"><path d="M127.806 102.096v20.356c34.501 0 61.366-33.331 50.08-69.485-4.933-15.799-17.486-28.354-33.286-33.286-36.154-11.287-69.486 15.578-69.486 50.08h20.402c.003 0 .005-.005.005-.005.003-21.652 21.432-38.393 44.196-30.132 8.435 3.061 15.161 9.787 18.224 18.22 8.262 22.751-8.454 44.171-30.088 44.202V81.754l-.003-.001h-20.34l-.003.002v20.34h20.299zm-20.304 15.634H91.875l-.004-.004v-15.631h15.636v15.631c-.001.001-.003.004-.005.004zm-15.62-15.634H78.781c-.006 0-.01-.003-.01-.003V88.998s.004-.01.01-.01h13.091a.02.02 0 0 1 .01.004v13.104zm-51.175 41.005c-2.652-1.84-5.954-2.772-9.811-2.772H22.5v26.638h8.396c3.847 0 7.149-.985 9.813-2.925 1.45-1.029 2.588-2.468 3.385-4.272.793-1.796 1.195-3.914 1.195-6.295 0-2.354-.402-4.444-1.195-6.215-.796-1.781-1.936-3.179-3.387-4.159zm-13.303 1.73h2.635c2.932 0 5.346.576 7.176 1.715 2.032 1.225 3.063 3.556 3.063 6.928 0 3.474-1.033 5.908-3.069 7.241h-.002c-1.752 1.16-4.151 1.747-7.13 1.747h-2.672v-17.631zm21.325 22.135h4.721v-18.762h-4.721v18.762zM51.135 140c-.807 0-1.502.286-2.063.846-.566.54-.854 1.225-.854 2.034 0 .807.286 1.502.85 2.065.563.564 1.259.851 2.066.851s1.501-.286 2.066-.851.851-1.26.851-2.065c0-.81-.288-1.493-.851-2.03a2.824 2.824 0 0 0-2.065-.85zm19.46 9.771c-1.423-1.267-3.013-2.006-4.732-2.006-2.606 0-4.772.902-6.437 2.678-1.687 1.763-2.542 4.03-2.542 6.74 0 2.648.842 4.908 2.506 6.721 1.678 1.754 3.855 2.642 6.473 2.642 1.82 0 3.384-.507 4.66-1.508v.433c0 1.557-.417 2.767-1.239 3.599-.821.831-1.96 1.252-3.384 1.252-2.179 0-3.545-.855-5.208-3.104l-3.215 3.089.087.121c.694.976 1.757 1.929 3.161 2.836 1.404.901 3.169 1.36 5.247 1.36 2.803 0 5.07-.864 6.74-2.567 1.679-1.713 2.531-4.006 2.531-6.813v-17.039h-4.648v1.566zm-1.239 11.081c-.825.938-1.884 1.392-3.238 1.392s-2.407-.454-3.22-1.391c-.809-.931-1.22-2.166-1.22-3.669 0-1.527.411-2.777 1.221-3.716.802-.929 1.885-1.398 3.22-1.398 1.353 0 2.413.457 3.238 1.4.822.938 1.238 2.188 1.238 3.714 0 1.503-.417 2.737-1.239 3.668zm9.927 6.114h4.721v-18.762h-4.721v18.762zM81.689 140c-.808 0-1.503.286-2.063.846-.566.54-.854 1.225-.854 2.034 0 .807.285 1.502.85 2.065a2.824 2.824 0 0 0 2.066.851c.806 0 1.501-.286 2.066-.851.564-.564.85-1.26.85-2.065 0-.81-.288-1.493-.85-2.03a2.822 2.822 0 0 0-2.065-.85zm12.663 3.135h-4.648v5.069h-2.699v4.303h2.699v7.793c0 2.438.487 4.184 1.449 5.186.963 1.007 2.675 1.518 5.086 1.518.767 0 1.539-.026 2.294-.075l.213-.015v-4.299l-1.619.084c-1.124 0-1.875-.197-2.231-.586-.362-.395-.544-1.229-.544-2.481v-7.124h4.394v-4.303h-4.394v-5.07zm20.597 6.472c-1.431-1.222-3.409-1.842-5.878-1.842-1.571 0-3.04.346-4.368 1.02-1.229.624-2.436 1.655-3.204 3.007l.048.058 3.023 2.895c1.245-1.986 2.63-2.675 4.465-2.675.986 0 1.805.264 2.434.786.626.518.931 1.177.931 2.013v.91a11.976 11.976 0 0 0-3.474-.536c-2.349 0-4.261.553-5.681 1.643-1.438 1.104-2.167 2.682-2.167 4.693 0 1.763.615 3.194 1.832 4.259 1.227 1.026 2.761 1.549 4.559 1.549 1.797 0 3.479-.726 5.005-1.965v1.545h4.648v-12.062c-.001-2.284-.732-4.066-2.173-5.298zm-8.382 10.189c.535-.373 1.292-.562 2.249-.562 1.136 0 2.342.228 3.584.679v1.841c-1.026.953-2.397 1.438-4.075 1.438-.817 0-1.453-.182-1.89-.541-.428-.351-.637-.799-.637-1.365 0-.644.252-1.132.769-1.49zm14.315 7.17h4.721v-26.638h-4.721v26.638zm21.85.401c-7.571 0-13.731-6.16-13.731-13.733 0-7.572 6.16-13.731 13.731-13.731 7.572 0 13.732 6.159 13.732 13.731.001 7.573-6.159 13.733-13.732 13.733zm0-22.625c-4.903 0-8.893 3.988-8.893 8.892s3.989 8.894 8.893 8.894 8.893-3.989 8.893-8.894c0-4.904-3.989-8.892-8.893-8.892zm30.567 15.515c-.845.946-1.709 1.768-2.374 2.193-.652.42-1.477.633-2.448.633-1.391 0-2.509-.507-3.421-1.551-.906-1.038-1.365-2.371-1.365-3.966s.453-2.927 1.349-3.957c.898-1.036 2.012-1.54 3.401-1.54 1.521 0 3.124.944 4.497 2.57l3.121-2.994c-2.035-2.646-4.63-3.88-7.728-3.88-2.592 0-4.839.945-6.678 2.806-1.83 1.849-2.757 4.201-2.757 6.995 0 2.793.927 5.152 2.754 7.013 1.829 1.861 4.077 2.807 6.681 2.807 3.418 0 6.177-1.477 8.037-4.18l-3.069-2.949zm19.376-9.432c-.669-.934-1.58-1.684-2.71-2.232-1.126-.549-2.439-.827-3.901-.827-2.636 0-4.792.973-6.411 2.893-1.572 1.904-2.367 4.271-2.367 7.035 0 2.844.873 5.197 2.598 6.996 1.714 1.788 4.008 2.696 6.818 2.696 3.184 0 5.797-1.288 7.765-3.828l.106-.137-3.08-2.959c-.285.344-.689.735-1.059 1.083-.467.439-.904.78-1.373 1.014-.706.351-1.497.524-2.382.524-1.309 0-2.392-.386-3.22-1.145-.774-.709-1.228-1.667-1.348-2.85h12.508l.042-1.723c0-1.22-.166-2.395-.493-3.493a10.205 10.205 0 0 0-1.493-3.047zm-10.318 4.417c.227-.897.64-1.645 1.232-2.226.64-.63 1.472-.947 2.475-.947 1.145 0 2.03.325 2.633.969.559.596.873 1.336.939 2.204h-7.279zm28.449-5.635c-1.432-1.222-3.409-1.842-5.878-1.842-1.57 0-3.04.346-4.369 1.02-1.229.624-2.437 1.655-3.203 3.007l.048.058 3.023 2.895c1.245-1.986 2.63-2.675 4.465-2.675.986 0 1.805.264 2.435.786.626.518.931 1.177.931 2.013v.91a11.984 11.984 0 0 0-3.476-.536c-2.349 0-4.26.553-5.681 1.643-1.438 1.104-2.167 2.682-2.167 4.693 0 1.763.615 3.194 1.832 4.259 1.227 1.026 2.761 1.549 4.558 1.549 1.798 0 3.479-.726 5.005-1.965v1.545h4.649v-12.062c0-2.284-.731-4.066-2.172-5.298zm-8.382 10.189c.534-.373 1.292-.562 2.248-.562 1.137 0 2.343.228 3.585.679v1.841c-1.026.953-2.397 1.438-4.075 1.438-.818 0-1.453-.182-1.89-.541-.428-.351-.638-.799-.638-1.365 0-.644.252-1.132.77-1.49zm28.716-9.82c-1.315-1.466-3.163-2.21-5.494-2.21-1.872 0-3.394.539-4.531 1.6v-1.161h-4.63v18.762h4.722v-10.348c0-1.421.338-2.55 1.005-3.355.665-.804 1.581-1.193 2.798-1.193 1.068 0 1.88.349 2.478 1.066.601.722.905 1.714.905 2.954v10.876h4.72V156.09c-.002-2.598-.665-4.654-1.973-6.114z" fill="#0080FF"/></svg>