<?xml version="1.0" encoding="utf-8"?>
<!-- Generator: Adobe Illustrator 16.0.3, SVG Export Plug-In . SVG Version: 6.00 Build 0)  -->
<!DOCTYPE svg PUBLIC "-//W3C//DTD SVG 1.1//EN" "http://www.w3.org/Graphics/SVG/1.1/DTD/svg11.dtd">
<svg version="1.1" id="Ebene_1" xmlns="http://www.w3.org/2000/svg" xmlns:xlink="http://www.w3.org/1999/xlink" x="0px" y="0px"
	 width="256px" height="256px" viewBox="0 -20.5 256 256" enable-background="new 0 -20.5 256 256" xml:space="preserve">
<g>
	<path fill="#364548" d="M63.088,155.683v-11.876c0-1.559,0.976-2.813,2.59-2.813h0.448c1.615,0,2.586,1.256,2.586,2.813v25.001
		c0,6.095-3.013,10.945-8.26,14.036c-2.434,1.432-5.123,2.167-7.944,2.167h-1.115c-6.098,0-10.942-3.015-14.038-8.26
		c-1.436-2.435-2.166-5.119-2.166-7.943v-1.115c0-6.098,3.014-10.945,8.258-14.041c2.436-1.438,5.121-2.167,7.945-2.167h1.115
		C56.635,151.484,60.136,153.084,63.088,155.683L63.088,155.683z M40.813,168.249c0,4.403,2.134,7.714,5.993,9.825
		c1.561,0.854,3.255,1.313,5.035,1.313c4.322,0,7.528-2.039,9.74-5.701c1.028-1.705,1.507-3.568,1.507-5.551
		c0-3.817-1.808-6.796-4.883-9.009c-1.865-1.342-3.965-2.014-6.255-2.014c-4.71,0-8.101,2.38-10.136,6.607
		C41.127,165.149,40.813,166.668,40.813,168.249L40.813,168.249z M88.221,151.484H89c6.516,0,11.47,3.16,14.611,8.849
		c1.255,2.275,1.927,4.759,1.927,7.359v1.115c0,6.095-3.006,10.953-8.263,14.037c-2.434,1.428-5.122,2.166-7.941,2.166h-1.114
		c-6.098,0-10.943-3.015-14.037-8.26c-1.437-2.435-2.167-5.119-2.167-7.943v-1.115c0-6.1,3.025-10.931,8.256-14.04
		C82.705,152.207,85.395,151.484,88.221,151.484L88.221,151.484z M77.64,168.249c0,4.273,2.098,7.419,5.708,9.63
		c1.695,1.038,3.562,1.508,5.543,1.508c4.224,0,7.346-2.141,9.519-5.706c1.036-1.7,1.505-3.566,1.505-5.546
		c0-3.975-1.915-7.011-5.188-9.212c-1.794-1.206-3.79-1.811-5.95-1.811c-4.711,0-8.102,2.38-10.136,6.607
		C77.953,165.149,77.64,166.668,77.64,168.249L77.64,168.249z M128.917,157.562c-0.849-0.397-2.438-0.529-3.356-0.565
		c-4.698-0.177-8.098,2.47-10.092,6.614c-0.688,1.43-1.003,2.942-1.003,4.524c0,4.817,2.529,8.189,6.828,10.245
		c1.571,0.75,3.599,0.893,5.315,0.893c1.51,0,3.643-0.925,4.982-1.561l0.232-0.11h1.04l0.114,0.022
		c1.279,0.267,2.245,1.077,2.245,2.454v0.556c0,3.424-6.258,4.208-8.646,4.375c-8.425,0.583-14.728-4.045-17.129-12.082
		c-0.417-1.395-0.605-2.781-0.605-4.235v-1.112c0-6.099,3.026-10.929,8.256-14.036c2.432-1.444,5.122-2.17,7.948-2.17h1.114
		c2.998,0,5.757,0.852,8.233,2.542l0.204,0.141l0.127,0.212c0.268,0.442,0.498,0.955,0.498,1.482v0.556
		c0,1.437-1.075,2.208-2.371,2.458l-0.107,0.019h-0.333C131.573,158.782,129.666,157.913,128.917,157.562L128.917,157.562z
		 M147.157,161.369c2.184-2.188,4.376-4.371,6.594-6.521c0.617-0.6,2.956-3.14,3.878-3.14h1.007l0.114,0.022
		c1.282,0.268,2.244,1.079,2.244,2.458v0.557c0,0.94-1.102,2.033-1.709,2.677c-1.292,1.369-2.652,2.694-3.975,4.035l-6.793,6.897
		c2.924,2.931,5.847,5.866,8.748,8.82c0.803,0.816,1.606,1.635,2.396,2.464c0.28,0.294,0.692,0.66,0.927,1.067
		c0.251,0.381,0.406,0.812,0.406,1.271v0.581l-0.033,0.134c-0.316,1.283-1.13,2.318-2.551,2.318h-0.448
		c-0.93,0-1.981-1.054-2.619-1.654c-1.313-1.238-2.581-2.54-3.868-3.805l-4.317-4.238v6.773c0,1.56-0.977,2.814-2.59,2.814h-0.443
		c-1.615,0-2.591-1.255-2.591-2.814v-38.171c0-1.561,0.978-2.809,2.591-2.809h0.443c1.613,0,2.59,1.248,2.59,2.809V161.369
		L147.157,161.369z M217.246,151.708h0.559c1.687,0,2.812,1.136,2.812,2.813c0,2.328-2.225,2.925-4.151,2.925
		c-2.525,0-4.937,1.528-6.678,3.243c-2.171,2.141-3.121,4.882-3.121,7.895v13.614c0,1.561-0.974,2.813-2.591,2.813h-0.443
		c-1.616,0-2.59-1.253-2.59-2.813v-14.396c0-5.528,2.691-10.04,7.177-13.205C210.898,152.706,213.966,151.708,217.246,151.708
		L217.246,151.708z M177.277,178.688c2.046,0.714,4.38,0.612,6.479,0.246c1.074-0.456,3.82-1.653,4.831-1.479l0.157,0.026
		l0.146,0.071c0.616,0.299,1.205,0.722,1.521,1.35c0.736,1.472,0.382,2.95-1.063,3.785l-0.481,0.277
		c-5.334,3.08-11.008,2.653-16.325-0.223c-2.541-1.374-4.487-3.414-5.921-5.901l-0.336-0.581c-3.424-5.931-2.962-12.169,0.899-17.81
		c1.333-1.948,3.076-3.455,5.113-4.633l0.771-0.444c5.024-2.899,10.408-2.701,15.567-0.156c2.773,1.368,5.021,3.409,6.571,6.092
		l0.277,0.483c1.126,1.948-0.332,3.648-1.837,4.809c-1.746,1.347-3.509,2.969-5.182,4.413
		C184.732,172.233,181.007,175.463,177.277,178.688L177.277,178.688z M172.447,175.296c4.174-3.579,8.348-7.16,12.51-10.753
		c1.422-1.227,2.981-2.5,4.393-3.79c-1.133-1.427-3.023-2.455-4.631-3.067c-3.243-1.236-6.441-0.821-9.416,0.896
		c-3.894,2.248-5.552,5.828-5.406,10.284c0.057,1.754,0.528,3.445,1.46,4.938C171.686,174.329,172.051,174.823,172.447,175.296
		L172.447,175.296z"/>
	<path fill="#364548" d="M142.1,62.606h16.594V79.57h8.391c3.874,0,7.86-0.69,11.53-1.933c1.803-0.612,3.826-1.462,5.604-2.532
		c-2.342-3.059-3.538-6.92-3.891-10.727c-0.479-5.178,0.566-11.917,4.071-15.969l1.744-2.018l2.078,1.671
		c5.234,4.205,9.635,10.08,10.41,16.777c6.303-1.854,13.7-1.415,19.255,1.791l2.279,1.315l-1.199,2.341
		c-4.697,9.168-14.519,12.008-24.12,11.505c-14.367,35.784-45.646,52.727-83.572,52.727c-19.594,0-37.571-7.325-47.808-24.709
		l-0.168-0.284l-1.492-3.035c-3.46-7.652-4.609-16.035-3.83-24.411l0.233-2.509h14.19V62.606h16.594V46.012h33.189V29.417H142.1
		V62.606"/>
	<path fill="#22A0C8" d="M195.862,68.882c1.113-8.647-5.358-15.44-9.372-18.665c-4.625,5.347-5.344,19.361,1.912,25.261
		c-4.05,3.597-12.582,6.857-21.318,6.857H60.732c-0.849,9.121,0.752,17.519,4.409,24.708l1.21,2.213
		c0.766,1.3,1.603,2.554,2.507,3.763h0c4.372,0.28,8.403,0.378,12.092,0.296h0.001c7.248-0.161,13.162-1.016,17.644-2.569
		c0.667-0.231,1.395,0.122,1.625,0.789c0.23,0.667-0.123,1.395-0.789,1.625c-0.596,0.207-1.217,0.399-1.859,0.583
		c-0.001,0.001-0.001,0.001-0.002,0.001c-3.529,1.008-7.313,1.687-12.196,1.987c0.29,0.004-0.302,0.043-0.304,0.044
		c-0.166,0.01-0.375,0.034-0.542,0.043c-1.922,0.107-3.996,0.13-6.117,0.13c-2.319,0-4.604-0.044-7.157-0.173l-0.065,0.043
		c8.861,9.96,22.717,15.933,40.084,15.933c36.757,0,67.934-16.293,81.74-52.874c9.795,1.005,19.208-1.492,23.49-9.851
		C209.684,65.088,200.913,66.344,195.862,68.882"/>
	<path fill="#37B1D9" d="M195.862,68.882c1.113-8.647-5.358-15.44-9.372-18.665c-4.625,5.347-5.344,19.361,1.912,25.261
		c-4.05,3.597-12.582,6.857-21.318,6.857H67.03c-0.434,13.968,4.75,24.57,13.92,30.979h0.001c7.248-0.161,13.162-1.016,17.644-2.569
		c0.667-0.231,1.395,0.122,1.625,0.789c0.23,0.667-0.123,1.395-0.789,1.625c-0.596,0.207-1.217,0.399-1.859,0.583
		c-0.001,0.001-0.001,0.001-0.002,0.001c-3.529,1.008-7.639,1.773-12.521,2.074c-0.001,0-0.118-0.113-0.12-0.112
		c12.509,6.417,30.647,6.394,51.444-1.595c23.318-8.958,45.015-26.025,60.155-45.544C196.3,68.668,196.077,68.774,195.862,68.882"/>
	<path fill="#1B81A5" d="M60.931,93.416c0.661,4.885,2.09,9.46,4.209,13.627l1.21,2.213c0.766,1.3,1.603,2.554,2.508,3.763
		c4.373,0.28,8.404,0.378,12.093,0.296c7.248-0.161,13.162-1.016,17.644-2.569c0.667-0.231,1.395,0.122,1.625,0.789
		c0.23,0.667-0.123,1.395-0.789,1.625c-0.596,0.207-1.217,0.399-1.859,0.583c-0.001,0.001-0.001,0.001-0.002,0.001
		c-3.529,1.008-7.617,1.729-12.5,2.031c-0.167,0.01-0.459,0.012-0.628,0.021c-1.921,0.107-3.974,0.174-6.095,0.174
		c-2.319,0-4.69-0.045-7.243-0.174c8.861,9.96,22.803,15.954,40.171,15.954c31.467,0,58.845-11.943,74.734-38.334H60.931"/>
	<path fill="#1D91B4" d="M67.987,93.416c1.881,8.578,6.402,15.313,12.964,19.898c7.248-0.161,13.162-1.016,17.644-2.569
		c0.667-0.231,1.395,0.122,1.625,0.789c0.23,0.667-0.123,1.395-0.789,1.625c-0.596,0.207-1.217,0.399-1.859,0.583
		c-0.001,0.001-0.001,0.001-0.002,0.001c-3.529,1.008-7.704,1.729-12.586,2.031c12.508,6.415,30.594,6.323,51.389-1.664
		c12.579-4.833,24.687-12.029,35.549-20.694H67.987"/>
	<path fill="#23A3C2" d="M75.167,65.372h14.381v14.382H75.167V65.372z M76.365,66.571H77.5v11.986h-1.135V66.571z M78.499,66.571
		h1.18v11.986h-1.18V66.571z M80.678,66.571h1.18v11.986h-1.18V66.571z M82.857,66.571h1.18v11.986h-1.18V66.571z M85.037,66.571
		h1.18v11.986h-1.18V66.571z M87.215,66.571h1.136v11.986h-1.136V66.571z"/>
	<path fill="#23A3C2" d="M91.761,48.778h14.383v14.381H91.761V48.778z M92.96,49.976h1.134v11.985H92.96V49.976z M95.094,49.976
		h1.179v11.985h-1.179V49.976z M97.272,49.976h1.181v11.985h-1.181V49.976z M99.452,49.976h1.18v11.985h-1.18V49.976z
		 M101.631,49.976h1.18v11.985h-1.18V49.976z M103.81,49.976h1.137v11.985h-1.137V49.976z"/>
	<path fill="#34BBDE" d="M91.761,65.372h14.383v14.382H91.761V65.372z M92.96,66.571h1.134v11.986H92.96V66.571z M95.094,66.571
		h1.179v11.986h-1.179V66.571z M97.272,66.571h1.181v11.986h-1.181V66.571z M99.452,66.571h1.18v11.986h-1.18V66.571z
		 M101.631,66.571h1.18v11.986h-1.18V66.571z M103.81,66.571h1.137v11.986h-1.137V66.571z"/>
	<path fill="#23A3C2" d="M108.356,65.372h14.382v14.382h-14.382V65.372z M109.555,66.571h1.134v11.986h-1.134V66.571z
		 M111.688,66.571h1.181v11.986h-1.181V66.571z M113.868,66.571h1.18v11.986h-1.18V66.571z M116.047,66.571h1.18v11.986h-1.18
		V66.571z M118.226,66.571h1.181v11.986h-1.181V66.571z M120.405,66.571h1.134v11.986h-1.134V66.571z"/>
	<path fill="#34BBDE" d="M108.356,48.778h14.382v14.381h-14.382V48.778z M109.555,49.976h1.134v11.985h-1.134V49.976z
		 M111.688,49.976h1.181v11.985h-1.181V49.976z M113.868,49.976h1.18v11.985h-1.18V49.976z M116.047,49.976h1.18v11.985h-1.18
		V49.976z M118.226,49.976h1.181v11.985h-1.181V49.976z M120.405,49.976h1.134v11.985h-1.134V49.976z"/>
	<path fill="#34BBDE" d="M124.951,65.372h14.381v14.382h-14.381V65.372z M126.149,66.571h1.135v11.986h-1.135V66.571z
		 M128.284,66.571h1.18v11.986h-1.18V66.571z M130.462,66.571h1.181v11.986h-1.181V66.571z M132.642,66.571h1.18v11.986h-1.18
		V66.571z M134.82,66.571h1.181v11.986h-1.181V66.571z M136.999,66.571h1.136v11.986h-1.136V66.571z"/>
	<path fill="#23A3C2" d="M124.951,48.778h14.381v14.381h-14.381V48.778z M126.149,49.976h1.135v11.985h-1.135V49.976z
		 M128.284,49.976h1.18v11.985h-1.18V49.976z M130.462,49.976h1.181v11.985h-1.181V49.976z M132.642,49.976h1.18v11.985h-1.18
		V49.976z M134.82,49.976h1.181v11.985h-1.181V49.976z M136.999,49.976h1.136v11.985h-1.136V49.976z"/>
	<path fill="#34BBDE" d="M124.951,32.183h14.381v14.382h-14.381V32.183z M126.149,33.38h1.135v11.986h-1.135V33.38z M128.284,33.38
		h1.18v11.986h-1.18V33.38z M130.462,33.38h1.181v11.986h-1.181V33.38z M132.642,33.38h1.18v11.986h-1.18V33.38z M134.82,33.38
		h1.181v11.986h-1.181V33.38z M136.999,33.38h1.136v11.986h-1.136V33.38z"/>
	<path fill="#23A3C2" d="M141.545,65.372h14.383v14.382h-14.383V65.372z M142.743,66.571h1.136v11.986h-1.136V66.571z
		 M144.877,66.571h1.181v11.986h-1.181V66.571z M147.057,66.571h1.18v11.986h-1.18V66.571z M149.235,66.571h1.18v11.986h-1.18
		V66.571z M151.415,66.571h1.181v11.986h-1.181V66.571z M153.595,66.571h1.134v11.986h-1.134V66.571z"/>
	<path fill="#D3ECEC" d="M105.244,103.073c2.191,0,3.967,1.777,3.967,3.968s-1.776,3.967-3.967,3.967
		c-2.191,0-3.968-1.776-3.968-3.967S103.052,103.073,105.244,103.073"/>
	<path fill="#364548" d="M105.244,104.198c0.363,0,0.709,0.068,1.029,0.192c-0.347,0.201-0.581,0.576-0.581,1.005
		c0,0.64,0.519,1.159,1.16,1.159c0.438,0,0.82-0.244,1.017-0.604c0.139,0.335,0.216,0.704,0.216,1.09
		c0,1.569-1.272,2.841-2.841,2.841s-2.842-1.272-2.842-2.841C102.401,105.471,103.674,104.198,105.244,104.198"/>
	<path fill="#364548" d="M35.063,94.85h184.573c-4.02-1.019-12.716-2.396-11.281-7.663c-7.309,8.456-24.932,5.932-29.379,1.763
		c-4.953,7.184-33.785,4.453-35.796-1.144c-6.21,7.287-25.45,7.287-31.66,0c-2.012,5.597-30.844,8.327-35.797,1.144
		c-4.448,4.169-22.069,6.693-29.377-1.763C47.779,92.454,39.083,93.831,35.063,94.85"/>
	<path fill="#BDD9D7" d="M115.791,131.665c-9.826-4.663-15.22-11.002-18.221-17.922c-3.65,1.042-8.038,1.708-13.135,1.994
		c-1.92,0.108-3.94,0.163-6.061,0.163c-2.444,0-5.02-0.072-7.723-0.216c9.011,9.006,20.097,15.939,40.623,16.065
		C112.79,131.75,114.294,131.722,115.791,131.665"/>
	<path fill="#D3ECEC" d="M101.22,120.129c-1.359-1.846-2.678-4.164-3.647-6.387c-3.65,1.043-8.039,1.709-13.138,1.995
		C87.937,117.639,92.946,119.4,101.22,120.129"/>
</g>
</svg>
