<?xml version="1.0" encoding="UTF-8" standalone="no"?>
<!DOCTYPE svg PUBLIC "-//W3C//DTD SVG 1.1//EN" "http://www.w3.org/Graphics/SVG/1.1/DTD/svg11.dtd">
<svg width="100%" height="100%" viewBox="0 0 256 256" version="1.1" xmlns="http://www.w3.org/2000/svg" xmlns:xlink="http://www.w3.org/1999/xlink" xml:space="preserve" xmlns:serif="http://www.serif.com/" style="fill-rule:evenodd;clip-rule:evenodd;stroke-linejoin:round;stroke-miterlimit:2;">
    <g transform="matrix(1.15508,0,0,1.15508,20,101.681)">
        <g>
            <g transform="matrix(0.365234,0,0,0.365234,0,0)">
                <path d="M66.678,46.541C67.829,44.845 69.089,44.629 70.111,44.629C71.133,44.629 72.835,44.845 73.986,46.541C83.057,59 98.029,83.818 109.074,102.126C116.276,114.065 121.808,123.234 122.943,124.401C127.203,128.782 133.047,126.052 136.442,121.083C139.785,116.191 140.712,112.756 140.712,109.091C140.712,106.595 92.285,16.529 87.408,9.032C82.718,1.821 81.19,0 73.162,0L67.155,0C59.152,0 57.995,1.821 53.305,9.032C48.428,16.529 0,106.595 0,109.091C0,112.756 0.928,116.191 4.271,121.083C7.666,126.052 13.509,128.782 17.77,124.401C18.905,123.234 24.437,114.065 31.639,102.126C42.684,83.818 57.608,59 66.678,46.541Z" style="fill:rgb(0,0,32);fill-rule:nonzero;"/>
            </g>
            <g transform="matrix(0.365234,0,0,0.365234,0,0)">
                <path d="M387.842,39.395C407.788,39.395 423.649,57.402 423.649,79.674C423.649,101.946 407.788,120.111 387.842,120.111C377.163,120.111 368.839,115.688 363.499,107.632L363.499,144.12L341.355,144.12L341.355,40.974L363.499,40.974L363.499,51.873C368.839,43.818 377.163,39.395 387.842,39.395ZM471.953,39.395C494.566,39.395 512,56.77 512,79.832C512,102.893 494.566,120.111 471.953,120.111C449.179,120.111 431.903,102.893 431.903,79.832C431.903,56.77 449.179,39.395 471.953,39.395ZM241.752,7.961L241.752,30.391L197.621,30.391L197.621,50.294L236.884,50.294L236.884,72.723L197.621,72.723L197.621,96.101L241.752,96.101L241.752,118.531L174.378,118.531L174.378,7.961L241.752,7.961ZM277.785,40.974L290.506,59.297L303.384,40.974L329.769,40.974L303.698,78.41L331.653,118.531L304.954,118.531L290.349,97.523L275.743,118.531L249.359,118.531L277.156,78.568L251.086,40.974L277.785,40.974ZM382.817,60.561C371.98,60.561 363.499,68.933 363.499,79.674C363.499,90.573 371.98,98.787 382.817,98.787C393.496,98.787 402.134,90.415 402.134,79.674C402.134,69.091 393.496,60.561 382.817,60.561ZM471.953,60.719C461.427,60.719 453.577,68.775 453.577,79.832C453.577,90.573 461.427,98.787 471.953,98.787C482.316,98.787 490.328,90.573 490.328,79.832C490.328,68.775 482.316,60.719 471.953,60.719Z" style="fill:rgb(0,0,32);fill-rule:nonzero;"/>
            </g>
        </g>
    </g>
</svg>
