<svg xmlns="http://www.w3.org/2000/svg" width="256" height="317"><path fill="#FFDF51" fill-opacity=".7" d="M188.52 268.137v-59.272h-58.797l58.797 59.272"/><path fill="#FF8900" fill-opacity=".7" d="M195.117 234.53v-64.106h-63.592l63.592 64.106"/><linearGradient id="a" gradientUnits="userSpaceOnUse" x1="-175.575" y1="551.866" x2="-175.165" y2="551.76" gradientTransform="matrix(87.8219 0 0 -88.5333 15586.757 49102.254)"><stop offset="0" stop-color="#ffd441"/><stop offset="1" stop-color="#ffb047"/></linearGradient><path fill="url(#a)" fill-opacity=".7" d="M156.498 208.862v64.106h63.592l-63.592-64.106"/><path fill="#FFDF4F" fill-opacity=".7" d="M181.824 174.717v-50.706h-50.3l50.3 50.706"/><linearGradient id="b" gradientUnits="userSpaceOnUse" x1="-175.293" y1="551.384" x2="-175.077" y2="551.86" gradientTransform="matrix(87.8219 0 0 -88.5333 15566.882 48949.875)"><stop offset="0" stop-color="#ffd754"/><stop offset="1" stop-color="#ffb532"/></linearGradient><path fill="url(#b)" fill-opacity=".8" d="M205.705 162.628V98.521h-63.591l63.591 64.107"/><linearGradient id="c" gradientUnits="userSpaceOnUse" x1="-175.081" y1="551.069" x2="-175.081" y2="551.481" gradientTransform="matrix(87.8219 0 0 -88.5333 15505.006 48874.188)"><stop offset="0" stop-color="#ffd642"/><stop offset="0" stop-color="#ffd441"/><stop offset="1" stop-color="#ffb532"/></linearGradient><path fill="url(#c)" fill-opacity=".8" d="M97.317 43.683v64.106h63.591L97.317 43.683"/><linearGradient id="d" gradientUnits="userSpaceOnUse" x1="-174.971" y1="551.356" x2="-175.524" y2="551.482" gradientTransform="matrix(106.1984 0 0 -88.5515 18681.28 48934.379)"><stop offset="0" stop-color="#ffd441"/><stop offset="1" stop-color="#ffa829"/></linearGradient><path fill="url(#d)" fill-opacity=".88" d="M112.232 144.091V79.984H35.334l63.316 64.12 13.582-.013"/><path fill="#FFB700" fill-opacity=".7" d="M112.232 272.623v-77.557H35.334l76.898 77.557"/><path fill="#FFB700" fill-opacity=".5" d="M112.25 208.391v-64.106H48.658l63.592 64.106"/><path fill="#FFCD25" fill-opacity=".7" d="M131.524 124.009v64.107h63.591l-63.591-64.107"/><path fill="#FF8900" fill-opacity=".7" d="M112.088 131.226V67.119H48.497l63.591 64.107m17.635 77.636v64.106h63.592l-63.592-64.106"/></svg>