<svg xmlns="http://www.w3.org/2000/svg" width="256" height="256" viewBox="0 62 256 256"><path fill="#1A4658" d="M192.122 277.383c0 4.303-28.729 7.792-64.171 7.792-35.441 0-64.172-3.489-64.172-7.792 0-4.305 33.703-7.792 64.172-7.792 36.27 0 64.171 3.487 64.171 7.792"/><path fill="#EDF7FA" d="M188.149 221.156c-1.985 0-4.125-.917-5.653-7.945s-3.819-14.209-3.819-14.209c2.445 0 3.819-1.07 3.819-1.07-1.681-.765-5.348-3.361-7.792-6.57-2.444-3.208-8.709-8.403-8.709-8.403V172.57c0-7.029 4.507-12.529 4.507-12.529-3.056 0-4.507 2.75-4.507 2.75v-14.82c0-14.668 7.41-21.237 7.41-21.237-2.292-.153-3.819.917-3.819.917 1.068-10.848 4.393-14.056 4.393-14.056-12.223-3.209-19.042 3.972-19.042 3.972-1.375-6.569 4.002-10.391 4.002-10.391-6.264-1.375-11.445.458-11.445.458 0-9.625 3.827-12.836 3.827-12.836-19.1 0-29.943 14.36-29.943 14.36-.764-6.112.918-11.465.918-11.465-18.487 7.792-23.375 25.049-23.375 25.049-1.222-2.902-1.375-9.493-1.375-9.493s-7.64 12.796-9.015 21.658c-1.375 8.862 1.222 34.302 1.222 34.302s-1.222-1.527-3.819-1.833c0 0 2.75 3.056 2.75 9.932 0 0-1.07-.917-2.903-.458 0 0 2.903 2.597 3.209 7.028 0 0-3.362 2.292-5.196 4.584 0 0-2.903.153-4.431.611 0 0 2.445 1.375 2.903 2.597 0 0-7.181 7.335-10.848 13.293 0 0 3.209-1.986 5.5-1.375 0 0-5.042 6.111-6.723 16.196 0 0 2.444-1.222 3.514-.611 0 0-3.056 6.417-3.208 13.14l-3.361 1.986 2.597 1.834s-1.986 8.25-2.444 12.987c0 0 1.527-1.527 2.75-1.986 0 0 1.681 3.972 3.973 7.028 2.292 3.056 7.487 5.653 10.542 5.653l5.744-.225c-.712 3.073-2.118 5.681-5.08 5.816l-.329.528a2.877 2.877 0 0 0-.182-.009c-.059.897-1.87 1.06-2.369 1.681-1.514 1.89-2.669 4.484-3.438 6.8-.563 1.695-.297 1.695-.688 3.438-.127.569-.719 1.179-.916 1.756 1.649-.554 6.221-.924 8.63-1.101l.041 2.131s.397.37 1.055.638c.023-.004.045-.011.072-.009.224.019.439.052.65.104 3.614-.323 6.13.286 10.319-.062.815-.096 1.58-.211 2.293-.617.203-.606.229-.644.326-1.426.021-.14.021-.283.054-.453.065-.012.129-.021.193-.03a.476.476 0 0 1 .15-.021c.018-.005.033-.014.053-.016l.199-.017a.226.226 0 0 1 .129-.013c.758-.067 1.975-.13 2.733-.172 2.464-.004 5.706.279 5.706.279.201-2.762.401-7.047 4.87-19.538l1.108-.687s13.727 4.837 26.463-.196c1.008 2.481 4.27 10.819 4.782 16.076.438.616.389 1.397.404 2.227.012.7.07 1.401.09 2.101a32.183 32.183 0 0 1 4.2-.262c.757.042 1.975.104 2.733.172a.215.215 0 0 1 .128.013l.199.017c.021.002.035.011.053.016a.467.467 0 0 1 .149.021l.193.03c.034.17.034.313.055.453.096.782.123.819.325 1.426.065.037.132.069.198.103 2.28-.29 4.592-.343 6.887-.233 1.805.085 3.579.424 5.355.747l.001.051c.179.019.355.032.529.043.953.171 1.909.329 2.871.434a72.603 72.603 0 0 0-.014-3.18c1.913.092 4.684.473 5.846.643.46.109.835.178 1.229.263.052.016.109.031.157.047l-.006-.013c.395.088.82.2 1.381.396-.085-1.033-.077-1.012-.215-2.309-.105-1.002-.824-4.047-2.168-5.303 0 0 1.465.633 1.912.886-1.444-1.956-2.146-4.754-6.683-6.684 0 0 .827-.391 1.585-.488-.792-.488-1.396-.681-2.197-.622.271-.773 1.47-2.725 2.476-2.975 0 0-.617-.429-1.626-.098a9.69 9.69 0 0 0-1.094.657c-.133.095-.328-.003-.368-.149-.317-1.174-.523-2.365-.711-3.563 9.144-.331 10.427-5.021 10.427-5.021.763.611.763 1.985.763 1.985 3.973-5.194 3.515-10.39 3.515-10.39.917.152 1.681.764 1.681.764.458-7.944-1.986-21.543-1.986-21.543 1.224.611 1.986-.152 1.986-.152-1.375-.612-1.528-2.14-1.528-2.14 1.986.15 2.291-1.684 2.291-1.684"/><path fill="#CDE9EE" d="M100.739 278.803s.358-3.864-.902-6.653c0 0 2.387.162 2.788 6.465 0-.001-1.671.194-1.886.188m-11.98-13.032l.015-.119c.009.059.008.105-.015.119m2.235 12.732l-.021-.006.027-.072-.006.078"/><path fill="#CDE9EE" d="M121.377 109.156c-.763-6.112.918-11.465.918-11.465-18.487 7.792-23.376 25.049-23.376 25.049-1.222-2.902-1.375-9.493-1.375-9.493s-7.64 12.796-9.015 21.658c-1.375 8.862 1.222 34.302 1.222 34.302s-1.222-1.527-3.819-1.833c0 0 2.75 3.056 2.75 9.932 0 0-1.07-.917-2.903-.458 0 0 2.903 2.597 3.209 7.028 0 0-3.362 2.292-5.196 4.584 0 0-2.903.153-4.431.611 0 0 2.445 1.375 2.903 2.597 0 0-7.181 7.335-10.848 13.293 0 0 3.209-1.986 5.5-1.375 0 0-5.042 6.111-6.723 16.196 0 0 2.444-1.222 3.514-.611 0 0-3.056 6.417-3.208 13.14l-3.361 1.986 2.597 1.834s-1.986 8.25-2.444 12.987c0 0 1.527-1.527 2.75-1.986 0 0 1.681 3.972 3.973 7.028 2.292 3.056 7.487 5.653 10.542 5.653l.387-.054c-.17 1.054-.362 2.104-.642 3.138-.04.146-.234.244-.368.149a9.504 9.504 0 0 0-1.093-.657c-1.009-.331-1.626.098-1.626.098 1.005.25 2.204 2.201 2.476 2.975-.802-.059-1.406.134-2.198.622.758.098 1.586.488 1.586.488-4.537 1.93-5.24 4.728-6.684 6.684.447-.253 1.912-.886 1.912-.886-1.345 1.256-2.063 4.301-2.168 5.303-.137 1.297-.129 1.275-.214 2.309 1.203-.418 1.787-.46 2.761-.692 1.505-.22 5.709-.796 7.253-.636l-.243 2.97.076-.001c.792-.228 1.439-.196 2.146-.272.01-.819.053-1.637.12-2.453-.047-1.393.126-2.662.411-4.077.009-.048.021-.098.031-.146.561-1.932 1.537-3.031 2.17-3.707.21-.225.393-.491.549-.764a7.67 7.67 0 0 0 1.075-1.987c.628-1.713.359-5.479-.903-9.154 1.331 1.914 2.543 3.596 3.118 4.169l-.038-4.678s2.444 2.442 4.632 4.288c1.053.92 2.353 2.116 3.275 2.594.067.041.127-.403.2.268.009 0 .019-.133.028-.128 1.239.695 2.514 1.247 3.708 2.02.127.083.258.122.383.209.552.381 1.525.804 2.398 1.265l.827 9.758c.745-10.257 6.589-20.077 6.589-20.077l-.214-.065c-1.808-.559-15.04-5.138-22.857-21.481-.515-1.076 2.903 1.222 2.903 1.222-3.209-7.793-4.432-20.322-4.432-20.322 1.069.917 2.139 1.07 2.139 1.07-2.292-6.418-3.208-14.362-3.208-21.544-.611-38.656 13.675-47.518 13.675-47.518-2.444-.917-5.042-.84-5.042-.84 2.827-6.8 12.223-16.272 12.223-16.272-2.521.153-12.375 2.826-12.375 2.826 8.174-21.314 16.425-26.967 16.425-26.967-.61 5.118 1.375 10.543 1.375 10.543C134.826 97.477 149.066 98.5 149.066 98.5c1.056-2.2 2.256-3.699 2.256-3.699-19.099-.005-29.945 14.355-29.945 14.355m50.099 169.525s-.171-5.538-1.432-8.326c0 0 3.284 2.024 3.267 8.422 0-.001-1.621-.089-1.835-.096"/><path fill="#ABD8D7" d="M86.006 250.194c2.164-21.193 2.753-62.653 2.753-62.653-4.698 9.282-8.479 26.127-8.479 26.127l.917 3.667-2.063-.917c-3.315 11.506-1.072 26.908-.33 31.246 2.11 1.67 4.621 2.232 7.202 2.53m-4.431-.459a333.927 333.927 0 0 0 2.143 10.028c.573.086 1.218.043 1.218.043.525-2.049.613-5.221 1.021-9.122-1.506-.175-2.985-.443-4.382-.949"/><path fill="#CDE9EE" d="M153.38 267.999a.227.227 0 0 1-.267-.104c-.237.047-.42.09-.542.122l.001-.001c3.151-2.294 3.441-4.721 3.441-4.721-2.092.943-4.311 1.296-5.392 1.42 7.286-6.315 8.497-18.043 8.497-18.043-2.984 3.664-7.22 6.76-10.492 8.838l.007-.015s-2.193 1.227-4.219 2.181a.231.231 0 0 0-.244.114c-1.041.482-2.013.876-2.584.971 0 0 1.687 3.117 2.392 4.796l-.138.113s2.441 5.77 3.33 11.359c.094.944.165 1.772.217 2.404.042.817.101 1.381.101 1.381 3.228-.478 7.787-.012 7.787-.012-.021.525.268 1.788.32 2.018a36.89 36.89 0 0 1 4.626-.312c-.02-5.416-.258-14.419-6.841-12.509"/><path fill="#83BAC0" d="M85.837 251.829c-5.062-.856-9.655-6.674-9.655-6.674 3.69 3.925 8.285 4.45 8.285 4.45.606-4.482-3.098-14.74-3.098-14.74 2.744 3.416 4.244 7.369 5.065 10.604l-.597 6.36"/><path fill="#ABD8D7" d="M97.325 243.894s3.982 7.019 7.478 10.056c3.772 3.276 7.276 7.906 8.766 10.714 0 0 1.891-4.393 2.922-5.921 0-.001-11.173-3.277-19.166-14.849m51.977 13.688c.554-.779 1.188-1.503 1.792-2.243.99-1.213 2.123-2.391 2.954-3.711-1.435 1.074-3.034 2.006-4.669 2.989-4.743 3.215-8.05 4.125-8.05 4.125 1.031 1.528 2.922 5.921 2.922 5.921.901-1.699 2.544-4.066 4.534-6.396.168-.233.354-.455.517-.685"/><path fill="#545352" d="M95.815 139.371c-.435.032-1.825.067-1.825.067-12.598.879-21.857-8.883-21.857-8.883s-.828 7.62 4.645 14.297c5.474 6.677 16.566 7.82 16.566 7.82.36 1.562-.42 5.043-.42 5.043s3.243-3.588 4.067-10.385c.577-4.764-.908-7.979-1.176-7.959"/><path fill="#6E7979" d="M95.815 139.371c-.418.024-1.825.067-1.825.067-12.598.879-21.857-8.883-21.857-8.883s5.755 16.655 24.975 15.339c0 0 .532-3.081-1.293-6.523"/><path fill="#545352" d="M158.711 139.371c.434.032 1.824.067 1.824.067 12.598.879 21.857-8.883 21.857-8.883s.827 7.62-4.645 14.297c-5.475 6.677-16.565 7.82-16.565 7.82-.361 1.562.42 5.043.42 5.043s-3.244-3.588-4.067-10.385c-.579-4.764.906-7.979 1.176-7.959"/><path fill="#6E7979" d="M158.711 139.371c.417.024 1.824.067 1.824.067 12.598.879 21.857-8.883 21.857-8.883s-5.755 16.655-24.975 15.339c.001 0-.531-3.081 1.294-6.523"/><path fill="#CDE9EE" d="M89.239 195.792s-9.055 32.545 0 53.401v-53.401m90.164 51.48c-4.47 3.41-9.12 3.626-9.12 3.626-.207-4.456 4.663-14.196 4.663-14.196a10.577 10.577 0 0 0-2.731 2.314l-.031-3.27 3.514-2.902-2.826-2.292 3.59-14.438-3.438 2.291s-1.069-20.549-.306-29.411c0 0-4.354-4.355-6.494-6.112 0 0 .405 6.327.866 16.437 1.951 8.109 4.982 24.892 1.211 39.651.044 2.993.076 6.032.094 9.099 0 0 1.879 6.528 2.489 11.111 0 0 .611.172 1.529.02l-.07-7.02c4.721-1.425 7.06-4.908 7.06-4.908m-42.362-63.017c0 3.472 2.223 6.285 4.966 6.285 2.742 0 4.966-2.813 4.966-6.285s-2.224-6.286-4.966-6.286c-2.743 0-4.966 2.814-4.966 6.286"/><path fill="#FFF" d="M137.194 182.576c0 3.417 2.188 6.188 4.889 6.188s4.89-2.771 4.89-6.188c0-3.418-2.188-6.188-4.89-6.188-2.7 0-4.889 2.77-4.889 6.188"/><path fill="#474746" d="M140.785 179.386c-.039.151-.066.31-.066.478 0 .872.568 1.577 1.269 1.577.623 0 1.139-.558 1.245-1.293.399.523.646 1.229.646 2.008 0 1.615-1.052 2.922-2.349 2.922-1.296 0-2.349-1.308-2.349-2.922 0-1.29.672-2.383 1.604-2.77"/><path fill="#CDE9EE" d="M113.205 184.255c0 3.472 2.223 6.285 4.966 6.285 2.743 0 4.966-2.813 4.966-6.285s-2.223-6.286-4.966-6.286c-2.743 0-4.966 2.814-4.966 6.286"/><path fill="#FFF" d="M113.358 182.576c0 3.417 2.189 6.188 4.89 6.188s4.889-2.771 4.889-6.188c0-3.418-2.188-6.188-4.889-6.188s-4.89 2.77-4.89 6.188"/><path fill="#474746" d="M117.867 179.386c-.039.151-.066.31-.066.478 0 .872.568 1.577 1.269 1.577.622 0 1.138-.558 1.245-1.293.399.523.646 1.229.646 2.008 0 1.615-1.052 2.922-2.35 2.922s-2.349-1.308-2.349-2.922c0-1.29.673-2.383 1.605-2.77"/><path fill="#545352" d="M154.934 189.187c-.312.938-1.37 1.187-4.385 1.77l-.206.041c-2.953.565-8.233.492-11.126.069-.124-.019-.245-.036-.36-.056-2.68-.453-2.985-.8-3.848-2.19-.891-1.438-1.438-5.66-1.539-6.493l-.005-.042c-.106-.88-.16-1.32.971-1.827 1.521-.682 8.271-1.634 11.035-1.758 2.184-.097 6.812.208 8.928.517.332.049.578.093.729.134.243.065 1.141.501 1.095 1.454-.059 1.256-.869 7.112-1.289 8.381zm-29.436-6.901l-.005.042c-.101.833-.648 5.055-1.539 6.493-.862 1.39-1.167 1.737-3.848 2.19-.114.02-.235.037-.36.056-2.892.423-8.173.496-11.127-.069l-.205-.041c-3.014-.583-4.072-.832-4.384-1.77-.421-1.268-1.229-7.125-1.289-8.382-.045-.953.851-1.389 1.094-1.454a7.24 7.24 0 0 1 .729-.134c2.116-.309 6.744-.613 8.928-.517 2.766.124 9.514 1.077 11.035 1.758 1.131.507 1.078.948.971 1.828zm33.307-5.578c-2.215-.323-6.079-.69-10.719-.453-6.037.31-11.21 1.148-14.3 1.649-.923.149-1.647.268-2.2.34l-.603.082c-.679.094-1.123.153-1.502.171-.378-.019-.823-.078-1.5-.171l-.604-.082c-.553-.073-1.277-.191-2.2-.34-3.089-.501-8.262-1.339-14.299-1.649-4.639-.237-8.504.13-10.719.453 0 0-2.363.301-4.384 1.156l.385 2.568s2.135-.508 4.221-.787c.388 3.622 1.142 8.277 1.142 8.277l.012.144c.057.235.111.462.168.711.43 1.83.856 2.905 2.572 3.552 1.686.636 5.674 1.225 9.697 1.433 1.495.078 3.193-.015 4.91-.265 2.547-.372 4.85-1.058 5.73-1.708 1.281-.946 1.965-3.328 2.419-4.903l.136-.465c.16-.538.299-1.101.434-1.648.194-.786.393-1.598.564-1.877.031-.049.174-.219.735-.301.172-.025.367-.038.581-.041.214.003.409.016.582.041.56.082.703.251.734.301.17.28.37 1.092.563 1.877.135.547.274 1.111.435 1.648l.136.465c.452 1.575 1.138 3.957 2.419 4.903.88.65 3.183 1.336 5.729 1.708 1.718.25 3.415.343 4.911.265 4.022-.208 8.011-.797 9.697-1.433 1.716-.646 2.143-1.722 2.572-3.552.058-.249.111-.476.168-.711l.013-.144s.754-4.655 1.142-8.277c2.086.279 4.221.787 4.221.787l.386-2.568c-2.022-.855-4.384-1.156-4.384-1.156z"/><path fill="#A0D1DE" d="M119.704 170.204s-5.523-2.634-8.684 2.256c0 0-.327-4.863 4.134-5.407 4.461-.544 4.55 3.151 4.55 3.151m-2.071-7.148s-5.12-2.416-7.453 2.228c0 0-.762-4.057 2.892-5.037 3.654-.979 4.561 2.809 4.561 2.809m21.856 10.13s4.289-2.046 6.745 1.753c0 0 .254-3.777-3.211-4.2-3.464-.423-3.534 2.447-3.534 2.447m3.05-6.766s4.341-.703 5.084 3.265c0 0 1.44-2.864-1.075-4.38-2.517-1.518-4.009 1.115-4.009 1.115"/><path fill="#B2DCE5" d="M119.32 208.735s3.031-2.037 4.82-2.317c0 0 .39 3.844 2.167 5.737 0 0 3.837-3.458 7.63-3.704 0 0 .979 2.107 2.569 2.89l-.01.024c.574.358 1.277.721 1.958.871 0 0 2.178-1.317 2.808-3.724 0 0 .21 5.08-2.979 7.85 0 0-2.432-1.187-4.184-3.087-.525-.512-1.074-1.108-1.339-1.593 0 0-5.626 3.979-5.832 6.25 0 0-4.061-3.96-5.446-7.011 0 0-2.71.855-3.462 1.406 0 0-2.178-3.563-2.621-6.777 0 .001 2.621 2.503 3.921 3.185"/><path fill="#545352" d="M129.547 198.75c-.224-.048 5.707.41 11.53.203 0 0 .312-1.11.759-1.721 0 0-.098 1.87.426 2.253 0 0-2.915 1.147-5.854 1.138 0 0 3.202-.534 4.277-1.086.001 0-5.844.325-11.138-.787"/></svg>