<?xml version="1.0" encoding="UTF-8" standalone="no"?>
<!DOCTYPE svg PUBLIC "-//W3C//DTD SVG 1.1//EN" "http://www.w3.org/Graphics/SVG/1.1/DTD/svg11.dtd">
<svg width="100%" height="100%" viewBox="0 0 256 256" version="1.1" xmlns="http://www.w3.org/2000/svg" xmlns:xlink="http://www.w3.org/1999/xlink" xml:space="preserve" xmlns:serif="http://www.serif.com/" style="fill-rule:evenodd;clip-rule:evenodd;stroke-linejoin:round;stroke-miterlimit:2;">
    <g transform="matrix(0.859438,0,0,0.859438,17.9274,17.779)">
        <path d="M128.075,216.137L163.211,108.001L92.939,108.001L128.075,216.137Z" style="fill:rgb(226,67,41);fill-rule:nonzero;"/>
        <path d="M128.075,216.137L92.939,108L43.697,108L128.075,216.137Z" style="fill:rgb(252,109,38);fill-rule:nonzero;"/>
        <path d="M43.698,108.001L33.02,140.863C32.047,143.859 33.113,147.143 35.663,148.995L128.075,216.137L43.698,108.001Z" style="fill:rgb(252,163,38);fill-rule:nonzero;"/>
        <path d="M43.698,108.001L92.94,108.001L71.777,42.872C70.689,39.52 65.947,39.521 64.859,42.872L43.698,108.001Z" style="fill:rgb(226,67,41);fill-rule:nonzero;"/>
        <path d="M128.075,216.137L163.211,108L212.452,108L128.075,216.137Z" style="fill:rgb(252,109,38);fill-rule:nonzero;"/>
        <path d="M212.452,108.001L223.129,140.863C224.104,143.859 223.037,147.143 220.486,148.995L128.074,216.137L212.452,108.001Z" style="fill:rgb(252,163,38);fill-rule:nonzero;"/>
        <path d="M212.452,108.001L163.211,108.001L184.373,42.872C185.461,39.52 190.202,39.521 191.291,42.872L212.452,108.001Z" style="fill:rgb(226,67,41);fill-rule:nonzero;"/>
    </g>
</svg>
