<?xml version="1.0" encoding="UTF-8" standalone="no"?>
<!DOCTYPE svg PUBLIC "-//W3C//DTD SVG 1.1//EN" "http://www.w3.org/Graphics/SVG/1.1/DTD/svg11.dtd">
<svg width="100%" height="100%" viewBox="0 0 256 256" version="1.1" xmlns="http://www.w3.org/2000/svg" xmlns:xlink="http://www.w3.org/1999/xlink" xml:space="preserve" xmlns:serif="http://www.serif.com/" style="fill-rule:evenodd;clip-rule:evenodd;stroke-linejoin:round;stroke-miterlimit:2;">
    <g transform="matrix(0.96564,0,0,0.96564,4.31507,0.0363173)">
        <path d="M65.541,82.756C65.541,82.756 68.857,95.548 69.331,99.812C69.806,104.075 60.804,113.55 60.804,118.288C60.804,123.026 62.697,131.553 73.12,135.819C83.545,140.083 84.964,150.978 84.964,157.612C84.964,164.246 81.175,177.035 81.175,177.035C81.175,177.035 78.807,208.776 91.598,214.462C104.389,220.147 101.546,220.147 104.388,220.147C107.231,220.147 128.076,228.676 140.394,225.361C152.711,222.045 156.025,218.256 156.025,218.256C156.025,218.256 168.346,219.202 172.134,208.304C175.926,197.408 178.293,174.669 176.871,164.246C175.45,153.82 173.556,140.084 182.083,135.347C190.611,130.609 199.612,124.925 198.19,120.187C196.77,115.449 189.19,108.816 189.19,108.816C189.19,108.816 187.295,96.973 188.715,94.129C190.136,91.287 198.664,84.18 193.926,78.969C189.192,73.758 180.661,73.758 180.661,73.758L169.765,74.704C169.765,74.704 151.289,58.123 127.127,59.071C102.967,60.018 87.805,74.704 87.805,74.704C87.805,74.704 79.752,71.861 72.645,74.704C65.538,77.545 64.12,74.701 65.541,82.756Z" style="fill:rgb(251,169,25);fill-rule:nonzero;"/>
        <path d="M108.83,153.294C108.83,153.294 99.448,167.639 92.567,177.818C91.502,179.393 99.449,179.503 99.449,179.503L108.83,153.294ZM113.296,123.551C113.296,123.551 110.468,130.606 108.919,134.347C107.238,138.413 100.825,140.436 100.825,140.436C100.825,140.436 104.149,136.951 104.149,128.12C104.149,124.414 108.932,122.941 108.932,122.941L113.296,123.551Z" style="fill:rgb(231,135,36);fill-rule:nonzero;"/>
        <path d="M110.439,127.54C110.439,127.54 104.645,134.437 93.887,130.574C83.126,126.713 82.023,112.917 82.023,109.053C82.023,105.19 102.44,112.916 105.199,114.571C107.96,116.229 113.198,122.849 110.439,127.54ZM69.801,53.84C69.801,53.84 79.733,51.907 86.353,57.151C92.977,62.392 94.905,66.532 94.905,66.532L83.745,75.378C83.745,75.378 78.353,72.878 76.697,65.703C75.042,58.53 76.146,55.22 69.801,53.84Z" style="fill:rgb(231,135,36);fill-rule:nonzero;"/>
        <path d="M107.543,107.618C103.267,101.549 96.219,98.901 90.593,98.462C81,97.711 76.445,101.103 76.445,101.103C76.445,101.103 92.156,101.768 96.686,107.715C105.118,118.786 117.416,119.686 119.384,117.255C117.109,117.368 114.608,116.241 111.93,113.71C110.256,112.126 108.9,109.544 107.543,107.618ZM81.019,129.081C81.019,129.081 63.586,123.088 66.899,117.019C70.21,110.948 67.575,107.641 67.575,107.641C67.575,107.641 57.841,114.908 60.321,122.633C61.845,127.375 64.403,130.807 78.446,137.39C85.182,149.901 79.838,172.421 80.157,172.528C80.691,172.705 89.615,168.116 89.005,147.047C88.819,140.576 88.302,131.743 81.019,129.081ZM103.863,64.635C96.554,68.349 86.54,73.52 86.54,73.52L90.481,75.493C90.105,76.102 89.923,76.465 89.923,76.465L93.969,78.305C93.969,78.305 103.844,85.458 109.895,90.058C107.877,83.846 101.956,74.087 101.956,74.087C101.956,74.087 100.277,69.603 103.863,64.635ZM128.147,216.014C105.679,216.014 98.069,204.609 98.069,204.609L101.58,213.159C102.907,216.858 117.066,228.368 128.113,228.368" style="fill:rgb(231,135,36);fill-rule:nonzero;"/>
        <path d="M100.531,196.9C100.531,196.9 102.598,209.533 110.875,209.533C117.909,209.533 119.981,198.861 119.981,196.656L100.531,196.9ZM86.756,177.848C87.491,175.823 90.067,167.638 90.894,160.189C91.886,151.269 91.525,138.221 91.525,138.221C91.525,138.221 89.317,146.775 87.385,148.156C85.455,149.535 81.867,158.914 81.867,158.914C81.867,158.914 79.946,172.878 79.031,177.57C81.561,178.077 83.692,176.587 86.756,177.848ZM66.769,122.495C66.769,122.495 71.457,120.839 72.839,110.632C74.217,100.423 71.182,91.594 71.182,91.594C71.182,91.594 71.458,105.665 69.804,108.424C68.148,111.182 66.77,112.01 64.837,115.597C62.904,119.184 65.664,121.392 66.769,122.495Z" style="fill:rgb(231,135,36);fill-rule:nonzero;"/>
        <path d="M72.368,56.254L71.41,55.648C68.587,55.743 72.368,56.254 72.368,56.254Z" style="fill:rgb(253,193,104);fill-rule:nonzero;"/>
        <path d="M107.679,61.614C107.679,61.614 103.266,60.879 101.057,57.568C98.849,54.256 92.596,47.634 82.628,47.56C72.662,47.485 62.8,50.209 62.8,50.209L71.408,55.648C72.318,55.619 73.91,55.63 76.543,55.718C87.347,56.077 89.009,66.762 89.009,66.762L127.083,61.52" style="fill:rgb(251,169,25);fill-rule:nonzero;"/>
        <path d="M111.359,120.634C111.359,120.634 106.21,125.785 98.298,124.128C90.388,122.473 85.606,118.978 85.237,112.907C84.869,106.837 86.894,104.447 86.894,104.447C86.894,104.447 95.722,107.208 99.955,110.887C104.186,114.564 107.313,120.451 111.359,120.634Z" style="fill:white;fill-rule:nonzero;"/>
        <path d="M105.126,118.794C105.126,118.794 100.659,120.835 95.667,119.172C89.13,116.992 88.695,110.194 88.695,110.194C88.695,110.194 84.685,121.961 95.927,124.225C104.943,126.042 110.275,120.817 110.275,120.817L105.126,118.794Z" style="fill:rgb(201,201,201);fill-rule:nonzero;"/>
        <path d="M108.301,59.117C107.821,49.026 116.093,40.989 118.959,40.647C119.117,42.357 118.799,49.028 121.665,51.078C122.499,45.631 125.32,39.625 136.459,35.69C134.073,42.017 136.141,47.317 137.124,49.774C144.731,42.868 149.856,44.01 149.856,44.01C149.856,44.01 144.572,53.131 146.638,59.115C131.37,57.918 108.375,60.737 108.301,59.117ZM75.926,74.488C72.283,71.466 74.999,68.66 74.71,65.226C74.554,63.399 74.409,61.674 73.807,60.724C70.454,55.429 62.544,53.822 62.465,53.806L58.753,53.078L61.211,50.203C61.529,49.83 71.621,40.201 87.239,45.243C98.164,48.767 106.251,60.715 106.553,61.198L101.075,63.774C101.011,63.671 94.617,52.442 85.245,49.42C77.668,46.974 70.686,49.301 67.695,50.825C70.876,52.095 75.031,54.406 77.536,58.361C78.718,60.228 78.918,62.58 79.109,64.857C79.363,67.872 79.601,70.717 81.819,72.561L75.926,74.488ZM66.194,118.615C66.194,118.615 70.785,112.923 72.144,101.846C72.679,97.483 71.729,88.877 70.211,85.566C70.487,93.706 68.418,101.846 68.418,101.846C68.418,101.846 67.024,116.959 66.194,118.615Z" style="fill:rgb(70,48,20);fill-rule:nonzero;"/>
        <path d="M90.401,68.739C90.399,68.728 88.928,62.301 84.851,59.056C79.101,54.482 72.078,56.915 72.01,56.937L70.99,53.787C71.33,53.676 79.357,51.147 86.754,56.347C94.195,61.576 95.089,66.316 95.167,66.84L90.401,68.739ZM80.612,114.532C80.612,114.532 78.203,111.085 78.637,107.293C78.852,105.421 79.72,103.499 81.27,102.816C84.149,101.55 85.424,104.814 85.424,104.814C85.424,104.814 81.373,105.815 80.612,114.532Z" style="fill:rgb(70,48,20);fill-rule:nonzero;"/>
        <path d="M107.056,119.787C107.157,119.975 107.207,120.08 107.207,120.08C107.207,120.08 99.696,125.717 91.998,119.997C87.877,116.932 88.267,109.351 89.53,106.134C92.812,106.879 95.597,108.22 97.925,109.787C94.984,107.162 92.409,105.229 92.415,105.185L89.072,104.237L82.574,102.01C82.491,102.505 80.121,113.614 86.961,121.185C89.993,124.541 104.209,132.056 110.958,119.205L107.056,119.787Z" style="fill:rgb(70,48,20);fill-rule:nonzero;"/>
        <path d="M106.353,120.613C110.582,127.051 121.253,123.371 121.069,116.567C121.069,116.567 113.939,120.501 107.64,113.256C103.962,109.026 92.177,97.363 76.195,101.239C87.232,103.667 101.844,113.75 106.353,120.613Z" style="fill:rgb(70,48,20);fill-rule:nonzero;"/>
        <path d="M74.702,138.78C75.719,139.368 79.308,143.084 79.31,148.642C79.31,151.428 79.033,165.429 77.654,173.984C79.729,175.331 81.174,175.619 83.24,176.992C84.274,167.085 85.016,152.729 84.67,146.93C84.274,140.324 80.737,135.891 77.456,134C76.429,133.407 75.355,132.827 74.274,132.242C68.655,129.206 62.846,126.066 62.846,120.702C62.846,116.508 64.477,115.196 66.203,113.804L66.39,113.654C67.536,112.728 68.832,111.678 69.601,109.954C71.696,105.242 72.039,93.236 69.601,90.187C68.385,88.668 65.128,83.562 66.064,80.13C66.421,78.819 67.246,77.85 68.588,77.161C70.009,76.433 71.928,76.064 74.292,76.064C78.934,76.064 84.082,77.477 86.738,78.318C96.231,81.326 107.683,89.999 110.967,92.587L111.126,92.708L113.227,94.169L111.914,91.971C111.832,91.834 103.511,78.152 88.633,73.135C85.738,72.158 80.051,70.521 74.463,70.521C71.135,70.521 68.313,71.102 66.077,72.247C63.352,73.64 61.507,75.865 60.741,78.677C58.862,85.568 64.981,93.241 65.19,93.486C65.903,94.76 66.207,104.011 64.558,107.714C64.331,108.225 63.71,108.727 62.923,109.362C62.676,109.561 62.4,109.769 62.109,109.989C59.783,111.744 56.268,114.396 56.268,120.509C56.268,128.871 64.744,133.405 71.556,137.053C72.67,137.656 73.738,138.226 74.702,138.78Z" style="fill:rgb(70,48,20);fill-rule:nonzero;"/>
        <path d="M75.926,74.488C72.283,71.466 74.999,68.66 74.71,65.226C74.554,63.399 74.409,61.674 73.807,60.724C70.454,55.429 62.544,53.822 62.465,53.806L58.753,53.078L61.211,50.203C61.529,49.83 71.621,40.201 87.239,45.243C98.164,48.767 106.251,60.715 106.553,61.198L101.075,63.774C101.011,63.671 94.617,52.442 85.245,49.42C77.668,46.974 70.686,49.301 67.695,50.825C70.876,52.095 75.031,54.406 77.536,58.361C78.718,60.228 78.918,62.58 79.109,64.857C79.363,67.872 79.601,70.717 81.819,72.561L75.926,74.488Z" style="fill:rgb(70,48,20);fill-rule:nonzero;"/>
        <path d="M75.808,75.108L75.573,74.913C72.871,72.67 73.35,70.461 73.815,68.325C74.025,67.339 74.248,66.319 74.158,65.274C74.01,63.515 73.869,61.857 73.34,61.019C70.147,55.977 62.432,54.363 62.355,54.347L57.718,53.438L60.792,49.844C60.848,49.777 67.328,43.236 78.302,43.236C81.294,43.236 84.36,43.734 87.408,44.718C98.81,48.395 106.945,60.782 107.021,60.905L107.35,61.431L100.871,64.479L100.611,64.066C99.914,62.877 93.77,52.746 85.079,49.942C82.919,49.25 80.665,48.9 78.397,48.906C75.19,48.917 72.017,49.562 69.059,50.802C72.062,52.154 75.704,54.43 78.008,58.064C79.26,60.043 79.463,62.462 79.662,64.801C79.907,67.708 80.136,70.441 82.175,72.133L82.945,72.772L75.808,75.108Z" style="fill:rgb(70,48,20);fill-rule:nonzero;"/>
        <path d="M90.401,68.739C90.399,68.728 88.928,62.301 84.851,59.056C79.101,54.482 72.078,56.915 72.01,56.937L70.99,53.787C71.33,53.676 79.357,51.147 86.754,56.347C94.195,61.576 95.089,66.316 95.167,66.84L90.401,68.739Z" style="fill:rgb(70,48,20);fill-rule:nonzero;"/>
        <path d="M90.005,69.491L89.861,68.859C89.846,68.797 88.404,62.59 84.505,59.489C82.283,57.72 79.602,56.821 76.543,56.821C74.156,56.821 72.382,57.391 72.188,57.458L71.662,57.633L70.294,53.431L70.819,53.261C71.054,53.187 73.184,52.523 76.199,52.523C80.174,52.523 83.932,53.69 87.073,55.894C94.7,61.255 95.632,66.212 95.712,66.758L95.779,67.191L90.005,69.491ZM76.545,55.72C79.813,55.72 82.806,56.724 85.194,58.625C88.656,61.382 90.284,66.25 90.777,67.995L94.53,66.5C94.19,65.175 92.694,61.199 86.436,56.8C83.443,54.696 79.998,53.63 76.198,53.63C74.68,53.624 73.167,53.804 71.692,54.165L72.369,56.257C73.732,55.898 75.136,55.718 76.545,55.72ZM110.529,206.503C108.899,206.503 107.235,205.911 106.082,204.912C105.199,204.151 102.214,201.409 100.898,198.05C100.407,196.794 100.518,195.79 101.229,195.067C101.721,194.571 102.741,193.979 104.811,193.979L106.284,193.977C108.039,193.975 110.994,193.975 113.52,193.975L115.941,193.975C117.516,193.975 118.646,194.315 119.294,194.979C120.127,195.835 119.86,196.925 119.628,197.498C119.222,198.503 117.542,201.772 114.7,204.813C113.682,205.902 112.199,206.503 110.529,206.503ZM112.238,120.992L106.352,120.614C106.352,120.614 107.857,123.266 108.831,126.697C109.932,130.576 107.825,136.247 107.825,136.247C107.825,136.247 115.673,127.361 112.238,120.992ZM104.891,222.045C83.942,220.435 76.571,200.64 76.571,196.516L82.042,196.518L79.307,196.516L82.042,196.516C82.069,198.298 87.637,215.232 105.311,216.591L104.891,222.045Z" style="fill:rgb(70,48,20);fill-rule:nonzero;"/>
        <path d="M99.004,186.579C98.676,184.686 98.643,182.892 99.042,181.13C97.45,179.934 94.592,179.489 92.449,178.794C90.697,177.683 81.726,179.931 75.22,172.055C67.066,162.194 68.782,156.307 68.782,156.307C66.692,158.628 64.665,157.744 61.479,168.574C58.289,179.406 62.977,186.958 71.716,194.539C75.844,198.12 81.681,199.595 86.7,200.16C85.019,198.472 89.574,198.303 92.712,197.127C92.462,194.594 92.881,192.134 94.77,190.153C95.91,188.957 97.376,188.245 98.896,187.675C98.981,187.478 99.053,187.297 99.134,187.109C99.081,186.935 99.038,186.758 99.004,186.579Z" style="fill:white;fill-rule:nonzero;"/>
        <path d="M92.67,197.062C92.495,196.529 92.344,195.988 92.217,195.442C92.071,194.846 91.349,193.158 92.239,195.084C92.02,194.599 91.856,194.091 91.75,193.569C77.597,193.55 65.285,183.836 67.663,163.405C65.81,160.945 63.216,168.365 63.216,168.365C63.216,168.365 56.131,188.94 74.429,196.913C80.527,199.571 85.914,201.477 87.185,200.709C89.833,201.247 92.224,199.4 93.121,198.187C92.955,197.818 92.805,197.443 92.67,197.062Z" style="fill:rgb(201,201,201);fill-rule:nonzero;"/>
        <path d="M98.749,183.616C98.77,181.892 99.123,180.22 99.956,178.556C100.014,178.442 100.082,178.332 100.145,178.221C94.698,178.173 88.426,177.653 83.084,175.514C77.213,173.166 69.871,165.133 68.608,155.694C68.608,155.694 57.552,164.224 60.801,182.486C63.85,199.632 78.198,205.223 94.563,206.169C94.571,206.059 92.722,202.238 93.306,199.9C84.015,200.574 73.624,196.984 68.607,188.732C64.014,181.177 65.303,168.279 67.19,166.388C71.796,180.917 88.362,183.87 98.749,183.616Z" style="fill:rgb(70,48,20);fill-rule:nonzero;"/>
        <path d="M100.463,173.216C97.517,181.858 91.503,188.852 91.503,188.852C91.503,188.852 99.777,188.476 100.234,187.012C100.572,185.934 107.705,169.235 110.443,149.674C107.867,153.903 100.715,172.477 100.463,173.216Z" style="fill:rgb(70,48,20);fill-rule:nonzero;"/>
        <path d="M147.34,153.294C147.34,153.294 156.719,167.639 163.603,177.818C164.669,179.393 156.719,179.503 156.719,179.503L147.34,153.294ZM142.872,123.551C142.872,123.551 145.702,130.606 147.248,134.347C148.93,138.413 155.341,140.436 155.341,140.436C155.341,140.436 152.019,136.951 152.019,128.12C152.019,124.414 147.236,122.941 147.236,122.941L142.872,123.551Z" style="fill:rgb(231,135,36);fill-rule:nonzero;"/>
        <path d="M145.729,127.54C145.729,127.54 151.522,134.437 162.284,130.574C173.046,126.712 174.149,112.917 174.149,109.053C174.149,105.19 153.732,112.916 150.972,114.571C148.212,116.229 142.971,122.849 145.729,127.54ZM186.37,53.84C186.37,53.84 176.438,51.907 169.816,57.151C163.195,62.392 161.26,66.532 161.26,66.532L172.422,75.378C172.422,75.378 177.816,72.878 179.471,65.703C181.127,58.53 180.022,55.22 186.37,53.84Z" style="fill:rgb(231,135,36);fill-rule:nonzero;"/>
        <path d="M148.626,107.618C152.902,101.549 159.946,98.901 165.575,98.462C175.172,97.711 179.722,101.103 179.722,101.103C179.722,101.103 164.01,101.768 159.482,107.715C151.049,118.786 138.754,119.686 136.788,117.255C139.061,117.368 141.564,116.241 144.24,113.71C145.914,112.126 147.271,109.544 148.626,107.618ZM175.152,129.081C175.152,129.081 192.582,123.088 189.271,117.019C185.96,110.948 188.595,107.641 188.595,107.641C188.595,107.641 198.329,114.908 195.847,122.633C194.323,127.375 191.764,130.807 177.721,137.39C170.986,149.901 176.33,172.421 176.012,172.528C175.477,172.705 166.554,168.116 167.164,147.047C167.35,140.576 167.869,131.743 175.152,129.081ZM152.308,64.635C158.09,67.581 163.865,70.543 169.631,73.52L165.692,75.493C166.067,76.102 166.25,76.465 166.25,76.465L162.204,78.305C162.204,78.305 152.327,85.458 146.278,90.058C148.292,83.846 154.214,74.087 154.214,74.087C154.214,74.087 155.895,69.603 152.308,64.635ZM128.024,216.014C150.488,216.014 158.098,204.609 158.098,204.609L154.59,213.159C153.261,216.858 139.102,228.368 128.057,228.368" style="fill:rgb(231,135,36);fill-rule:nonzero;"/>
        <path d="M155.64,196.9C155.64,196.9 153.571,209.533 145.295,209.533C138.263,209.533 136.191,198.861 136.191,196.656L155.64,196.9ZM169.413,177.848C168.678,175.823 166.103,167.638 165.272,160.189C164.282,151.269 164.645,138.221 164.645,138.221C164.645,138.221 166.853,146.775 168.783,148.156C170.716,149.535 174.302,158.914 174.302,158.914C174.302,158.914 176.222,172.878 177.138,177.57C174.607,178.077 172.479,176.587 169.413,177.848ZM189.402,122.495C189.402,122.495 184.711,120.839 183.331,110.632C181.955,100.423 184.988,91.594 184.988,91.594C184.988,91.594 184.711,105.665 186.367,108.424C188.022,111.184 189.401,112.01 191.334,115.597C193.265,119.186 190.507,121.392 189.402,122.495Z" style="fill:rgb(231,135,36);fill-rule:nonzero;"/>
        <path d="M183.802,56.254L184.761,55.648C187.584,55.743 183.802,56.254 183.802,56.254Z" style="fill:rgb(253,193,104);fill-rule:nonzero;"/>
        <path d="M148.487,61.614C148.487,61.614 152.903,60.879 155.109,57.568C157.317,54.256 163.572,47.634 173.541,47.56C183.508,47.485 193.369,50.209 193.369,50.209L184.761,55.648C183.851,55.619 182.258,55.63 179.622,55.718C168.82,56.077 167.157,66.762 167.157,66.762L129.084,61.52" style="fill:rgb(251,169,25);fill-rule:nonzero;"/>
        <path d="M144.811,120.634C144.811,120.634 149.961,125.785 157.87,124.128C165.781,122.473 170.563,118.978 170.933,112.907C171.299,106.837 169.277,104.447 169.277,104.447C169.277,104.447 160.447,107.208 156.217,110.887C151.984,114.566 148.859,120.451 144.811,120.634Z" style="fill:white;fill-rule:nonzero;"/>
        <path d="M151.042,118.794C151.042,118.794 155.51,120.835 160.502,119.172C167.039,116.992 167.477,110.194 167.477,110.194C167.477,110.194 171.483,121.961 160.241,124.225C151.226,126.042 145.893,120.817 145.893,120.817L151.042,118.794Z" style="fill:rgb(201,201,201);fill-rule:nonzero;"/>
        <path d="M180.243,74.488C183.888,71.466 181.172,68.66 181.461,65.226C181.615,63.399 181.759,61.674 182.362,60.724C185.716,55.429 193.626,53.822 193.707,53.806L197.42,53.078L194.962,50.203C194.642,49.83 184.552,40.201 168.931,45.243C158.007,48.767 149.921,60.715 149.619,61.198L155.096,63.774C155.162,63.671 161.556,52.442 170.929,49.42C178.505,46.974 185.487,49.301 188.476,50.825C185.297,52.095 181.14,54.406 178.635,58.361C177.453,60.228 177.255,62.58 177.064,64.857C176.811,67.872 176.57,70.717 174.351,72.561L180.243,74.488ZM189.974,118.615C189.974,118.615 185.385,112.923 184.026,101.846C183.491,97.483 184.438,88.877 185.956,85.566C185.68,93.706 187.751,101.846 187.751,101.846C187.751,101.846 189.146,116.959 189.974,118.615Z" style="fill:rgb(70,48,20);fill-rule:nonzero;"/>
        <path d="M165.77,68.739C165.772,68.728 167.243,62.301 171.32,59.056C177.071,54.482 184.095,56.915 184.16,56.937L185.183,53.787C184.84,53.676 176.817,51.147 169.417,56.347C161.976,61.576 161.083,66.316 161.003,66.84L165.77,68.739ZM175.558,114.532C175.558,114.532 177.966,111.085 177.532,107.293C177.318,105.421 176.45,103.499 174.902,102.816C172.021,101.55 170.745,104.814 170.745,104.814C170.745,104.814 174.797,105.815 175.558,114.532Z" style="fill:rgb(70,48,20);fill-rule:nonzero;"/>
        <path d="M149.113,119.787C149.014,119.975 148.961,120.08 148.961,120.08C148.961,120.08 156.471,125.717 164.169,119.997C168.292,116.932 167.904,109.351 166.638,106.134C163.357,106.879 160.573,108.22 158.244,109.787C161.185,107.162 163.76,105.229 163.751,105.185L167.097,104.237L173.593,102.011C173.677,102.506 176.047,113.616 169.204,121.185C166.173,124.541 151.956,132.058 145.21,119.206L149.113,119.787Z" style="fill:rgb(70,48,20);fill-rule:nonzero;"/>
        <path d="M149.815,120.613C145.586,127.051 134.918,123.371 135.101,116.567C135.101,116.567 142.231,120.501 148.53,113.256C152.208,109.026 163.995,97.363 179.976,101.239C168.94,103.667 154.328,113.75 149.815,120.613Z" style="fill:rgb(70,48,20);fill-rule:nonzero;"/>
        <path d="M181.47,138.78C180.451,139.368 176.861,143.084 176.861,148.642C176.859,151.428 177.138,165.429 178.52,173.984C176.443,175.331 174.999,175.619 172.931,176.992C171.897,167.085 171.153,152.729 171.501,146.93C171.897,140.324 175.433,135.891 178.712,134C179.739,133.407 180.814,132.827 181.897,132.242C187.516,129.206 193.326,126.066 193.326,120.702C193.326,116.508 191.693,115.196 189.967,113.804L189.784,113.654C188.637,112.728 187.338,111.678 186.572,109.954C184.475,105.242 184.132,93.236 186.57,90.187C187.785,88.668 191.046,83.562 190.108,80.13C189.75,78.819 188.923,77.85 187.582,77.161C186.161,76.433 184.244,76.064 181.878,76.064C177.237,76.064 172.087,77.477 169.434,78.318C159.943,81.326 148.489,89.999 145.205,92.587C145.111,92.659 145.057,92.701 145.046,92.708L142.944,94.169L144.257,91.971C144.342,91.834 152.661,78.152 167.539,73.135C170.433,72.158 176.119,70.521 181.71,70.521C185.037,70.521 187.857,71.102 190.095,72.247C192.821,73.64 194.664,75.865 195.431,78.677C197.31,85.568 191.192,93.241 190.983,93.486C190.269,94.76 189.967,104.011 191.612,107.714C191.84,108.225 192.46,108.727 193.25,109.362C193.497,109.561 193.77,109.769 194.063,109.989C196.389,111.744 199.904,114.396 199.904,120.509C199.904,128.871 191.426,133.405 184.617,137.053C183.499,137.656 182.432,138.226 181.47,138.78Z" style="fill:rgb(70,48,20);fill-rule:nonzero;"/>
        <path d="M171.358,73.504C170.009,71.22 166.562,66.812 158.615,62.937C149.748,58.615 139.484,56.421 128.105,56.416L128.105,56.414L128.063,56.414L128.063,56.415C116.682,56.421 106.417,58.615 97.552,62.936C89.606,66.811 86.159,71.219 84.809,73.503L84.231,74.269L91.036,75.784L91.252,75.512L91.366,75.262C91.472,74.812 92.383,72.385 99.97,68.685C108.081,64.729 117.54,62.724 128.084,62.721C138.629,62.724 148.085,64.73 156.194,68.685C163.782,72.385 164.697,74.812 164.799,75.262L164.914,75.512L165.126,75.784L171.934,74.269L171.358,73.504ZM180.243,74.488C183.888,71.466 181.172,68.66 181.461,65.226C181.615,63.399 181.759,61.674 182.362,60.724C185.716,55.429 193.626,53.822 193.707,53.806L197.42,53.078L194.962,50.203C194.642,49.83 184.552,40.201 168.931,45.243C158.007,48.767 149.921,60.715 149.619,61.198L155.096,63.774C155.162,63.671 161.556,52.442 170.929,49.42C178.505,46.974 185.487,49.301 188.476,50.825C185.297,52.095 181.14,54.406 178.635,58.361C177.453,60.228 177.255,62.58 177.064,64.857C176.811,67.872 176.57,70.717 174.351,72.561L180.243,74.488Z" style="fill:rgb(70,48,20);fill-rule:nonzero;"/>
        <path d="M173.23,72.771L173.998,72.132C176.039,70.439 176.268,67.706 176.515,64.799C176.711,62.461 176.914,60.041 178.168,58.062C180.469,54.429 184.115,52.152 187.115,50.8C184.157,49.56 180.984,48.916 177.777,48.904C175.509,48.899 173.255,49.249 171.095,49.941C162.401,52.745 156.257,62.876 155.563,64.064L155.302,64.476L148.823,61.43L149.151,60.903C149.226,60.781 157.358,48.393 168.761,44.716C171.81,43.731 174.875,43.234 177.869,43.234C188.843,43.234 195.324,49.776 195.38,49.842L198.452,53.435L193.814,54.345C193.738,54.36 186.022,55.974 182.828,61.016C182.299,61.854 182.161,63.512 182.01,65.271C181.922,66.317 182.142,67.337 182.356,68.322C182.82,70.46 183.3,72.67 180.595,74.91L180.36,75.105L173.23,72.771Z" style="fill:rgb(70,48,20);fill-rule:nonzero;"/>
        <path d="M165.77,68.739C165.772,68.728 167.243,62.301 171.32,59.056C177.071,54.482 184.095,56.915 184.16,56.937L185.183,53.787C184.84,53.676 176.817,51.147 169.417,56.347C161.976,61.576 161.083,66.316 161.003,66.84L165.77,68.739Z" style="fill:rgb(70,48,20);fill-rule:nonzero;"/>
        <path d="M160.396,67.191L160.459,66.758C160.54,66.212 161.472,61.255 169.1,55.894C172.238,53.689 175.996,52.523 179.972,52.523C182.988,52.523 185.118,53.186 185.354,53.261L185.877,53.431L184.51,57.633L183.982,57.458C183.784,57.392 182.012,56.821 179.625,56.821C176.567,56.821 173.888,57.718 171.666,59.489C167.768,62.591 166.323,68.797 166.309,68.859L166.166,69.49L160.396,67.191ZM183.802,56.254L184.482,54.163C183.68,53.958 182.058,53.628 179.974,53.628C176.172,53.628 172.727,54.695 169.735,56.798C163.475,61.198 161.98,65.173 161.641,66.498L165.396,67.993C165.887,66.246 167.515,61.379 170.979,58.623C173.37,56.723 176.36,55.718 179.625,55.718C181.504,55.72 183.018,56.044 183.802,56.254ZM141.473,204.813C138.63,201.773 136.948,198.503 136.542,197.499C136.309,196.927 136.044,195.835 136.879,194.978C137.527,194.315 138.654,193.975 140.229,193.975L142.653,193.975C145.178,193.975 148.132,193.975 149.888,193.977L151.362,193.979C153.43,193.979 154.45,194.57 154.941,195.067C155.654,195.79 155.766,196.794 155.274,198.05C153.958,201.41 150.971,204.153 150.089,204.913C148.934,205.91 147.275,206.503 145.643,206.503C143.971,206.503 142.49,205.902 141.473,204.813ZM143.933,120.992L149.816,120.614C149.816,120.614 148.314,123.266 147.338,126.697C146.238,130.576 148.345,136.247 148.345,136.247C148.345,136.247 140.495,127.361 143.933,120.992Z" style="fill:rgb(70,48,20);fill-rule:nonzero;"/>
        <path d="M128.086,99.979C124.335,99.979 119.444,99.875 115.774,97.238C115.774,97.238 120.579,105.661 128.08,105.661L128.086,104.596L128.092,105.661C135.593,105.661 140.398,97.238 140.398,97.238C136.729,99.875 131.832,99.979 128.086,99.979Z" style="fill:rgb(231,135,36);fill-rule:nonzero;"/>
        <path d="M138.414,99.938C134.652,102.215 131.292,103.004 128.086,103.074C124.88,103.005 121.521,102.216 117.757,99.938C117.757,99.938 123.236,106.624 128.058,106.676L128.058,106.681L128.085,106.678C128.094,106.678 128.102,106.681 128.112,106.681L128.112,106.676C132.933,106.625 138.414,99.938 138.414,99.938ZM151.28,222.045L150.86,216.591C168.529,215.232 174.096,198.298 174.126,196.516L179.598,196.516C179.6,200.638 172.225,220.435 151.28,222.045Z" style="fill:rgb(70,48,20);fill-rule:nonzero;"/>
        <path d="M157.165,186.579C157.495,184.686 157.526,182.892 157.128,181.13C158.723,179.934 161.577,179.489 163.719,178.794C165.472,177.683 174.444,179.931 180.953,172.055C189.105,162.194 187.387,156.307 187.387,156.307C189.479,158.628 191.504,157.744 194.693,168.574C197.884,179.406 193.193,186.958 184.455,194.539C180.325,198.12 174.489,199.595 169.47,200.16C171.151,198.472 166.596,198.303 163.461,197.127C163.71,194.594 163.29,192.134 161.4,190.153C160.263,188.957 158.795,188.245 157.275,187.675C157.19,187.478 157.116,187.297 157.037,187.109C157.088,186.936 157.134,186.761 157.165,186.579Z" style="fill:white;fill-rule:nonzero;"/>
        <path d="M163.499,197.062C163.681,196.53 163.816,195.987 163.951,195.442C164.097,194.846 164.821,193.158 163.929,195.084C164.158,194.591 164.309,194.082 164.418,193.569C178.571,193.55 190.884,183.836 188.503,163.405C190.356,160.945 192.95,168.365 192.95,168.365C192.95,168.365 200.037,188.938 181.738,196.912C175.64,199.571 170.254,201.476 168.981,200.708C166.331,201.246 163.941,199.399 163.047,198.186C163.214,197.813 163.37,197.438 163.499,197.062Z" style="fill:rgb(201,201,201);fill-rule:nonzero;"/>
        <path d="M157.419,183.616C157.4,181.892 157.045,180.22 156.213,178.556C156.154,178.442 156.087,178.332 156.025,178.221C161.47,178.173 167.744,177.653 173.086,175.514C178.955,173.166 186.298,165.133 187.562,155.694C187.562,155.694 198.618,164.224 195.371,182.486C192.317,199.632 177.971,205.223 161.606,206.169C161.598,206.059 163.448,202.238 162.864,199.9C172.153,200.574 182.545,196.984 187.564,188.732C192.153,181.177 190.865,168.279 188.979,166.388C184.374,180.917 167.806,183.87 157.419,183.616Z" style="fill:rgb(70,48,20);fill-rule:nonzero;"/>
        <path d="M164.027,187.918C162.072,185.805 158.476,183.284 150.189,183.284L128.113,183.27L128.059,183.27L105.979,183.284C97.694,183.284 94.099,185.805 92.143,187.918C89.293,190.993 88.847,195.272 90.817,200.62C96.054,214.857 103.415,229.32 128.057,229.342L128.057,229.344L128.084,229.342L128.111,229.344L128.111,229.342C152.748,229.32 160.11,214.858 165.35,200.62C167.322,195.271 166.876,190.993 164.027,187.918ZM160.191,199.621C157.694,206.771 150.987,224.074 128.085,224.104C105.178,224.074 98.474,206.771 95.978,199.621C94.597,195.656 94.703,192.722 96.301,190.898C97.392,189.652 99.903,188.165 105.62,188.165L111.594,188.162C116,188.158 121.533,188.153 128.086,188.15C134.636,188.153 140.171,188.158 144.577,188.162L150.547,188.165C156.267,188.165 158.776,189.651 159.868,190.898C161.466,192.724 161.571,195.656 160.191,199.621Z" style="fill:rgb(70,48,20);fill-rule:nonzero;"/>
        <path d="M155.706,173.216C158.65,181.858 164.665,188.852 164.665,188.852C164.665,188.852 156.392,188.476 155.935,187.012C155.599,185.934 148.464,169.235 145.727,149.674C148.301,153.903 155.453,172.477 155.706,173.216Z" style="fill:rgb(70,48,20);fill-rule:nonzero;"/>
    </g>
</svg>
