<?xml version="1.0" encoding="utf-8"?>
<!-- Generator: Adobe Illustrator 16.0.0, SVG Export Plug-In . SVG Version: 6.00 Build 0)  -->
<!DOCTYPE svg PUBLIC "-//W3C//DTD SVG 1.1//EN" "http://www.w3.org/Graphics/SVG/1.1/DTD/svg11.dtd">
<svg version="1.1" id="Ebene_1" xmlns="http://www.w3.org/2000/svg" xmlns:xlink="http://www.w3.org/1999/xlink" x="0px" y="0px"
	 width="256px" height="256px" viewBox="0 0 256 256" enable-background="new 0 0 256 256" xml:space="preserve">
<g>
	<path fill="#FBA919" d="M65.541,82.756c0,0,3.316,12.792,3.79,17.056c0.475,4.263-8.527,13.738-8.527,18.476
		c0,4.738,1.893,13.265,12.316,17.531c10.425,4.264,11.844,15.159,11.844,21.793s-3.789,19.423-3.789,19.423
		s-2.368,31.741,10.423,37.427c12.791,5.685,9.948,5.685,12.79,5.685c2.843,0,23.688,8.529,36.006,5.214
		c12.317-3.316,15.631-7.105,15.631-7.105s12.321,0.946,16.109-9.952c3.792-10.896,6.159-33.635,4.737-44.058
		c-1.421-10.426-3.315-24.162,5.212-28.899c8.528-4.738,17.529-10.422,16.107-15.16c-1.42-4.738-9-11.371-9-11.371
		s-1.895-11.843-0.475-14.687c1.421-2.842,9.949-9.949,5.211-15.16c-4.734-5.211-13.265-5.211-13.265-5.211l-10.896,0.946
		c0,0-18.476-16.581-42.638-15.633c-24.16,0.947-39.322,15.633-39.322,15.633s-8.053-2.843-15.16,0
		C65.538,77.545,64.12,74.701,65.541,82.756L65.541,82.756L65.541,82.756z"/>
	<path fill="#E78724" d="M108.83,153.294c0,0-9.382,14.345-16.263,24.524c-1.065,1.575,6.882,1.685,6.882,1.685L108.83,153.294
		L108.83,153.294z"/>
	<path fill="#E78724" d="M113.296,123.551c0,0-2.828,7.055-4.377,10.796c-1.681,4.066-8.094,6.089-8.094,6.089
		s3.324-3.485,3.324-12.316c0-3.706,4.783-5.179,4.783-5.179L113.296,123.551L113.296,123.551z"/>
	<path fill="#E78724" d="M110.439,127.54c0,0-5.794,6.897-16.552,3.034c-10.761-3.861-11.864-17.657-11.864-21.521
		c0-3.863,20.417,3.863,23.176,5.518C107.96,116.229,113.198,122.849,110.439,127.54L110.439,127.54L110.439,127.54z"/>
	<path fill="#E78724" d="M69.801,53.84c0,0,9.932-1.933,16.552,3.311c6.624,5.241,8.552,9.381,8.552,9.381l-11.16,8.846
		c0,0-5.392-2.5-7.048-9.675C75.042,58.53,76.146,55.22,69.801,53.84L69.801,53.84L69.801,53.84z"/>
	<path fill="#E78724" d="M107.543,107.618c-4.276-6.069-11.324-8.717-16.95-9.156c-9.593-0.751-14.148,2.641-14.148,2.641
		s15.711,0.665,20.241,6.612c8.432,11.071,20.73,11.971,22.698,9.54c-2.275,0.113-4.776-1.014-7.454-3.545
		C110.256,112.126,108.9,109.544,107.543,107.618L107.543,107.618L107.543,107.618z"/>
	<path fill="#E78724" d="M81.019,129.081c0,0-17.433-5.993-14.12-12.062c3.311-6.071,0.676-9.378,0.676-9.378
		s-9.734,7.267-7.254,14.992c1.524,4.742,4.082,8.174,18.125,14.757c6.736,12.511,1.392,35.031,1.711,35.138
		c0.534,0.177,9.458-4.412,8.848-25.481C88.819,140.576,88.302,131.743,81.019,129.081L81.019,129.081L81.019,129.081z"/>
	<path fill="#E78724" d="M103.863,64.635C96.554,68.349,86.54,73.52,86.54,73.52l3.941,1.973c-0.376,0.609-0.558,0.972-0.558,0.972
		l4.046,1.84c0,0,9.875,7.153,15.926,11.753c-2.018-6.212-7.939-15.971-7.939-15.971S100.277,69.603,103.863,64.635L103.863,64.635
		L103.863,64.635z"/>
	<path fill="#E78724" d="M128.147,216.014c-22.468,0-30.078-11.405-30.078-11.405l3.511,8.55
		c1.327,3.699,15.486,15.209,26.533,15.209"/>
	<path fill="#E78724" d="M100.531,196.9c0,0,2.067,12.633,10.344,12.633c7.034,0,9.106-10.672,9.106-12.877L100.531,196.9
		L100.531,196.9z"/>
	<path fill="#E78724" d="M86.756,177.848c0.735-2.025,3.311-10.21,4.138-17.659c0.992-8.92,0.631-21.968,0.631-21.968
		s-2.208,8.554-4.14,9.935c-1.93,1.379-5.518,10.758-5.518,10.758s-1.921,13.964-2.836,18.656
		C81.561,178.077,83.692,176.587,86.756,177.848L86.756,177.848L86.756,177.848z"/>
	<path fill="#E78724" d="M66.769,122.495c0,0,4.688-1.656,6.07-11.863c1.378-10.209-1.657-19.038-1.657-19.038
		s0.276,14.071-1.378,16.83c-1.656,2.758-3.034,3.586-4.967,7.173S65.664,121.392,66.769,122.495L66.769,122.495L66.769,122.495z"/>
	<path fill="#FDC168" d="M72.368,56.254l-0.958-0.606C68.587,55.743,72.368,56.254,72.368,56.254L72.368,56.254L72.368,56.254z"/>
	<path fill="#FBA919" d="M107.679,61.614c0,0-4.413-0.735-6.622-4.046c-2.208-3.312-8.461-9.934-18.429-10.008
		C72.662,47.485,62.8,50.209,62.8,50.209l8.608,5.439c0.91-0.029,2.502-0.018,5.135,0.07c10.804,0.359,12.466,11.044,12.466,11.044
		l38.074-5.242"/>
	<path fill="#FFFFFF" d="M111.359,120.634c0,0-5.149,5.151-13.061,3.494c-7.91-1.655-12.692-5.15-13.061-11.221
		c-0.368-6.07,1.657-8.46,1.657-8.46s8.828,2.761,13.061,6.44C104.186,114.564,107.313,120.451,111.359,120.634L111.359,120.634
		L111.359,120.634z"/>
	<path fill="#C9C9C9" d="M105.126,118.794c0,0-4.467,2.041-9.459,0.378c-6.537-2.18-6.972-8.978-6.972-8.978
		s-4.01,11.767,7.232,14.031c9.016,1.817,14.348-3.408,14.348-3.408L105.126,118.794L105.126,118.794z"/>
	<path fill="#463014" d="M108.301,59.117c-0.48-10.091,7.792-18.128,10.658-18.47c0.158,1.71-0.16,8.381,2.706,10.431
		c0.834-5.447,3.655-11.453,14.794-15.388c-2.386,6.327-0.318,11.627,0.665,14.084c7.607-6.906,12.732-5.764,12.732-5.764
		s-5.284,9.121-3.218,15.105C131.37,57.918,108.375,60.737,108.301,59.117L108.301,59.117L108.301,59.117z"/>
	<path fill="#463014" d="M75.926,74.488c-3.643-3.022-0.927-5.828-1.216-9.262c-0.156-1.827-0.301-3.552-0.903-4.502
		c-3.353-5.295-11.263-6.902-11.342-6.918l-3.712-0.728l2.458-2.875c0.318-0.373,10.41-10.002,26.028-4.96
		c10.925,3.524,19.012,15.472,19.314,15.955l-5.478,2.576c-0.064-0.103-6.458-11.332-15.83-14.354
		c-7.577-2.446-14.559-0.119-17.55,1.405c3.181,1.27,7.336,3.581,9.841,7.536c1.182,1.867,1.382,4.219,1.573,6.496
		c0.254,3.015,0.492,5.86,2.71,7.704L75.926,74.488L75.926,74.488z"/>
	<path fill="#463014" d="M66.194,118.615c0,0,4.591-5.692,5.95-16.769c0.535-4.363-0.415-12.969-1.933-16.28
		c0.276,8.14-1.793,16.28-1.793,16.28S67.024,116.959,66.194,118.615L66.194,118.615L66.194,118.615z"/>
	<path fill="#463014" d="M90.401,68.739c-0.002-0.011-1.473-6.438-5.55-9.683c-5.75-4.574-12.773-2.141-12.841-2.119l-1.02-3.15
		c0.34-0.111,8.367-2.64,15.764,2.56c7.441,5.229,8.335,9.969,8.413,10.493L90.401,68.739L90.401,68.739z"/>
	<path fill="#463014" d="M80.612,114.532c0,0-2.409-3.447-1.975-7.239c0.215-1.872,1.083-3.794,2.633-4.477
		c2.879-1.266,4.154,1.998,4.154,1.998S81.373,105.815,80.612,114.532L80.612,114.532L80.612,114.532z"/>
	<path fill="#463014" d="M107.056,119.787c0.101,0.188,0.151,0.293,0.151,0.293s-7.511,5.637-15.209-0.083
		c-4.121-3.065-3.731-10.646-2.468-13.863c3.282,0.745,6.067,2.086,8.395,3.653c-2.941-2.625-5.516-4.558-5.51-4.602l-3.343-0.948
		l-6.498-2.227c-0.083,0.495-2.453,11.604,4.387,19.175c3.032,3.356,17.248,10.871,23.997-1.98L107.056,119.787L107.056,119.787z"/>
	<path fill="#463014" d="M106.353,120.613c4.229,6.438,14.9,2.758,14.716-4.046c0,0-7.13,3.934-13.429-3.311
		c-3.678-4.23-15.463-15.893-31.445-12.017C87.232,103.667,101.844,113.75,106.353,120.613L106.353,120.613L106.353,120.613z"/>
	<path fill="#463014" d="M74.702,138.78c1.017,0.588,4.606,4.304,4.608,9.862c0,2.786-0.277,16.787-1.656,25.342
		c2.075,1.347,3.52,1.635,5.586,3.008c1.034-9.907,1.776-24.263,1.43-30.062c-0.396-6.606-3.933-11.039-7.214-12.93
		c-1.027-0.593-2.101-1.173-3.182-1.758c-5.619-3.036-11.428-6.176-11.428-11.54c0-4.194,1.631-5.506,3.357-6.898l0.187-0.15
		c1.146-0.926,2.442-1.976,3.211-3.7c2.095-4.712,2.438-16.718,0-19.767c-1.216-1.519-4.473-6.625-3.537-10.057
		c0.357-1.311,1.182-2.28,2.524-2.969c1.421-0.728,3.34-1.097,5.704-1.097c4.642,0,9.79,1.413,12.446,2.254
		c9.493,3.008,20.945,11.681,24.229,14.269c0.094,0.072,0.149,0.114,0.159,0.121l2.101,1.461l-1.313-2.198
		c-0.082-0.137-8.403-13.819-23.281-18.836c-2.895-0.977-8.582-2.614-14.17-2.614c-3.328,0-6.15,0.581-8.386,1.726
		c-2.725,1.393-4.57,3.618-5.336,6.43c-1.879,6.891,4.24,14.564,4.449,14.809c0.713,1.274,1.017,10.525-0.632,14.228
		c-0.227,0.511-0.848,1.013-1.635,1.648c-0.247,0.199-0.523,0.407-0.814,0.627c-2.326,1.755-5.841,4.407-5.841,10.52
		c0,8.362,8.476,12.896,15.288,16.544C72.67,137.656,73.738,138.226,74.702,138.78L74.702,138.78L74.702,138.78z"/>
	<path fill="#463014" d="M75.926,74.488c-3.643-3.022-0.927-5.828-1.216-9.262c-0.156-1.827-0.301-3.552-0.903-4.502
		c-3.353-5.295-11.263-6.902-11.342-6.918l-3.712-0.728l2.458-2.875c0.318-0.373,10.41-10.002,26.028-4.96
		c10.925,3.524,19.012,15.472,19.314,15.955l-5.478,2.576c-0.064-0.103-6.458-11.332-15.83-14.354
		c-7.577-2.446-14.559-0.119-17.55,1.405c3.181,1.27,7.336,3.581,9.841,7.536c1.182,1.867,1.382,4.219,1.573,6.496
		c0.254,3.015,0.492,5.86,2.71,7.704L75.926,74.488L75.926,74.488z"/>
	<path fill="#463014" d="M75.808,75.108l-0.235-0.195c-2.702-2.243-2.223-4.452-1.758-6.588c0.21-0.986,0.433-2.006,0.343-3.051
		c-0.148-1.759-0.289-3.417-0.818-4.255c-3.193-5.042-10.908-6.656-10.985-6.672l-4.637-0.909l3.074-3.594
		c0.056-0.067,6.536-6.608,17.51-6.608c2.992,0,6.058,0.498,9.106,1.482c11.402,3.677,19.537,16.064,19.613,16.187l0.329,0.526
		l-6.479,3.048l-0.26-0.413c-0.697-1.189-6.841-11.32-15.532-14.124c-2.135-0.689-4.384-1.036-6.682-1.036
		c-4.164,0-7.541,1.134-9.338,1.896c3.003,1.352,6.645,3.628,8.949,7.262c1.252,1.979,1.455,4.398,1.654,6.737
		c0.245,2.907,0.474,5.64,2.513,7.332l0.77,0.639L75.808,75.108L75.808,75.108z"/>
	<path fill="#463014" d="M90.401,68.739c-0.002-0.011-1.473-6.438-5.55-9.683c-5.75-4.574-12.773-2.141-12.841-2.119l-1.02-3.15
		c0.34-0.111,8.367-2.64,15.764,2.56c7.441,5.229,8.335,9.969,8.413,10.493L90.401,68.739L90.401,68.739z"/>
	<path fill="#463014" d="M90.005,69.491l-0.144-0.632c-0.015-0.062-1.457-6.269-5.356-9.37c-2.222-1.769-4.903-2.668-7.962-2.668
		c-2.387,0-4.161,0.57-4.355,0.637l-0.526,0.175l-1.368-4.202l0.525-0.17c0.235-0.074,2.365-0.738,5.38-0.738
		c3.975,0,7.733,1.167,10.874,3.371c7.627,5.361,8.559,10.318,8.639,10.864l0.067,0.433L90.005,69.491L90.005,69.491z M76.545,55.72
		c3.268,0,6.261,1.004,8.649,2.905c3.462,2.757,5.09,7.625,5.583,9.37L94.53,66.5c-0.34-1.325-1.836-5.301-8.094-9.7
		c-2.993-2.104-6.438-3.17-10.238-3.17c-2.086,0-3.706,0.332-4.506,0.535l0.677,2.092C73.154,56.044,74.664,55.72,76.545,55.72
		L76.545,55.72L76.545,55.72z"/>
	<path fill="#463014" d="M110.529,206.503L110.529,206.503c-1.63,0-3.294-0.592-4.447-1.591c-0.883-0.761-3.868-3.503-5.184-6.862
		c-0.491-1.256-0.38-2.26,0.331-2.983c0.492-0.496,1.512-1.088,3.582-1.088l1.473-0.002c1.755-0.002,4.71-0.002,7.236-0.002h2.421
		c1.575,0,2.705,0.34,3.353,1.004c0.833,0.856,0.566,1.946,0.334,2.519c-0.406,1.005-2.086,4.274-4.928,7.315
		C113.682,205.902,112.199,206.503,110.529,206.503L110.529,206.503L110.529,206.503z"/>
	<path fill="#463014" d="M112.238,120.992l-5.886-0.378c0,0,1.505,2.652,2.479,6.083c1.101,3.879-1.006,9.55-1.006,9.55
		S115.673,127.361,112.238,120.992L112.238,120.992L112.238,120.992z"/>
	<path fill="#463014" d="M104.891,222.045c-20.949-1.61-28.32-21.405-28.32-25.529l5.471,0.002l-2.735-0.002h2.735
		c0.027,1.782,5.595,18.716,23.269,20.075L104.891,222.045L104.891,222.045z"/>
	<path fill="#FFFFFF" d="M99.004,186.579c-0.328-1.893-0.361-3.687,0.038-5.449c-1.592-1.196-4.45-1.641-6.593-2.336
		c-1.752-1.111-10.723,1.137-17.229-6.739c-8.154-9.861-6.438-15.748-6.438-15.748c-2.09,2.321-4.117,1.437-7.303,12.267
		c-3.19,10.832,1.498,18.384,10.237,25.965c4.128,3.581,9.965,5.056,14.984,5.621c-1.681-1.688,2.874-1.857,6.012-3.033
		c-0.25-2.533,0.169-4.993,2.058-6.974c1.14-1.196,2.606-1.908,4.126-2.478c0.085-0.197,0.157-0.378,0.238-0.566
		C99.084,186.936,99.036,186.761,99.004,186.579L99.004,186.579L99.004,186.579z"/>
	<path fill="#C9C9C9" d="M92.67,197.062c-0.182-0.532-0.319-1.075-0.453-1.62c-0.146-0.596-0.868-2.284,0.022-0.358
		c-0.229-0.493-0.378-1.002-0.489-1.515c-14.153-0.019-26.465-9.733-24.087-30.164c-1.853-2.46-4.447,4.96-4.447,4.96
		s-7.085,20.575,11.213,28.548c6.098,2.658,11.485,4.564,12.756,3.796c2.648,0.538,5.039-1.309,5.936-2.522
		C92.954,197.813,92.802,197.438,92.67,197.062L92.67,197.062L92.67,197.062z"/>
	<path fill="#463014" d="M98.749,183.616c0.021-1.724,0.374-3.396,1.207-5.06c0.058-0.114,0.126-0.224,0.189-0.335
		c-5.447-0.048-11.719-0.568-17.061-2.707c-5.871-2.348-13.213-10.381-14.476-19.82c0,0-11.056,8.53-7.807,26.792
		c3.049,17.146,17.397,22.737,33.762,23.683c0.008-0.11-1.841-3.931-1.257-6.269c-9.291,0.674-19.682-2.916-24.699-11.168
		c-4.593-7.555-3.304-20.453-1.417-22.344C71.796,180.917,88.362,183.87,98.749,183.616L98.749,183.616L98.749,183.616z"/>
	<path fill="#463014" d="M100.463,173.216c-2.946,8.642-8.96,15.636-8.96,15.636s8.274-0.376,8.731-1.84
		c0.338-1.078,7.471-17.777,10.209-37.338C107.867,153.903,100.715,172.477,100.463,173.216L100.463,173.216L100.463,173.216z"/>
	<path fill="#E78724" d="M147.34,153.294c0,0,9.379,14.345,16.263,24.524c1.066,1.575-6.884,1.685-6.884,1.685L147.34,153.294
		L147.34,153.294z"/>
	<path fill="#E78724" d="M142.872,123.551c0,0,2.83,7.055,4.376,10.796c1.682,4.066,8.093,6.089,8.093,6.089
		s-3.322-3.485-3.322-12.316c0-3.706-4.783-5.179-4.783-5.179L142.872,123.551L142.872,123.551z"/>
	<path fill="#E78724" d="M145.729,127.54c0,0,5.793,6.897,16.555,3.034c10.762-3.862,11.865-17.657,11.865-21.521
		c0-3.863-20.417,3.863-23.177,5.518C148.212,116.229,142.971,122.849,145.729,127.54L145.729,127.54L145.729,127.54z"/>
	<path fill="#E78724" d="M186.37,53.84c0,0-9.932-1.933-16.554,3.311c-6.621,5.241-8.556,9.381-8.556,9.381l11.162,8.846
		c0,0,5.394-2.5,7.049-9.675C181.127,58.53,180.022,55.22,186.37,53.84L186.37,53.84L186.37,53.84z"/>
	<path fill="#E78724" d="M148.626,107.618c4.276-6.069,11.32-8.717,16.949-9.156c9.597-0.751,14.147,2.641,14.147,2.641
		s-15.712,0.665-20.24,6.612c-8.433,11.071-20.728,11.971-22.694,9.54c2.273,0.113,4.776-1.014,7.452-3.545
		C145.914,112.126,147.271,109.544,148.626,107.618L148.626,107.618L148.626,107.618z"/>
	<path fill="#E78724" d="M175.152,129.081c0,0,17.43-5.993,14.119-12.062c-3.311-6.071-0.676-9.378-0.676-9.378
		s9.734,7.267,7.252,14.992c-1.524,4.742-4.083,8.174-18.126,14.757c-6.735,12.511-1.391,35.031-1.709,35.138
		c-0.535,0.177-9.458-4.412-8.848-25.481C167.35,140.576,167.869,131.743,175.152,129.081L175.152,129.081L175.152,129.081z"/>
	<path fill="#E78724" d="M152.308,64.635c7.307,3.713,17.323,8.885,17.323,8.885l-3.939,1.973c0.375,0.609,0.558,0.972,0.558,0.972
		l-4.046,1.84c0,0-9.877,7.153-15.926,11.753c2.014-6.212,7.936-15.971,7.936-15.971S155.895,69.603,152.308,64.635L152.308,64.635
		L152.308,64.635z"/>
	<path fill="#E78724" d="M128.024,216.014c22.464,0,30.074-11.405,30.074-11.405l-3.508,8.55
		c-1.329,3.699-15.488,15.209-26.533,15.209"/>
	<path fill="#E78724" d="M155.64,196.9c0,0-2.069,12.633-10.345,12.633c-7.032,0-9.104-10.672-9.104-12.877L155.64,196.9
		L155.64,196.9z"/>
	<path fill="#E78724" d="M169.413,177.848c-0.735-2.025-3.31-10.21-4.141-17.659c-0.99-8.92-0.627-21.968-0.627-21.968
		s2.208,8.554,4.138,9.935c1.933,1.379,5.519,10.758,5.519,10.758s1.92,13.964,2.836,18.656
		C174.607,178.077,172.479,176.587,169.413,177.848L169.413,177.848L169.413,177.848z"/>
	<path fill="#E78724" d="M189.402,122.495c0,0-4.691-1.656-6.071-11.863c-1.376-10.209,1.657-19.038,1.657-19.038
		s-0.277,14.071,1.379,16.83c1.655,2.76,3.034,3.586,4.967,7.173C193.265,119.186,190.507,121.392,189.402,122.495L189.402,122.495
		L189.402,122.495z"/>
	<path fill="#FDC168" d="M183.802,56.254l0.959-0.606C187.584,55.743,183.802,56.254,183.802,56.254L183.802,56.254L183.802,56.254z
		"/>
	<path fill="#FBA919" d="M148.487,61.614c0,0,4.416-0.735,6.622-4.046c2.208-3.312,8.463-9.934,18.432-10.008
		c9.967-0.075,19.828,2.649,19.828,2.649l-8.608,5.439c-0.91-0.029-2.503-0.018-5.139,0.07
		c-10.802,0.359-12.465,11.044-12.465,11.044l-38.073-5.242"/>
	<path fill="#FFFFFF" d="M144.811,120.634c0,0,5.15,5.151,13.059,3.494c7.911-1.655,12.693-5.15,13.063-11.221
		c0.366-6.07-1.656-8.46-1.656-8.46s-8.83,2.761-13.06,6.44C151.984,114.566,148.859,120.451,144.811,120.634L144.811,120.634
		L144.811,120.634z"/>
	<path fill="#C9C9C9" d="M151.042,118.794c0,0,4.468,2.041,9.46,0.378c6.537-2.18,6.975-8.978,6.975-8.978
		s4.006,11.767-7.236,14.031c-9.015,1.817-14.348-3.408-14.348-3.408L151.042,118.794L151.042,118.794z"/>
	<path fill="#463014" d="M180.243,74.488c3.645-3.022,0.929-5.828,1.218-9.262c0.154-1.827,0.298-3.552,0.901-4.502
		c3.354-5.295,11.264-6.902,11.345-6.918l3.713-0.728l-2.458-2.875c-0.32-0.373-10.41-10.002-26.031-4.96
		c-10.924,3.524-19.01,15.472-19.312,15.955l5.477,2.576c0.066-0.103,6.46-11.332,15.833-14.354
		c7.576-2.446,14.558-0.119,17.547,1.405c-3.179,1.27-7.336,3.581-9.841,7.536c-1.182,1.867-1.38,4.219-1.571,6.496
		c-0.253,3.015-0.494,5.86-2.713,7.704L180.243,74.488L180.243,74.488z"/>
	<path fill="#463014" d="M189.974,118.615c0,0-4.589-5.692-5.948-16.769c-0.535-4.363,0.412-12.969,1.93-16.28
		c-0.276,8.14,1.795,16.28,1.795,16.28S189.146,116.959,189.974,118.615L189.974,118.615L189.974,118.615z"/>
	<path fill="#463014" d="M165.77,68.739c0.002-0.011,1.473-6.438,5.55-9.683c5.751-4.574,12.775-2.141,12.84-2.119l1.023-3.15
		c-0.343-0.111-8.366-2.64-15.766,2.56c-7.441,5.229-8.334,9.969-8.414,10.493L165.77,68.739L165.77,68.739z"/>
	<path fill="#463014" d="M175.558,114.532c0,0,2.408-3.447,1.974-7.239c-0.214-1.872-1.082-3.794-2.63-4.477
		c-2.881-1.266-4.157,1.998-4.157,1.998S174.797,105.815,175.558,114.532L175.558,114.532L175.558,114.532z"/>
	<path fill="#463014" d="M149.113,119.787c-0.099,0.188-0.152,0.293-0.152,0.293s7.51,5.637,15.208-0.083
		c4.123-3.065,3.735-10.646,2.469-13.863c-3.281,0.745-6.065,2.086-8.394,3.653c2.941-2.625,5.516-4.558,5.507-4.602l3.346-0.948
		l6.496-2.226c0.084,0.495,2.454,11.605-4.389,19.174c-3.031,3.356-17.248,10.873-23.994-1.979L149.113,119.787L149.113,119.787z"/>
	<path fill="#463014" d="M149.815,120.613c-4.229,6.438-14.897,2.758-14.714-4.046c0,0,7.13,3.934,13.429-3.311
		c3.678-4.23,15.465-15.893,31.446-12.017C168.94,103.667,154.328,113.75,149.815,120.613L149.815,120.613L149.815,120.613z"/>
	<path fill="#463014" d="M181.47,138.78c-1.019,0.588-4.609,4.304-4.609,9.862c-0.002,2.786,0.277,16.787,1.659,25.342
		c-2.077,1.347-3.521,1.635-5.589,3.008c-1.034-9.907-1.778-24.263-1.43-30.062c0.396-6.606,3.932-11.039,7.211-12.93
		c1.027-0.593,2.102-1.173,3.185-1.758c5.619-3.036,11.429-6.176,11.429-11.54c0-4.194-1.633-5.506-3.359-6.898l-0.183-0.15
		c-1.147-0.926-2.446-1.976-3.212-3.7c-2.097-4.712-2.44-16.718-0.002-19.767c1.215-1.519,4.476-6.625,3.538-10.057
		c-0.358-1.311-1.185-2.28-2.526-2.969c-1.421-0.728-3.338-1.097-5.704-1.097c-4.641,0-9.791,1.413-12.444,2.254
		c-9.491,3.008-20.945,11.681-24.229,14.269c-0.094,0.072-0.148,0.114-0.159,0.121l-2.102,1.461l1.313-2.198
		c0.085-0.137,8.404-13.819,23.282-18.836c2.894-0.977,8.58-2.614,14.171-2.614c3.327,0,6.147,0.581,8.385,1.726
		c2.726,1.393,4.569,3.618,5.336,6.43c1.879,6.891-4.239,14.564-4.448,14.809c-0.714,1.274-1.016,10.525,0.629,14.228
		c0.228,0.511,0.848,1.013,1.638,1.648c0.247,0.199,0.52,0.407,0.813,0.627c2.326,1.755,5.841,4.407,5.841,10.52
		c0,8.362-8.478,12.896-15.287,16.544C183.499,137.656,182.432,138.226,181.47,138.78L181.47,138.78L181.47,138.78z"/>
	<path fill="#463014" d="M171.358,73.504c-1.349-2.284-4.796-6.692-12.743-10.567c-8.867-4.322-19.131-6.516-30.51-6.521v-0.002
		h-0.021h-0.021v0.001c-11.381,0.006-21.646,2.2-30.511,6.521c-7.946,3.875-11.393,8.283-12.743,10.567l-0.578,0.766l6.805,1.515
		l0.216-0.272l0.114-0.25c0.106-0.45,1.017-2.877,8.604-6.577c8.111-3.956,17.57-5.961,28.114-5.964
		c10.545,0.003,20.001,2.009,28.11,5.964c7.588,3.7,8.503,6.127,8.605,6.577l0.115,0.25l0.212,0.272l6.808-1.515L171.358,73.504
		L171.358,73.504z"/>
	<path fill="#463014" d="M180.243,74.488c3.645-3.022,0.929-5.828,1.218-9.262c0.154-1.827,0.298-3.552,0.901-4.502
		c3.354-5.295,11.264-6.902,11.345-6.918l3.713-0.728l-2.458-2.875c-0.32-0.373-10.41-10.002-26.031-4.96
		c-10.924,3.524-19.01,15.472-19.312,15.955l5.477,2.576c0.066-0.103,6.46-11.332,15.833-14.354
		c7.576-2.446,14.558-0.119,17.547,1.405c-3.179,1.27-7.336,3.581-9.841,7.536c-1.182,1.867-1.38,4.219-1.571,6.496
		c-0.253,3.015-0.494,5.86-2.713,7.704L180.243,74.488L180.243,74.488z"/>
	<path fill="#463014" d="M173.23,72.771l0.768-0.639c2.041-1.693,2.27-4.426,2.517-7.333c0.196-2.338,0.399-4.758,1.653-6.737
		c2.301-3.633,5.947-5.91,8.947-7.262c-1.797-0.762-5.175-1.896-9.338-1.896c-2.301,0-4.545,0.348-6.682,1.037
		c-8.694,2.804-14.838,12.935-15.532,14.123l-0.261,0.412l-6.479-3.046l0.328-0.527c0.075-0.122,8.207-12.51,19.61-16.187
		c3.049-0.985,6.114-1.482,9.108-1.482c10.974,0,17.455,6.542,17.511,6.608l3.072,3.593l-4.638,0.91
		c-0.076,0.015-7.792,1.629-10.986,6.671c-0.529,0.838-0.667,2.496-0.818,4.255c-0.088,1.046,0.132,2.066,0.346,3.051
		c0.464,2.138,0.944,4.348-1.761,6.588l-0.235,0.195L173.23,72.771L173.23,72.771z"/>
	<path fill="#463014" d="M165.77,68.739c0.002-0.011,1.473-6.438,5.55-9.683c5.751-4.574,12.775-2.141,12.84-2.119l1.023-3.15
		c-0.343-0.111-8.366-2.64-15.766,2.56c-7.441,5.229-8.334,9.969-8.414,10.493L165.77,68.739L165.77,68.739z"/>
	<path fill="#463014" d="M160.396,67.191l0.063-0.433c0.081-0.546,1.013-5.503,8.641-10.864c3.138-2.205,6.896-3.371,10.872-3.371
		c3.016,0,5.146,0.663,5.382,0.738l0.523,0.17l-1.367,4.202l-0.528-0.175c-0.198-0.066-1.97-0.637-4.357-0.637
		c-3.058,0-5.737,0.897-7.959,2.668c-3.898,3.102-5.343,9.308-5.357,9.37l-0.143,0.631L160.396,67.191L160.396,67.191z
		 M183.802,56.254l0.68-2.091c-0.802-0.205-2.424-0.535-4.508-0.535c-3.802,0-7.247,1.067-10.239,3.17
		c-6.26,4.4-7.755,8.375-8.094,9.7l3.755,1.495c0.491-1.747,2.119-6.614,5.583-9.37c2.391-1.9,5.381-2.905,8.646-2.905
		C181.504,55.72,183.018,56.044,183.802,56.254L183.802,56.254L183.802,56.254z"/>
	<path fill="#463014" d="M141.473,204.813c-2.843-3.04-4.525-6.31-4.931-7.314c-0.233-0.572-0.498-1.664,0.337-2.521
		c0.648-0.663,1.775-1.003,3.35-1.003h2.424c2.525,0,5.479,0,7.235,0.002l1.474,0.002c2.068,0,3.088,0.591,3.579,1.088
		c0.713,0.723,0.825,1.727,0.333,2.983c-1.316,3.36-4.303,6.103-5.185,6.863c-1.155,0.997-2.814,1.59-4.446,1.59l0,0
		C143.971,206.503,142.49,205.902,141.473,204.813L141.473,204.813L141.473,204.813z"/>
	<path fill="#463014" d="M143.933,120.992l5.883-0.378c0,0-1.502,2.652-2.478,6.083c-1.1,3.879,1.007,9.55,1.007,9.55
		S140.495,127.361,143.933,120.992L143.933,120.992L143.933,120.992z"/>
	<path fill="#E78724" d="M128.086,99.979c-3.751,0-8.642-0.104-12.312-2.741c0,0,4.805,8.423,12.306,8.423l0.006-1.065l0.006,1.065
		c7.501,0,12.306-8.423,12.306-8.423C136.729,99.875,131.832,99.979,128.086,99.979L128.086,99.979L128.086,99.979z"/>
	<path fill="#463014" d="M138.414,99.938c-3.762,2.277-7.122,3.066-10.328,3.136c-3.206-0.069-6.565-0.858-10.329-3.136
		c0,0,5.479,6.686,10.301,6.738v0.005c0.009,0,0.018-0.003,0.027-0.003c0.009,0,0.017,0.003,0.027,0.003v-0.005
		C132.933,106.625,138.414,99.938,138.414,99.938L138.414,99.938L138.414,99.938z"/>
	<path fill="#463014" d="M151.28,222.045l-0.42-5.454c17.669-1.359,23.236-18.293,23.266-20.075h5.472
		C179.6,200.638,172.225,220.435,151.28,222.045L151.28,222.045L151.28,222.045z"/>
	<path fill="#FFFFFF" d="M157.165,186.579c0.33-1.893,0.361-3.687-0.037-5.449c1.595-1.196,4.449-1.641,6.591-2.336
		c1.753-1.111,10.725,1.137,17.234-6.739c8.152-9.861,6.434-15.748,6.434-15.748c2.092,2.321,4.117,1.437,7.306,12.267
		c3.191,10.832-1.5,18.384-10.238,25.965c-4.13,3.581-9.966,5.056-14.985,5.621c1.681-1.688-2.874-1.857-6.009-3.033
		c0.249-2.533-0.171-4.993-2.061-6.974c-1.137-1.196-2.605-1.908-4.125-2.478c-0.085-0.197-0.159-0.378-0.238-0.566
		C157.088,186.936,157.134,186.761,157.165,186.579L157.165,186.579L157.165,186.579z"/>
	<path fill="#C9C9C9" d="M163.499,197.062c0.182-0.532,0.317-1.075,0.452-1.62c0.146-0.596,0.87-2.284-0.022-0.358
		c0.229-0.493,0.38-1.002,0.489-1.515c14.153-0.019,26.466-9.733,24.085-30.164c1.853-2.46,4.447,4.96,4.447,4.96
		s7.087,20.573-11.212,28.547c-6.098,2.659-11.484,4.564-12.757,3.796c-2.65,0.538-5.04-1.309-5.934-2.522
		C163.214,197.813,163.37,197.438,163.499,197.062L163.499,197.062L163.499,197.062z"/>
	<path fill="#463014" d="M157.419,183.616c-0.019-1.724-0.374-3.396-1.206-5.06c-0.059-0.114-0.126-0.224-0.188-0.335
		c5.445-0.048,11.719-0.568,17.061-2.707c5.869-2.348,13.212-10.381,14.476-19.82c0,0,11.056,8.53,7.809,26.792
		c-3.054,17.146-17.4,22.737-33.765,23.683c-0.008-0.11,1.842-3.931,1.258-6.269c9.289,0.674,19.681-2.916,24.7-11.168
		c4.589-7.555,3.301-20.453,1.415-22.344C184.374,180.917,167.806,183.87,157.419,183.616L157.419,183.616L157.419,183.616z"/>
	<path fill="#463014" d="M164.027,187.918c-1.955-2.113-5.551-4.634-13.838-4.634c0,0-15.713-0.009-22.076-0.014l0,0h-0.027h-0.027
		c-6.361,0.005-22.08,0.014-22.08,0.014c-8.285,0-11.88,2.521-13.836,4.634c-2.85,3.075-3.296,7.354-1.326,12.702
		c5.237,14.237,12.598,28.7,37.24,28.722v0.002c0.009,0,0.018-0.002,0.027-0.002c0.009,0,0.017,0.002,0.027,0.002v-0.002
		c24.637-0.022,31.999-14.484,37.239-28.722C167.322,195.271,166.876,190.993,164.027,187.918L164.027,187.918L164.027,187.918z
		 M160.191,199.621c-2.497,7.15-9.204,24.453-32.106,24.483c-22.907-0.03-29.611-17.333-32.107-24.483
		c-1.381-3.965-1.275-6.899,0.323-8.723c1.091-1.246,3.602-2.733,9.319-2.733l5.974-0.003c4.406-0.004,9.939-0.009,16.492-0.012
		c6.55,0.003,12.085,0.008,16.491,0.012l5.97,0.003c5.72,0,8.229,1.486,9.321,2.733
		C161.466,192.724,161.571,195.656,160.191,199.621L160.191,199.621L160.191,199.621z"/>
	<path fill="#463014" d="M155.706,173.216c2.944,8.642,8.959,15.636,8.959,15.636s-8.273-0.376-8.73-1.84
		c-0.336-1.078-7.471-17.777-10.208-37.338C148.301,153.903,155.453,172.477,155.706,173.216L155.706,173.216L155.706,173.216z"/>
</g>
</svg>
