<svg xmlns="http://www.w3.org/2000/svg" width="256" height="256" viewBox="0 155 256 256"><path fill="#D34A47" d="M155.194 387.018l2.125-35.4 5.866-10.013s-13.352 5.461-35.703 5.461c-22.352 0-35.501-5.36-35.501-5.36l6.574 10.924 2.326 34.389c0 3.687 12.158 6.675 27.157 6.675 14.998-.002 27.156-2.99 27.156-6.676m-6.7-165.312l4.459-17.625 24.693-25.983-6.509-5.543-26.144 27.679-5.177 21.058a346.388 346.388 0 0 0-11.694-.195c-27.533 0-49.854 3.138-49.854 7.008 0 3.871 22.321 7.008 49.854 7.008s49.854-3.138 49.854-7.008c.001-2.851-12.105-5.304-29.482-6.399"/><path fill="#FFF" d="M145.899 231.577s-.965.216-3.807.229c-2.841.012-4.858-.018-5.662-.75-.217-.196-.335-.587-.333-.851.002-.503.359-.8.813-.985l.431.675c-.188.064-.294.141-.295.222-.001.382 2.906.644 5.13.615 2.224-.027 4.91-.21 4.913-.587 0-.114-.204-.221-.557-.306l.428-.67c.576.179 1.079.524 1.078 1.123-.004 1.016-1.299 1.171-2.139 1.285"/><path fill="#D34A47" d="M177.598 178.148c.621-.717-.321-2.552-2.104-4.097-1.783-1.544-3.733-2.215-4.355-1.498-.621.717.321 2.552 2.105 4.096 1.782 1.545 3.733 2.217 4.354 1.499m-23.59 122.402c-.586-5.631 12.315-13.785 9.005-14.046-7.128.407-10.675 8.353-14.262 16.674-1.313 3.05-5.811 16.055-8.76 14.454-2.948-1.601 3.822-12.295 5.721-18.646-2.19 1.606-10.221 7.846-12.291 2.002-3.327 2.826-10.437 4.357-9.635-3.066-1.771 3.136-5.743 7.514-10.512 5.694-6.263-2.389 3.629-22.338 6.088-21.331 2.46 1.006-.496 5.551-1.271 7.314-1.703 3.885-3.67 8.767-2.356 9.766 2.251 1.713 8.377-6.478 8.514-6.657 1.146-1.514 4.41-11.417 7.041-10.28 2.631 1.138-6.563 14.213-3.125 16.809.693.523 3.529-.323 5.255-2.19 1.117-1.207.733-3.882 4.454-12.757 3.722-8.875 7.039-19.928 9.591-19.086 2.553.842.448 6.515-.467 8.629-4.297 9.925-11.727 26.322-8.223 25.081 3.504-1.24 5.329-1.313 8.76-5.329 3.432-4.016 3.273-10.629 5.56-10.488 2.288.141 1.904 2.262 1.349 3.877 2.251-2.576 10.67-8.001 12.703-2.629 2.407 6.361-12.045 15.549-8.441 15.081 3.513-.457 9.205-4.063 11.635-7.34l6.689-60.138s-6.731 5.57-49.554 5.57c-42.824 0-48.858-5.455-48.858-5.455l5.695 54.892c3.023-8.591 10.201-25.969 21.516-25.385 5.147.265 12.018 10.176 6.132 10.512-2.491.142-2.744-4.947-5.694-5.694-2.129-.54-5.092 1.191-7.008 3.066-3.82 3.738-12.036 18.489-10.95 25.842 1.383 9.375 12.937-3.258 14.892-7.009 1.377-2.642 2.307-10.47 5.318-9.648 3.012.821-.263 8.899-2.445 16.042-2.452 8.02-3.741 16.479-6.814 15.507-3.074-.973 1.933-11.326 1.751-13.141-2.889 2.666-8.211 9.414-15.02 6.074l3.537 34.087s9.4 7.428 37.717 7.428 38.065-7.312 38.065-7.312l4.392-39.481c-3.595 3.498-14.967 9.711-15.694 2.707"/></svg>