<?xml version="1.0" encoding="UTF-8" standalone="no"?>
<!DOCTYPE svg PUBLIC "-//W3C//DTD SVG 1.1//EN" "http://www.w3.org/Graphics/SVG/1.1/DTD/svg11.dtd">
<svg width="100%" height="100%" viewBox="0 0 256 256" version="1.1" xmlns="http://www.w3.org/2000/svg" xmlns:xlink="http://www.w3.org/1999/xlink" xml:space="preserve" xmlns:serif="http://www.serif.com/" style="fill-rule:evenodd;clip-rule:evenodd;stroke-linejoin:round;stroke-miterlimit:2;">
    <g transform="matrix(0.975485,0,0,0.975485,3.01894,3.15764)">
        <path d="M155.194,232.018L157.319,196.618L163.185,186.605C163.185,186.605 149.833,192.066 127.482,192.066C105.13,192.066 91.981,186.706 91.981,186.706L98.555,197.63L100.881,232.019C100.881,235.706 113.039,238.694 128.038,238.694C143.036,238.692 155.194,235.704 155.194,232.018M148.494,66.706L152.953,49.081L177.646,23.098L171.137,17.555L144.993,45.234L139.816,66.292C135.919,66.161 132.021,66.096 128.122,66.097C100.589,66.097 78.268,69.235 78.268,73.105C78.268,76.976 100.589,80.113 128.122,80.113C155.655,80.113 177.976,76.975 177.976,73.105C177.977,70.254 165.871,67.801 148.494,66.706" style="fill:rgb(211,74,71);fill-rule:nonzero;"/>
        <path d="M145.899,76.577C145.899,76.577 144.934,76.793 142.092,76.806C139.251,76.818 137.234,76.788 136.43,76.056C136.213,75.86 136.095,75.469 136.097,75.205C136.099,74.702 136.456,74.405 136.91,74.22L137.341,74.895C137.153,74.959 137.047,75.036 137.046,75.117C137.045,75.499 139.952,75.761 142.176,75.732C144.4,75.705 147.086,75.522 147.089,75.145C147.089,75.031 146.885,74.924 146.532,74.839L146.96,74.169C147.536,74.348 148.039,74.693 148.038,75.292C148.034,76.308 146.739,76.463 145.899,76.577" style="fill:white;fill-rule:nonzero;"/>
        <path d="M177.598,23.148C178.219,22.431 177.277,20.596 175.494,19.051C173.711,17.507 171.761,16.836 171.139,17.553C170.518,18.27 171.46,20.105 173.244,21.649C175.026,23.194 176.977,23.866 177.598,23.148M154.008,145.55C153.422,139.919 166.323,131.765 163.013,131.504C155.885,131.911 152.338,139.857 148.751,148.178C147.438,151.228 142.94,164.233 139.991,162.632C137.043,161.031 143.813,150.337 145.712,143.986C143.522,145.592 135.491,151.832 133.421,145.988C130.094,148.814 122.984,150.345 123.786,142.922C122.015,146.058 118.043,150.436 113.274,148.616C107.011,146.227 116.903,126.278 119.362,127.285C121.822,128.291 118.866,132.836 118.091,134.599C116.388,138.484 114.421,143.366 115.735,144.365C117.986,146.078 124.112,137.887 124.249,137.708C125.395,136.194 128.659,126.291 131.29,127.428C133.921,128.566 124.727,141.641 128.165,144.237C128.858,144.76 131.694,143.914 133.42,142.047C134.537,140.84 134.153,138.165 137.874,129.29C141.596,120.415 144.913,109.362 147.465,110.204C150.018,111.046 147.913,116.719 146.998,118.833C142.701,128.758 135.271,145.155 138.775,143.914C142.279,142.674 144.104,142.601 147.535,138.585C150.967,134.569 150.808,127.956 153.095,128.097C155.383,128.238 154.999,130.359 154.444,131.974C156.695,129.398 165.114,123.973 167.147,129.345C169.554,135.706 155.102,144.894 158.706,144.426C162.219,143.969 167.911,140.363 170.341,137.086L177.03,76.948C177.03,76.948 170.299,82.518 127.476,82.518C84.652,82.518 78.618,77.063 78.618,77.063L84.313,131.955C87.336,123.364 94.514,105.986 105.829,106.57C110.976,106.835 117.847,116.746 111.961,117.082C109.47,117.224 109.217,112.135 106.267,111.388C104.138,110.848 101.175,112.579 99.259,114.454C95.439,118.192 87.223,132.943 88.309,140.296C89.692,149.671 101.246,137.038 103.201,133.287C104.578,130.645 105.508,122.817 108.519,123.639C111.531,124.46 108.256,132.538 106.074,139.681C103.622,147.701 102.333,156.16 99.26,155.188C96.186,154.215 101.193,143.862 101.011,142.047C98.122,144.713 92.8,151.461 85.991,148.121L89.528,182.208C89.528,182.208 98.928,189.636 127.245,189.636C155.562,189.636 165.31,182.324 165.31,182.324L169.702,142.843C166.107,146.341 154.735,152.554 154.008,145.55" style="fill:rgb(211,74,71);fill-rule:nonzero;"/>
    </g>
</svg>
