<svg xmlns="http://www.w3.org/2000/svg" width="256" height="256" viewBox="0 52.5 256 256"><path fill="#E44D26" d="M203.947 114.979L190.109 270l-62.203 17.245-62.031-17.221-13.822-155.045h151.894z"/><path fill="#F16529" d="M128 274.063l50.262-13.935 11.826-132.472H128v146.407z"/><path fill="#EBEBEB" d="M101.1 165.688H128v-19.016H80.318l.455 5.102 4.674 52.401H128V185.16h-25.163l-1.737-19.472zm4.285 47.996H86.296l2.664 29.856 38.953 10.813.087-.023v-19.784l-.083.021-21.178-5.718-1.354-15.165z"/><path d="M66.185 72.844h9.664v9.547h8.84v-9.547h9.664v28.912H84.69v-9.682h-8.84v9.682h-9.664l-.001-28.912zm40.875 9.588h-8.507v-9.587h26.683v9.587h-8.511v19.325h-9.664l-.001-19.325zm22.41-9.588h10.077l6.197 10.159 6.193-10.159h10.08v28.912h-9.624v-14.33l-6.649 10.28h-.166l-6.652-10.28v14.331h-9.456V72.844zm37.356 0h9.667V92.2h13.59v9.557h-23.257V72.844z"/><path fill="#FFF" d="M127.935 204.175h23.415l-2.206 24.662-21.209 5.726v19.782l38.983-10.805.285-3.212 4.469-50.063.464-5.105h-44.201v19.015zm0-38.534v.047h45.932l.382-4.274.866-9.64.455-5.102h-47.635v18.969z"/></svg>