<?xml version="1.0" encoding="UTF-8" standalone="no"?>
<!DOCTYPE svg PUBLIC "-//W3C//DTD SVG 1.1//EN" "http://www.w3.org/Graphics/SVG/1.1/DTD/svg11.dtd">
<svg width="100%" height="100%" viewBox="0 0 256 256" version="1.1" xmlns="http://www.w3.org/2000/svg" xmlns:xlink="http://www.w3.org/1999/xlink" xml:space="preserve" xmlns:serif="http://www.serif.com/" style="fill-rule:evenodd;clip-rule:evenodd;stroke-linejoin:round;stroke-miterlimit:2;">
    <g transform="matrix(0.872197,0,0,0.872197,16.3587,16.756)">
        <path d="M203.947,62.479L190.109,217.5L127.906,234.745L65.875,217.524L52.053,62.479L203.947,62.479Z" style="fill:rgb(228,77,38);fill-rule:nonzero;"/>
        <path d="M128,221.563L178.262,207.628L190.088,75.156L128,75.156L128,221.563Z" style="fill:rgb(241,101,41);fill-rule:nonzero;"/>
        <path d="M101.1,113.188L128,113.188L128,94.172L80.318,94.172L80.773,99.274L85.447,151.675L128,151.675L128,132.66L102.837,132.66L101.1,113.188ZM105.385,161.184L86.296,161.184L88.96,191.04L127.913,201.853L128,201.83L128,182.046L127.917,182.067L106.739,176.349L105.385,161.184Z" style="fill:rgb(235,235,235);fill-rule:nonzero;"/>
        <path d="M66.185,20.344L75.849,20.344L75.849,29.891L84.689,29.891L84.689,20.344L94.353,20.344L94.353,49.256L84.69,49.256L84.69,39.574L75.85,39.574L75.85,49.256L66.186,49.256L66.185,20.344ZM107.06,29.932L98.553,29.932L98.553,20.345L125.236,20.345L125.236,29.932L116.725,29.932L116.725,49.257L107.061,49.257L107.06,29.932ZM129.47,20.344L139.547,20.344L145.744,30.503L151.937,20.344L162.017,20.344L162.017,49.256L152.393,49.256L152.393,34.926L145.744,45.206L145.578,45.206L138.926,34.926L138.926,49.257L129.47,49.257L129.47,20.344ZM166.826,20.344L176.493,20.344L176.493,39.7L190.083,39.7L190.083,49.257L166.826,49.257L166.826,20.344Z" style="fill-rule:nonzero;"/>
        <path d="M127.935,151.675L151.35,151.675L149.144,176.337L127.935,182.063L127.935,201.845L166.918,191.04L167.203,187.828L171.672,137.765L172.136,132.66L127.935,132.66L127.935,151.675ZM127.935,94.172L127.935,113.188L173.867,113.188L174.249,108.914L175.115,99.274L175.57,94.172L127.935,94.172Z" style="fill:white;fill-rule:nonzero;"/>
    </g>
</svg>
