<svg xmlns="http://www.w3.org/2000/svg" width="256" height="256" viewBox="128 -91.5 256 256"><path fill="#FC4349" d="M134.486 18.917h11.26v33.295h-11.26V18.917zm14.743 0h8.749l8.668 12.8 8.667-12.8h8.83v33.295H173.45v-11.99l-6.805 9.965-6.805-9.965v11.99h-10.612V18.917zm38.318 0h8.83l8.587 12.8 8.668-12.8h8.83v33.295h-10.693v-11.99l-6.805 10.046-6.805-9.964v11.989h-10.612V18.917zm51.117 34.187c-2.106 0-3.97-.242-5.671-.81s-3.16-1.297-4.375-2.431c-1.215-1.053-2.106-2.431-2.754-4.051s-.972-3.563-.972-5.751V18.917h10.612v20.739c0 1.134.243 2.025.729 2.673.485.648 1.296.892 2.43.892 1.134 0 1.944-.324 2.43-.892.486-.647.729-1.539.729-2.673V18.917h10.693v21.144c0 2.188-.324 4.131-.972 5.751s-1.62 2.998-2.835 4.051c-1.215 1.053-2.673 1.863-4.375 2.431-1.699.486-3.563.81-5.669.81zm21.71-25.437h-6.156v-8.75h23.25v8.75h-6.157v24.546h-11.018V27.667h.081zm25.114-8.75h8.021l12.637 33.295h-10.45l-1.134-2.998h-10.126l-1.134 2.998H272.85l12.638-33.295zm6.238 23.007l-2.269-5.832-2.269 5.832h4.538zm15.229-23.007h13.042c1.701 0 3.16.162 4.537.567 1.377.405 2.592.972 3.564 1.701.972.729 1.782 1.701 2.269 2.835.566 1.134.81 2.43.81 3.888a9.39 9.39 0 0 1-.405 2.754c-.243.729-.566 1.377-.81 1.863-.405.567-.811 1.134-1.216 1.458a10.316 10.316 0 0 1 2.025 1.782c.486.648.973 1.458 1.377 2.431.405.972.648 2.187.648 3.564 0 1.62-.243 3.078-.81 4.374-.567 1.296-1.378 2.431-2.431 3.322-1.053.891-2.35 1.619-3.808 2.105-1.539.486-3.24.729-5.104.729h-13.609V18.917h-.079zm14.015 10.127c0-1.539-.81-2.269-2.511-2.269h-1.216v4.618h1.216c1.701 0 2.511-.81 2.511-2.349zm-2.511 15.31c2.511 0 3.807-.972 3.807-2.916s-1.296-2.917-3.807-2.917h-1.216v5.833h1.216zm17.173-25.437h11.099v24.546h9.154v8.749h-20.253V18.917zm21.873 0h19.604v8.75h-8.992v3.726h8.83v8.263h-8.83v3.808h9.397v8.749h-20.01V18.917z"/><path fill="#2C3E50" d="M134.486 18.917h11.26v33.295h-11.26V18.917zm6.318 29.326V22.887h-1.296v25.356h1.296zm8.425-29.326h8.749l8.668 12.8 8.667-12.8h8.83v33.295H173.45v-11.99l-6.805 9.965-6.805-9.965v11.99h-10.612V18.917zm6.238 29.326V25.317l11.18 16.283 11.179-16.283v22.926h1.296V22.887h-1.296l-11.179 16.445-11.18-16.445h-1.296v25.356h1.296zm32.08-29.326h8.83l8.587 12.8 8.668-12.8h8.83v33.295h-10.693v-11.99l-6.805 10.046-6.805-9.964v11.989h-10.612V18.917zm6.237 29.326V25.317L204.963 41.6l11.099-16.283v22.926h1.296V22.887h-1.296l-11.099 16.445-11.179-16.445h-1.296v25.356h1.296zm44.88 4.861c-2.106 0-3.97-.242-5.671-.81s-3.16-1.297-4.375-2.431c-1.215-1.053-2.106-2.431-2.754-4.051s-.972-3.563-.972-5.751V18.917h10.612v20.739c0 1.134.243 2.025.729 2.673.485.648 1.296.892 2.43.892 1.134 0 1.944-.324 2.43-.892.486-.647.729-1.539.729-2.673V18.917h10.693v21.144c0 2.188-.324 4.131-.972 5.751s-1.62 2.998-2.835 4.051c-1.215 1.053-2.673 1.863-4.375 2.431-1.699.486-3.563.81-5.669.81zm0-5.995c-5.023 0-7.453-2.431-7.453-7.372v-16.85h-1.296v16.85c0 2.835.729 4.941 2.269 6.399s3.727 2.188 6.481 2.188c2.835 0 5.022-.729 6.562-2.188s2.269-3.646 2.269-6.399v-16.85h-1.377v16.85c-.002 4.861-2.432 7.372-7.455 7.372zm21.71-19.442h-6.156v-8.75h23.25v8.75h-6.157v24.546h-11.018V27.667h.081zm6.157 20.576v-24.14h7.129v-1.215h-15.554v1.215h7.129v24.141h1.296zm18.957-29.326h8.021l12.637 33.295h-10.45l-1.134-2.998h-10.126l-1.134 2.998H272.85l12.638-33.295zm-5.185 29.326l.972-2.512h16.445l.972 2.512h1.378l-9.641-25.356h-1.863l-9.64 25.356h1.377zm9.154-24.14l7.777 20.414H281.68l7.777-20.414zm2.269 17.821l-2.269-5.832-2.269 5.832h4.538zm15.229-23.007h13.042c1.701 0 3.16.162 4.537.567 1.377.405 2.592.972 3.564 1.701.972.729 1.782 1.701 2.269 2.835.566 1.134.81 2.43.81 3.888a9.39 9.39 0 0 1-.405 2.754c-.243.729-.566 1.377-.81 1.863-.405.567-.811 1.134-1.216 1.458a10.316 10.316 0 0 1 2.025 1.782c.486.648.973 1.458 1.377 2.431.405.972.648 2.187.648 3.564 0 1.62-.243 3.078-.81 4.374-.567 1.296-1.378 2.431-2.431 3.322-1.053.891-2.35 1.619-3.808 2.105-1.539.486-3.24.729-5.104.729h-13.609V18.917h-.079zm12.233 29.326c2.916 0 5.104-.648 6.48-1.863 1.377-1.296 2.106-2.916 2.106-5.022 0-1.377-.324-2.431-.891-3.24a8.564 8.564 0 0 0-1.864-1.944c-.81-.567-1.782-.891-2.754-1.134.811-.243 1.539-.567 2.188-1.134.566-.405 1.053-1.053 1.539-1.782s.648-1.701.648-2.835c0-2.106-.648-3.645-2.025-4.779-1.297-1.053-3.159-1.62-5.428-1.62h-7.21v25.356h7.211v-.003zm-5.914-13.852V24.103h5.914c2.188 0 3.727.486 4.698 1.458.973.972 1.458 2.187 1.458 3.726 0 1.54-.485 2.754-1.458 3.727-.972.972-2.511 1.458-4.698 1.458h-5.914v-.081zm0 12.636V35.605h5.833c1.054 0 2.025.081 2.835.324a10.16 10.16 0 0 1 2.35.973c.648.485 1.215 1.053 1.539 1.781.405.729.567 1.621.567 2.593 0 2.025-.648 3.483-2.025 4.375-1.377.891-3.159 1.376-5.347 1.376h-5.752zm7.696-17.983c0-1.539-.81-2.269-2.511-2.269h-1.216v4.618h1.216c1.701 0 2.511-.81 2.511-2.349zm-2.511 15.31c2.511 0 3.807-.972 3.807-2.916s-1.296-2.917-3.807-2.917h-1.216v5.833h1.216zm17.173-25.437h11.099v24.546h9.154v8.749h-20.253V18.917zm17.499 29.326v-1.216h-11.18v-24.14h-1.297v25.356h12.477zm4.374-29.326h19.604v8.75h-8.992v3.726h8.83v8.263h-8.83v3.808h9.397v8.749h-20.01V18.917zm16.283 29.326v-1.216h-9.964V36.092h9.478v-1.215h-9.478V24.103h9.964v-1.215h-11.261v25.356h11.261v-.001z"/></svg>