<?xml version="1.0" encoding="UTF-8" standalone="no"?>
<!DOCTYPE svg PUBLIC "-//W3C//DTD SVG 1.1//EN" "http://www.w3.org/Graphics/SVG/1.1/DTD/svg11.dtd">
<svg width="100%" height="100%" viewBox="0 0 256 256" version="1.1" xmlns="http://www.w3.org/2000/svg" xmlns:xlink="http://www.w3.org/1999/xlink" xml:space="preserve" xmlns:serif="http://www.serif.com/" style="fill-rule:evenodd;clip-rule:evenodd;stroke-linejoin:round;stroke-miterlimit:2;">
    <g transform="matrix(0.769547,0,0,0.769547,29.4979,29.4979)">
        <rect x="6.5" y="6.5" width="243" height="243" style="fill:rgb(247,223,30);fill-rule:nonzero;"/>
        <path d="M70.394,209.568L88.99,198.314C92.577,204.675 95.841,210.057 103.669,210.057C111.172,210.057 115.903,207.122 115.903,195.704L115.903,118.059L138.739,118.059L138.739,196.026C138.739,219.678 124.874,230.444 104.648,230.444C86.38,230.444 75.776,220.983 70.394,209.565M151.143,207.122L169.737,196.355C174.632,204.348 180.994,210.22 192.248,210.22C201.71,210.22 207.745,205.49 207.745,198.964C207.745,191.135 201.546,188.361 191.105,183.796L185.399,181.348C168.922,174.335 157.994,165.527 157.994,146.932C157.994,129.804 171.043,116.754 191.433,116.754C205.951,116.754 216.389,121.811 223.892,135.024L206.113,146.442C202.197,139.428 197.958,136.656 191.433,136.656C184.745,136.656 180.504,140.896 180.504,146.442C180.504,153.293 184.744,156.066 194.53,160.308L200.239,162.754C219.649,171.073 230.58,179.555 230.58,198.638C230.58,219.193 214.431,230.447 192.738,230.447C171.532,230.447 157.83,220.335 151.143,207.122" style="fill-rule:nonzero;"/>
    </g>
</svg>
