<?xml version="1.0" encoding="UTF-8" standalone="no"?>
<!DOCTYPE svg PUBLIC "-//W3C//DTD SVG 1.1//EN" "http://www.w3.org/Graphics/SVG/1.1/DTD/svg11.dtd">
<svg width="100%" height="100%" viewBox="0 0 256 256" version="1.1" xmlns="http://www.w3.org/2000/svg" xmlns:xlink="http://www.w3.org/1999/xlink" xml:space="preserve" xmlns:serif="http://www.serif.com/" style="fill-rule:evenodd;clip-rule:evenodd;stroke-linejoin:round;stroke-miterlimit:2;">
    <g transform="matrix(1.07848,0,0,1.07848,-10.044,-43.8709)">
        <g>
            <path d="M196.671,158.039C196.671,149.126 189.445,141.9 180.53,141.9C179.957,141.9 179.391,141.931 178.835,141.989L201.002,76.61L106.8,76.61L128.936,141.933C128.612,141.913 128.285,141.9 127.956,141.9C119.043,141.9 111.817,149.126 111.817,158.039C111.817,165.243 116.538,171.343 123.056,173.419C119.614,179.381 115.283,184.751 110.365,189.39C103.678,195.699 96.027,200.482 87.75,203.429C77.896,198.367 73.243,187.109 77.442,177.238C77.916,176.123 78.4,174.995 78.863,173.87C86.001,172.203 91.321,165.803 91.321,158.156C91.321,149.242 84.095,142.016 75.182,142.016C66.268,142.016 59.043,149.243 59.043,158.156C59.043,163.623 61.763,168.448 65.919,171.37C61.924,180.464 56.053,189.983 54.223,201.015C52.031,214.237 54.216,228.272 65.651,236.198C92.282,254.654 121.19,224.755 151.67,217.239C162.717,214.516 174.841,214.954 184.573,209.318C191.882,205.086 196.699,198.071 198.067,190.194C199.418,182.415 197.448,174.668 192.919,168.386C195.347,165.486 196.676,161.821 196.671,158.039ZM144.093,158.095L144.095,158.038C144.095,152.185 140.979,147.059 136.316,144.23L153.934,108.604L171.583,144.607C167.248,147.502 164.393,152.435 164.393,158.038C164.393,158.155 164.4,158.271 164.403,158.389L144.093,158.095Z" style="fill:rgb(198,61,20);fill-rule:nonzero;"/>
            <path d="M200.611,158.039C200.611,148.235 193.548,140.056 184.244,138.309L206.5,72.668L101.301,72.668L123.59,138.441C114.61,140.44 107.874,148.465 107.874,158.039C107.874,165.228 111.673,171.542 117.367,175.091C114.567,179.252 111.31,183.086 107.658,186.523C101.756,192.092 95.179,196.315 88.09,199.093C80.949,194.608 77.931,186.149 81.066,178.78L81.312,178.204L81.773,177.121C89.615,174.385 95.26,166.919 95.26,158.155C95.26,147.083 86.251,138.074 75.178,138.074C64.106,138.074 55.097,147.082 55.097,158.155C55.097,163.744 57.393,168.805 61.09,172.449C60.401,173.911 59.701,175.367 58.991,176.819C55.61,183.762 51.78,191.632 50.329,200.37C47.452,217.724 52.094,231.599 63.4,239.435C70.26,244.189 77.229,246.061 84.24,246.06C97.444,246.06 110.799,239.426 123.862,232.939C133.271,228.265 142.999,223.433 152.608,221.064C156.184,220.182 159.862,219.651 163.758,219.09C171.481,217.975 179.469,216.824 186.544,212.727C194.744,207.976 200.358,200.008 201.945,190.868C203.306,183.018 201.668,175.159 197.667,168.493C199.596,165.348 200.615,161.728 200.611,158.039ZM192.728,158.039C192.728,164.765 187.257,170.237 180.53,170.237C173.806,170.237 168.334,164.764 168.334,158.039C168.334,151.314 173.807,145.842 180.53,145.842C187.258,145.842 192.728,151.313 192.728,158.039ZM195.503,80.55L175.851,138.514C174.999,138.718 174.167,138.975 173.362,139.285L153.948,99.681L134.478,139.051C133.629,138.758 132.762,138.522 131.882,138.345L112.296,80.55L195.503,80.55ZM127.955,145.842C134.681,145.842 140.151,151.313 140.151,158.039C140.151,164.765 134.68,170.237 127.955,170.237C121.23,170.237 115.757,164.764 115.757,158.039C115.757,151.313 121.229,145.842 127.955,145.842ZM75.179,145.957C81.906,145.957 87.378,151.428 87.378,158.154C87.378,164.88 81.906,170.352 75.179,170.352C68.454,170.352 62.981,164.879 62.981,158.154C62.981,151.428 68.454,145.957 75.179,145.957ZM194.181,189.518C192.993,196.355 188.771,202.328 182.595,205.904C176.84,209.24 169.941,210.235 162.636,211.288C158.723,211.852 154.677,212.436 150.724,213.411C140.272,215.989 130.149,221.016 120.359,225.879C100.767,235.609 83.847,244.013 67.894,232.957C56.208,224.857 56.748,209.872 58.109,201.661C59.371,194.052 62.782,187.046 66.081,180.27C66.642,179.118 67.198,177.964 67.75,176.807C69.413,177.473 71.159,177.911 72.94,178.11C69.582,189.193 74.863,201.243 85.947,206.937L87.464,207.716L89.07,207.144C97.833,204.025 105.907,199.016 113.069,192.259C117.612,187.985 121.603,183.16 124.948,177.896C125.93,178.044 126.933,178.122 127.955,178.122C139.028,178.122 148.036,169.113 148.036,158.041C148.036,152.085 145.428,146.73 141.297,143.05L153.918,117.53L166.665,143.536C162.84,147.194 160.45,152.343 160.45,158.041C160.45,169.113 169.457,178.122 180.53,178.122C184.784,178.122 188.731,176.789 191.982,174.522C194.239,179.141 195.08,184.34 194.181,189.518Z" style="fill:white;fill-rule:nonzero;"/>
        </g>
    </g>
</svg>
