<?xml version="1.0" encoding="utf-8"?>
<!-- Generator: Adobe Illustrator 16.0.0, SVG Export Plug-In . SVG Version: 6.00 Build 0)  -->
<!DOCTYPE svg PUBLIC "-//W3C//DTD SVG 1.1//EN" "http://www.w3.org/Graphics/SVG/1.1/DTD/svg11.dtd">
<svg version="1.1" id="Ebene_1" xmlns="http://www.w3.org/2000/svg" xmlns:xlink="http://www.w3.org/1999/xlink" x="0px" y="0px"
	 width="256px" height="283px" viewBox="0 0 256 283" enable-background="new 0 0 256 283" xml:space="preserve">
<g>
	<path fill="#C63D14" d="M196.671,158.039c0-8.913-7.226-16.139-16.141-16.139c-0.573,0-1.139,0.031-1.695,0.089l22.167-65.379
		H106.8l22.136,65.323c-0.324-0.02-0.651-0.033-0.98-0.033c-8.913,0-16.139,7.226-16.139,16.139c0,7.204,4.721,13.304,11.239,15.38
		c-3.442,5.962-7.773,11.332-12.691,15.971c-6.687,6.309-14.338,11.092-22.615,14.039c-9.854-5.062-14.507-16.32-10.308-26.191
		c0.474-1.115,0.958-2.243,1.421-3.368c7.138-1.667,12.458-8.067,12.458-15.714c0-8.914-7.226-16.14-16.139-16.14
		c-8.914,0-16.139,7.227-16.139,16.14c0,5.467,2.72,10.292,6.876,13.214c-3.995,9.094-9.866,18.613-11.696,29.645
		c-2.192,13.222-0.007,27.257,11.428,35.183c26.631,18.456,55.539-11.443,86.019-18.959c11.047-2.723,23.171-2.285,32.903-7.921
		c7.309-4.232,12.126-11.247,13.494-19.124c1.351-7.779-0.619-15.526-5.148-21.808C195.26,165.582,196.671,161.976,196.671,158.039
		L196.671,158.039z M144.093,158.095c0-0.019,0.002-0.038,0.002-0.057c0-5.853-3.116-10.979-7.779-13.808l17.618-35.626
		l17.649,36.003c-4.335,2.895-7.19,7.828-7.19,13.431c0,0.117,0.007,0.233,0.01,0.351L144.093,158.095L144.093,158.095z"/>
	<path fill="#FFFFFF" d="M200.611,158.039c0-9.804-7.063-17.983-16.367-19.73L206.5,72.668H101.301l22.289,65.773
		c-8.98,1.999-15.716,10.024-15.716,19.598c0,7.189,3.799,13.503,9.493,17.052c-2.739,4.081-5.986,7.92-9.709,11.432
		c-5.902,5.569-12.479,9.792-19.568,12.57c-7.141-4.485-10.159-12.944-7.024-20.313l0.246-0.576
		c0.153-0.361,0.307-0.723,0.461-1.083c7.842-2.736,13.487-10.202,13.487-18.966c0-11.072-9.009-20.081-20.082-20.081
		c-11.072,0-20.081,9.008-20.081,20.081c0,5.589,2.296,10.65,5.993,14.294c-0.669,1.429-1.375,2.881-2.099,4.37
		c-3.381,6.943-7.211,14.813-8.662,23.551c-2.877,17.354,1.765,31.229,13.071,39.065c6.86,4.754,13.829,6.626,20.84,6.625
		c13.204,0,26.559-6.634,39.622-13.121c9.409-4.674,19.137-9.506,28.746-11.875c3.576-0.882,7.254-1.413,11.15-1.974
		c7.723-1.115,15.711-2.266,22.786-6.363c8.2-4.751,13.814-12.719,15.401-21.859c1.361-7.85-0.277-15.709-4.278-22.375
		C199.533,165.444,200.611,161.866,200.611,158.039L200.611,158.039z M192.728,158.039c0,6.726-5.471,12.198-12.198,12.198
		c-6.724,0-12.196-5.473-12.196-12.198s5.473-12.197,12.196-12.197C187.258,145.842,192.728,151.313,192.728,158.039
		L192.728,158.039z M195.503,80.55l-19.652,57.964c-0.852,0.204-1.684,0.461-2.489,0.771l-19.414-39.604l-19.47,39.37
		c-0.843-0.29-1.709-0.529-2.596-0.706L112.296,80.55H195.503L195.503,80.55z M127.955,145.842c6.726,0,12.196,5.471,12.196,12.197
		c0,6.726-5.471,12.198-12.196,12.198s-12.198-5.473-12.198-12.198C115.757,151.313,121.229,145.842,127.955,145.842
		L127.955,145.842z M75.179,145.957c6.727,0,12.199,5.471,12.199,12.197c0,6.726-5.472,12.198-12.199,12.198
		c-6.725,0-12.198-5.473-12.198-12.198C62.981,151.428,68.454,145.957,75.179,145.957L75.179,145.957z M194.181,189.518
		c-1.188,6.837-5.41,12.81-11.586,16.386c-5.755,3.336-12.654,4.331-19.959,5.384c-3.913,0.564-7.959,1.148-11.912,2.123
		c-10.452,2.578-20.575,7.605-30.365,12.468c-19.592,9.73-36.512,18.134-52.465,7.078c-11.686-8.1-11.146-23.085-9.785-31.296
		c1.262-7.609,4.673-14.615,7.972-21.391c0.571-1.174,1.125-2.321,1.669-3.463c1.637,0.654,3.376,1.101,5.19,1.303
		c-3.358,11.083,1.923,23.133,13.007,28.827l1.517,0.779l1.606-0.572c8.763-3.119,16.837-8.128,23.999-14.885
		c4.63-4.368,8.608-9.2,11.879-14.363c0.982,0.148,1.985,0.226,3.007,0.226c11.073,0,20.081-9.009,20.081-20.081
		c0-5.956-2.608-11.311-6.739-14.991l12.621-25.52l12.747,26.006c-3.825,3.658-6.215,8.807-6.215,14.505
		c0,11.072,9.007,20.081,20.08,20.081c4.254,0,8.201-1.333,11.452-3.6C194.239,179.141,195.08,184.34,194.181,189.518
		L194.181,189.518z"/>
</g>
</svg>
