<svg xmlns="http://www.w3.org/2000/svg" width="256" height="256" viewBox="128 -55 256 256"><path fill="#8E714E" d="M360.627 67.08c-.219.043-.438.525-.438.789-.044 1.752-.088 6.396-.088 9.551 0 .087.131.263.263.263.657.043 2.234.087 3.593.087 1.883 0 2.979-.263 3.592-.524 1.577-.789 2.322-2.498 2.322-4.382 0-4.25-2.979-5.871-7.404-5.871-.307-.045-1.183-.045-1.84.087zm11.304 19.582c0-4.337-3.199-6.747-8.981-6.747-.263 0-2.104-.044-2.541.045-.132.043-.307.131-.307.263 0 3.11-.044 8.061.088 9.988.087.833.701 2.016 1.445 2.366.788.438 2.585.525 3.812.525 3.46.001 6.484-1.927 6.484-6.44zM351.69 64.67c.438 0 1.753.131 5.126.131 3.198 0 5.739-.087 8.85-.087 3.812 0 9.068 1.358 9.068 7.053 0 2.805-1.971 5.038-4.556 6.134-.132.044-.132.132 0 .175 3.68.921 6.922 3.198 6.922 7.492 0 4.206-2.628 6.878-6.44 8.543-2.322 1.008-5.213 1.358-8.148 1.358-2.234 0-8.235-.264-11.565-.176-.351-.132.307-1.709.613-1.971.789-.045 1.401-.089 2.234-.351 1.183-.308 1.314-.657 1.489-2.454.088-1.533.088-6.966.088-10.821 0-5.301.044-8.893 0-10.646-.044-1.358-.526-1.796-1.489-2.059a78.972 78.972 0 0 0-2.979-.438c-.221-.219.524-1.708.787-1.883zm-25.279 27.25c1.052.832 3.111 1.183 4.951 1.183 2.365 0 4.731-.438 7.009-2.497 2.322-2.104 3.943-5.345 3.943-10.515 0-4.95-1.884-8.981-5.739-11.347-2.19-1.358-4.994-1.928-8.236-1.928-.963 0-1.884.044-2.453.307-.132.088-.438.482-.438.701-.088.876-.088 7.622-.088 11.566 0 4.074 0 9.769.088 10.426 0 .659.306 1.665.963 2.104zm-9.944-27.25c.832 0 4.03.131 5.563.131 2.76 0 4.731-.131 9.945-.131 4.381 0 8.061 1.183 10.689 3.417 3.198 2.76 4.863 6.571 4.863 11.215 0 6.616-3.023 10.428-6.046 12.618-3.022 2.234-6.967 3.549-12.573 3.549-2.979 0-8.105-.089-12.354-.132h-.045c-.219-.395.351-1.928.701-1.972 1.14-.132 1.446-.175 2.016-.394.92-.351 1.096-.833 1.228-2.454.131-3.022.087-6.659.087-10.777 0-2.936.044-8.674-.044-10.514-.132-1.533-.788-1.927-2.103-2.191-.657-.131-1.534-.306-2.76-.438-.175-.306.614-1.664.833-1.927z"/><path fill="#442D22" d="M263.457 93.628c-1.095-.131-1.884-.306-2.848-.745-.132-.087-.351-.524-.351-.7-.088-1.533-.088-5.914-.088-8.85 0-2.366-.395-4.425-1.402-5.87-1.183-1.666-2.891-2.629-5.082-2.629-1.927 0-4.513 1.314-6.659 3.154-.043.044-.394.351-.351-.132 0-.482.088-1.445.132-2.103.044-.613-.307-.92-.307-.92-1.402.701-5.345 1.621-6.791 1.752-1.051.219-1.314 1.228-.219 1.577h.044c1.183.351 1.972.745 2.584 1.139.438.351.395.833.395 1.228.043 3.286.043 8.323-.087 11.084-.044 1.095-.351 1.489-1.139 1.664l.087-.044c-.613.132-1.095.264-1.84.351-.263.263-.263 1.666 0 1.972.482 0 3.023-.131 5.126-.131 2.892 0 4.381.131 5.125.131.307-.351.395-1.664.219-1.972-.833-.043-1.445-.131-2.015-.307-.789-.175-1.008-.569-1.052-1.489-.087-2.322-.087-7.229-.087-10.559 0-.92.263-1.358.525-1.62 1.007-.877 2.628-1.49 4.074-1.49 1.402 0 2.322.438 3.023 1.008.963.788 1.27 1.928 1.402 2.761.219 1.883.131 5.607.131 8.849 0 1.753-.131 2.191-.789 2.41-.306.131-1.095.307-2.015.395-.307.306-.219 1.664 0 1.971 1.271 0 2.76-.132 4.951-.132 2.716 0 4.468.132 5.169.132.222-.263.31-1.534.135-1.885zm12.135-16.734c-2.321 0-3.767 1.796-3.767 4.6 0 2.847 1.27 6.133 4.862 6.133.613 0 1.752-.263 2.278-.876.832-.788 1.401-2.365 1.401-4.03.001-3.638-1.794-5.827-4.774-5.827zm-.307 19.363c-.876 0-1.489.263-1.883.481-1.841 1.183-2.673 2.322-2.673 3.681 0 1.271.481 2.277 1.533 3.154 1.271 1.095 3.022 1.621 5.257 1.621 4.469 0 6.44-2.41 6.44-4.775 0-1.665-.833-2.761-2.541-3.373-1.225-.526-3.46-.789-6.133-.789zm.307 11.39c-2.672 0-4.6-.57-6.265-1.84-1.621-1.228-2.321-3.067-2.321-4.337 0-.351.087-1.315.876-2.191.481-.525 1.533-1.533 4.03-3.241.088-.044.132-.088.132-.176s-.088-.175-.176-.219c-2.06-.788-2.672-2.06-2.848-2.761v-.087c-.043-.263-.132-.525.263-.789.307-.219.745-.481 1.227-.788.745-.438 1.534-.92 2.016-1.314.088-.088.088-.175.088-.263s-.088-.176-.176-.219c-3.066-1.008-4.6-3.286-4.6-6.703 0-2.234 1.008-4.25 2.804-5.521 1.227-.964 4.293-2.146 6.309-2.146h.132c2.059.044 3.197.482 4.818 1.052.876.307 1.709.438 2.848.438 1.709 0 2.453-.525 3.066-1.139.045.088.132.307.176.876.044.57-.131 1.402-.569 2.016-.351.481-1.14.832-1.928.832h-.22c-.788-.087-1.139-.176-1.139-.176l-.175.089c-.044.087 0 .175.044.306l.044.088c.087.395.263 1.577.263 1.885 0 3.592-1.446 5.169-2.979 6.352-1.489 1.096-3.198 1.796-5.126 1.972-.044 0-.219 0-.613.044-.219 0-.525.044-.569.044h-.044c-.351.087-1.226.525-1.226 1.271 0 .656.394 1.445 2.277 1.577.394.044.788.044 1.227.087 2.497.176 5.607.395 7.054.877 2.015.744 3.285 2.54 3.285 4.688 0 3.242-2.322 6.265-6.177 8.148-1.885.83-3.768 1.268-5.828 1.268zm24.972-30.535c-.92 0-1.752.219-2.365.656-1.709 1.052-2.585 3.155-2.585 6.222 0 5.739 2.891 9.77 7.01 9.77 1.227 0 2.19-.351 3.022-1.052 1.271-1.052 1.928-3.154 1.928-6.09-.001-5.694-2.848-9.506-7.01-9.506zm.789 18.75c-7.447 0-10.12-5.476-10.12-10.602 0-3.593 1.445-6.353 4.337-8.324 2.06-1.271 4.513-1.971 6.703-1.971 5.694 0 9.682 4.074 9.682 9.944 0 3.986-1.577 7.141-4.6 9.068-1.447.965-3.944 1.885-6.002 1.885zm-78.07-18.75c-.92 0-1.752.219-2.366.656-1.708 1.052-2.584 3.155-2.584 6.222 0 5.739 2.892 9.77 7.01 9.77 1.227 0 2.19-.351 3.023-1.052 1.27-1.052 1.928-3.154 1.928-6.09-.001-5.694-2.805-9.506-7.011-9.506zm.789 18.75c-7.448 0-10.12-5.476-10.12-10.602 0-3.593 1.446-6.353 4.337-8.324 2.059-1.271 4.513-1.971 6.703-1.971 5.696 0 9.682 4.074 9.682 9.944 0 3.986-1.577 7.141-4.601 9.068-1.401.965-3.898 1.885-6.001 1.885zm-50.075-.437c-.088-.132-.175-.525-.132-1.008 0-.351.088-.57.132-.657.92-.132 1.402-.263 1.927-.395.876-.219 1.227-.701 1.271-1.796.132-2.629.132-7.623.088-11.084v-.088c0-.395 0-.877-.482-1.227-.701-.438-1.534-.832-2.628-1.139-.395-.132-.658-.351-.613-.613 0-.264.263-.569.833-.657 1.445-.132 5.213-1.052 6.702-1.709.088.088.22.351.22.701l-.044.481a18.434 18.434 0 0 0-.087 1.621c0 .176.176.307.351.307.087 0 .175-.044.263-.088 2.804-2.189 5.345-2.979 6.659-2.979 2.147 0 3.812 1.008 5.083 3.11.087.132.175.176.306.176.088 0 .219-.044.263-.132 2.584-1.972 5.169-3.154 6.877-3.154 4.075 0 6.484 3.022 6.484 8.148 0 1.445 0 3.329-.044 5.038 0 1.533-.044 2.936-.044 3.943 0 .219.307.92.789 1.051.614.307 1.446.438 2.541.614h.044c.087.306-.088 1.445-.263 1.664-.263 0-.657 0-1.095-.044a65.822 65.822 0 0 0-3.33-.087c-2.716 0-4.118.044-5.477.131-.087-.351-.131-1.401 0-1.664.789-.132 1.183-.264 1.665-.395.876-.264 1.095-.657 1.139-1.797 0-.832.175-7.93-.088-9.638-.263-1.753-1.577-3.812-4.469-3.812-1.095 0-2.803.438-4.469 1.709a.779.779 0 0 0-.175.438v.044c.175.92.175 1.972.175 3.593v2.847c0 1.972-.043 3.813 0 5.214 0 .964.57 1.183 1.052 1.358.263.044.438.088.657.131.395.088.789.176 1.402.308.088.175.088.744-.044 1.227-.043.262-.131.394-.175.438-1.49-.044-3.023-.087-5.257-.087-.657 0-1.796.043-2.76.043-.789 0-1.533.044-1.971.044-.044-.087-.131-.395-.131-.876 0-.395.087-.701.175-.788.219-.045.394-.088.613-.088.525-.088.963-.176 1.402-.263.745-.219 1.007-.613 1.051-1.577.132-2.19.263-8.456-.043-10.033-.525-2.54-1.971-3.812-4.293-3.812-1.358 0-3.067.657-4.468 1.709-.219.175-.395.613-.395 1.008v2.585c0 3.153 0 7.097.044 8.806.043.525.219 1.139 1.227 1.357.219.044.569.132 1.008.176l.789.132c.087.263.044 1.313-.132 1.664-.438 0-.963-.044-1.577-.044a72.925 72.925 0 0 0-3.417-.087c-1.533 0-2.628.044-3.505.087-.616-.085-1.098-.085-1.624-.085z"/><path fill="#FFF" d="M150.953 105.938l-1.796-.613s.22-9.156-3.066-9.813c-2.191-2.54.35-107.772 8.236-.351 0 0-2.716 1.358-3.198 3.681-.526 2.278-.176 7.096-.176 7.096z"/><path fill="#A6A385" d="M150.953 105.938l-1.796-.613s.22-9.156-3.066-9.813c-2.191-2.54.35-107.772 8.236-.351 0 0-2.716 1.358-3.198 3.681-.526 2.278-.176 7.096-.176 7.096z"/><path fill="#FFF" d="M151.917 97.089s15.728-10.339 12.047-31.85c-3.548-15.64-11.917-20.766-12.836-22.737-1.008-1.402-1.972-3.855-1.972-3.855l.658 43.502c0 .044-1.358 13.32 2.103 14.94"/><path fill="#499D4A" d="M151.917 97.089s15.728-10.339 12.047-31.85c-3.548-15.64-11.917-20.766-12.836-22.737-1.008-1.402-1.972-3.855-1.972-3.855l.658 43.502c0 .044-1.358 13.32 2.103 14.94"/><path fill="#FFF" d="M148.237 97.658s-14.764-10.076-13.888-27.819c.832-17.743 11.259-26.461 13.274-28.038 1.314-1.402 1.358-1.928 1.446-3.33.92 1.972.745 29.484.876 32.726.395 12.487-.701 24.096-1.708 26.461z"/><path fill="#58AA50" d="M148.237 97.658s-14.764-10.076-13.888-27.819c.832-17.743 11.259-26.461 13.274-28.038 1.314-1.402 1.358-1.928 1.446-3.33.92 1.972.745 29.484.876 32.726.395 12.487-.701 24.096-1.708 26.461z"/></svg>