<svg xmlns="http://www.w3.org/2000/svg" width="256" height="252"><g fill="#00546B"><path d="M203.224 173.544c-9.729-.241-17.269.731-23.594 3.406-1.823.729-4.743.73-4.986 3.041.974.973 1.096 2.554 1.946 3.891 1.46 2.432 4.014 5.716 6.324 7.419 2.553 1.945 5.107 3.892 7.783 5.595 4.743 2.918 10.093 4.62 14.715 7.539 2.676 1.701 5.35 3.892 8.026 5.716 1.338.972 2.188 2.554 3.892 3.161v-.364c-.852-1.095-1.096-2.676-1.945-3.891-1.216-1.217-2.434-2.313-3.649-3.528-3.526-4.742-7.904-8.877-12.647-12.282-3.891-2.675-12.404-6.323-13.985-10.823 0 0-.121-.122-.243-.242 2.677-.244 5.838-1.217 8.392-1.947 4.134-1.095 7.905-.852 12.161-1.945 1.944-.486 3.892-1.095 5.837-1.702v-1.095c-2.188-2.188-3.77-5.107-6.08-7.175-6.203-5.353-13.013-10.58-20.066-14.959-3.771-2.432-8.635-4.013-12.646-6.08-1.46-.73-3.893-1.095-4.743-2.311-2.189-2.675-3.406-6.201-4.987-9.364-3.525-6.689-6.932-14.106-9.972-21.16-2.188-4.743-3.526-9.486-6.202-13.864-12.525-20.674-26.146-33.2-47.063-45.483-4.5-2.553-9.85-3.648-15.566-4.986-3.04-.122-6.081-.365-9.121-.487-1.946-.852-3.892-3.161-5.595-4.256-6.93-4.378-24.808-13.863-29.916-1.337-3.284 7.904 4.864 15.687 7.661 19.701 2.068 2.796 4.744 5.958 6.203 9.12.852 2.066 1.095 4.256 1.946 6.445 1.946 5.35 3.77 11.31 6.324 16.296 1.338 2.553 2.797 5.229 4.5 7.539.973 1.337 2.675 1.946 3.041 4.135-1.702 2.432-1.824 6.081-2.797 9.121-4.378 13.743-2.675 30.768 3.527 40.861 1.945 3.039 6.567 9.729 12.77 7.176 5.472-2.189 4.256-9.122 5.837-15.202.365-1.459.122-2.432.851-3.404v.243c1.703 3.405 3.405 6.689 4.986 10.094 3.771 5.957 10.336 12.161 15.81 16.296 2.919 2.188 5.229 5.959 8.878 7.297v-.366h-.244c-.73-1.095-1.824-1.581-2.796-2.432-2.189-2.188-4.622-4.864-6.324-7.297-5.107-6.811-9.607-14.351-13.621-22.133-1.945-3.77-3.648-7.905-5.229-11.674-.73-1.461-.73-3.648-1.946-4.379-1.824 2.676-4.499 4.985-5.837 8.27-2.31 5.229-2.554 11.675-3.405 18.363-.486.121-.243 0-.487.243-3.891-.973-5.229-4.986-6.689-8.392-3.648-8.634-4.256-22.498-1.094-32.469.852-2.554 4.5-10.58 3.041-13.013-.729-2.311-3.163-3.648-4.5-5.472-1.581-2.311-3.284-5.229-4.378-7.783-2.919-6.81-4.378-14.35-7.54-21.161-1.46-3.162-4.013-6.445-6.081-9.363-2.31-3.284-4.865-5.595-6.689-9.486-.607-1.337-1.459-3.526-.487-4.986.244-.973.729-1.337 1.703-1.581 1.581-1.338 6.081.365 7.661 1.095 4.5 1.823 8.27 3.527 12.04 6.08 1.702 1.216 3.527 3.527 5.715 4.135h2.555c3.891.851 8.269.243 11.917 1.337 6.446 2.067 12.282 5.108 17.512 8.392 15.932 10.093 29.064 24.444 37.942 41.591 1.459 2.796 2.066 5.351 3.405 8.269 2.554 5.959 5.715 12.04 8.27 17.877 2.553 5.715 4.985 11.553 8.634 16.296 1.825 2.554 9.121 3.891 12.404 5.229 2.432 1.095 6.203 2.067 8.392 3.405 4.134 2.553 8.27 5.473 12.16 8.27 1.943 1.458 8.022 4.499 8.389 6.93z"/><path d="M79.179 67.865c-2.067 0-3.526.244-4.986.609v.243h.243c.974 1.946 2.675 3.283 3.891 4.985.974 1.946 1.824 3.892 2.797 5.838l.243-.244c1.704-1.216 2.554-3.162 2.554-6.081-.729-.851-.851-1.703-1.459-2.554-.729-1.216-2.31-1.823-3.283-2.796z"/></g></svg>