<?xml version="1.0" encoding="UTF-8" standalone="no"?>
<!DOCTYPE svg PUBLIC "-//W3C//DTD SVG 1.1//EN" "http://www.w3.org/Graphics/SVG/1.1/DTD/svg11.dtd">
<svg width="100%" height="100%" viewBox="0 0 256 256" version="1.1" xmlns="http://www.w3.org/2000/svg" xmlns:xlink="http://www.w3.org/1999/xlink" xml:space="preserve" xmlns:serif="http://www.serif.com/" style="fill-rule:evenodd;clip-rule:evenodd;stroke-linejoin:round;stroke-miterlimit:2;">
    <g transform="matrix(0.421875,0,0,0.421875,20,109.15)">
        <path d="M429.543,0.043L429.543,16.504L394.166,16.504L394.166,103.1L376.476,103.1L376.476,16.504L340.362,16.504L340.362,0.043L429.543,0.043ZM433.52,93.283C434.766,93.283 435.856,93.731 436.779,94.629C437.715,95.526 438.181,96.601 438.194,97.853C438.181,98.703 437.965,99.483 437.534,100.18C437.091,100.888 436.528,101.444 435.82,101.845C435.125,102.258 434.358,102.471 433.52,102.471C432.224,102.471 431.122,102.022 430.2,101.125C429.277,100.227 428.821,99.14 428.832,97.853C428.821,96.601 429.277,95.526 430.2,94.629C431.122,93.731 432.224,93.283 433.52,93.283ZM82.916,103.1L17.689,22.028L17.689,103.057L0,103.057L0,0L22.111,0L104.517,102.329L104.518,16.504L104.511,0.043L193.692,0.043L193.692,16.504L122.207,16.504L122.207,42.984L179.695,42.984L179.695,59.444L122.207,59.444L122.207,86.64L193.692,86.64L193.692,103.1L82.916,103.1ZM250.385,59.287L261.978,73.7L238.223,103.222L215.008,103.222L250.385,59.287ZM238.223,0.086L268.153,37.256L297.989,0.2L321.14,0.165L279.743,51.65L321.206,103.143L297.989,103.143L215.074,0.086L238.223,0.086ZM463.711,59.056L471.549,59.056L471.549,89.255C471.538,92.031 470.937,94.404 469.764,96.401C468.577,98.396 466.935,99.92 464.826,100.995C462.728,102.057 460.271,102.601 457.478,102.601C454.925,102.601 452.637,102.14 450.599,101.243C448.561,100.345 446.944,98.999 445.757,97.227C444.558,95.456 443.97,93.247 443.97,90.602L451.822,90.602C451.834,91.759 452.097,92.763 452.6,93.601C453.103,94.44 453.798,95.077 454.686,95.526C455.584,95.975 456.616,96.2 457.777,96.2C459.037,96.2 460.115,95.94 460.99,95.408C461.864,94.889 462.536,94.109 463.004,93.07C463.459,92.042 463.699,90.767 463.711,89.255L463.711,59.056ZM503.802,70.866C503.61,69.036 502.771,67.607 501.309,66.591C499.834,65.563 497.929,65.056 495.591,65.056C493.95,65.056 492.536,65.304 491.361,65.788C490.187,66.284 489.276,66.945 488.652,67.784C488.03,68.622 487.718,69.579 487.693,70.654C487.693,71.551 487.909,72.331 488.328,72.98C488.748,73.642 489.311,74.197 490.042,74.646C490.761,75.106 491.564,75.484 492.44,75.791C493.326,76.098 494.214,76.358 495.1,76.571L499.187,77.575C500.83,77.953 502.424,78.46 503.946,79.11C505.467,79.748 506.846,80.563 508.056,81.543C509.267,82.523 510.226,83.704 510.933,85.086C511.64,86.468 512,88.086 512,89.952C512,92.467 511.353,94.676 510.046,96.589C508.74,98.491 506.858,99.979 504.389,101.054C501.932,102.117 498.96,102.66 495.46,102.66C492.08,102.66 489.132,102.14 486.651,101.101C484.158,100.074 482.216,98.562 480.813,96.577C479.411,94.593 478.656,92.172 478.548,89.326L486.316,89.326C486.423,90.814 486.903,92.054 487.718,93.058C488.544,94.05 489.623,94.782 490.942,95.278C492.272,95.763 493.758,96.011 495.4,96.011C497.114,96.011 498.624,95.751 499.93,95.243C501.225,94.735 502.243,94.027 502.975,93.105C503.718,92.196 504.09,91.121 504.102,89.893C504.09,88.771 503.753,87.838 503.106,87.105C502.447,86.373 501.536,85.759 500.373,85.263C499.2,84.767 497.833,84.318 496.275,83.929L491.313,82.677C487.729,81.767 484.889,80.386 482.815,78.531C480.73,76.677 479.699,74.221 479.699,71.138C479.699,68.611 480.394,66.39 481.797,64.489C483.186,62.587 485.093,61.111 487.502,60.06C489.923,58.997 492.656,58.477 495.699,58.477C498.792,58.477 501.5,58.997 503.838,60.06C506.174,61.111 508.009,62.575 509.339,64.441C510.669,66.308 511.365,68.445 511.401,70.866L503.802,70.866Z" style="fill-rule:nonzero;"/>
    </g>
</svg>
