<svg xmlns="http://www.w3.org/2000/svg" width="256" height="256" viewBox="128 -74 256 256"><path d="M185.299 77.393a4.913 4.913 0 0 1-3.479-1.44l-29.118-29.12v25.641a4.92 4.92 0 1 1-9.84 0v-37.52a4.92 4.92 0 0 1 8.4-3.479l29.118 29.12v-25.64a4.92 4.92 0 1 1 9.84 0v37.52a4.927 4.927 0 0 1-3.039 4.547 4.958 4.958 0 0 1-1.882.371m22.785-47.313l-1.352 2.523-10.456 19.004-1.352 2.399 1.352 2.397 10.456 18.39 1.413 2.521h27.371l1.352-2.767 7.811-15.745 3.505-7.134h-7.933l-19.988.061c-2.6-.035-4.991 2.321-4.991 4.921s2.392 4.957 4.991 4.92l12.055-.062-2.952 5.966h-15.499l-7.689-13.531 7.75-14.022h16.486l3.844 7.888h9.903l-6.243-14.959-1.354-2.77h-28.48m49.846-.061c-2.578.032-4.893 2.405-4.859 4.981v12.822h9.841V35c.031-2.618-2.367-5.015-4.982-4.981m15.772 47.468a4.916 4.916 0 0 1-4.918-4.921v-37.52c0-2.718 2.202-4.92 4.92-4.92s4.92 2.202 4.92 4.92v25.641l29.118-29.12a4.914 4.914 0 0 1 5.361-1.066 4.922 4.922 0 0 1 3.036 4.546v37.52a4.92 4.92 0 1 1-9.84 0v-25.64l-29.118 29.119a4.91 4.91 0 0 1-3.479 1.441m78.885-23.717l15.307-15.25a4.921 4.921 0 0 0-6.946-6.971l-15.329 15.276-15.33-15.276a4.922 4.922 0 0 0-6.947 6.971l15.307 15.25-15.261 15.208a4.916 4.916 0 0 0-.012 6.957 4.896 4.896 0 0 0 3.485 1.448 4.902 4.902 0 0 0 3.472-1.437l15.286-15.231 15.284 15.231a4.904 4.904 0 0 0 3.474 1.437 4.92 4.92 0 0 0 3.473-8.405L352.587 53.77M257.93 77.348c-2.578-.032-4.893-2.405-4.859-4.981V51.77h9.841v20.596c.031 2.615-2.367 5.013-4.982 4.982" fill="#090"/></svg>