<?xml version="1.0" encoding="UTF-8" standalone="no"?>
<!DOCTYPE svg PUBLIC "-//W3C//DTD SVG 1.1//EN" "http://www.w3.org/Graphics/SVG/1.1/DTD/svg11.dtd">
<svg width="100%" height="100%" viewBox="0 0 256 256" version="1.1" xmlns="http://www.w3.org/2000/svg" xmlns:xlink="http://www.w3.org/1999/xlink" xml:space="preserve" xmlns:serif="http://www.serif.com/" style="fill-rule:evenodd;clip-rule:evenodd;stroke-linejoin:round;stroke-miterlimit:2;">
    <g transform="matrix(0.819012,0,0,0.819012,23.1665,23.2365)">
        <path d="M13.838,83.396L13.838,159.651L77.31,159.651L77.31,172.433L128,172.433L128,159.651L242.162,159.651L242.162,83.396L13.838,83.396Z" style="fill:rgb(203,56,55);fill-rule:nonzero;"/>
        <path d="M77.31,96.179L26.621,96.179L26.621,146.869L51.746,146.869L51.746,108.961L64.529,108.961L64.529,146.868L77.31,146.868L77.31,96.179ZM90.093,96.179L90.093,159.652L115.658,159.652L115.658,146.868L140.782,146.868L140.782,96.179L90.093,96.179ZM128,134.086L115.658,134.086L115.658,108.961L128,108.961L128,134.086ZM229.819,96.179L153.565,96.179L153.565,146.869L178.689,146.869L178.689,108.961L191.472,108.961L191.472,146.868L204.254,146.868L204.254,108.961L217.036,108.961L217.036,146.868L229.819,146.868L229.819,96.179Z" style="fill:white;fill-rule:nonzero;"/>
    </g>
</svg>
