<?xml version="1.0" encoding="UTF-8" standalone="no"?>
<!DOCTYPE svg PUBLIC "-//W3C//DTD SVG 1.1//EN" "http://www.w3.org/Graphics/SVG/1.1/DTD/svg11.dtd">
<svg width="100%" height="100%" viewBox="0 0 256 256" version="1.1" xmlns="http://www.w3.org/2000/svg" xmlns:xlink="http://www.w3.org/1999/xlink" xml:space="preserve" xmlns:serif="http://www.serif.com/" style="fill-rule:evenodd;clip-rule:evenodd;stroke-linejoin:round;stroke-miterlimit:2;">
    <g transform="matrix(0.365234,0,0,0.365234,20,101.72)">
        <g>
            <g>
                <g>
                    <g transform="matrix(1.15508,0,0,1.15508,-1.59195e-11,-1.75328e-13)">
                        <path d="M104.069,0L98.514,9.522C97.88,10.609 96.738,11.215 95.563,11.215C94.979,11.215 94.387,11.066 93.846,10.75C92.217,9.801 91.668,7.71 92.618,6.082L96.165,0L86.191,0C86.192,0.582 86.059,1.171 85.747,1.71L70.402,28.213C66.639,34.739 58.565,38.522 52.287,38.522L47.374,38.522C45.489,38.522 43.961,36.994 43.961,35.109C43.961,33.224 45.489,31.695 47.374,31.695L52.287,31.695C56.736,31.695 61.835,28.533 64.368,25.019C66.056,22.676 70.883,14.337 78.847,0L69.782,0C55.459,30.842 46.926,24.869 21.326,24.869C19.631,27.436 17.927,30.012 16.261,32.549L34.126,32.549C36.011,32.549 37.539,34.077 37.539,35.962C37.539,37.847 36.011,39.375 34.126,39.375L11.81,39.375C10.287,41.739 8.839,44.02 7.512,46.169L63.592,45.775L61.083,45.776C64.479,45.845 69.973,43.857 72.633,39.676L85.855,18.777C86.863,17.184 88.971,16.709 90.565,17.718C92.157,18.726 92.631,20.833 91.624,22.427L78.397,43.334C74.409,49.599 66.862,52.702 60.983,52.602L3.459,53.024C0.792,57.82 0,60.954 0.034,62.415L76.287,62.415L115.193,2.682C112.737,1.266 109.219,0.122 104.718,0L104.069,0Z" style="fill:url(#_Linear1);fill-rule:nonzero;"/>
                    </g>
                    <g transform="matrix(1.15508,0,0,1.15508,-1.59195e-11,-1.75328e-13)">
                        <path d="M76.287,62.415L0.033,62.415C-0.212,66.032 0.916,69.788 3.038,73.089L54.091,73.089C62.035,72.216 69.083,75.52 75.235,82.999L88.038,103.697C89.043,105.292 88.564,107.4 86.969,108.404C86.404,108.76 85.775,108.93 85.154,108.93C84.019,108.93 82.91,108.365 82.262,107.334C74.368,94.539 69.562,87.301 67.842,85.621C65.262,83.101 61.958,79.935 54.091,79.935L7.326,79.935L11.881,87.169L30.11,87.169C31.995,87.169 33.524,88.697 33.524,90.582C33.524,92.467 31.995,93.995 30.11,93.995L16.179,93.995L20.473,100.815C51.193,100.815 55.46,104.229 66.007,124.587L74.956,124.587C67.313,110.939 62.484,102.889 60.468,100.435C57.445,96.755 53.37,93.995 48.094,93.995L43.358,93.995C41.473,93.995 39.945,92.467 39.945,90.582C39.945,88.697 41.473,87.169 43.358,87.169L48.094,87.169C55.332,87.169 63.454,91.819 66.386,97.478L82.584,123.981C82.697,124.177 82.787,124.38 82.858,124.587L95.061,124.587L91.162,117.902C90.212,116.274 90.762,114.184 92.39,113.234C92.931,112.919 93.523,112.769 94.107,112.769C95.281,112.769 96.425,113.375 97.059,114.463L102.965,124.587L105.967,124.587C108.345,124.594 110.088,124.341 113.486,122.149L76.287,62.415Z" style="fill:url(#_Linear2);fill-rule:nonzero;"/>
                    </g>
                    <g transform="matrix(1.15508,0,0,1.15508,-1.59195e-11,-1.75328e-13)">
                        <path d="M115.193,2.682L110.452,9.897L116.326,18.708C117.371,20.277 116.948,22.397 115.379,23.442C114.798,23.83 114.14,24.015 113.49,24.015C112.386,24.015 111.303,23.482 110.646,22.496L106.379,16.095L101.667,23.264L118.5,50.816C122.436,57.255 122.417,65.244 118.453,71.666C118.401,71.747 118.348,71.828 118.29,71.905L116.229,74.688C115.559,75.591 114.527,76.069 113.484,76.069C112.777,76.069 112.065,75.85 111.454,75.398C109.939,74.275 109.621,72.137 110.744,70.623L112.715,67.964C115.25,63.763 115.238,58.569 112.676,54.375L97.521,29.573L75.94,62.415L92.911,36.832L101.293,49.78C105.594,56.425 105.577,64.98 101.249,71.609L91.3,86.851L75.94,62.415L95.685,93.829L104.782,81.7C105.914,80.193 108.052,79.887 109.561,81.018C111.069,82.149 111.374,84.289 110.244,85.797L99.576,100.02L104.764,108.273L129.913,68.566C132.781,64.038 132.814,58.166 129.997,53.606L117.835,33.916C116.845,32.312 117.342,30.209 118.946,29.218C120.551,28.227 122.653,28.725 123.643,30.328L135.805,50.019C139.985,56.786 139.935,65.499 135.681,72.219L109.116,114.161C109.01,114.33 108.887,114.481 108.757,114.625L113.484,122.149C115.543,120.522 117.009,119.155 117.882,118.05C127.899,105.363 138.324,90.12 149.157,72.322C152.867,66.227 152.964,58.675 149.294,52.599C135.332,29.484 119.82,4.975 115.193,2.682Z" style="fill:url(#_Linear3);fill-rule:nonzero;"/>
                    </g>
                    <g transform="matrix(1.15508,0,0,1.15508,-1.59195e-11,-1.75328e-13)">
                        <path d="M482.987,28.587C504.951,28.587 511.862,37.787 511.998,45.265L512,51.627C511.971,52.099 511.909,52.59 511.808,53.094L511.725,53.475C510.365,59.218 503.846,66.468 482.543,67.289L482.414,67.291L445.299,66.99L444.934,66.991L444.224,66.999L443.542,67.017L442.886,67.042L442.257,67.076C442.155,67.083 442.053,67.089 441.953,67.096L441.362,67.143L440.797,67.198L440.257,67.261L439.74,67.332L439.247,67.411C435.315,68.089 433.681,69.557 433.032,71.615L432.958,71.87L432.892,72.131L432.836,72.398C432.819,72.487 432.803,72.578 432.788,72.67L432.747,72.947C432.741,72.994 432.735,73.041 432.73,73.088L432.7,73.374L432.676,73.665L432.659,73.962L432.642,74.416L432.635,75.04L432.639,75.521L432.64,84.907L506.88,84.907C510.728,84.907 511.8,86.58 511.973,89.156L511.991,89.497L511.999,89.848L512,90.027C512,90.143 511.999,90.257 511.996,90.37L511.984,90.703C511.982,90.758 511.979,90.812 511.975,90.866L511.949,91.185C511.924,91.447 511.888,91.698 511.839,91.937L511.774,92.219C511.311,94.01 510.02,95.058 506.88,94.808L425.813,94.808L425.388,94.838L424.981,94.859L424.59,94.871C421.217,94.93 419.84,93.773 419.84,89.174L419.84,74.667C419.84,63.804 428.267,59.454 435.626,57.765L436.282,57.621L436.93,57.49C437.145,57.449 437.359,57.41 437.57,57.373L438.2,57.267L438.818,57.174L439.422,57.092L440.012,57.02C440.109,57.009 440.205,56.998 440.301,56.988L440.866,56.931L441.412,56.883L441.938,56.843L442.686,56.798L443.38,56.769L444.015,56.752L444.404,56.748L483.84,56.747C492.919,56.747 496.647,54.071 498.169,51.716L498.324,51.465L498.463,51.218C498.485,51.177 498.506,51.136 498.526,51.095L498.643,50.854L498.745,50.618C498.761,50.579 498.777,50.541 498.792,50.503L498.875,50.276C498.888,50.239 498.9,50.202 498.912,50.166L498.978,49.951L499.034,49.744L499.08,49.547L499.133,49.271L499.159,49.101L499.186,48.87L499.204,48.609L499.206,48.334L499.202,48.203L499.226,47.999L499.24,47.778L499.244,47.568L499.239,47.323L499.229,47.142L499.212,46.948L499.187,46.741L499.154,46.522L499.111,46.293C499.095,46.215 499.078,46.135 499.058,46.054L498.992,45.807C498.981,45.765 498.968,45.722 498.955,45.68L498.87,45.42C497.891,42.616 494.471,38.672 483.03,38.396C482.958,38.395 482.884,38.401 482.812,38.401L448,38.401C444.937,38.401 442.453,35.917 442.453,32.854C442.453,29.791 444.937,28.587 448,28.587L482.987,28.587ZM390.086,48.667L351.315,91.972C346.137,97.015 340.166,97.015 335.043,91.972L294.895,47.949L294.895,89.898C294.836,93.668 291.714,96.701 287.963,96.619C284.193,96.561 281.184,93.458 281.242,89.688L282.093,34.431C282.127,32.185 283.155,30.017 284.999,28.737C287.851,26.758 291.581,27.225 293.861,29.614L342.171,80.719C342.444,81.009 342.909,81 343.172,80.699L389.616,30.913C391.494,28.796 396.204,27.793 398.851,28.793C401.499,29.791 403.522,32.354 403.534,35.185L403.534,89.688C403.534,94.825 400.328,94.913 396.442,94.913C392.672,94.913 389.882,94.851 389.882,89.825C389.882,86.474 389.95,72.755 390.086,48.667ZM238.507,28.161C251.43,28.165 266.662,33.446 266.662,46.054L266.662,53.475C266.662,65.357 252.429,71.648 240.651,71.268L190.5,71.254L190.5,90.684C190.5,92.851 188.791,94.62 186.648,94.717L186.464,94.721L180.677,94.721C178.509,94.721 176.741,93.012 176.644,90.868L176.64,90.684L176.64,32.551C176.64,30.189 178.507,28.262 180.845,28.165L181.03,28.161L238.507,28.161ZM240.294,38.401L189.867,38.401L189.867,60.779L240.213,60.587C247.78,60.587 253.645,60.587 253.863,53.475L253.863,46.054C253.863,38.401 245.346,38.396 240.294,38.401Z" style="fill-rule:nonzero;"/>
                    </g>
                </g>
            </g>
        </g>
    </g>
    <defs>
        <linearGradient id="_Linear1" x1="0" y1="0" x2="1" y2="0" gradientUnits="userSpaceOnUse" gradientTransform="matrix(-24.1474,-11.8008,11.8008,-24.1474,77.3395,40.3748)"><stop offset="0" style="stop-color:rgb(82,11,245);stop-opacity:1"/><stop offset="1" style="stop-color:rgb(157,31,224);stop-opacity:1"/><stop offset="1" style="stop-color:rgb(157,31,224);stop-opacity:1"/></linearGradient>
        <linearGradient id="_Linear2" x1="0" y1="0" x2="1" y2="0" gradientUnits="userSpaceOnUse" gradientTransform="matrix(-28.4319,13.6205,-13.6205,-28.4319,76.5608,84.1716)"><stop offset="0" style="stop-color:rgb(158,31,167);stop-opacity:1"/><stop offset="1" style="stop-color:rgb(229,64,174);stop-opacity:1"/></linearGradient>
        <linearGradient id="_Linear3" x1="0" y1="0" x2="1" y2="0" gradientUnits="userSpaceOnUse" gradientTransform="matrix(-53.2581,6.52224e-15,-6.52224e-15,-53.2581,151.994,62.4153)"><stop offset="0" style="stop-color:rgb(75,106,242);stop-opacity:1"/><stop offset="1" style="stop-color:rgb(76,167,235);stop-opacity:1"/></linearGradient>
    </defs>
</svg>
