<svg xmlns="http://www.w3.org/2000/svg" width="256" height="256"><g fill="#DD3735"><path d="M217.431 123.104c-.06-2.296-.181-4.652-.302-6.949-.121-2.357-.181-4.713-.423-7.07-.423-3.203-.847-6.466-1.571-9.608-.544-2.599-1.45-5.076-2.355-7.553-1.148-2.901-2.298-5.862-3.747-8.641-2.357-4.472-5.438-8.46-8.278-12.629-1.873-2.659-4.291-4.834-6.103-7.553-1.028-1.571-2.539-2.901-4.05-4.109-2.417-1.933-4.954-3.686-7.492-5.377-1.934-1.33-3.867-2.598-5.922-3.747-1.632-.907-3.385-1.632-5.076-2.417-1.933-.907-3.807-1.994-5.982-2.417-.543-.121-1.026-.302-1.57-.483-1.39-.484-2.72-1.027-4.109-1.45-2.114-.665-4.169-1.451-6.345-1.994-2.114-.544-4.289-.907-6.465-1.209-2.417-.362-4.895-.483-7.312-.725-1.571-.181-3.143-.362-4.653-.423-2.296-.12-4.652-.12-6.949-.181-1.148-.06-2.356-.181-3.505-.121-1.752.061-3.504.242-5.257.484-1.691.181-3.383.483-5.015.725-1.994.241-3.988.362-5.982.604-1.873.242-3.807.604-5.68.906-.665.121-1.33.363-1.994.483-1.45.302-2.961.424-4.412.907a116.954 116.954 0 0 0-7.734 2.658c-2.356.967-4.653 1.994-6.888 3.203-2.296 1.269-4.472 2.78-6.647 4.23-2.054 1.389-4.108 2.84-6.103 4.411-1.933 1.51-3.746 3.202-5.499 4.895-.967.966-1.752 2.115-2.659 3.202-1.51 1.752-3.021 3.445-4.471 5.257-1.208 1.511-2.296 3.083-3.444 4.654-2.055 2.779-3.807 5.74-5.438 8.701-.665 1.208-1.269 2.417-1.873 3.625-.907 1.813-1.874 3.565-2.719 5.438-.604 1.269-1.088 2.659-1.451 4.048a486.081 486.081 0 0 0-2.477 8.943c-.725 2.659-.907 5.438-.967 8.158-.061 2.417.181 4.773.423 7.191.06.604-.302 1.329.423 1.812.06 0 0 .242-.061.302-.181.363 0 .725.363.846 0 0 .06.061.06.121h-.302c-.181.544.423.967.181 1.571-.06.121.182.362.302.544 0 .181-.06.423 0 .604.061.544.303 1.088.303 1.692 0 .423.362.905.483 1.329.06.182 0 .483-.121.604-.362.423-.302.786.242 1.026.121.062.302.303.302.423 0 .363-.121.726-.181 1.089.12.121.181.241.12.361 0 .182-.181.363-.12.484.483.966.664 2.055.725 3.142 0 .242.121.483.241.786.061 0 .242 0 .363.061l-.363 1.087c.302-.182.544-.241.846-.362.181.786.363 1.511.604 2.175.061.122.182.242.363.363-.061.121-.061.362-.181.424.242 1.087.362 2.114.785 3.142.061 0 .121-.062.181-.062-.181-1.087-.302-2.235-.483-3.323v-.362s.121-.06.181-.06c.061.241.182.543.182.725.483 0 1.208.302 1.691.302.061-.182.121-.423.182-.543-.363-.363-.665-.907-1.028-1.27.121.483 0 .664 0 .846-.241-.12-.543-.241-.845-.362.241-.302.483-.604.845-.967 0-.543-.302-1.027-1.148-.967.363-.121.726-.302 1.148-.423.061.182.121.362.182.483.483-.846-.242-1.511-.242-2.356.06-1.027-.544-2.055-.725-3.143-.302-1.692-.242-4.229-.423-5.921 0-.121-.181-.242-.302-.363-.061.061-.363.846-.423.907.181 1.451.362 2.9.483 4.35-.061 0-.122 0-.122.061-.241-1.27-.483-2.599-.785-4.048-.06.423-.121.604-.121.846-.181-.061-.241-.121-.544-.242.242.544.484.907.665 1.329-.423-.182-.906-.12-.906-.12v1.691c-.604-.604-.786-1.088-1.087-1.511-.122-.482-.182-.967-.302-1.45l.181-.061c-.06-.241-.181-.423-.181-.604-.06-.423-.121-.906-.181-1.45.06-.06.302-.121.423-.241l-.484-.725c.484.06.786.12 1.088.12 0-.12.06-.181 0-.241-.604-.544-.181-1.028.06-1.511.121-.242.543-.302.665-.544.483-.906 1.269-1.631 1.269-2.779 0-.544.181-1.148.241-1.692.122-1.027.242-2.054.303-3.082.12-1.329 0-2.659.302-3.928.483-2.115 1.087-4.23 1.752-6.344a66.462 66.462 0 0 1 1.631-4.472c.907-2.357 1.752-4.713 2.9-6.95 1.632-3.262 3.505-6.405 5.318-9.607 1.148-1.994 2.357-3.867 3.625-5.801 1.209-1.873 2.417-3.806 3.807-5.559 1.933-2.478 4.048-4.773 6.405-6.829 2.417-2.175 4.713-4.411 7.312-6.405a73.952 73.952 0 0 1 10.756-6.889c3.082-1.631 6.284-2.9 9.487-4.109 2.054-.785 4.29-1.147 6.404-1.813 2.417-.786 4.834-1.148 7.372-1.208 1.632-.061 3.203-.242 4.834-.422 1.45-.122 2.9-.242 4.471-.423a2.65 2.65 0 0 0-.302.483c-.665.967-1.39 1.933-2.054 2.9-.544.786-1.148 1.631-1.692 2.417-.967 1.269-1.994 2.538-2.9 3.867-1.39 1.994-2.659 4.048-4.109 6.042-1.45 1.934-3.021 3.747-4.531 5.62-1.994 2.598-3.867 5.257-5.862 7.855-1.813 2.478-3.746 4.834-5.499 7.312-1.571 2.175-2.961 4.472-4.472 6.708-2.236 3.324-4.471 6.586-6.708 9.91a570.16 570.16 0 0 1-5.317 7.553c-.121.182-.302.242-.483.362-.122.121-.363.242-.363.363-.12.423-.12.846-.302 1.208-.483.907-.966 1.813-1.511 2.659-.302.484-.725.907-1.087 1.39-.122-.06-.182-.12-.302-.12.242-.605 1.269-.967.786-1.874-.302.483-.605.906-.907 1.39l-.725 1.45c.242.182.665.302.242.665-.181.302-.363.664-.544.967.061 0 .061.06.121.06.181-.242.363-.423.544-.665.06 0 .121.061.181.061-.181.604-.544 1.148-.846 1.692-.242.483-.846.845-1.269 1.208.061.06.484.242.544.302.181-.242.242-.121.423-.362.122.181.302-.121.363.06.181-.242.362-.423.423-.604.241-.604.604-1.088 1.208-1.33.242-.121.423-.303.604-.483 1.813-1.874 3.687-3.686 5.317-5.68 2.538-3.083 4.834-6.285 7.251-9.427 1.028-1.329 2.236-2.658 3.324-3.927.121.061.242.061.303.121a83.853 83.853 0 0 0-.303 3.867c-.182 2.235-.302 4.472-.483 6.768-.06.906 0 1.813-.06 2.719 0 .241-.182.422-.182.665 0 .604.182 1.269.182 1.873-.182 2.236-.423 4.411-.605 6.647-.06.484.182.967.303 1.39-.061-.06-.121-.121-.303-.242 0 3.505.665 6.95.121 10.394.242-.061.363-.12.363-.242.06-.423.181-.846.181-1.269.061-.362 0-.725 0-1.148v-.604c.061-1.088.302-2.236.181-3.323-.12-1.209-.12-2.357.121-3.505.122-.483-.06-1.087.242-1.691v.906c-.061 3.444.06 6.889-.423 10.333-.06.302.181.847-.483.785-.061 0-.121.302-.242.483-.302.604.362 1.39-.242 1.994-.121.121.121.665.181 1.028 0 .12.061.24 0 .302-.241.423-.241.423.121.483.061 1.329.182 2.538.242 3.807h.181c.786-2.297.302-4.653.725-7.01.061.967.121 1.934.061 2.961 0 1.571-.061 3.082-.121 4.653 0 .302-.061.604-.121.905-.182.847-.242 1.692-.544 2.478-.241.605-.121 1.512-.121 2.237v2.295c0 .061.182.242.182.484.06.543-.242 1.088-.061 1.691.061.121-.06.302-.121.424-.061.18-.121.361-.061.543l.181.906c0 .061.061.121.121.241.061-.241.061-.423.061-.482 1.027.12.483 1.026.966 1.511-.241.12-.423.181-.423.241.061.242.182.423.182.665 0 .543-.061 1.027-.121 1.571 0 1.389-.061 2.779-.061 4.108 0 .181.061.362.061.544 0 .12-.061.242-.061.423v1.27h.242c-.121.181-.242.362-.423.543-.061 0-.242 0-.242-.061v-7.613h-.906c-.121 3.625.181 6.889-.483 10.271-.725.062-.967.182-1.752.182-1.873 0-3.747 0-5.62.061-2.236 0-4.411.062-6.647.062-1.087 0-2.235.12-3.323.12-1.45 0-2.96-.182-4.411-.182-2.236 0-4.411.182-6.646.242-1.632.061-3.263.061-4.895.121-1.088.06-2.176.121-3.263.241-.483.061-.906.242-1.511.423-.181 0-.604-.06-.966 0-.604.121-1.148.484-1.752.604-.907.182-1.148.423-1.028 1.33v.604a1.849 1.849 0 0 0-.423-.302c-.06 0-.12.061-.12.061.06.181.181.302.241.483.242-.121.544-.423.786-.423h.846c-.121 0-.182.362-.363.664a51.23 51.23 0 0 0 1.088-.423c.06.182.06.423.06.483.846-.061 1.631-.302 2.356-.12 2.357.604 4.774.845 7.191 1.087 1.571.121 3.082.182 4.653.241 2.235.122 4.471.242 6.707.242 1.873 0 3.686-.181 5.559-.181 2.599 0 5.197.12 7.795.181.544 0 1.148-.061 1.752-.061h4.411c3.928-.12 7.855-.182 11.783-.302 2.236-.061 4.532-.182 6.768-.241l6.888-.182c2.659-.061 5.317-.061 7.916-.122 1.994 0 3.928-.06 5.922-.12 2.235-.061 4.532-.241 6.768-.362 1.209-.061 2.417-.181 3.627-.303 1.45-.12 2.96-.302 4.41-.362 2.175-.12 4.411-.181 6.586-.303 2.72-.18 5.439-.423 8.219-.482 2.537-.121 5.136-.061 7.673-.121 2.237-.06 4.472-.182 6.769-.241l3.808-.182s2.537-.061 3.806-.182c2.176-.12 4.352-.362 6.526-.422 1.39-.061 2.779 0 4.17-.061 2.235-.062 4.532-.182 6.767-.182.847 0 1.754.12 2.841.182-.483.423-.785.664-1.148.966.242.062.483.182.725.302 0 .062-.06.121-.06.243-.302 0-.604.06-.907.06-.12.303-.241.423-.361 1.027h1.087c-.422 0-.785.543-1.209.906.062.061.122.061.182.121-.664-.242-1.087-.121-1.328.544.18.061.302.061.482.061-.061.181-.12.362-.181.604-.061.122-.122.242-.122.424l-.18-.182c0-.12 0-.242-.061-.362-.363.362-.907.604-.605 1.39-.241.121-.543.242-.845.423.06.121.18.242.241.423-.544.061-1.088.182-.967.847.241.06.483.181.664.24-.302.122-.604.303-.905.424-.062.121-.122.423-.243.483-.846.182-.362.483-.12.785-.182.122-.362.242-.544.303a.994.994 0 0 1 .424.241c-.182.121-.304.182-.424.243.12.06.302.18.362.18-.242.182-.544.424-.905.726 0 .121 0 .182.06.302-.241.242-.483.483-.725.847-.242.361-.362.846-.665 1.208-1.27 1.39-2.176 3.021-3.808 4.109-.604.423-1.147.966-1.691 1.511-1.087 1.027-2.055 2.175-3.203 3.142-1.51 1.27-3.081 2.417-4.713 3.565a354.923 354.923 0 0 1-5.981 4.109c-1.088.725-2.296 1.269-3.444 1.934-1.148.664-2.236 1.269-3.385 1.934-.725.483-1.39 1.147-2.175 1.511-1.994.846-4.109 1.571-6.164 2.356-.182.06-.302.12-.483.181-1.51.665-2.96 1.391-4.471 1.934-1.391.483-2.84.847-4.291 1.148-.483.121-1.027 0-1.57.061-1.027.182-2.056.423-3.082.544-2.658.362-5.317.604-7.976.967-1.571.181-3.083.482-4.653.664-1.088.062-2.235-.06-3.324-.06-.785 0-1.631.181-2.417.06-1.268-.182-2.537-.483-3.806-.725-.302-.061-.725-.182-.967-.061-.483.241-.906-.121-1.389 0-.302.061-.604-.182-.907-.182-.242-.06-.543.061-.846 0-.665-.182-1.269-.422-1.994-.362-.725.061-1.45-.302-2.236-.482-1.087-.242-2.114-.484-3.202-.726-.423-.121-.785-.302-1.208-.544-.121.06-.302.181-.544.181-1.027-.181-2.054-.241-3.021-.604-.846-.303-1.631-.725-2.539-.604-.241.061-.423-.061-.664-.061-.182-.241-.363-.726-.544-.726-1.209.062-1.934-.967-2.961-1.269-.543-.182-.966-.785-1.51-.967-1.329-.543-2.417-1.691-3.927-1.873-.484-.061-.967-.302-1.511-.483.181.241.302.423.483.604l-.121.12c-1.631-.966-3.263-1.934-4.894-2.839-.242-.062-.423-.303-.604-.424l-1.631-1.088c-.181-.12-.544-.302-.544-.242-.362.424-.725.062-.966-.06-1.632-1.148-3.505-1.873-5.077-3.143-.664-.543-1.45-.905-1.933-1.57-.846-1.027-1.873-1.753-3.021-2.357-.906-.482-1.752-1.027-2.598-1.57-.423-.302-.846-.665-.846-1.33 0-.422-.181-.846-.725-.604-.242-.363-.483-.786-.785-.907-.725-.302-1.209-.846-1.753-1.329-.543-.483-.966-1.148-1.631-1.39-1.208-.483-1.933-1.511-2.658-2.356-1.692-1.995-3.203-4.17-4.774-6.284-.121-.182-.362-.303-.544-.483l-.061.061c.302.604.604 1.147.907 1.752-.061.061-.182.121-.242.181-.363-.423-.786-.846-1.148-1.269-.061.061-.121.121-.181.121l4.35 6.889c.362.544.665 1.088 1.027 1.631a.795.795 0 0 1-.242.182c-.665-.12-1.269-.604-1.571-1.148-.543-.966-1.148-1.57-2.356-1.45a10.42 10.42 0 0 1-.302-1.329c-.242 0-.423 0-.846-.06a128.774 128.774 0 0 1 2.356 3.806c-.302-.181-.483-.302-.604-.361 1.088 1.147 1.873 2.598 3.264 3.323.302 1.39 1.873 2.055 2.235 3.383-.302-.06-.543-.12-.845-.181-.484-.604-1.028-1.208-1.571-1.873.12.423.302.785.543 1.088.726.906 1.39 1.813 2.236 2.598.302.303.725.424.725.967.121-.121.242-.181.483-.302a3.672 3.672 0 0 0-.241.544c.241 0 .423.061.604.061.121.362-.061.906.665.785.061 0 .121.06.182.121.302.785.785.785 1.45.483.121-.061.423 0 .483.12.302.665.725.726 1.269.242 0 .303.06.604.06.846h.242c0-.121-.06-.303-.06-.604.302.242.483.363.604.483.604.846 1.148 1.633 1.994 2.296 1.148.967 2.175 1.995 3.263 2.901 2.115 1.752 4.472 3.202 6.829 4.532 2.9 1.631 5.68 3.384 8.641 4.954 3.564 1.874 7.372 3.143 11.299 4.05 1.45.302 2.84.604 4.291.966 1.269.362 2.538.907 3.806 1.209 1.934.423 3.928.785 5.862 1.147.423.061.846.122 1.329.182v.121c.544 0 1.209-.242 1.33-.061.302.483.543.241.906.182.423-.121.906-.121 1.389-.121 1.692.06 3.323.423 5.016.303.363 0 .907-.303 1.208.302.122-.062.182-.122.302-.182.242-.061.544-.061.786-.12v.12c-.121.06-.242.06-.483.121.302.061.483.12.665.181-.121.121-.182.121-.303.182-.121.06-.302.121-.543.302 2.175.423 4.229.484 6.043 0v-.362h.24c0 .12.062.242.121.362 2.779.242 5.498-.12 8.097-1.027.242.302.424.726.786.122.121-.182.423-.243.665-.303.543-.121 1.208-.362 1.691-.181.544.181.726-.304 1.148-.304.725 0 1.39-.06 2.055-.181.362-.061.725-.242 1.147-.362 0-.061 0-.12-.061-.182-.422-.061-.905-.12-1.269-.12.725-.363 1.39-.666 2.055-.968 0 .061.061.061.061.122-.182.06-.302.302-.544.302h.846c-.182 0-.423.544-.726.906 2.176-.544 4.17-1.028 6.104-1.511v-.121c-.241.061-.424.061-.604.121-.062-1.27 1.328-.846 1.812-1.571-.604.182-1.208.362-1.812.483v-.121c2.054-.905 4.169-1.813 6.223-2.719 0 .061.062.061.062.121-.363.242-.726.423-1.27.725.362.061.604.061.785.121 0 .182 0 .302-.061.363 1.027-.062.785-.967 1.088-1.512.182.061.423.182.604.121.544-.121 1.027-.302 1.57-.483.605-.182 1.21-.362 1.813-.604.967-.423 1.873-.966 2.84-1.45.182-.061.483 0 .726 0 .181 0 .303-.121.423-.241.241-.182.483-.544.665-.484.845.121 1.449-.181 1.691-.966.061 0 .061-.061.121-.061.302-.241.604-.483.906-.665 1.329-.726 2.599-1.45 3.928-2.175.061-.061.182 0 .303 0 .181 0 .423 0 .543-.061.786-.363 1.512-.785 2.236-1.208-.182-.062 0-.122-.604-.182v-.122c.604-.12.785-.181 1.148-.302l-.122-.12c1.572-1.571 3.566-2.719 5.076-4.049.302.061.424.12.604.12.061-.181.061-.362.061-.482.241-.303.484-.665.786-.906 1.328-1.209 2.779-2.236 3.987-3.506a84.847 84.847 0 0 0 5.016-5.437c1.451-1.692 2.901-3.385 4.109-5.258 1.691-2.599 3.142-5.257 4.651-7.977 1.089-1.934 2.056-3.867 3.143-5.802.122-.181.363-.422.544-.422 1.632-.182 3.264-.303 4.835-.483.362-.061.785-.302 1.147-.483-.182-.303-.302-.666-.483-.968-.241-.362-.604-.665-.847-1.026-.24-.302-.422-.665-.604-1.027-.182-.302-.361-.544-.543-.847-.363-.664-.726-1.329-1.028-2.054-.06-.182-.181-.483-.12-.665 1.087-2.355 1.51-4.895 2.537-7.25 1.028-2.418 1.33-5.138 1.813-7.735.423-2.478.664-4.955.967-7.433.182-1.753.423-3.445.483-5.197.358-2.778.238-5.376.177-7.974zM65.52 190.539c-.422-.483-.785-1.027-1.208-1.511l.181-.182c.665.726 1.33 1.45 1.994 2.236-.362-.18-.785-.302-.967-.543zm.966.544c.182-.061.363-.061.544-.121.181.302.302.665.483 1.027-.845-.06-1.268-.424-1.027-.906zm62.843 24.955v-.18c1.148-.122 2.236-.243 3.385-.363v.182a31.865 31.865 0 0 1-3.385.361zm15.229-1.57c-.847.182-1.753.302-2.6.423-.302.061-.663.362-.784-.181-.121.06-.242.06-.362.12.302.906 1.026.182 1.63.545-1.328.181-2.598.302-3.865.483v-.122c.361-.06.785-.121 1.147-.181v-.181c-.605-.062-1.209-.122-1.813-.122-.182 0-.423.242-.604.303-.243.06-.484.121-.786.121-1.027.06-2.054.06-3.021.121-.061 0-.182-.062-.242-.062v-.181c4.049-.544 8.037-1.088 12.085-1.632.061.121.061.242.121.362-.363.002-.605.124-.906.184zm.906-.605c1.389-.181 2.659-.303 3.988-.482-2.779.785-3.686.905-3.988.482zm-52.631-122c1.934-2.659 3.928-5.317 5.861-8.037.604-.785 1.087-1.631 1.692-2.417.181-.242.422-.363.725-.604l-.061-.121c.242-.302.483-.544.604-.786.302-.483.484-1.027.725-1.571.061-.121.242-.241.242-.241.846.422.846-.484 1.148-.786a42.626 42.626 0 0 0 1.571-1.873c.362-.483.725-.906 1.027-1.45.06-.181-.121-.483-.181-.725h-.181c.181-.121.362-.302.543-.423.061 0 .061 0 .121-.06.363-.544.726-1.088 1.088-1.571.725-.967 1.51-1.934 2.356-2.78-.121.302-.242.605-.362.846.06 0 .06.061.12.061.725-.967 1.511-1.874 2.236-2.84-.061-.061-.121-.121-.181-.121-.302.302-.544.604-.846.906-.061-.06-.121-.12-.182-.12.605-.786 1.209-1.571 1.813-2.478.121.182.242.423.483.907.242-.605.484-1.028.665-1.45-.181.181-.423.362-.604.543l-.182-.181 1.087-1.631c1.148-1.632 2.296-3.323 3.445-4.955.423-.604.967-1.087 1.329-1.692 1.148-2.296 2.961-4.109 4.351-6.224.303-.422.725-.786 1.088-1.148.302-.362.544-.241.786.061 1.631 2.054 3.263 4.169 4.894 6.224 1.209 1.511 2.417 2.961 3.565 4.532 1.39 1.934 2.72 3.867 4.108 5.801 1.572 2.236 3.143 4.472 4.653 6.768 2.296 3.383 4.471 6.768 6.769 10.151 1.691 2.478 3.384 4.895 5.015 7.373h-3.082c-2.84-.061-5.74-.303-8.58-.182-3.867.182-7.795.604-11.662.906-4.895.423-9.85.483-14.744.483-1.752 0-3.505.242-5.257.362-2.115.122-4.169.242-6.284.303-2.478.12-4.895.181-7.372.241-1.389.06-2.839-.001-4.349-.001zm69.309 27.796v.544c-.061 0-.122.06-.242.06-.241-.846-.483-1.752-.785-2.598-.604-1.752-1.27-3.504-2.356-5.076-1.209-1.692-2.296-3.444-3.505-5.197-.303-.423-.726-.786-1.088-1.148-1.269-1.39-2.538-2.84-4.17-3.868a49.494 49.494 0 0 0-7.554-3.867c-.725-.302-1.389-.664-2.113-1.087h1.45l10.332-.181c2.236-.061 4.411-.061 6.647-.182.544 0 .847.182 1.148.665a65.981 65.981 0 0 0 1.691 2.719c.061.12.182.302.182.483 0 1.329 0 2.719.06 4.048.061 1.39.181 2.719.242 4.109 0 1.389-.121 2.839-.062 4.29.062 2.057.123 4.171.123 6.286zM97.123 99.417c2.84-.121 5.559-.303 8.339-.423 2.175-.121 4.411-.182 6.586-.302.907-.061 1.753-.121 2.659 0-.967.483-1.934.966-2.779 1.571-1.088.725-2.115 1.692-3.203 2.478-1.087.785-2.055 1.752-2.96 2.779-1.148 1.39-2.417 2.599-3.625 3.928-.846.967-1.813 1.873-2.538 2.9-1.027 1.33-1.934 2.78-2.901 4.291.301-5.742.664-11.421.422-17.222zm39.458 58.13c-1.935.482-3.927 1.026-5.922 1.269-1.691.242-3.444.181-5.196.181-1.571 0-3.082-.061-4.653-.181-1.752-.182-3.504-.363-5.196-1.148-1.451-.665-2.96-1.269-4.411-1.993-1.45-.726-2.901-1.572-3.988-2.901-.786-.967-1.873-1.752-2.84-2.598a2.85 2.85 0 0 0 1.269 1.752c-.302.362-.725.181-1.329-.785-.181.12-.363.181-.483.241.182-.423.363-.846.543-1.208-.241-.483-.543-1.028-.785-1.511a49.477 49.477 0 0 1-1.39-2.417c-.121-.182-.121-.362-.242-.544-.302-.363-.604-.726-.845-1.088-.484-.726-.907-1.511-1.511-2.235 0 .181.06.362.06.604-.06 0-.121.061-.121.061l-1.269-3.081c-.061 0-.061 0-.121.06l1.088 3.988c-.061 0-.121.062-.182.062-.181-.242-.362-.484-.483-.787-.121-.482-.483-.482-.786-.302-.181.121-.302.544-.241.726.423 1.026.906 2.054 1.39 3.082.121.362.242.664.423 1.027.061.121.242.241.242.423.242.483.423.966.725 1.389.544.726 1.148 1.451 1.692 2.176.544.726 1.027 1.511 1.51 2.235.061.122.242.122.302.182.303.906 1.33 1.571 2.055 1.209.181 1.39 1.691 1.874 2.296 3.202a27.87 27.87 0 0 1-1.753-.785c-.06.061-.06.12-.121.242.726.361 1.451.725 2.115 1.147.604.362 1.209.726 1.752 1.148.726.664 1.571 1.026 2.599 1.269-.061-.182-.121-.242-.121-.242 1.691.787 3.444 1.632 4.773 2.297-6.285.12-12.992.242-19.941.362 0-1.148-.06-2.235-.06-3.384 0-.483.121-.906.06-1.39-.181-2.78-.181-5.56-.543-8.278-.363-2.9-.363-5.74-.302-8.641.06-1.571-.061-3.202-.121-4.774 0-2.114 0-4.169.061-6.284 0-.302.121-.544.242-.846h.181c.06.121 0 .302.121.362.181.182.483.483.604.423.363-.241.906-.483 1.027-.846.302-.725.423-1.511.423-2.236 0-.543.242-.906.483-1.269.121-.181.182-.362.303-.604-.242-.181-.484-.302-.786-.543.242-.665.181-1.451 1.088-1.813.121-.061.121-.363.181-.543.06-.483.121-1.027.181-1.511.121.181.181.242.302.362.061-.121.121-.181.121-.181 0-.242-.06-.725 0-.725.725-.121.423-.906.786-1.269.06-.06-.061-.242-.061-.362s0-.303.061-.303c.845-.181.725-1.087 1.268-1.51.182-.122.242-.302.484-.604.483.846-.363 1.269-.423 1.874 1.027-.604 1.33-2.055.725-2.478a3.49 3.49 0 0 0 .665-.665c.665-.725 1.39-1.39 1.994-2.115.423-.543.665-1.208 1.088-1.752.242-.302.725-.544 1.087-.725 1.088-.604 2.115-1.269 2.78-2.296.121-.121.302-.242.483-.362.181-.121.543-.121.604-.302.061-.121-.121-.423-.242-.604.242-.121.483-.362.967-.604-.181.363-.241.604-.362.847l.302.302c.544-.423 1.39-.906 1.933-1.269 0-.06-.302-.302-.302-.302-.362.182-.906.483-1.451.725.121-.181.121-.302.182-.362.846-.544 1.692-1.087 2.598-1.511 2.115-.967 4.23-1.933 6.345-2.84.363-.181.846-.06 1.269-.06.181 0 .302 0 .484-.06.966-.302 1.933-.604 2.9-.846a5.026 5.026 0 0 1 1.33-.181c1.813.06 3.624.06 5.438.181.785.061 1.51.242 2.235.483.906.302 1.873.725 2.719 1.148a29.895 29.895 0 0 1 2.961 1.813c1.753 1.148 3.384 2.417 5.136 3.444 1.692 1.027 3.021 2.417 4.109 3.988 1.329 1.873 2.841 3.565 3.444 5.861l.907 3.988c.18.725.604 1.451.423 2.296-.303 1.511-.545 3.082-.786 4.592-.12.604-.242 1.208-.182 1.813.121 1.873-.604 3.505-1.329 5.196-.241.545-.604 1.088-.906 1.692.061.061.423.242.483.242l.544-1.088c.06 0 .06 0 .121.061-.302.846-.544 1.753-.846 2.598-.726 1.874-1.45 3.808-2.357 5.62-.483 1.027-1.33 1.874-1.934 2.84-.604.846-1.087 1.752-1.692 2.538-.543.665-1.087 1.329-1.812 1.813-1.632 1.208-3.324 2.417-5.076 3.384-1.086.659-2.356 1.021-3.564 1.324zm-32.207-3.203l-.06.061c-.121-.061-.302-.121-.423-.241l-1.45-2.176c-.121-.182-.181-.363-.121-.604a51.523 51.523 0 0 0 2.054 2.96zm37.584 8.278c2.72-1.148 4.956-2.779 7.011-4.653.302-.302.604-.604.967-.845 2.537-1.572 4.411-3.747 6.103-6.164 1.935-2.78 3.203-5.923 4.774-8.883.12-.242.241-.483.362-.665-.121 6.89.664 13.657 1.57 20.484-6.827.243-13.776.485-20.787.726zm61.273-1.812c-.062.121-.182.241-.241.362-.062-.121-.062-.302-.122-.544-.362.967-1.147.483-1.692.483-3.262.061-6.586.061-9.849.061-3.143 0-6.345 0-9.487.062-1.027 0-2.115.24-3.143.302-2.478.12-4.954.181-7.432.24-.182 0-.362-.302-.664-.542-.061.12-.182.302-.363.542-.06-.12-.182-.24-.303-.422-.06.182-.12.362-.181.483h-.182c-.12-.847-.362-1.632-.362-2.478 0-1.813.181-3.626.242-5.438.061-.847 0-1.632 0-2.417.242.182.423.302.664.483.121-.241.241-.423.363-.604 0 0-.122-.061-.242-.182.12-.06.242-.181.242-.24.061-.182.181-.363.181-.484 0-.423-.12-.785-.181-1.148.061 0 .121 0 .181-.06l.362 1.813h.182c-.241-.424.544-.786-.121-1.27-.061-.06.062-.423.062-.604-.182-.362-.303-.725-.484-1.208.061-.06.242-.121.423-.181-.241-.121-.423-.242-.604-.304.604-.543.604-.845.061-1.449.12-.061.241-.061.241-.121 0-.544 0-1.087-.121-1.632-.12-.604.182-1.329-.726-1.69.062.181.121.302.243.482 0 0-.182.061-.363.181-.785-.725-.302-1.691-.483-2.779.423.121.725.242 1.026.362-.12-.422-.423-.905-.604-1.45h-.241v-3.987c0 .061.422.061.665.12 0-.06.06-.12.06-.181-.182-.242-.423-.483-.665-.785l.122-.122c-.484-.604-.242-1.449-.242-1.63v-4.231c.604.604-.303 1.391.604 1.753v-.604h-.06c-.062-.906-.062-1.812-.121-2.719h-.121c-.06.121-.06.182-.121.302h-.12c.12-4.773.241-9.547.362-14.442.604.786 1.27 1.511 1.692 2.296 1.39 2.538 3.202 4.714 4.895 7.01 1.45 1.994 2.779 4.169 4.108 6.224 1.631 2.478 3.202 4.955 4.834 7.433a179.235 179.235 0 0 0 3.746 5.559c1.148 1.632 2.357 3.203 3.566 4.774 1.026 1.39 2.113 2.78 3.142 4.169 1.209 1.692 2.416 3.384 3.625 5.016.604.846 1.27 1.692 1.934 2.538.362.483.907.847 1.27 1.148-.061 0-.121 0-.242-.062.182.242.302.423.423.545.664.359.725.723.362 1.267zm3.082-15.107v-.423c0 .12.06.302 0 .423zm2.054-26.648c-.061 0-.423-.363-.482-.423-.062.181 0 .362-.122.604-.06-.182-.482-.121-.482-.302-.061.846.361 1.692.302 2.538.181-.121.906-.182 1.088-.363a.45.45 0 0 0 .241.121c-1.208.906-.906 1.813-.363 2.84.122.241.484.725.122 1.208-.122.121.06.484.12.786h.182v.12l-.544.182c-.121-.182-.846-.544-.846-.846v3.081c.604.182.604 1.027.846 1.45.12-.181.182-.302.242-.483l.06.061c-.06.363-.12.726-.241 1.088-.121.544-.242 1.027-.302 1.571 0 .061.12.182.12.241-.665 1.512-.302 3.203-.544 4.774-.181 1.148 0 2.356-.121 3.564-.12 1.028-.361 2.115-.604 3.143-.061.182-.181.241-.483.363.12-.726.061-1.209-.061-1.874-.061 0-.846-.423-.907-.423 0 .847.483 1.995.665 2.96-.182-.06-.906-.482-.967-.482-.12.726-.12 1.692-.181 2.478-.061.604-.604 1.147-.664 1.813 0 .362.423.604.361 1.209h.483c0-1.209.545-2.296.545-3.565h.181c.06.121.241.241.182.303-.122.664-.362 1.389-.303 2.054 0 .362.303.726.181 1.148-.12.362-.181.726-.24 1.269-.062-.302-.121-.423-.121-.604-.061 0-.604-.06-.665-.06-.061.362.423.725.363 1.026-.062.062-.122.062-.242.122l-1.995-2.901a715.144 715.144 0 0 1-4.713-6.948 14.366 14.366 0 0 1-1.087-1.813 85.518 85.518 0 0 0-6.224-9.245c-1.753-2.236-3.143-4.653-4.774-7.009-1.51-2.235-3.021-4.412-4.532-6.647-.544-.725-1.208-1.39-1.692-2.175-1.57-2.478-2.96-5.016-4.531-7.493-1.328-2.055-2.78-4.048-4.169-6.042a64.6 64.6 0 0 1-1.45-2.115.858.858 0 0 1-.121-.423c-.121-1.33-.242-2.659-.303-3.928 0-1.208.122-2.417.122-3.687v-1.087c0-.302.06-.544.06-.846.061-.061.121-.181.181-.242-1.752 0-3.564-.06-5.316 0-1.148.061-1.752-.423-2.538-1.269-2.297-2.599-3.988-5.56-5.982-8.339-1.874-2.659-3.807-5.257-5.74-7.856-1.571-2.115-3.143-4.169-4.714-6.284-1.752-2.417-3.443-4.834-5.257-7.251-2.175-2.9-4.411-5.801-6.646-8.701-1.027-1.33-2.176-2.599-3.324-3.988.785.121 1.511.242 2.237.302l2.899.181c2.175.182 4.351.302 6.526.604 1.813.242 3.626.604 5.498.907 3.989.665 7.917 1.752 11.724 3.021 2.234.726 4.41 1.692 6.586 2.599 4.895 1.994 9.548 4.411 14.14 6.949 1.45.786 2.296 2.055 3.385 3.202 1.57 1.632 3.142 3.264 4.651 4.956 1.753 1.994 3.385 4.048 5.076 6.103 1.512 1.813 3.082 3.625 4.593 5.438.483.544.846 1.208 1.269 1.812.968 1.451 2.055 2.84 2.9 4.412.604 1.148.967 2.477 1.391 3.747.604 1.873 1.208 3.686 1.813 5.559a49.84 49.84 0 0 1 1.088 4.29c.241.967.181 1.994.482 2.961.363 1.27 0 2.659.363 3.928.06.121.121.302.182.423.241.242.422.483.061.846-.061.06-.061.302 0 .483.12-.121.181-.242.302-.423 0 .121.06.182.06.242 0 .242-.06.484 0 .726 0 .121.121.302.182.423.121-.121.241-.181.483-.362.543 2.054.604 4.108.604 6.224 0 1.994.362 3.987-.483 5.921.176-.669-.246-1.273-.066-1.877z"/><path d="M169.954 142.752c.06 0 .12.061.12.061l-.061-.061c.001-.061.001-.061-.059 0zm9.546 59.701c-.663.483-1.328.905-2.175 1.087-.06-.061-.06-.121-.12-.182.665-.422 1.39-.846 2.055-1.269.06.122.18.243.24.364zM66.203 120.575a73.938 73.938 0 0 1 2.054-2.537c.06.06.544.181.604.241-.664.847-1.571 1.994-2.235 2.901-.122-.121-.303-.544-.423-.605zm-17.161 29.61c-.484-1.028-.967-2.116-1.45-3.143.06-.061.483-.243.543-.243.665.968.967 2.116 1.451 3.143-.001-.001-.484.243-.544.243zm15.408-29.006c-.363.544-.725 1.148-1.088 1.692-.06-.06-.725.242-.785.181.362-.543 1.268-1.51 1.631-2.054.061.061.121.121.242.181zm108.585 83.751c.061 0 .061-.061.121-.061a9.84 9.84 0 0 0 1.39.121c-.785.543-1.269.484-1.511-.06zM64.57 123.717c.061-.181.182-.363.302-.544.121 0 .303-.06.303-.06.241-.423.241-.725.483-1.087-.06-.061-.121-.061-.181-.122-.363.242-.726.544-1.088.786.121.121.121.181.121.302-.483-.06-.665.181-.906.846-.061.182-.363.242-.665.483-.061.121-.122.423-.242.725l.061.061a.89.89 0 0 1-.302.182c-.363.362-.786.665-1.148 1.027-.061.181-.122.363-.122.544.423-.423 1.148-1.208 1.692-1.692l.061.061c.242-.362.423-.725.665-1.087.06.06.06.121.121.181-.182.483-.363 1.027-.544 1.511-.121.06-.302.181-.302.121-.242.181-.423.422-.665.604l-1.087.725c-.604.544-1.209 1.027-1.873 1.571-.423.665-.846 1.269-1.331 2.055.725-.182.907.12.846.725.846.121.906-.544 1.148-1.026.061-.121.122-.363.242-.423.544-.483 1.148-.907 1.752-1.391.121-.121.121-.362.121-.544 0-.06-.302-.06-.483-.12.543-.605 1.329-1.632 1.873-2.296.302-.182.604-.423.604-.605-.061-.664.362-.846.846-1.087-.241-.184-.302-.366-.302-.426z"/><path d="M65.779 123.052c-.242.423-.483.786-.725 1.209l-.363-.182c-.241 1.39-1.087 2.599-1.934 2.84.242.121.483.242.665.181.181-.06.302-.362.422-.543l1.632-2.357.543-.906-.24-.242zm-20.122 26.527c.302 0 .604.061.967.061 0-.241.302-.181.302-.423h.181c0 .302.061.545.061.847h-1.269c-.061-.062-.302-.424-.242-.485zm-.483-2.78c-.181-.18-.483-.361-.483-.543-.06-.241.121-.544.303-.846.12.422.181.785.302 1.209-.062.06-.122.12-.122.18zm1.511-3.866c.242.604.484 1.27.725 1.873-.061 0-.423.182-.483.241-.242-.604-.544-1.269-.785-1.873.059-.06.421-.241.543-.241zM181.193 200.7c.302-.121.664-.182 1.147-.303-.543.423-.967.726-1.328 1.088-.062-.061-.122-.121-.182-.121.121-.241.242-.423.363-.664zM106.93 73.02c.362-.242.664-.423 1.027-.665l.121.121c-.363.484-.665.967-1.087 1.571-.061-.423-.061-.665-.122-.967-.06 0 0 0 .061-.06zm17.704 30.575a197.14 197.14 0 0 0 1.753-.785c-.061.362-.061.604-.061.846a2.128 2.128 0 0 0-.604-.122c-.362.061-1.027.544-1.33.604-.06.001.242-.482.242-.543zm45.32 51.241c.12.605 1.27.907.12 1.511.182.121.362.182.545.303a.46.46 0 0 1-.121.241c-.121.061-.363.183-.484.121-.06 0-.181-.242-.181-.362 0-.545.061-1.088.121-1.814z"/></g></svg>