<?xml version="1.0" encoding="utf-8"?>
<!-- Generator: Adobe Illustrator 16.0.0, SVG Export Plug-In . SVG Version: 6.00 Build 0)  -->
<!DOCTYPE svg PUBLIC "-//W3C//DTD SVG 1.1//EN" "http://www.w3.org/Graphics/SVG/1.1/DTD/svg11.dtd">
<svg version="1.1" id="Ebene_1" xmlns="http://www.w3.org/2000/svg" xmlns:xlink="http://www.w3.org/1999/xlink" x="0px" y="0px"
	 width="256px" height="256px" viewBox="0 0 256 256" enable-background="new 0 0 256 256" xml:space="preserve">
<g>
	<path fill="#56B3B4" d="M170.756,71.401h10.271c1.973,0,3.571,1.599,3.571,3.571v1.564c0,1.973-1.599,3.571-3.571,3.571h-10.271
		c-1.973,0-3.572-1.599-3.572-3.571v-1.564C167.184,73,168.783,71.401,170.756,71.401z"/>
	<path fill="#EA5E5E" d="M40.143,210.722h45.103c1.972,0,3.571,1.599,3.571,3.571v1.564c0,1.973-1.599,3.571-3.571,3.571H40.143
		c-1.972,0-3.571-1.599-3.571-3.571v-1.564C36.571,212.32,38.17,210.722,40.143,210.722z"/>
	<path fill="#BF85BF" d="M144.632,141.061h27.688c1.972,0,3.571,1.6,3.571,3.571v1.565c0,1.973-1.6,3.571-3.571,3.571h-27.688
		c-1.972,0-3.571-1.599-3.571-3.571v-1.565C141.061,142.66,142.66,141.061,144.632,141.061z"/>
	<path fill="#EA5E5E" d="M92.388,141.061h36.395c1.973,0,3.572,1.6,3.572,3.571v1.565c0,1.973-1.6,3.571-3.572,3.571H92.388
		c-1.973,0-3.571-1.599-3.571-3.571v-1.565C88.816,142.66,90.415,141.061,92.388,141.061z"/>
	<path fill="#56B3B4" d="M40.143,141.061h36.395c1.973,0,3.571,1.6,3.571,3.571v1.565c0,1.973-1.599,3.571-3.571,3.571H40.143
		c-1.972,0-3.571-1.599-3.571-3.571v-1.565C36.571,142.66,38.17,141.061,40.143,141.061z"/>
	<path fill="#BF85BF" d="M40.143,175.892h45.103c1.972,0,3.571,1.599,3.571,3.571v1.564c0,1.973-1.599,3.571-3.571,3.571H40.143
		c-1.972,0-3.571-1.599-3.571-3.571v-1.564C36.571,177.49,38.17,175.892,40.143,175.892z"/>
	<path fill="#BF85BF" d="M40.143,106.231h45.103c1.972,0,3.571,1.599,3.571,3.571v1.564c0,1.973-1.599,3.572-3.571,3.572H40.143
		c-1.972,0-3.571-1.599-3.571-3.572v-1.564C36.571,107.83,38.17,106.231,40.143,106.231z"/>
	<path fill="#F7BA3E" d="M83.68,53.986h88.64c1.972,0,3.571,1.599,3.571,3.571v1.564c0,1.973-1.6,3.572-3.571,3.572H83.68
		c-1.973,0-3.572-1.599-3.572-3.572v-1.564C80.108,55.585,81.708,53.986,83.68,53.986z"/>
	<path fill="#EA5E5E" d="M40.143,53.986H67.83c1.973,0,3.572,1.599,3.572,3.571v1.564c0,1.973-1.599,3.572-3.572,3.572H40.143
		c-1.972,0-3.571-1.599-3.571-3.572v-1.564C36.571,55.585,38.17,53.986,40.143,53.986z"/>
	<path fill="#F7BA3E" d="M74.973,193.307h10.272c1.972,0,3.571,1.599,3.571,3.571v1.564c0,1.973-1.599,3.571-3.571,3.571H74.973
		c-1.972,0-3.571-1.599-3.571-3.571v-1.564C71.401,194.905,73,193.307,74.973,193.307z"/>
	<path fill="#56B3B4" d="M74.973,88.816h10.272c1.972,0,3.571,1.599,3.571,3.571v1.565c0,1.972-1.599,3.571-3.571,3.571H74.973
		c-1.972,0-3.571-1.599-3.571-3.571v-1.565C71.401,90.415,73,88.816,74.973,88.816z"/>
	<path fill="#56B3B4" d="M40.143,193.307h18.979c1.973,0,3.572,1.599,3.572,3.571v1.564c0,1.973-1.599,3.571-3.572,3.571H40.143
		c-1.972,0-3.571-1.599-3.571-3.571v-1.564C36.571,194.905,38.17,193.307,40.143,193.307z"/>
	<path fill="#F7BA3E" d="M40.143,88.816h18.979c1.973,0,3.572,1.599,3.572,3.571v1.565c0,1.972-1.599,3.571-3.572,3.571H40.143
		c-1.972,0-3.571-1.599-3.571-3.571v-1.565C36.571,90.415,38.17,88.816,40.143,88.816z"/>
	<path opacity="0.5" fill="#D0D4D8" enable-background="new    " d="M153.341,193.307h10.271c1.973,0,3.571,1.599,3.571,3.571v1.564
		c0,1.973-1.599,3.571-3.571,3.571h-10.271c-1.973,0-3.572-1.599-3.572-3.571v-1.564
		C149.769,194.905,151.368,193.307,153.341,193.307z"/>
	<path opacity="0.5" fill="#D0D4D8" enable-background="new    " d="M101.095,193.307h36.394c1.973,0,3.571,1.599,3.571,3.571v1.564
		c0,1.973-1.599,3.571-3.571,3.571h-36.394c-1.973,0-3.571-1.599-3.571-3.571v-1.564C97.524,194.905,99.123,193.307,101.095,193.307
		z"/>
	<path opacity="0.5" fill="#D0D4D8" enable-background="new    " d="M179.463,193.307h36.395c1.973,0,3.571,1.599,3.571,3.571v1.564
		c0,1.973-1.599,3.571-3.571,3.571h-36.395c-1.973,0-3.571-1.599-3.571-3.571v-1.564
		C175.892,194.905,177.49,193.307,179.463,193.307z"/>
	<path fill="#56B3B4" d="M109.803,123.646h71.225c1.973,0,3.571,1.599,3.571,3.571v1.564c0,1.973-1.599,3.572-3.571,3.572h-71.225
		c-1.973,0-3.571-1.6-3.571-3.572v-1.564C106.231,125.246,107.83,123.646,109.803,123.646z"/>
	<path fill="#F7BA3E" d="M66.265,123.646h27.688c1.972,0,3.571,1.599,3.571,3.571v1.564c0,1.973-1.599,3.572-3.571,3.572H66.265
		c-1.972,0-3.571-1.6-3.571-3.572v-1.564C62.694,125.246,64.293,123.646,66.265,123.646z"/>
	<path fill="#EA5E5E" d="M40.143,123.646h10.272c1.973,0,3.572,1.599,3.572,3.571v1.564c0,1.973-1.599,3.572-3.572,3.572H40.143
		c-1.972,0-3.571-1.6-3.571-3.572v-1.564C36.571,125.246,38.17,123.646,40.143,123.646z"/>
	<path fill="#BF85BF" d="M118.51,71.401h36.394c1.973,0,3.571,1.599,3.571,3.571v1.564c0,1.973-1.599,3.571-3.571,3.571H118.51
		c-1.973,0-3.571-1.599-3.571-3.571v-1.564C114.939,73,116.538,71.401,118.51,71.401z"/>
	<path fill="#56B3B4" d="M40.143,71.401h62.518c1.972,0,3.571,1.599,3.571,3.571v1.564c0,1.973-1.599,3.571-3.571,3.571H40.143
		c-1.972,0-3.571-1.599-3.571-3.571v-1.564C36.571,73,38.17,71.401,40.143,71.401z"/>
	<path fill="#F7BA3E" d="M66.265,158.476h79.932c1.973,0,3.571,1.6,3.571,3.571v1.565c0,1.973-1.599,3.571-3.571,3.571H66.265
		c-1.972,0-3.571-1.599-3.571-3.571v-1.565C62.694,160.075,64.293,158.476,66.265,158.476z"/>
	<path fill="#BF85BF" d="M40.143,158.476h10.272c1.973,0,3.572,1.6,3.572,3.571v1.565c0,1.973-1.599,3.571-3.572,3.571H40.143
		c-1.972,0-3.571-1.599-3.571-3.571v-1.565C36.571,160.075,38.17,158.476,40.143,158.476z"/>
	<path fill="#EA5E5E" d="M144.632,88.816h45.103c1.973,0,3.572,1.599,3.572,3.571v1.565c0,1.972-1.6,3.571-3.572,3.571h-45.103
		c-1.972,0-3.571-1.599-3.571-3.571v-1.565C141.061,90.415,142.66,88.816,144.632,88.816z"/>
	<path fill="#F7BA3E" d="M144.632,106.231h45.103c1.973,0,3.572,1.599,3.572,3.571v1.564c0,1.973-1.6,3.572-3.572,3.572h-45.103
		c-1.972,0-3.571-1.599-3.571-3.572v-1.564C141.061,107.83,142.66,106.231,144.632,106.231z"/>
	<path fill="#56B3B4" d="M40.143,36.571h106.055c1.973,0,3.571,1.599,3.571,3.571v1.565c0,1.973-1.599,3.571-3.571,3.571H40.143
		c-1.972,0-3.571-1.599-3.571-3.571v-1.565C36.571,38.17,38.17,36.571,40.143,36.571z"/>
	<path opacity="0.5" fill="#D0D4D8" enable-background="new    " d="M162.047,36.571h53.811c1.973,0,3.571,1.599,3.571,3.571v1.565
		c0,1.973-1.599,3.571-3.571,3.571h-53.811c-1.972,0-3.571-1.599-3.571-3.571v-1.565C158.476,38.17,160.075,36.571,162.047,36.571z"
		/>
	<path opacity="0.5" fill="#D0D4D8" enable-background="new    " d="M162.047,158.476h18.98c1.973,0,3.571,1.6,3.571,3.571v1.565
		c0,1.973-1.599,3.571-3.571,3.571h-18.98c-1.972,0-3.571-1.599-3.571-3.571v-1.565
		C158.476,160.075,160.075,158.476,162.047,158.476z"/>
	<path opacity="0.5" fill="#D0D4D8" enable-background="new    " d="M196.878,158.476h18.979c1.973,0,3.571,1.6,3.571,3.571v1.565
		c0,1.973-1.599,3.571-3.571,3.571h-18.979c-1.973,0-3.571-1.599-3.571-3.571v-1.565
		C193.307,160.075,194.905,158.476,196.878,158.476z"/>
	<path opacity="0.5" fill="#D0D4D8" enable-background="new    " d="M188.17,141.061h27.688c1.973,0,3.571,1.6,3.571,3.571v1.565
		c0,1.973-1.599,3.571-3.571,3.571H188.17c-1.973,0-3.571-1.599-3.571-3.571v-1.565C184.599,142.66,186.197,141.061,188.17,141.061z
		"/>
	<path opacity="0.5" fill="#D0D4D8" enable-background="new    " d="M188.17,53.986h27.688c1.973,0,3.571,1.599,3.571,3.571v1.564
		c0,1.973-1.599,3.572-3.571,3.572H188.17c-1.973,0-3.571-1.599-3.571-3.572v-1.564C184.599,55.585,186.197,53.986,188.17,53.986z"
		/>
	<path opacity="0.5" fill="#D0D4D8" enable-background="new    " d="M196.878,123.646h18.979c1.973,0,3.571,1.599,3.571,3.571v1.564
		c0,1.973-1.599,3.572-3.571,3.572h-18.979c-1.973,0-3.571-1.6-3.571-3.572v-1.564C193.307,125.246,194.905,123.646,196.878,123.646
		z"/>
	<path opacity="0.5" fill="#D0D4D8" enable-background="new    " d="M196.878,71.401h18.979c1.973,0,3.571,1.599,3.571,3.571v1.564
		c0,1.973-1.599,3.571-3.571,3.571h-18.979c-1.973,0-3.571-1.599-3.571-3.571v-1.564C193.307,73,194.905,71.401,196.878,71.401z"/>
	<path opacity="0.5" fill="#D0D4D8" enable-background="new    " d="M205.585,88.816h10.272c1.973,0,3.571,1.599,3.571,3.571v1.565
		c0,1.972-1.599,3.571-3.571,3.571h-10.272c-1.973,0-3.571-1.599-3.571-3.571v-1.565C202.014,90.415,203.612,88.816,205.585,88.816z
		"/>
	<path opacity="0.5" fill="#D0D4D8" enable-background="new    " d="M205.585,106.231h10.272c1.973,0,3.571,1.599,3.571,3.571v1.564
		c0,1.973-1.599,3.572-3.571,3.572h-10.272c-1.973,0-3.571-1.599-3.571-3.572v-1.564
		C202.014,107.83,203.612,106.231,205.585,106.231z"/>
	<path opacity="0.5" fill="#D0D4D8" enable-background="new    " d="M135.926,175.892h79.932c1.973,0,3.571,1.599,3.571,3.571v1.564
		c0,1.973-1.599,3.571-3.571,3.571h-79.932c-1.973,0-3.571-1.599-3.571-3.571v-1.564
		C132.354,177.49,133.953,175.892,135.926,175.892z"/>
	<path opacity="0.5" fill="#D0D4D8" enable-background="new    " d="M101.095,175.892h18.979c1.973,0,3.572,1.599,3.572,3.571v1.564
		c0,1.973-1.599,3.571-3.572,3.571h-18.979c-1.973,0-3.571-1.599-3.571-3.571v-1.564C97.524,177.49,99.123,175.892,101.095,175.892z
		"/>
	<path opacity="0.5" fill="#D0D4D8" enable-background="new    " d="M170.756,210.722h45.102c1.973,0,3.571,1.599,3.571,3.571v1.564
		c0,1.973-1.599,3.571-3.571,3.571h-45.102c-1.973,0-3.572-1.599-3.572-3.571v-1.564
		C167.184,212.32,168.783,210.722,170.756,210.722z"/>
	<path opacity="0.5" fill="#D0D4D8" enable-background="new    " d="M101.095,210.722h53.809c1.973,0,3.571,1.599,3.571,3.571v1.564
		c0,1.973-1.599,3.571-3.571,3.571h-53.809c-1.973,0-3.571-1.599-3.571-3.571v-1.564C97.524,212.32,99.123,210.722,101.095,210.722z
		"/>
	<path opacity="0.5" fill="#D0D4D8" enable-background="new    " d="M101.095,88.816h27.687c1.973,0,3.572,1.599,3.572,3.571v1.565
		c0,1.972-1.6,3.571-3.572,3.571h-27.687c-1.973,0-3.571-1.599-3.571-3.571v-1.565C97.524,90.415,99.123,88.816,101.095,88.816z"/>
	<path opacity="0.5" fill="#D0D4D8" enable-background="new    " d="M101.095,106.231h27.687c1.973,0,3.572,1.599,3.572,3.571v1.564
		c0,1.973-1.6,3.572-3.572,3.572h-27.687c-1.973,0-3.571-1.599-3.571-3.572v-1.564C97.524,107.83,99.123,106.231,101.095,106.231z"
		/>
</g>
</svg>
