<svg xmlns="http://www.w3.org/2000/svg" width="256" height="256"><circle fill="#F2F2F2" cx="128" cy="128" r="77.145"/><path fill="#ED1C24" d="M151.199 173.613a68.245 68.245 0 0 1-47.184 0c-1.402-.505-2.525-2.159-2.525-3.591v-3.675c0-1.431 1.123-2.132 2.525-1.627a68.245 68.245 0 0 0 47.184 0c1.402-.505 2.524.196 2.524 1.627v3.675c-.027 1.432-1.149 3.086-2.524 3.591z"/><path fill="#C1272D" d="M151.199 169.125c-15.232 7.799-31.952 7.799-47.184 0-1.402-.701-2.525-3.001-2.525-4.993v-5.078c0-1.991 1.123-2.974 2.525-2.243 15.232 7.798 31.952 7.798 47.184 0 1.402-.702 2.524.252 2.524 2.243v5.078c-.027 1.992-1.149 4.292-2.524 4.993z"/><g transform="translate(117.76 202.938)"><ellipse fill="#C1272D" cx="9.847" cy="-27.418" rx="2.16" ry="2.16"/><ellipse fill="#FF931E" cx="9.847" cy="-27.726" rx="1.852" ry="1.852"/><ellipse fill="#FFB81E" cx="10.381" cy="-27.081" rx=".645" ry=".645"/><ellipse fill="#FF931E" cx="9.847" cy="-20.404" rx="5.778" ry="5.778"/><circle fill="#FFB81E" cx="9.847" cy="-20.348" r="5.19"/><path fill="#FF931E" d="M11.362-22.004c.309.281.478.674.478 1.234 0 .562-.169.954-.478 1.235-.337.252-.813.393-1.487.393h-.589v1.262h-1.01v-4.517h1.599c.674.001 1.178.113 1.487.393zm-.729 1.768c.112-.14.168-.337.168-.589 0-.253-.085-.449-.225-.561-.168-.113-.393-.169-.73-.169h-.56v1.515h.674c.336 0 .56-.055.673-.196z"/></g><path fill="#F7BD89" d="M174.427 135.519c1.402 19.215-19.385 36.468-46.539 36.439-27.127.028-47.941-17.225-46.539-36.439 1.403-19.272 22.302-35.178 46.595-35.207 24.322.028 45.052 15.934 46.483 35.207z"/><path fill="#FBD5A0" d="M127.804 97.619c-25.528 0-49.232 17.981-44.744 45.361.897 2.524 2.384 9.088 9.481 14.896 2.132 1.739 5.807 3.198 7.546 2.02 4.46-3.029-3.45-11.726 5.582-19.749h-.196c4.91-3.73 11.866-6.705 22.274-6.705s17.365 2.975 22.274 6.705h-.196c9.032 8.023 1.15 16.72 5.582 19.749 1.739 1.179 5.442-.28 7.547-2.02 7.097-5.808 8.611-12.371 9.509-14.896 4.488-27.407-19.131-45.361-44.659-45.361z"/><path d="M149.769 143.092c-4.292-5.273-12.427-10.379-21.881-10.379h-.112c-9.481 0-17.617 5.105-21.881 10.379-4.432 5.387-2.833 7.687-2.833 12.849 0 18.683 6.536 13.24 10.94 15.485 4.488 2.188 9.033 1.402 13.802 1.402h.084c4.769 0 9.313.785 13.803-1.431 4.375-2.244 10.939 3.254 10.939-15.429-.028-5.133 1.571-7.489-2.861-12.876z"/><g transform="translate(62.37 123.81)"><circle fill="#F7BD89" cx="33.93" cy="10.978" r="7.827"/><circle cx="34.631" cy="9.659" r="7.827"/><circle fill="#FFF" cx="36.623" cy="6.153" r="2.02"/></g><g transform="translate(165.702 123.81)"><circle fill="#F7BD89" cx="-6.563" cy="10.978" r="7.827"/><circle cx="-7.012" cy="9.659" r="7.827"/><circle fill="#FFF" cx="-5.02" cy="6.153" r="2.02"/></g><path fill="#F7BD89" d="M111.337 104.632s-26.51 4.572-27.576 36.244c-.028.478-.533.786-.954.532l-.842-.504-.645-8.304 1.206-16.944 11.053-8.163 9.931-4.011 7.827 1.15zm32.905 0s26.51 4.572 27.576 36.244c.027.478.532.786.954.532l.841-.504.646-8.304-1.207-16.944L162 107.494l-9.932-4.011-7.826 1.149z"/><path fill="#4D4D4D" d="M127.249 161.033v-15.978h1.167v15.939c1.72.202 3.953 1.201 6.094 1.846 2.216.786 4.348 1.095 3.506 1.206-2.918.112-6.115-.981-10.042-.925-3.956-.057-7.153 1.037-10.043.925-.841-.14 1.291-.448 3.506-1.206 2.027-.61 4.119-1.54 5.812-1.807zm7.904-21.363c.926 2.048-2.271 5.386-7.35 5.386-5.078 0-8.275-3.338-7.35-5.386.897-2.104 4.124-2.777 7.35-2.805 3.227.028 6.452.701 7.35 2.805z"/><path d="M111.337 104.632s-31.223 4.32-28.529 35.318c.14 1.571-6.228-6.704-11.165-9.229-4.937-2.524-4.769-10.688-4.769-10.688s-.084-14.223 19.861-18.431c19.917-4.179 24.602 3.03 24.602 3.03zm32.905 0s31.223 4.32 28.53 35.318c-.141 1.571 6.227-6.704 11.164-9.229 4.938-2.524 4.77-10.688 4.77-10.688s.083-14.223-19.862-18.431c-19.917-4.179-24.602 3.03-24.602 3.03z"/><path fill="#F7BD89" d="M127.832 126.962c-9.706 0-19.524 9.538-17.477 8.472 3.787-1.992 5.975-5.498 17.477-5.498s13.662 3.506 17.477 5.498c2.047 1.066-7.771-8.472-17.477-8.472z"/><path fill="#F7BD89" d="M127.832 122.782c-7.377 0-14.812 7.237-13.269 6.425 2.889-1.516 6.592-4.181 13.269-4.181 6.677 0 10.379 2.665 13.269 4.181 1.543.813-5.891-6.425-13.269-6.425zm-.057-23.48c-8.135 0-16.382 4.657-14.671 4.124 3.198-.981 7.294-2.693 14.671-2.693 7.378 0 11.474 1.711 14.672 2.693 1.711.533-6.509-4.124-14.672-4.124z"/><path fill="gray" d="M129.655 138.548c.225.505-.562 1.318-1.824 1.318s-2.048-.813-1.823-1.318 1.01-.674 1.823-.701c.786 0 1.6.168 1.824.701z"/></svg>