<?xml version="1.0" encoding="UTF-8" standalone="no"?>
<!DOCTYPE svg PUBLIC "-//W3C//DTD SVG 1.1//EN" "http://www.w3.org/Graphics/SVG/1.1/DTD/svg11.dtd">
<svg width="100%" height="100%" viewBox="0 0 256 256" version="1.1" xmlns="http://www.w3.org/2000/svg" xmlns:xlink="http://www.w3.org/1999/xlink" xml:space="preserve" xmlns:serif="http://www.serif.com/" style="fill-rule:evenodd;clip-rule:evenodd;stroke-linejoin:round;stroke-miterlimit:2;">
    <g transform="matrix(0.763265,0,-0.0133228,0.763265,32.0031,30.391)">
        <path d="M206.939,89.545C204.331,88.65 201.701,87.822 199.051,87.06C199.497,85.241 199.906,83.446 200.27,81.681C206.241,52.701 202.337,29.355 189.008,21.668C176.227,14.297 155.323,21.982 134.213,40.354C132.133,42.168 130.099,44.035 128.113,45.952C126.783,44.677 125.43,43.427 124.053,42.203C101.929,22.558 79.753,14.279 66.437,21.988C53.668,29.38 49.887,51.328 55.261,78.792C55.796,81.512 56.4,84.219 57.073,86.908C54.023,87.77 51,88.721 48.006,89.76C22.065,98.803 5.5,112.976 5.5,127.677C5.5,142.86 23.283,158.09 50.3,167.325C52.432,168.054 54.644,168.742 56.924,169.395C56.202,172.292 55.56,175.208 55,178.141C49.876,205.129 53.877,226.558 66.613,233.904C79.766,241.489 101.842,233.692 123.34,214.901C125.083,213.374 126.788,211.803 128.452,210.191C130.603,212.266 132.812,214.281 135.076,216.233C155.897,234.15 176.464,241.386 189.185,234.02C202.327,226.414 206.596,203.392 201.052,175.384C200.616,173.19 200.126,171.006 199.583,168.836C201.109,168.386 202.628,167.912 204.139,167.413C232.226,158.106 250.5,143.062 250.5,127.676C250.5,112.923 233.4,98.654 206.939,89.545ZM200.848,157.479C199.508,157.923 198.133,158.351 196.733,158.767C193.632,148.951 189.447,138.513 184.327,127.728C189.214,117.201 193.236,106.896 196.251,97.144C198.757,97.869 201.189,98.634 203.533,99.441C226.205,107.246 240.035,118.786 240.035,127.677C240.034,137.148 225.098,149.443 200.848,157.479ZM190.784,177.419C193.237,189.803 193.587,201 191.962,209.754C190.504,217.618 187.569,222.862 183.941,224.964C176.22,229.432 159.709,223.623 141.902,208.3C139.797,206.484 137.742,204.611 135.741,202.682C142.645,195.132 149.545,186.355 156.278,176.607C168.122,175.555 179.312,173.837 189.46,171.492C189.958,173.508 190.402,175.484 190.784,177.419ZM89.026,224.19C81.482,226.855 75.474,226.93 71.842,224.836C64.113,220.379 60.901,203.173 65.283,180.093C65.785,177.449 66.383,174.736 67.071,171.96C77.108,174.179 88.216,175.775 100.088,176.738C106.867,186.276 113.966,195.044 121.12,202.72C119.6,204.192 118.043,205.625 116.452,207.02C106.947,215.331 97.421,221.226 89.026,224.19ZM53.685,157.421C41.739,153.338 31.873,148.031 25.11,142.24C19.034,137.036 15.965,131.87 15.965,127.677C15.965,118.756 29.266,107.377 51.448,99.643C54.232,98.676 57.045,97.791 59.881,96.989C62.947,106.962 66.969,117.388 71.822,127.932C66.906,138.633 62.827,149.225 59.731,159.314C57.701,158.732 55.685,158.101 53.685,157.421ZM65.532,76.782C60.928,53.251 63.986,35.5 71.681,31.046C79.877,26.301 98.001,33.067 117.104,50.029C118.35,51.138 119.575,52.269 120.78,53.422C113.661,61.066 106.628,69.767 99.909,79.25C88.387,80.318 77.357,82.034 67.216,84.331C66.592,81.829 66.03,79.312 65.532,76.782ZM171.214,102.877C168.819,98.74 166.335,94.655 163.764,90.625C171.58,91.613 179.071,92.925 186.104,94.531C183.993,101.298 181.361,108.374 178.262,115.627C175.997,111.331 173.647,107.08 171.214,102.877ZM128.117,60.901C132.945,66.131 137.78,71.97 142.535,78.306C132.888,77.849 123.224,77.846 113.577,78.299C118.337,72.023 123.214,66.192 128.117,60.901ZM84.744,102.95C82.34,107.119 80.034,111.343 77.828,115.619C74.781,108.39 72.173,101.283 70.043,94.419C77.033,92.855 84.488,91.576 92.255,90.606C89.655,94.661 87.151,98.777 84.744,102.95ZM92.478,165.495C84.453,164.599 76.887,163.386 69.898,161.865C72.062,154.879 74.727,147.62 77.839,140.234C80.055,144.513 82.371,148.74 84.785,152.911C87.249,157.166 89.815,161.362 92.478,165.495ZM128.407,195.191C123.446,189.839 118.498,183.919 113.666,177.55C118.357,177.734 123.14,177.827 128,177.827C132.993,177.827 137.93,177.715 142.789,177.498C138.019,183.983 133.202,189.912 128.407,195.191ZM178.362,139.858C181.636,147.322 184.397,154.544 186.588,161.411C179.485,163.031 171.817,164.337 163.734,165.306C166.324,161.202 168.831,157.046 171.255,152.841C173.721,148.567 176.09,144.238 178.362,139.858ZM162.189,147.611C158.478,154.058 154.558,160.382 150.435,166.574C143.166,167.095 135.655,167.362 127.999,167.362C120.374,167.362 112.958,167.125 105.817,166.661C101.587,160.484 97.592,154.148 93.842,147.668L93.843,147.668C90.11,141.223 86.623,134.639 83.389,127.929C86.614,121.217 90.09,114.628 93.811,108.178L93.81,108.179C97.529,101.727 101.492,95.418 105.689,89.266C113.112,88.707 120.554,88.427 127.998,88.428C135.583,88.428 143.063,88.717 150.348,89.273C154.504,95.415 158.442,101.702 162.154,108.122C165.887,114.558 169.41,121.114 172.716,127.78C169.444,134.513 165.933,141.128 162.189,147.611ZM183.78,30.735C191.984,35.466 195.176,54.547 190.02,79.568C189.682,81.198 189.315,82.822 188.918,84.439C178.754,82.093 167.716,80.348 156.16,79.264C149.428,69.677 142.452,60.962 135.449,53.416C137.284,51.647 139.163,49.925 141.083,48.249C159.173,32.508 176.078,26.293 183.78,30.735ZM128,105.8C140.082,105.8 149.877,115.594 149.877,127.677C149.877,139.76 140.082,149.554 128,149.554C115.917,149.554 106.123,139.759 106.123,127.677C106.123,115.594 115.917,105.8 128,105.8Z" style="fill:rgb(0,216,255);fill-rule:nonzero;"/>
    </g>
</svg>
