<svg xmlns="http://www.w3.org/2000/svg" width="256" height="256" viewBox="0 -58 256 256"><path d="M89.964 87.139c9.764 0 17.679-7.915 17.679-17.679s-7.915-17.679-17.679-17.679-17.678 7.915-17.678 17.679 7.915 17.679 17.678 17.679zm-41.785 35.357c9.764 0 17.678-7.916 17.678-17.679 0-9.765-7.915-17.679-17.678-17.679S30.5 95.053 30.5 104.817c0 9.763 7.915 17.679 17.679 17.679zm159.642 0c9.764 0 17.679-7.916 17.679-17.679 0-9.765-7.915-17.679-17.679-17.679s-17.679 7.914-17.679 17.679c.001 9.763 7.916 17.679 17.679 17.679z"/><path fill="#D0021B" d="M149.759 70.205c-.565-5.906-.854-10.822-5.377-14.277-5.731-4.375-12.222-1.536-20.218-4.422-7.856-1.901-13.684-8.876-13.684-17.19 0-9.776 8.058-17.702 17.997-17.702 7.361 0 13.69 4.348 16.479 10.575 4.267 8.104 1.493 16.352 6.854 20.506 6.349 4.919 14.905 1.317 24.455 5.978a17.986 17.986 0 0 1 7.495 6.418 17.41 17.41 0 0 1 2.893 9.629c0 8.314-5.827 15.29-13.685 17.19-7.995 2.886-14.485.047-20.217 4.423-6.443 4.921-2.993 13.152-8.244 21.848-2.981 5.726-9.04 9.646-16.029 9.646-9.939 0-17.997-7.926-17.997-17.702 0-7.103 4.252-13.228 10.388-16.047 9.549-4.661 18.106-1.059 24.455-5.978 3.66-2.84 4.435-7.218 4.435-12.895z"/></svg>