<?xml version="1.0" encoding="UTF-8" standalone="no"?>
<!DOCTYPE svg PUBLIC "-//W3C//DTD SVG 1.1//EN" "http://www.w3.org/Graphics/SVG/1.1/DTD/svg11.dtd">
<svg width="100%" height="100%" viewBox="0 0 256 256" version="1.1" xmlns="http://www.w3.org/2000/svg" xmlns:xlink="http://www.w3.org/1999/xlink" xml:space="preserve" xmlns:serif="http://www.serif.com/" style="fill-rule:evenodd;clip-rule:evenodd;stroke-linejoin:round;stroke-miterlimit:2;">
    <g transform="matrix(0.730469,0,0,0.730469,34.5,44.2536)">
        <g>
            <path d="M157.98,142.487L153.07,151.014C151.59,153.582 148.852,155.165 145.888,155.165L108.271,155.165C105.306,155.165 102.568,153.582 101.089,151.014L96.178,142.487L157.98,142.487ZM171.727,118.617L163.069,133.651L91.089,133.651L82.431,118.617L171.727,118.617ZM163.387,95.275L171.741,109.781L82.417,109.781L90.771,95.275L163.387,95.275ZM145.888,73.209C148.852,73.209 151.59,74.792 153.07,77.36L158.298,86.439L95.86,86.439L101.089,77.36C102.568,74.792 105.306,73.209 108.271,73.209L145.888,73.209Z" style="fill:rgb(0,67,91);fill-rule:nonzero;"/>
            <path d="M53.523,69.252C49.356,49.046 48.461,33.548 51.155,22.295C52.757,15.602 55.686,10.142 60.139,6.202C64.841,2.043 70.785,0.003 77.465,0.003C88.483,0.003 100.067,5.027 112.446,14.573C117.495,18.466 122.735,23.159 128.177,28.654C128.611,28.097 129.1,27.571 129.646,27.085C145.032,13.373 157.986,4.854 169.066,1.57C175.654,-0.384 181.839,-0.57 187.471,1.326C193.417,3.327 198.154,7.463 201.497,13.256C207.013,22.817 208.467,35.38 206.411,50.893C205.573,57.216 204.14,64.103 202.115,71.566C202.879,71.658 203.645,71.828 204.403,72.079C223.924,78.548 237.748,85.505 246.117,93.456C251.096,98.186 254.348,103.452 255.524,109.282C256.764,115.435 255.554,121.606 252.216,127.395C246.71,136.943 236.587,144.472 222.164,150.436C216.373,152.831 209.821,155 202.5,156.951C202.834,157.705 203.094,158.506 203.267,159.346C207.434,179.552 208.328,195.05 205.635,206.303C204.033,212.996 201.104,218.456 196.65,222.396C191.949,226.555 186.004,228.595 179.325,228.595C168.306,228.595 156.723,223.571 144.344,214.025C139.241,210.09 133.943,205.339 128.438,199.768C127.872,200.654 127.177,201.477 126.354,202.21C110.968,215.922 98.014,224.441 86.934,227.725C80.346,229.679 74.161,229.865 68.529,227.969C62.583,225.968 57.846,221.832 54.503,216.039C48.987,206.478 47.533,193.915 49.589,178.402C50.458,171.851 51.965,164.693 54.107,156.917C53.27,156.833 52.429,156.655 51.597,156.38C32.076,149.911 18.252,142.954 9.883,135.003C4.904,130.273 1.652,125.007 0.476,119.177C-0.764,113.024 0.446,106.852 3.784,101.063C9.29,91.516 19.413,83.986 33.836,78.022C39.799,75.556 46.57,73.33 54.156,71.334C53.886,70.673 53.672,69.977 53.523,69.252Z" style="fill:rgb(0,43,59);fill-rule:nonzero;"/>
            <path d="M189.647,161.333C191.588,160.989 193.448,162.233 193.882,164.142L193.905,164.255L194.112,165.33C200.822,200.606 196.095,218.245 179.932,218.245C164.119,218.245 143.988,203.194 119.54,173.092C119,172.427 118.708,171.595 118.716,170.738C118.733,168.742 120.335,167.131 122.317,167.087L122.431,167.087L123.719,167.096C134.007,167.152 144.008,166.793 153.723,166.02C165.19,165.107 177.165,163.545 189.647,161.333ZM78.646,134.667L78.708,134.772L79.354,135.899C84.531,144.899 89.924,153.441 95.535,161.526C102.142,171.046 109.572,180.684 117.825,190.44C119.101,191.949 118.956,194.189 117.515,195.522L117.422,195.605L116.591,196.32C89.285,219.717 71.537,224.388 63.348,210.332C55.331,196.575 58.238,171.559 72.067,135.285C72.371,134.488 72.942,133.821 73.683,133.398C75.414,132.41 77.61,132.981 78.646,134.667ZM203.503,82.613L203.615,82.65L204.643,83.004C238.348,94.729 251.153,107.614 243.059,121.659C235.143,135.395 212.129,145.397 174.018,151.663C173.168,151.803 172.296,151.64 171.554,151.204C169.8,150.173 169.214,147.915 170.245,146.162C175.703,136.876 180.62,127.638 184.994,118.445C189.954,108.02 194.609,96.829 198.959,84.874C199.619,83.062 201.556,82.077 203.391,82.58L203.503,82.613ZM84.446,76.71C86.2,77.741 86.786,79.998 85.755,81.752C80.297,91.037 75.38,100.276 71.006,109.469C66.046,119.894 61.391,131.084 57.041,143.039C56.368,144.889 54.364,145.876 52.497,145.301L52.385,145.264L51.357,144.909C17.652,133.185 4.847,120.3 12.941,106.255C20.857,92.518 43.871,82.517 81.982,76.251C82.832,76.111 83.704,76.273 84.446,76.71ZM192.652,18.962C200.669,32.72 197.762,57.736 183.933,94.01C183.629,94.807 183.058,95.474 182.317,95.897C180.586,96.885 178.39,96.314 177.354,94.628L177.292,94.523L176.646,93.396C171.469,84.396 166.076,75.854 160.465,67.769C153.858,58.249 146.428,48.611 138.175,38.855C136.899,37.346 137.044,35.106 138.485,33.773L138.578,33.69L139.409,32.975C166.715,9.578 184.463,4.907 192.652,18.962ZM77.449,10.59C93.263,10.59 113.394,25.641 137.841,55.742C138.382,56.407 138.673,57.24 138.666,58.097C138.648,60.093 137.046,61.704 135.065,61.747L134.95,61.748L133.662,61.739C123.375,61.683 113.373,62.042 103.659,62.815C92.191,63.728 80.216,65.29 67.734,67.502C65.793,67.846 63.933,66.602 63.5,64.692L63.476,64.579L63.269,63.505C56.559,28.228 61.286,10.59 77.449,10.59Z" style="fill:rgb(255,65,84);fill-rule:nonzero;"/>
            <g transform="matrix(1,0,0,1,80.5755,73.6691)">
                <path d="M30.719,-0L62.295,-0C66.913,-0 71.178,2.47 73.476,6.475L89.331,34.101C91.612,38.075 91.612,42.961 89.331,46.935L73.476,74.561C71.178,78.566 66.913,81.036 62.295,81.036L30.719,81.036C26.101,81.036 21.836,78.566 19.537,74.561L3.683,46.935C1.402,42.961 1.402,38.075 3.683,34.101L19.537,6.475C21.836,2.47 26.101,-0 30.719,-0ZM57.482,8.338C62.103,8.338 66.37,10.811 68.667,14.819L79.723,34.107C81.999,38.078 81.999,42.958 79.723,46.929L68.667,66.217C66.37,70.225 62.103,72.698 57.482,72.698L35.531,72.698C30.911,72.698 26.644,70.225 24.347,66.217L13.291,46.929C11.015,42.958 11.015,38.078 13.291,34.107L24.347,14.819C26.644,10.811 30.911,8.338 35.531,8.338L57.482,8.338ZM52.295,17.458L40.719,17.458C36.103,17.458 31.84,19.925 29.54,23.927L23.698,34.095C21.413,38.072 21.413,42.964 23.698,46.941L29.54,57.109C31.84,61.111 36.103,63.578 40.719,63.578L52.295,63.578C56.911,63.578 61.174,61.111 63.474,57.109L69.316,46.941C71.601,42.964 71.601,38.072 69.316,34.095L63.474,23.927C61.174,19.925 56.911,17.458 52.295,17.458ZM47.301,26.187C51.913,26.187 56.174,28.651 58.474,32.648L59.303,34.087C61.594,38.068 61.594,42.968 59.303,46.949L58.474,48.388C56.174,52.385 51.913,54.849 47.301,54.849L45.713,54.849C41.101,54.849 36.84,52.385 34.54,48.388L33.711,46.949C31.42,42.968 31.42,38.068 33.711,34.087L34.54,32.648C36.84,28.651 41.101,26.187 45.713,26.187L47.301,26.187ZM46.509,34.786C44.456,34.786 42.563,35.878 41.538,37.652C40.514,39.425 40.514,41.611 41.538,43.384C42.563,45.158 44.456,46.25 46.505,46.25C48.558,46.25 50.451,45.158 51.476,43.384C52.5,41.611 52.5,39.425 51.476,37.652C50.451,35.878 48.558,34.786 46.509,34.786ZM0,40.518L10.321,40.518" style="fill:rgb(255,217,76);fill-rule:nonzero;"/>
            </g>
        </g>
    </g>
</svg>
