<svg xmlns="http://www.w3.org/2000/svg" width="256" height="256" viewBox="0 -6 256 256"><path fill="#764ABC" d="M173.716 166.154c8.746-.904 15.381-8.444 15.08-17.492-.302-9.049-7.842-16.287-16.89-16.287h-.603c-9.35.301-16.588 8.143-16.286 17.493.301 4.523 2.11 8.443 4.825 11.159-10.254 20.207-25.938 34.985-49.461 47.351-15.985 8.446-32.572 11.462-49.16 9.351-13.572-1.811-24.128-7.843-30.763-17.795-9.651-14.778-10.556-30.764-2.413-46.748 5.73-11.462 14.778-19.906 20.508-24.128-1.207-3.922-3.016-10.557-3.921-15.383-43.731 31.669-39.207 74.496-25.937 94.703 9.953 15.08 30.159 24.431 52.477 24.431 6.032 0 12.064-.604 18.096-2.111 38.606-7.541 67.86-30.462 84.448-64.544zm53.081-37.398c-22.922-26.843-56.7-41.622-95.304-41.622h-4.826c-2.714-5.429-8.445-9.048-14.778-9.048h-.604c-9.348.302-16.586 8.143-16.285 17.493.302 9.048 7.841 16.287 16.889 16.287h.603c6.635-.302 12.365-4.524 14.778-10.255h5.428c22.921 0 44.636 6.636 64.239 19.604 15.08 9.953 25.937 22.923 31.969 38.605 5.127 12.668 4.825 25.033-.603 35.59-8.444 15.984-22.62 24.731-41.318 24.731-12.064 0-23.524-3.619-29.557-6.333-3.317 3.016-9.349 7.841-13.571 10.856 12.969 6.032 26.238 9.35 38.905 9.35 28.953 0 50.366-15.984 58.509-31.97 8.748-17.492 8.145-47.652-14.474-73.288zm-153.21 42.526c.301 9.048 7.841 16.286 16.889 16.286h.603c9.35-.303 16.587-8.144 16.286-17.493-.302-9.048-7.842-16.287-16.889-16.287h-.603c-.604 0-1.508 0-2.112.302-12.365-20.508-17.492-42.827-15.683-66.956 1.207-18.097 7.238-33.78 17.794-46.749 8.746-11.159 25.635-16.588 37.096-16.89 31.968-.604 45.541 39.208 46.445 55.193 3.921.905 10.556 3.016 15.08 4.524-3.619-48.86-33.778-74.195-62.731-74.195-27.143 0-52.175 19.604-62.128 48.559-13.873 38.605-4.826 75.702 12.063 104.958-1.507 2.112-2.411 5.43-2.11 8.748z"/></svg>