<?xml version="1.0" encoding="UTF-8" standalone="no"?>
<!DOCTYPE svg PUBLIC "-//W3C//DTD SVG 1.1//EN" "http://www.w3.org/Graphics/SVG/1.1/DTD/svg11.dtd">
<svg width="100%" height="100%" viewBox="0 0 256 256" version="1.1" xmlns="http://www.w3.org/2000/svg" xmlns:xlink="http://www.w3.org/1999/xlink" xml:space="preserve" xmlns:serif="http://www.serif.com/" style="fill-rule:evenodd;clip-rule:evenodd;stroke-linejoin:round;stroke-miterlimit:2;">
    <g transform="matrix(0.789022,0,0,0.789022,27.0062,27.3874)">
        <path d="M173.716,172.154C182.462,171.25 189.097,163.71 188.796,154.662C188.494,145.613 180.954,138.375 171.906,138.375L171.303,138.375C161.953,138.676 154.715,146.518 155.017,155.868C155.318,160.391 157.127,164.311 159.842,167.027C149.588,187.234 133.904,202.012 110.381,214.378C94.396,222.824 77.809,225.84 61.221,223.729C47.649,221.918 37.093,215.886 30.458,205.934C20.807,191.156 19.902,175.17 28.045,159.186C33.775,147.724 42.823,139.28 48.553,135.058C47.346,131.136 45.537,124.501 44.632,119.675C0.901,151.344 5.425,194.171 18.695,214.378C28.648,229.458 48.854,238.809 71.172,238.809C77.204,238.809 83.236,238.205 89.268,236.698C127.874,229.157 157.128,206.236 173.716,172.154ZM226.797,134.756C203.875,107.913 170.097,93.134 131.493,93.134L126.667,93.134C123.953,87.705 118.222,84.086 111.889,84.086L111.285,84.086C101.937,84.388 94.699,92.229 95,101.579C95.302,110.627 102.841,117.866 111.889,117.866L112.492,117.866C119.127,117.564 124.857,113.342 127.27,107.611L132.698,107.611C155.619,107.611 177.334,114.247 196.937,127.215C212.017,137.168 222.874,150.138 228.906,165.82C234.033,178.488 233.731,190.853 228.303,201.41C219.859,217.394 205.683,226.141 186.985,226.141C174.921,226.141 163.461,222.522 157.428,219.808C154.111,222.824 148.079,227.649 143.857,230.664C156.826,236.696 170.095,240.014 182.762,240.014C211.715,240.014 233.128,224.03 241.271,208.044C250.019,190.552 249.416,160.392 226.797,134.756ZM73.587,177.282C73.888,186.33 81.428,193.568 90.476,193.568L91.079,193.568C100.429,193.265 107.666,185.424 107.365,176.075C107.063,167.027 99.523,159.788 90.476,159.788L89.873,159.788C89.269,159.788 88.365,159.788 87.761,160.09C75.396,139.582 70.269,117.263 72.078,93.134C73.285,75.037 79.316,59.354 89.872,46.385C98.618,35.226 115.507,29.797 126.968,29.495C158.936,28.891 172.509,68.703 173.413,84.688C177.334,85.593 183.969,87.704 188.493,89.212C184.874,40.352 154.715,15.017 125.762,15.017C98.619,15.017 73.587,34.621 63.634,63.576C49.761,102.181 58.808,139.278 75.697,168.534C74.19,170.646 73.286,173.964 73.587,177.282Z" style="fill:rgb(118,74,188);fill-rule:nonzero;"/>
    </g>
</svg>
