<?xml version="1.0" encoding="UTF-8" standalone="no"?>
<!DOCTYPE svg PUBLIC "-//W3C//DTD SVG 1.1//EN" "http://www.w3.org/Graphics/SVG/1.1/DTD/svg11.dtd">
<svg width="100%" height="100%" viewBox="0 0 256 256" version="1.1" xmlns="http://www.w3.org/2000/svg" xmlns:xlink="http://www.w3.org/1999/xlink" xml:space="preserve" xmlns:serif="http://www.serif.com/" style="fill-rule:evenodd;clip-rule:evenodd;stroke-linejoin:round;stroke-miterlimit:2;">
    <g transform="matrix(0.906461,0,0,0.906461,11.8806,11.8101)">
        <path d="M202.589,139.763C195.392,139.801 189.137,141.534 183.899,144.096C181.978,140.29 180.056,136.9 179.717,134.412C179.339,131.511 178.888,129.739 179.339,126.273C179.792,122.806 181.826,117.87 181.789,117.493C181.751,117.116 181.337,115.346 177.192,115.307C173.046,115.269 169.467,116.099 169.052,117.191C168.638,118.284 167.847,120.771 167.319,123.333C166.604,127.101 159.03,140.553 154.696,147.6C153.302,144.849 152.096,142.437 151.834,140.516C151.456,137.615 151.004,135.843 151.456,132.376C151.908,128.91 153.943,123.974 153.906,123.597C153.868,123.22 153.453,121.449 149.308,121.411C145.163,121.373 141.583,122.203 141.168,123.295C140.755,124.388 140.302,126.95 139.436,129.436C138.57,131.923 128.508,154.381 125.871,160.184C124.805,162.532 123.687,164.857 122.517,167.155C121.347,169.453 122.479,167.268 122.366,167.457C121.65,168.851 121.236,169.604 121.236,169.604L121.236,169.641C120.671,170.659 120.068,171.601 119.767,171.601C119.541,171.601 119.126,168.888 119.842,165.196C121.349,157.395 124.929,145.263 124.891,144.848C124.891,144.622 125.569,142.512 122.555,141.419C119.616,140.326 118.561,142.135 118.297,142.135C118.033,142.135 117.845,142.776 117.845,142.776C117.845,142.776 121.123,129.135 111.59,129.135C105.636,129.135 97.422,135.655 93.353,141.531C88.727,144.049 84.105,146.573 79.487,149.105C77.264,150.349 74.966,151.592 72.817,152.76C72.667,152.609 72.516,152.421 72.365,152.27C60.835,139.949 39.508,131.244 40.412,114.703C40.751,108.675 42.824,92.849 81.371,73.632C113.098,57.994 138.343,62.328 142.714,71.936C148.968,85.652 129.187,111.124 96.405,114.816C83.895,116.21 77.339,111.387 75.68,109.579C73.947,107.695 73.683,107.582 73.043,107.958C71.988,108.523 72.666,110.219 73.043,111.199C74.022,113.762 78.055,118.283 84.875,120.506C90.904,122.465 105.562,123.558 123.309,116.7C143.166,109.013 158.691,87.648 154.131,69.75C149.571,51.588 119.427,45.597 90.903,55.733C73.948,61.765 55.56,71.26 42.334,83.619C26.622,98.314 24.134,111.088 25.152,116.438C28.807,135.429 54.994,147.788 65.47,156.945C64.942,157.247 64.453,157.509 64.038,157.736C58.801,160.336 38.83,170.773 33.856,181.813C28.204,194.323 34.76,203.292 39.093,204.498C52.545,208.227 66.374,201.52 73.797,190.442C81.22,179.364 80.316,164.97 76.887,158.377C76.849,158.301 76.812,158.226 76.736,158.151C78.092,157.359 79.487,156.53 80.843,155.739C83.336,154.265 85.862,152.845 88.417,151.481C87.136,154.985 86.194,159.168 85.741,165.197C85.176,172.281 88.077,181.474 91.884,185.092C93.579,186.675 95.576,186.713 96.858,186.713C101.304,186.713 103.301,183.02 105.524,178.65C108.237,173.298 110.687,167.082 110.687,167.082C110.687,167.082 107.635,183.887 115.924,183.887C118.939,183.887 121.99,179.968 123.347,177.972L123.347,178.01C123.347,178.01 123.423,177.896 123.573,177.632C123.875,177.143 124.063,176.842 124.063,176.842L124.063,176.766C125.269,174.656 127.982,169.87 132.014,161.919C137.214,151.671 142.226,138.859 142.226,138.859C142.226,138.859 142.677,141.986 144.222,147.186C145.126,150.238 147.011,153.592 148.518,156.832C147.887,157.728 147.233,158.607 146.558,159.47L146.596,159.507C145.617,160.788 144.561,162.183 143.393,163.539C139.286,168.437 134.388,174.052 133.709,175.672C132.918,177.594 133.106,178.988 134.613,180.118C135.706,180.947 137.666,181.06 139.662,180.947C143.355,180.683 145.954,179.779 147.236,179.214C149.233,178.498 151.57,177.405 153.755,175.785C157.787,172.808 160.236,168.55 160.01,162.936C159.897,159.845 158.879,156.756 157.636,153.854C158.013,153.328 158.352,152.799 158.729,152.272C165.097,142.964 170.033,132.753 170.033,132.753C170.033,132.753 170.486,135.881 172.031,141.08C172.784,143.719 174.329,146.581 175.685,149.37C169.694,154.231 166.002,159.883 164.682,163.576C162.309,170.433 164.156,173.523 167.659,174.238C169.242,174.578 171.504,173.825 173.161,173.108C175.271,172.429 177.758,171.261 180.133,169.529C184.163,166.552 188.044,162.408 187.819,156.793C187.707,154.231 187.029,151.706 186.087,149.258C191.174,147.148 197.73,145.979 206.094,146.959C224.032,149.068 227.573,160.26 226.894,164.97C226.216,169.68 222.449,172.242 221.205,173.033C219.962,173.825 219.547,174.089 219.66,174.653C219.811,175.482 220.415,175.444 221.469,175.295C222.939,175.031 230.89,171.488 231.229,162.821C231.791,151.745 221.24,139.65 202.589,139.763ZM64.227,186.411C58.273,192.891 49.983,195.341 46.404,193.268C42.561,191.045 44.068,181.474 51.378,174.617C55.824,170.434 61.551,166.554 65.357,164.179C66.223,163.652 67.504,162.898 69.049,161.955C69.313,161.806 69.464,161.729 69.464,161.729L70.368,161.164C73.044,170.962 70.481,179.591 64.227,186.411ZM107.559,156.945C105.487,161.994 101.153,174.918 98.516,174.202C96.255,173.599 94.861,163.803 98.063,154.118C99.683,149.259 103.112,143.456 105.109,141.194C108.35,137.577 111.929,136.371 112.796,137.84C113.889,139.763 108.84,153.78 107.559,156.945ZM143.317,174.052C142.451,174.504 141.622,174.806 141.245,174.579C140.981,174.429 141.622,173.826 141.622,173.826C141.622,173.826 146.106,169.003 147.877,166.817C148.894,165.535 150.1,164.028 151.381,162.333L151.381,162.822C151.381,168.588 145.805,172.469 143.317,174.052ZM170.899,167.76C170.258,167.308 170.372,165.8 172.519,161.09C173.348,159.243 175.308,156.153 178.661,153.177C179.038,154.383 179.302,155.551 179.265,156.644C179.228,163.916 174.027,166.629 170.899,167.76Z" style="fill:rgb(205,103,153);fill-rule:nonzero;"/>
    </g>
</svg>
