<svg xmlns="http://www.w3.org/2000/svg" width="256" height="256" viewBox="0 -32 256 256"><path fill="#CD6799" d="M202.589 107.763c-7.197.038-13.452 1.771-18.69 4.333-1.921-3.806-3.843-7.196-4.182-9.684-.378-2.901-.829-4.673-.378-8.139.453-3.467 2.487-8.403 2.45-8.78-.038-.377-.452-2.147-4.597-2.186-4.146-.038-7.725.792-8.14 1.884-.414 1.093-1.205 3.58-1.733 6.142-.715 3.768-8.289 17.22-12.623 24.267-1.394-2.751-2.6-5.163-2.862-7.084-.378-2.901-.83-4.673-.378-8.14.452-3.466 2.487-8.402 2.45-8.779-.038-.377-.453-2.148-4.598-2.186s-7.725.792-8.14 1.884c-.413 1.093-.866 3.655-1.732 6.141-.866 2.487-10.928 24.945-13.565 30.748a173.033 173.033 0 0 1-3.354 6.971s-.038.113-.151.302c-.716 1.394-1.13 2.147-1.13 2.147v.037c-.565 1.018-1.168 1.96-1.469 1.96-.226 0-.641-2.713.075-6.405 1.507-7.801 5.087-19.933 5.049-20.348 0-.226.678-2.336-2.336-3.429-2.939-1.093-3.994.716-4.258.716s-.452.641-.452.641 3.278-13.641-6.255-13.641c-5.954 0-14.168 6.52-18.237 12.396a5098.337 5098.337 0 0 0-13.866 7.574c-2.223 1.244-4.521 2.487-6.67 3.655-.15-.151-.301-.339-.452-.49-11.53-12.321-32.857-21.026-31.953-37.567.339-6.028 2.412-21.854 40.959-41.071 31.727-15.638 56.972-11.304 61.343-1.696 6.254 13.716-13.527 39.188-46.309 42.88-12.51 1.394-19.066-3.429-20.725-5.237-1.733-1.884-1.997-1.997-2.637-1.621-1.055.565-.377 2.261 0 3.241.979 2.563 5.012 7.084 11.832 9.307 6.029 1.959 20.687 3.052 38.434-3.806 19.857-7.687 35.382-29.052 30.822-46.95-4.56-18.162-34.704-24.153-63.228-14.017C73.948 29.765 55.56 39.26 42.334 51.619c-15.712 14.695-18.2 27.469-17.182 32.819 3.655 18.991 29.842 31.35 40.318 40.507-.528.302-1.017.564-1.432.791-5.237 2.6-25.208 13.037-30.182 24.077-5.652 12.51.904 21.479 5.237 22.685 13.452 3.729 27.281-2.978 34.704-14.056 7.423-11.078 6.519-25.472 3.09-32.065-.038-.076-.075-.151-.151-.226 1.356-.792 2.751-1.621 4.107-2.412a199.708 199.708 0 0 1 7.574-4.258c-1.281 3.504-2.223 7.687-2.676 13.716-.565 7.084 2.336 16.277 6.143 19.895 1.695 1.583 3.692 1.621 4.974 1.621 4.446 0 6.443-3.693 8.666-8.063 2.713-5.352 5.163-11.568 5.163-11.568s-3.052 16.805 5.237 16.805c3.015 0 6.066-3.919 7.423-5.915v.038s.076-.114.226-.378c.302-.489.49-.79.49-.79v-.076c1.206-2.11 3.919-6.896 7.951-14.847 5.2-10.248 10.212-23.06 10.212-23.06s.451 3.127 1.996 8.327c.904 3.052 2.789 6.406 4.296 9.646a65.128 65.128 0 0 1-1.96 2.638l.038.037c-.979 1.281-2.035 2.676-3.203 4.032-4.107 4.898-9.005 10.513-9.684 12.133-.791 1.922-.603 3.316.904 4.446 1.093.829 3.053.942 5.049.829 3.693-.264 6.292-1.168 7.574-1.733 1.997-.716 4.334-1.809 6.519-3.429 4.032-2.977 6.481-7.235 6.255-12.849-.113-3.091-1.131-6.18-2.374-9.082.377-.526.716-1.055 1.093-1.582 6.368-9.308 11.304-19.519 11.304-19.519s.453 3.128 1.998 8.327c.753 2.639 2.298 5.501 3.654 8.29-5.991 4.861-9.683 10.513-11.003 14.206-2.373 6.857-.526 9.947 2.977 10.662 1.583.34 3.845-.413 5.502-1.13 2.11-.679 4.597-1.847 6.972-3.579 4.03-2.977 7.911-7.121 7.686-12.736-.112-2.562-.79-5.087-1.732-7.535 5.087-2.11 11.643-3.279 20.007-2.299 17.938 2.109 21.479 13.301 20.8 18.011-.678 4.71-4.445 7.272-5.689 8.063-1.243.792-1.658 1.056-1.545 1.62.151.829.755.791 1.809.642 1.47-.264 9.421-3.807 9.76-12.474.562-11.076-9.989-23.171-28.64-23.058zM64.227 154.411c-5.954 6.48-14.244 8.93-17.823 6.857-3.843-2.223-2.336-11.794 4.974-18.651 4.446-4.183 10.173-8.063 13.979-10.438.866-.527 2.147-1.281 3.692-2.224.264-.149.415-.226.415-.226l.904-.565c2.676 9.798.113 18.427-6.141 25.247zm43.332-29.466c-2.072 5.049-6.406 17.973-9.043 17.257-2.261-.603-3.655-10.399-.453-20.084 1.62-4.859 5.049-10.662 7.046-12.924 3.241-3.617 6.82-4.823 7.687-3.354 1.093 1.923-3.956 15.94-5.237 19.105zm35.758 17.107c-.866.452-1.695.754-2.072.527-.264-.15.377-.753.377-.753s4.484-4.823 6.255-7.009c1.017-1.282 2.223-2.789 3.504-4.484v.489c0 5.766-5.576 9.647-8.064 11.23zm27.582-6.292c-.641-.452-.527-1.96 1.62-6.67.829-1.847 2.789-4.937 6.142-7.913.377 1.206.641 2.374.604 3.467-.037 7.272-5.238 9.985-8.366 11.116z"/></svg>