<svg id="svg" xmlns="http://www.w3.org/2000/svg" xmlns:xlink="http://www.w3.org/1999/xlink" width="400" height="400" viewBox="0, 0, 400,400"><g id="svgg"><path id="path0" d="M183.000 7.434 C 176.400 11.350,160.200 20.860,147.000 28.569 C 133.800 36.277,113.294 48.303,101.431 55.292 C 89.568 62.281,79.535 68.000,79.135 68.000 C 78.736 68.000,72.242 71.754,64.704 76.343 C 57.167 80.931,45.600 87.625,39.000 91.218 L 27.000 97.751 26.482 199.528 L 25.964 301.305 31.482 304.128 C 34.517 305.681,46.450 312.456,58.000 319.184 C 97.989 342.476,129.103 360.654,152.000 374.101 C 164.650 381.530,180.460 390.575,187.134 394.202 L 199.267 400.795 211.134 394.161 C 217.660 390.513,233.350 381.468,246.000 374.061 C 271.095 359.367,307.146 338.321,340.000 319.184 C 351.550 312.456,363.483 305.681,366.518 304.128 L 372.036 301.305 371.518 199.528 L 371.000 97.751 359.000 91.218 C 352.400 87.625,340.833 80.931,333.296 76.343 C 325.758 71.754,319.218 68.000,318.762 68.000 C 318.305 68.000,311.422 64.078,303.466 59.285 C 295.510 54.492,280.000 45.359,269.000 38.989 C 190.424 -6.509,200.359 -2.864,183.000 7.434 M235.500 37.840 C 248.975 45.766,260.000 52.731,260.000 53.317 C 260.000 53.903,258.321 56.771,256.269 59.691 C 249.129 69.850,246.021 77.822,243.142 93.363 C 236.848 127.340,236.000 132.957,236.000 140.690 L 236.000 148.712 245.947 134.273 C 269.716 99.770,277.045 92.033,295.581 81.875 C 303.825 77.357,304.376 77.306,309.581 80.580 C 312.562 82.454,324.210 89.165,335.466 95.494 L 355.933 107.000 355.965 141.000 L 355.998 175.000 340.499 175.116 C 328.094 175.208,321.406 176.555,307.000 181.861 C 297.100 185.508,285.517 189.764,281.259 191.319 C 258.015 199.809,258.419 200.532,288.000 203.360 C 318.467 206.272,330.363 209.307,345.500 218.030 L 356.000 224.081 356.000 257.796 C 356.000 282.390,355.324 292.040,353.500 293.467 C 352.125 294.543,345.600 298.339,339.000 301.903 C 332.400 305.466,326.100 309.053,325.000 309.874 C 323.900 310.694,317.902 314.230,311.671 317.732 L 300.342 324.098 294.971 313.119 C 288.902 300.716,279.302 291.288,247.330 266.334 C 229.762 252.623,229.315 253.631,241.501 279.486 C 255.331 308.830,258.003 317.761,257.981 334.570 L 257.963 349.000 245.481 356.198 C 238.617 360.157,225.305 367.887,215.900 373.376 C 201.182 381.966,198.257 383.017,194.900 380.922 C 192.755 379.583,179.087 371.525,164.528 363.014 L 138.055 347.540 141.673 342.270 C 150.489 329.424,162.155 281.477,161.932 259.000 C 161.864 252.101,163.723 250.093,144.000 278.365 C 115.324 319.471,102.240 327.060,81.337 314.713 C 74.551 310.705,64.050 304.726,58.000 301.425 C 51.950 298.124,45.875 294.543,44.500 293.467 C 42.681 292.044,42.000 282.582,42.000 258.755 L 42.000 226.000 54.500 225.985 C 68.604 225.967,82.126 222.262,113.970 209.689 C 140.900 199.055,140.926 198.841,115.500 197.159 C 80.889 194.870,63.102 190.254,47.500 179.514 L 42.000 175.728 42.000 141.360 L 42.000 106.993 50.644 102.408 C 55.398 99.885,66.786 93.362,75.951 87.911 C 96.500 75.689,95.773 75.661,102.716 88.949 C 109.311 101.570,121.556 113.440,150.818 135.577 C 168.372 148.856,168.587 148.385,156.416 123.285 C 143.116 95.854,139.851 85.842,138.715 69.000 C 137.547 51.680,136.331 53.221,164.000 36.959 C 176.650 29.524,189.677 21.818,192.948 19.834 C 198.677 16.360,199.119 16.360,204.948 19.828 C 208.277 21.808,222.025 29.914,235.500 37.840 M178.915 163.726 C 164.411 172.570,156.510 189.099,158.800 205.806 C 165.057 251.453,232.943 251.453,239.200 205.806 C 243.688 173.057,206.351 146.995,178.915 163.726 M213.945 177.961 C 235.172 193.076,224.931 225.985,199.000 225.985 C 180.484 225.985,167.590 207.859,174.040 190.896 C 179.960 175.325,200.770 168.579,213.945 177.961 " stroke="none" fill="#4C4C4C" fill-rule="evenodd"></path></g></svg>