<svg xmlns="http://www.w3.org/2000/svg" width="256" height="256" viewBox="0 81.5 256 256"><path fill="#FFF" d="M163 166.298c-3.331-10.332-10.904-24.851-11.983-26.894l-.939-1.787a211.922 211.922 0 0 0-1.877-3.656l-3.413-6.486-4.889 34.738-.17 1.263a205.236 205.236 0 0 0-11.661-.328c-4.139 0-8.053.121-11.729.331l-.151-1.268-1.715-12.176c.002-.021-3.18-22.561-3.18-22.561l-3.484 6.486c-.315.596-1.267 2.403-2.504 4.883l-.301.56c-1.081 2.045-8.727 16.59-12.079 26.923-9.67 1.868-14.912 3.866-14.912 3.866v84.441L128 290.846l49.99-36.211v-84.441c-.001-.001-5.26-2.02-14.99-3.896z"/><path fill="#3B3B63" d="M149.509 231.857h-21.548v-36.894l-21.863 35.816-3.4 36.778 24.927 18.206.336.247 25.491-18.584z"/><path fill="#DBDBDB" d="M127.592 285.631l-46.387-33.629v-78.419s17.152-6.543 46.449-6.543c29.298 0 46.324 6.543 46.324 6.543v78.419l-46.386 33.629z"/><path fill="#C6C6C6" d="M128.264 167.04l-.064.001v118.588h.001L174.588 252v-78.417s-17.026-6.543-46.324-6.543"/><path fill="#3B3B63" d="M153.325 267.35l-3.936-35.493H127.84v54.07z"/><path fill="#53537A" d="M102.698 267.557l25.263 18.452v-91.046l-21.864 35.816z"/><path fill="#BC9375" d="M138.834 257.072c0 6.086-5.591 9.103-10.72 9.103-5.128 0-10.832-3.017-10.832-9.103"/><path fill="#073251" d="M135.69 253.624c0 7.137-3.779 9.05-7.633 9.05-3.853 0-7.633-1.913-7.633-9.05"/><path fill="#FFF" d="M128.058 260.22c-4.118 0-6.12-3.071-6.12-9.385h1.963c0 7.392 2.807 7.392 4.156 7.392 1.349 0 4.156 0 4.156-7.392h1.963c.001 6.313-2.002 9.385-6.118 9.385"/><path fill="#C49A7E" d="M160.74 178.098c0-7.699-12.798-31.923-12.798-31.923l-4.33 30.721-3.885 6.486-11.646.481-.046.095v-.095l-11.647-.481-3.884-6.486-4.329-30.721s-12.799 24.224-12.799 31.923l5.407 14.793s-2.729 24.849-1.482 28.102c1.242 3.254 9.869 14.136 9.869 14.136s-.026 9.148 2.336 15.725c1.685 4.697 5.398 6.602 8.953 6.602 5.446 0 7.577-5.079 7.577-5.079s2.181 5.079 7.627 5.079c3.554 0 7.263-1.901 8.952-6.602 2.359-6.574 2.335-15.725 2.335-15.725s8.626-10.882 9.87-14.136c1.245-3.254-1.484-28.102-1.484-28.102l5.404-14.793z"/><path fill="#D8B7A0" d="M128.058 183.913l-.022.046v-.095l-11.647-.481-3.884-6.486-4.331-30.721S95.376 170.4 95.376 178.099l5.406 14.793s-2.728 24.848-1.484 28.102c1.245 3.254 9.868 14.136 9.868 14.136s-.022 9.147 2.337 15.725c1.688 4.696 5.401 6.602 8.953 6.602 5.448 0 7.579-5.079 7.579-5.079s.01.018.025.051l-.002-68.516z"/><path fill="#3B3B63" d="M155.451 194.347c-.992-2.11.419-7.104.419-7.104-8.082-8.422-10.104-25.984-10.104-25.984-1.509 5.534-4.789 21.85-4.789 21.85s-6.031-2.284-12.893-2.294h-.051a45.78 45.78 0 0 0-1.119.023v68.849l.512.763v-.376h.317v.376l.003-.376h.626v.376-.376h.319v.376l5.587-8.293 1.215-23.289 6.955 8.066 8.961 2.661s3.353-2.43 3.353-2.421c1.424-2.026 1.896-3.752 2.239-4.647 1.245-3.26-1.55-28.18-1.55-28.18"/><path fill="#53537A" d="M128.12 180.813h-.024c-6.864.012-12.896 2.294-12.896 2.294s-3.281-16.315-4.789-21.85c0 0-2.02 17.562-10.103 25.984 0 0 1.411 4.994.418 7.104 0 0-2.794 24.921-1.55 28.175.344.896.819 2.621 2.241 4.647 0-.01 3.354 2.421 3.354 2.421l8.959-2.661 6.954-8.065 1.218 23.289 5.583 8.294v-.378h.32v.378-.378h.313l.002-69.254z"/><path fill="#333152" d="M144.316 209.935h-10.468v.113c0 3.712 3.161 6.72 6.869 6.72 3.709 0 6.869-3.008 6.869-6.72v-.113h-3.27z"/><path fill="#FFF" d="M136.465 209.935v.113c0 2.208 1.751 3.997 3.927 3.997s3.926-1.789 3.926-3.997v-.113h-7.853z"/><path fill="#333152" d="M141.603 209.935h-1.84c-.018 0-.033.009-.049.012.229.049.354.574.305.924a1.057 1.057 0 0 1-1.035.915 1.74 1.74 0 0 0 1.455 1.366 1.738 1.738 0 0 0 1.967-1.491c.096-.712-.241-1.726-.803-1.726m-22.556 0H108.58v.113c0 3.712 3.162 6.72 6.869 6.72 3.709 0 6.871-3.008 6.871-6.72v-.113h-3.273z"/><path fill="#FFF" d="M111.197 209.935v.113c0 2.208 1.751 3.997 3.924 3.997 2.177 0 3.926-1.789 3.926-3.997v-.113h-7.85z"/><path fill="#333152" d="M116.335 209.935h-1.842c-.016 0-.033.009-.048.012.228.049.354.574.306.924-.074.534-.52.905-1.037.915a1.736 1.736 0 0 0 3.422-.125c.098-.712-.239-1.726-.801-1.726"/><path fill="#C49A7E" d="M143.527 206.766c.439-.489 4.171-4.788-.82-4.788-4.51 0-7.754 3.695-8.614 4.788h9.434z"/><path fill="#D8B7A0" d="M122 206.766c-.859-1.093-4.104-4.788-8.615-4.788-4.988 0-1.256 4.299-.819 4.788H122z"/><path fill="#53537A" d="M106.172 209.896h19.091v-1.823h-19.091z"/><path fill="#333152" d="M155.797 184.05c-5.551-7.923-7.292-20.804-7.443-21.981l1.014-7.18c4.121 8.516 8.446 18.623 8.742 22.84l-2.313 6.321zm-1.417 36.045c-.759 1.978-5.993 9.043-9.471 13.43l-.58.735.003.939c0 .085-.003 8.746-2.178 14.807-1.573 4.381-5.066 4.854-6.493 4.854-3.613 0-5.173-3.363-5.228-3.484l-.207-3.15h-4.392l-.198 3.132c-.063.143-1.584 3.494-5.179 3.494-1.43 0-4.922-.469-6.496-4.849-2.168-6.04-2.179-14.719-2.179-14.808l.003-.938-.58-.732c-3.475-4.383-8.71-11.449-9.45-13.379-.591-2.087.385-15.584 1.626-26.895l.068-.627-.98-2.679c3.367-3.583 5.729-8.515 7.359-13.21l.159 1.143 5.347 8.921 2.089-.911c.053-.022 5.41-2.337 10.612-2.337 5.169 0 10.614 2.316 10.666 2.339l2.086.903 5.341-8.917.209-1.489c1.612 4.741 3.973 9.761 7.355 13.424l-1.026 2.811.068.627c1.242 11.312 2.217 24.81 1.646 26.846zm-29.58 39.149a10.186 10.186 0 0 0 1.887-1.105c.509.151.997.151 1.371.151.373 0 .855.004 1.36-.148.558.41 1.189.787 1.889 1.103-.876.665-1.956 1.039-3.247 1.039-1.298-.001-2.382-.372-3.26-1.04zm3.314 5.666c-2.873 0-6.958-1.301-7.974-4.748.104.003.206.013.313.013.555 0 1.075-.052 1.578-.125 1.458 2.061 3.727 2.692 6.027 2.692 2.303 0 4.577-.626 6.037-2.689.5.069 1.015.122 1.565.122.107 0 .212-.01.319-.013-1.004 3.447-5.035 4.748-7.865 4.748zm-30.105-87.181c.296-4.218 4.618-14.324 8.741-22.841l1.099 7.788c-.419 2.911-2.334 14.33-7.472 21.527l-2.368-6.474zm65.282.433c0-8.132-11.735-30.638-13.077-33.178l-3.751-7.131-5.375 38.193-2.48 4.148c-2.395-.816-6.471-1.956-10.575-1.956-4.099 0-8.147 1.136-10.532 1.954l-2.482-4.146-1.886-13.388c.002-.022.005-.052.005-.066l-.014-.001-3.488-24.737-3.831 7.131c-1.343 2.54-13.172 25.046-13.172 33.178v.477l5.417 14.649c-.866 7.988-2.52 25.338-1.221 28.729.809 2.121 3.924 6.498 6.559 10.008l-3.548 33.581 4.886 3.5 2.582-24.428c.371 2.375.918 4.884 1.731 7.15 1.12 3.123 3.101 5.487 5.636 6.89.151 7.477 6.994 11.509 13.441 11.509 6.395 0 13.181-4.035 13.329-11.515 2.529-1.4 4.508-3.765 5.627-6.884.846-2.357 1.401-4.982 1.771-7.44l2.598 24.517 4.886-3.624-3.539-33.357c2.613-3.493 5.669-7.808 6.472-9.904 1.298-3.39-.422-20.743-1.287-28.729l5.32-14.652-.002-.478z"/><path fill="#333152" d="M134.218 239.1h-12.28s-1.651 2.923-1.651 3.871c0 2.816 7.558 7.3 7.558 7.3s7.983-4.617 7.983-7.3c0-1.28-1.61-3.871-1.61-3.871"/><path fill="#C49A7E" d="M131.851 247.685c-.685-1.233-1.568-1.458-1.975-.507-.404.951-.173 2.722.513 3.952.685 1.234 1.568 1.459 1.973.508.406-.951.175-2.724-.511-3.953"/><path fill="#D8B7A0" d="M124.264 247.685c-.687 1.229-.915 3.002-.511 3.953.404.951 1.288.727 1.976-.508.685-1.229.914-3.001.508-3.952-.404-.951-1.287-.727-1.973.507"/></svg>