<?xml version="1.0" encoding="UTF-8" standalone="no"?>
<!DOCTYPE svg PUBLIC "-//W3C//DTD SVG 1.1//EN" "http://www.w3.org/Graphics/SVG/1.1/DTD/svg11.dtd">
<svg width="100%" height="100%" viewBox="0 0 319 319" version="1.1" xmlns="http://www.w3.org/2000/svg" xmlns:xlink="http://www.w3.org/1999/xlink" xml:space="preserve" xmlns:serif="http://www.serif.com/" style="fill-rule:evenodd;clip-rule:evenodd;stroke-linejoin:round;stroke-miterlimit:2;">
    <g transform="matrix(0.884721,0,0,0.884721,18.6094,18.6862)">
        <g>
            <path id="path-1_1_" d="M80.979,248.245L74.432,73.78C74.216,68.018 78.634,63.135 84.389,62.775L232.783,53.5C238.641,53.133 243.685,57.585 244.052,63.443C244.067,63.664 244.073,63.885 244.073,64.106L244.073,254.217C244.073,260.087 239.315,264.845 233.445,264.845C233.288,264.845 233.128,264.841 232.968,264.834L91.121,258.463C85.598,258.214 81.187,253.771 80.979,248.245Z" style="fill:rgb(255,71,133);fill-rule:nonzero;"/>
        </g>
        <path d="M199.698,79.459L200.711,55.08L221.09,53.479L221.968,78.62C221.998,79.495 221.314,80.229 220.439,80.26C220.065,80.273 219.698,80.153 219.403,79.921L211.545,73.73L202.24,80.788C201.543,81.317 200.548,81.181 200.019,80.483C199.795,80.189 199.682,79.827 199.698,79.459ZM173.635,133.146C173.635,137.28 201.484,135.299 205.222,132.395C205.222,104.24 190.116,89.445 162.451,89.445C134.786,89.445 119.287,104.47 119.287,127.008C119.287,166.26 172.26,167.012 172.26,188.423C172.26,194.435 169.318,198.001 162.842,198.001C154.406,198.001 151.071,193.693 151.463,179.044C151.463,175.865 119.287,174.876 118.306,179.044C115.808,214.544 137.925,224.785 163.236,224.785C187.759,224.785 206.988,211.712 206.988,188.048C206.988,145.978 153.229,147.105 153.229,126.257C153.229,117.805 159.507,116.678 163.236,116.678C167.16,116.677 174.224,117.369 173.635,133.146Z" style="fill:white;fill-rule:nonzero;"/>
    </g>
</svg>
