<svg xmlns="http://www.w3.org/2000/svg" width="256" height="256"><path fill="#006EAF" d="M53.42 79.673l70.312 38.368 2.134-40.547-21.741-35.078C83.011 48.3 65.071 61.727 53.42 79.673zm100.634-36.701l-23.209 34.522.712 43.392 71.802-39.924c-11.234-17.959-28.635-31.66-49.305-37.99z"/><path fill="#00A7E1" d="M80.785 203.247l43.659-70.979-71.046-52.573C44.372 93.608 39.082 110.181 39.082 128c0 31.739 16.68 59.514 41.703 75.247zM203.358 80.962l-71.802 51.305 44.393 70.513c24.613-15.813 40.969-43.352 40.969-74.78 0-17.288-5.003-33.385-13.538-47.038-.002-.003-.021.004-.022 0z"/><path fill="#5BC9EC" d="M128.711 216.873l-4.268-69.666-43.637 56.04c13.689 8.604 29.832 13.671 47.193 13.671.241 0 .473-.042.712-.045zm47.238-14.093l-45.104-56.997-2.134 71.09c17.407-.138 33.581-5.318 47.238-14.093z"/><path fill="#FFF" d="M154.054 42.972l-25.343 30.254-24.563-30.832c-.009.002-.014.02-.022.022l21.741 35.078-2.134 40.547L53.42 79.673c-.006.008-.018.014-.022.022l71.045 52.572-43.659 70.979c.005.003.017-.004.022 0l43.637-56.04 4.268 69.666 2.134-71.09 45.104 56.997-44.393-70.513 71.802-51.305-71.802 39.924-.712-43.392 23.21-34.521z"/><path fill="#013A78" d="M128 39.082c-8.277 0-16.249 1.196-23.852 3.313l24.563 30.832 25.343-30.254A88.756 88.756 0 0 0 128 39.082z"/></svg>