<?xml version="1.0" encoding="UTF-8" standalone="no"?>
<!DOCTYPE svg PUBLIC "-//W3C//DTD SVG 1.1//EN" "http://www.w3.org/Graphics/SVG/1.1/DTD/svg11.dtd">
<svg width="100%" height="100%" viewBox="0 0 256 256" version="1.1" xmlns="http://www.w3.org/2000/svg" xmlns:xlink="http://www.w3.org/1999/xlink" xml:space="preserve" xmlns:serif="http://www.serif.com/" style="fill-rule:evenodd;clip-rule:evenodd;stroke-linejoin:round;stroke-miterlimit:2;">
    <g transform="matrix(0.711169,0,0,0.711169,36.9704,34.5)">
        <g>
            <path d="M149.602,258.579C142.884,267.038 129.264,262.403 129.102,251.602L126.735,93.618L232.964,93.618C252.204,93.618 262.935,115.841 250.971,130.91L149.602,258.579Z" style="fill:url(#_Linear1);fill-rule:nonzero;"/>
            <path d="M149.602,258.579C142.884,267.038 129.264,262.403 129.102,251.602L126.735,93.618L232.964,93.618C252.204,93.618 262.935,115.841 250.971,130.91L149.602,258.579Z" style="fill:url(#_Linear2);fill-rule:nonzero;"/>
            <path d="M106.399,4.369C113.116,-4.091 126.737,0.544 126.899,11.346L127.936,169.33L23.037,169.33C3.796,169.33 -6.936,147.107 5.029,132.038L106.399,4.369Z" style="fill:rgb(62,207,142);fill-rule:nonzero;"/>
        </g>
    </g>
    <defs>
        <linearGradient id="_Linear1" x1="0" y1="0" x2="1" y2="0" gradientUnits="userSpaceOnUse" gradientTransform="matrix(55.0201,39.5963,-39.5963,55.0201,153.702,128.647)"><stop offset="0" style="stop-color:rgb(36,147,97);stop-opacity:1"/><stop offset="1" style="stop-color:rgb(62,207,142);stop-opacity:1"/></linearGradient>
        <linearGradient id="_Linear2" x1="0" y1="0" x2="1" y2="0" gradientUnits="userSpaceOnUse" gradientTransform="matrix(25.092,81.0522,-81.0522,25.092,129.309,71.3366)"><stop offset="0" style="stop-color:black;stop-opacity:0.2"/><stop offset="1" style="stop-color:black;stop-opacity:0"/></linearGradient>
    </defs>
</svg>
