<?xml version="1.0" encoding="utf-8"?>
<!-- Generator: Adobe Illustrator 16.0.0, SVG Export Plug-In . SVG Version: 6.00 Build 0)  -->
<!DOCTYPE svg PUBLIC "-//W3C//DTD SVG 1.1//EN" "http://www.w3.org/Graphics/SVG/1.1/DTD/svg11.dtd">
<svg version="1.1" id="Ebene_1" xmlns="http://www.w3.org/2000/svg" xmlns:xlink="http://www.w3.org/1999/xlink" x="0px" y="0px"
	 width="256px" height="256px" viewBox="0 0 256 256" enable-background="new 0 0 256 256" xml:space="preserve">
<g>
	<polygon fill="#007ACC" points="34.5,128 34.5,221.5 128,221.5 221.5,221.5 221.5,128 221.5,34.5 128,34.5 34.5,34.5 	"/>
	<path fill="#FFFFFF" d="M75.853,128.621l-0.06,7.657h12.17h12.169v34.58v34.58h8.608h8.607v-34.58v-34.58h12.17h12.17v-7.509
		c0-4.156-0.089-7.629-0.207-7.718c-0.09-0.119-14.901-0.178-32.859-0.148l-32.681,0.088L75.853,128.621z"/>
	<path fill="#FFFFFF" d="M185.391,120.774c4.75,1.188,8.37,3.295,11.694,6.738c1.722,1.84,4.274,5.195,4.482,5.996
		c0.06,0.238-8.073,5.699-13.001,8.756c-0.178,0.12-0.891-0.652-1.692-1.84c-2.404-3.502-4.927-5.016-8.785-5.283
		c-5.67-0.386-9.321,2.582-9.291,7.539c0,1.454,0.208,2.315,0.802,3.503c1.247,2.583,3.562,4.126,10.834,7.272
		c13.387,5.758,19.115,9.557,22.678,14.96c3.978,6.025,4.868,15.643,2.166,22.797c-2.968,7.776-10.33,13.06-20.688,14.812
		c-3.205,0.563-10.805,0.474-14.248-0.149c-7.51-1.335-14.634-5.046-19.026-9.913c-1.722-1.9-5.075-6.857-4.867-7.213
		c0.088-0.119,0.859-0.594,1.722-1.1c0.83-0.475,3.977-2.285,6.945-4.007l5.373-3.116l1.127,1.662
		c1.574,2.405,5.016,5.699,7.095,6.798c5.967,3.146,14.159,2.701,18.195-0.921c1.722-1.573,2.434-3.206,2.434-5.609
		c0-2.166-0.267-3.117-1.396-4.75c-1.453-2.078-4.421-3.828-12.852-7.479c-9.647-4.155-13.803-6.737-17.603-10.834
		c-2.195-2.374-4.273-6.174-5.135-9.351c-0.711-2.642-0.891-9.261-0.326-11.933c1.989-9.319,9.023-15.82,19.175-17.75
		C174.497,119.735,182.154,119.973,185.391,120.774z"/>
</g>
</svg>
