<svg xmlns="http://www.w3.org/2000/svg" width="256" height="256"><path fill="#007ACC" d="M34.5 128v93.5h187v-187h-187z"/><path fill="#FFF" d="M75.853 128.621l-.06 7.657h24.339v69.16h17.215v-69.16h24.34v-7.509c0-4.156-.089-7.629-.207-7.718-.09-.119-14.901-.178-32.859-.148l-32.681.088-.087 7.63zm109.538-7.847c4.75 1.188 8.37 3.295 11.694 6.738 1.722 1.84 4.274 5.195 4.482 5.996.06.238-8.073 5.699-13.001 8.756-.178.12-.891-.652-1.692-1.84-2.404-3.502-4.927-5.016-8.785-5.283-5.67-.386-9.321 2.582-9.291 7.539 0 1.454.208 2.315.802 3.503 1.247 2.583 3.562 4.126 10.834 7.272 13.387 5.758 19.115 9.557 22.678 14.96 3.978 6.025 4.868 15.643 2.166 22.797-2.968 7.776-10.33 13.06-20.688 14.812-3.205.563-10.805.474-14.248-.149-7.51-1.335-14.634-5.046-19.026-9.913-1.722-1.9-5.075-6.857-4.867-7.213.088-.119.859-.594 1.722-1.1.83-.475 3.977-2.285 6.945-4.007l5.373-3.116 1.127 1.662c1.574 2.405 5.016 5.699 7.095 6.798 5.967 3.146 14.159 2.701 18.195-.921 1.722-1.573 2.434-3.206 2.434-5.609 0-2.166-.267-3.117-1.396-4.75-1.453-2.078-4.421-3.828-12.852-7.479-9.647-4.155-13.803-6.737-17.603-10.834-2.195-2.374-4.273-6.174-5.135-9.351-.711-2.642-.891-9.261-.326-11.933 1.989-9.319 9.023-15.82 19.175-17.75 3.294-.624 10.951-.386 14.188.415z"/></svg>