<svg xmlns="http://www.w3.org/2000/svg" width="256" height="256" viewBox="0 -42.5 256 256"><path fill="#E44D26" d="M102.104 139.287L71.082 54.412l85.194-22.789 15.496 89.022-32.301 18.994-37.367-.352"/><path fill="#F16529" d="M137.545 132.239l26.097-15.355-13.246-76.075-34.818 9.315 21.967 82.115"/><path fill="#EFEFEF" d="M196.793 75.534l3.97 13.658-30.39 8.586s0 18.278-14.748 25.545c-14.745 7.266-26.201 1.104-26.201 1.104l-1.834-5.285 21.875-5.947 4.841-18.722-14.093-13.863-20.259 6.127-1.759-4.809s9.465-20.92 37.434-9.021c0 0 8.813 5.499 10.79 10.349l30.374-7.722zm3.97-1.026l4.842-1.396L209.5 87.06l-5.068 1.537-3.669-14.089z"/><path fill="#BCBCBC" d="M202.468 73.892l3.137-.78L209.5 87.06l-5.068 1.537-1.327-4.67 2.022-.792-2.659-9.243zm-9.027 2.496l3.352-.854 3.97 13.658-30.39 8.586s-.327 15.948-10.903 23.171c-10.559 7.215-22.457 6.997-30.05 3.479l-.847-2.438s20.665 4.858 30.896-10.668c6.171-10.237 6.062-17.616 6.062-17.616l30.494-8.255-2.584-9.063zm-75.25 5.532l17.837-5.177 4.177 3.857-20.254 6.126-1.76-4.806z"/><path fill="#EFEFEF" d="M55.309 91.601l3.581 13.762 30.495-8.168s9.357 15.697 25.75 14.391c16.397-1.307 23.077-12.46 23.077-12.46l-1.13-5.478-21.834 6.085-13.742-13.599 5.013-19.132 20.544-5.102-.951-5.034s-18.834-13.13-36.781 11.4c0 0-4.75 9.231-3.975 14.408l-30.047 8.927zm-3.934 1.151L46.5 94.029l3.791 13.972 5.143-1.269-4.059-13.98z"/><path fill="#BCBCBC" d="M49.596 93.09l-3.096.939 3.791 13.972 5.143-1.269-1.244-4.696-2.152.357-2.442-9.303zm9.038-2.471l-3.325.981 3.581 13.762 30.495-8.168s8.447 13.528 21.226 14.324c12.766.788 22.873-5.478 27.601-12.394l-.515-2.525s-15.275 14.752-32.015 6.647c-10.538-5.638-14.215-12.042-14.215-12.042l-30.428 8.52-2.405-9.105zm67.477-33.748l-17.968 4.674-1.621 5.458 20.543-5.102-.954-5.03z"/></svg>