<?xml version="1.0" encoding="UTF-8" standalone="no"?>
<!DOCTYPE svg PUBLIC "-//W3C//DTD SVG 1.1//EN" "http://www.w3.org/Graphics/SVG/1.1/DTD/svg11.dtd">
<svg width="100%" height="100%" viewBox="0 0 256 256" version="1.1" xmlns="http://www.w3.org/2000/svg" xmlns:xlink="http://www.w3.org/1999/xlink" xml:space="preserve" xmlns:serif="http://www.serif.com/" style="fill-rule:evenodd;clip-rule:evenodd;stroke-linejoin:round;stroke-miterlimit:2;">
    <g transform="matrix(0.923961,0,0,0.923961,9.73294,9.84197)">
        <path d="M128,10.994L231.303,69.428L231.303,186.336L128,244.77L24.697,186.336L24.697,69.428L128,10.994Z" style="fill:white;fill-rule:nonzero;"/>
        <path d="M212.864,182.281L131.429,228.396L131.429,192.533L182.184,164.583L212.864,182.281ZM218.438,177.252L218.438,80.889L188.656,98.08L188.656,160.061L218.438,177.252ZM42.824,182.281L124.258,228.357L124.258,192.494L73.503,164.583L42.824,182.281ZM37.25,177.252L37.25,80.889L67.033,98.08L67.033,160.061L37.25,177.252ZM40.719,74.651L124.258,27.404L124.258,62.1L70.736,91.531L70.307,91.765L40.719,74.651ZM214.93,74.651L131.43,27.404L131.43,62.1L184.915,91.57L185.343,91.804L214.93,74.651Z" style="fill:rgb(142,214,251);fill-rule:nonzero;"/>
        <path d="M124.258,184.347L74.205,156.786L74.205,102.251L124.258,131.136L124.258,184.347ZM131.43,184.347L181.483,156.826L181.483,102.251L131.43,131.136L131.43,184.347ZM77.557,95.936L127.844,68.298L178.093,95.936L127.844,124.939L77.557,95.936Z" style="fill:rgb(28,120,192);fill-rule:nonzero;"/>
    </g>
</svg>
