<svg xmlns="http://www.w3.org/2000/svg" width="256" height="256"><linearGradient id="a" gradientUnits="userSpaceOnUse" x1="-70.338" y1="327.153" x2="-70.338" y2="326.535" gradientTransform="matrix(255.7156 0 0 -255.7156 18114.662 83710.313)"><stop offset="0" stop-color="#fdfdfd"/><stop offset="1" stop-color="#cbcbcb"/></linearGradient><circle fill="url(#a)" cx="128" cy="128" r="82.335"/><linearGradient id="b" gradientUnits="userSpaceOnUse" x1="-70.277" y1="327.046" x2="-70.277" y2="326.428" gradientTransform="matrix(233.8133 0 0 -233.8133 16559.53 76526.555)"><stop offset="0" stop-color="#b2e198"/><stop offset="1" stop-color="#04a171"/></linearGradient><circle fill="url(#b)" cx="127.908" cy="128.091" r="75.283"/><path fill="#F2F8F6" d="M110.261 116.47a143.412 143.412 0 0 0-2.568 4.11 105.904 105.904 0 0 1-2.373-7.327 106.31 106.31 0 0 1 7.646-.804 151.342 151.342 0 0 0-2.705 4.021zm66.416 4.814c-2.66-2.555-6.465-4.895-11.306-6.957-9.612-4.093-22.486-6.745-36.252-7.467-1.66-.087-3.28-.146-4.848-.178 10.51-12.544 20.661-19.219 26.571-19.444 1.252-.048 2.304.2 3.126.735 2.768 1.798 3.534 7.375 2.054 14.918a2.747 2.747 0 1 0 5.393 1.058c2.546-12.968-1.016-18.35-4.45-20.584-1.794-1.166-3.925-1.71-6.33-1.619-9.094.347-21.834 10.042-33.459 24.99-4.603.158-9.04.555-13.19 1.175a67.986 67.986 0 0 1-1.046-6.13c-1.042-8.594.236-14.693 3.42-16.317a4.402 4.402 0 0 1 1.71-.458c2.844-.214 6.858 1.698 11.295 5.382a2.748 2.748 0 0 0 3.511-4.227c-5.699-4.732-10.819-6.965-15.219-6.635a9.939 9.939 0 0 0-3.794 1.043c-2.958 1.508-4.979 4.396-6.008 8.585-.88 3.586-1.006 8.058-.37 13.29a73.208 73.208 0 0 0 1.09 6.437c-3.245.684-6.252 1.518-8.949 2.492-11.794 4.26-14.518 9.876-14.725 13.837-.198 3.784 1.74 9.415 12.091 14.753a2.747 2.747 0 1 0 2.518-4.884c-5.955-3.07-9.28-6.563-9.122-9.583.223-4.253 7.352-8.754 19.495-11.29 1.125 4.062 2.57 8.281 4.302 12.56-4.365 8.192-7.549 16.267-9.2 23.45-1.18 5.132-1.526 9.588-1.026 13.243.583 4.271 2.292 7.353 5.075 9.162 1.42.923 3.333 1.645 5.846 1.645 3.644 0 8.548-1.519 15.032-6.143a2.747 2.747 0 1 0-3.19-4.474c-6.39 4.56-11.884 6.19-14.693 4.365-2.996-1.947-3.627-8.142-1.689-16.568 1.285-5.588 3.577-11.782 6.687-18.165a140.26 140.26 0 0 0 2.114 4.334c6.257 12.291 13.917 22.985 21.568 30.112 3.854 3.59 7.54 6.115 10.955 7.51 2.071.847 4.018 1.271 5.824 1.271 1.672 0 3.226-.363 4.647-1.089 2.853-1.454 4.836-4.198 5.896-8.156.907-3.389 1.111-7.616.606-12.565-.994-9.729-4.67-21.597-10.354-33.415a2.748 2.748 0 0 0-4.952 2.381c5.414 11.26 8.908 22.48 9.84 31.592.817 8.016-.504 13.723-3.534 15.268-3.182 1.623-8.858-.926-15.184-6.817-7.193-6.7-14.444-16.852-20.417-28.584a135.01 135.01 0 0 1-3.768-8.039c1.42-2.54 2.957-5.089 4.6-7.622a137.3 137.3 0 0 1 5.072-7.298c.451-.006.905-.01 1.362-.013 2.36-.007 4.89.06 7.526.197 13.14.69 25.352 3.188 34.387 7.035 7.946 3.384 12.58 7.537 12.393 11.108-.159 3.032-3.843 6.166-10.107 8.598a2.75 2.75 0 0 0 .996 5.311c.33 0 .667-.06.993-.188 10.886-4.227 13.408-9.638 13.606-13.434.175-3.317-1.312-6.51-4.419-9.494z"/><path fill="#F1F8F3" d="M122.33 128.73a6.006 6.006 0 0 0 6.002 6.007c3.316 0 6.003-2.689 6.003-6.008s-2.688-6.009-6.003-6.009a6.007 6.007 0 0 0-6.003 6.01"/></svg>