<svg xmlns="http://www.w3.org/2000/svg" xmlns:xlink="http://www.w3.org/1999/xlink" width="256" height="256" viewBox="0 -5.5 256 256"><path fill="#FFF" d="M77.501 171.293l.433-1.081.072-.145c.36-.864.721-1.802 1.082-2.667.433-1.154.865-2.38 1.297-3.533.289-.648.505-1.298.721-2.019.577-1.586 1.37-3.678 2.307-5.696.577-1.226 1.009-2.09 1.514-2.884a34.5 34.5 0 0 1 1.803-2.668l.504-.721.793-.504c.072-.072.216-.145.361-.217.36-.216.793-.36 1.082-.504.504-.217 1.153-.434 1.875-.649a50.547 50.547 0 0 1 3.533-.865c2.019-.433 4.182-.865 6.921-1.298 4.109-.649 8.508-1.226 13.771-1.803a465.183 465.183 0 0 1 27.542-2.163c4.758-.216 8.363-.288 11.752-.288h2.163c2.234.072 4.83.145 7.21.505.865.145 1.658.288 2.234.505.216.071.433.144.505.216l.721.289.577.505.649.648c.792.793 1.657 1.73 2.523 2.812 2.739 3.461 5.19 7.643 7.354 12.401 2.091 4.614 3.389 8.724 4.182 12.761l1.082 5.696h-13.267l-.793-3.821c-.865-4.038-11.752-14.708-17.159-16.799-.577-.217-2.884-.865-10.022-.865-14.708 0-35.473 2.596-38.428 3.244-3.533 1.658-8.94 8.58-12.041 15.502l-1.298 2.811"/><path fill="#BA8449" d="M167.625 150.24a17.035 17.035 0 0 0-2.163-2.379l-.505-.505s-.072 0-.145-.071c-.36-.145-.865-.217-1.37-.289-2.091-.288-4.326-.36-6.561-.433-4.542-.071-9.084.072-13.627.289a428.995 428.995 0 0 0-27.253 2.163c-4.542.504-9.084 1.081-13.554 1.802-2.235.361-4.47.722-6.633 1.226a40.709 40.709 0 0 0-3.172.794c-.504.144-1.009.287-1.442.505-.216.071-.433.144-.504.287 0 0-.072 0-.072.073-.505.721-1.009 1.441-1.514 2.234s-.865 1.658-1.297 2.523a68.72 68.72 0 0 0-2.163 5.336c-.649 1.802-1.37 3.677-2.019 5.551-.36.938-.721 1.875-1.154 2.813-.144.432-.36.865-.577 1.297h6.128c3.317-7.426 9.589-15.934 14.78-18.024 1.442-.576 24.658-3.461 40.015-3.461 5.696 0 9.589.433 11.752 1.227 6.273 2.45 18.818 14.059 20.116 20.332h3.532c-.721-3.966-2.163-7.859-3.821-11.608-1.875-4.327-4.11-8.293-6.777-11.682"/><path fill="#FFF" d="M174.257 177.998l-.721-3.893c-.648-3.244-1.729-6.705-3.46-10.526-1.875-4.038-3.894-7.57-6.2-10.382a14.386 14.386 0 0 0-1.298-1.515c-1.803-.288-3.894-.288-5.769-.36h-2.019c-3.245 0-6.705.072-11.319.288a446.504 446.504 0 0 0-26.965 2.163 374.594 374.594 0 0 0-13.266 1.73c-2.523.361-4.542.793-6.345 1.153-1.153.289-2.019.505-2.812.722-.144 0-.216.071-.289.071-.145.289-.36.505-.505.794-.36.576-.649 1.226-1.153 2.09-.793 1.659-1.442 3.389-2.019 4.903-.288.648-.504 1.298-.721 1.946-.433 1.226-.865 2.452-1.37 3.678-.36.937-.793 1.874-1.153 2.884l-.072.145c-.144.432-.36.864-.504 1.225l-1.298 2.884h-8.435l-1.226-.576-.144-.072c-2.884-1.657-2.884-4.109-2.813-5.119v-.216l.145-.648.216-.794c.144-.505.289-1.081.433-1.586.288-1.082.648-2.091 1.009-3.101a86.768 86.768 0 0 1 2.379-6.056c1.009-2.235 1.946-4.183 3.028-5.984a36.276 36.276 0 0 1 1.803-2.956 43.313 43.313 0 0 1 2.091-2.956c.649-.793 1.226-1.298 1.658-1.586h.072c.433-.36.865-.577 1.082-.649.649-.36 1.153-.576 1.514-.721.865-.36 1.658-.577 2.307-.793 1.442-.433 2.812-.721 3.822-.938a135.31 135.31 0 0 1 7.138-1.298c4.181-.648 8.58-1.153 13.987-1.73 9.373-.937 18.746-1.657 27.83-2.019 4.326-.144 7.715-.288 10.814-.288h3.317c2.307.071 4.902.145 7.715.576h.071c.649.145 1.658.289 2.813.649h.071c.289.145.722.288 1.227.505.36.216.648.36.865.504l.36.289.288.216.288.289.793.793c.938.937 1.803 1.946 2.739 3.172 2.885 3.75 5.408 8.075 7.715 13.194 1.082 2.379 2.019 4.758 2.74 7.065a61.761 61.761 0 0 1 1.802 7.21l.865 5.552h-13.122v.072z"/><path fill="#FFF" d="M82.115 177.998l3.173-6.849c2.667-5.695 9.084-16.15 16.222-19.106l.144-.072c2.379-.865 26.46-3.677 41.168-3.677 8.22 0 11.32.793 12.906 1.442 7.426 2.884 20.331 15.068 22.062 22.278l1.442 5.912H82.115v.072z"/><path fill="#FFF" d="M169.428 177.998l-.866-3.677c-.793-3.389-10.959-13.554-16.222-15.646-.505-.216-2.596-.792-9.518-.792-14.131 0-34.607 2.523-37.924 3.172-2.739 1.37-7.714 7.21-10.958 14.132l-1.298 2.739H80.673l3.028-6.705c3.533-7.931 10.526-17.736 17.376-20.477 2.667-1.081 27.037-3.821 41.817-3.821 6.417 0 10.743.505 13.41 1.515 7.427 2.884 21.342 15.429 23.072 23.792l1.153 5.768h-11.101z"/><path fill="#FFF" d="M174.979 177.998l-1.37-1.297c-5.19-4.831-6.633-14.853-5.047-18.962 1.082-2.74 3.39-3.677 5.119-3.677.505 0 .938.071 1.37.216.938-.072 3.101-1.875 3.749-2.884 1.009-1.875 2.956-3.028 5.335-3.028 3.533 0 9.301 2.813 11.176 5.479 1.081 1.515 1.37 3.316.793 4.903-.072.144-.145.432-.288.792-1.947 5.84-4.471 12.979-6.489 16.295l-1.37 2.235-12.978-.072z"/><path fill="#FFF" d="M174.546 177.998l4.471-7.281c2.163-3.533 3.677-6.417 4.687-8.651-2.523 1.802-6.057 2.884-11.32 3.172l-.145-.145-.071.505c-3.101 0-5.624-2.523-5.768-5.624-.073-1.514.504-3.027 1.514-4.182 1.01-1.153 2.451-1.802 3.965-1.874 5.191-.216 5.841-1.442 6.777-3.244 1.298-2.452 4.11-3.894 7.787-3.894.937 0 1.874.072 2.739.288 4.542 1.009 7.499 4.471 7.715 8.94.216 4.542-2.308 11.175-7.354 19.684l-1.369 2.306h-13.628z"/><path fill="#FFF" d="M193.508 163.796c-5.84 0-12.185-3.822-15.429-7.57-2.956-3.389-3.244-6.417-2.956-8.364.36-2.379 2.307-4.758 5.84-4.758.648 0 1.298.071 1.874.144.577-2.596 1.947-8.003 7.499-8.003h.793c2.668.289 4.687 1.947 5.479 4.471.866-.433 1.875-.793 3.028-.793 1.731 0 3.39.721 4.615 2.019 1.946 2.09 2.379 4.975 1.153 7.715 1.298.792 2.307 2.019 2.739 3.604.577 2.019.217 4.182-1.081 5.911-2.523 3.533-8.363 5.191-12.979 5.336-.286.288-.431.288-.575.288M187.74 45.049c-5.264 3.316-11.031 10.887-18.097 21.269-1.082 1.658-2.884 2.523-4.902 2.523-2.597 0-5.913-1.586-9.733-4.686-6.057-4.903-6.201-7.643-6.273-8.724-.144-2.884 2.019-5.335 5.047-5.624 5.84-.504 10.671-4.037 15.357-7.426 4.687-3.389 9.013-6.489 14.203-6.489 1.01 0 2.091.145 3.101.361"/><path fill="#FFF8EE" d="M154.214 54.638c14.132-1.297 22.423-15.934 31.003-13.699-5.769 3.605-11.464 10.815-19.467 22.639-1.947 2.812-15.429-8.579-11.536-8.94"/><path fill="#FFF" d="M62.648 47.933c3.533-3.244 8.292-4.903 14.132-4.903 5.047 0 11.031 1.226 17.736 3.677 1.802.649 4.182.793 5.984.793h2.668c1.658 0 5.191 0 6.705 3.245.505 1.226 1.154 3.749-.792 6.705-2.379 3.677-8.652 7.57-14.708 7.57h-.288c-3.245-.072-6.272-1.802-9.806-3.749-4.398-2.452-9.373-5.263-15.285-5.263-.793 0-1.659.072-2.451.144m104.83 26.749c-2.595 0-7.497-1.082-10.598-8.436-1.73-3.893-2.308-8.291-2.308-10.743 0-5.047 2.668-6.417 4.326-6.777 1.153-1.154 3.316-4.11 4.902-6.345 6.561-8.94 11.32-14.78 16.872-14.78.937 0 1.802.144 2.667.504 7.427 2.957 11.031 9.229 9.806 17.16-.865 5.84-4.542 12.762-9.949 19.106-2.523 2.956-9.085 9.878-14.925 10.311h-.793"/><path fill="#FFF" d="M86.153 85.64c-.649 0-1.297 0-1.875-.144-9.229-1.514-20.764-10.815-25.09-20.404-2.956-6.561-1.658-11.031 0-13.626 2.668-4.254 6.633-6.489 11.536-6.489 5.913 0 11.824 3.245 17.016 6.057 2.019 1.081 4.902 2.667 6.128 2.956a4.178 4.178 0 0 1 1.37-.217c1.875 0 3.605 1.01 4.614 2.74 2.379 4.182.938 15.429-2.812 21.918-2.596 4.758-6.489 7.209-10.887 7.209z"/><path fill="#FFF" d="M118.309 166.103c-21.63 0-43.043-10.599-50.181-18.313-7.426-8.004-10.094-17.088-8.075-27.037 1.73-8.147 6.272-15.43 10.238-21.919 2.74-4.47 5.335-8.651 6.056-11.68 8.796-38.861 30.859-43.836 49.1-43.836 1.153 0 2.379 0 3.749.072 38.861 1.153 42.756 19.899 45.062 31.146.434 2.091.866 4.038 1.371 5.335 13.049 32.012 15.212 51.19 7.209 64.167-7.858 12.762-25.09 19.034-59.409 21.846-1.659.146-3.39.219-5.12.219z"/><path fill="#FFF" d="M117.516 166.175c-22.062 0-42.466-10.959-49.315-18.385-7.426-8.004-10.094-17.088-8.075-27.037 1.731-8.147 6.273-15.43 10.238-21.919 2.74-4.47 5.335-8.651 6.056-11.68 8.796-38.861 30.858-43.836 49.1-43.836 1.153 0 2.379 0 3.75.072 38.86 1.153 42.754 19.899 45.062 31.146.432 2.091.865 4.038 1.369 5.335 12.834 31.507 14.925 50.541 7.066 63.518-9.013 14.925-30.21 19.756-59.193 22.495-2.021.219-4.039.291-6.058.291"/><path fill="#FFF" d="M173.681 139.065c.289-.648.576-1.37.865-2.019 2.956-7.065 5.191-13.266 1.658-17.231-4.182-4.614-21.846-12.978-37.563-20.332-30.065-14.204-48.667-23.36-51.334-32.444-.649-2.307-.36-4.687.865-6.706 5.191-8.147 19.683-16.871 39.51-16.871h.577c18.674.145 32.228 5.552 40.375 15.934 6.922 8.796 8.436 19.106 9.589 26.604.36 2.523.865 5.768 1.37 6.633 14.131 24.297 7.643 42.25 2.523 50.685l-8.435-4.253z"/><path fill="#FFF" d="M158.9 111.091c-7.281 0-19.467-1.802-23.648-5.84-3.316-3.172-4.542-8.436-5.84-13.554-.505-2.163-1.37-5.624-2.163-7.21h-.072c-.288.793-.648 1.802-.937 2.596-1.947 5.479-4.687 13.049-10.382 17.159-2.452 1.803-11.32 3.39-18.169 3.39s-12.04-1.442-15.501-4.398c-4.975-4.182-8.724-11.896-11.248-22.927-.144-.072-.216-.145-.36-.217-1.153-.792-2.667-1.73-3.46-3.388-1.298-2.596-.793-7.21.576-9.661 1.01-1.803 2.74-2.956 4.615-3.101h.649c1.009 0 2.019.145 3.172.36 1.153.217 2.523.433 3.677.433h.648c6.85-1.01 13.266-1.442 19.106-1.442 14.204 0 21.702 2.884 24.513 4.038.216.072.433.144.577.216.793.216 2.308.505 3.894.505.577 0 1.153 0 1.658-.145a117.448 117.448 0 0 1 18.169-1.442c14.997 0 22.928 3.389 26.388 4.903.289.144.577.289.794.289h.288c.937 0 2.308-.289 3.461-.505.865-.216 1.73-.36 2.523-.504h.648c2.235 0 4.254 1.297 5.479 3.46 1.37 2.523 2.308 7.787.36 10.815-1.298 2.019-3.388 2.956-5.118 3.749a3.336 3.336 0 0 0-.722.361c-.576 1.009-1.586 3.028-2.451 4.687-2.523 4.902-5.335 10.525-7.931 13.554-2.305 2.593-6.631 3.819-13.193 3.819"/><defs><path id="a" d="M66.398 67.255h122.208v42.682H66.398z"/></defs><clipPath id="b"><use xlink:href="#a" overflow="visible"/></clipPath><g opacity=".3" clip-path="url(#b)"><path fill="#FFF" d="M156 109.924c-5.768 0-13.915-.866-19.755-4.976-3.316-2.379-4.83-7.138-6.921-14.78-.577-2.163-1.442-5.19-2.091-6.705-.36.865-.793 2.02-1.154 2.956-2.163 5.84-5.12 13.771-10.526 17.087-2.812 1.731-11.536 3.316-18.313 3.316-7.282 0-12.545-1.657-15.573-4.83-7.714-8.075-9.23-15.79-10.166-20.332-.145-.649-.29-1.514-.433-2.019-4.542-2.379-4.831-5.912-4.76-7.426.217-2.812 2.38-4.902 5.048-4.902 1.803 0 2.956.865 3.82 1.442.073.072.145.144.29.144.072 0 .288.072.36.145 1.153.36 4.542 1.297 5.263 5.696.145.793 1.297 5.407 3.172 10.238 2.956 7.714 5.047 9.012 5.263 9.084 2.45.865 5.335 1.298 8.58 1.298 5.335 0 9.806-1.153 11.608-1.73 1.082-1.658 3.245-5.984 4.758-8.94 4.542-9.013 5.336-10.383 7.282-11.392 1.082-.577 2.379-.865 4.038-.865 2.163 0 5.264.504 6.705 1.153 3.316 1.442 5.047 5.768 8.94 16.943.722 2.02 1.586 4.615 2.163 5.912 2.884 1.37 9.445 2.308 16.294 2.308a56.74 56.74 0 0 0 4.326-.145c.649-1.369 1.586-3.316 2.379-4.975 5.48-11.68 6.345-13.05 7.715-14.13 2.379-1.803 6.56-3.029 8.94-3.029 3.172 0 4.902 2.091 5.335 4.11.794 4.182-3.316 5.768-4.687 6.272-.36.144-.865.361-1.226.505-.504.865-1.442 2.74-2.163 4.253-5.911 11.536-7.86 14.708-10.094 16.08-2.737 1.513-9.37 2.234-14.417 2.234"/></g><defs><path id="c" d="M68.2 64.155h24.081v11.68H68.2z"/></defs><clipPath id="d"><use xlink:href="#c" overflow="visible"/></clipPath><g opacity=".3" clip-path="url(#d)"><path fill="#FFF" d="M80.016 75.774c-.865 0-2.523-.144-5.84-1.226a30.986 30.986 0 0 1-2.163-.793c-1.082-.433-3.894-1.514-3.894-4.83v-4.832h4.76c.648 0 1.081.144 1.441.216 1.01.145 4.254.361 5.335.433l.648.072c.866 0 3.533-.36 4.687-.505 1.442-.216 1.875-.288 2.451-.288h4.11l.65 4.038c.287 2.02-.794 4.542-3.46 5.335-.146.072-.65.217-1.083.361-2.523.938-5.047 1.802-7.21 1.875-.144.144-.288.144-.432.144"/></g><defs><path id="e" d="M166.255 70.355h18.313v12.401h-18.313z"/></defs><clipPath id="f"><use xlink:href="#e" overflow="visible"/></clipPath><g opacity=".3" clip-path="url(#f)"><path fill="#FFF" d="M175.26 82.691c-1.588 0-3.174-.648-5.337-2.163-2.09-1.442-3.677-2.884-3.677-5.408v-4.83h4.687c.65 0 1.298.144 1.946.433.505.216 2.451.865 3.316 1.082.288 0 .865-.145 2.02-.36.577-.145.937-.145 1.441-.145h4.11l.647 4.038c.29 1.946-.575 4.398-3.244 5.335-.144.072-.576.29-.864.433-1.299.65-2.813 1.37-4.326 1.658-.144-.073-.432-.073-.72-.073"/></g><path fill="#FFF" d="M159.55 188.597h-17.737V173.24h17.737v15.357z"/><path fill="#BA8449" d="M167.625 150.24a17.035 17.035 0 0 0-2.163-2.379l-.505-.505s-.072 0-.145-.071c-.36-.145-.865-.217-1.37-.289-2.091-.288-4.326-.36-6.561-.433-4.542-.071-9.084.072-13.627.289a428.995 428.995 0 0 0-27.253 2.163c-4.542.504-9.084 1.081-13.554 1.802-2.235.361-4.47.722-6.633 1.226a40.709 40.709 0 0 0-3.172.794c-.504.144-1.009.287-1.442.505-.216.071-.433.144-.504.287 0 0-.072 0-.072.073-.505.721-1.009 1.441-1.514 2.234s-.865 1.658-1.297 2.523a68.72 68.72 0 0 0-2.163 5.336c-.649 1.802-1.37 3.677-2.019 5.551-.36.938-.721 1.875-1.154 2.813-.144.432-.36.865-.577 1.297h6.128c3.317-7.426 9.589-15.934 14.78-18.024 1.442-.576 24.658-3.461 40.015-3.461 5.696 0 9.589.433 11.752 1.227 6.273 2.45 18.818 14.059 20.116 20.332h3.532c-.721-3.966-2.163-7.859-3.821-11.608-1.875-4.327-4.11-8.293-6.777-11.682m-2.74-3.027z"/><path fill="#895B2E" d="M164.885 147.213zm12.834 12.905c-1.947-4.326-4.183-8.436-7.139-12.185a28.056 28.056 0 0 0-2.379-2.74l-.648-.648-.145-.145-.072-.071-.145-.145c-.144-.072-.288-.145-.36-.216-.216-.145-.432-.217-.648-.289-.793-.289-1.37-.36-2.02-.505-2.45-.36-4.758-.433-7.065-.505-4.687-.071-9.229 0-13.843.217-9.229.36-18.385 1.082-27.542 2.019-4.542.505-9.156 1.01-13.771 1.73-2.307.36-4.542.721-6.849 1.226-1.153.289-2.307.505-3.461.865-.577.145-1.153.36-1.802.649-.289.144-.649.288-1.009.504-.145.145-.361.217-.577.36-.216.145-.432.36-.721.722-.648.793-1.297 1.73-1.874 2.596a34.766 34.766 0 0 0-1.659 2.739 80.67 80.67 0 0 0-2.812 5.552c-.793 1.874-1.586 3.749-2.235 5.695-.36.938-.649 1.875-.865 2.884-.145.505-.289.938-.433 1.442l-.217.721-.072.36c0 .073.144.145.433.361h4.254c.216-.433.36-.865.577-1.298.36-.938.793-1.874 1.154-2.74.721-1.874 1.37-3.677 2.019-5.552.649-1.802 1.37-3.677 2.163-5.334.433-.866.865-1.659 1.298-2.523.504-.794.937-1.515 1.514-2.236 0 0 .072 0 .072-.071.144-.072.36-.145.505-.289.433-.145.937-.36 1.442-.505a41.282 41.282 0 0 1 3.172-.793c2.163-.504 4.398-.865 6.633-1.226 4.47-.721 9.012-1.298 13.554-1.802a433.241 433.241 0 0 1 27.253-2.163c4.542-.217 9.085-.361 13.627-.288 2.234.071 4.542.144 6.561.432.505.072 1.01.217 1.37.289.072 0 .145 0 .145.072l.504.505c.794.792 1.442 1.586 2.163 2.379 2.668 3.389 4.903 7.354 6.777 11.392 1.658 3.749 3.101 7.643 3.821 11.607h3.604c-.36-2.235-.937-4.398-1.586-6.488a178.23 178.23 0 0 0-2.666-6.561"/><path fill="#FFF8EE" d="M154.069 154.278c-1.874-.721-5.695-1.154-11.175-1.154-15.429 0-38.212 2.885-39.438 3.39-4.687 1.875-10.526 9.806-13.771 16.727h83.563c-1.37-5.408-12.977-16.512-19.179-18.963"/><path fill="#E5D0AE" d="M154.574 152.908c-2.09-.793-6.056-1.226-11.752-1.226-15.356 0-38.573 2.884-40.015 3.461-5.263 2.163-11.463 10.599-14.78 18.024h1.586c3.245-6.849 9.084-14.779 13.771-16.727 1.226-.505 24.009-3.389 39.438-3.389 5.479 0 9.302.36 11.176 1.153 6.2 2.38 17.809 13.555 19.178 18.962h1.442c-1.225-6.198-13.77-17.806-20.044-20.258"/><path fill="#BA8449" d="M183.126 153.558c-.865 1.803-5.407 6.416-9.229 5.335-2.019-.577-1.658 10.094 2.957 14.348h8.363c2.307-3.677 5.912-14.925 6.344-16.078.504-1.371-7.571-5.408-8.435-3.605"/><path fill="#895B2E" d="M191.994 156.226c-.145-2.308-1.515-3.966-3.966-4.543-1.946-.433-4.542-.072-5.191 1.154-1.297 2.45-2.884 5.407-10.742 5.839-.505 0-.938.505-.938 1.01s.505.938 1.01.938c8.219-.36 10.599-3.533 12.328-6.777.36-.288 2.308-.648 3.894 0 1.153.505 1.658 1.298 1.73 2.523.217 4.47-4.47 12.762-6.993 16.943h2.234c2.813-4.904 6.85-12.474 6.634-17.087"/><defs><path id="g" d="M175.267 154.855h16.943v19.683h-16.943z"/></defs><clipPath id="h"><use xlink:href="#g" overflow="visible"/></clipPath><g opacity=".15" clip-path="url(#h)"><path fill="#E3AB5E" d="M175.797 173.456c5.119-1.226 9.661-6.344 10.021-13.626.072-1.37-2.739-3.965-2.739-4.687 0-.721 8.579.144 9.012 2.163.36 2.019-5.335 14.203-7.282 16.223-1.874 1.946-12.04.649-9.012-.073"/></g><path fill="#FCD4C3" d="M179.809 148.582c-.648 4.471 8.075 10.599 13.988 10.455 4.902-.145 10.454-2.451 9.66-5.191-.793-2.812-5.551.505-5.983-1.442-.361-1.874 5.552-5.407 3.172-8.003-2.235-2.379-4.83 3.75-7.426 2.885-2.596-.866.504-6.85-2.74-7.21-3.821-.36-2.379 8.146-5.263 8.291-2.019.215-5.192-1.226-5.408.215"/><path fill="none" stroke="#F8A38F" stroke-width="2" stroke-miterlimit="10" d="M179.809 148.582c-.648 4.471 8.075 10.599 13.988 10.455 4.902-.145 10.454-2.451 9.66-5.191-.793-2.812-5.551.505-5.983-1.442-.361-1.874 5.552-5.407 3.172-8.003-2.235-2.379-4.83 3.75-7.426 2.885-2.596-.866.504-6.85-2.74-7.21-3.821-.36-2.379 8.146-5.263 8.291-2.019.215-5.192-1.226-5.408.215z"/><defs><path id="i" d="M182.261 144.978h5.623v4.614h-5.623z"/></defs><clipPath id="j"><use xlink:href="#i" overflow="visible"/></clipPath><g opacity=".5" clip-path="url(#j)"><path fill="#FCD4C3" d="M182.288 148.541c.938.721 4.326 1.658 4.831.432.576-1.225 1.01-3.676.648-4.037-.288 1.153-.648 3.316-1.875 3.821-.936.36-2.955-.072-3.604-.216"/></g><defs><path id="k" d="M191.417 143.824h5.552v5.191h-5.552z"/></defs><clipPath id="l"><use xlink:href="#k" overflow="visible"/></clipPath><g opacity=".5" clip-path="url(#l)"><path fill="#FCD4C3" d="M191.604 143.782c-.144.793-.793 4.542 1.153 5.047 1.658.433 2.885-.577 4.182-2.668-.721.649-2.523 2.235-3.893 1.659-1.37-.649-1.515-2.091-1.442-4.038"/></g><defs><path id="m" d="M183.198 152.332h11.391v6.2h-11.391z"/></defs><clipPath id="n"><use xlink:href="#m" overflow="visible"/></clipPath><g opacity=".25" clip-path="url(#n)"><path fill="#FCD4C3" d="M183.253 153.888c9.805-4.831 11.824 3.027 11.318 4.614-3.892.648-10.742-3.389-11.318-4.614"/></g><defs><path id="o" d="M196.536 150.817h4.109v3.605h-4.109z"/></defs><clipPath id="p"><use xlink:href="#o" overflow="visible"/></clipPath><g opacity=".5" clip-path="url(#p)"><path fill="#FCD4C3" d="M197.511 150.815c-1.659 1.875-.866 3.389.215 3.604 1.37.288 3.173-1.153 2.885-1.153-.361 0-3.028.865-3.533-.433-.361-1.01.216-1.585.433-2.018"/></g><defs><path id="q" d="M83.413 144.833h92.936v26.316H83.413z"/></defs><clipPath id="r"><use xlink:href="#q" overflow="visible"/></clipPath><g opacity=".15" clip-path="url(#r)"><path fill="#E3AB5E" d="M85.529 163.338c31.507 18.098 94.016-.288 90.7-6.2-4.397-7.859-6.128-12.762-15.79-12.328-9.589.504-71.305 5.407-73.828 7.281-2.452 1.947-5.192 8.868-1.082 11.247"/></g><path fill="#FFF8EE" d="M154.214 54.638c14.132-1.297 22.423-15.934 31.003-13.699-5.769 3.605-11.464 10.815-19.467 22.639-1.947 2.812-15.429-8.579-11.536-8.94"/><path fill="none" stroke="#E5D0AE" stroke-width="3" stroke-linecap="round" stroke-linejoin="round" stroke-miterlimit="10" d="M154.214 54.638c14.132-1.297 22.423-15.934 31.003-13.699-5.769 3.605-11.464 10.815-19.467 22.639-1.947 2.812-15.429-8.579-11.536-8.94z"/><path fill="#BA8449" d="M65.893 51.466c6.345-5.913 17.809-3.605 27.037-.289 5.263 1.875 12.113.36 12.545 1.442 1.153 2.523-5.696 7.714-11.32 7.57-5.551-.071-14.851-10.526-28.262-8.723"/><path fill="none" stroke="#895B2E" stroke-width="2" stroke-linecap="round" stroke-linejoin="round" stroke-miterlimit="10" d="M65.893 51.466c6.345-5.913 17.809-3.605 27.037-.289 5.263 1.875 12.113.36 12.545 1.442 1.153 2.523-5.696 7.714-11.32 7.57-5.551-.071-14.851-10.526-28.262-8.723z"/><path fill="#FCD4C3" d="M163.876 61.632c3.244.937 15.572-23.216 21.557-20.837 19.034 7.57-5.768 36.698-13.626 37.347-7.931.577-9.734-17.087-7.931-16.51"/><path fill="none" stroke="#F8A38F" stroke-width="2" stroke-miterlimit="10" d="M163.876 61.632c3.244.937 15.572-23.216 21.557-20.837 19.034 7.57-5.768 36.698-13.626 37.347-7.931.577-9.734-17.087-7.931-16.51z"/><path fill="#FCD4C3" d="M95.093 58.748c-5.263 2.307-23.937-17.232-31.795-4.687-5.191 8.292 10.526 25.018 21.773 26.821 11.248 1.802 12.762-23.36 10.022-22.134"/><path fill="none" stroke="#F8A38F" stroke-width="2" stroke-miterlimit="10" d="M95.093 58.748c-5.263 2.307-23.937-17.232-31.795-4.687-5.191 8.292 10.526 25.018 21.773 26.821 11.248 1.802 12.762-23.36 10.022-22.134z"/><defs><path id="s" d="M165.895 45.481h12.978v32.156h-12.978z"/></defs><clipPath id="t"><use xlink:href="#s" overflow="visible"/></clipPath><g clip-path="url(#t)"><path fill="#FCD4C3" d="M178.56 45.481c-1.009 3.317-9.517 11.896-8.363 19.25.433 2.74 3.316 10.815 4.543 10.527 1.225-.289 4.325-2.235 4.037-1.803-.289.433-4.326 3.39-5.84 4.182-1.515-.793-7.931-15.717-6.994-16.51 2.811-2.523 11.391-15.501 12.617-15.645"/></g><defs><path id="u" d="M63.586 50.312h31.868v22.783H63.586z"/></defs><clipPath id="v"><use xlink:href="#u" overflow="visible"/></clipPath><g clip-path="url(#v)"><path fill="#FCD4C3" d="M63.538 54.565c5.768-3.533 16.294-2.019 22.422 3.966 2.163 2.163 2.812 9.373-2.091 14.275-1.947 1.947 11.536-6.92 11.608-9.517 0-2.596-.865-3.316-2.884-4.038-7.426-2.74-15.213-9.084-21.99-8.94-4.397.074-6.416 3.101-7.065 4.255"/></g><defs><path id="w" d="M166.326 43.607h18.891v31.867h-18.891z"/></defs><clipPath id="x"><use xlink:href="#w" overflow="visible"/></clipPath><g opacity=".25" clip-path="url(#x)"><path fill="#FCD4C3" d="M180.891 43.589c13.122 7.209-8.003 18.169-6.416 31.795-2.741-.289-9.518-13.482-7.859-14.636 2.307-1.586 12.039-17.736 14.275-17.159"/></g><path fill="#E5D0AE" d="M79.664 87.875c.216-.938.36-1.947.36-2.884.072-1.009.145-2.019.36-2.957a4.801 4.801 0 0 1 .433-1.442c.216-.433.36-.937.504-1.37.361-.938.721-1.875 1.153-2.74 1.659-3.677 3.533-7.138 5.84-10.382s4.831-6.272 7.715-8.868c2.884-2.667 6.272-4.831 9.877-6.272 3.605-1.514 7.499-2.452 11.392-2.884 3.893-.504 7.786-.577 11.68-.504 3.894.072 7.786.289 11.68.793 3.894.505 7.787 1.37 11.536 2.74 1.874.721 3.677 1.514 5.407 2.523s3.389 2.235 4.902 3.677c1.515 1.37 2.813 3.028 3.895 4.758 1.081 1.73 1.874 3.605 2.595 5.552.649 1.875 1.154 3.821 1.586 5.768.433 1.947.722 3.821 1.153 5.624.218.865.505 1.73.794 2.595.36.866.721 1.803 1.009 2.74.649 1.802 1.37 3.677 2.02 5.479 2.523 7.354 4.758 14.853 6.128 22.495.648 3.821 1.153 7.715 1.226 11.608s-.288 7.787-1.369 11.535c-.289.938-.577 1.875-.938 2.74s-.865 1.73-1.154 2.667c-.144.505-.288.938-.505 1.371-.216.432-.504.865-.792 1.297a18.712 18.712 0 0 1-1.803 2.38c-2.523 3.028-5.769 5.479-9.229 7.354-3.461 1.875-7.21 3.317-10.959 4.398a125.503 125.503 0 0 1-11.464 2.667c-3.894.722-7.715 1.227-11.536 1.731l-5.84.648-2.884.288c-.938.072-1.947.145-2.956.217-7.931.433-15.862-.722-23.432-2.812-3.821-1.082-7.499-2.38-11.103-3.966-3.605-1.586-7.138-3.389-10.455-5.552-1.658-1.081-3.316-2.308-4.831-3.677-.361-.36-.793-.721-1.153-1.081-.361-.361-.649-.794-1.01-1.154-.649-.793-1.298-1.587-1.875-2.379-2.235-3.316-4.038-7.21-4.614-11.247-.649-4.11-.072-8.292 1.082-12.113 1.153-3.894 2.956-7.426 4.831-10.887 1.947-3.389 4.038-6.705 6.056-9.949a86.876 86.876 0 0 0 2.812-4.976c.795-2.16 1.516-3.818 1.876-5.549zm2.884.649c-.504 2.019-1.37 3.893-2.307 5.695-.938 1.803-1.947 3.461-2.957 5.119-2.019 3.316-4.109 6.561-5.912 9.878-1.802 3.316-3.46 6.776-4.47 10.31-1.01 3.533-1.442 7.21-.865 10.815.577 3.533 2.091 6.921 4.253 9.877.505.722 1.154 1.442 1.73 2.163.289.36.649.722.938 1.009.288.361.649.649.937.938 1.298 1.225 2.812 2.307 4.398 3.388 3.172 2.02 6.489 3.822 10.022 5.336a79.023 79.023 0 0 0 10.743 3.821c3.677 1.01 7.354 1.802 11.104 2.307 3.749.505 7.498.649 11.247.505l2.812-.216 2.884-.289c1.875-.144 3.821-.36 5.768-.576 3.821-.36 7.643-.865 11.392-1.515 3.821-.648 7.498-1.369 11.175-2.379 3.677-1.009 7.282-2.163 10.743-3.677 3.389-1.587 6.705-3.533 9.373-6.201a25.533 25.533 0 0 0 1.874-2.091c.289-.36.577-.793.865-1.153s.648-.722.938-1.153c.649-.793.938-1.658 1.37-2.523.36-.865.648-1.803.864-2.74.938-3.749 1.154-7.643.938-11.464-.289-3.82-.938-7.642-1.875-11.392-1.803-7.498-4.471-14.708-7.282-21.845-.721-1.803-1.441-3.605-2.163-5.335l-1.153-2.667a45.39 45.39 0 0 1-1.009-2.884c-.505-1.947-.866-3.821-1.298-5.696-.36-1.875-.865-3.677-1.442-5.407-1.226-3.533-3.028-6.706-5.696-9.229-2.595-2.523-5.839-4.47-9.301-5.912-3.46-1.442-7.21-2.379-10.958-3.028-3.75-.649-7.57-1.009-11.393-1.226-3.821-.144-7.714-.216-11.535.217-3.822.433-7.57 1.226-11.104 2.74a30.796 30.796 0 0 0-9.517 6.128c-2.812 2.595-5.047 5.768-6.705 9.084-1.73 3.389-2.956 6.994-4.038 10.599-.288.865-.504 1.802-.721 2.739-.145.433-.217.938-.36 1.37-.072.216-.072.505-.145.721-.072.217-.144.433-.289.649-.36.865-.793 1.73-1.226 2.596-.142.792-.43 1.657-.647 2.594z"/><path fill="#FFF8EE" d="M81.106 88.236c-3.028 13.411-29.488 34.607-9.373 56.309 6.849 7.354 29.056 18.674 51.334 16.583 57.968-5.48 72.604-19.467 48.162-79.453-3.965-9.733.504-32.228-42.105-33.526-17.88-.505-39.366 1.947-48.018 40.087"/><path fill="#E5BFA1" d="M91.127 61.992c1.875-2.884 4.326-5.264 7.066-7.21 2.74-1.947 5.84-3.389 8.94-4.542 6.344-2.307 12.978-3.172 19.611-3.388 6.633-.145 13.338.36 19.828 2.019 3.244.865 6.416 2.019 9.444 3.677s5.84 3.677 8.22 6.201a33.956 33.956 0 0 1 5.84 8.436c1.514 3.1 2.596 6.345 3.389 9.589.792 3.316 1.297 6.561 1.73 9.805.216 1.658.433 3.244.793 4.758.144.793.36 1.514.576 2.091l.216.433.073.072.071.072.145.288.649 1.082c3.172 5.84 5.551 12.257 6.416 18.962a42.88 42.88 0 0 1 .145 10.094 35.239 35.239 0 0 1-2.523 9.733 44.294 44.294 0 0 1-2.234 4.542l-.649 1.081c-.217.36-.433.649-.721 1.081-.072.073-.072.145-.145.218-.217-.145.288.504-1.153 0-.36-.649-.145-.505-.217-.649 0-.217.072-.289.072-.433l.216-.649.36-1.153c1.01-3.101 1.875-6.2 2.236-9.445.144-1.586.216-3.172 0-4.83-.217-1.586-.649-3.101-1.442-4.398a4.698 4.698 0 0 0-.721-.937c-.289-.289-.505-.577-.794-.865a18.701 18.701 0 0 0-1.803-1.587c-1.297-1.009-2.667-1.802-4.109-2.523-2.956-1.298-6.2-1.802-9.373-1.658-3.244.145-6.416.793-9.517 1.658-1.586.434-3.101.938-4.687 1.442-.793.288-1.586.505-2.379.721-.433.145-.793.216-1.298.289-.433.071-.793.145-1.226.145-3.316.36-6.562.576-9.95.504a52.065 52.065 0 0 1-9.949-1.153 49.219 49.219 0 0 1-9.517-3.173c-3.028-1.442-5.912-3.172-8.508-5.335a44.097 44.097 0 0 1-6.921-7.282c-4.038-5.407-6.705-11.68-8.003-18.241-.649-3.316-.937-6.633-.793-10.022.072-1.658.289-3.388.649-5.047.434-1.3 1.01-2.959 1.947-4.473zm1.443.937c-.793 1.298-1.298 2.74-1.658 4.326-.361 1.514-.505 3.1-.649 4.686-.145 3.172.216 6.417.865 9.518 1.37 6.272 4.038 12.257 7.931 17.304a42.652 42.652 0 0 0 6.633 6.849 39.127 39.127 0 0 0 8.075 5.119c2.884 1.37 5.912 2.379 9.084 3.101 3.101.721 6.344 1.153 9.517 1.226 3.244.145 6.417 0 9.661-.36l1.226-.145c.36-.072.721-.144 1.154-.216.792-.217 1.514-.433 2.307-.648 1.586-.434 3.172-.938 4.759-1.299 3.173-.793 6.488-1.369 9.877-1.369 3.316 0 6.705.576 9.733 2.019a23.13 23.13 0 0 1 4.254 2.595 20.576 20.576 0 0 1 1.875 1.659l.865.864c.288.289.576.649.793 1.01.937 1.442 1.441 3.101 1.658 4.831.216 1.729.216 3.389.072 5.047-.289 3.316-1.01 6.561-1.947 9.733l-.36 1.153-.144.576c0 .073-.072.217 0 .217-.072-.072.144.144-.145-.505-1.37-.504-.865.145-1.009-.072.144-.288.36-.648.576-1.009s.36-.721.577-1.081a47.82 47.82 0 0 0 1.946-4.398c2.163-5.984 2.596-12.545 1.514-18.818-.505-3.172-1.441-6.2-2.595-9.156a67.534 67.534 0 0 0-4.11-8.651l-.576-1.01-.145-.288-.072-.145-.072-.144c-.145-.217-.216-.434-.288-.649-.36-.865-.577-1.802-.793-2.596a64.316 64.316 0 0 1-.865-4.903c-.505-3.244-.938-6.417-1.73-9.517-.721-3.101-1.73-6.128-3.1-8.94-1.37-2.812-3.028-5.407-5.191-7.714-4.182-4.542-9.949-7.57-16.078-9.373-6.128-1.802-12.617-2.379-19.106-2.379-6.417 0-12.906.792-18.962 2.812-3.028 1.009-5.912 2.379-8.58 4.182-2.74 1.728-5.047 3.89-6.777 6.558z"/><path fill="#895B2E" d="M90.263 61.632c1.082-1.731 2.379-3.101 3.677-4.398 1.37-1.298 2.812-2.379 4.326-3.389 3.028-2.019 6.272-3.605 9.661-4.831 6.777-2.379 13.915-3.316 20.98-3.172 6.994.216 14.06 1.082 20.837 3.533 3.389 1.225 6.633 2.812 9.589 4.975 2.956 2.091 5.552 4.687 7.715 7.643 2.091 2.956 3.677 6.2 4.903 9.589 1.152 3.389 1.945 6.85 2.523 10.238.287 1.73.504 3.388.792 5.119.289 1.659.505 3.389.793 4.903.145.793.36 1.515.649 2.091l.071.145.073.144.145.289.287.576.649 1.154a93.965 93.965 0 0 1 2.308 4.687c1.369 3.172 2.523 6.561 3.316 10.021.793 3.39 1.153 6.922 1.153 10.455-.072 7.065-2.019 14.059-5.695 20.044-.289.432-.865.648-1.298.36-.434-.289-.577-.794-.434-1.154 1.01-2.595 2.092-5.047 2.885-7.57.865-2.523 1.441-5.118 1.441-7.642s-.648-4.976-2.163-6.923c-.071-.144-.216-.287-.288-.36l-.144-.144-.145-.217-.649-.648a11.86 11.86 0 0 0-1.442-1.226c-1.009-.793-2.162-1.514-3.244-2.234-4.542-2.813-9.373-5.265-14.275-7.715-4.902-2.38-9.878-4.687-14.78-6.922-9.949-4.542-19.899-9.084-29.704-13.987-4.903-2.523-9.733-5.047-14.492-8.075-2.523-1.802-4.831-3.389-7.065-5.407-1.082-1.009-2.163-2.163-3.028-3.749-.433-.793-.793-1.73-.865-2.884 0-.577 0-1.153.145-1.73.072-.289.144-.577.288-.865.072-.216.288-.649.36-.721h.145zm4.037 2.451c-.145.216-.072.144-.145.216 0 .072 0 .072-.072.145v.289c0 .216.144.577.288 1.009.433.865 1.226 1.802 2.091 2.595 1.802 1.73 3.893 3.317 6.128 4.759 4.397 2.956 9.156 5.551 13.987 8.147 9.589 5.047 19.466 9.733 29.272 14.492 4.902 2.379 9.806 4.83 14.708 7.281 4.903 2.523 9.733 5.047 14.42 8.147 1.153.793 2.307 1.586 3.389 2.524.576.432 1.081.937 1.658 1.441.288.288.505.504.793.864l.145.218.217.216c.144.145.216.288.36.433a13.94 13.94 0 0 1 1.946 4.037c.433 1.442.504 2.956.504 4.398-.071 2.884-.864 5.695-1.802 8.363-.938 2.667-2.091 5.119-3.172 7.643l-1.731-.865c3.39-5.769 4.976-12.401 4.903-19.034-.144-6.633-1.875-13.194-4.687-19.25-.722-1.515-1.442-3.028-2.307-4.471l-1.299-2.307c-.504-.938-.721-1.875-.937-2.74-.433-1.803-.722-3.461-1.009-5.191-.289-1.73-.578-3.389-.866-4.975-.648-3.317-1.441-6.489-2.596-9.589-1.153-3.028-2.667-5.984-4.542-8.508-1.874-2.596-4.253-4.831-6.85-6.633-2.668-1.802-5.552-3.244-8.651-4.253-6.2-2.091-12.834-2.812-19.467-2.884-3.316 0-6.561.145-9.805.721a51.821 51.821 0 0 0-9.445 2.379c-3.028 1.082-5.984 2.451-8.652 4.182-1.37.865-2.596 1.802-3.75 2.884s-2.231 2.163-3.024 3.317z"/><path fill="#BA8449" d="M91.849 62.424c-7.931 12.257 1.514 59.337 51.334 52.993 5.264-.648 22.783-10.021 34.607 3.1 6.417 7.21-2.234 25.452 0 21.63 2.523-4.182 12.186-20.331-2.307-45.205-4.614-8.003 3.028-46.432-46.864-46.937-19.106-.072-31.507 6.272-36.77 14.419"/><defs><path id="y" d="M80.241 59.757h84.571v80.679H80.241z"/></defs><clipPath id="z"><use xlink:href="#y" overflow="visible"/></clipPath><g opacity=".15" clip-path="url(#z)"><path fill="#E3AB5E" d="M90.528 65.404c14.348-9.229 57.751-8.58 71.594 13.555 9.229 14.708-7.643 51.046-13.915 55.66-6.2 4.614-14.853 8.652-37.636 3.172-19.323-4.613 9.733-22.566-12.905-25.161-20.693-2.38-22.784-37.132-7.138-47.226"/></g><defs><path id="A" d="M121.193 99.123h9.445v3.965h-9.445z"/></defs><clipPath id="B"><use xlink:href="#A" overflow="visible"/></clipPath><g opacity=".25" clip-path="url(#B)"><path fill="#E3AB5E" d="M130.638 101.117c0 1.081-2.091 2.019-4.686 2.019-2.596 0-4.687-.865-4.687-2.019 0-1.082 2.091-2.019 4.687-2.019 2.595.073 4.686.937 4.686 2.019"/></g><path fill="#F8A38F" d="M122.347 95.229c1.082-.721 6.849-.505 7.57.288.721.722 2.307 3.749.505 5.047-.648.433-.648-1.37-2.091-1.081-1.73.36-.793 2.596-2.163 2.596-2.091-.072-.072-2.452-1.875-2.74-1.37-.288-1.658 1.082-2.307.938-2.09-.433-1.153-4.038.361-5.048"/><defs><path id="C" d="M120.76 94.797h10.455v7.138H120.76z"/></defs><clipPath id="D"><use xlink:href="#C" overflow="visible"/></clipPath><g clip-path="url(#D)"><path fill="#F8A38F" d="M125.462 94.8c-1.37 0-2.668.145-3.101.433-1.514 1.01-2.451 4.614-.433 4.975H122c.505 0 .793-1.01 1.875-1.01h.36c1.803.29-.144 2.74 1.875 2.74 1.297 0 .36-2.163 2.163-2.523h.288c1.01 0 1.153 1.153 1.587 1.153.07 0 .145 0 .216-.07 1.874-1.3.289-4.327-.505-5.049-.36-.36-2.451-.649-4.397-.649m0 .505c2.163 0 3.82.288 4.109.505.433.432 1.298 2.02 1.153 3.172-.071.433-.216.793-.505 1.01 0-.072-.071-.072-.144-.145-.288-.36-.722-.938-1.515-.938-.144 0-.288 0-.36.072-1.226.288-1.442 1.226-1.658 1.875-.145.648-.217.648-.433.648-.577 0-.577-.145-.577-.793 0-.649 0-1.658-1.298-1.875h-.433c-.793 0-1.297.505-1.658.793-.072.072-.216.217-.288.217-.29-.072-.577-.217-.721-.793-.216-1.01.505-2.74 1.298-3.316.435-.288 1.444-.432 3.03-.432"/></g><defs><path id="E" d="M89.181 103.232h81.399v46.215H89.181z"/></defs><clipPath id="F"><use xlink:href="#E" overflow="visible"/></clipPath><g opacity=".25" clip-path="url(#F)"><path fill="#F7E8D0" d="M170.436 114.156c2.163 13.842-15.141 31.218-38.43 34.822-23.287 3.533-40.447-17.23-42.61-31.146-2.162-13.844 12.114-8.58 35.4-12.113 23.289-3.532 43.477-5.407 45.64 8.437"/></g><defs><path id="G" d="M93.435 103.954h67.484V138.2H93.435z"/></defs><clipPath id="H"><use xlink:href="#G" overflow="visible"/></clipPath><g opacity=".5" clip-path="url(#H)"><path fill="#D8CAB2" d="M109.668 135.228c-.648-1.01-1.01-2.235-1.37-3.39s-.721-2.306-1.082-3.46c-.721-2.308-1.514-4.614-2.596-6.777-1.082-2.162-2.451-4.182-4.181-5.695a12.902 12.902 0 0 0-6.057-2.956c-.793-.29-1.153-1.082-.865-1.803.289-.721 1.009-1.081 1.658-.938 5.19 1.226 10.599 1.803 15.934 1.875a123.49 123.49 0 0 0 16.222-.865 148.557 148.557 0 0 0 16.006-2.813c5.263-1.225 10.526-2.667 15.645-4.397.794-.29 1.587.145 1.803.865.217.576 0 1.153-.433 1.514-.144.145-.432.36-.648.577-.216.217-.433.504-.648.72-.434.506-.865 1.082-1.298 1.659a37.784 37.784 0 0 0-2.38 3.533c-1.586 2.379-3.027 4.83-4.397 7.354s-2.74 5.047-3.966 7.57a46.009 46.009 0 0 0-1.73 3.894c-.288.649-.504 1.298-.793 2.02a5.37 5.37 0 0 0-.29 1.009v.145c0 .073 0 .072-.07.144 0 .072-.072.145-.144.145a.997.997 0 0 1-.29.216c-.144.145-.36.217-.504.289-1.37.577-2.812.864-4.182 1.153s-2.812.505-4.254.649c-2.884.36-5.695.648-8.58.72-2.883.145-5.767.145-8.58-.144-1.441-.145-2.883-.36-4.253-.721-.721-.216-1.37-.433-2.02-.794a4.174 4.174 0 0 1-1.657-1.298m.072-.072c.36.577 1.009 1.009 1.659 1.298.649.289 1.297.505 2.019.72 1.37.36 2.812.578 4.254.65 2.884.216 5.695.216 8.58.07 2.884-.143 5.695-.503 8.507-.864 1.37-.216 2.813-.432 4.183-.792 1.369-.361 2.812-.65 4.037-1.227a1.49 1.49 0 0 0 .433-.288c.144-.072.217-.144.217-.217.07-.36.144-.721.288-1.081.216-.721.433-1.37.648-2.091a92.365 92.365 0 0 1 1.587-4.038 258.756 258.756 0 0 1 3.532-7.857 154.213 154.213 0 0 1 3.893-7.715c.649-1.298 1.37-2.523 2.163-3.821a16.58 16.58 0 0 1 1.227-1.875c.216-.288.433-.648.648-.938.288-.288.505-.648.865-.937l1.37 2.45c-5.264 1.803-10.526 3.245-15.934 4.47-5.408 1.227-10.815 2.236-16.295 2.885-5.48.649-11.031 1.01-16.583.865-5.551-.145-11.103-.793-16.583-2.091l.793-2.884c2.379 1.44 4.542 2.812 6.2 4.759 1.659 1.946 2.813 4.182 3.75 6.488a65.046 65.046 0 0 1 2.163 6.994c.288 1.153.649 2.379.937 3.532.433 1.372.793 2.525 1.442 3.535"/></g><defs><path id="I" d="M94.156 104.675h66.042V138.2H94.156z"/></defs><clipPath id="J"><use xlink:href="#I" overflow="visible"/></clipPath><g opacity=".5" clip-path="url(#J)"><path fill="#D8CAB2" d="M109.68 135.235c-.648-1.009-1.009-2.163-1.37-3.316s-.649-2.307-1.009-3.46c-.72-2.308-1.442-4.615-2.523-6.85-1.009-2.163-2.379-4.183-4.038-5.768-1.73-1.659-3.82-2.813-6.056-3.317v-.07c-.36-.146-.577-.578-.433-.939s.505-.577.865-.505c5.263 1.226 10.67 1.803 16.15 1.874a122.58 122.58 0 0 0 16.294-.865c5.407-.648 10.743-1.658 16.08-2.812 5.334-1.226 10.597-2.668 15.716-4.398.36-.144.793.073.938.434a.817.817 0 0 1-.216.793c-.434.36-.938.937-1.37 1.441-.433.505-.866 1.154-1.298 1.658a62.073 62.073 0 0 0-2.308 3.604c-1.514 2.38-2.956 4.903-4.326 7.427-1.369 2.523-2.668 5.048-3.82 7.643l-1.73 3.894c-.289.648-.505 1.298-.722 2.02-.144.36-.216.647-.288 1.008-.072.29-.288.361-.433.505-.144.145-.36.217-.505.29-1.37.575-2.812.864-4.182 1.152-1.37.29-2.812.505-4.254.721-2.812.36-5.695.65-8.58.794-2.884.144-5.768.144-8.58-.145-1.442-.145-2.884-.36-4.254-.72-.72-.218-1.37-.435-2.019-.723-.719-.36-1.368-.793-1.729-1.37m0-.07c.361.575 1.01 1.008 1.66 1.368.648.29 1.297.505 2.018.721a20.8 20.8 0 0 0 4.254.65c2.884.288 5.696.215 8.58.071a86.54 86.54 0 0 0 8.58-.865c1.37-.217 2.812-.433 4.253-.793 1.37-.288 2.813-.648 4.037-1.226.145-.072.29-.145.434-.288.145-.073.288-.217.288-.289.072-.36.145-.72.288-1.08.217-.723.433-1.37.722-2.02.504-1.37 1.081-2.668 1.658-3.966 1.153-2.668 2.38-5.19 3.677-7.786 1.298-2.597 2.596-5.12 4.037-7.644.722-1.298 1.442-2.523 2.235-3.677.36-.649.793-1.226 1.226-1.803.433-.576.865-1.152 1.515-1.73l.721 1.3c-5.19 1.802-10.526 3.243-15.86 4.47-5.337 1.225-10.744 2.161-16.224 2.883-5.479.65-10.959 1.01-16.51.865-5.48-.145-11.032-.72-16.439-1.947l.361-1.369c2.38.938 4.542 2.38 6.2 4.254 1.658 1.874 2.884 4.037 3.821 6.272.937 2.235 1.658 4.542 2.307 6.922.29 1.153.65 2.307 1.01 3.532.141 1.011.502 2.164 1.151 3.174"/></g><path fill="#333" d="M109.729 135.172c3.677 5.769 33.742 1.803 34.246-.505 1.299-5.839 12.113-26.46 15.574-29.344-6.201 2.163-38.429 12.473-64.601 6.201 11.753 3.965 11.897 19.178 14.781 23.648"/><defs><path id="K" d="M94.877 105.396h64.601v32.732H94.877z"/></defs><clipPath id="L"><use xlink:href="#K" overflow="visible"/></clipPath><g clip-path="url(#L)"><path fill="#333" d="M159.441 105.432c-4.831 1.658-25.162 8.219-46.215 8.219-6.201 0-12.401-.576-18.385-1.946 11.824 3.821 11.968 19.106 14.852 23.576 1.37 2.163 6.633 2.956 12.618 2.956 9.661 0 21.269-2.019 21.629-3.461 1.297-5.913 12.04-26.533 15.501-29.344m-4.037 2.811c-4.687 7.066-11.465 20.692-12.834 25.812-1.803 1.009-11.104 2.74-20.26 2.74-7.354 0-10.671-1.227-11.392-2.308-.721-1.082-1.298-3.101-1.875-5.407-1.226-4.398-2.957-10.455-7.066-14.636 3.605.432 7.354.648 11.32.648 17.16-.071 33.96-4.398 42.107-6.849"/></g><path fill="#FCD4C3" d="M122.058 138.2c-6.2 0-10.238-.865-11.824-2.596-.144-.145-.144-1.009.577-2.668 1.73-3.965 7.066-10.742 16.294-11.318.649 0 1.226-.073 1.802-.073 10.815 0 17.304 5.48 17.304 6.418-.144.287-.288.721-.505 1.297a97.391 97.391 0 0 0-2.234 5.84c-.938.938-11.753 3.1-21.414 3.1"/><path fill="#F8A38F" d="M128.907 121.185c-.649 0-1.226 0-1.874.073-12.618.792-18.458 13.266-17.16 14.78 1.875 2.019 6.706 2.739 12.185 2.739 9.734 0 21.486-2.235 21.846-3.317 1.081-3.244 2.307-5.911 2.812-7.21.432-1.297-6.849-7.137-17.809-7.065m0 .937c9.661 0 16.15 4.614 16.799 5.984a8.304 8.304 0 0 0-.432 1.082c-.577 1.369-1.442 3.388-2.235 5.695-1.514.865-11.608 2.812-20.981 2.812-5.84 0-9.877-.865-11.392-2.379-.072-.505.433-2.523 2.235-5.047 1.586-2.307 6.201-7.715 14.204-8.147h1.802"/><defs><path id="M" d="M110.09 120.896h36.193v14.924H110.09z"/></defs><clipPath id="N"><use xlink:href="#M" overflow="visible"/></clipPath><g clip-path="url(#N)"><path fill="#FCD4C3" d="M110.078 135.256c-.865 3.894 23-15.212 35.833-6.056 2.668-3.532-11.535-9.518-19.827-8.147-6.994 1.225-14.203 5.696-16.006 14.203"/></g><path fill="#FFF7E3" d="M114.92 114.696c1.226 2.163 3.461 12.689 4.398 12.905.938.217 6.849 1.875 7.643 1.514.865-.36.793-2.379 1.658-1.802.721.505 1.081 1.441 1.803 1.081 1.297-.648 5.119-3.028 5.768-4.037.576-1.081.505-7.065 0-11.824-2.452 1.155-16.944 2.668-21.27 2.163"/><defs><path id="O" d="M114.92 112.605h21.702v16.727H114.92z"/></defs><clipPath id="P"><use xlink:href="#O" overflow="visible"/></clipPath><g clip-path="url(#P)"><path fill="#FFDC99" d="M136.226 112.569c-2.163.938-13.482 2.235-19.178 2.235-.865 0-1.514 0-2.091-.073 1.226 2.163 3.46 12.69 4.398 12.906.865.216 5.768 1.587 7.282 1.587.145 0 .289 0 .36-.073.721-.288.793-1.874 1.37-1.874.072 0 .216 0 .289.145.648.36.938 1.153 1.514 1.153.072 0 .217 0 .288-.072 1.299-.649 5.12-3.028 5.769-4.038.647-1.081.503-7.066-.001-11.896m-.362.649c.434 4.903.434 10.094 0 10.96-.504.865-3.965 3.1-5.551 3.893h-.072c-.145 0-.36-.217-.505-.433-.216-.216-.433-.433-.721-.649-.217-.144-.36-.216-.577-.216-.648 0-.865.649-1.081 1.154-.144.288-.289.721-.505.793h-.216c-1.226 0-4.902-1.01-6.417-1.37-.289-.072-.505-.145-.649-.145-.433-.504-1.37-3.894-2.091-6.345-.649-2.235-1.226-4.326-1.73-5.551h1.37c5.408.001 15.501-1.154 18.745-2.091"/></g><defs><path id="Q" d="M114.992 112.316h21.413v7.427h-21.413z"/></defs><clipPath id="R"><use xlink:href="#Q" overflow="visible"/></clipPath><g clip-path="url(#R)"><path fill="#EADCBE" d="M116.615 119.778c-.36-3.893 17.592-5.19 19.827-4.829 0-.938-.144-1.515-.144-2.597-2.956 1.515-19.106 3.101-21.27 2.452.218.432 1.011 2.595 1.587 4.974"/></g><defs><path id="S" d="M125.158 116.859h3.966v10.599h-3.966z"/></defs><clipPath id="T"><use xlink:href="#S" overflow="visible"/></clipPath><g clip-path="url(#T)"><path fill="#FFDC99" d="M125.561 116.836c.361.866.721 1.658 1.009 2.523l.866 2.596.792 2.596.793 2.596-1.226.36-.577-2.668-.649-2.668-.648-2.595c-.289-.865-.505-1.73-.793-2.523l.433-.217z"/></g><defs><path id="U" d="M63.947 50.312h28.407v25.739H63.947z"/></defs><clipPath id="V"><use xlink:href="#U" overflow="visible"/></clipPath><g opacity=".4" clip-path="url(#V)"><path fill="#FCD4C3" d="M64.872 55.803c9.517 2.451 8.003 18.89 13.627 20.188 5.696 1.297 13.122-13.555 13.843-16.799-10.959-4.687-16.078-10.166-23.937-8.58-2.595.505-6.2 4.47-3.533 5.191"/></g><defs><path id="W" d="M78.943 77.133h96.396v30.642H78.943z"/></defs><clipPath id="X"><use xlink:href="#W" overflow="visible"/></clipPath><g opacity=".5" clip-path="url(#X)"><path fill="#E3AB5E" d="M91.248 103.905c11.968.937 21.846 1.441 25.379-2.235s4.831-19.971 10.599-19.539c4.902.36 6.561 21.557 9.733 22.134 3.173.648 25.595 6.776 31.219 1.009 5.552-5.768 8.146-9.372 6.85-12.833-1.298-3.461-34.104-14.636-40.809-15.285-6.705-.648-51.983 5.047-53.136 7.859-1.154 2.884-2.379 2.452-2.163 5.479.432 5.841.36 12.474 12.328 13.411"/></g><path fill="#333" d="M124.798 79.8c.865 0 4.254-.289 5.047.36 4.326 3.389 4.182 17.304 8.724 21.63 4.038 3.893 26.1 6.705 29.921 2.307 3.822-4.398 9.445-17.809 10.743-18.818 1.298-.937 4.182-1.658 5.047-3.028.865-1.297.145-7.21-1.874-6.921-2.02.288-5.841 1.514-8.22.865-2.379-.721-13.987-8.003-43.188-3.605-2.812.433-5.624 0-7.57-.504-1.947-.505-12.906-6.85-42.25-2.668-2.884.433-6.921-.865-8.364-.721-1.442.144-1.875 4.687-1.297 5.84.577 1.154 3.605 2.163 3.965 3.605s3.028 15.574 9.95 21.414c7.354 6.2 26.1 1.874 27.758.721 7.426-5.264 9.084-20.477 11.608-20.477"/><defs><path id="Y" d="M71.156 68.048h113.412v38.285H71.156z"/></defs><clipPath id="Z"><use xlink:href="#Y" overflow="visible"/></clipPath><g clip-path="url(#Z)"><path fill="#1A1A1A" d="M99.518 68.065c-5.119 0-11.248.36-18.458 1.442-.432.072-.865.072-1.297.072-2.523 0-5.479-.793-6.85-.793h-.216c-1.442.145-1.875 4.687-1.298 5.84.577 1.226 3.605 2.163 3.966 3.605.36 1.442 3.028 15.574 9.95 21.414 2.884 2.451 7.642 3.244 12.401 3.244 7.21 0 14.347-1.803 15.357-2.523 7.5-5.336 9.23-20.548 11.752-20.548.361 0 1.298-.072 2.163-.072 1.154 0 2.38.072 2.812.36 4.326 3.39 4.183 17.304 8.725 21.63 2.596 2.45 12.544 4.542 20.332 4.542 4.397 0 8.146-.649 9.516-2.235 3.822-4.398 9.446-17.808 10.743-18.818 1.3-1.009 4.183-1.658 5.047-3.028.793-1.298.145-6.92-1.802-6.92h-.144c-1.588.215-4.326 1.008-6.562 1.008a6.147 6.147 0 0 1-1.658-.216c-1.875-.577-9.157-4.975-25.739-4.975-4.975 0-10.743.36-17.448 1.37-.793.144-1.658.144-2.379.144-1.947 0-3.749-.288-5.119-.649-1.443-.145-8.076-3.894-23.794-3.894m0 1.442c13.05 0 19.755 2.596 22.207 3.605.504.216.865.36 1.226.433 1.298.29 3.245.721 5.48.721.865 0 1.801-.072 2.595-.217 6.128-.937 11.896-1.37 17.231-1.37 13.698 0 20.836 3.028 23.937 4.398.65.29 1.081.433 1.442.577.648.216 1.297.29 2.091.29 1.586 0 3.316-.36 4.758-.65.65-.144 1.298-.289 1.803-.36.65.72 1.081 3.893.721 4.758-.288.433-1.514 1.01-2.38 1.37-.864.361-1.657.721-2.234 1.154-.793.577-1.586 2.091-3.894 6.706-2.234 4.398-4.975 9.877-7.064 12.256-.722.865-3.317 1.73-8.509 1.73-7.57 0-17.23-2.019-19.395-4.109-2.019-1.875-3.027-6.272-4.037-10.527-1.153-4.758-2.235-9.229-4.759-11.247-.648-.505-1.658-.72-3.677-.72h-2.235c-2.019 0-2.884 2.378-4.398 6.704-1.658 4.76-4.038 11.176-8.147 14.132-.938.576-7.715 2.307-14.564 2.307-5.263 0-9.229-1.009-11.464-2.884-2.74-2.307-6.56-7.714-9.3-20.043-.073-.288-.145-.505-.145-.649-.36-1.37-1.658-2.163-2.74-2.884-.433-.288-1.154-.793-1.298-1.009-.289-.649 0-3.028.433-3.82.505 0 1.226.143 2.02.287 1.37.217 3.1.505 4.686.505.504 0 1.081 0 1.514-.144 6.417-.795 12.545-1.3 18.096-1.3"/></g><defs><path id="aa" d="M82.188 73.312h36.41V97.97h-36.41z"/></defs><clipPath id="ab"><use xlink:href="#aa" overflow="visible"/></clipPath><g opacity=".5" clip-path="url(#ab)"><path fill="none" stroke="#333" stroke-width="4" stroke-miterlimit="10" d="M83.485 78.395c-.649.865-1.082 13.626 4.326 17.087 3.533 2.308 18.529 1.803 21.557.145 4.687-2.667 9.301-14.78 8.003-16.51-2.163-2.884-17.737-6.706-29.417-3.677-1.441.287-3.676 1.873-4.469 2.955z"/></g><path fill="#FFF" d="M83.485 78.358c-.649.865-1.082 13.626 4.326 17.088 3.533 2.307 18.529 1.802 21.557.144 4.687-2.667 9.301-14.78 8.003-16.511-2.163-2.884-17.737-6.705-29.417-3.677-1.441.361-3.676 1.875-4.469 2.956"/><defs><path id="ac" d="M136.55 76.7h36.122v25.234H136.55z"/></defs><clipPath id="ad"><use xlink:href="#ac" overflow="visible"/></clipPath><g opacity=".5" clip-path="url(#ad)"><path fill="none" stroke="#333" stroke-width="4" stroke-miterlimit="10" d="M171.586 83.956c.576.937-.721 13.626-6.49 16.438-3.82 1.803-18.601-.648-21.34-2.667-4.326-3.244-7.354-15.862-5.841-17.448 2.523-2.596 18.458-4.326 29.633.144 1.37.504 3.389 2.379 4.038 3.533z"/></g><path fill="#FFF" d="M171.59 83.982c.577.937-.721 13.626-6.488 16.438-3.822 1.802-18.603-.649-21.342-2.668-4.326-3.244-7.354-15.862-5.84-17.448 2.523-2.596 18.457-4.326 29.633.144 1.37.506 3.316 2.308 4.037 3.534"/><path d="M100.573 86.145c-.361 2.812-1.803 4.903-3.172 4.687s-2.091-2.596-1.73-5.407c.361-2.813 1.803-4.903 3.172-4.687s2.09 2.595 1.73 5.407m57.462 3.172c.289 2.812-.577 5.191-1.874 5.335-1.37.145-2.668-2.018-2.956-4.831-.289-2.812.576-5.191 1.874-5.335 1.298-.071 2.596 2.092 2.956 4.831"/><defs><path id="ae" d="M71.156 72.014h112.69v33.165H71.156z"/></defs><clipPath id="af"><use xlink:href="#ae" overflow="visible"/></clipPath><g opacity=".3" clip-path="url(#af)"><path fill="#333" d="M72.869 72.843c1.658 1.082 3.172.433 3.533 2.596.361 2.163 5.335 20.908 11.536 23.071 10.166 3.533 23 .072 24.729-1.009 1.731-1.082 9.878-19.323 11.248-20.044s5.696.072 6.633.505c2.812 1.226 8.003 20.98 9.372 21.99 6.273 4.397 26.389 4.037 27.326 2.884 1.01-1.226 8.508-18.458 9.878-19.467 1.946-1.514 6.488-2.523 6.633-1.875.144.649-3.678 1.298-4.831 2.668-1.153 1.442-8.724 17.952-11.104 19.394-2.379 1.442-19.971 3.821-28.911-2.451-4.254-3.028-5.912-20.98-9.301-21.99-2.163-.649-3.821-.577-5.407-.145-2.091 1.37-5.047 16.655-11.319 20.476-2.523 1.514-22.063 5.335-27.902-.793-10.887-11.392-7.57-21.558-11.104-23-2.379-1.009-2.884-2.307-2.884-3.172.216-.936 1.009-.215 1.875.362"/></g><defs><path id="ag" d="M72.959 68.841h14.563v2.163H72.959z"/></defs><clipPath id="ah"><use xlink:href="#ag" overflow="visible"/></clipPath><g opacity=".3" clip-path="url(#ah)"><path fill="#333" d="M73.067 69.021c-1.153-.433 4.903 2.091 7.138 1.947 2.235-.144 5.984-1.73 7.21-2.091 1.082-.36-5.624.865-7.282.793s-6.417-.432-7.066-.649"/></g><defs><path id="ai" d="M119.823 72.374h15.646v3.821h-15.646z"/></defs><clipPath id="aj"><use xlink:href="#ai" overflow="visible"/></clipPath><g opacity=".3" clip-path="url(#aj)"><path fill="#333" d="M119.823 72.41c2.091.938 3.028 3.316 5.047 3.533 2.019.216 4.47.577 5.624-.072 1.153-.649 4.037-2.163 4.83-2.307.865-.145-6.272.937-8.94.721-2.668-.288-5.768-1.803-6.561-1.875"/></g><defs><path id="ak" d="M170.869 75.186h8.868v2.812h-8.868z"/></defs><clipPath id="al"><use xlink:href="#ak" overflow="visible"/></clipPath><g opacity=".3" clip-path="url(#al)"><path fill="#333" d="M170.995 75.168c-.865-.36 3.172 2.884 4.397 2.74 1.227-.144 3.39-1.514 4.326-1.875.721-.289-2.884.721-3.965.505-1.081-.072-3.893-1.01-4.758-1.37"/></g><defs><path id="am" d="M80.673 72.879h20.837v20.62H80.673z"/></defs><clipPath id="an"><use xlink:href="#am" overflow="visible"/></clipPath><g opacity=".3" clip-path="url(#an)"><path fill="#333" d="M81.214 76.502c5.336-5.263 18.025-3.461 20.332-3.028-15.213 1.082-15.501 2.235-18.169 4.903-.36 2.091-.865 9.012 1.514 15.069-2.667-1.443-5.479-15.142-3.677-16.944"/></g><defs><path id="ao" d="M154.791 76.484h20.044v21.99h-20.044z"/></defs><clipPath id="ap"><use xlink:href="#ao" overflow="visible"/></clipPath><g opacity=".3" clip-path="url(#ap)"><path fill="#333" d="M174.517 82.178c-4.614-5.912-17.376-5.84-19.755-5.624 14.924 3.1 15.068 4.254 17.375 7.282.145 2.09-.288 9.012-3.389 14.708 2.741-1.153 7.283-14.42 5.77-16.366"/></g><defs><path id="aq" d="M83.197 74.321h34.463v19.827H83.197z"/></defs><clipPath id="ar"><use xlink:href="#aq" overflow="visible"/></clipPath><g clip-path="url(#ar)"><path fill="#D0DDDC" d="M83.638 87.137c.504-6.201 1.082-11.248 13.41-11.608 9.877-.288 17.736 2.019 18.818 4.398.721 1.514.144 8.147-4.758 14.203 3.172-2.812 8.22-13.987 6.056-15.357-8.003-5.119-23.937-5.263-29.849-3.172-1.082.361-2.813 1.586-3.966 2.884-.216 1.586-.216 7.786.29 8.652"/></g><defs><path id="as" d="M83.918 87.443h25.379v10.022H83.918z"/></defs><clipPath id="at"><use xlink:href="#as" overflow="visible"/></clipPath><g clip-path="url(#at)"><path fill="#D0DDDC" d="M83.979 87.587c1.875 12.112 24.009 8.436 25.307 7.931-.072.649-11.608 3.894-21.269.145-3.894-1.443-4.183-9.446-4.038-8.076"/></g><defs><path id="au" d="M137.56 77.709h34.392v18.385H137.56z"/></defs><clipPath id="av"><use xlink:href="#au" overflow="visible"/></clipPath><g clip-path="url(#av)"><path fill="#D0DDDC" d="M170.55 92.552c.288-6.272.288-11.248-11.825-13.122-9.732-1.514-17.808-.216-19.249 2.019-.866 1.37-1.154 8.075 3.027 14.708-2.812-3.244-6.489-14.853-4.109-16.006 8.579-4.11 24.441-2.307 29.993.505 1.01.505 2.668 1.875 3.604 3.389-.071 1.514-.792 7.714-1.441 8.507"/></g><defs><path id="aw" d="M144.049 92.778h26.171v8.436h-26.171z"/></defs><clipPath id="ax"><use xlink:href="#aw" overflow="visible"/></clipPath><g clip-path="url(#ax)"><path fill="#D0DDDC" d="M170.136 92.931c-3.316 11.753-24.874 5.407-26.1 4.76 0 .647 11.03 5.263 21.124 2.811 4.038-1.009 5.408-8.94 4.976-7.57"/></g><defs><path id="ay" d="M98.698 81.819h1.442v1.442h-1.442z"/></defs><clipPath id="az"><use xlink:href="#ay" overflow="visible"/></clipPath><g opacity=".25" clip-path="url(#az)"><path fill="#FFF" d="M100.194 82.54c0-.36-.289-.721-.721-.721s-.721.288-.721.721.289.721.721.721.721-.288.721-.721"/></g><defs><path id="aA" d="M155.656 85.208h1.441v1.442h-1.441z"/></defs><clipPath id="aB"><use xlink:href="#aA" overflow="visible"/></clipPath><g opacity=".25" clip-path="url(#aB)"><path fill="#FFF" d="M157.152 85.929a.723.723 0 0 0-.721-.721c-.361 0-.722.289-.722.721s.289.721.722.721c.361-.001.721-.361.721-.721"/></g><defs><path id="aC" d="M73.247 70.211h46.72v6.849h-46.72z"/></defs><clipPath id="aD"><use xlink:href="#aC" overflow="visible"/></clipPath><g opacity=".1" clip-path="url(#aD)"><path fill="#D0DDDC" d="M73.265 72.067c1.73 1.947 2.812 2.163 5.119 1.875 22.423-2.884 34.824-2.812 40.952 2.884 1.298 1.226.577-3.677-1.875-4.326-18.89-4.975-32.589-.505-35.473-.144-2.955.433-5.046-.216-8.723-.289"/></g><defs><path id="aE" d="M135.036 72.518h34.535v6.633h-34.535z"/></defs><clipPath id="aF"><use xlink:href="#aE" overflow="visible"/></clipPath><g opacity=".1" clip-path="url(#aF)"><path fill="#D0DDDC" d="M135.271 74.952c-.505.505-.289 5.696 2.163 3.749 7.065-5.624 21.846-4.326 32.155-.865-1.658-3.245-13.698-5.479-20.476-5.407-3.245.143-12.473 1.081-13.842 2.523"/></g><path fill="#D0DDDC" d="M177.935 79.079c0 .217-1.154.361-2.523.361-1.37 0-2.523-.144-2.523-.361 0-.216 1.153-.36 2.523-.36 1.442 0 2.523.217 2.523.36m-97.189-6.2c0 .216-1.154.216-2.523 0-1.37-.216-2.452-.577-2.379-.793s1.154-.216 2.523 0c1.369.144 2.451.504 2.379.793"/><path fill="#FFF" d="M220.358 188.407c-.434-4.398-3.678-6.345-6.634-6.345-1.37 0-2.45.36-2.885.576l-.575.288-.506.36c-.72.505-1.946 1.299-3.027 1.659-.072-.865 0-2.02.144-3.028v-.145c.793-7.714-.793-12.257-4.83-13.41-.649-.217-1.37-.288-2.09-.288-2.453 0-4.616 1.153-5.985 2.163-1.154-1.514-3.172-2.308-5.624-2.308-3.677 0-6.633 1.73-7.714 4.47-.145.289-.288.722-.434 1.298-2.163-4.758-6.56-6.561-10.67-6.561-3.894 0-7.643 1.514-9.012 2.596-.073.072-.146.072-.217.145-3.677 2.595-6.562 5.912-8.58 9.877-1.009-3.39-3.172-6.633-6.993-9.012l-.072-.073c-.145-.071-.217-.144-.288-.144 3.82-6.705 7.138-15.646 5.118-24.152-2.163-9.085-7.498-10.383-10.454-10.383-1.225 0-2.523.216-3.82.649h-.145c-5.623 2.234-8.074 5.55-8.65 6.344-.578.866-6.706 10.238-8.22 23.938-.144 1.514-.36 3.1-.504 4.687-.865-1.226-2.308-2.38-4.542-3.028-.72-.217-1.442-.29-2.163-.29-3.1 0-5.624 1.876-6.993 3.174-1.154-1.73-3.028-2.813-5.119-2.884h-.505c-3.316 0-5.912 1.44-7.859 3.1-1.226-2.163-3.533-3.533-6.2-3.533h-1.082c-3.677 0-6.56 1.73-7.714 4.615-.072.216-.217.505-.289.865-2.884-3.605-6.56-5.264-11.536-5.264h-.504c-3.1.072-10.743 1.37-15.5 11.969a36.411 36.411 0 0 0-1.732 4.902c-1.009-.505-2.019-.576-2.667-.576-2.45 0-4.326 1.37-5.19 2.739-.722 1.08-3.029 4.83-1.876 8.58.65 2.019 2.02 3.532 4.038 4.326 1.803.72 4.038 1.369 5.696 1.874 1.01 2.379 2.884 5.047 6.201 7.57 2.307 1.803 5.335 2.668 8.796 2.668 5.912 0 11.608-2.523 12.185-2.813l.216-.144.072-.072c1.154 1.153 2.596 2.019 4.47 2.379.577.145 1.298.217 2.163.217 3.172 0 5.407-1.66 7.498-4.687 1.658 2.667 4.76 4.109 8.364 4.109.216 0 .36.145.65.145 1.874 0 4.325-.648 6.271-3.894 1.658 2.956 4.687 4.687 8.292 4.687 3.172 0 5.984-1.298 6.49-1.586l.143-.072c1.082-.577 1.947-1.082 2.668-1.442a21.898 21.898 0 0 0 10.454 2.668c.794 0 1.515 0 2.308-.145h.433c9.373-1.874 15.501-4.11 19.178-5.84 2.523 2.884 6.634 5.624 12.402 6.057.648.072 1.297.072 1.945.072 4.76 0 8.58-1.37 11.393-2.813a9.501 9.501 0 0 0 3.46 2.38c.866.36 1.803.504 2.668.504 5.84 0 8.58-6.921 9.301-9.3l1.37-3.75c1.226 1.298 2.812 2.38 4.831 2.956 1.081.289 2.307.505 3.46.505 6.417 0 12.617-4.542 13.555-5.335 1.652-1.657 3.527-4.684 3.167-8.794"/><path fill="#E24B31" d="M161.46 190.337s-.793-2.884 2.235-8.364 5.335-2.524 5.335-2.524 2.596 2.813-.36 6.994-7.21 3.893-7.21 3.893m-23.144 3.966c-3.46 9.013-11.824 5.336-11.824 5.336s-.937-3.245 1.803-12.257c2.74-9.013 9.084-5.48 9.084-5.48s4.398 3.39.937 12.401m-6.272-37.851s5.191-13.627 6.49-6.993c1.296 6.633-10.96 26.315-10.96 26.315.144-4.398 4.47-19.322 4.47-19.322m-74.622 33.886c.216-8.725 5.912-12.546 7.931-10.671 2.02 1.875 1.298 6.057-2.523 8.58-3.678 2.595-5.408 2.09-5.408 2.09m158.112-1.441c-.288-2.956-2.956-1.875-2.956-1.875s-4.254 3.317-8.003 2.957-2.523-8.725-2.523-8.725.793-7.715-1.37-8.363c-2.234-.648-4.902 2.019-4.902 2.019s-3.389 3.75-4.975 8.508l-.433.145s.505-8.363-.073-10.311c-.432-.937-4.469-.865-5.118.793s-3.894 13.41-4.109 18.386c0 0-6.345 5.335-11.824 6.272-5.552.865-6.85-2.596-6.85-2.596s14.996-4.182 14.492-16.15c-.505-11.968-12.113-7.57-13.41-6.561-1.299.938-8.003 5.047-10.022 16.294-.07.36-.216 2.092-.216 2.092s-5.84 3.893-9.013 4.902c0 0 9.013-15.214-2.019-22.135-4.975-3.028-9.013 3.316-9.013 3.316s14.924-16.583 11.608-30.642c-1.586-6.705-4.903-7.427-8.003-6.345-4.687 1.875-6.417 4.542-6.417 4.542s-6.057 8.725-7.426 21.773c-1.37 13.05-3.46 28.695-3.46 28.695s-2.884 2.813-5.479 2.957c-2.668.145-1.442-7.86-1.442-7.86s2.02-12.184 1.875-14.274c-.145-2.091-.289-3.173-2.74-3.894-2.379-.721-5.047 2.38-5.047 2.38s-6.993 10.598-7.57 12.185l-.36.648-.36-.433s4.902-14.42.216-14.636c-4.687-.217-7.787 5.119-7.787 5.119s-5.335 9.013-5.55 10.02l-.36-.433s2.234-10.453 1.801-13.05-2.884-2.019-2.884-2.019-3.1-.36-3.893 1.658c-.793 2.02-3.75 15.141-4.11 19.322 0 0-7.715 5.552-12.762 5.552-5.047.072-4.542-3.245-4.542-3.245s18.601-6.345 13.554-18.962c-2.307-3.244-4.902-4.253-8.652-4.182-3.749.072-8.147 2.38-11.175 9.085-1.442 3.244-2.019 6.272-2.019 8.58 0 0-3.46.649-5.263-.792-1.802-1.442-2.812 0-2.812 0s-3.1 4.397-.072 5.55c3.028 1.154 7.642 2.308 7.642 2.308.433 1.875 1.66 5.047 5.335 7.786 5.48 4.187 16.077-.644 16.077-.644l4.326-2.596s.145 3.894 3.317 4.47c3.172.577 4.47-.07 10.021-13.41 3.245-6.849 3.46-6.488 3.46-6.488l.361-.072s-2.523 13.05-1.514 16.582c1.01 3.533 5.12 3.173 5.12 3.173s2.306.793 4.108-5.696c1.875-6.488 5.335-13.266 5.335-13.266h.433s-1.514 13.05.793 17.304c2.38 4.254 8.435 1.298 8.435 1.298s4.254-2.235 4.903-2.884c0 0 5.047 4.255 12.186 3.46 15.933-3.171 21.63-7.425 21.63-7.425s2.738 6.92 11.246 7.57c9.733.72 14.997-5.407 14.997-5.407s-.073 3.966 3.316 5.336c3.39 1.369 5.695-5.985 5.695-5.985l5.695-15.212h.506s.288 9.732 5.911 11.319c5.625 1.586 12.906-4.038 12.906-4.038s1.588-.795 1.228-3.75"/></svg>