<svg xmlns="http://www.w3.org/2000/svg" width="256" height="256" viewBox="128 -53.5 256 256"><path fill="#222" d="M134.492 94.094V66.691h34.213v-1.603h-34.213V40.09h36.376v-1.603h-37.979v57.208h38.299v-1.602h-36.696v.001zm67.544-39.582l-14.182 18.669-13.862-18.669h-2.083l14.984 19.871-16.426 21.313h1.923l15.464-20.11 15.544 20.11h2.003l-16.505-21.313 15.063-19.871h-1.923zm8.173 55.286v-25.64h.161c.961 3.739 2.858 6.743 5.689 9.014 2.831 2.271 6.437 3.405 10.817 3.405 2.831 0 5.341-.574 7.531-1.723s4.02-2.711 5.489-4.688c1.469-1.976 2.59-4.272 3.365-6.89.774-2.618 1.162-5.369 1.162-8.254 0-3.098-.401-5.956-1.202-8.573-.801-2.618-1.963-4.888-3.485-6.811a16.036 16.036 0 0 0-5.528-4.487c-2.164-1.068-4.608-1.603-7.332-1.603-2.083 0-4.02.307-5.81.921-1.789.614-3.378 1.482-4.767 2.604a17.673 17.673 0 0 0-3.606 3.966 18.243 18.243 0 0 0-2.323 5.008h-.161V54.512h-1.602v55.286h1.602zm16.666-14.742c-5.021 0-9.054-1.723-12.099-5.169-3.044-3.445-4.567-8.399-4.567-14.863 0-2.67.375-5.208 1.122-7.611s1.83-4.514 3.245-6.33a15.587 15.587 0 0 1 5.248-4.327c2.083-1.068 4.434-1.603 7.051-1.603 2.671 0 5.008.534 7.011 1.603a14.212 14.212 0 0 1 4.968 4.366c1.309 1.843 2.297 3.953 2.964 6.33s1.001 4.901 1.001 7.571c0 2.404-.307 4.795-.921 7.172s-1.563 4.514-2.845 6.409a15.462 15.462 0 0 1-4.927 4.647c-2.003 1.203-4.42 1.805-7.251 1.805zm26.361.639V72.38c0-2.244.32-4.434.961-6.57s1.629-4.02 2.965-5.648c1.335-1.629 3.03-2.912 5.087-3.846s4.501-1.322 7.332-1.162v-1.603c-2.457-.054-4.607.213-6.45.801-1.843.587-3.432 1.389-4.768 2.404-1.335 1.015-2.404 2.203-3.205 3.565a15.907 15.907 0 0 0-1.762 4.367h-.16V54.512h-1.603v41.183h1.603zm18.348-20.27h34.453c.107-2.831-.174-5.555-.841-8.173-.668-2.618-1.736-4.941-3.205-6.971-1.47-2.03-3.365-3.659-5.688-4.887-2.324-1.229-5.089-1.843-8.293-1.843-2.297 0-4.541.48-6.731 1.442-2.189.961-4.112 2.363-5.768 4.206-1.656 1.843-2.992 4.1-4.007 6.771s-1.522 5.716-1.522 9.135c0 3.044.348 5.889 1.042 8.533.694 2.644 1.763 4.94 3.205 6.891 1.442 1.949 3.298 3.458 5.568 4.527 2.27 1.067 5.008 1.575 8.213 1.521 4.7 0 8.653-1.322 11.858-3.966 3.205-2.645 5.101-6.37 5.688-11.178h-1.603c-.694 4.541-2.471 7.945-5.328 10.216-2.858 2.271-6.45 3.406-10.777 3.406-2.938 0-5.421-.508-7.451-1.523-2.03-1.015-3.686-2.403-4.968-4.166s-2.229-3.833-2.844-6.21c-.614-2.377-.947-4.954-1.001-7.731zm32.851-1.603h-32.851c.16-2.885.694-5.476 1.603-7.772s2.097-4.26 3.565-5.889c1.469-1.629 3.178-2.871 5.128-3.726 1.949-.854 4.046-1.282 6.29-1.282 2.671 0 5.021.494 7.051 1.482 2.029.988 3.726 2.337 5.088 4.046s2.39 3.699 3.085 5.969c.694 2.271 1.041 4.662 1.041 7.172zm34.854-7.131h1.603c0-4.594-1.336-7.932-4.007-10.015-2.671-2.083-6.303-3.125-10.896-3.125-2.563 0-4.728.32-6.49.961s-3.205 1.469-4.326 2.484c-1.122 1.015-1.924 2.137-2.404 3.365s-.721 2.403-.721 3.525c0 2.244.4 4.033 1.201 5.368.802 1.335 2.057 2.377 3.767 3.125 1.175.534 2.511 1.015 4.006 1.442 1.495.427 3.231.881 5.208 1.362 1.763.427 3.499.854 5.208 1.282 1.71.427 3.219 1.001 4.527 1.722 1.309.722 2.377 1.644 3.205 2.765s1.241 2.591 1.241 4.407c0 1.763-.413 3.258-1.241 4.486s-1.884 2.23-3.165 3.005c-1.282.774-2.711 1.335-4.287 1.683a21.32 21.32 0 0 1-4.606.521c-4.861 0-8.587-1.082-11.178-3.245-2.591-2.164-3.886-5.569-3.886-10.217h-1.603c0 5.182 1.401 8.975 4.206 11.378 2.805 2.404 6.958 3.605 12.46 3.605 1.762 0 3.538-.2 5.328-.601 1.789-.401 3.392-1.056 4.807-1.963a10.849 10.849 0 0 0 3.445-3.526c.882-1.441 1.323-3.204 1.323-5.288 0-1.976-.388-3.578-1.162-4.807a9.747 9.747 0 0 0-3.045-3.045c-1.255-.802-2.671-1.429-4.247-1.883a243.501 243.501 0 0 0-4.767-1.322c-2.244-.587-4.207-1.095-5.89-1.522s-3.245-.935-4.688-1.522c-1.389-.588-2.497-1.429-3.324-2.524-.828-1.095-1.242-2.657-1.242-4.687 0-.374.106-1.042.32-2.003.214-.962.721-1.937 1.522-2.925.801-.988 2.029-1.87 3.686-2.644 1.655-.774 3.926-1.162 6.811-1.162 1.977 0 3.779.213 5.408.641 1.63.428 3.031 1.108 4.207 2.043 1.175.935 2.083 2.124 2.724 3.565.641 1.445.962 3.207.962 5.291zm37.098 0h1.603c0-4.594-1.336-7.932-4.007-10.015-2.671-2.083-6.303-3.125-10.896-3.125-2.564 0-4.728.32-6.49.961s-3.205 1.469-4.326 2.484c-1.122 1.015-1.924 2.137-2.404 3.365s-.721 2.403-.721 3.525c0 2.244.4 4.033 1.201 5.368.802 1.335 2.057 2.377 3.767 3.125 1.175.534 2.51 1.015 4.006 1.442 1.495.427 3.231.881 5.208 1.362 1.763.427 3.499.854 5.208 1.282 1.71.427 3.219 1.001 4.526 1.722 1.31.722 2.378 1.644 3.206 2.765.827 1.121 1.241 2.591 1.241 4.407 0 1.763-.414 3.258-1.241 4.486a10.023 10.023 0 0 1-3.165 3.005c-1.282.774-2.711 1.335-4.287 1.683a21.323 21.323 0 0 1-4.607.521c-4.86 0-8.586-1.082-11.177-3.245-2.591-2.164-3.886-5.569-3.886-10.217h-1.603c0 5.182 1.401 8.975 4.206 11.378 2.805 2.404 6.957 3.605 12.459 3.605 1.763 0 3.539-.2 5.328-.601 1.79-.401 3.393-1.056 4.808-1.963a10.849 10.849 0 0 0 3.445-3.526c.882-1.441 1.322-3.204 1.322-5.288 0-1.976-.387-3.578-1.161-4.807a9.747 9.747 0 0 0-3.045-3.045c-1.255-.802-2.671-1.429-4.247-1.883a245.46 245.46 0 0 0-4.767-1.322c-2.244-.587-4.207-1.095-5.89-1.522s-3.245-.935-4.688-1.522c-1.389-.588-2.497-1.429-3.325-2.524-.827-1.095-1.242-2.657-1.242-4.687 0-.374.107-1.042.321-2.003.214-.962.721-1.937 1.521-2.925.802-.988 2.03-1.87 3.687-2.644 1.655-.774 3.926-1.162 6.811-1.162 1.977 0 3.778.213 5.408.641 1.629.428 3.031 1.108 4.207 2.043 1.175.935 2.082 2.124 2.724 3.565.641 1.445.962 3.207.962 5.291z"/></svg>