<?xml version="1.0" encoding="utf-8"?>
<!-- Generator: Adobe Illustrator 16.0.3, SVG Export Plug-In . SVG Version: 6.00 Build 0)  -->
<!DOCTYPE svg PUBLIC "-//W3C//DTD SVG 1.1//EN" "http://www.w3.org/Graphics/SVG/1.1/DTD/svg11.dtd">
<svg version="1.1" id="Ebene_1" xmlns="http://www.w3.org/2000/svg" xmlns:xlink="http://www.w3.org/1999/xlink" x="0px" y="0px"
	 width="317px" height="317px" viewBox="-30.5 0 317 317" enable-background="new -30.5 0 317 317" xml:space="preserve">
<g>
	<path fill="#FFDF51" fill-opacity="0.7" d="M183.912,259.815v-54.78H129.57L183.912,259.815"/>
	<path fill="#FF8900" fill-opacity="0.7" d="M190.01,228.755v-59.248h-58.773L190.01,228.755"/>
	
		<linearGradient id="SVGID_1_" gradientUnits="userSpaceOnUse" x1="-61.1826" y1="-373.9814" x2="-60.8039" y2="-373.8835" gradientTransform="matrix(87.8219 0 0 88.5333 5537.6611 33347.1094)">
		<stop  offset="0" style="stop-color:#FFD441"/>
		<stop  offset="1" style="stop-color:#FFB047"/>
	</linearGradient>
	<path fill="url(#SVGID_1_)" fill-opacity="0.7" d="M154.316,205.032v59.248h58.773L154.316,205.032"/>
	<path fill="#FFDF4F" fill-opacity="0.7" d="M177.724,173.475v-46.864h-46.489L177.724,173.475"/>
	
		<linearGradient id="SVGID_2_" gradientUnits="userSpaceOnUse" x1="-60.9053" y1="-373.4053" x2="-60.7057" y2="-373.8452" gradientTransform="matrix(87.8219 0 0 88.5333 5517.7861 33194.7344)">
		<stop  offset="0" style="stop-color:#FFD754"/>
		<stop  offset="1" style="stop-color:#FFB532"/>
	</linearGradient>
	<path fill="url(#SVGID_2_)" fill-opacity="0.8" d="M199.795,162.302v-59.249h-58.772L199.795,162.302"/>
	
		<linearGradient id="SVGID_3_" gradientUnits="userSpaceOnUse" x1="-60.6558" y1="-373.0493" x2="-60.6558" y2="-373.4302" gradientTransform="matrix(87.8219 0 0 88.5333 5455.9111 33119.0469)">
		<stop  offset="0" style="stop-color:#FFD642"/>
		<stop  offset="0" style="stop-color:#FFD441"/>
		<stop  offset="1" style="stop-color:#FFB532"/>
	</linearGradient>
	<path fill="url(#SVGID_3_)" fill-opacity="0.8" d="M99.62,52.37v59.249h58.772L99.62,52.37"/>
	
		<linearGradient id="SVGID_4_" gradientUnits="userSpaceOnUse" x1="-60.8604" y1="-373.3604" x2="-61.3716" y2="-373.4768" gradientTransform="matrix(106.1984 0 0 88.5515 6564.8672 33176.0508)">
		<stop  offset="0" style="stop-color:#FFD441"/>
		<stop  offset="1" style="stop-color:#FFA829"/>
	</linearGradient>
	<path fill="url(#SVGID_4_)" fill-opacity="0.88" d="M113.405,145.169V85.92H42.334l58.518,59.261L113.405,145.169"/>
	<path fill="#FFB700" fill-opacity="0.7" d="M113.405,263.962v-71.68H42.334L113.405,263.962"/>
	<path fill="#FFB700" fill-opacity="0.5" d="M113.422,204.597v-59.248H54.648L113.422,204.597"/>
	<path fill="#FFCD25" fill-opacity="0.7" d="M131.234,126.609v59.249h58.773L131.234,126.609"/>
	<path fill="#FF8900" fill-opacity="0.7" d="M113.272,133.28V74.03H54.5L113.272,133.28 M129.57,205.032v59.248h58.773
		L129.57,205.032"/>
</g>
</svg>
