<?xml version="1.0" encoding="utf-8"?>
<!-- Generator: Adobe Illustrator 16.0.3, SVG Export Plug-In . SVG Version: 6.00 Build 0)  -->
<!DOCTYPE svg PUBLIC "-//W3C//DTD SVG 1.1//EN" "http://www.w3.org/Graphics/SVG/1.1/DTD/svg11.dtd">
<svg version="1.1" id="Ebene_1" xmlns="http://www.w3.org/2000/svg" xmlns:xlink="http://www.w3.org/1999/xlink" x="0px" y="0px"
	 width="256px" height="256px" viewBox="0 0 256 256" enable-background="new 0 0 256 256" xml:space="preserve">
<g>
	<path fill="#744C9E" d="M128,53.5c-41.145,0-74.5,33.355-74.5,74.5c0,41.146,33.355,74.5,74.5,74.5c41.146,0,74.5-33.355,74.5-74.5
		C202.5,86.855,169.146,53.5,128,53.5z M69.508,128.776l57.715,57.715C95.531,186.079,69.921,160.469,69.508,128.776z
		 M141.093,185.029l-70.122-70.123C76.917,88.901,100.192,69.499,128,69.499c19.438,0,36.659,9.483,47.298,24.072l-8.101,7.147
		C158.568,88.343,144.231,80.244,128,80.244c-20.666,0-38.263,13.126-44.915,31.495l61.175,61.176
		c14.856-5.381,26.283-17.921,30.109-33.454h-25.357V128h26.743l0,0h10.746l0,0C186.502,155.808,167.099,179.083,141.093,185.029z"
		/>
</g>
</svg>
