<svg xmlns="http://www.w3.org/2000/svg" width="256" height="256"><path fill="#DE4C36" d="M204.502 120.915L135.08 51.498c-3.995-3.999-10.479-3.999-14.48 0l-14.416 14.415L124.471 84.2c4.25-1.436 9.123-.473 12.511 2.915 3.402 3.409 4.359 8.323 2.888 12.587l17.624 17.624c4.264-1.469 9.184-.518 12.589 2.893 4.759 4.758 4.759 12.468 0 17.229-4.761 4.762-12.472 4.762-17.234 0-3.58-3.583-4.465-8.841-2.651-13.251l-16.437-16.436-.001 43.252a12.3 12.3 0 0 1 3.223 2.304c4.759 4.757 4.759 12.469 0 17.233-4.762 4.759-12.477 4.759-17.23 0-4.759-4.765-4.759-12.477 0-17.233a12.187 12.187 0 0 1 3.988-2.658v-43.655a12.042 12.042 0 0 1-3.988-2.658c-3.606-3.601-4.473-8.892-2.626-13.32L99.102 72.997l-47.601 47.597c-4 4.002-4 10.487 0 14.485l69.422 69.419c3.997 3.998 10.479 3.998 14.482 0l69.097-69.096c3.999-4.001 3.999-10.489 0-14.487"/></svg>