<svg xmlns="http://www.w3.org/2000/svg" xmlns:xlink="http://www.w3.org/1999/xlink" width="256" height="256" viewBox="0 2 256 256"><path fill="#9EDCF2" d="M184.1 193.986c0 10.696-24.779 19.315-55.33 19.315s-55.329-8.695-55.329-19.315c0-10.696 24.778-19.315 55.329-19.315s55.33 8.619 55.33 19.315z"/><defs><path id="a" d="M104.991 228.615c1.231 5.771 4.232 9.157 7.233 11.158h31.627c3.848-2.616 7.773-7.542 7.773-16.776v-23.855s.461-5.925 5.926-7.849c0 0 3.154-2.231-.232-3.463 0 0-15.006-1.231-15.006 11.081v18.161s.617 6.694-2.924 9.466v-22.471s.23-7.156 3.926-9.85c0 0 2.461-4.387-2.926-3.232 0 0-10.311 1.462-10.773 13.543l-.23 23.086h-2.462l-.231-23.086c-.461-12.004-10.773-13.543-10.773-13.543-5.387-1.231-2.924 3.232-2.924 3.232 3.693 2.693 3.925 9.85 3.925 9.85v22.701c-3.54-2.539-2.925-9.696-2.925-9.696v-18.161c0-12.313-15.006-11.081-15.006-11.081-3.463 1.231-.23 3.463-.23 3.463 5.387 2.001 5.926 7.849 5.926 7.849v16.699l.306 12.774z"/></defs><clipPath id="b"><use xlink:href="#a" overflow="visible"/></clipPath><path clip-path="url(#b)" fill="#7DBCE7" d="M184.1 193.986c0 10.696-24.779 19.315-55.33 19.315s-55.329-8.695-55.329-19.315c0-10.696 24.778-19.315 55.329-19.315s55.33 8.619 55.33 19.315z"/><path fill="#9EDCF2" d="M65.591 137.118l-1.616 5.541s-.385 2 1.463 2.385c2-.076 1.847-1.924 1.692-2.463l-1.539-5.463z"/><path fill="#010101" d="M226.346 113.801l.154-.693c-16.236-3.232-32.859-3.309-42.939-2.847 1.615-5.925 2.154-12.851 2.154-20.469 0-11.004-4.156-19.777-10.773-26.395 1.154-3.771 2.693-12.159-1.539-22.855 0 0-7.541-2.386-24.701 9.08-6.695-1.693-13.852-2.539-21.009-2.539-7.85 0-15.775 1-23.24 3.001-17.7-12.082-25.473-9.619-25.473-9.619-5.078 12.697-1.924 22.163-1 24.471-6.002 6.464-9.619 14.698-9.619 24.779 0 7.618.847 14.467 3.001 20.393-10.157-.385-26.164-.231-41.862 2.924l.154.692c15.698-3.155 31.858-3.232 41.939-2.847.461 1.231 1 2.462 1.539 3.617-10.004.308-27.011 1.616-43.325 6.233l.231.693c16.468-4.618 33.628-5.849 43.555-6.157 6.003 11.082 17.699 18.315 38.631 20.546-3.001 2.001-6.002 5.387-7.233 11.158-4.079 1.924-16.853 6.695-24.548-6.541 0 0-4.31-7.849-12.544-8.465 0 0-8.003-.153-.538 5.002 0 0 5.31 2.54 9.003 12.005 0 0 4.849 16.16 28.011 10.927v16.545s-.461 5.926-5.925 7.85c0 0-3.232 2.232.23 3.463 0 0 15.006 1.231 15.006-11.081v-18.161s-.615-7.233 2.925-9.695v29.857s-.231 7.156-3.925 9.85c0 0-2.463 4.387 2.924 3.232 0 0 10.312-1.463 10.773-13.544l.231-30.243h2.463l.23 30.243c.461 12.005 10.773 13.544 10.773 13.544 5.387 1.23 2.924-3.232 2.924-3.232-3.693-2.693-3.924-9.85-3.924-9.85v-29.627c3.539 2.77 2.924 9.465 2.924 9.465v18.161c0 12.313 15.006 11.081 15.006 11.081 3.463-1.23.23-3.463.23-3.463-5.387-2-5.926-7.85-5.926-7.85v-23.855c0-9.311-3.924-14.235-7.771-16.775 22.316-2.231 33.012-9.388 37.938-20.623 9.773.23 27.395 1.462 44.172 6.233l.23-.693c-16.699-4.694-34.168-5.925-44.094-6.233.461-1.154.846-2.309 1.23-3.54 10.315-.385 27.012-.385 43.327 2.847z"/><path fill="#F5CCB3" d="M163.859 89.253c4.771 4.387 7.619 9.619 7.619 15.237 0 26.472-19.699 27.165-44.018 27.165-24.316 0-44.017-3.693-44.017-27.165 0-5.618 2.771-10.85 7.541-15.16 7.927-7.233 21.316-3.386 36.476-3.386 15.161 0 28.474-3.924 36.399 3.309z"/><path fill="#FFF" d="M112.84 105.875c0 7.311-4.078 13.159-9.157 13.159s-9.157-5.926-9.157-13.159c0-7.311 4.078-13.159 9.157-13.159 5.079-.077 9.157 5.848 9.157 13.159z"/><path fill="#AF5C51" d="M109.916 106.029c0 4.848-2.771 8.773-6.079 8.773-3.386 0-6.079-3.925-6.079-8.773s2.77-8.772 6.079-8.772c3.309-.001 6.079 3.924 6.079 8.772z"/><path fill="#FFF" d="M162.014 105.875c0 7.311-4.078 13.159-9.158 13.159-5.078 0-9.156-5.926-9.156-13.159 0-7.311 4.078-13.159 9.156-13.159 5.001-.077 9.158 5.848 9.158 13.159z"/><path fill="#AF5C51" d="M159.012 106.029c0 4.848-2.77 8.773-6.078 8.773-3.387 0-6.08-3.925-6.08-8.773s2.77-8.772 6.08-8.772c3.384-.001 6.078 3.924 6.078 8.772zm-29.088 11.543c0 1.231-1 2.309-2.309 2.309-1.231 0-2.309-1-2.309-2.309s1-2.309 2.309-2.309c1.231 0 2.309 1.001 2.309 2.309zm-7.618 5.772c-.154-.385.077-.77.462-.924s.77.077.923.462c.616 1.692 2.155 2.771 3.925 2.771s3.309-1.154 3.924-2.771c.154-.385.539-.616.924-.462s.615.539.463.924c-.77 2.231-2.926 3.771-5.311 3.771-2.387-.001-4.541-1.54-5.31-3.771z"/><path fill="#C4E5D9" d="M71.439 133.809c0 .616-.692 1.078-1.616 1.078-.847 0-1.616-.462-1.616-1.078 0-.615.693-1.077 1.616-1.077.924-.001 1.616.461 1.616 1.077zm4.463 2.462c0 .615-.692 1.077-1.615 1.077-.847 0-1.616-.462-1.616-1.077s.692-1.077 1.616-1.077c.923 0 1.615.462 1.615 1.077zm2.694 3.233c0 .615-.692 1.077-1.615 1.077-.847 0-1.616-.462-1.616-1.077 0-.616.692-1.078 1.616-1.078.922-.076 1.615.462 1.615 1.078zm2.463 3.693c0 .616-.692 1.077-1.616 1.077-.847 0-1.616-.461-1.616-1.077s.693-1.077 1.616-1.077c.923-.077 1.616.461 1.616 1.077zm2.693 3.386c0 .615-.692 1.078-1.616 1.078-.847 0-1.616-.463-1.616-1.078s.693-1.077 1.616-1.077c.924 0 1.616.462 1.616 1.077zm3.693 3.002c0 .615-.692 1.076-1.615 1.076-.847 0-1.616-.461-1.616-1.076 0-.616.692-1.078 1.616-1.078.923-.076 1.615.462 1.615 1.078zm5.157 1.924c0 .615-.692 1.076-1.616 1.076-.847 0-1.616-.461-1.616-1.076 0-.616.693-1.078 1.616-1.078.923 0 1.616.462 1.616 1.078zm5.156 0c0 .615-.693 1.076-1.616 1.076-.847 0-1.616-.461-1.616-1.076 0-.616.692-1.078 1.616-1.078.922 0 1.616.462 1.616 1.078zm5.232-.848c0 .616-.692 1.078-1.616 1.078-.847 0-1.616-.462-1.616-1.078 0-.615.693-1.076 1.616-1.076.847 0 1.616.461 1.616 1.076z"/></svg>