<?xml version="1.0" encoding="utf-8"?>
<!-- Generator: Adobe Illustrator 16.0.3, SVG Export Plug-In . SVG Version: 6.00 Build 0)  -->
<!DOCTYPE svg PUBLIC "-//W3C//DTD SVG 1.1//EN" "http://www.w3.org/Graphics/SVG/1.1/DTD/svg11.dtd">
<svg version="1.1" id="Ebene_1" xmlns="http://www.w3.org/2000/svg" xmlns:xlink="http://www.w3.org/1999/xlink" x="0px" y="0px"
	 width="256px" height="256px" viewBox="0 -10 256 256" enable-background="new 0 -10 256 256" xml:space="preserve">
<g>
	<path fill="#E24329" d="M128.075,206.137L128.075,206.137l35.136-108.136H92.939L128.075,206.137L128.075,206.137z"/>
	<path fill="#FC6D26" d="M128.075,206.137L92.939,98H43.697L128.075,206.137L128.075,206.137z"/>
	<path fill="#FCA326" d="M43.698,98.001L43.698,98.001L33.02,130.863c-0.973,2.996,0.093,6.28,2.643,8.132l92.412,67.142
		L43.698,98.001L43.698,98.001z"/>
	<path fill="#E24329" d="M43.698,98.001h49.242L71.777,32.872c-1.088-3.352-5.83-3.351-6.918,0L43.698,98.001L43.698,98.001z"/>
	<path fill="#FC6D26" d="M128.075,206.137L163.211,98h49.241L128.075,206.137L128.075,206.137z"/>
	<path fill="#FCA326" d="M212.452,98.001L212.452,98.001l10.677,32.862c0.975,2.996-0.092,6.28-2.643,8.132l-92.412,67.142
		L212.452,98.001L212.452,98.001z"/>
	<path fill="#E24329" d="M212.452,98.001h-49.241l21.162-65.129c1.088-3.352,5.829-3.351,6.918,0L212.452,98.001L212.452,98.001z"/>
</g>
</svg>
