<svg xmlns="http://www.w3.org/2000/svg" width="256" height="256"><path fill="#FBA919" d="M65.541 82.756s3.316 12.792 3.79 17.056c.475 4.263-8.527 13.738-8.527 18.476 0 4.738 1.893 13.265 12.316 17.531 10.425 4.264 11.844 15.159 11.844 21.793s-3.789 19.423-3.789 19.423-2.368 31.741 10.423 37.427c12.791 5.685 9.948 5.685 12.79 5.685 2.843 0 23.688 8.529 36.006 5.214 12.317-3.316 15.631-7.105 15.631-7.105s12.321.946 16.109-9.952c3.792-10.896 6.159-33.635 4.737-44.058-1.421-10.426-3.315-24.162 5.212-28.899 8.528-4.738 17.529-10.422 16.107-15.16-1.42-4.738-9-11.371-9-11.371s-1.895-11.843-.475-14.687c1.421-2.842 9.949-9.949 5.211-15.16-4.734-5.211-13.265-5.211-13.265-5.211l-10.896.946s-18.476-16.581-42.638-15.633c-24.16.947-39.322 15.633-39.322 15.633s-8.053-2.843-15.16 0c-7.107 2.841-8.525-.003-7.104 8.052z"/><path fill="#E78724" d="M108.83 153.294s-9.382 14.345-16.263 24.524c-1.065 1.575 6.882 1.685 6.882 1.685l9.381-26.209zm4.466-29.743s-2.828 7.055-4.377 10.796c-1.681 4.066-8.094 6.089-8.094 6.089s3.324-3.485 3.324-12.316c0-3.706 4.783-5.179 4.783-5.179l4.364.61z"/><path fill="#E78724" d="M110.439 127.54s-5.794 6.897-16.552 3.034c-10.761-3.861-11.864-17.657-11.864-21.521 0-3.863 20.417 3.863 23.176 5.518 2.761 1.658 7.999 8.278 5.24 12.969zm-40.638-73.7s9.932-1.933 16.552 3.311c6.624 5.241 8.552 9.381 8.552 9.381l-11.16 8.846s-5.392-2.5-7.048-9.675c-1.655-7.173-.551-10.483-6.896-11.863z"/><path fill="#E78724" d="M107.543 107.618c-4.276-6.069-11.324-8.717-16.95-9.156-9.593-.751-14.148 2.641-14.148 2.641s15.711.665 20.241 6.612c8.432 11.071 20.73 11.971 22.698 9.54-2.275.113-4.776-1.014-7.454-3.545-1.674-1.584-3.03-4.166-4.387-6.092zm-26.524 21.463s-17.433-5.993-14.12-12.062c3.311-6.071.676-9.378.676-9.378s-9.734 7.267-7.254 14.992c1.524 4.742 4.082 8.174 18.125 14.757 6.736 12.511 1.392 35.031 1.711 35.138.534.177 9.458-4.412 8.848-25.481-.186-6.471-.703-15.304-7.986-17.966zm22.844-64.446C96.554 68.349 86.54 73.52 86.54 73.52l3.941 1.973c-.376.609-.558.972-.558.972l4.046 1.84s9.875 7.153 15.926 11.753c-2.018-6.212-7.939-15.971-7.939-15.971s-1.679-4.484 1.907-9.452zm24.284 151.379c-22.468 0-30.078-11.405-30.078-11.405l3.511 8.55c1.327 3.699 15.486 15.209 26.533 15.209"/><path fill="#E78724" d="M100.531 196.9s2.067 12.633 10.344 12.633c7.034 0 9.106-10.672 9.106-12.877l-19.45.244zm-13.775-19.052c.735-2.025 3.311-10.21 4.138-17.659.992-8.92.631-21.968.631-21.968s-2.208 8.554-4.14 9.935c-1.93 1.379-5.518 10.758-5.518 10.758s-1.921 13.964-2.836 18.656c2.53.507 4.661-.983 7.725.278zm-19.987-55.353s4.688-1.656 6.07-11.863c1.378-10.209-1.657-19.038-1.657-19.038s.276 14.071-1.378 16.83c-1.656 2.758-3.034 3.586-4.967 7.173s.827 5.795 1.932 6.898z"/><path fill="#FDC168" d="M72.368 56.254l-.958-.606c-2.823.095.958.606.958.606z"/><path fill="#FBA919" d="M107.679 61.614s-4.413-.735-6.622-4.046c-2.208-3.312-8.461-9.934-18.429-10.008-9.966-.075-19.828 2.649-19.828 2.649l8.608 5.439c.91-.029 2.502-.018 5.135.07 10.804.359 12.466 11.044 12.466 11.044l38.074-5.242"/><path fill="#FFF" d="M111.359 120.634s-5.149 5.151-13.061 3.494c-7.91-1.655-12.692-5.15-13.061-11.221-.368-6.07 1.657-8.46 1.657-8.46s8.828 2.761 13.061 6.44c4.231 3.677 7.358 9.564 11.404 9.747z"/><path fill="#C9C9C9" d="M105.126 118.794s-4.467 2.041-9.459.378c-6.537-2.18-6.972-8.978-6.972-8.978s-4.01 11.767 7.232 14.031c9.016 1.817 14.348-3.408 14.348-3.408l-5.149-2.023z"/><path fill="#463014" d="M108.301 59.117c-.48-10.091 7.792-18.128 10.658-18.47.158 1.71-.16 8.381 2.706 10.431.834-5.447 3.655-11.453 14.794-15.388-2.386 6.327-.318 11.627.665 14.084 7.607-6.906 12.732-5.764 12.732-5.764s-5.284 9.121-3.218 15.105c-15.268-1.197-38.263 1.622-38.337.002zM75.926 74.488c-3.643-3.022-.927-5.828-1.216-9.262-.156-1.827-.301-3.552-.903-4.502-3.353-5.295-11.263-6.902-11.342-6.918l-3.712-.728 2.458-2.875c.318-.373 10.41-10.002 26.028-4.96 10.925 3.524 19.012 15.472 19.314 15.955l-5.478 2.576c-.064-.103-6.458-11.332-15.83-14.354-7.577-2.446-14.559-.119-17.55 1.405 3.181 1.27 7.336 3.581 9.841 7.536 1.182 1.867 1.382 4.219 1.573 6.496.254 3.015.492 5.86 2.71 7.704l-5.893 1.927zm-9.732 44.127s4.591-5.692 5.95-16.769c.535-4.363-.415-12.969-1.933-16.28.276 8.14-1.793 16.28-1.793 16.28s-1.394 15.113-2.224 16.769z"/><path fill="#463014" d="M90.401 68.739c-.002-.011-1.473-6.438-5.55-9.683-5.75-4.574-12.773-2.141-12.841-2.119l-1.02-3.15c.34-.111 8.367-2.64 15.764 2.56 7.441 5.229 8.335 9.969 8.413 10.493l-4.766 1.899zm-9.789 45.793s-2.409-3.447-1.975-7.239c.215-1.872 1.083-3.794 2.633-4.477 2.879-1.266 4.154 1.998 4.154 1.998s-4.051 1.001-4.812 9.718z"/><path fill="#463014" d="M107.056 119.787c.101.188.151.293.151.293s-7.511 5.637-15.209-.083c-4.121-3.065-3.731-10.646-2.468-13.863 3.282.745 6.067 2.086 8.395 3.653-2.941-2.625-5.516-4.558-5.51-4.602l-3.343-.948-6.498-2.227c-.083.495-2.453 11.604 4.387 19.175 3.032 3.356 17.248 10.871 23.997-1.98l-3.902.582z"/><path fill="#463014" d="M106.353 120.613c4.229 6.438 14.9 2.758 14.716-4.046 0 0-7.13 3.934-13.429-3.311-3.678-4.23-15.463-15.893-31.445-12.017 11.037 2.428 25.649 12.511 30.158 19.374z"/><path fill="#463014" d="M74.702 138.78c1.017.588 4.606 4.304 4.608 9.862 0 2.786-.277 16.787-1.656 25.342 2.075 1.347 3.52 1.635 5.586 3.008 1.034-9.907 1.776-24.263 1.43-30.062-.396-6.606-3.933-11.039-7.214-12.93-1.027-.593-2.101-1.173-3.182-1.758-5.619-3.036-11.428-6.176-11.428-11.54 0-4.194 1.631-5.506 3.357-6.898l.187-.15c1.146-.926 2.442-1.976 3.211-3.7 2.095-4.712 2.438-16.718 0-19.767-1.216-1.519-4.473-6.625-3.537-10.057.357-1.311 1.182-2.28 2.524-2.969 1.421-.728 3.34-1.097 5.704-1.097 4.642 0 9.79 1.413 12.446 2.254 9.493 3.008 20.945 11.681 24.229 14.269l.159.121 2.101 1.461-1.313-2.198c-.082-.137-8.403-13.819-23.281-18.836-2.895-.977-8.582-2.614-14.17-2.614-3.328 0-6.15.581-8.386 1.726-2.725 1.393-4.57 3.618-5.336 6.43-1.879 6.891 4.24 14.564 4.449 14.809.713 1.274 1.017 10.525-.632 14.228-.227.511-.848 1.013-1.635 1.648-.247.199-.523.407-.814.627-2.326 1.755-5.841 4.407-5.841 10.52 0 8.362 8.476 12.896 15.288 16.544 1.114.603 2.182 1.173 3.146 1.727z"/><path fill="#463014" d="M75.926 74.488c-3.643-3.022-.927-5.828-1.216-9.262-.156-1.827-.301-3.552-.903-4.502-3.353-5.295-11.263-6.902-11.342-6.918l-3.712-.728 2.458-2.875c.318-.373 10.41-10.002 26.028-4.96 10.925 3.524 19.012 15.472 19.314 15.955l-5.478 2.576c-.064-.103-6.458-11.332-15.83-14.354-7.577-2.446-14.559-.119-17.55 1.405 3.181 1.27 7.336 3.581 9.841 7.536 1.182 1.867 1.382 4.219 1.573 6.496.254 3.015.492 5.86 2.71 7.704l-5.893 1.927z"/><path fill="#463014" d="M75.808 75.108l-.235-.195c-2.702-2.243-2.223-4.452-1.758-6.588.21-.986.433-2.006.343-3.051-.148-1.759-.289-3.417-.818-4.255-3.193-5.042-10.908-6.656-10.985-6.672l-4.637-.909 3.074-3.594c.056-.067 6.536-6.608 17.51-6.608 2.992 0 6.058.498 9.106 1.482 11.402 3.677 19.537 16.064 19.613 16.187l.329.526-6.479 3.048-.26-.413c-.697-1.189-6.841-11.32-15.532-14.124a21.724 21.724 0 0 0-6.682-1.036 24.37 24.37 0 0 0-9.338 1.896c3.003 1.352 6.645 3.628 8.949 7.262 1.252 1.979 1.455 4.398 1.654 6.737.245 2.907.474 5.64 2.513 7.332l.77.639-7.137 2.336z"/><path fill="#463014" d="M90.401 68.739c-.002-.011-1.473-6.438-5.55-9.683-5.75-4.574-12.773-2.141-12.841-2.119l-1.02-3.15c.34-.111 8.367-2.64 15.764 2.56 7.441 5.229 8.335 9.969 8.413 10.493l-4.766 1.899z"/><path fill="#463014" d="M90.005 69.491l-.144-.632c-.015-.062-1.457-6.269-5.356-9.37-2.222-1.769-4.903-2.668-7.962-2.668-2.387 0-4.161.57-4.355.637l-.526.175-1.368-4.202.525-.17c.235-.074 2.365-.738 5.38-.738 3.975 0 7.733 1.167 10.874 3.371 7.627 5.361 8.559 10.318 8.639 10.864l.067.433-5.774 2.3zM76.545 55.72c3.268 0 6.261 1.004 8.649 2.905 3.462 2.757 5.09 7.625 5.583 9.37L94.53 66.5c-.34-1.325-1.836-5.301-8.094-9.7-2.993-2.104-6.438-3.17-10.238-3.17a18.67 18.67 0 0 0-4.506.535l.677 2.092a16.304 16.304 0 0 1 4.176-.537zm33.984 150.783c-1.63 0-3.294-.592-4.447-1.591-.883-.761-3.868-3.503-5.184-6.862-.491-1.256-.38-2.26.331-2.983.492-.496 1.512-1.088 3.582-1.088l1.473-.002c1.755-.002 4.71-.002 7.236-.002h2.421c1.575 0 2.705.34 3.353 1.004.833.856.566 1.946.334 2.519-.406 1.005-2.086 4.274-4.928 7.315-1.018 1.089-2.501 1.69-4.171 1.69zm1.709-85.511l-5.886-.378s1.505 2.652 2.479 6.083c1.101 3.879-1.006 9.55-1.006 9.55s7.848-8.886 4.413-15.255zm-7.347 101.053c-20.949-1.61-28.32-21.405-28.32-25.529l5.471.002-2.735-.002h2.735c.027 1.782 5.595 18.716 23.269 20.075l-.42 5.454z"/><path fill="#FFF" d="M99.004 186.579c-.328-1.893-.361-3.687.038-5.449-1.592-1.196-4.45-1.641-6.593-2.336-1.752-1.111-10.723 1.137-17.229-6.739-8.154-9.861-6.438-15.748-6.438-15.748-2.09 2.321-4.117 1.437-7.303 12.267-3.19 10.832 1.498 18.384 10.237 25.965 4.128 3.581 9.965 5.056 14.984 5.621-1.681-1.688 2.874-1.857 6.012-3.033-.25-2.533.169-4.993 2.058-6.974 1.14-1.196 2.606-1.908 4.126-2.478.085-.197.157-.378.238-.566a5.061 5.061 0 0 1-.13-.53z"/><path fill="#C9C9C9" d="M92.67 197.062a18.977 18.977 0 0 1-.453-1.62c-.146-.596-.868-2.284.022-.358a7.154 7.154 0 0 1-.489-1.515c-14.153-.019-26.465-9.733-24.087-30.164-1.853-2.46-4.447 4.96-4.447 4.96s-7.085 20.575 11.213 28.548c6.098 2.658 11.485 4.564 12.756 3.796 2.648.538 5.039-1.309 5.936-2.522a14.741 14.741 0 0 1-.451-1.125z"/><path fill="#463014" d="M98.749 183.616c.021-1.724.374-3.396 1.207-5.06.058-.114.126-.224.189-.335-5.447-.048-11.719-.568-17.061-2.707-5.871-2.348-13.213-10.381-14.476-19.82 0 0-11.056 8.53-7.807 26.792 3.049 17.146 17.397 22.737 33.762 23.683.008-.11-1.841-3.931-1.257-6.269-9.291.674-19.682-2.916-24.699-11.168-4.593-7.555-3.304-20.453-1.417-22.344 4.606 14.529 21.172 17.482 31.559 17.228z"/><path fill="#463014" d="M100.463 173.216c-2.946 8.642-8.96 15.636-8.96 15.636s8.274-.376 8.731-1.84c.338-1.078 7.471-17.777 10.209-37.338-2.576 4.229-9.728 22.803-9.98 23.542z"/><path fill="#E78724" d="M147.34 153.294s9.379 14.345 16.263 24.524c1.066 1.575-6.884 1.685-6.884 1.685l-9.379-26.209zm-4.468-29.743s2.83 7.055 4.376 10.796c1.682 4.066 8.093 6.089 8.093 6.089s-3.322-3.485-3.322-12.316c0-3.706-4.783-5.179-4.783-5.179l-4.364.61z"/><path fill="#E78724" d="M145.729 127.54s5.793 6.897 16.555 3.034c10.762-3.862 11.865-17.657 11.865-21.521 0-3.863-20.417 3.863-23.177 5.518-2.76 1.658-8.001 8.278-5.243 12.969zm40.641-73.7s-9.932-1.933-16.554 3.311c-6.621 5.241-8.556 9.381-8.556 9.381l11.162 8.846s5.394-2.5 7.049-9.675c1.656-7.173.551-10.483 6.899-11.863z"/><path fill="#E78724" d="M148.626 107.618c4.276-6.069 11.32-8.717 16.949-9.156 9.597-.751 14.147 2.641 14.147 2.641s-15.712.665-20.24 6.612c-8.433 11.071-20.728 11.971-22.694 9.54 2.273.113 4.776-1.014 7.452-3.545 1.674-1.584 3.031-4.166 4.386-6.092zm26.526 21.463s17.43-5.993 14.119-12.062c-3.311-6.071-.676-9.378-.676-9.378s9.734 7.267 7.252 14.992c-1.524 4.742-4.083 8.174-18.126 14.757-6.735 12.511-1.391 35.031-1.709 35.138-.535.177-9.458-4.412-8.848-25.481.186-6.471.705-15.304 7.988-17.966zm-22.844-64.446a3676.18 3676.18 0 0 1 17.323 8.885l-3.939 1.973c.375.609.558.972.558.972l-4.046 1.84s-9.877 7.153-15.926 11.753c2.014-6.212 7.936-15.971 7.936-15.971s1.681-4.484-1.906-9.452zm-24.284 151.379c22.464 0 30.074-11.405 30.074-11.405l-3.508 8.55c-1.329 3.699-15.488 15.209-26.533 15.209"/><path fill="#E78724" d="M155.64 196.9s-2.069 12.633-10.345 12.633c-7.032 0-9.104-10.672-9.104-12.877l19.449.244zm13.773-19.052c-.735-2.025-3.31-10.21-4.141-17.659-.99-8.92-.627-21.968-.627-21.968s2.208 8.554 4.138 9.935c1.933 1.379 5.519 10.758 5.519 10.758s1.92 13.964 2.836 18.656c-2.531.507-4.659-.983-7.725.278zm19.989-55.353s-4.691-1.656-6.071-11.863c-1.376-10.209 1.657-19.038 1.657-19.038s-.277 14.071 1.379 16.83c1.655 2.76 3.034 3.586 4.967 7.173 1.931 3.589-.827 5.795-1.932 6.898z"/><path fill="#FDC168" d="M183.802 56.254l.959-.606c2.823.095-.959.606-.959.606z"/><path fill="#FBA919" d="M148.487 61.614s4.416-.735 6.622-4.046c2.208-3.312 8.463-9.934 18.432-10.008 9.967-.075 19.828 2.649 19.828 2.649l-8.608 5.439c-.91-.029-2.503-.018-5.139.07-10.802.359-12.465 11.044-12.465 11.044l-38.073-5.242"/><path fill="#FFF" d="M144.811 120.634s5.15 5.151 13.059 3.494c7.911-1.655 12.693-5.15 13.063-11.221.366-6.07-1.656-8.46-1.656-8.46s-8.83 2.761-13.06 6.44c-4.233 3.679-7.358 9.564-11.406 9.747z"/><path fill="#C9C9C9" d="M151.042 118.794s4.468 2.041 9.46.378c6.537-2.18 6.975-8.978 6.975-8.978s4.006 11.767-7.236 14.031c-9.015 1.817-14.348-3.408-14.348-3.408l5.149-2.023z"/><path fill="#463014" d="M180.243 74.488c3.645-3.022.929-5.828 1.218-9.262.154-1.827.298-3.552.901-4.502 3.354-5.295 11.264-6.902 11.345-6.918l3.713-.728-2.458-2.875c-.32-.373-10.41-10.002-26.031-4.96-10.924 3.524-19.01 15.472-19.312 15.955l5.477 2.576c.066-.103 6.46-11.332 15.833-14.354 7.576-2.446 14.558-.119 17.547 1.405-3.179 1.27-7.336 3.581-9.841 7.536-1.182 1.867-1.38 4.219-1.571 6.496-.253 3.015-.494 5.86-2.713 7.704l5.892 1.927zm9.731 44.127s-4.589-5.692-5.948-16.769c-.535-4.363.412-12.969 1.93-16.28-.276 8.14 1.795 16.28 1.795 16.28s1.395 15.113 2.223 16.769z"/><path fill="#463014" d="M165.77 68.739c.002-.011 1.473-6.438 5.55-9.683 5.751-4.574 12.775-2.141 12.84-2.119l1.023-3.15c-.343-.111-8.366-2.64-15.766 2.56-7.441 5.229-8.334 9.969-8.414 10.493l4.767 1.899zm9.788 45.793s2.408-3.447 1.974-7.239c-.214-1.872-1.082-3.794-2.63-4.477-2.881-1.266-4.157 1.998-4.157 1.998s4.052 1.001 4.813 9.718z"/><path fill="#463014" d="M149.113 119.787c-.099.188-.152.293-.152.293s7.51 5.637 15.208-.083c4.123-3.065 3.735-10.646 2.469-13.863-3.281.745-6.065 2.086-8.394 3.653 2.941-2.625 5.516-4.558 5.507-4.602l3.346-.948 6.496-2.226c.084.495 2.454 11.605-4.389 19.174-3.031 3.356-17.248 10.873-23.994-1.979l3.903.581z"/><path fill="#463014" d="M149.815 120.613c-4.229 6.438-14.897 2.758-14.714-4.046 0 0 7.13 3.934 13.429-3.311 3.678-4.23 15.465-15.893 31.446-12.017-11.036 2.428-25.648 12.511-30.161 19.374z"/><path fill="#463014" d="M181.47 138.78c-1.019.588-4.609 4.304-4.609 9.862-.002 2.786.277 16.787 1.659 25.342-2.077 1.347-3.521 1.635-5.589 3.008-1.034-9.907-1.778-24.263-1.43-30.062.396-6.606 3.932-11.039 7.211-12.93 1.027-.593 2.102-1.173 3.185-1.758 5.619-3.036 11.429-6.176 11.429-11.54 0-4.194-1.633-5.506-3.359-6.898l-.183-.15c-1.147-.926-2.446-1.976-3.212-3.7-2.097-4.712-2.44-16.718-.002-19.767 1.215-1.519 4.476-6.625 3.538-10.057-.358-1.311-1.185-2.28-2.526-2.969-1.421-.728-3.338-1.097-5.704-1.097-4.641 0-9.791 1.413-12.444 2.254-9.491 3.008-20.945 11.681-24.229 14.269-.094.072-.148.114-.159.121l-2.102 1.461 1.313-2.198c.085-.137 8.404-13.819 23.282-18.836 2.894-.977 8.58-2.614 14.171-2.614 3.327 0 6.147.581 8.385 1.726 2.726 1.393 4.569 3.618 5.336 6.43 1.879 6.891-4.239 14.564-4.448 14.809-.714 1.274-1.016 10.525.629 14.228.228.511.848 1.013 1.638 1.648.247.199.52.407.813.627 2.326 1.755 5.841 4.407 5.841 10.52 0 8.362-8.478 12.896-15.287 16.544-1.118.603-2.185 1.173-3.147 1.727z"/><path fill="#463014" d="M171.358 73.504c-1.349-2.284-4.796-6.692-12.743-10.567-8.867-4.322-19.131-6.516-30.51-6.521v-.002h-.042v.001c-11.381.006-21.646 2.2-30.511 6.521-7.946 3.875-11.393 8.283-12.743 10.567l-.578.766 6.805 1.515.216-.272.114-.25c.106-.45 1.017-2.877 8.604-6.577 8.111-3.956 17.57-5.961 28.114-5.964 10.545.003 20.001 2.009 28.11 5.964 7.588 3.7 8.503 6.127 8.605 6.577l.115.25.212.272 6.808-1.515-.576-.765zm8.885.984c3.645-3.022.929-5.828 1.218-9.262.154-1.827.298-3.552.901-4.502 3.354-5.295 11.264-6.902 11.345-6.918l3.713-.728-2.458-2.875c-.32-.373-10.41-10.002-26.031-4.96-10.924 3.524-19.01 15.472-19.312 15.955l5.477 2.576c.066-.103 6.46-11.332 15.833-14.354 7.576-2.446 14.558-.119 17.547 1.405-3.179 1.27-7.336 3.581-9.841 7.536-1.182 1.867-1.38 4.219-1.571 6.496-.253 3.015-.494 5.86-2.713 7.704l5.892 1.927z"/><path fill="#463014" d="M173.23 72.771l.768-.639c2.041-1.693 2.27-4.426 2.517-7.333.196-2.338.399-4.758 1.653-6.737 2.301-3.633 5.947-5.91 8.947-7.262a24.375 24.375 0 0 0-9.338-1.896 21.72 21.72 0 0 0-6.682 1.037c-8.694 2.804-14.838 12.935-15.532 14.123l-.261.412-6.479-3.046.328-.527c.075-.122 8.207-12.51 19.61-16.187 3.049-.985 6.114-1.482 9.108-1.482 10.974 0 17.455 6.542 17.511 6.608l3.072 3.593-4.638.91c-.076.015-7.792 1.629-10.986 6.671-.529.838-.667 2.496-.818 4.255-.088 1.046.132 2.066.346 3.051.464 2.138.944 4.348-1.761 6.588l-.235.195-7.13-2.334z"/><path fill="#463014" d="M165.77 68.739c.002-.011 1.473-6.438 5.55-9.683 5.751-4.574 12.775-2.141 12.84-2.119l1.023-3.15c-.343-.111-8.366-2.64-15.766 2.56-7.441 5.229-8.334 9.969-8.414 10.493l4.767 1.899z"/><path fill="#463014" d="M160.396 67.191l.063-.433c.081-.546 1.013-5.503 8.641-10.864 3.138-2.205 6.896-3.371 10.872-3.371 3.016 0 5.146.663 5.382.738l.523.17-1.367 4.202-.528-.175c-.198-.066-1.97-.637-4.357-.637-3.058 0-5.737.897-7.959 2.668-3.898 3.102-5.343 9.308-5.357 9.37l-.143.631-5.77-2.299zm23.406-10.937l.68-2.091c-.802-.205-2.424-.535-4.508-.535-3.802 0-7.247 1.067-10.239 3.17-6.26 4.4-7.755 8.375-8.094 9.7l3.755 1.495c.491-1.747 2.119-6.614 5.583-9.37 2.391-1.9 5.381-2.905 8.646-2.905 1.879.002 3.393.326 4.177.536zm-42.329 148.559c-2.843-3.04-4.525-6.31-4.931-7.314-.233-.572-.498-1.664.337-2.521.648-.663 1.775-1.003 3.35-1.003h2.424c2.525 0 5.479 0 7.235.002l1.474.002c2.068 0 3.088.591 3.579 1.088.713.723.825 1.727.333 2.983-1.316 3.36-4.303 6.103-5.185 6.863-1.155.997-2.814 1.59-4.446 1.59-1.672 0-3.153-.601-4.17-1.69zm2.46-83.821l5.883-.378s-1.502 2.652-2.478 6.083c-1.1 3.879 1.007 9.55 1.007 9.55s-7.85-8.886-4.412-15.255z"/><path fill="#E78724" d="M128.086 99.979c-3.751 0-8.642-.104-12.312-2.741 0 0 4.805 8.423 12.306 8.423l.006-1.065.006 1.065c7.501 0 12.306-8.423 12.306-8.423-3.669 2.637-8.566 2.741-12.312 2.741z"/><path fill="#463014" d="M138.414 99.938c-3.762 2.277-7.122 3.066-10.328 3.136-3.206-.069-6.565-.858-10.329-3.136 0 0 5.479 6.686 10.301 6.738v.005l.027-.003c.009 0 .017.003.027.003v-.005c4.821-.051 10.302-6.738 10.302-6.738zm12.866 122.107l-.42-5.454c17.669-1.359 23.236-18.293 23.266-20.075h5.472c.002 4.122-7.373 23.919-28.318 25.529z"/><path fill="#FFF" d="M157.165 186.579c.33-1.893.361-3.687-.037-5.449 1.595-1.196 4.449-1.641 6.591-2.336 1.753-1.111 10.725 1.137 17.234-6.739 8.152-9.861 6.434-15.748 6.434-15.748 2.092 2.321 4.117 1.437 7.306 12.267 3.191 10.832-1.5 18.384-10.238 25.965-4.13 3.581-9.966 5.056-14.985 5.621 1.681-1.688-2.874-1.857-6.009-3.033.249-2.533-.171-4.993-2.061-6.974-1.137-1.196-2.605-1.908-4.125-2.478-.085-.197-.159-.378-.238-.566.051-.173.097-.348.128-.53z"/><path fill="#C9C9C9" d="M163.499 197.062c.182-.532.317-1.075.452-1.62.146-.596.87-2.284-.022-.358.229-.493.38-1.002.489-1.515 14.153-.019 26.466-9.733 24.085-30.164 1.853-2.46 4.447 4.96 4.447 4.96s7.087 20.573-11.212 28.547c-6.098 2.659-11.484 4.564-12.757 3.796-2.65.538-5.04-1.309-5.934-2.522.167-.373.323-.748.452-1.124z"/><path fill="#463014" d="M157.419 183.616c-.019-1.724-.374-3.396-1.206-5.06-.059-.114-.126-.224-.188-.335 5.445-.048 11.719-.568 17.061-2.707 5.869-2.348 13.212-10.381 14.476-19.82 0 0 11.056 8.53 7.809 26.792-3.054 17.146-17.4 22.737-33.765 23.683-.008-.11 1.842-3.931 1.258-6.269 9.289.674 19.681-2.916 24.7-11.168 4.589-7.555 3.301-20.453 1.415-22.344-4.605 14.529-21.173 17.482-31.56 17.228z"/><path fill="#463014" d="M164.027 187.918c-1.955-2.113-5.551-4.634-13.838-4.634l-22.076-.014h-.054l-22.08.014c-8.285 0-11.88 2.521-13.836 4.634-2.85 3.075-3.296 7.354-1.326 12.702 5.237 14.237 12.598 28.7 37.24 28.722v.002l.027-.002.027.002v-.002c24.637-.022 31.999-14.484 37.239-28.722 1.972-5.349 1.526-9.627-1.323-12.702zm-3.836 11.703c-2.497 7.15-9.204 24.453-32.106 24.483-22.907-.03-29.611-17.333-32.107-24.483-1.381-3.965-1.275-6.899.323-8.723 1.091-1.246 3.602-2.733 9.319-2.733l5.974-.003c4.406-.004 9.939-.009 16.492-.012 6.55.003 12.085.008 16.491.012l5.97.003c5.72 0 8.229 1.486 9.321 2.733 1.598 1.826 1.703 4.758.323 8.723z"/><path fill="#463014" d="M155.706 173.216c2.944 8.642 8.959 15.636 8.959 15.636s-8.273-.376-8.73-1.84c-.336-1.078-7.471-17.777-10.208-37.338 2.574 4.229 9.726 22.803 9.979 23.542z"/></svg>