<svg xmlns="http://www.w3.org/2000/svg" width="256" height="256" viewBox="0 44 256 256"><path fill="#FBA919" d="M58.861 117.441s3.67 14.158 4.194 18.877c.526 4.719-9.438 15.206-9.438 20.45s2.095 14.682 13.632 19.403c11.538 4.719 13.109 16.778 13.109 24.121 0 7.342-4.194 21.497-4.194 21.497s-2.621 35.132 11.536 41.424 11.011 6.292 14.156 6.292c3.146 0 26.218 9.44 39.851 5.77 13.634-3.67 17.301-7.864 17.301-7.864s13.636 1.048 17.83-11.015c4.197-12.059 6.817-37.227 5.243-48.763-1.572-11.539-3.67-26.742 5.768-31.986 9.44-5.245 19.402-11.535 17.829-16.78-1.573-5.244-9.962-12.585-9.962-12.585s-2.097-13.107-.525-16.254c1.572-3.146 11.012-11.013 5.767-16.78-5.239-5.768-14.681-5.768-14.681-5.768l-12.06 1.047s-20.449-18.352-47.192-17.303c-26.741 1.048-43.522 17.303-43.522 17.303s-8.913-3.146-16.779 0c-7.867 3.147-9.436-.001-7.863 8.914z"/><path fill="#E78724" d="M106.773 195.513s-10.384 15.877-18 27.144c-1.179 1.744 7.617 1.865 7.617 1.865l10.383-29.009zm4.944-32.919s-3.13 7.809-4.845 11.949c-1.861 4.501-8.958 6.739-8.958 6.739s3.679-3.857 3.679-13.632c0-4.101 5.294-5.731 5.294-5.731l4.83.675z"/><path fill="#E78724" d="M108.555 167.009s-6.413 7.634-18.32 3.358c-11.911-4.274-13.131-19.543-13.131-23.819s22.597 4.275 25.651 6.107c3.056 1.834 8.853 9.162 5.8 14.354zM63.576 85.437s10.993-2.139 18.32 3.664c7.331 5.801 9.465 10.383 9.465 10.383l-12.352 9.791s-5.968-2.767-7.801-10.708c-1.831-7.939-.61-11.603-7.632-13.13z"/><path fill="#E78724" d="M105.349 144.959c-4.733-6.718-12.533-9.649-18.76-10.134-10.618-.831-15.66 2.923-15.66 2.923s17.39.736 22.403 7.319c9.332 12.253 22.945 13.249 25.122 10.558-2.518.125-5.286-1.122-8.25-3.924-1.852-1.753-3.353-4.61-4.855-6.742zm-29.357 23.755s-19.295-6.633-15.628-13.35c3.664-6.719.748-10.379.748-10.379s-10.774 8.042-8.029 16.592c1.687 5.248 4.518 9.047 20.061 16.333 7.456 13.847 1.54 38.773 1.894 38.891.591.195 10.468-4.883 9.793-28.203-.206-7.161-.778-16.938-8.839-19.884zm25.284-71.329c-8.09 4.11-19.174 9.834-19.174 9.834l4.363 2.183c-.417.674-.618 1.076-.618 1.076l4.478 2.037s10.93 7.917 17.627 13.008c-2.233-6.876-8.787-17.677-8.787-17.677s-1.858-4.963 2.111-10.461zm26.878 167.547c-24.868 0-33.291-12.624-33.291-12.624l3.886 9.463c1.469 4.095 17.14 16.835 29.367 16.835"/><path fill="#E78724" d="M97.588 243.778s2.288 13.982 11.449 13.982c7.785 0 10.079-11.813 10.079-14.253l-21.528.271zm-15.246-21.089c.814-2.241 3.664-11.3 4.58-19.545 1.098-9.873.698-24.314.698-24.314s-2.444 9.467-4.582 10.995c-2.136 1.527-6.107 11.908-6.107 11.908s-2.127 15.455-3.139 20.649c2.8.562 5.159-1.088 8.55.307zM60.22 161.425s5.189-1.833 6.718-13.13c1.526-11.3-1.834-21.071-1.834-21.071s.305 15.574-1.526 18.628c-1.833 3.052-3.358 3.968-5.497 7.939s.916 6.412 2.139 7.634z"/><path fill="#FDC168" d="M66.417 88.109l-1.06-.671c-3.125.105 1.06.671 1.06.671z"/><path fill="#FBA919" d="M105.5 94.041s-4.885-.814-7.329-4.478c-2.444-3.665-9.365-10.995-20.397-11.077-11.032-.083-21.947 2.932-21.947 2.932l9.527 6.02c1.008-.032 2.77-.019 5.684.078 11.958.397 13.798 12.224 13.798 12.224l42.14-5.802"/><path fill="#FFF" d="M109.573 159.365s-5.7 5.701-14.456 3.867c-8.755-1.831-14.048-5.7-14.456-12.419-.407-6.718 1.834-9.364 1.834-9.364s9.771 3.056 14.456 7.128c4.683 4.07 8.143 10.585 12.622 10.788z"/><path fill="#C9C9C9" d="M102.674 157.328s-4.944 2.259-10.47.419c-7.235-2.413-7.716-9.936-7.716-9.936s-4.438 13.023 8.004 15.53c9.979 2.01 15.881-3.772 15.881-3.772l-5.699-2.241z"/><path fill="#463014" d="M106.188 91.277c-.532-11.169 8.624-20.064 11.796-20.443.175 1.893-.177 9.276 2.995 11.545.923-6.029 4.045-12.677 16.375-17.032-2.641 7.003-.353 12.87.736 15.589 8.42-7.643 14.092-6.379 14.092-6.379s-5.849 10.095-3.562 16.719c-16.9-1.326-42.35 1.795-42.432.001zM70.355 108.29c-4.032-3.345-1.026-6.45-1.346-10.251-.173-2.022-.333-3.931-1-4.983-3.711-5.86-12.466-7.639-12.554-7.657l-4.109-.805 2.72-3.182c.352-.412 11.522-11.07 28.808-5.489 12.092 3.9 21.043 17.124 21.377 17.659l-6.063 2.851c-.071-.113-7.148-12.542-17.521-15.887-8.386-2.707-16.114-.132-19.425 1.555 3.52 1.405 8.12 3.963 10.893 8.341 1.308 2.067 1.529 4.67 1.741 7.19.281 3.337.544 6.486 3 8.526l-6.521 2.132zm-10.771 48.84s5.081-6.3 6.585-18.56c.592-4.829-.459-14.354-2.139-18.018.305 9.008-1.985 18.018-1.985 18.018s-1.543 16.728-2.461 18.56z"/><path fill="#463014" d="M86.376 101.927c-.002-.013-1.63-7.126-6.143-10.717-6.365-5.063-14.138-2.37-14.213-2.346l-1.129-3.486c.376-.123 9.261-2.922 17.448 2.833 8.236 5.788 9.225 11.034 9.311 11.614l-5.274 2.102zm-10.834 50.685s-2.666-3.816-2.186-8.012c.238-2.073 1.199-4.2 2.914-4.956 3.187-1.4 4.598 2.212 4.598 2.212s-4.484 1.107-5.326 10.756z"/><path fill="#463014" d="M104.81 158.428c.112.208.168.324.168.324s-8.314 6.239-16.834-.092c-4.561-3.392-4.13-11.784-2.732-15.343 3.633.824 6.715 2.309 9.291 4.042-3.255-2.905-6.105-5.044-6.098-5.094l-3.7-1.048-7.192-2.465c-.092.548-2.715 12.844 4.856 21.222 3.356 3.715 19.089 12.033 26.56-2.191l-4.319.645z"/><path fill="#463014" d="M104.032 159.342c4.681 7.125 16.492 3.053 16.288-4.479 0 0-7.892 4.355-14.864-3.664-4.071-4.682-17.114-17.59-34.803-13.3 12.216 2.686 28.388 13.847 33.379 21.443z"/><path fill="#463014" d="M69 179.449c1.126.65 5.098 4.764 5.1 10.916 0 3.084-.307 18.58-1.833 28.048 2.296 1.491 3.896 1.809 6.182 3.329 1.145-10.964 1.966-26.854 1.583-33.271-.438-7.313-4.353-12.219-7.984-14.312a149.843 149.843 0 0 0-3.522-1.945c-6.219-3.36-12.649-6.836-12.649-12.772 0-4.643 1.805-6.095 3.716-7.635l.206-.167c1.268-1.024 2.703-2.186 3.554-4.094 2.319-5.216 2.699-18.504 0-21.878-1.346-1.681-4.951-7.333-3.915-11.131.395-1.45 1.308-2.524 2.794-3.286 1.573-.806 3.697-1.214 6.313-1.214 5.138 0 10.836 1.564 13.776 2.495 10.506 3.33 23.182 12.929 26.816 15.793l.176.134 2.325 1.617-1.454-2.433c-.09-.152-9.3-15.295-25.767-20.848-3.204-1.081-9.498-2.893-15.684-2.893-3.683 0-6.807.643-9.282 1.91-3.016 1.542-5.058 4.004-5.906 7.116-2.08 7.627 4.693 16.12 4.924 16.391.79 1.409 1.125 11.649-.699 15.747-.251.566-.939 1.122-1.81 1.825-.273.221-.579.45-.901.694-2.574 1.943-6.465 4.877-6.465 11.643 0 9.256 9.381 14.274 16.921 18.311 1.237.666 2.418 1.296 3.485 1.91z"/><path fill="#463014" d="M70.355 108.29c-4.032-3.345-1.026-6.45-1.346-10.251-.173-2.022-.333-3.931-1-4.983-3.711-5.86-12.466-7.639-12.554-7.657l-4.109-.805 2.72-3.182c.352-.412 11.522-11.07 28.808-5.489 12.092 3.9 21.043 17.124 21.377 17.659l-6.063 2.851c-.071-.113-7.148-12.542-17.521-15.887-8.386-2.707-16.114-.132-19.425 1.555 3.52 1.405 8.12 3.963 10.893 8.341 1.308 2.067 1.529 4.67 1.741 7.19.281 3.337.544 6.486 3 8.526l-6.521 2.132z"/><path fill="#463014" d="M70.224 108.976l-.26-.216c-2.991-2.482-2.46-4.927-1.946-7.292.233-1.091.479-2.22.38-3.377-.164-1.947-.32-3.783-.906-4.71-3.534-5.58-12.073-7.367-12.158-7.385l-5.132-1.006 3.402-3.978c.062-.074 7.234-7.314 19.381-7.314 3.311 0 6.704.551 10.079 1.641 12.62 4.069 21.623 17.78 21.708 17.916l.364.582-7.171 3.374-.288-.457c-.771-1.316-7.572-12.53-17.191-15.633a24.031 24.031 0 0 0-7.396-1.147c-4.609 0-8.346 1.256-10.335 2.099 3.324 1.497 7.354 4.016 9.904 8.038 1.386 2.19 1.611 4.868 1.831 7.456.271 3.217.525 6.242 2.782 8.115l.852.707-7.9 2.587z"/><path fill="#463014" d="M86.376 101.927c-.002-.013-1.63-7.126-6.143-10.717-6.365-5.063-14.138-2.37-14.213-2.346l-1.129-3.486c.376-.123 9.261-2.922 17.448 2.833 8.236 5.788 9.225 11.034 9.311 11.614l-5.274 2.102z"/><path fill="#463014" d="M85.938 102.759l-.159-.7c-.017-.068-1.613-6.938-5.929-10.37-2.459-1.958-5.426-2.953-8.812-2.953-2.642 0-4.606.63-4.82.705l-.583.194-1.514-4.651.581-.188c.26-.082 2.618-.817 5.954-.817 4.4 0 8.56 1.292 12.036 3.731 8.442 5.934 9.473 11.42 9.562 12.025l.074.479-6.39 2.545zM71.04 87.517c3.617 0 6.93 1.112 9.573 3.215 3.832 3.052 5.634 8.44 6.179 10.371l4.154-1.655c-.376-1.466-2.032-5.867-8.958-10.736-3.313-2.329-7.125-3.509-11.332-3.509-2.309 0-4.102.367-4.988.592l.75 2.315a18.14 18.14 0 0 1 4.622-.593zm37.614 166.888c-1.804 0-3.646-.655-4.922-1.76-.977-.842-4.281-3.877-5.738-7.595-.543-1.391-.421-2.502.367-3.303.544-.549 1.673-1.204 3.964-1.204l1.63-.002c1.943-.002 5.214-.002 8.009-.002h2.68c1.743 0 2.993.376 3.711 1.111.923.947.627 2.154.37 2.788-.449 1.112-2.309 4.731-5.455 8.096-1.126 1.207-2.767 1.871-4.616 1.871zm1.892-94.644l-6.515-.419s1.666 2.936 2.744 6.732c1.218 4.294-1.114 10.571-1.114 10.571s8.686-9.834 4.885-16.884zm-8.132 111.846c-23.187-1.782-31.345-23.691-31.345-28.256l6.055.003-3.028-.003h3.028c.03 1.973 6.192 20.716 25.754 22.22l-.464 6.036z"/><path fill="#FFF" d="M95.898 232.354c-.363-2.095-.4-4.081.042-6.032-1.762-1.324-4.925-1.815-7.297-2.586-1.939-1.229-11.868 1.259-19.07-7.458-9.024-10.915-7.125-17.431-7.125-17.431-2.313 2.57-4.556 1.591-8.083 13.578-3.531 11.988 1.658 20.347 11.331 28.737 4.569 3.964 11.029 5.597 16.585 6.222-1.861-1.868 3.18-2.056 6.654-3.356-.277-2.805.187-5.527 2.278-7.72 1.261-1.323 2.884-2.112 4.567-2.742.094-.218.173-.418.263-.627a5.317 5.317 0 0 1-.145-.585z"/><path fill="#C9C9C9" d="M88.887 243.955a20.984 20.984 0 0 1-.501-1.793c-.161-.659-.96-2.528.025-.396a7.9 7.9 0 0 1-.541-1.677c-15.665-.02-29.292-10.773-26.659-33.386-2.051-2.723-4.922 5.49-4.922 5.49S48.447 234.966 68.7 243.79c6.749 2.943 12.712 5.052 14.119 4.201 2.931.596 5.577-1.448 6.569-2.792a15.244 15.244 0 0 1-.501-1.244z"/><path fill="#463014" d="M95.615 229.074c.024-1.908.414-3.757 1.336-5.599.064-.127.14-.248.209-.372-6.028-.052-12.97-.629-18.882-2.995-6.498-2.599-14.625-11.49-16.022-21.938 0 0-12.237 9.442-8.641 29.653 3.375 18.979 19.256 25.166 37.369 26.213.009-.123-2.038-4.351-1.391-6.939-10.284.747-21.785-3.227-27.337-12.361-5.083-8.361-3.657-22.637-1.568-24.729 5.096 16.08 23.431 19.348 34.927 19.067z"/><path fill="#463014" d="M97.513 217.563c-3.26 9.565-9.917 17.306-9.917 17.306s9.158-.417 9.664-2.037c.374-1.194 8.269-19.676 11.299-41.326-2.851 4.682-10.767 25.239-11.046 26.057z"/><path fill="#E78724" d="M149.397 195.513s10.381 15.877 18 27.144c1.18 1.744-7.619 1.865-7.619 1.865l-10.381-29.009zm-4.945-32.919s3.132 7.809 4.843 11.949c1.861 4.501 8.957 6.739 8.957 6.739s-3.677-3.857-3.677-13.632c0-4.101-5.294-5.731-5.294-5.731l-4.829.675z"/><path fill="#E78724" d="M147.614 167.009s6.412 7.634 18.322 3.358c11.911-4.275 13.132-19.543 13.132-23.819s-22.598 4.275-25.652 6.107c-3.054 1.834-8.855 9.162-5.802 14.354zm44.981-81.572s-10.992-2.139-18.322 3.664c-7.328 5.801-9.468 10.383-9.468 10.383l12.354 9.791s5.97-2.767 7.802-10.708c1.832-7.939.61-11.603 7.634-13.13z"/><path fill="#E78724" d="M150.821 144.959c4.732-6.718 12.529-9.649 18.759-10.134 10.621-.831 15.659 2.923 15.659 2.923s-17.391.736-22.403 7.319c-9.333 12.253-22.941 13.249-25.118 10.558 2.516.125 5.287-1.122 8.248-3.924 1.852-1.753 3.354-4.61 4.855-6.742zm29.358 23.755s19.292-6.633 15.628-13.35c-3.664-6.719-.749-10.379-.749-10.379s10.775 8.042 8.028 16.592c-1.687 5.248-4.519 9.047-20.062 16.333-7.455 13.847-1.539 38.773-1.892 38.891-.592.195-10.468-4.883-9.792-28.203.204-7.161.778-16.938 8.839-19.884zm-25.284-71.329c8.088 4.11 19.174 9.834 19.174 9.834l-4.361 2.183c.415.674.617 1.076.617 1.076l-4.478 2.037s-10.931 7.917-17.627 13.008c2.229-6.876 8.784-17.677 8.784-17.677s1.861-4.963-2.109-10.461zm-26.877 167.547c24.864 0 33.287-12.624 33.287-12.624l-3.883 9.463c-1.471 4.095-17.142 16.835-29.367 16.835"/><path fill="#E78724" d="M158.583 243.778s-2.29 13.982-11.45 13.982c-7.783 0-10.077-11.813-10.077-14.253l21.527.271zm15.244-21.089c-.813-2.241-3.663-11.3-4.582-19.545-1.097-9.873-.694-24.314-.694-24.314s2.443 9.467 4.579 10.995c2.139 1.527 6.108 11.908 6.108 11.908s2.126 15.455 3.139 20.649c-2.801.562-5.157-1.088-8.55.307zm22.125-61.264s-5.192-1.833-6.719-13.13c-1.524-11.3 1.834-21.071 1.834-21.071s-.308 15.574 1.526 18.628c1.832 3.054 3.358 3.968 5.497 7.939 2.137 3.971-.916 6.412-2.138 7.634z"/><path fill="#FDC168" d="M189.753 88.109l1.062-.671c3.124.105-1.062.671-1.062.671z"/><path fill="#FBA919" d="M150.667 94.041s4.888-.814 7.329-4.478c2.444-3.665 9.367-10.995 20.4-11.077 11.032-.083 21.946 2.932 21.946 2.932l-9.528 6.02c-1.008-.032-2.77-.019-5.687.078-11.955.397-13.796 12.224-13.796 12.224l-42.139-5.802"/><path fill="#FFF" d="M146.597 159.365s5.701 5.701 14.454 3.867c8.756-1.831 14.049-5.7 14.457-12.419.405-6.718-1.833-9.364-1.833-9.364s-9.772 3.056-14.454 7.128c-4.684 4.071-8.143 10.585-12.624 10.788z"/><path fill="#C9C9C9" d="M153.494 157.328s4.945 2.259 10.471.419c7.235-2.413 7.718-9.936 7.718-9.936s4.435 13.023-8.008 15.53c-9.977 2.01-15.88-3.772-15.88-3.772l5.699-2.241z"/><path fill="#463014" d="M185.814 108.29c4.033-3.345 1.029-6.45 1.348-10.251.171-2.022.33-3.931.998-4.983 3.711-5.86 12.467-7.639 12.556-7.657l4.109-.805-2.72-3.182c-.354-.412-11.522-11.07-28.811-5.489-12.091 3.9-21.041 17.124-21.374 17.659l6.06 2.851c.074-.113 7.151-12.542 17.525-15.887 8.385-2.707 16.112-.132 19.421 1.555-3.518 1.405-8.12 3.963-10.892 8.341-1.308 2.067-1.527 4.67-1.739 7.19-.28 3.337-.547 6.486-3.003 8.526l6.522 2.132zm10.77 48.84s-5.079-6.3-6.584-18.56c-.592-4.829.457-14.354 2.137-18.018-.307 9.008 1.986 18.018 1.986 18.018s1.545 16.728 2.461 18.56z"/><path fill="#463014" d="M169.795 101.927c.002-.013 1.63-7.126 6.143-10.717 6.365-5.063 14.139-2.37 14.211-2.346l1.132-3.486c-.378-.123-9.26-2.922-17.449 2.833-8.237 5.788-9.224 11.034-9.312 11.614l5.275 2.102zm10.833 50.685s2.666-3.816 2.185-8.012c-.237-2.073-1.198-4.2-2.911-4.956-3.188-1.4-4.601 2.212-4.601 2.212s4.485 1.107 5.327 10.756z"/><path fill="#463014" d="M151.36 158.428c-.11.208-.168.324-.168.324s8.311 6.239 16.831-.092c4.564-3.392 4.134-11.784 2.733-15.343-3.632.824-6.714 2.309-9.29 4.042 3.255-2.905 6.105-5.044 6.095-5.094l3.703-1.048 7.19-2.464c.093.548 2.716 12.844-4.859 21.222-3.354 3.715-19.089 12.034-26.556-2.191l4.321.644z"/><path fill="#463014" d="M152.137 159.342c-4.682 7.125-16.489 3.053-16.285-4.479 0 0 7.89 4.355 14.862-3.664 4.071-4.682 17.117-17.59 34.806-13.3-12.216 2.686-28.389 13.847-33.383 21.443z"/><path fill="#463014" d="M187.172 179.449c-1.127.65-5.101 4.764-5.101 10.916-.002 3.084.306 18.58 1.835 28.048-2.298 1.491-3.896 1.809-6.185 3.329-1.145-10.964-1.968-26.854-1.582-33.271.437-7.313 4.351-12.219 7.98-14.312a146.274 146.274 0 0 1 3.526-1.945c6.219-3.36 12.649-6.836 12.649-12.772 0-4.643-1.807-6.095-3.719-7.635l-.202-.167c-1.269-1.024-2.707-2.186-3.554-4.094-2.321-5.216-2.702-18.504-.003-21.878 1.345-1.681 4.953-7.333 3.917-11.131-.397-1.45-1.312-2.524-2.797-3.286-1.573-.806-3.695-1.214-6.313-1.214-5.136 0-10.837 1.564-13.774 2.495-10.505 3.33-23.182 12.929-26.818 15.793l-.175.134-2.327 1.617 1.454-2.433c.093-.152 9.301-15.295 25.768-20.848 3.203-1.081 9.497-2.893 15.684-2.893 3.683 0 6.805.643 9.281 1.91 3.017 1.542 5.058 4.004 5.906 7.116 2.079 7.627-4.693 16.12-4.924 16.391-.79 1.409-1.124 11.649.697 15.747.251.566.938 1.122 1.812 1.825.273.221.575.45.901.694 2.574 1.943 6.464 4.877 6.464 11.643 0 9.256-9.382 14.274-16.919 18.311-1.235.666-2.417 1.296-3.481 1.91z"/><path fill="#463014" d="M175.98 107.201c-1.492-2.527-5.307-7.407-14.104-11.695-9.814-4.784-21.174-7.212-33.768-7.218v-.002h-.048v.001c-12.596.007-23.957 2.435-33.77 7.218-8.795 4.289-12.61 9.168-14.104 11.695l-.64.848 7.532 1.676.239-.301.126-.276c.117-.498 1.126-3.185 9.523-7.28 8.977-4.378 19.447-6.598 31.117-6.601 11.671.003 22.137 2.223 31.113 6.601 8.398 4.096 9.411 6.782 9.525 7.28l.126.276.236.301 7.534-1.676-.637-.847z"/><path fill="#463014" d="M185.814 108.29c4.033-3.345 1.029-6.45 1.348-10.251.171-2.022.33-3.931.998-4.983 3.711-5.86 12.467-7.639 12.556-7.657l4.109-.805-2.72-3.182c-.354-.412-11.522-11.07-28.811-5.489-12.091 3.9-21.041 17.124-21.374 17.659l6.06 2.851c.074-.113 7.151-12.542 17.525-15.887 8.385-2.707 16.112-.132 19.421 1.555-3.518 1.405-8.12 3.963-10.892 8.341-1.308 2.067-1.527 4.67-1.739 7.19-.28 3.337-.547 6.486-3.003 8.526l6.522 2.132z"/><path fill="#463014" d="M178.053 106.39l.849-.707c2.259-1.874 2.512-4.899 2.785-8.116.218-2.588.443-5.266 1.83-7.456 2.548-4.021 6.582-6.541 9.904-8.038-1.989-.843-5.727-2.099-10.336-2.099-2.546 0-5.031.385-7.396 1.148-9.622 3.103-16.421 14.317-17.19 15.632l-.289.456-7.171-3.372.364-.583c.084-.135 9.084-13.846 21.705-17.916 3.375-1.09 6.767-1.641 10.081-1.641 12.146 0 19.319 7.241 19.381 7.314l3.401 3.977-5.133 1.007c-.085.017-8.625 1.804-12.16 7.384-.586.927-.739 2.762-.906 4.71-.097 1.158.146 2.287.383 3.377.513 2.366 1.044 4.812-1.949 7.292l-.26.216-7.893-2.585z"/><path fill="#463014" d="M169.795 101.927c.002-.013 1.63-7.126 6.143-10.717 6.365-5.063 14.139-2.37 14.211-2.346l1.132-3.486c-.378-.123-9.26-2.922-17.449 2.833-8.237 5.788-9.224 11.034-9.312 11.614l5.275 2.102z"/><path fill="#463014" d="M163.847 100.214l.07-.479c.09-.605 1.121-6.091 9.563-12.025 3.473-2.44 7.633-3.731 12.034-3.731 3.337 0 5.695.734 5.956.817l.58.188-1.514 4.651-.584-.194c-.219-.073-2.181-.705-4.823-.705-3.384 0-6.349.993-8.808 2.953-4.316 3.433-5.915 10.302-5.93 10.37l-.158.699-6.386-2.544zm25.906-12.105l.752-2.315c-.887-.226-2.682-.592-4.99-.592-4.207 0-8.02 1.181-11.331 3.509-6.929 4.87-8.585 9.27-8.96 10.736l4.157 1.655c.544-1.933 2.345-7.321 6.179-10.371 2.646-2.103 5.955-3.215 9.57-3.215 2.08.001 3.755.36 4.623.593zm-46.851 164.426c-3.146-3.364-5.007-6.983-5.457-8.096-.257-.633-.55-1.841.373-2.788.718-.735 1.965-1.111 3.708-1.111h2.682c2.796 0 6.065 0 8.009.002l1.631.002c2.289 0 3.417.654 3.96 1.204.79.8.914 1.911.37 3.303-1.457 3.719-4.763 6.754-5.738 7.595-1.28 1.104-3.116 1.76-4.922 1.76-1.85-.001-3.488-.665-4.616-1.871zm2.724-92.774l6.511-.419s-1.662 2.936-2.742 6.732c-1.218 4.294 1.114 10.571 1.114 10.571s-8.688-9.834-4.883-16.884z"/><path fill="#E78724" d="M128.086 136.503c-4.152 0-9.565-.114-13.627-3.033 0 0 5.318 9.323 13.62 9.323l.007-1.18.007 1.18c8.302 0 13.62-9.323 13.62-9.323-4.061 2.919-9.48 3.033-13.627 3.033z"/><path fill="#463014" d="M139.518 136.458c-4.164 2.52-7.883 3.393-11.432 3.471-3.548-.078-7.266-.951-11.432-3.471 0 0 6.064 7.4 11.401 7.458v.005l.03-.003c.01 0 .019.003.03.003v-.005c5.335-.057 11.403-7.458 11.403-7.458zm14.24 135.149l-.465-6.037c19.557-1.504 25.719-20.246 25.751-22.219h6.056c.002 4.563-8.16 26.474-31.342 28.256z"/><path fill="#FFF" d="M160.272 232.354c.364-2.095.399-4.081-.042-6.032 1.765-1.324 4.924-1.815 7.296-2.586 1.939-1.229 11.869 1.259 19.073-7.458 9.024-10.915 7.122-17.431 7.122-17.431 2.315 2.57 4.556 1.591 8.086 13.578 3.532 11.988-1.66 20.347-11.332 28.737-4.57 3.964-11.03 5.597-16.587 6.222 1.861-1.868-3.18-2.056-6.65-3.356.276-2.805-.189-5.527-2.28-7.72-1.258-1.323-2.884-2.112-4.565-2.742-.095-.218-.177-.418-.264-.627.056-.191.108-.384.143-.585z"/><path fill="#C9C9C9" d="M167.281 243.955c.202-.589.352-1.189.501-1.793.162-.659.963-2.528-.025-.396a7.79 7.79 0 0 0 .542-1.677c15.665-.02 29.293-10.773 26.657-33.386 2.051-2.723 4.923 5.49 4.923 5.49s7.844 22.771-12.41 31.596c-6.748 2.943-12.711 5.052-14.119 4.201-2.934.596-5.579-1.448-6.568-2.792.184-.411.357-.825.499-1.243z"/><path fill="#463014" d="M160.553 229.074c-.022-1.908-.414-3.757-1.335-5.599-.065-.127-.14-.248-.208-.372 6.027-.052 12.971-.629 18.883-2.995 6.495-2.599 14.623-11.49 16.021-21.938 0 0 12.237 9.442 8.642 29.653-3.379 18.979-19.258 25.166-37.37 26.213-.009-.123 2.039-4.351 1.392-6.939 10.281.747 21.783-3.227 27.338-12.361 5.08-8.361 3.655-22.637 1.566-24.729-5.096 16.08-23.433 19.348-34.929 19.067z"/><path fill="#463014" d="M167.866 233.836c-2.164-2.34-6.143-5.129-15.315-5.129l-24.434-.015h-.06l-24.438.015c-9.17 0-13.149 2.789-15.314 5.129-3.154 3.403-3.648 8.139-1.467 14.059 5.797 15.757 13.944 31.765 41.217 31.788v.002l.03-.002.03.002v-.002c27.269-.024 35.417-16.031 41.216-31.788 2.183-5.92 1.688-10.656-1.465-14.059zm-4.245 12.953c-2.763 7.913-10.187 27.064-35.536 27.098-25.354-.033-32.774-19.185-35.536-27.098-1.529-4.389-1.412-7.637.357-9.655 1.208-1.379 3.986-3.025 10.314-3.025l6.612-.004c4.877-.004 11.001-.009 18.253-.012 7.25.003 13.376.008 18.253.012l6.608.004c6.33 0 9.107 1.645 10.316 3.025 1.769 2.02 1.887 5.266.359 9.655z"/><path fill="#463014" d="M158.656 217.563c3.259 9.565 9.916 17.306 9.916 17.306s-9.157-.417-9.663-2.037c-.372-1.194-8.268-19.676-11.298-41.326 2.849 4.682 10.765 25.239 11.045 26.057z"/></svg>