<svg xmlns="http://www.w3.org/2000/svg" width="256" height="252"><path fill="#1EBBEE" d="M197.5 128.901c0-10.989-2.841-21.313-7.823-30.283 21.235-48.06-22.754-41.021-25.203-40.542-9.319 1.824-17.941 4.751-25.895 8.463a64.004 64.004 0 0 0-3.542-.102c-29.681 0-54.526 20.702-60.885 48.455 15.644-17.55 26.592-24.632 33.149-27.466a152.84 152.84 0 0 0-3.079 2.833c-.335.317-.658.638-.989.957-.665.639-1.327 1.278-1.976 1.924-.385.384-.76.771-1.14 1.158-.574.584-1.147 1.169-1.708 1.757-.398.417-.787.837-1.178 1.255-.524.561-1.044 1.122-1.556 1.686a193.632 193.632 0 0 0-2.615 2.951 172.382 172.382 0 0 0-2.497 2.95c-.388.469-.774.937-1.154 1.405-.41.507-.812 1.013-1.213 1.518-.388.49-.777.979-1.156 1.468-.361.465-.712.929-1.066 1.394-.399.524-.801 1.049-1.189 1.571-.278.374-.545.743-.818 1.116a193.297 193.297 0 0 0-6.759 9.842l-.015.024c-.536.835-1.053 1.658-1.561 2.474l-.083.134c-.508.819-.998 1.624-1.476 2.42l-.051.084a200.86 200.86 0 0 0-3.55 6.157c-5.625 10.194-8.364 17.316-8.483 17.739-17.765 63.512 37.68 36.691 45.417 32.688a62.214 62.214 0 0 0 27.63 6.432c27.16 0 50.268-17.337 58.87-41.547h-32.82c-4.856 8.204-14.206 13.762-24.946 13.762-15.738 0-28.495-11.924-28.495-26.633h89.341c.339-2.633.514-5.318.514-8.044zm-11.669-61.467c5.379 3.63 9.694 9.332 2.284 28.532-7.105-11.428-17.797-20.393-30.504-25.32 5.781-2.792 20.096-8.697 28.22-3.212zM71.52 184.806c-4.381-4.494-5.155-15.438 4.512-35.378 4.879 14.027 14.615 25.782 27.199 33.241-6.259 3.444-22.873 11.2-31.711 2.137zm35.988-64.941c.5-14.296 12.941-25.742 28.228-25.742 15.286 0 27.729 11.446 28.228 25.742h-56.456z"/></svg>