<svg xmlns="http://www.w3.org/2000/svg" width="256" height="256" viewBox="0 0 256 256"><path fill="#F7DF1E" d="M6.5 6.5h243v243H6.5V6.5z"/><path d="M70.394 209.568l18.596-11.254c3.587 6.361 6.851 11.743 14.679 11.743 7.503 0 12.234-2.935 12.234-14.353v-77.645h22.836v77.967c0 23.652-13.865 34.418-34.091 34.418-18.268 0-28.872-9.461-34.254-20.879m80.749-2.443l18.594-10.767c4.895 7.993 11.257 13.865 22.511 13.865 9.462 0 15.497-4.73 15.497-11.256 0-7.829-6.199-10.603-16.64-15.168l-5.706-2.448c-16.477-7.013-27.405-15.821-27.405-34.416 0-17.128 13.049-30.178 33.439-30.178 14.518 0 24.956 5.057 32.459 18.27l-17.779 11.418c-3.916-7.014-8.155-9.786-14.68-9.786-6.688 0-10.929 4.24-10.929 9.786 0 6.851 4.24 9.624 14.026 13.866l5.709 2.446c19.41 8.319 30.341 16.801 30.341 35.884 0 20.555-16.149 31.809-37.842 31.809-21.206 0-34.908-10.112-41.595-23.325"/></svg>