<svg xmlns="http://www.w3.org/2000/svg" width="256" height="256"><path fill="#D33833" d="M181.098 110.989c0 30.031-23.811 54.399-53.198 54.399s-53.197-24.368-53.197-54.399c0-30.03 23.81-54.398 53.197-54.398 29.387-.001 53.198 24.368 53.198 54.398"/><path fill="#EF3D3A" d="M76.89 124.461s-3.861-56.715 48.435-58.347l-3.646-6.092-28.357 9.524-8.108 9.31-7.079 13.558-4.033 15.788 1.202 10.554"/><path fill="#231F20" d="M91.477 73.88c-9.31 9.566-15.102 22.736-15.102 37.324 0 14.586 5.792 27.757 15.102 37.324 9.353 9.566 22.18 15.443 36.423 15.443 14.243 0 27.071-5.877 36.422-15.443 9.312-9.566 15.103-22.737 15.103-37.324 0-14.586-5.791-27.758-15.103-37.324-9.352-9.523-22.18-15.443-36.422-15.443-14.201 0-27.071 5.876-36.423 15.443zm-2.36 76.921c-9.91-10.124-16.045-24.153-16.045-39.597 0-15.445 6.135-29.473 16.045-39.641 9.91-10.125 23.639-16.432 38.783-16.432 15.144 0 28.874 6.307 38.784 16.432 9.908 10.125 16.045 24.153 16.045 39.641 0 15.443-6.137 29.473-16.045 39.597-9.91 10.169-23.641 16.433-38.784 16.433-15.145-.001-28.873-6.264-38.783-16.433z"/><path fill="#F0D6B7" d="M150.294 111.289l-8.108 1.202-10.939 1.244-7.078.172-6.907-.215-5.276-1.631-4.678-5.061-3.646-10.339-.815-2.231L98 92.8l-2.832-4.676-2.016-6.692 2.231-5.877 5.277-1.845 4.247 2.018 2.017 4.461 2.445-.386.815-1.03-.815-4.676-.214-5.877 1.201-8.107-.043-4.633 3.69-5.922 6.478-4.676 11.326-4.848 12.569 1.844 10.94 7.895 5.062 8.107 3.261 5.877.815 14.586-2.445 12.57-4.462 11.154-4.204 5.963"/><path fill="#335061" d="M143.43 146.34l-28.958 1.201v4.848l2.445 17.031-1.201 1.416-20.25-6.907-1.416-2.445-2.016-22.908-4.762-13.729-1.03-3.26 16.217-11.154 5.062-2.017 4.462 5.491 3.861 3.433 4.461 1.416 2.017.601 2.445 10.554 1.845 2.231 4.677-1.632-3.261 6.308 17.589 8.322-2.187 1.2"/><path fill="#6D6B6D" d="M95.38 75.638l5.277-1.844 4.247 2.016 2.017 4.461 2.445-.386.601-2.444-1.201-4.677 1.201-11.153-1.03-6.092 3.646-4.248 7.894-6.264-2.23-3.046-11.155 5.491-4.676 3.646-2.617 5.663-4.032 5.491-1.201 6.478.814 6.908"/><path fill="#DCD9D8" d="M103.703 56.59s3.046-7.507 15.187-11.154c12.141-3.646.601-2.617.601-2.617l-13.171 5.063-5.063 5.063-2.23 4.033 4.676-.388m-6.092 17.633s-4.247-14.2 11.969-16.216l-.6-2.445-11.155 2.617-3.26 10.555.815 6.906 2.231-1.417"/><path fill="#F7E4CD" d="M104.089 93.056l2.66-2.574s1.201.129 1.416 1.545c.214 1.416.815 14.201 9.524 21.063.815.644-6.478-1.03-6.478-1.03l-6.479-10.125m36.638-12.741s.472-6.133 2.146-5.662c1.674.472 1.674 2.145 1.674 2.145s-4.034 2.575-3.82 3.517m16.818-22.479s-3.346.687-3.646 3.647c-.3 2.959 3.646.601 4.248.386m-25.101-3.818s-4.461.601-4.461 3.433c0 2.83 5.063 2.617 6.479 1.416m-29.559 8.322s-7.679-4.677-8.494-.215c-.815 4.462-2.617 7.68 1.201 12.355l-2.617-.815-2.445-6.264-.815-6.093 4.676-4.848 5.277.387 3.046 2.444.171 3.049m3.647-12.786s3.433-17.847 20.852-21.278c14.328-2.831 21.879.601 24.711 3.86 0 0-12.785-15.187-24.926-10.553-12.142 4.676-21.064 13.171-20.851 18.619.343 9.352.214 9.352.214 9.352m46.976-15.401s-5.877-.214-6.092 5.063c0 0 0 .814.387 1.629 0 0 4.676-5.276 7.507-2.445"/><path fill="#F7E4CD" d="M131.074 59.165s-1.029-8.064-7.894-3.389c-4.461 3.045-4.033 7.293-3.261 8.107.815.814.601 2.445 1.202 1.33.601-1.116.429-4.764 2.66-5.792 2.188-1.027 5.877-2.145 7.293-.256"/><path fill="#49728B" d="M112.026 113.907l-19.048 8.494s7.894 31.403 3.861 41.142l-2.832-1.029-.214-11.97-5.277-22.652-2.231-6.263 19.863-13.386 5.878 5.664m1.931 17.373l2.703 3.305v12.141h-3.218s-.386-8.494-.386-9.523c0-1.028.386-4.676.386-4.676m.6 16.042l-9.138.387 2.617 1.845 6.479 1.03"/><path fill="#335061" d="M145.23 146.554l7.508-.214 1.846 18.619-7.68 1.03-1.674-19.435"/><path fill="#335061" d="M147.248 146.554l11.324-.601s4.678-11.755 4.678-12.355c0-.6 4.033-17.03 4.033-17.03l-9.139-9.524-1.846-1.63-4.848 4.848v18.833l-4.202 17.459"/><path fill="#49728B" d="M152.311 145.139l-7.078 1.415 1.029 5.663c2.616 1.202 7.078-2.017 7.078-2.017m-.817-40.541l14.201 10.554.387-4.849-10.727-9.909-3.861 4.204"/><path fill="#FFF" d="M121.078 186.452l-4.205-17.032-2.102-12.569-.343-9.31 19.005-1.029h11.797l-1.071 21.279 1.845 16.431-.215 3.045-15.4 1.202-9.311-2.017"/><path fill="#DCD9D8" d="M142.613 146.34s-1.028 21.063 2.018 36.079c0 0-6.092 3.861-14.973 4.848l17.031-.6 2.017-1.201-2.444-33.205-.645-7.122"/><path fill="#FFF" d="M154.884 163.372l7.896-2.231 14.972-.815 2.231-6.905-4.032-11.972-4.677-.601-6.479 2.019-6.178 3.046-3.304-.603-2.574 1.03"/><path fill="#DCD9D8" d="M154.756 159.296s5.276-2.445 6.092-2.23l-2.23-11.153 2.617-1.03s1.845 10.555 1.845 11.755c0 0 11.325.601 12.354.601 0 0 2.446-4.676 1.846-9.523l2.23 6.479.215 3.646-3.261 4.85-3.647.813-6.092-.214-2.016-2.617-7.079 1.027-2.229.816"/><path fill="#FFF" d="M146.775 144.923l-4.461-11.325-4.678-6.692s1.029-2.83 2.446-2.83h4.675l4.463 1.63-.387 7.508-2.058 11.709"/><path fill="#DCD9D8" d="M147.678 141.063s-5.662-10.939-5.662-12.569c0 0 1.027-2.446 2.443-1.845 1.416.601 4.462 2.23 4.462 2.23v-3.861l-6.905-1.416-4.679.602 7.896 18.705 1.629.215"/><path fill="#FFF" d="M122.88 114.336l-5.621-.601-5.276-1.631v1.846l2.574 2.83 8.108 3.646"/><path fill="#DCD9D8" d="M113.828 114.937s6.264 2.616 8.323 2.017l.214 2.444-5.663-1.201-3.432-2.445.558-.815"/><path fill="#D33833" d="M154.884 124.761c-3.432-.086-6.563-.515-9.267-1.288.172-1.114-.172-2.188.129-3.003.771-.558 2.018-.558 3.175-.686-.985-.473-2.403-.688-3.519-.387-.043-.771-.387-1.244-.6-1.845 1.93-.687 6.477-5.19 9.053-3.731 1.242.729 1.758 4.762 1.844 6.779.086 1.629-.172 3.258-.815 4.161"/><path stroke="#D33833" stroke-width="2" d="M154.884 124.761c-3.432-.086-6.563-.515-9.267-1.288.172-1.114-.172-2.188.129-3.003.771-.558 2.018-.558 3.175-.686-.985-.473-2.403-.688-3.519-.387-.043-.771-.387-1.244-.6-1.845 1.93-.687 6.477-5.19 9.053-3.731 1.242.729 1.758 4.762 1.844 6.779.086 1.629-.172 3.258-.815 4.161h0z"/><path fill="#D33833" d="M138.453 119.14c0 .258 0 .516-.044.772-1.072.687-2.788.687-3.988 1.288a11.27 11.27 0 0 1 4.29 1.072c-.044.644-.044 1.33-.086 1.974-1.975 1.329-3.775 3.346-6.094 4.633-1.114.601-4.932 2.146-6.09 1.845-.644-.172-.729-.986-.987-1.759-.558-1.63-1.845-4.291-1.974-6.778-.128-3.132-.472-8.408 2.917-7.766 2.746.516 5.919 1.759 8.023 2.917 1.33.772 2.059 1.631 4.033 1.802"/><path stroke="#D33833" stroke-width="2" d="M138.453 119.14c0 .258 0 .516-.044.772-1.072.687-2.788.687-3.988 1.288a11.27 11.27 0 0 1 4.29 1.072c-.044.644-.044 1.33-.086 1.974-1.975 1.329-3.775 3.346-6.094 4.633-1.114.601-4.932 2.146-6.09 1.845-.644-.172-.729-.986-.987-1.759-.558-1.63-1.845-4.291-1.974-6.778-.128-3.132-.472-8.408 2.917-7.766 2.746.516 5.919 1.759 8.023 2.917 1.33.772 2.059 1.631 4.033 1.802h0z"/><path fill="#D33833" d="M140.384 122.873c-.3-1.716-.646-2.188-.515-3.69 4.59-3.046 5.406 5.235.515 3.69"/><path stroke="#D33833" stroke-width="2" d="M140.384 122.873c-.3-1.716-.646-2.188-.515-3.69 4.59-3.046 5.406 5.235.515 3.69h0z"/><path fill="#EF3D3A" d="M146.99 124.246s-1.415-2.017-.387-2.617c1.029-.601 2.017 0 2.617-1.03.602-1.029 0-1.63.215-2.832.215-1.201 1.201-1.416 2.23-1.63s3.861-.6 4.247.386l-1.202-3.646-2.443-.814-7.681 4.461-.387 2.23v4.462m-18.487 7.722c-.258-3.175-.515-6.307-.772-9.48-.429-4.719 1.115-3.904 5.233-3.904.644 0 3.861.729 4.076 1.201 1.114 2.273-1.845 1.759 1.287 3.475 2.616 1.416 7.293-.856 6.221-4.074-.601-.729-3.09-.215-3.989-.688l-4.764-2.445c-2.016-1.029-6.649-2.574-8.794-1.115-5.449 3.689.343 12.957 2.274 16.818"/><path fill="#231F20" d="M131.074 59.165c-5.534-1.287-8.28 2.316-9.953 6.049-1.502-.343-.901-2.402-.515-3.432.986-2.703 4.977-6.351 8.236-5.834 1.374.17 3.262 1.457 2.232 3.217m26.899 6.263h.258c1.246 2.575 2.317 5.32 3.903 7.638-1.071 2.487-7.979 4.633-7.893.256 1.501-.643 4.075-.127 5.405-.985-.771-2.104-1.845-3.906-1.673-6.909m-24.112.086c1.203 2.188 1.589 4.462 3.262 6.093.771.729 2.23 1.629 1.502 3.688-.172.472-1.416 1.544-2.146 1.759-2.617.771-8.751.172-6.691-3.131 2.188.085 5.105 1.416 6.734-.172-1.245-1.975-3.474-5.92-2.661-8.237m23.125 22.051c-3.947 2.531-8.366 5.319-14.887 4.676-1.373-1.2-1.932-3.903-.559-5.662.688 1.201.258 3.432 2.23 3.775 3.688.644 7.979-2.274 10.64-3.261 1.63-2.789-.13-3.776-1.63-5.577-3.047-3.646-7.079-8.193-6.951-13.643 1.245-.901 1.331 1.373 1.503 1.759 1.587 3.688 5.577 8.451 8.451 11.626.729.771 1.888 1.544 2.016 2.059.389 1.459-.985 3.261-.813 4.248m-52.254-2.66c-1.244-.729-1.544-3.818-3.003-3.904-2.102-.128-1.716 4.033-1.716 6.479-1.416-1.287-1.673-5.32-.644-7.379-1.201-.601-1.716.645-2.402 1.073.902-6.222 9.138-2.876 7.765 3.731m54.745 5.277c-1.847 3.519-4.463 7.38-9.869 7.507-.129-1.115-.215-2.873 0-3.561 4.162-.428 6.735-2.53 9.869-3.946m-25.914 2.274c3.434 1.802 9.783 2.016 14.5 1.887.258 1.03.258 2.316.258 3.561-6.05.258-13.173-1.245-14.758-5.448m-.645 3.346c2.402 6.006 10.598 5.32 17.505 5.148-.301.771-.944 1.716-1.803 2.017-2.229.901-8.322 1.587-11.411-.043-1.932-1.03-3.217-3.39-4.291-4.762-.471-.643-3.045-2.317 0-2.36"/><path fill="#81B0C4" d="M156.688 128.879c-2.789 4.806-5.492 9.737-8.795 13.942 1.373-4.075 1.974-10.939 2.188-16.174 2.916-1.371 5.403.301 6.607 2.232"/><path fill="#231F20" d="M171.744 146.125c-3.131.646-5.319 3.688-8.408 3.476 1.717-2.362 4.635-3.39 8.408-3.476m1.373 4.892c-2.573.256-5.577.687-8.15.473 1.244-1.889 5.963-1.203 8.15-.473m.903 4.247c-2.875.043-6.437 0-9.183-.216 1.63-1.759 7.336-.643 9.183.216"/><path fill="#DCD9D8" d="M151.279 166.847c.43 3.604 1.847 7.25 1.674 11.197-1.587.516-2.488.986-4.633.986-.129-3.348-.602-8.494-.473-11.713 1.031.086 2.576-.728 3.432-.47"/><path fill="#F0D6B7" d="M146.646 113.649c-1.459.943-2.66 2.102-4.074 3.131-3.09.173-4.764-.213-6.994-1.974.043-.128.258-.085.258-.257 3.305 1.459 7.51-.599 10.81-.9"/><path fill="#81B0C4" d="M129.4 136.087c.9-3.905 4.461-5.964 7.681-8.109 3.303 4.204 5.319 9.61 7.55 14.844-5.277-1.589-10.639-4.119-15.231-6.735"/><path fill="#231F20" d="M147.85 167.36c-.129 3.218.299 8.322.471 11.713 2.146 0 3.047-.473 4.634-.987.173-3.947-1.244-7.593-1.673-11.197-.859-.3-2.404.514-3.432.471zm-33.121-18.189c1.416 12.913 3.432 23.725 7.164 35.18 8.28 2.53 18.233 2.746 25.569.471-1.33-6.435-.772-14.284-1.544-21.191-.602-5.191-.301-10.382-1.115-15.659-8.88-1.847-21.408-.431-30.074 1.199zm32.175-1.115c-.086 5.534.258 11.025.687 16.561 2.146-.301 3.562-.516 5.535-.986-.646-5.32-.56-11.368-1.89-16.088-1.5.041-2.83-.002-4.332.513zm10.769-.901c-1.03-.217-2.188 0-3.132 0 .473 4.504 1.545 9.479 1.932 14.242 1.5.043 2.316-.687 3.561-.9.084-4.161-.345-9.911-2.361-13.342zm16.347 14.929c3.174-.772 5.146-4.634 4.246-8.623-.602-2.66-1.629-7.722-2.789-9.438-.814-1.244-3.088-2.916-4.933-1.759-2.961 1.888-8.151 2.445-10.297 4.72 1.071 3.604 1.415 8.494 1.845 13.043 3.689.213 8.194-1.03 11.283.299-2.145.688-4.893.688-6.734 1.718 1.543.727 5.061.598 7.379.04zm-29.432-19.263c-2.23-5.233-4.247-10.641-7.551-14.844-3.217 2.146-6.734 4.204-7.68 8.109 4.635 2.617 9.997 5.147 15.231 6.735zm5.491-16.174c-.214 5.234-.813 12.099-2.188 16.174 3.305-4.246 6.006-9.139 8.795-13.942-1.202-1.931-3.689-3.603-6.607-2.232zm-6.222-2.186c-1.244-.129-2.315 1.458-3.945.772-.387.429-.729.857-1.116 1.287 3.604 4.375 5.276 10.553 8.065 15.659 1.502-4.934 1.33-10.297 1.673-15.659-2.057.084-3.218-1.931-4.677-2.059zm-3.988-5.278c-.131 1.502.215 1.975.515 3.69 4.891 1.545 4.075-6.736-.515-3.69zm-5.448-1.802c-2.104-1.158-5.276-2.401-8.023-2.917-3.39-.645-3.046 4.633-2.917 7.766.129 2.487 1.416 5.104 1.974 6.777.258.771.343 1.588.987 1.76 1.158.258 5.019-1.244 6.091-1.844 2.316-1.245 4.119-3.262 6.093-4.634.042-.644.042-1.33.086-1.974-1.202-.601-2.532-.986-4.29-1.072 1.157-.602 2.916-.602 3.988-1.287 0-.258 0-.516.044-.771-1.975-.216-2.704-1.075-4.033-1.804zm-20.164-3.646c-1.759 1.802 4.934 4.203 7.036 4.332 0-1.114.643-2.188.515-3.002-2.532-.429-5.835-.128-7.551-1.33zm21.622.815c0 .172-.214.129-.258.257 2.273 1.759 3.947 2.146 6.992 1.974 1.373-.986 2.617-2.188 4.076-3.131-3.343.3-7.548 2.358-10.81.9zm19.82 6.006c-.086-1.974-.602-6.049-1.844-6.777-2.576-1.502-7.123 3.045-9.053 3.731.213.601.557 1.073.6 1.845 1.158-.3 2.531-.086 3.519.387-1.157.128-2.403.128-3.175.686-.258.814.085 1.889-.129 3.003 2.703.772 5.835 1.159 9.267 1.287.643-.86.901-2.489.815-4.162zm-44.402-5.106c-.558-.385-4.29-5.233-4.805-5.019-6.735 2.66-13.042 7.25-18.662 11.626 5.363 11.54 7.551 25.654 7.937 39.254 6.135 2.875 11.54 7.036 19.906 7.467-.986-6.822-1.845-12.957-2.402-19.393-2.103-.9-5.105.043-7.079-.258 0-2.357 3.003-1.029 3.26-2.616.172-1.202-1.673-1.286-1.072-3.175 1.544.559 2.359 1.802 3.99 2.273 1.501-3.262 0-9.053.214-11.799.043-.515.258-2.832 1.416-2.445 1.03.344-.043 6.222.043 8.796.085 2.401-.301 4.677.687 6.178 8.065-1.114 16.258-1.803 25.01-2.06-1.93-.815-4.203-1.588-6.691-3.004-1.373-.771-5.621-2.358-6.006-3.646-.644-2.06 1.629-3.133 2.016-4.892-4.076 2.23-4.848-2.146-5.833-5.19-.858-2.789-1.373-4.892-1.587-6.479-3.564-1.799-7.339-3.472-10.342-5.618zm40.842-4.461c5.62-2.703 6.65 10.168 4.42 14.328.342 1.244 1.5 1.717 1.974 2.832-3.132 5.621-6.607 10.854-9.825 16.389 2.359-1.501 5.792-.258 8.581-1.372 1.028-.388 1.759-2.745 2.53-4.634 2.146-5.147 4.377-11.67 5.363-16.561.213-1.115.857-3.561.686-4.547-.258-1.802-2.659-3.132-3.903-4.205-2.272-2.059-3.69-3.818-6.093-5.749-.901 1.417-2.961 2.361-3.733 3.519zM98.47 61.181c-2.661 2.96-2.103 8.452-1.802 12.399 4.848-3.046 11.24.257 11.197 5.405 2.317-.043.858-2.875.429-4.72-1.373-5.963 2.317-12.397.172-17.847-4.162.344-7.551 2.019-9.996 4.763zm19.133-17.117c-6.049 1.716-13.814 6.134-16.302 11.583 1.93-.301 3.26-1.244 5.148-1.373.729-.043 1.673.299 2.488.084 1.63-.429 3.046-4.117 4.291-5.49 1.201-1.33 2.66-1.931 3.646-3.132.644-.3 1.587-.3 1.63-1.244-.257-.3-.558-.514-.901-.428zm31.534 1.629c-6.308-3.561-16.947-6.221-23.64-2.874-5.405 2.703-12.698 7.165-15.187 12.786 2.317 5.447-.686 10.424-.901 15.959-.085 2.959 1.374 5.49 1.502 8.707-.815 1.332-3.218 1.459-4.891 1.375-.557-2.832-1.544-6.008-4.461-6.351-4.119-.472-7.165 2.96-7.336 6.521-.215 4.205 3.217 11.154 8.108 10.684 1.888-.172 2.359-2.061 4.418-2.061 1.115 2.231-1.716 2.918-2.017 4.506-.085.429.215 2.016.429 2.787.901 3.647 2.875 8.409 4.805 11.198 2.488 3.562 7.336 4.075 12.57 4.418.943-2.017 4.375-1.845 6.606-1.329-2.704-1.074-5.191-3.647-7.25-5.921-2.359-2.616-4.762-5.405-4.891-8.838 4.504 6.222 8.194 11.669 16.345 14.415 6.178 2.059 13.387-.943 18.147-4.29 1.974-1.373 3.132-3.604 4.547-5.578 5.233-7.55 7.681-18.276 7.165-28.7-.215-4.291-.215-8.58-1.674-11.455-1.502-3.004-6.605-5.75-9.609-3.004-.559-2.959 2.488-4.762 6.049-3.689-2.53-3.302-5.189-7.206-8.834-9.266zm11.754 96.999c4.935-2.443 14.114-6.563 17.16 0 1.158 2.446 2.488 6.522 3.047 9.054.814 3.519-.9 10.981-4.549 12.141-3.218 1.03-6.949.987-10.811.216-.473-.388-.944-1.029-1.33-1.718-2.746-.085-5.362.13-7.508 1.288.215 2.059-1.158 2.359-2.488 2.789-.943 3.816 1.931 8.794 1.244 12.227-.473 2.487-3.518 2.875-5.748 3.303-.086 1.373.086 2.531.257 3.689-.515 1.889-2.789 2.961-4.978 3.219-7.164.856-18.018 1.244-24.882-1.246-1.931-4.717-3.432-10.424-5.02-15.785-6.692.729-12.141-2.875-17.246-5.277-1.759-.814-4.204-1.286-4.891-2.703-.644-1.372-.386-3.988-.558-6.435-.386-6.308-.772-12.398-2.402-18.834-.729-2.917-2.06-5.448-2.96-8.236-.858-2.573-2.317-5.792-2.703-8.366-.558-3.818 3.046-4.033 5.32-5.705 3.561-2.574 6.349-3.99 10.21-6.308 1.158-.687 4.59-2.401 4.977-3.218.772-1.588-1.33-3.818-1.888-5.063-.901-1.973-1.373-3.646-1.502-5.577-3.217-.515-5.706-2.445-7.164-4.59-2.445-3.604-4.161-10.253-2.017-15.271.172-.387.987-1.201 1.115-1.803.258-1.201-.472-2.789-.514-4.076-.215-6.563 1.115-12.227 5.534-14.2 1.802-7.164 8.237-9.523 14.287-13.084 2.273-1.33 4.762-2.188 7.336-3.132 9.223-3.389 23.424-2.746 31.104 3.046 3.261 2.445 8.451 7.636 10.297 11.412 4.933 9.91 4.547 26.514 1.115 38.611-.473 1.631-1.115 3.99-2.061 5.963-.645 1.373-2.66 4.076-2.445 5.277.258 1.244 4.635 4.548 5.578 5.448 1.672 1.63 4.889 3.776 5.147 5.834.3 2.188-.944 5.19-1.587 7.294-2.058 7.031-4.117 13.511-6.476 19.816z"/><path fill="#F7E4CD" d="M128.071 93.958c.258-.344 1.716-.901 3.775.086 0 0-2.443.386-2.229 4.461l-1.029-.214c.041.043-1.031-3.647-.517-4.333"/><path fill="#1D1919" d="M145.831 128.793c0 .601-.515 1.114-1.114 1.114s-1.115-.514-1.115-1.114.516-1.115 1.115-1.115c.642 0 1.114.514 1.114 1.115m1.116 5.19c0 .602-.514 1.115-1.116 1.115a1.134 1.134 0 0 1-1.114-1.115c0-.6.516-1.115 1.114-1.115.646 0 1.116.472 1.116 1.115"/><path d="M88.516 199.622c-.343.043-.644.086-.9.129s-.516.086-.859.173c-.386.086-.6.257-.687.514-.085.259-.172.515-.172.858v10.468c0 .942-.214 1.847-.6 2.66a5.654 5.654 0 0 1-1.587 2.017c-.687.516-1.459.944-2.317 1.2-.858.258-1.759.43-2.703.43-1.673 0-3.003-.386-4.033-1.2-1.029-.814-1.544-1.89-1.544-3.305 0-.814.214-1.501.687-2.06.472-.558 1.115-.814 1.93-.814.772 0 1.373.216 1.845.687.472.473.687 1.029.687 1.675 0 .558-.215 1.114-.6 1.586a7.99 7.99 0 0 1-1.374 1.33v.172c.085.173.257.343.514.472.258.129.558.172.815.172 1.073 0 1.931-.387 2.531-1.158.601-.771.901-1.93.901-3.475v-10.726c0-.302-.042-.601-.128-.813-.086-.216-.343-.388-.729-.56-.258-.128-.6-.215-.987-.3-.386-.086-.687-.13-.943-.172v-1.03h10.125v1.073h.128v-.003zm15.874 14.758c-.3.516-.687.988-1.116 1.46-.429.473-.943.813-1.5 1.157-.6.344-1.202.602-1.803.772s-1.33.257-2.102.257c-1.33 0-2.445-.171-3.432-.557-.944-.387-1.759-.86-2.359-1.503-.644-.644-1.073-1.372-1.416-2.23a8.466 8.466 0 0 1-.472-2.788c0-.9.171-1.803.515-2.617.343-.814.815-1.588 1.416-2.23.601-.645 1.373-1.156 2.317-1.544a8.094 8.094 0 0 1 3.09-.601c1.243 0 2.272.17 3.088.47.815.302 1.458.73 1.974 1.246s.858 1.116 1.115 1.802c.215.688.343 1.416.343 2.188v.857h-9.052c0 1.846.343 3.219 1.073 4.162.686.943 1.845 1.415 3.346 1.415.858 0 1.587-.214 2.273-.687a6.079 6.079 0 0 0 1.716-1.76l.985.732zm-5.106-5.103c0-.517-.043-1.072-.086-1.631-.043-.558-.129-1.03-.3-1.373-.172-.43-.344-.73-.644-.943-.257-.215-.6-.3-.987-.3-.687 0-1.244.343-1.63 1.028-.429.688-.644 1.803-.686 3.305l4.333-.086zm24.026 8.279h-8.066v-.986c.171 0 .386-.043.601-.087.257-.042.43-.086.557-.128.172-.086.301-.258.387-.43.085-.171.128-.471.128-.814v-6.264c0-.9-.17-1.587-.515-2.06-.343-.473-.814-.687-1.5-.687-.344 0-.688.042-.988.17-.3.087-.6.258-.9.473a2.786 2.786 0 0 0-.645.559 2.04 2.04 0 0 0-.386.516v7.164c0 .3.043.559.128.772a.932.932 0 0 0 .43.472c.128.087.3.17.514.215.215.042.43.086.643.129v.986h-8.15v-.986c.214 0 .428-.043.686-.087.214-.042.43-.086.601-.128a.98.98 0 0 0 .601-.472c.085-.216.171-.474.171-.815v-7.808c0-.26-.086-.558-.214-.815-.129-.258-.343-.473-.558-.644-.17-.086-.343-.216-.6-.26a2.491 2.491 0 0 0-.816-.126v-.988l6.392-.342.215.214v1.93h.042c.257-.213.558-.471.901-.813.343-.301.687-.56.987-.771.343-.216.772-.386 1.287-.56.515-.171 1.116-.212 1.716-.212 1.458 0 2.532.428 3.261 1.242s1.073 1.932 1.073 3.305v6.563c0 .344.042.602.128.772.085.214.3.343.558.472.13.043.3.129.515.17.214.045.43.087.73.13v1.03h.085zm18.448 0h-6.308a47.967 47.967 0 0 0-2.146-3.477c-.644-.942-1.244-1.844-1.803-2.616l-.77.687v2.918c0 .3.041.602.127.772.086.215.258.343.56.473.171.084.341.128.558.17.214.044.43.087.643.087v.986h-8.322v-.986c.215 0 .43-.043.686-.087.215-.042.43-.086.601-.128a.975.975 0 0 0 .6-.472c.086-.216.172-.474.172-.815v-14.93c0-.301-.086-.6-.215-.9-.128-.301-.3-.56-.557-.73-.172-.085-.429-.214-.772-.257a3.82 3.82 0 0 0-.944-.13v-.985l6.65-.344.215.214v13.815c.644-.602 1.415-1.287 2.23-2.062.813-.771 1.501-1.414 1.972-1.931.302-.301.474-.515.474-.687.043-.172.043-.257.043-.3 0-.172-.129-.301-.43-.387-.3-.086-.687-.215-1.286-.301v-.943h6.777v.943c-.9.258-1.588.474-2.06.688-.473.214-.985.515-1.545.857-.386.258-.729.515-1.07.77-.345.258-.73.603-1.202.987.857 1.287 1.674 2.445 2.401 3.519.73 1.073 1.502 2.229 2.315 3.433.26.43.602.687 1.031.857.43.128.813.214 1.244.258v1.029h.13v.005zm8.58 0h-8.453v-.986c.217 0 .473-.043.688-.087.214-.042.43-.086.558-.128a.99.99 0 0 0 .602-.472c.128-.216.171-.474.171-.815v-7.808c0-.302-.086-.601-.215-.815a1.296 1.296 0 0 0-.515-.558c-.172-.086-.387-.215-.729-.302-.343-.084-.644-.17-.899-.17v-.988l6.563-.342.214.214v10.64c0 .3.086.559.214.815.13.214.345.386.558.472.174.087.388.17.602.215.216.042.43.086.688.129v.986h-.047zm-1.932-18.233c0 .688-.258 1.243-.77 1.715a2.7 2.7 0 0 1-1.847.73c-.729 0-1.33-.258-1.888-.73-.515-.472-.772-1.071-.772-1.715 0-.688.258-1.244.772-1.76a2.736 2.736 0 0 1 1.888-.73c.73 0 1.33.258 1.846.73.514.473.771 1.073.771 1.76zm20.85 18.233h-8.064v-.986c.171 0 .386-.043.601-.087.258-.042.428-.086.56-.128.17-.086.3-.258.385-.43.085-.171.13-.471.13-.814v-6.264c0-.9-.173-1.587-.516-2.06-.344-.473-.816-.687-1.504-.687-.342 0-.686.042-.984.17-.3.13-.602.258-.902.473a2.78 2.78 0 0 0-.643.559 2.021 2.021 0 0 0-.387.516v7.164c0 .3.043.559.13.772s.257.386.43.472c.127.087.3.17.515.215l.644.129v.986h-8.15v-.986c.214 0 .43-.043.685-.087.216-.042.431-.086.603-.128a.984.984 0 0 0 .603-.472c.084-.216.17-.474.17-.815v-7.808c0-.26-.086-.558-.215-.815-.129-.257-.342-.473-.558-.644-.172-.086-.343-.216-.603-.26a2.48 2.48 0 0 0-.813-.126v-.988l6.394-.342.213.214v1.93h.044c.257-.213.558-.471.901-.813.344-.301.687-.56.985-.771.345-.216.772-.386 1.288-.56.516-.171 1.115-.212 1.715-.212 1.46 0 2.532.428 3.262 1.242.73.814 1.071 1.932 1.071 3.305v6.563c0 .344.044.602.13.772.086.214.301.343.557.472.13.043.302.129.517.17.214.045.43.087.73.13v1.03h.076zm7.421.473c-.857 0-1.717-.13-2.53-.388-.816-.256-1.459-.515-1.933-.813l-.386.899H170.8l-.172-4.976h.986c.128.386.342.857.688 1.373.3.514.687.942 1.071 1.37.43.389.9.73 1.458 1.032.56.256 1.116.428 1.717.428.814 0 1.416-.172 1.803-.473.386-.3.601-.814.601-1.458 0-.343-.086-.644-.258-.9a2.612 2.612 0 0 0-.729-.601 7.124 7.124 0 0 0-1.158-.472c-.428-.13-.942-.26-1.545-.474-.6-.172-1.115-.344-1.545-.558-.428-.172-.899-.473-1.328-.858a3.784 3.784 0 0 1-.943-1.244c-.258-.473-.344-1.071-.344-1.758 0-1.244.516-2.273 1.588-3.047 1.072-.772 2.445-1.158 4.16-1.158.814 0 1.545.086 2.231.258s1.243.344 1.716.559l.301-.771h1.03l.214 4.547h-.943c-.3-.943-.858-1.717-1.588-2.402-.77-.688-1.588-1.03-2.445-1.03-.688 0-1.244.13-1.63.43s-.6.688-.6 1.202c0 .688.298 1.158.855 1.459s1.373.6 2.403.856c1.587.43 2.744.987 3.518 1.675a3.691 3.691 0 0 1 1.115 2.702c0 1.458-.559 2.617-1.717 3.39-1.286.77-2.788 1.2-4.633 1.2z" fill="#231F20"/></svg>