<svg xmlns="http://www.w3.org/2000/svg" width="256" height="283" viewBox="0 0 256 283"><path fill="#C63D14" d="M196.671 158.039c0-8.913-7.226-16.139-16.141-16.139-.573 0-1.139.031-1.695.089l22.167-65.379H106.8l22.136 65.323c-.324-.02-.651-.033-.98-.033-8.913 0-16.139 7.226-16.139 16.139 0 7.204 4.721 13.304 11.239 15.38-3.442 5.962-7.773 11.332-12.691 15.971-6.687 6.309-14.338 11.092-22.615 14.039-9.854-5.062-14.507-16.32-10.308-26.191.474-1.115.958-2.243 1.421-3.368 7.138-1.667 12.458-8.067 12.458-15.714 0-8.914-7.226-16.14-16.139-16.14-8.914 0-16.139 7.227-16.139 16.14 0 5.467 2.72 10.292 6.876 13.214-3.995 9.094-9.866 18.613-11.696 29.645-2.192 13.222-.007 27.257 11.428 35.183 26.631 18.456 55.539-11.443 86.019-18.959 11.047-2.723 23.171-2.285 32.903-7.921 7.309-4.232 12.126-11.247 13.494-19.124 1.351-7.779-.619-15.526-5.148-21.808a16.089 16.089 0 0 0 3.752-10.347zm-52.578.056l.002-.057c0-5.853-3.116-10.979-7.779-13.808l17.618-35.626 17.649 36.003c-4.335 2.895-7.19 7.828-7.19 13.431 0 .117.007.233.01.351l-20.31-.294z"/><path fill="#FFF" d="M200.611 158.039c0-9.804-7.063-17.983-16.367-19.73L206.5 72.668H101.301l22.289 65.773c-8.98 1.999-15.716 10.024-15.716 19.598 0 7.189 3.799 13.503 9.493 17.052a67.253 67.253 0 0 1-9.709 11.432c-5.902 5.569-12.479 9.792-19.568 12.57-7.141-4.485-10.159-12.944-7.024-20.313l.246-.576.461-1.083c7.842-2.736 13.487-10.202 13.487-18.966 0-11.072-9.009-20.081-20.082-20.081-11.072 0-20.081 9.008-20.081 20.081 0 5.589 2.296 10.65 5.993 14.294a331.92 331.92 0 0 1-2.099 4.37c-3.381 6.943-7.211 14.813-8.662 23.551-2.877 17.354 1.765 31.229 13.071 39.065 6.86 4.754 13.829 6.626 20.84 6.625 13.204 0 26.559-6.634 39.622-13.121 9.409-4.674 19.137-9.506 28.746-11.875 3.576-.882 7.254-1.413 11.15-1.974 7.723-1.115 15.711-2.266 22.786-6.363 8.2-4.751 13.814-12.719 15.401-21.859 1.361-7.85-.277-15.709-4.278-22.375a19.961 19.961 0 0 0 2.944-10.454zm-7.883 0c0 6.726-5.471 12.198-12.198 12.198-6.724 0-12.196-5.473-12.196-12.198s5.473-12.197 12.196-12.197c6.728 0 12.198 5.471 12.198 12.197zm2.775-77.489l-19.652 57.964c-.852.204-1.684.461-2.489.771l-19.414-39.604-19.47 39.37a20.03 20.03 0 0 0-2.596-.706L112.296 80.55h83.207zm-67.548 65.292c6.726 0 12.196 5.471 12.196 12.197 0 6.726-5.471 12.198-12.196 12.198s-12.198-5.473-12.198-12.198c0-6.726 5.472-12.197 12.198-12.197zm-52.776.115c6.727 0 12.199 5.471 12.199 12.197 0 6.726-5.472 12.198-12.199 12.198-6.725 0-12.198-5.473-12.198-12.198 0-6.726 5.473-12.197 12.198-12.197zm119.002 43.561c-1.188 6.837-5.41 12.81-11.586 16.386-5.755 3.336-12.654 4.331-19.959 5.384-3.913.564-7.959 1.148-11.912 2.123-10.452 2.578-20.575 7.605-30.365 12.468-19.592 9.73-36.512 18.134-52.465 7.078-11.686-8.1-11.146-23.085-9.785-31.296 1.262-7.609 4.673-14.615 7.972-21.391a472.286 472.286 0 0 0 1.669-3.463 19.912 19.912 0 0 0 5.19 1.303c-3.358 11.083 1.923 23.133 13.007 28.827l1.517.779 1.606-.572c8.763-3.119 16.837-8.128 23.999-14.885a74.807 74.807 0 0 0 11.879-14.363c.982.148 1.985.226 3.007.226 11.073 0 20.081-9.009 20.081-20.081 0-5.956-2.608-11.311-6.739-14.991l12.621-25.52 12.747 26.006c-3.825 3.658-6.215 8.807-6.215 14.505 0 11.072 9.007 20.081 20.08 20.081 4.254 0 8.201-1.333 11.452-3.6 2.257 4.619 3.098 9.818 2.199 14.996z"/></svg>