<?xml version="1.0" encoding="utf-8"?>
<!-- Generator: Adobe Illustrator 16.0.3, SVG Export Plug-In . SVG Version: 6.00 Build 0)  -->
<!DOCTYPE svg PUBLIC "-//W3C//DTD SVG 1.1//EN" "http://www.w3.org/Graphics/SVG/1.1/DTD/svg11.dtd">
<svg version="1.1" id="Ebene_1" xmlns="http://www.w3.org/2000/svg" xmlns:xlink="http://www.w3.org/1999/xlink" x="0px" y="0px"
	 width="256px" height="283px" viewBox="0 0 256 283" enable-background="new 0 0 256 283" xml:space="preserve">
<g>
	<path fill="#99425B" d="M198.327,144.756c0-9.158-7.423-16.581-16.581-16.581c-0.589,0-1.17,0.031-1.742,0.091l22.773-67.169
		h-96.783l22.742,67.111c-0.333-0.02-0.668-0.033-1.007-0.033c-9.158,0-16.582,7.423-16.582,16.581
		c0,7.402,4.851,13.669,11.546,15.801c-3.536,6.125-7.985,11.642-13.038,16.409c-6.87,6.48-14.731,11.395-23.235,14.422
		c-10.124-5.199-14.905-16.765-10.59-26.907c0.486-1.146,0.985-2.306,1.458-3.462c7.335-1.713,12.8-8.288,12.8-16.144
		c0-9.158-7.423-16.582-16.581-16.582c-9.159,0-16.583,7.424-16.583,16.582c0,5.616,2.795,10.574,7.065,13.575
		c-4.104,9.344-10.137,19.124-12.016,30.458c-2.252,13.582-0.008,28.001,11.741,36.145c27.36,18.963,57.06-11.757,88.373-19.479
		c11.35-2.799,23.807-2.347,33.806-8.139c7.509-4.349,12.458-11.556,13.863-19.647c1.387-7.991-0.636-15.95-5.289-22.404
		C196.878,152.505,198.327,148.801,198.327,144.756"/>
	<path fill="#FFFFFF" d="M195.77,177.097c-1.22,7.025-5.559,13.16-11.903,16.835c-5.915,3.427-13.002,4.448-20.507,5.531
		c-4.02,0.579-8.177,1.18-12.237,2.181c-10.738,2.647-21.138,7.814-31.196,12.81c-20.128,9.997-37.511,18.63-53.901,7.271
		c-12.006-8.321-11.452-23.718-10.053-32.154c1.296-7.815,4.801-15.014,8.19-21.976c0.586-1.205,1.16-2.385,1.717-3.556
		c1.68,0.67,3.467,1.128,5.329,1.337c-3.45,11.385,1.976,23.765,13.363,29.614l1.559,0.802l1.649-0.589
		c9.003-3.206,17.298-8.351,24.656-15.292c4.756-4.487,8.846-9.451,12.206-14.755c1.008,0.151,2.039,0.231,3.087,0.231
		c10.452,0,19.105-7.813,20.446-17.905c4.277-0.157,8.821-0.157,13.124-0.002c1.337,10.094,9.994,17.907,20.445,17.907
		c4.369,0,8.424-1.37,11.763-3.697C195.827,166.438,196.692,171.776,195.77,177.097z M73.509,132.343
		c6.911,0,12.531,5.622,12.531,12.532c0,2.482-0.729,4.797-1.979,6.746c-2.083,3.249-5.623,5.475-9.692,5.754
		c-0.285,0.019-0.571,0.031-0.86,0.031c-1.54,0-3.015-0.28-4.379-0.79c-2.759-1.032-5.058-3.012-6.504-5.54
		c-1.046-1.831-1.648-3.945-1.648-6.201C60.978,137.966,66.6,132.343,73.509,132.343z M115.198,144.756
		c0-6.278,4.641-11.491,10.671-12.392c0.607-0.091,1.229-0.138,1.86-0.138c4.018,0,7.595,1.903,9.889,4.852
		c0.568,0.733,1.063,1.528,1.462,2.376c0.756,1.611,1.181,3.408,1.181,5.304c0,1.001-0.121,1.976-0.344,2.909
		c-1.222,5.113-5.581,9.021-10.924,9.559c-0.415,0.042-0.837,0.062-1.264,0.062c-2.501,0-4.833-0.739-6.792-2.007
		C117.488,153.045,115.198,149.165,115.198,144.756z M167.5,129.854c-2.685,2.569-4.681,5.851-5.676,9.542
		c-4.641-0.174-9.562-0.174-14.175,0c-1.061-3.933-3.258-7.403-6.214-10.041l12.966-26.22L167.5,129.854z M111.643,65.147h85.483
		l-20.189,59.548c-0.875,0.21-1.728,0.474-2.556,0.793l-19.947-40.688l-20.001,40.444c-0.865-0.297-1.757-0.537-2.667-0.719
		L111.643,65.147z M194.277,144.756c0,1.257-0.188,2.47-0.534,3.614c-0.821,2.726-2.549,5.06-4.828,6.656
		c-2.034,1.422-4.505,2.261-7.169,2.261c-5.786,0-10.669-3.941-12.103-9.283c-0.278-1.035-0.43-2.124-0.43-3.248
		c0-1.713,0.346-3.346,0.972-4.833c0.322-0.767,0.723-1.491,1.184-2.173c2.256-3.329,6.062-5.524,10.377-5.524
		c0.394,0,0.784,0.021,1.171,0.057C189.28,132.875,194.277,138.241,194.277,144.756z M202.377,144.756
		c0-10.072-7.258-18.476-16.816-20.271l22.865-67.438H100.347l22.9,67.575c-9.227,2.053-16.148,10.298-16.148,20.134
		c0,7.386,3.904,13.874,9.753,17.52c-2.814,4.192-6.15,8.137-9.975,11.744c-6.064,5.722-12.819,10.059-20.103,12.915
		c-7.336-4.609-10.437-13.299-7.216-20.869l0.252-0.594c0.157-0.37,0.315-0.742,0.474-1.113c8.057-2.81,13.856-10.48,13.856-19.483
		c0-11.376-9.255-20.63-20.631-20.63c-11.376,0-20.631,9.254-20.631,20.63c0,5.742,2.36,10.942,6.159,14.687
		c-0.688,1.466-1.414,2.959-2.157,4.486c-3.474,7.133-7.409,15.219-8.898,24.197c-2.958,17.83,1.813,32.084,13.429,40.136
		c7.049,4.885,14.207,6.806,21.411,6.806c13.564,0,27.286-6.815,40.706-13.481c9.666-4.8,19.661-9.765,29.533-12.2
		c3.673-0.906,7.454-1.451,11.455-2.026c7.935-1.146,16.141-2.329,23.408-6.539c8.427-4.879,14.193-13.065,15.825-22.458
		c1.4-8.063-0.286-16.139-4.395-22.987C201.271,152.363,202.377,148.688,202.377,144.756z"/>
</g>
</svg>
