<svg xmlns="http://www.w3.org/2000/svg" width="256" height="256" viewBox="128 -28 256 256"><g fill="#264970"><path d="M337.979 81.392a1.387 1.387 0 0 0-1.322-.969h-12.938c-.604 0-1.14.392-1.321.97l-16.322 51.768a1.387 1.387 0 0 0 1.322 1.803h8.906c.614 0 1.155-.404 1.329-.994l11.24-38.074s.294-.95 1.312-.95c1.035 0 1.287.987 1.287.988l5.215 18.055h-7.165c-.62 0-1.166.413-1.333 1.011l-2.012 7.147a1.387 1.387 0 0 0 1.335 1.762h12.09l3.142 10.08c.18.58.716.975 1.323.975h8.911a1.386 1.386 0 0 0 1.321-1.803l-16.32-51.769"/><path d="M277.141 90.502h10.781c5.575 0 6.694 2.193 6.694 5.734v5.288c0 4.406-1.688 5.893-6.694 5.893h-10.781V90.502zm32.918 42.174l-11.847-17.09c5.102-2.116 7.687-6.55 7.687-13.182v-6.969c0-10.383-5.422-15.013-17.577-15.013h-21.075c-.766 0-1.386.621-1.386 1.386v51.77c0 .765.62 1.386 1.386 1.386h8.508c.766 0 1.387-.62 1.387-1.387v-16.235h8.708l11.842 17.026c.26.372.686.596 1.139.596h10.176a1.386 1.386 0 0 0 1.052-2.288zm-54.537-52.254h-8.509c-.765 0-1.386.621-1.386 1.386v51.77c0 .765.621 1.386 1.386 1.386h8.509c.766 0 1.387-.62 1.387-1.387V81.808c0-.765-.621-1.386-1.387-1.386m-19.926 0h-8.612c-.729 0-1.324.592-1.324 1.32v40.508c0 5.091-3.879 6.765-6.504 6.898-.354.017-.766.24-.992.571a1.312 1.312 0 0 0-.173 1.131l2.094 6.812c.171.558.771.916 1.749.916 8.24 0 15.082-6.47 15.082-15.142V81.743a1.321 1.321 0 0 0-1.32-1.32M168.906 66.3a4.786 4.786 0 0 0-4.789 4.792 4.79 4.79 0 0 0 9.577 0 4.784 4.784 0 0 0-4.788-4.792m31.459 0a4.784 4.784 0 0 0-4.787 4.792 4.789 4.789 0 0 0 4.787 4.793 4.792 4.792 0 1 0 0-9.585m-15.73-4.373a4.785 4.785 0 0 0-4.788 4.793 4.79 4.79 0 0 0 4.788 4.793 4.79 4.79 0 0 0 4.788-4.793 4.784 4.784 0 0 0-4.788-4.793m27.05 17.727a1.502 1.502 0 0 0-1.447-.208c-3.242 1.24-6.535 2.181-9.54 2.881a1.878 1.878 0 0 0-1.313 1.145c-2.189 5.998-7.78 11.708-13.646 17.69-.236.224-.565.518-1.102.518-.536 0-.862-.285-1.103-.518-5.865-5.982-11.455-11.673-13.646-17.67a1.88 1.88 0 0 0-1.313-1.145 73.944 73.944 0 0 1-9.546-2.911 1.514 1.514 0 0 0-.537-.099c-.325 0-.639.102-.905.305a1.5 1.5 0 0 0-.582 1.325c.497 4.987 2.467 9.863 6.023 14.972 3.343 4.804 7.704 9.25 11.92 13.549 7.768 7.923 15.105 15.406 15.75 24.084a1.501 1.501 0 0 0 1.497 1.389h9.126a1.502 1.502 0 0 0 1.499-1.574c-.287-5.802-2.471-11.612-6.675-17.76a60.845 60.845 0 0 0-2.811-3.771c-.401-.501-.233-1.121.073-1.435.303-.311.608-.62.915-.934 4.216-4.301 8.576-8.745 11.919-13.549 3.556-5.109 5.526-9.957 6.023-14.943a1.531 1.531 0 0 0-.579-1.341m-36.841 36.584a1.387 1.387 0 0 0-1.065-.456c-.682 0-1.085.471-1.238.703-3.838 5.842-5.821 11.355-6.095 16.896-.02.408.131.813.413 1.112.285.296.682.467 1.092.467h9.111c.784 0 1.444-.613 1.502-1.395.198-2.67 1.029-5.347 2.543-8.159.525-.974.117-1.887-.185-2.278-1.503-1.951-3.343-4.035-6.078-6.89"/><path d="M184.645 84.125c2.86 0 4.519-.171 5.102-.171a1.392 1.392 0 0 1 1.269 1.942c-.379 1.014-2.108 4.663-5.327 7.792-.361.351-.77.417-1.051.417h-.004c-.281 0-.69-.066-1.051-.417-3.218-3.13-4.948-6.778-5.327-7.792a1.393 1.393 0 0 1 1.27-1.942c.583 0 2.241.171 5.1.171h.019"/></g></svg>