<svg xmlns="http://www.w3.org/2000/svg" width="256" height="256" viewBox="0 -43 256 256"><path fill="#002B64" d="M211.205 27.22c-2.683.086-1.834.858-7.632 2.285-5.854 1.441-13.006.999-19.312 3.644-18.82 7.893-22.596 34.869-39.705 44.533-12.788 7.224-25.691 7.799-37.292 11.435-7.623 2.391-15.963 7.293-22.87 13.245-5.361 4.623-5.501 8.686-11.103 14.482-5.992 6.2-23.814.104-31.892 9.595 2.602 2.631 3.743 3.367 8.871 2.686-1.062 2.012-7.32 3.707-6.095 6.667 1.29 3.115 16.418 5.226 30.172-3.077 6.405-3.867 11.506-9.44 21.482-10.772 12.908-1.719 27.779 1.105 42.724 3.26-2.217 6.606-6.665 11.001-10.229 16.263-1.104 1.189 2.216 1.321 6.004.604 6.813-1.686 11.724-3.042 16.865-6.035 6.318-3.677 7.274-13.105 15.025-15.146 4.319 6.638 16.064 8.205 23.354 2.896-6.396-1.81-8.163-15.422-6.004-21.421 2.044-5.678 4.065-14.761 6.124-22.267 2.211-8.061 3.027-18.221 5.702-22.327 4.025-6.177 8.474-8.298 12.336-11.783 3.862-3.483 7.396-6.874 7.28-14.845-.034-2.569-1.363-4.001-3.805-3.922z"/><path fill="#FFF" d="M46.956 135.223c9.794 1.404 15.75 0 23.615-3.41 6.692-2.902 13.155-8.886 21.057-11.422 11.606-3.723 24.333.005 36.74.748 3.021.182 6.023.184 8.986-.139 4.621-2.84 4.526-13.466 9.025-14.438-.134 14.907-6.244 23.839-12.636 32.488 13.47-2.38 21.53-10.171 26.976-20.577 1.651-3.156 3.063-6.55 4.31-10.108 1.928 1.48.836 5.984 1.805 8.424 9.279-5.169 14.591-16.964 18.109-28.894 4.07-13.807 5.736-27.787 8.362-31.872 2.563-3.988 6.55-6.446 10.189-8.999 4.137-2.902 7.825-5.927 8.463-11.458-4.363-.403-5.371-1.412-6.017-3.611-2.185 1.231-4.191 1.495-6.462 1.562-1.967.061-4.13-.028-6.771.243-21.847 2.244-24.622 26.322-38.625 39.972a32.662 32.662 0 0 1-3.285 2.788c-4.903 3.653-10.918 6.266-16.45 8.38-8.955 3.422-17.469 3.665-25.871 6.619-6.167 2.166-12.434 5.313-17.5 8.778a51.826 51.826 0 0 0-3.558 2.651c-2.973 2.432-4.924 5.13-6.811 7.906-1.946 2.861-3.827 5.804-6.692 8.616-4.643 4.557-21.988 1.329-28.095 5.556-.681.47-1.221 1.034-1.589 1.713 3.332 1.514 5.558.585 9.39 1.008.503 3.64-7.909 5.802-6.665 7.476zm132.353-26.202c.261 4.172 2.683 12.452 4.821 14.464-4.188 1.019-11.403-.664-13.253-3.619.951-4.266 5.899-8.166 8.432-10.845z"/><path fill="#002B64" d="M185.444 42.795c3.092 2.686 9.581.53 8.421-4.812-4.803-.397-7.588 1.234-8.421 4.812zm21.561-6.242c-.823 1.725-2.398 3.95-2.398 8.342-.006.753-.571 1.27-.582.108.044-4.292 1.18-6.148 2.386-8.587.561-.999.899-.587.594.137z"/><path fill="#002B64" d="M206.177 35.903c-.972 1.646-3.308 4.649-3.693 9.024-.072.75-.682 1.215-.59.055.421-4.271 2.289-6.945 3.706-9.269.643-.944.946-.504.577.19zm-.755-.861c-1.106 1.558-4.702 5.164-5.455 9.493-.135.741-.782 1.153-.59.006.776-4.223 3.878-7.541 5.484-9.735.721-.89.984-.426.561.236zm-.675-.961c-1.313 1.388-5.601 5.986-6.951 10.165-.24.714-.938 1.033-.588-.077 1.362-4.07 5.117-8.455 7.019-10.401.837-.78 1.033-.282.52.313z"/></svg>