<?xml version="1.0" encoding="utf-8"?>
<!-- Generator: Adobe Illustrator 16.0.3, SVG Export Plug-In . SVG Version: 6.00 Build 0)  -->
<!DOCTYPE svg PUBLIC "-//W3C//DTD SVG 1.1//EN" "http://www.w3.org/Graphics/SVG/1.1/DTD/svg11.dtd">
<svg version="1.1" id="Ebene_1" xmlns="http://www.w3.org/2000/svg" xmlns:xlink="http://www.w3.org/1999/xlink" x="0px" y="0px"
	 width="256px" height="256px" viewBox="0 11 256 256" enable-background="new 0 11 256 256" xml:space="preserve">
<path fill="#3177BC" d="M87.248,103.767C69.591,114.758,59.5,130.376,59.5,130.376s2.614-32.749,27.748-51.911
	c9.996-7.622,23.661-14.007,42.042-14.007c6.905,0,21.385,1.201,34.429,9.243c13.041,8.042,18.311,14.776,24.186,24.638
	c2.535,4.255,4.602,9.723,5.891,14.995c2.413,9.88,2.707,21.696,2.707,21.696v15.566H103.29c0,0-2.277,31.317,40.591,31.317
	c14.908,0,20.129-2.343,25.033-3.795c7.677-2.272,15.088-7.341,15.088-7.341l0.016,31.289c0,0-17.545,10.808-44.05,10.808
	c-7.464,0-15.33-0.626-22.916-3.088c-6.629-2.151-20.511-7.951-29.802-21.547c-3.288-4.81-6.849-11.209-8.613-17.462
	c-1.907-6.758-1.883-13.325-1.883-16.943c0-13.532,4.623-26.45,12.645-35.79c10.391-12.098,23.524-17.423,23.524-17.423
	s-4.278,4.988-6.909,11.197c-2.631,6.209-3.352,12.457-3.352,12.457h52.632c0,0,3.077-31.451-29.782-31.451
	C113.129,92.824,97.923,97.122,87.248,103.767L87.248,103.767z"/>
</svg>
