<svg xmlns="http://www.w3.org/2000/svg" width="256" height="278" viewBox="0 0 256 278"><path fill="#3177BC" d="M81.893 99.182C61.917 111.617 50.5 129.287 50.5 129.287s2.958-37.052 31.393-58.732c11.309-8.623 26.77-15.847 47.565-15.847 7.813 0 24.194 1.359 38.951 10.457 14.756 9.098 20.718 16.718 27.365 27.875 2.869 4.814 5.205 11 6.663 16.965 2.73 11.178 3.063 24.546 3.063 24.546v17.61H100.041s-2.576 35.433 45.924 35.433c16.867 0 22.774-2.65 28.322-4.293 8.685-2.572 17.07-8.305 17.07-8.305l.017 35.4s-19.849 12.227-49.836 12.227c-8.444 0-17.344-.708-25.927-3.493-7.5-2.434-23.206-8.996-33.718-24.379-3.719-5.44-7.748-12.681-9.744-19.755-2.158-7.647-2.131-15.077-2.131-19.17 0-15.31 5.23-29.925 14.306-40.492 11.756-13.687 26.615-19.712 26.615-19.712s-4.84 5.643-7.817 12.668c-2.977 7.025-3.792 14.093-3.792 14.093h59.548S162.36 86.8 125.183 86.8c-14.007.001-31.212 4.864-43.29 12.382z"/></svg>