<svg xmlns="http://www.w3.org/2000/svg" width="256" height="278" viewBox="0 0 256 278"><path fill="#3177BC" d="M87.248 103.767C69.591 114.758 59.5 130.376 59.5 130.376s2.614-32.749 27.748-51.911c9.996-7.622 23.661-14.007 42.042-14.007 6.905 0 21.385 1.201 34.428 9.243 13.042 8.042 18.312 14.776 24.187 24.638 2.535 4.255 4.601 9.723 5.89 14.995 2.413 9.88 2.707 21.696 2.707 21.696v15.565H103.29s-2.277 31.318 40.591 31.318c14.908 0 20.129-2.343 25.033-3.795 7.677-2.273 15.088-7.34 15.088-7.34l.015 31.289s-17.544 10.807-44.049 10.807c-7.464 0-15.33-.626-22.916-3.088-6.629-2.151-20.511-7.951-29.802-21.547-3.288-4.81-6.849-11.209-8.613-17.461-1.907-6.759-1.883-13.326-1.883-16.944 0-13.532 4.623-26.45 12.645-35.79 10.391-12.098 23.524-17.423 23.524-17.423s-4.278 4.988-6.909 11.197-3.352 12.457-3.352 12.457h52.632s3.077-31.451-29.782-31.451c-12.383 0-27.589 4.298-38.264 10.943z"/></svg>