<svg version="1.2" baseProfile="tiny" xmlns="http://www.w3.org/2000/svg" width="400" height="400" viewBox="0 0 400 400"><path fill="#689F63" d="M198.133 312.43a6.842 6.842 0 0 1-3.456-.934l-11.114-6.585c-1.634-.933-.841-1.261-.28-1.447 2.195-.747 2.662-.935 4.997-2.242.28-.187.561-.093.841.048l8.499 5.043c.327.141.747.141 1.027 0l33.156-19.146c.326-.187.514-.514.514-.887v-38.292c0-.374-.188-.701-.514-.887l-33.156-19.146c-.28-.188-.7-.188-1.027 0l-33.109 19.146c-.327.14-.561.513-.561.887v38.292c0 .327.234.7.514.887l9.105 5.23c4.903 2.475 7.939-.467 7.939-3.362v-37.778c0-.561.42-.934.981-.934h4.156c.56 0 .98.373.98.934v37.778c0 6.585-3.596 10.367-9.806 10.367-1.915 0-3.456 0-7.659-2.102l-8.686-4.996c-2.148-1.262-3.502-3.55-3.502-6.024v-38.292c0-2.476 1.354-4.811 3.502-6.024l33.155-19.192c2.102-1.168 4.904-1.168 7.005 0l33.155 19.192c2.147 1.214 3.456 3.549 3.456 6.024v38.292a6.981 6.981 0 0 1-3.456 6.024l-33.155 19.146a7.16 7.16 0 0 1-3.502.934"/><path fill="#689F63" d="M208.36 286.045c-14.477 0-17.512-6.678-17.512-12.234 0-.56.42-.98.934-.98h4.296c.466 0 .84.327.934.795.654 4.389 2.568 6.583 11.348 6.583 7.005 0 9.946-1.587 9.946-5.276 0-2.147-.84-3.736-11.674-4.81-9.106-.888-14.71-2.896-14.71-10.134 0-6.678 5.65-10.693 15.083-10.693 10.647 0 15.924 3.689 16.577 11.628 0 .279-.093.514-.279.746a.948.948 0 0 1-.701.281h-4.296a.955.955 0 0 1-.934-.748c-1.027-4.576-3.549-6.07-10.367-6.07-7.611 0-8.499 2.662-8.499 4.67 0 2.429 1.028 3.129 11.348 4.483 10.18 1.354 15.037 3.269 15.037 10.413 0 7.238-6.07 11.395-16.578 11.395m40.394-40.628h1.121c.934 0 1.12-.607 1.12-.98 0-.981-.7-.981-1.074-.981h-1.12l-.047 1.961zm-1.354-3.13h2.476c.841 0 2.521 0 2.521 1.916 0 1.307-.841 1.587-1.354 1.728.98.094 1.074.747 1.168 1.634.093.607.187 1.588.373 1.915h-1.494a95.208 95.208 0 0 1-.28-2.242c-.093-.42-.233-.606-.747-.606h-1.261v2.849h-1.401v-7.194zm-2.942 3.597a5.37 5.37 0 0 0 5.37 5.37c2.941 0 5.37-2.476 5.37-5.37 0-2.989-2.475-5.37-5.417-5.37a5.331 5.331 0 0 0-5.323 5.37m11.768 0c0 3.503-2.896 6.396-6.397 6.396-3.503 0-6.397-2.848-6.397-6.396 0-3.597 2.941-6.397 6.397-6.397 3.408 0 6.351 2.801 6.351 6.397"/><path fill-rule="evenodd" fill="#343434" d="M95.445 162.671c0-1.541-.794-2.942-2.148-3.689l-35.163-20.22a3.517 3.517 0 0 0-1.915-.561h-.374a3.52 3.52 0 0 0-1.915.561l-35.164 20.22c-1.354.747-2.148 2.148-2.148 3.689l.093 54.495c0 .748.374 1.448 1.027 1.821.654.421 1.494.421 2.102 0l20.92-11.954c1.307-.793 2.148-2.194 2.148-3.689v-25.45c0-1.541.794-2.942 2.102-3.689l8.919-5.137a4.161 4.161 0 0 1 2.102-.561c.747 0 1.494.187 2.101.561l8.919 5.137c1.308.747 2.102 2.148 2.102 3.689v25.45c0 1.495.841 2.896 2.148 3.689l20.874 11.954a2.196 2.196 0 0 0 2.148 0c.654-.373 1.028-1.073 1.028-1.821l.094-54.495zm165.916 28.345c0 .374-.186.747-.513.934l-12.095 6.958a1.098 1.098 0 0 1-1.074 0l-12.048-6.958a1.028 1.028 0 0 1-.561-.934V177.1c0-.374.187-.748.514-.934l12.095-6.958a1.098 1.098 0 0 1 1.074 0l12.048 6.958c.374.187.56.56.56.934v13.916zm3.27-103.248c-.654-.374-1.447-.374-2.102 0s-1.074 1.074-1.074 1.868v53.936c0 .514-.279 1.027-.747 1.308a1.684 1.684 0 0 1-1.494 0l-8.779-5.09a4.31 4.31 0 0 0-4.25 0l-35.163 20.313c-1.307.747-2.147 2.148-2.147 3.643v40.627c0 1.541.841 2.895 2.147 3.689l35.163 20.313a4.31 4.31 0 0 0 4.25 0l35.164-20.313c1.307-.795 2.147-2.195 2.147-3.689V103.131a4.208 4.208 0 0 0-2.195-3.689l-20.92-11.674zm117.117 88.959c1.308-.747 2.102-2.148 2.102-3.689v-9.807c0-1.541-.794-2.942-2.102-3.689l-34.93-20.313a4.398 4.398 0 0 0-4.296 0l-35.163 20.313c-1.308.747-2.102 2.148-2.102 3.689v40.58c0 1.542.794 2.942 2.147 3.689l34.93 19.94a4.136 4.136 0 0 0 4.157 0l21.153-11.721a2.14 2.14 0 0 0 1.074-1.868 2.12 2.12 0 0 0-1.074-1.821l-35.35-20.313c-.701-.374-1.074-1.074-1.074-1.868v-12.702c0-.794.373-1.495 1.027-1.868l11.021-6.351a2.11 2.11 0 0 1 2.102 0l11.021 6.351a2.14 2.14 0 0 1 1.074 1.868v9.993c0 .747.42 1.448 1.074 1.821a2.11 2.11 0 0 0 2.102 0l21.107-12.234zm0 0"/><path fill-rule="evenodd" fill="#689F63" d="M344.157 174.812c.233-.14.56-.14.793 0l6.771 3.923c.233.14.421.374.421.7v7.799c0 .28-.188.56-.421.7l-6.771 3.876a.801.801 0 0 1-.793 0l-6.725-3.876a.77.77 0 0 1-.421-.7v-7.799c0-.327.141-.561.374-.7l6.772-3.923zm0 0"/><path fill="#4D9A41" d="M191.362 203.718v-40.44a4.194 4.194 0 0 0-2.102-3.642l-34.976-20.174a4.303 4.303 0 0 0-4.25 0l-34.977 20.174a4.194 4.194 0 0 0-2.102 3.642v40.44c0 1.495.794 2.896 2.102 3.643l34.977 20.173a4.09 4.09 0 0 0 4.25 0l34.976-20.173a4.197 4.197 0 0 0 2.102-3.643z"/><path fill="#5A9A51" d="M150.082 227.533a3.77 3.77 0 0 0 2.429.562c.28 0 .56-.047.84-.141l36.891-67.525c-.28-.327-.607-.561-.981-.793l-22.928-13.216-12.095-6.958a3.143 3.143 0 0 0-1.074-.467l-39.319 67.245c.327.467.747.841 1.214 1.12l30.026 17.324 4.997 2.849z"/><path fill="none" d="M191.316 204.465l-.047-.08v.232c.012-.053.037-.099.047-.152z"/><path fill="#54A242" d="M189.261 207.36a4.354 4.354 0 0 0 2.008-2.743v-.232l-38.292-65.39c-.28-.093-.56-.093-.887-.093h-.327c-.607.046-1.167.233-1.728.56l-34.883 20.127 37.638 68.506a4.504 4.504 0 0 0 1.495-.562l34.976-20.173z"/></svg>