<svg xmlns="http://www.w3.org/2000/svg" width="256" height="256"><linearGradient id="a" gradientUnits="userSpaceOnUse" x1="-70.168" y1="327.156" x2="-70.168" y2="326.56" gradientTransform="matrix(213.3 0 0 -256 15081.825 83803.75)"><stop offset=".3" stop-color="#ff1b2d"/><stop offset=".438" stop-color="#fa1a2c"/><stop offset=".594" stop-color="#ed1528"/><stop offset=".758" stop-color="#d60e21"/><stop offset=".927" stop-color="#b70519"/><stop offset="1" stop-color="#a70014"/></linearGradient><path fill="url(#a)" d="M102.136 172.294c-8.724-10.259-14.314-25.434-14.683-42.451v-3.686c.369-17.017 6.021-32.191 14.683-42.451 11.304-14.621 27.891-21.195 46.628-21.195 11.55 0 22.423.799 31.639 6.942-13.823-12.471-32.068-20.027-52.096-20.089H128c-43.434 0-78.636 35.202-78.636 78.636 0 42.144 33.174 76.608 74.888 78.574 1.229.062 2.519.062 3.748.062 20.15 0 38.52-7.556 52.403-20.027-9.216 6.144-19.475 6.389-31.024 6.389-18.676.061-36-6.021-47.243-20.704z"/><linearGradient id="b" gradientUnits="userSpaceOnUse" x1="-70.103" y1="326.987" x2="-70.103" y2="326.381" gradientTransform="matrix(170.1 0 0 -222.4 12078.9 72782.906)"><stop offset="0" stop-color="#9c0000"/><stop offset=".7" stop-color="#ff4b4b"/></linearGradient><path fill="url(#b)" d="M102.136 83.706c7.188-8.539 16.526-13.638 26.724-13.638 22.915 0 41.468 25.925 41.468 57.994 0 32.068-18.553 57.994-41.468 57.994-10.198 0-19.475-5.161-26.724-13.64 11.304 14.622 28.076 23.96 46.751 23.96 11.488 0 22.3-3.502 31.516-9.646 16.096-14.498 26.232-35.447 26.232-58.73s-10.137-44.232-26.232-58.608c-9.216-6.144-19.967-9.646-31.516-9.646-18.737.001-35.508 9.277-46.751 23.96z"/></svg>