<svg xmlns="http://www.w3.org/2000/svg" width="256" height="256" viewBox="0 -60.5 256 256"><radialGradient id="a" cx="330.552" cy="-398.96" r="244.786" gradientTransform="matrix(.463 0 0 -.463 -59.531 -146.838)" gradientUnits="userSpaceOnUse"><stop offset="0" stop-color="#fff"/><stop offset=".5" stop-color="#4c6b97"/><stop offset="1" stop-color="#231f20"/></radialGradient><ellipse fill="url(#a)" cx="128" cy="67.3" rx="86.303" ry="45.376"/><ellipse fill="#6181B6" cx="128" cy="67.3" rx="82.932" ry="42.005"/><path d="M144.789 80.92l4.112-21.171c.944-4.787.135-8.36-2.293-10.586-2.359-2.157-6.405-3.236-12.338-3.236h-7.147l2.023-10.519c.067-.404 0-.809-.271-1.146-.269-.337-.606-.472-1.011-.472h-9.844c-.674 0-1.214.472-1.349 1.079l-4.382 22.452c-.405-2.562-1.349-4.72-2.967-6.473-2.899-3.304-7.417-4.99-13.552-4.99H76.825c-.674 0-1.214.472-1.349 1.079l-8.833 45.579c-.067.404 0 .81.27 1.146.27.337.607.472 1.012.472h9.911a1.38 1.38 0 0 0 1.349-1.079l2.157-10.989h7.35c3.843 0 7.146-.405 9.642-1.214 2.629-.877 4.989-2.293 7.08-4.248 1.686-1.551 3.102-3.304 4.18-5.191l-1.753 9.103c-.067.404 0 .809.27 1.146s.607.472 1.011.472h9.844c.674 0 1.213-.472 1.348-1.078l4.854-24.947h6.742c2.899 0 3.709.54 3.979.809.202.203.606 1.011.135 3.506l-3.911 20.159c-.066.404 0 .81.271 1.146.27.338.606.473 1.011.473h10.114c.605-.204 1.145-.676 1.28-1.282zM99.21 63.389c-.607 3.169-1.753 5.461-3.438 6.743s-4.45 1.955-8.091 1.955h-4.383l3.169-16.316h5.664c4.18 0 5.866.876 6.54 1.618.876 1.078 1.079 3.169.539 6zm87.651-12.54c-2.899-3.304-7.417-4.99-13.552-4.99h-19.081c-.675 0-1.215.472-1.349 1.079l-8.833 45.511c-.067.404 0 .809.27 1.146.27.338.606.473 1.012.473h9.911c.675 0 1.214-.473 1.349-1.079l2.157-10.99h7.35c3.843 0 7.146-.404 9.642-1.214 2.63-.876 4.989-2.292 7.079-4.247 1.754-1.618 3.236-3.438 4.315-5.394a22.453 22.453 0 0 0 2.36-6.473c1.147-5.866.269-10.451-2.63-13.822zm-10.316 12.54c-.606 3.169-1.752 5.461-3.438 6.743-1.687 1.281-4.451 1.955-8.092 1.955h-4.382l3.168-16.316h5.664c4.181 0 5.866.876 6.54 1.618.944 1.078 1.147 3.169.54 6z" fill="#FFF"/><path d="M92.13 54.422c3.776 0 6.271.674 7.551 2.09 1.281 1.416 1.551 3.776.876 7.147-.674 3.506-2.022 6.068-3.978 7.551-1.955 1.483-4.921 2.226-8.899 2.226h-6l3.708-19.014h6.742zM67.993 92.719h9.911l2.36-12.069h8.496c3.775 0 6.81-.404 9.237-1.213 2.428-.81 4.585-2.09 6.607-3.978 1.686-1.552 3.034-3.237 4.045-5.058a19.663 19.663 0 0 0 2.158-6.068c1.079-5.394.27-9.574-2.359-12.608-2.63-3.034-6.81-4.518-12.541-4.518H76.825l-8.832 45.512zm50.095-57.58h9.844l-2.36 12.069h8.765c5.528 0 9.305.944 11.395 2.899 2.091 1.956 2.697 5.057 1.888 9.373l-4.112 21.17h-9.979l3.91-20.159c.472-2.292.27-3.843-.473-4.652-.741-.809-2.427-1.281-4.921-1.281h-7.889L119.1 80.649h-9.844l8.832-45.51zm51.378 19.283c3.775 0 6.271.674 7.552 2.09 1.28 1.416 1.551 3.776.876 7.147-.674 3.506-2.022 6.068-3.978 7.551-1.955 1.483-4.922 2.226-8.9 2.226h-6.001l3.709-19.014h6.742zm-24.138 38.297h9.911l2.36-12.069h8.495c3.775 0 6.81-.404 9.237-1.213 2.427-.81 4.585-2.09 6.607-3.978 1.686-1.552 3.034-3.237 4.045-5.058a19.663 19.663 0 0 0 2.158-6.068c1.078-5.394.27-9.574-2.36-12.608s-6.81-4.518-12.541-4.518h-19.08l-8.832 45.512z" fill="#000004"/></svg>