<svg xmlns="http://www.w3.org/2000/svg" width="256" height="256" viewBox="0 -39 256 256"><path fill="#FF4081" d="M143.363 142.514L81.908 36.07h30.73l61.454 106.443h-30.729v.001z"/><path fill="#FFF" fill-opacity=".2" d="M143.363 142.514l15.362-26.611 15.367 26.611h-30.729z"/><path fill="#FFF" fill-opacity=".1" d="M128 115.902l15.363 26.611 15.362-26.611H128z"/><path fill-opacity=".1" d="M112.637 89.292L128 115.902l15.363-26.61h-30.726z"/><path fill-opacity=".2" d="M112.637 89.292L128 62.681l15.363 26.611h-30.726z"/><path fill-opacity=".3" d="M97.274 62.681l15.363 26.611L128 62.681H97.274z"/><path fill-opacity=".4" d="M97.274 62.681l15.363-26.611L128 62.681H97.274z"/><path fill-opacity=".5" d="M81.908 36.07l15.367 26.611 15.362-26.611H81.908z"/><path fill="#536DFE" d="M81.908 142.514L51.179 89.292 66.546 62.68l46.091 79.833H81.908z"/><path fill="#FFF" fill-opacity=".2" d="M81.908 142.514l15.367-26.611 15.363 26.61h-30.73z"/><path fill="#FFF" fill-opacity=".1" d="M66.546 115.903l15.362 26.61 15.367-26.61H66.546z"/><path fill="none" d="M66.546 115.903l15.362-26.61 15.367 26.61H66.546z"/><path fill-opacity=".1" d="M51.179 89.292l15.367 26.61 15.362-26.61H51.179z"/><path fill-opacity=".2" d="M51.179 89.292L66.546 62.68l15.362 26.61H51.179z"/><path fill="#303F9F" d="M81.91 89.292L66.545 62.681 81.91 36.07l15.366 26.611L81.91 89.292z"/><path fill-opacity=".2" d="M97.275 62.681L81.91 36.07 66.546 62.681h30.73z"/><path fill="#3F51B5" d="M174.092 142.513l-15.367-26.61 15.367-26.61 15.362 26.61-15.362 26.61z"/><path fill-opacity=".2" d="M189.454 115.903l-15.362 26.61-15.367-26.61h30.729z"/><path fill="#7986CB" d="M189.454 115.902l-46.09-79.832h30.728l30.73 53.222-15.368 26.61z"/><path fill="#FFF" fill-opacity=".2" d="M174.091 89.292l15.362 26.61 15.367-26.61h-30.729z"/><path fill="#FFF" fill-opacity=".1" d="M174.091 89.292l15.362-26.611 15.367 26.611h-30.729z"/><path fill-opacity=".1" d="M158.724 62.681l15.367-26.611 15.362 26.611h-30.729z"/><path fill-opacity=".2" d="M143.363 36.07l15.362 26.611 15.367-26.611h-30.729z"/></svg>