<svg xmlns="http://www.w3.org/2000/svg" width="256" height="256"><path fill="#56B3B4" d="M170.756 71.401h10.271a3.57 3.57 0 0 1 3.571 3.571v1.564a3.57 3.57 0 0 1-3.571 3.571h-10.271a3.571 3.571 0 0 1-3.572-3.571v-1.564a3.571 3.571 0 0 1 3.572-3.571z"/><path fill="#EA5E5E" d="M40.143 210.722h45.103a3.571 3.571 0 0 1 3.571 3.571v1.564a3.57 3.57 0 0 1-3.571 3.571H40.143a3.571 3.571 0 0 1-3.571-3.571v-1.564a3.57 3.57 0 0 1 3.571-3.571z"/><path fill="#BF85BF" d="M144.632 141.061h27.688c1.972 0 3.571 1.6 3.571 3.571v1.565c0 1.973-1.6 3.571-3.571 3.571h-27.688a3.571 3.571 0 0 1-3.571-3.571v-1.565a3.571 3.571 0 0 1 3.571-3.571z"/><path fill="#EA5E5E" d="M92.388 141.061h36.395c1.973 0 3.572 1.6 3.572 3.571v1.565c0 1.973-1.6 3.571-3.572 3.571H92.388a3.57 3.57 0 0 1-3.571-3.571v-1.565a3.57 3.57 0 0 1 3.571-3.571z"/><path fill="#56B3B4" d="M40.143 141.061h36.395c1.973 0 3.571 1.6 3.571 3.571v1.565a3.57 3.57 0 0 1-3.571 3.571H40.143a3.571 3.571 0 0 1-3.571-3.571v-1.565a3.57 3.57 0 0 1 3.571-3.571z"/><path fill="#BF85BF" d="M40.143 175.892h45.103a3.571 3.571 0 0 1 3.571 3.571v1.564a3.57 3.57 0 0 1-3.571 3.571H40.143a3.571 3.571 0 0 1-3.571-3.571v-1.564a3.57 3.57 0 0 1 3.571-3.571zm0-69.661h45.103a3.571 3.571 0 0 1 3.571 3.571v1.564a3.571 3.571 0 0 1-3.571 3.572H40.143a3.571 3.571 0 0 1-3.571-3.572v-1.564a3.57 3.57 0 0 1 3.571-3.571z"/><path fill="#F7BA3E" d="M83.68 53.986h88.64a3.571 3.571 0 0 1 3.571 3.571v1.564c0 1.973-1.6 3.572-3.571 3.572H83.68a3.572 3.572 0 0 1-3.572-3.572v-1.564c0-1.972 1.6-3.571 3.572-3.571z"/><path fill="#EA5E5E" d="M40.143 53.986H67.83a3.571 3.571 0 0 1 3.572 3.571v1.564a3.572 3.572 0 0 1-3.572 3.572H40.143a3.571 3.571 0 0 1-3.571-3.572v-1.564a3.57 3.57 0 0 1 3.571-3.571z"/><path fill="#F7BA3E" d="M74.973 193.307h10.272a3.571 3.571 0 0 1 3.571 3.571v1.564a3.57 3.57 0 0 1-3.571 3.571H74.973a3.571 3.571 0 0 1-3.571-3.571v-1.564a3.57 3.57 0 0 1 3.571-3.571z"/><path fill="#56B3B4" d="M74.973 88.816h10.272a3.571 3.571 0 0 1 3.571 3.571v1.565a3.571 3.571 0 0 1-3.571 3.571H74.973a3.571 3.571 0 0 1-3.571-3.571v-1.565a3.57 3.57 0 0 1 3.571-3.571zm-34.83 104.491h18.979a3.571 3.571 0 0 1 3.572 3.571v1.564a3.57 3.57 0 0 1-3.572 3.571H40.143a3.571 3.571 0 0 1-3.571-3.571v-1.564a3.57 3.57 0 0 1 3.571-3.571z"/><path fill="#F7BA3E" d="M40.143 88.816h18.979a3.571 3.571 0 0 1 3.572 3.571v1.565a3.571 3.571 0 0 1-3.572 3.571H40.143a3.571 3.571 0 0 1-3.571-3.571v-1.565a3.57 3.57 0 0 1 3.571-3.571z"/><path opacity=".5" fill="#D0D4D8" d="M153.341 193.307h10.271a3.57 3.57 0 0 1 3.571 3.571v1.564a3.57 3.57 0 0 1-3.571 3.571h-10.271a3.571 3.571 0 0 1-3.572-3.571v-1.564a3.57 3.57 0 0 1 3.572-3.571zm-52.246 0h36.394a3.57 3.57 0 0 1 3.571 3.571v1.564a3.57 3.57 0 0 1-3.571 3.571h-36.394a3.57 3.57 0 0 1-3.571-3.571v-1.564a3.57 3.57 0 0 1 3.571-3.571zm78.368 0h36.395a3.57 3.57 0 0 1 3.571 3.571v1.564a3.57 3.57 0 0 1-3.571 3.571h-36.395a3.57 3.57 0 0 1-3.571-3.571v-1.564a3.57 3.57 0 0 1 3.571-3.571z"/><path fill="#56B3B4" d="M109.803 123.646h71.225a3.57 3.57 0 0 1 3.571 3.571v1.564a3.571 3.571 0 0 1-3.571 3.572h-71.225a3.571 3.571 0 0 1-3.571-3.572v-1.564a3.57 3.57 0 0 1 3.571-3.571z"/><path fill="#F7BA3E" d="M66.265 123.646h27.688a3.571 3.571 0 0 1 3.571 3.571v1.564a3.571 3.571 0 0 1-3.571 3.572H66.265a3.572 3.572 0 0 1-3.571-3.572v-1.564a3.572 3.572 0 0 1 3.571-3.571z"/><path fill="#EA5E5E" d="M40.143 123.646h10.272a3.571 3.571 0 0 1 3.572 3.571v1.564a3.572 3.572 0 0 1-3.572 3.572H40.143a3.572 3.572 0 0 1-3.571-3.572v-1.564a3.57 3.57 0 0 1 3.571-3.571z"/><path fill="#BF85BF" d="M118.51 71.401h36.394a3.57 3.57 0 0 1 3.571 3.571v1.564a3.57 3.57 0 0 1-3.571 3.571H118.51a3.57 3.57 0 0 1-3.571-3.571v-1.564a3.571 3.571 0 0 1 3.571-3.571z"/><path fill="#56B3B4" d="M40.143 71.401h62.518a3.571 3.571 0 0 1 3.571 3.571v1.564a3.57 3.57 0 0 1-3.571 3.571H40.143a3.571 3.571 0 0 1-3.571-3.571v-1.564a3.57 3.57 0 0 1 3.571-3.571z"/><path fill="#F7BA3E" d="M66.265 158.476h79.932c1.973 0 3.571 1.6 3.571 3.571v1.565a3.57 3.57 0 0 1-3.571 3.571H66.265a3.571 3.571 0 0 1-3.571-3.571v-1.565a3.571 3.571 0 0 1 3.571-3.571z"/><path fill="#BF85BF" d="M40.143 158.476h10.272c1.973 0 3.572 1.6 3.572 3.571v1.565a3.57 3.57 0 0 1-3.572 3.571H40.143a3.571 3.571 0 0 1-3.571-3.571v-1.565a3.57 3.57 0 0 1 3.571-3.571z"/><path fill="#EA5E5E" d="M144.632 88.816h45.103a3.571 3.571 0 0 1 3.572 3.571v1.565c0 1.972-1.6 3.571-3.572 3.571h-45.103a3.571 3.571 0 0 1-3.571-3.571v-1.565a3.571 3.571 0 0 1 3.571-3.571z"/><path fill="#F7BA3E" d="M144.632 106.231h45.103a3.571 3.571 0 0 1 3.572 3.571v1.564c0 1.973-1.6 3.572-3.572 3.572h-45.103a3.571 3.571 0 0 1-3.571-3.572v-1.564a3.571 3.571 0 0 1 3.571-3.571z"/><path fill="#56B3B4" d="M40.143 36.571h106.055a3.57 3.57 0 0 1 3.571 3.571v1.565a3.57 3.57 0 0 1-3.571 3.571H40.143a3.571 3.571 0 0 1-3.571-3.571v-1.565a3.57 3.57 0 0 1 3.571-3.571z"/><path opacity=".5" fill="#D0D4D8" d="M162.047 36.571h53.811a3.57 3.57 0 0 1 3.571 3.571v1.565a3.57 3.57 0 0 1-3.571 3.571h-53.811a3.571 3.571 0 0 1-3.571-3.571v-1.565a3.571 3.571 0 0 1 3.571-3.571zm0 121.905h18.98c1.973 0 3.571 1.6 3.571 3.571v1.565a3.57 3.57 0 0 1-3.571 3.571h-18.98a3.571 3.571 0 0 1-3.571-3.571v-1.565a3.571 3.571 0 0 1 3.571-3.571zm34.831 0h18.979c1.973 0 3.571 1.6 3.571 3.571v1.565a3.57 3.57 0 0 1-3.571 3.571h-18.979a3.57 3.57 0 0 1-3.571-3.571v-1.565a3.57 3.57 0 0 1 3.571-3.571zm-8.708-17.415h27.688c1.973 0 3.571 1.6 3.571 3.571v1.565a3.57 3.57 0 0 1-3.571 3.571H188.17a3.57 3.57 0 0 1-3.571-3.571v-1.565a3.57 3.57 0 0 1 3.571-3.571zm0-87.075h27.688a3.57 3.57 0 0 1 3.571 3.571v1.564a3.571 3.571 0 0 1-3.571 3.572H188.17a3.57 3.57 0 0 1-3.571-3.572v-1.564a3.57 3.57 0 0 1 3.571-3.571zm8.708 69.66h18.979a3.57 3.57 0 0 1 3.571 3.571v1.564a3.571 3.571 0 0 1-3.571 3.572h-18.979a3.571 3.571 0 0 1-3.571-3.572v-1.564a3.571 3.571 0 0 1 3.571-3.571zm0-52.245h18.979a3.57 3.57 0 0 1 3.571 3.571v1.564a3.57 3.57 0 0 1-3.571 3.571h-18.979a3.57 3.57 0 0 1-3.571-3.571v-1.564a3.57 3.57 0 0 1 3.571-3.571zm8.707 17.415h10.272a3.57 3.57 0 0 1 3.571 3.571v1.565a3.571 3.571 0 0 1-3.571 3.571h-10.272a3.57 3.57 0 0 1-3.571-3.571v-1.565a3.57 3.57 0 0 1 3.571-3.571zm0 17.415h10.272a3.57 3.57 0 0 1 3.571 3.571v1.564a3.571 3.571 0 0 1-3.571 3.572h-10.272a3.57 3.57 0 0 1-3.571-3.572v-1.564a3.57 3.57 0 0 1 3.571-3.571zm-69.659 69.661h79.932a3.57 3.57 0 0 1 3.571 3.571v1.564a3.57 3.57 0 0 1-3.571 3.571h-79.932a3.57 3.57 0 0 1-3.571-3.571v-1.564a3.57 3.57 0 0 1 3.571-3.571zm-34.831 0h18.979a3.571 3.571 0 0 1 3.572 3.571v1.564a3.57 3.57 0 0 1-3.572 3.571h-18.979a3.57 3.57 0 0 1-3.571-3.571v-1.564a3.57 3.57 0 0 1 3.571-3.571zm69.661 34.83h45.102a3.57 3.57 0 0 1 3.571 3.571v1.564a3.57 3.57 0 0 1-3.571 3.571h-45.102a3.571 3.571 0 0 1-3.572-3.571v-1.564a3.57 3.57 0 0 1 3.572-3.571zm-69.661 0h53.809a3.57 3.57 0 0 1 3.571 3.571v1.564a3.57 3.57 0 0 1-3.571 3.571h-53.809a3.57 3.57 0 0 1-3.571-3.571v-1.564a3.57 3.57 0 0 1 3.571-3.571zm0-121.906h27.687a3.571 3.571 0 0 1 3.572 3.571v1.565c0 1.972-1.6 3.571-3.572 3.571h-27.687a3.57 3.57 0 0 1-3.571-3.571v-1.565a3.571 3.571 0 0 1 3.571-3.571zm0 17.415h27.687a3.571 3.571 0 0 1 3.572 3.571v1.564c0 1.973-1.6 3.572-3.572 3.572h-27.687a3.57 3.57 0 0 1-3.571-3.572v-1.564a3.571 3.571 0 0 1 3.571-3.571z"/></svg>