<svg xmlns="http://www.w3.org/2000/svg" width="256" height="256" viewBox="0 -14 256 256"><path fill="#00D8FF" d="M206.939 75.545a163.513 163.513 0 0 0-7.888-2.485c.446-1.819.855-3.614 1.219-5.379 5.971-28.98 2.067-52.326-11.262-60.013-12.781-7.371-33.685.314-54.795 18.686a162.944 162.944 0 0 0-6.1 5.598 146.802 146.802 0 0 0-4.06-3.749C101.929 8.558 79.753.279 66.437 7.988c-12.769 7.392-16.55 29.34-11.176 56.804a162.384 162.384 0 0 0 1.812 8.116 161.746 161.746 0 0 0-9.067 2.852C22.065 84.803 5.5 98.976 5.5 113.677c0 15.183 17.783 30.413 44.8 39.648 2.132.729 4.344 1.417 6.624 2.07A161.038 161.038 0 0 0 55 164.141c-5.124 26.988-1.123 48.417 11.613 55.763 13.153 7.585 35.229-.212 56.727-19.003a138.79 138.79 0 0 0 5.112-4.71 161.018 161.018 0 0 0 6.624 6.042c20.821 17.917 41.388 25.153 54.109 17.787 13.142-7.606 17.411-30.628 11.867-58.636a137.722 137.722 0 0 0-1.469-6.548 148.39 148.39 0 0 0 4.556-1.423c28.087-9.307 46.361-24.351 46.361-39.737 0-14.753-17.1-29.022-43.561-38.131zm-6.091 67.934c-1.34.444-2.715.872-4.115 1.288-3.101-9.816-7.286-20.254-12.406-31.039 4.887-10.527 8.909-20.832 11.924-30.584 2.506.725 4.938 1.49 7.282 2.297 22.672 7.805 36.502 19.345 36.502 28.236-.001 9.471-14.937 21.766-39.187 29.802zm-10.064 19.94c2.453 12.384 2.803 23.581 1.178 32.335-1.458 7.864-4.393 13.108-8.021 15.21-7.721 4.468-24.232-1.341-42.039-16.664a150.812 150.812 0 0 1-6.161-5.618c6.904-7.55 13.804-16.327 20.537-26.075 11.844-1.052 23.034-2.77 33.182-5.115.498 2.016.942 3.992 1.324 5.927zM89.026 210.19c-7.544 2.665-13.552 2.74-17.184.646-7.729-4.457-10.941-21.663-6.559-44.743.502-2.644 1.1-5.357 1.788-8.133 10.037 2.219 21.145 3.815 33.017 4.778 6.779 9.538 13.878 18.306 21.032 25.982a128.388 128.388 0 0 1-4.668 4.3c-9.505 8.311-19.031 14.206-27.426 17.17zm-35.341-66.769c-11.946-4.083-21.812-9.39-28.575-15.181-6.076-5.204-9.145-10.37-9.145-14.563 0-8.921 13.301-20.3 35.483-28.034a150.62 150.62 0 0 1 8.433-2.654c3.066 9.973 7.088 20.399 11.941 30.943-4.916 10.701-8.995 21.293-12.091 31.382a130.007 130.007 0 0 1-6.046-1.893zm11.847-80.639c-4.604-23.531-1.546-41.282 6.149-45.736 8.196-4.745 26.32 2.021 45.423 18.983a137.406 137.406 0 0 1 3.676 3.393c-7.119 7.644-14.152 16.345-20.871 25.828-11.522 1.068-22.552 2.784-32.693 5.081a154.232 154.232 0 0 1-1.684-7.549zm105.682 26.095a333.831 333.831 0 0 0-7.45-12.252c7.816.988 15.307 2.3 22.34 3.906-2.111 6.767-4.743 13.843-7.842 21.096a369.22 369.22 0 0 0-7.048-12.75zm-43.097-41.976c4.828 5.23 9.663 11.069 14.418 17.405a307.378 307.378 0 0 0-28.958-.007c4.76-6.276 9.637-12.107 14.54-17.398zM84.744 88.95a309.292 309.292 0 0 0-6.916 12.669c-3.047-7.229-5.655-14.336-7.785-21.2 6.99-1.564 14.445-2.843 22.212-3.813a307.159 307.159 0 0 0-7.511 12.344zm7.734 62.545c-8.025-.896-15.591-2.109-22.58-3.63 2.164-6.986 4.829-14.245 7.941-21.631a308 308 0 0 0 6.946 12.677 310.928 310.928 0 0 0 7.693 12.584zm35.929 29.696c-4.961-5.352-9.909-11.272-14.741-17.641 4.691.184 9.474.277 14.334.277 4.993 0 9.93-.112 14.789-.329-4.77 6.485-9.587 12.414-14.382 17.693zm49.955-55.333c3.274 7.464 6.035 14.686 8.226 21.553-7.103 1.62-14.771 2.926-22.854 3.895a364.076 364.076 0 0 0 7.521-12.465 330.872 330.872 0 0 0 7.107-12.983zm-16.173 7.753a342.93 342.93 0 0 1-11.754 18.963c-7.269.521-14.78.788-22.436.788-7.625 0-15.041-.237-22.182-.701a296.23 296.23 0 0 1-11.975-18.993h.001a294.339 294.339 0 0 1-10.454-19.739 296.431 296.431 0 0 1 10.422-19.751l-.001.001a294.77 294.77 0 0 1 11.879-18.913 296.452 296.452 0 0 1 22.309-.838c7.585 0 15.065.289 22.35.845a315.116 315.116 0 0 1 11.806 18.849 342.63 342.63 0 0 1 10.562 19.658 314.638 314.638 0 0 1-10.527 19.831zM183.78 16.735c8.204 4.731 11.396 23.812 6.24 48.833a136.462 136.462 0 0 1-1.102 4.871c-10.164-2.346-21.202-4.091-32.758-5.175-6.732-9.587-13.708-18.302-20.711-25.848a154.574 154.574 0 0 1 5.634-5.167c18.09-15.741 34.995-21.956 42.697-17.514zM128 91.8c12.082 0 21.877 9.794 21.877 21.877 0 12.083-9.795 21.877-21.877 21.877-12.083 0-21.877-9.795-21.877-21.877 0-12.083 9.794-21.877 21.877-21.877z"/></svg>