<svg xmlns="http://www.w3.org/2000/svg" width="256" height="256"><filter height="200%" width="200%" x="-50%" y="-50%" filterUnits="objectBoundingBox" id="e"><feOffset dy="1" result="shadowOffsetOuter1" in="SourceAlpha"/><feGaussianBlur result="shadowBlurOuter1" stdDeviation="2" in="shadowOffsetOuter1"/><feColorMatrix result="shadowMatrixOuter1" in="shadowBlurOuter1" values="0 0 0 0 0 0 0 0 0 0 0 0 0 0 0 0 0 0 13 0"/><feMerge><feMergeNode in="shadowMatrixOuter1"/><feMergeNode in="SourceGraphic"/></feMerge></filter><filter height="200%" width="200%" x="-50%" y="-50%" filterUnits="objectBoundingBox" id="a"><feOffset dy="2" result="shadowOffsetOuter1" in="SourceAlpha"/><feGaussianBlur result="shadowBlurOuter1" stdDeviation="2" in="shadowOffsetOuter1"/><feColorMatrix result="shadowMatrixOuter1" in="shadowBlurOuter1" values="0 0 0 0 0 0 0 0 0 0 0 0 0 0 0 0 0 0 0.266007133 0"/><feMerge><feMergeNode in="shadowMatrixOuter1"/><feMergeNode in="SourceGraphic"/></feMerge></filter><g transform="translate(4 2)"><g filter="url(#a)"><linearGradient id="b" gradientUnits="userSpaceOnUse" x1="-74.318" y1="324.49" x2="-74.318" y2="325.15" gradientTransform="matrix(248 0 0 -248 18554.875 80679.625)"><stop offset=".25" stop-color="#dbdbda"/><stop offset="1" stop-color="#fff"/></linearGradient><circle fill="url(#b)" cx="124" cy="124" r="81.906"/></g><radialGradient id="c" cx="-74.216" cy="324.798" r=".403" gradientTransform="matrix(229.4 0 0 -229.4 17159.95 74616.102)" gradientUnits="userSpaceOnUse"><stop offset="0" stop-color="#2abce1"/><stop offset=".114" stop-color="#2abbe1"/><stop offset="1" stop-color="#3375f8"/></radialGradient><circle fill="url(#c)" cx="124" cy="124" r="75.763"/><g transform="translate(9.688 8.719)"><path fill="#F3F3F3" d="M114.44 57.947c-.512 0-.96-.384-.96-.896V43.677c0-.512.448-.896.96-.896s.96.384.96.896v13.374c-.064.512-.448.896-.96.896z"/><path fill="#FFF" d="M114.44 58.011c-.576 0-1.024-.448-1.024-.96V43.677c0-.512.448-.96 1.024-.96.576 0 1.024.448 1.024.96v13.374c.001.512-.512.96-1.024.96zm0-15.166c-.448 0-.896.384-.896.832v13.374c0 .448.384.832.896.832.448 0 .896-.384.896-.832V43.677c-.064-.448-.447-.832-.896-.832z"/><path fill="#F3F3F3" d="M120.839 50.78c-.512-.064-.896-.448-.896-.96l.448-5.951c.063-.512.512-.896 1.023-.832.513.064.896.448.896.96l-.448 5.951c-.063.512-.51.896-1.023.832z"/><path fill="#FFF" d="M120.839 50.844c-.575-.063-.96-.512-.96-1.023l.448-5.951c.064-.512.512-.959 1.088-.896.576.063.96.512.96 1.023l-.447 5.951c-.065.576-.513.96-1.089.896zm.576-7.742c-.447 0-.896.32-.896.768l-.448 5.951c0 .448.32.832.832.896.448 0 .896-.32.896-.768l.448-5.951c0-.449-.384-.833-.832-.896z"/><path fill="#F3F3F3" d="M125.639 59.099c-.512-.128-.832-.576-.768-1.088l2.623-13.118c.128-.512.576-.832 1.088-.704.512.127.832.576.768 1.087l-2.623 13.118c-.064.449-.577.769-1.088.705z"/><path fill="#FFF" d="M125.639 59.163a1.044 1.044 0 0 1-.832-1.152l2.624-13.118c.127-.512.64-.896 1.216-.768s.896.64.831 1.152l-2.623 13.118c-.128.512-.64.832-1.216.768zm3.007-14.91c-.448-.063-.896.192-1.024.64l-2.624 13.118a.908.908 0 0 0 .705 1.024c.447.064.896-.192 1.023-.64l2.623-13.118c.065-.512-.255-.896-.703-1.024z"/><path fill="#F3F3F3" d="M133.317 53.34a.954.954 0 0 1-.704-1.152l1.6-5.759c.129-.512.64-.768 1.152-.64.512.128.831.64.703 1.152l-1.6 5.759c-.126.512-.639.768-1.151.64z"/><path fill="#FFF" d="M133.317 53.403c-.512-.128-.896-.704-.704-1.215l1.6-5.759c.129-.512.704-.832 1.216-.704.513.128.896.704.704 1.216l-1.6 5.759c-.128.512-.639.832-1.216.703zm2.112-7.486c-.447-.128-.96.128-1.087.576l-1.601 5.759c-.128.448.128.896.641 1.023.447.128.96-.127 1.087-.576l1.6-5.759c.064-.447-.192-.895-.64-1.023z"/><path fill="#F3F3F3" d="M136.453 62.362c-.512-.192-.704-.768-.512-1.216l5.119-12.35c.191-.448.768-.704 1.215-.448.513.192.704.768.513 1.216l-5.119 12.35c-.192.448-.768.704-1.216.448z"/><path fill="#FFF" d="M136.453 62.426a.993.993 0 0 1-.576-1.28l5.119-12.35c.191-.512.768-.704 1.344-.512a.993.993 0 0 1 .575 1.28l-5.119 12.35c-.255.512-.831.768-1.343.512zm5.822-14.013a.867.867 0 0 0-1.151.448l-5.119 12.35c-.192.448.063.896.512 1.088s.96 0 1.152-.448l5.119-12.35c.127-.385-.064-.897-.513-1.088z"/><path fill="#F3F3F3" d="M145.091 58.267c-.447-.256-.64-.768-.447-1.216l2.688-5.311c.256-.448.768-.64 1.279-.384.448.256.641.768.448 1.216l-2.688 5.311c-.256.448-.767.639-1.28.384z"/><path fill="#FFF" d="M145.091 58.331a.979.979 0 0 1-.447-1.344l2.688-5.312c.256-.512.832-.704 1.344-.448s.704.832.448 1.344l-2.688 5.311a.979.979 0 0 1-1.345.449zm3.519-6.975c-.447-.192-.96-.064-1.151.384l-2.688 5.311c-.191.384 0 .896.384 1.152.448.192.96.064 1.151-.384l2.688-5.311c.193-.384 0-.896-.384-1.152z"/><path fill="#F3F3F3" d="M146.371 67.737c-.448-.32-.576-.896-.256-1.28l7.423-11.07c.256-.448.832-.512 1.28-.256.447.32.575.896.255 1.28l-7.423 11.07c-.255.448-.831.576-1.279.256z"/><path fill="#FFF" d="M146.371 67.801c-.448-.32-.576-.96-.32-1.408l7.423-11.07c.32-.448.896-.576 1.408-.256.447.32.576.96.32 1.408l-7.423 11.07c-.32.448-.96.576-1.408.256zm8.447-12.606c-.385-.256-.96-.192-1.217.192l-7.422 11.07c-.257.384-.129.896.255 1.152.385.256.96.192 1.216-.192l7.423-11.006c.256-.384.129-.96-.255-1.216z"/><path fill="#F3F3F3" d="M155.713 65.37c-.384-.32-.511-.896-.191-1.28l3.711-4.671c.32-.384.896-.448 1.28-.128s.512.896.192 1.28l-3.712 4.671a.915.915 0 0 1-1.28.128z"/><path fill="#FFF" d="M155.649 65.434c-.447-.32-.512-.96-.191-1.408l3.711-4.671c.32-.448.96-.512 1.408-.128.447.32.512.96.191 1.408l-3.711 4.671c-.32.447-.959.511-1.408.128zm4.799-6.08c-.384-.32-.896-.256-1.216.128l-3.711 4.671a.908.908 0 0 0 .191 1.216c.385.32.896.256 1.217-.128l3.711-4.671c.256-.383.192-.96-.192-1.216z"/><path fill="#F3F3F3" d="M155.073 74.968c-.384-.384-.384-.959 0-1.279l9.471-9.407a.907.907 0 0 1 1.28 0c.319.32.384.96 0 1.28l-9.406 9.406a.93.93 0 0 1-1.345 0z"/><path fill="#FFF" d="M155.01 75.032a1.003 1.003 0 0 1 0-1.407l9.471-9.407c.384-.384 1.023-.384 1.407 0s.384 1.024 0 1.408l-9.47 9.406a1.004 1.004 0 0 1-1.408 0zm10.814-10.75a.89.89 0 0 0-1.216 0l-9.471 9.407a.892.892 0 0 0 0 1.216.89.89 0 0 0 1.216 0l9.471-9.407c.32-.32.32-.832 0-1.216z"/><path fill="#F3F3F3" d="M164.672 74.456c-.32-.384-.32-.96.064-1.28l4.543-3.839a.913.913 0 0 1 1.28.128c.319.384.319.96-.064 1.28l-4.544 3.839a.912.912 0 0 1-1.279-.128z"/><path fill="#FFF" d="M164.608 74.52c-.384-.448-.32-1.088.063-1.408l4.544-3.839c.384-.384 1.023-.32 1.407.128s.32 1.088-.063 1.408l-4.544 3.839c-.383.384-1.023.32-1.407-.128zm5.887-5.055c-.319-.384-.832-.384-1.216-.128l-4.543 3.839c-.32.32-.385.832-.064 1.216.32.384.832.384 1.216.128l4.543-3.839c.384-.32.384-.832.064-1.216z"/><path fill="#F3F3F3" d="M162.112 83.67c-.32-.448-.191-1.024.256-1.28l11.135-7.423c.447-.256 1.023-.128 1.279.256.32.448.192 1.024-.256 1.28l-11.135 7.423c-.383.257-.958.129-1.279-.256z"/><path fill="#FFF" d="M162.049 83.67c-.32-.448-.192-1.087.256-1.408l11.134-7.423c.448-.32 1.088-.192 1.407.32.32.448.192 1.088-.256 1.408l-11.134 7.422c-.448.322-1.088.194-1.407-.319zm12.67-8.382c-.256-.384-.769-.512-1.152-.256l-11.134 7.423c-.384.255-.512.768-.192 1.215.257.384.768.512 1.151.256l11.135-7.423a.906.906 0 0 0 .192-1.215z"/><path fill="#F3F3F3" d="M171.646 85.015c-.256-.448-.127-1.024.32-1.28l5.183-2.943c.448-.256 1.024-.064 1.28.384s.128 1.024-.32 1.28l-5.183 2.943c-.447.255-1.024.063-1.28-.384z"/><path fill="#FFF" d="M171.583 85.078c-.256-.512-.128-1.088.319-1.344l5.184-2.943c.448-.256 1.088-.064 1.344.384.256.512.128 1.088-.32 1.344l-5.183 2.944c-.448.255-1.088.063-1.344-.385zm6.782-3.839c-.256-.448-.768-.576-1.151-.32l-5.184 2.944a.919.919 0 0 0-.319 1.152c.256.448.768.576 1.151.32l5.184-2.944c.384-.192.512-.704.319-1.152z"/><path fill="#F3F3F3" d="M167.359 93.525c-.191-.512 0-1.024.512-1.216l12.351-5.119c.447-.192 1.023.064 1.216.512.191.512 0 1.023-.513 1.215l-12.35 5.119a.915.915 0 0 1-1.216-.511z"/><path fill="#FFF" d="M167.296 93.589c-.192-.512 0-1.088.512-1.344l12.35-5.119a.994.994 0 0 1 1.28.576c.191.512 0 1.087-.513 1.344l-12.35 5.119a.993.993 0 0 1-1.279-.576zm14.013-5.823c-.191-.448-.703-.64-1.087-.512l-12.351 5.119c-.447.192-.64.704-.447 1.152s.703.64 1.087.512l12.351-5.119c.447-.192.639-.704.447-1.152z"/><path fill="#F3F3F3" d="M176.382 96.725c-.192-.512.064-1.024.576-1.216l5.631-1.855c.448-.192 1.024.128 1.152.576.191.512-.064 1.024-.576 1.216l-5.631 1.856c-.448.19-.96-.066-1.152-.577z"/><path fill="#FFF" d="M176.318 96.788c-.192-.512.063-1.087.64-1.28l5.631-1.855c.512-.192 1.088.128 1.279.64.192.512-.063 1.088-.64 1.28l-5.631 1.855c-.511.128-1.087-.128-1.279-.64zm7.423-2.431c-.128-.448-.641-.704-1.088-.576l-5.632 1.856c-.447.128-.64.64-.512 1.088.129.448.64.704 1.088.576l5.631-1.856c.449-.192.64-.64.513-1.088z"/><path fill="#F3F3F3" d="M170.623 104.339c-.128-.512.192-1.024.704-1.088l13.117-2.56c.513-.128.96.256 1.089.768.127.512-.192 1.024-.705 1.088l-13.117 2.56c-.512.064-1.024-.256-1.088-.768z"/><path fill="#FFF" d="M170.495 104.339c-.128-.576.256-1.088.768-1.216l13.118-2.56c.512-.128 1.023.256 1.152.832.127.576-.257 1.088-.769 1.216l-13.118 2.56c-.511.128-1.023-.256-1.151-.832zm14.909-2.88c-.063-.448-.512-.768-.96-.704l-13.117 2.56c-.448.064-.768.576-.641 1.024.064.448.513.768.96.704l13.118-2.56c.449-.128.769-.576.64-1.024z"/><path fill="#F3F3F3" d="M178.813 109.266c-.064-.512.256-.96.769-1.024l5.887-.704c.512-.064.959.32 1.023.832.064.512-.256.959-.768 1.023l-5.887.704c-.447.065-.959-.319-1.024-.831z"/><path fill="#FFF" d="M178.749 109.266c-.063-.576.32-1.087.833-1.152l5.887-.704c.512-.064 1.023.32 1.088.896.063.576-.32 1.088-.832 1.152l-5.887.704c-.513.064-1.025-.32-1.089-.896zm7.743-.895c-.064-.448-.512-.832-.959-.768l-5.888.704c-.448.064-.768.512-.704.96.064.448.513.832.96.768l5.887-.704c.448-.065.769-.513.704-.96z"/><path fill="#F3F3F3" d="M171.646 115.473c0-.512.384-.96.896-.96h13.374c.511 0 .896.448.896.96s-.385.96-.896.96h-13.374c-.512 0-.896-.448-.896-.96z"/><path fill="#FFF" d="M171.583 115.473c0-.576.447-1.024.96-1.024h13.374c.511 0 .96.448.96 1.024 0 .576-.449 1.024-.96 1.024h-13.374c-.513 0-.96-.448-.96-1.024zm15.165.064c0-.448-.384-.896-.831-.896h-13.374c-.448 0-.832.384-.832.896 0 .448.384.896.832.896h13.374c.447-.064.831-.448.831-.896z"/><path fill="#F3F3F3" d="M178.749 121.937c.064-.513.448-.896.96-.896l5.951.448c.513.064.896.512.832 1.024-.064.511-.448.895-.959.895l-5.951-.447c-.448-.065-.833-.513-.833-1.024z"/><path fill="#FFF" d="M178.686 121.937c.063-.576.512-.96 1.023-.96l5.951.447c.513.064.96.513.896 1.089-.064.575-.513.959-1.023.959l-5.951-.448c-.513-.064-.896-.576-.896-1.087zm7.806.576c.064-.448-.319-.896-.768-.896l-5.951-.448c-.448 0-.832.32-.896.832-.064.448.319.896.768.896l5.951.447c.448 0 .832-.384.896-.831z"/><path fill="#F3F3F3" d="M170.495 126.607c.128-.512.575-.832 1.088-.768l13.118 2.623c.512.128.832.576.703 1.088-.128.512-.576.832-1.088.768l-13.117-2.623c-.448-.063-.768-.576-.704-1.088z"/><path fill="#FFF" d="M170.431 126.607c.129-.576.64-.896 1.152-.832l13.118 2.624c.512.127.896.64.768 1.216s-.641.896-1.152.831l-13.117-2.623c-.513-.128-.833-.639-.769-1.216zm14.91 3.008c.063-.448-.192-.896-.64-1.024l-13.118-2.624a.906.906 0 0 0-1.023.705c-.064.447.191.896.64 1.023l13.117 2.623c.511.065.896-.255 1.024-.703z"/><path fill="#F3F3F3" d="M176.254 134.286a.954.954 0 0 1 1.152-.704l5.759 1.6c.512.129.768.64.64 1.152a.953.953 0 0 1-1.151.703l-5.759-1.6c-.513-.126-.769-.639-.641-1.151z"/><path fill="#FFF" d="M176.189 134.286c.129-.512.705-.896 1.217-.704l5.759 1.6c.512.129.832.704.703 1.216-.127.513-.703.896-1.215.704l-5.759-1.6c-.512-.128-.831-.64-.705-1.216zm7.488 2.111c.128-.447-.128-.96-.576-1.087l-5.759-1.601c-.447-.128-.896.128-1.023.641-.129.447.128.96.576 1.087l5.759 1.6c.447.065.895-.191 1.023-.64z"/><path fill="#F3F3F3" d="M167.231 137.357c.192-.512.769-.704 1.216-.512l12.351 5.119c.447.191.703.768.511 1.216-.191.512-.768.703-1.215.512l-12.351-5.119c-.512-.192-.703-.767-.512-1.216z"/><path fill="#FFF" d="M167.168 137.294a.991.991 0 0 1 1.279-.576l12.351 5.119c.511.192.703.768.511 1.344a.993.993 0 0 1-1.279.576l-12.35-5.119c-.512-.257-.704-.832-.512-1.344zm14.014 5.822a.868.868 0 0 0-.448-1.151l-12.35-5.119c-.448-.192-.896.064-1.088.512-.192.448 0 .96.447 1.152l12.351 5.119c.447.128.96-.065 1.088-.513z"/><path fill="#F3F3F3" d="M171.391 145.996c.256-.447.769-.64 1.216-.447l5.312 2.687c.447.192.64.768.384 1.28-.256.447-.768.64-1.216.447l-5.311-2.688c-.449-.255-.641-.832-.385-1.279z"/><path fill="#FFF" d="M171.327 145.933a.977.977 0 0 1 1.344-.448l5.311 2.688a.977.977 0 0 1 .448 1.344.977.977 0 0 1-1.344.447l-5.311-2.688c-.512-.192-.705-.833-.448-1.343zm6.911 3.518c.191-.448.063-.959-.384-1.151l-5.312-2.688c-.384-.192-.896 0-1.152.384-.191.447-.063.96.385 1.152l5.311 2.688c.448.191.96.063 1.152-.385z"/><path fill="#F3F3F3" d="M161.984 147.212c.32-.448.832-.576 1.28-.256l11.134 7.423c.447.256.512.832.256 1.279-.319.448-.832.576-1.279.256l-11.135-7.422c-.448-.32-.576-.896-.256-1.28z"/><path fill="#FFF" d="M161.921 147.148c.319-.448.96-.576 1.407-.32l11.135 7.423c.447.319.575.896.256 1.407-.32.448-.96.576-1.408.32l-11.134-7.423c-.513-.32-.576-.959-.256-1.407zm12.605 8.447c.256-.384.192-.96-.191-1.216l-11.135-7.423c-.384-.256-.896-.128-1.151.256-.257.384-.192.96.191 1.216l11.135 7.423c.384.255.896.128 1.151-.256z"/><path fill="#F3F3F3" d="M164.352 156.49c.32-.384.896-.512 1.28-.192l4.671 3.648a.912.912 0 0 1 .128 1.279c-.319.384-.896.512-1.279.191l-4.671-3.646a.913.913 0 0 1-.129-1.28z"/><path fill="#FFF" d="M164.288 156.427c.32-.448.96-.513 1.408-.192l4.671 3.647c.448.319.512.96.192 1.408-.32.447-.96.511-1.408.191l-4.671-3.647c-.448-.32-.512-.96-.192-1.407zm6.143 4.799c.32-.384.256-.896-.128-1.216l-4.671-3.647a.908.908 0 0 0-1.216.192c-.319.384-.256.896.128 1.216l4.672 3.646c.384.257.895.192 1.215-.191z"/><path fill="#F3F3F3" d="M154.818 155.851c.384-.384.959-.384 1.279 0l9.47 9.406c.384.384.32.96 0 1.279-.384.384-.959.384-1.279 0l-9.47-9.406c-.32-.319-.32-.959 0-1.279z"/><path fill="#FFF" d="M154.818 155.787a1.001 1.001 0 0 1 1.407 0l9.471 9.406a1.003 1.003 0 0 1 0 1.407 1.004 1.004 0 0 1-1.408 0l-9.47-9.406a.904.904 0 0 1 0-1.407zm10.749 10.686a.89.89 0 0 0 0-1.216l-9.47-9.406c-.32-.32-.896-.32-1.216 0s-.32.896 0 1.216l9.47 9.406c.321.383.833.383 1.216 0z"/><path fill="#F3F3F3" d="M155.394 165.385c.384-.319.96-.319 1.279.064l3.904 4.479c.319.385.255.96-.129 1.28s-.959.32-1.279-.063l-3.903-4.479c-.321-.321-.256-.897.128-1.281z"/><path fill="#FFF" d="M155.329 165.385c.448-.384 1.024-.319 1.408.064l3.903 4.479c.384.385.32 1.024-.128 1.408s-1.023.319-1.407-.064l-3.903-4.479c-.32-.448-.32-1.088.127-1.408zm5.119 5.823c.384-.32.384-.832.129-1.216l-3.904-4.479c-.319-.319-.831-.384-1.215-.063-.385.319-.385.831-.129 1.216l3.903 4.479c.321.383.832.383 1.216.063z"/><path fill="#F3F3F3" d="M146.18 162.953c.447-.32 1.023-.192 1.279.256l7.423 11.07c.256.448.128 1.024-.256 1.279-.448.32-1.024.192-1.28-.255l-7.423-11.07c-.256-.448-.128-1.024.257-1.28z"/><path fill="#FFF" d="M146.18 162.89c.447-.32 1.087-.192 1.407.256l7.423 11.069c.319.448.192 1.089-.32 1.408-.447.32-1.088.192-1.407-.256l-7.423-11.07c-.321-.512-.193-1.088.32-1.407zm8.446 12.605c.384-.256.512-.768.256-1.151l-7.423-11.07c-.256-.384-.768-.448-1.216-.192-.384.256-.512.769-.256 1.152l7.423 11.07c.256.319.832.447 1.216.191z"/><path fill="#F3F3F3" d="M144.835 172.424c.448-.256 1.024-.128 1.28.32l2.943 5.183c.256.448.064 1.023-.384 1.28-.448.256-1.024.127-1.28-.32l-2.943-5.183c-.191-.448-.063-1.024.384-1.28z"/><path fill="#FFF" d="M144.835 172.359c.513-.256 1.088-.128 1.345.32l2.943 5.184c.256.447.128 1.087-.384 1.344-.513.256-1.089.127-1.345-.32l-2.943-5.183c-.256-.448-.128-1.024.384-1.345zm3.84 6.784c.384-.256.576-.768.319-1.152l-2.943-5.183a.918.918 0 0 0-1.151-.32c-.384.257-.576.769-.319 1.152l2.943 5.184c.191.383.767.574 1.151.319z"/><path fill="#F3F3F3" d="M136.325 168.2c.512-.191 1.023 0 1.216.448l5.183 12.35c.191.448-.063 1.024-.512 1.216-.448.192-1.024 0-1.216-.447l-5.184-12.351c-.191-.447.065-1.023.513-1.216z"/><path fill="#FFF" d="M136.325 168.137c.512-.192 1.087 0 1.344.512l5.183 12.35a.992.992 0 0 1-.576 1.279c-.512.192-1.088 0-1.344-.511l-5.183-12.351c-.192-.447.064-1.023.576-1.279zm5.822 14.013c.448-.192.641-.704.448-1.088l-5.184-12.351c-.191-.447-.703-.64-1.151-.447-.448.191-.64.704-.448 1.088l5.184 12.35c.256.448.704.64 1.151.448z"/><path fill="#F3F3F3" d="M133.189 177.287c.512-.192 1.023.063 1.216.576l1.855 5.631c.192.448-.128 1.023-.576 1.151-.512.191-1.023-.063-1.216-.576l-1.855-5.631c-.191-.448.064-.959.576-1.151z"/><path fill="#FFF" d="M133.125 177.223a.995.995 0 0 1 1.28.576l1.855 5.631c.192.513-.128 1.088-.64 1.28a.994.994 0 0 1-1.279-.576l-1.856-5.631c-.128-.513.128-1.088.64-1.28zm2.496 7.359c.447-.129.704-.64.575-1.088l-1.854-5.631c-.129-.448-.641-.641-1.089-.513-.447.128-.703.64-.576 1.088l1.856 5.631a.808.808 0 0 0 1.088.513z"/><path fill="#F3F3F3" d="M125.639 171.464c.512-.128 1.024.191 1.088.704l2.688 13.117c.128.512-.256.96-.768 1.088-.513.129-1.024-.191-1.089-.703l-2.687-13.118c-.064-.448.256-.96.768-1.088z"/><path fill="#FFF" d="M125.639 171.399c.576-.128 1.088.256 1.216.769l2.688 13.117c.128.512-.256 1.088-.768 1.152-.576.128-1.088-.256-1.217-.768l-2.687-13.118c-.128-.512.192-1.023.768-1.152zm3.007 14.911c.447-.064.768-.513.703-1.024l-2.687-13.117c-.064-.448-.576-.769-1.024-.64-.448.063-.768.511-.704 1.023l2.688 13.118c.128.447.576.703 1.024.64z"/><path fill="#F3F3F3" d="M120.775 179.782c.512-.064.96.256 1.088.769l.768 5.887c.064.512-.319.959-.832 1.023-.512.064-.96-.256-1.088-.768l-.768-5.887c-.064-.512.321-.959.832-1.024z"/><path fill="#FFF" d="M120.775 179.718c.576-.063 1.088.32 1.152.833l.768 5.887c.063.512-.32 1.023-.896 1.088-.575.063-1.088-.32-1.151-.832l-.769-5.887c-.064-.513.32-1.025.896-1.089zm.96 7.678c.448-.063.832-.511.768-.959l-.768-5.887c-.064-.448-.512-.769-.96-.704-.448.063-.832.512-.768.96l.768 5.887c.064.449.512.768.96.703z"/><path fill="#F3F3F3" d="M114.185 172.615c.512 0 .96.384.96.896v13.374c0 .511-.448.896-.96.896s-.96-.385-.96-.896v-13.374c.064-.512.448-.896.96-.896z"/><path fill="#FFF" d="M114.185 172.552c.576 0 1.023.447 1.023.96v13.374c0 .511-.448.959-1.023.959s-1.024-.448-1.024-.959v-13.374c0-.513.512-.96 1.024-.96zm0 15.165c.448 0 .896-.384.896-.831v-13.374c0-.448-.384-.832-.896-.832-.448 0-.896.384-.896.832v13.374c.064.447.447.831.896.831z"/><path fill="#F3F3F3" d="M107.786 179.782c.512.064.896.448.896.96l-.448 5.951c-.064.512-.512.896-1.023.832-.512-.064-.896-.448-.896-.96l.448-5.951c.063-.511.51-.896 1.023-.832z"/><path fill="#FFF" d="M107.786 179.718c.576.064.96.513.96 1.024l-.448 5.951c-.064.512-.512.96-1.087.896-.576-.063-.96-.512-.96-1.023l.448-5.951c.063-.577.511-.961 1.087-.897zm-.576 7.743c.448 0 .896-.319.896-.768l.448-5.951c0-.448-.32-.832-.832-.896-.448 0-.896.319-.896.768l-.448 5.951c0 .448.384.831.832.896z"/><path fill="#F3F3F3" d="M102.986 171.464c.512.128.832.575.768 1.088l-2.624 13.118c-.128.512-.576.832-1.088.703-.512-.128-.832-.576-.768-1.088l2.624-13.117c.065-.448.577-.769 1.088-.704z"/><path fill="#FFF" d="M102.986 171.399c.576.129.896.64.832 1.152l-2.624 13.118c-.128.512-.64.896-1.216.768s-.896-.641-.832-1.152l2.624-13.117c.128-.513.641-.832 1.216-.769zm-3.007 14.911c.448.063.896-.192 1.024-.64l2.624-13.118a.905.905 0 0 0-.704-1.023c-.448-.064-.896.191-1.024.64l-2.624 13.117c-.064.511.256.896.704 1.024z"/><path fill="#F3F3F3" d="M95.308 177.223a.954.954 0 0 1 .704 1.152l-1.6 5.759c-.128.512-.64.768-1.152.64a.953.953 0 0 1-.704-1.151l1.6-5.759c.128-.513.64-.769 1.152-.641z"/><path fill="#FFF" d="M95.308 177.158c.512.129.896.705.704 1.217l-1.6 5.759c-.128.512-.704.832-1.216.703-.512-.127-.896-.703-.704-1.215l1.6-5.759c.128-.512.64-.832 1.216-.705zm-2.112 7.488c.448.128.959-.128 1.088-.576l1.6-5.759c.128-.447-.128-.896-.64-1.023-.448-.129-.959.128-1.088.576l-1.6 5.759c-.064.446.192.895.64 1.023z"/><path fill="#F3F3F3" d="M92.172 168.2c.512.192.704.769.512 1.216l-5.119 12.351c-.192.447-.768.703-1.216.447s-.704-.768-.512-1.216l5.119-12.35c.192-.448.769-.704 1.216-.448z"/><path fill="#FFF" d="M92.172 168.137a.993.993 0 0 1 .576 1.279l-5.119 12.351c-.192.511-.768.703-1.344.511a.993.993 0 0 1-.576-1.279l5.119-12.35c.256-.512.832-.769 1.344-.512zm-5.823 14.013c.448.191.96 0 1.152-.448l5.119-12.35c.192-.448-.064-.896-.512-1.088a.868.868 0 0 0-1.152.447l-5.119 12.351c-.128.384.064.896.512 1.088z"/><path fill="#F3F3F3" d="M83.534 172.296c.448.256.64.768.448 1.216l-2.688 5.312c-.256.447-.768.64-1.28.384-.448-.257-.64-.769-.448-1.217l2.688-5.311c.256-.449.767-.641 1.28-.384z"/><path fill="#FFF" d="M83.534 172.231a.978.978 0 0 1 .448 1.344l-2.688 5.312a.977.977 0 0 1-1.344.447.978.978 0 0 1-.448-1.344l2.688-5.311a.98.98 0 0 1 1.344-.448zm-3.52 6.976c.448.191.96.063 1.152-.384l2.688-5.312c.192-.384 0-.896-.384-1.152-.448-.191-.96-.063-1.152.385l-2.688 5.311c-.192.383 0 .895.384 1.152z"/><path fill="#F3F3F3" d="M82.254 162.825c.448.32.576.896.256 1.28l-7.423 11.069c-.256.448-.832.513-1.279.257-.448-.32-.576-.896-.256-1.28l7.423-11.07c.255-.448.831-.575 1.279-.256z"/><path fill="#FFF" d="M82.254 162.761c.448.32.576.96.32 1.408l-7.423 11.07c-.32.448-.896.576-1.408.256-.448-.32-.576-.96-.32-1.407l7.423-11.07c.32-.449.96-.577 1.408-.257zm-8.446 12.606c.384.256.959.191 1.215-.192l7.423-11.069c.256-.385.128-.896-.256-1.152s-.96-.192-1.216.192l-7.423 11.006c-.256.383-.128.959.257 1.215z"/><path fill="#F3F3F3" d="M72.912 165.193c.384.319.512.896.192 1.279l-3.711 4.672a.913.913 0 0 1-1.28.127c-.384-.319-.512-.896-.192-1.279l3.711-4.672a.914.914 0 0 1 1.28-.127z"/><path fill="#FFF" d="M72.976 165.129c.448.32.512.96.192 1.407l-3.711 4.672c-.32.447-.96.512-1.408.128-.448-.32-.512-.96-.192-1.408l3.711-4.671c.32-.448.959-.512 1.408-.128zm-4.8 6.079c.384.32.896.256 1.216-.128l3.711-4.671a.907.907 0 0 0-.192-1.216c-.384-.32-.896-.257-1.216.127l-3.711 4.672c-.255.384-.192.96.192 1.216z"/><path fill="#F3F3F3" d="M73.551 155.595c.384.384.384.96 0 1.279l-9.47 9.406a.906.906 0 0 1-1.28 0c-.32-.319-.384-.96 0-1.279l9.406-9.406a.928.928 0 0 1 1.344 0z"/><path fill="#FFF" d="M73.615 155.53a1.004 1.004 0 0 1 0 1.408l-9.47 9.406a1.004 1.004 0 0 1-1.408 0 1.004 1.004 0 0 1 0-1.408l9.47-9.406a1.004 1.004 0 0 1 1.408 0zm-10.814 10.75a.89.89 0 0 0 1.216 0l9.47-9.406c.32-.319.32-.896 0-1.216a.892.892 0 0 0-1.216 0l-9.47 9.407c-.32.32-.32.831 0 1.215z"/><path fill="#F3F3F3" d="M63.953 156.106c.32.384.32.96-.064 1.28l-4.543 3.839c-.384.32-.96.256-1.28-.128s-.32-.96.064-1.28l4.543-3.839a.914.914 0 0 1 1.28.128z"/><path fill="#FFF" d="M64.017 156.042c.384.448.32 1.088-.064 1.408l-4.543 3.84c-.384.384-1.024.319-1.408-.129-.384-.447-.32-1.087.064-1.407l4.543-3.84c.384-.384 1.024-.319 1.408.128zm-5.887 5.056c.32.384.832.384 1.216.128l4.543-3.839c.32-.32.384-.832.064-1.216s-.832-.384-1.216-.129l-4.543 3.84c-.384.319-.384.832-.064 1.216z"/><path fill="#F3F3F3" d="M66.513 146.892c.32.448.192 1.024-.256 1.28l-11.134 7.423c-.448.256-1.024.128-1.28-.256-.32-.448-.192-1.024.256-1.28l11.134-7.423c.384-.256.959-.128 1.28.256z"/><path fill="#FFF" d="M66.577 146.892c.32.448.192 1.088-.256 1.408l-11.134 7.423c-.448.319-1.088.191-1.408-.32-.32-.447-.192-1.088.256-1.407l11.134-7.423c.448-.321 1.088-.193 1.408.319zm-12.67 8.382c.256.384.768.513 1.152.256l11.134-7.422c.384-.257.512-.769.192-1.217-.255-.384-.768-.512-1.151-.256L54.1 154.058c-.385.321-.449.833-.193 1.216z"/><path fill="#F3F3F3" d="M56.978 145.549c.256.447.128 1.023-.32 1.279l-5.183 2.943c-.448.256-1.024.064-1.28-.384s-.128-1.024.32-1.279l5.183-2.944c.448-.256 1.024-.063 1.28.385z"/><path fill="#FFF" d="M57.042 145.484c.256.512.128 1.088-.32 1.344l-5.183 2.943c-.448.256-1.088.064-1.344-.384-.256-.512-.128-1.088.32-1.344l5.183-2.943c.448-.256 1.088-.064 1.344.384zm-6.783 3.839c.256.448.768.576 1.152.32l5.183-2.943a.918.918 0 0 0 .32-1.151c-.256-.448-.768-.576-1.152-.32l-5.183 2.943c-.384.191-.512.704-.32 1.151z"/><path fill="#F3F3F3" d="M61.265 137.037c.192.513 0 1.024-.512 1.217l-12.35 5.119c-.448.191-1.023-.064-1.216-.513-.192-.512 0-1.023.512-1.216l12.35-5.119c.449-.191 1.024 0 1.216.512z"/><path fill="#FFF" d="M61.33 136.974c.192.512 0 1.088-.512 1.344l-12.35 5.119a.994.994 0 0 1-1.28-.576c-.192-.512 0-1.088.512-1.344l12.35-5.119a.993.993 0 0 1 1.28.576zm-14.014 5.823c.192.447.704.64 1.087.512l12.35-5.119c.448-.192.64-.704.448-1.152-.191-.447-.704-.64-1.087-.512l-12.35 5.119c-.448.192-.64.704-.448 1.152z"/><path fill="#F3F3F3" d="M52.243 133.838c.192.513-.064 1.024-.576 1.216l-5.631 1.856c-.448.191-1.024-.129-1.152-.576-.192-.513.064-1.023.576-1.216l5.631-1.856c.448-.192.96.064 1.152.576z"/><path fill="#FFF" d="M52.307 133.774c.192.512-.063 1.088-.64 1.279l-5.631 1.856c-.512.191-1.088-.129-1.28-.641s.064-1.088.64-1.279l5.631-1.855c.512-.128 1.088.128 1.28.64zm-7.423 2.431c.128.448.64.705 1.088.576l5.631-1.855c.448-.128.64-.64.512-1.088-.128-.447-.64-.703-1.088-.576l-5.631 1.856a.883.883 0 0 0-.512 1.087z"/><path fill="#F3F3F3" d="M58.002 126.224c.128.512-.192 1.023-.704 1.088l-13.118 2.56c-.512.128-.959-.256-1.087-.769-.128-.512.191-1.023.704-1.087l13.118-2.56c.511-.064 1.023.256 1.087.768z"/><path fill="#FFF" d="M58.13 126.224c.128.575-.256 1.088-.768 1.216L44.244 130c-.512.128-1.023-.256-1.151-.832-.128-.576.255-1.088.768-1.216l13.118-2.56c.511-.128 1.023.255 1.151.832zm-14.909 2.879c.063.448.512.769.959.704l13.118-2.56c.448-.063.768-.575.64-1.023-.064-.448-.512-.768-.96-.704l-13.118 2.56c-.447.127-.767.575-.639 1.023z"/><path fill="#F3F3F3" d="M49.812 121.296c.064.512-.256.96-.768 1.024l-5.887.703c-.512.064-.959-.319-1.023-.831-.064-.513.256-.96.768-1.024l5.887-.704c.446-.064.958.32 1.023.832z"/><path fill="#FFF" d="M49.875 121.296c.064.576-.32 1.088-.832 1.152l-5.887.704c-.512.063-1.023-.32-1.088-.896-.063-.576.32-1.088.832-1.151l5.887-.704c.512-.064 1.025.32 1.088.895zm-7.742.896c.064.447.512.831.96.768l5.887-.704c.448-.063.768-.512.704-.96-.064-.448-.512-.832-.96-.768l-5.887.704c-.448.064-.769.512-.704.96z"/><path fill="#F3F3F3" d="M56.978 115.089c0 .512-.384.96-.896.96H42.708c-.512 0-.896-.448-.896-.96s.384-.96.896-.96h13.374c.512 0 .896.449.896.96z"/><path fill="#FFF" d="M57.042 115.089c0 .576-.448 1.024-.96 1.024H42.708c-.512 0-.96-.448-.96-1.024 0-.576.448-1.024.96-1.024h13.374c.512 0 .96.448.96 1.024zm-15.166-.064c0 .448.384.896.832.896h13.374c.448 0 .832-.384.832-.896 0-.448-.384-.896-.832-.896H42.708c-.447.064-.832.449-.832.896z"/><path fill="#E2E2E2" d="M49.875 108.626c-.064.512-.448.896-.96.896l-5.951-.448c-.512-.064-.896-.512-.832-1.023.064-.512.448-.896.96-.896l5.951.448c.448.064.832.511.832 1.023z"/><path fill="#FFF" d="M49.939 108.626c-.064.576-.512.959-1.024.959l-5.951-.448c-.512-.064-.959-.512-.896-1.087.064-.576.512-.96 1.024-.96l5.951.448c.512.065.896.576.896 1.088zm-7.806-.575c-.064.448.32.896.768.896l5.951.448c.448 0 .832-.32.896-.832.064-.448-.32-.896-.768-.896l-5.951-.448c-.448 0-.832.384-.896.832z"/><path fill="#F3F3F3" d="M58.13 103.955c-.128.512-.576.832-1.088.768l-13.118-2.688c-.512-.128-.832-.576-.704-1.088.127-.512.576-.832 1.087-.768l13.118 2.624c.449.129.769.64.705 1.152z"/><path fill="#FFF" d="M58.194 103.955c-.128.576-.64.896-1.152.832l-13.118-2.624c-.512-.128-.896-.64-.768-1.216s.64-.896 1.152-.832l13.118 2.624c.512.128.832.64.768 1.216zm-14.91-3.007c-.063.448.192.896.64 1.024l13.118 2.624a.907.907 0 0 0 1.024-.704c.064-.448-.192-.896-.64-1.024l-13.118-2.624c-.512-.064-.895.256-1.024.704z"/><path fill="#F3F3F3" d="M52.371 96.276a.954.954 0 0 1-1.152.704l-5.759-1.6c-.512-.128-.768-.64-.64-1.152a.954.954 0 0 1 1.152-.704l5.759 1.6c.512.129.768.641.64 1.152z"/><path fill="#FFF" d="M52.435 96.276c-.128.512-.704.896-1.216.704l-5.759-1.6c-.512-.128-.832-.704-.704-1.216s.704-.896 1.216-.704l5.759 1.6c.512.128.832.641.704 1.216zm-7.487-2.111c-.128.448.128.959.576 1.088l5.759 1.6c.448.128.896-.128 1.023-.64.128-.448-.127-.959-.576-1.088l-5.759-1.6c-.447-.064-.895.192-1.023.64z"/><path fill="#F3F3F3" d="M61.394 93.205c-.192.512-.768.704-1.216.512l-12.35-5.119c-.448-.192-.704-.768-.512-1.216.192-.512.768-.704 1.216-.512l12.35 5.119c.512.192.703.768.512 1.216z"/><path fill="#FFF" d="M61.458 93.269a.994.994 0 0 1-1.28.576l-12.35-5.119c-.512-.192-.704-.768-.512-1.344a.994.994 0 0 1 1.28-.576l12.35 5.119c.512.256.703.832.512 1.344zm-14.014-5.823c-.192.448 0 .96.448 1.152l12.35 5.119c.448.192.896-.064 1.088-.512a.868.868 0 0 0-.448-1.152l-12.35-5.119c-.449-.128-.96.064-1.088.512z"/><path fill="#F3F3F3" d="M57.234 84.566c-.256.448-.768.64-1.215.448l-5.312-2.688c-.448-.192-.64-.768-.384-1.28.256-.448.768-.64 1.216-.448l5.311 2.688c.448.256.64.833.384 1.28z"/><path fill="#FFF" d="M57.298 84.63a.978.978 0 0 1-1.344.448l-5.311-2.688a.978.978 0 0 1-.448-1.344.978.978 0 0 1 1.344-.448l5.311 2.688c.512.193.704.833.448 1.344zm-6.911-3.519c-.192.448-.064.96.384 1.152l5.311 2.688c.384.192.896 0 1.152-.384.192-.448.064-.96-.384-1.152l-5.375-2.688c-.384-.192-.896-.064-1.088.384z"/><path fill="#F3F3F3" d="M66.641 83.351c-.32.448-.832.576-1.28.256l-11.07-7.358c-.448-.256-.512-.832-.256-1.28.256-.448.832-.576 1.28-.256l11.134 7.423c.384.255.511.831.192 1.215z"/><path fill="#FFF" d="M66.705 83.415c-.32.448-.96.576-1.408.32l-11.07-7.423c-.448-.32-.576-.896-.256-1.407.32-.448.96-.576 1.408-.32l11.07 7.423c.511.319.575.959.256 1.407zm-12.606-8.447c-.256.384-.192.96.192 1.216l11.134 7.422c.384.256.896.128 1.152-.256.256-.384.192-.96-.192-1.216L55.25 74.712c-.384-.256-.896-.128-1.151.256z"/><path fill="#F3F3F3" d="M64.273 74.072c-.32.384-.896.512-1.28.192l-4.671-3.647c-.384-.32-.448-.896-.128-1.28s.896-.512 1.28-.192l4.671 3.647c.384.32.448.896.128 1.28z"/><path fill="#FFF" d="M64.337 74.136c-.32.448-.96.512-1.408.192l-4.671-3.647c-.448-.32-.512-.96-.192-1.408s.96-.512 1.408-.192l4.671 3.647c.448.32.512.96.192 1.408zm-6.143-4.799c-.32.384-.256.896.128 1.216l4.671 3.647c.384.256.896.192 1.216-.192s.256-.896-.128-1.216l-4.671-3.647a.907.907 0 0 0-1.216.192z"/><path fill="#F3F3F3" d="M73.808 74.712c-.384.384-.96.384-1.28 0l-9.534-9.406a.907.907 0 0 1 0-1.28c.384-.384.96-.384 1.28 0l9.47 9.406c.383.32.383.96.064 1.28z"/><path fill="#FFF" d="M73.808 74.776a1.004 1.004 0 0 1-1.408 0l-9.47-9.407a1.004 1.004 0 0 1 0-1.408 1.004 1.004 0 0 1 1.408 0l9.471 9.406a.908.908 0 0 1-.001 1.409zM63.057 64.09a.89.89 0 0 0 0 1.216l9.47 9.406c.32.32.896.32 1.216 0s.32-.896 0-1.216l-9.47-9.47c-.32-.32-.832-.32-1.216.064z"/><path fill="#F3F3F3" d="M73.231 65.178c-.384.32-.96.32-1.28-.064l-3.903-4.479c-.32-.384-.256-.96.128-1.28s.96-.32 1.28.064l3.903 4.479c.32.32.256.895-.128 1.28z"/><path fill="#FFF" d="M73.295 65.178c-.448.384-1.024.32-1.408-.064l-3.903-4.479c-.384-.384-.32-1.024.128-1.408.448-.384 1.024-.32 1.408.064l3.903 4.479c.32.448.32 1.088-.128 1.408zm-5.119-5.824c-.384.32-.384.832-.128 1.216l3.903 4.479c.32.32.832.384 1.216.064s.384-.832.128-1.216l-3.903-4.479c-.32-.383-.832-.383-1.216-.064z"/><path fill="#F3F3F3" d="M82.446 67.609c-.448.32-1.024.192-1.28-.256l-7.487-11.07c-.256-.448-.128-1.024.256-1.28.448-.32 1.023-.192 1.28.256l7.422 11.07c.321.448.193 1.024-.191 1.28z"/><path fill="#FFF" d="M82.446 67.673c-.448.32-1.088.192-1.408-.256l-7.423-11.07c-.32-.448-.192-1.088.32-1.408.448-.32 1.087-.192 1.407.256l7.423 11.07c.321.512.193 1.088-.319 1.408zm-8.447-12.606c-.384.256-.512.768-.256 1.152l7.423 11.07c.256.384.768.448 1.216.192.384-.256.512-.768.256-1.152l-7.422-11.006c-.257-.384-.833-.511-1.217-.256z"/><path fill="#F3F3F3" d="M83.79 58.139c-.448.256-1.024.128-1.28-.32l-2.943-5.183c-.256-.448-.064-1.024.384-1.28s1.024-.128 1.28.32l2.944 5.184c.191.447.062 1.023-.385 1.279z"/><path fill="#FFF" d="M83.79 58.203c-.512.256-1.088.128-1.344-.32L79.502 52.7c-.256-.448-.128-1.088.384-1.344s1.088-.128 1.344.32l2.944 5.184c.256.447.127 1.023-.384 1.343zm-3.84-6.783c-.384.256-.576.768-.32 1.152l2.943 5.183a.919.919 0 0 0 1.152.32c.384-.256.576-.768.32-1.152l-2.944-5.183c-.191-.384-.767-.576-1.151-.32z"/><path fill="#F3F3F3" d="M92.3 62.362c-.512.192-1.024 0-1.216-.448l-5.183-12.35c-.192-.448.064-1.024.512-1.216.512-.192 1.024 0 1.216.448l5.183 12.35c.192.448-.064 1.024-.512 1.216z"/><path fill="#FFF" d="M92.3 62.426c-.512.192-1.088 0-1.344-.512l-5.183-12.35a.994.994 0 0 1 .576-1.28c.512-.191 1.088 0 1.344.512l5.183 12.35c.192.448-.064 1.024-.576 1.28zm-5.823-14.013c-.448.192-.64.704-.448 1.088l5.183 12.35c.192.448.704.64 1.152.448.448-.192.64-.704.448-1.088l-5.183-12.35c-.256-.448-.704-.64-1.152-.448z"/><path fill="#F3F3F3" d="M95.436 53.275c-.512.192-1.023-.063-1.216-.576l-1.855-5.631c-.192-.448.128-1.024.576-1.152.448-.128 1.024.064 1.216.576l1.856 5.631c.191.449-.065.96-.577 1.152z"/><path fill="#FFF" d="M95.5 53.34a.995.995 0 0 1-1.28-.576l-1.855-5.631c-.192-.512.128-1.088.64-1.28a.994.994 0 0 1 1.28.576l1.855 5.631c.128.512-.128 1.088-.64 1.28zm-2.496-7.359c-.448.128-.704.64-.576 1.088l1.856 5.631c.128.448.64.64 1.087.512.448-.128.704-.64.576-1.088l-1.856-5.631a.806.806 0 0 0-1.087-.512z"/><path fill="#F3F3F3" d="M102.986 59.099c-.512.128-1.023-.192-1.088-.704L99.21 45.277c-.128-.512.256-.96.768-1.087.512-.128 1.024.192 1.088.704l2.688 13.118c.064.447-.256.959-.768 1.087z"/><path fill="#FFF" d="M102.986 59.163c-.576.128-1.088-.256-1.216-.768l-2.688-13.118c-.128-.512.256-1.087.768-1.152.576-.128 1.087.256 1.216.768l2.688 13.118c.128.511-.191 1.024-.768 1.152zm-3.007-14.91c-.448.064-.768.512-.704 1.024l2.688 13.118c.063.448.576.768 1.023.64.448-.064.768-.512.704-1.024l-2.688-13.118c-.127-.448-.575-.704-1.023-.64z"/><path fill="#F3F3F3" d="M107.85 50.78c-.512.063-.96-.256-1.088-.768l-.768-5.887c-.064-.512.32-.96.832-1.023.512-.064.96.256 1.088.768l.768 5.887c.064.512-.321.959-.832 1.023z"/><path fill="#FFF" d="M107.85 50.844c-.576.064-1.088-.32-1.152-.832l-.768-5.887c-.064-.512.32-1.023.896-1.088.576-.063 1.088.32 1.152.832l.768 5.887c.064.513-.321 1.024-.896 1.088zm-.96-7.679c-.448.064-.832.512-.768.96l.768 5.887c.064.448.512.768.96.704.448-.063.832-.512.768-.959l-.768-5.887c-.064-.449-.513-.768-.96-.705z"/><linearGradient id="d" gradientUnits="userSpaceOnUse" x1="-83.913" y1="316.076" x2="-84.067" y2="315.799" gradientTransform="matrix(229.4 0 0 -229.4 19373.2 72607.172)"><stop offset="0" stop-opacity="0"/><stop offset="1"/></linearGradient><circle fill="url(#d)" fill-opacity=".2" cx="114.76" cy="115.217" r="75.763"/></g><g filter="url(#e)"><path opacity=".05" d="M176.919 75.88l-61.109 39.162h-.065v.063l-.063.064-38.138 62.902 56.055-45.112.063-.064v-.064z"/></g><path fill="#CD151E" d="M175.768 72.232l-60.406 42.937 17.917 17.79 42.489-60.727"/><path fill="#FA5153" d="M115.425 115.042l9.022 8.895 51.32-51.704-60.342 42.809z"/><path fill="#ACACAC" d="M115.425 115.042l17.917 17.79-60.406 42.937 42.489-60.727z"/><path fill="#EEE" d="M72.937 175.768l51.511-51.832-9.022-8.895-42.489 60.727z"/></g></svg>