<svg xmlns="http://www.w3.org/2000/svg" width="256" height="256"><path fill="#010101" d="M107.452 49.422c21.023-5.392 44.257-2.25 62.797 9.192 23.35 13.964 38.593 40.378 38.981 67.567.853 27.461-13.459 54.691-36.461 69.624-25.6 17.222-61.012 17.881-87.155 1.513-26.647-15.902-42.201-47.979-38.206-78.777 3.22-32.542 28.355-61.245 60.044-69.119z"/><path fill="#FFF" d="M104.232 62.727c39.719-15.903 88.436 13.459 92.547 56.047 6.4 38.322-25.405 77.264-64.232 78.389-36.925 3.686-72.609-27.616-73.657-64.697-2.754-30.021 17.028-59.81 45.342-69.739z"/><path fill="#010101" d="M108.228 123.894c17.803-14.545 35.219-29.595 53.411-43.713-9.543 14.662-19.355 29.129-28.896 43.791-8.186.039-16.37.039-24.515-.078zM123.277 132c8.223 0 16.407 0 24.592.117-17.921 14.468-35.258 29.633-53.488 43.713 9.541-14.661 19.355-29.168 28.896-43.83z"/></svg>