<?xml version="1.0" encoding="utf-8"?>
<!-- Generator: Adobe Illustrator 16.0.3, SVG Export Plug-In . SVG Version: 6.00 Build 0)  -->
<!DOCTYPE svg PUBLIC "-//W3C//DTD SVG 1.1//EN" "http://www.w3.org/Graphics/SVG/1.1/DTD/svg11.dtd">
<svg version="1.1" id="Ebene_1" xmlns="http://www.w3.org/2000/svg" xmlns:xlink="http://www.w3.org/1999/xlink" x="0px" y="0px"
	 width="512px" height="512px" viewBox="0 -204.5 512 512" enable-background="new 0 -204.5 512 512" xml:space="preserve">
<g>
	<path fill="#333333" d="M151.573,77.269c-3.814,0-7.486-0.512-11.014-1.538c-3.529-1.024-6.461-2.443-8.798-4.255l3.576-7.94
		c4.863,3.386,10.323,5.079,16.379,5.079c3.147,0,5.567-0.513,7.259-1.538c1.693-1.025,2.539-2.443,2.539-4.255
		c0-1.622-0.775-2.886-2.324-3.791c-1.55-0.906-4.303-1.789-8.261-2.646c-4.435-0.906-7.975-2.003-10.622-3.291
		c-2.646-1.287-4.578-2.872-5.793-4.756s-1.824-4.208-1.824-6.974c0-3.052,0.847-5.77,2.54-8.154
		c1.692-2.385,4.065-4.256,7.117-5.615c3.051-1.359,6.58-2.039,10.585-2.039c3.576,0,7.021,0.524,10.335,1.574
		c3.314,1.049,5.949,2.456,7.904,4.22l-3.576,7.939c-4.625-3.385-9.489-5.078-14.591-5.078c-2.909,0-5.198,0.561-6.867,1.681
		c-1.669,1.121-2.503,2.659-2.503,4.613c0,1.145,0.322,2.086,0.965,2.825c0.644,0.739,1.716,1.395,3.219,1.967
		s3.636,1.168,6.402,1.788c6.485,1.431,11.146,3.267,13.983,5.508c2.837,2.24,4.255,5.341,4.255,9.298
		c0,4.769-1.835,8.524-5.507,11.266C163.279,75.898,158.154,77.269,151.573,77.269L151.573,77.269z M198.351,69.259
		c1.097,0,2.241-0.072,3.433-0.215l-0.572,7.867c-1.383,0.19-2.766,0.286-4.148,0.286c-5.341,0-9.239-1.169-11.695-3.505
		s-3.684-5.889-3.684-10.656V49.589h-6.651v-8.083h6.651V31.207h10.801v10.299h8.797v8.083h-8.797v13.375
		C192.486,67.16,194.441,69.259,198.351,69.259L198.351,69.259z M223.456,77.197c-3.72,0-6.986-0.751-9.799-2.253
		c-2.813-1.502-4.983-3.624-6.508-6.366c-1.526-2.741-2.29-5.972-2.29-9.691c0-3.719,0.763-6.95,2.29-9.691
		c1.525-2.742,3.695-4.852,6.508-6.33c2.813-1.478,6.079-2.217,9.799-2.217c3.719,0,6.985,0.739,9.799,2.217
		c2.813,1.478,4.983,3.588,6.509,6.33c1.525,2.742,2.289,5.973,2.289,9.691c0,3.72-0.763,6.95-2.289,9.691
		c-1.526,2.742-3.695,4.864-6.509,6.366C230.441,76.446,227.176,77.197,223.456,77.197L223.456,77.197z M223.456,68.972
		c5.245,0,7.867-3.361,7.867-10.085c0-3.385-0.679-5.912-2.039-7.582c-1.359-1.669-3.301-2.503-5.829-2.503
		c-5.246,0-7.868,3.361-7.868,10.085S218.211,68.972,223.456,68.972L223.456,68.972z M271.949,49.517l-6.079,0.644
		c-3.004,0.286-5.126,1.132-6.365,2.54c-1.24,1.406-1.86,3.277-1.86,5.614v18.311h-10.8V41.506h10.372v5.937
		c1.765-4.053,5.412-6.27,10.943-6.651l3.146-0.215L271.949,49.517L271.949,49.517z M303.331,41.578h10.586L292.746,89.5h-10.943
		l6.724-14.806l-14.448-33.117h11.229l8.869,22.316L303.331,41.578L303.331,41.578z M338.951,40.648
		c3.053,0,5.746,0.739,8.083,2.217c2.336,1.478,4.16,3.588,5.472,6.33c1.312,2.742,1.967,5.925,1.967,9.548
		c0,3.624-0.655,6.831-1.967,9.621c-1.312,2.789-3.147,4.959-5.508,6.508c-2.36,1.551-5.042,2.325-8.047,2.325
		c-2.432,0-4.625-0.512-6.58-1.538c-1.955-1.024-3.458-2.443-4.506-4.256v5.222h-10.657V26.2h10.8v20.027
		c1.049-1.764,2.539-3.135,4.471-4.113S336.568,40.648,338.951,40.648L338.951,40.648z M335.804,68.972
		c2.527,0,4.482-0.894,5.865-2.683c1.383-1.787,2.075-4.303,2.075-7.546c0-3.194-0.692-5.638-2.075-7.331s-3.338-2.539-5.865-2.539
		s-4.481,0.87-5.864,2.61c-1.383,1.741-2.074,4.208-2.074,7.403c0,3.243,0.691,5.734,2.074,7.475S333.277,68.972,335.804,68.972z
		 M377.933,77.197c-3.72,0-6.986-0.751-9.799-2.253c-2.813-1.502-4.982-3.624-6.509-6.366c-1.525-2.741-2.289-5.972-2.289-9.691
		c0-3.719,0.764-6.95,2.289-9.691c1.526-2.742,3.695-4.852,6.509-6.33c2.813-1.478,6.079-2.217,9.799-2.217
		c3.719,0,6.985,0.739,9.8,2.217c2.813,1.478,4.982,3.588,6.508,6.33c1.526,2.742,2.289,5.973,2.289,9.691
		c0,3.72-0.763,6.95-2.289,9.691c-1.525,2.742-3.695,4.864-6.508,6.366C384.918,76.446,381.652,77.197,377.933,77.197
		L377.933,77.197z M377.933,68.972c5.245,0,7.868-3.361,7.868-10.085c0-3.385-0.68-5.912-2.039-7.582
		c-1.358-1.669-3.302-2.503-5.829-2.503c-5.245,0-7.867,3.361-7.867,10.085S372.688,68.972,377.933,68.972z M418.201,77.197
		c-3.719,0-6.985-0.751-9.799-2.253s-4.982-3.624-6.509-6.366c-1.525-2.741-2.288-5.972-2.288-9.691c0-3.719,0.763-6.95,2.288-9.691
		c1.526-2.742,3.695-4.852,6.509-6.33s6.08-2.217,9.799-2.217c3.72,0,6.986,0.739,9.8,2.217c2.813,1.478,4.982,3.588,6.508,6.33
		c1.526,2.742,2.29,5.973,2.29,9.691c0,3.72-0.764,6.95-2.29,9.691c-1.525,2.742-3.695,4.864-6.508,6.366
		C425.188,76.446,421.921,77.197,418.201,77.197L418.201,77.197z M418.201,68.972c5.246,0,7.868-3.361,7.868-10.085
		c0-3.385-0.68-5.912-2.038-7.582c-1.359-1.669-3.303-2.503-5.83-2.503c-5.245,0-7.867,3.361-7.867,10.085
		S412.956,68.972,418.201,68.972z M479.518,76.625h-13.232l-13.447-15.664v15.664h-10.801V26.2h10.801v30.327l12.945-14.949h12.875
		l-14.734,16.737L479.518,76.625z"/>
	<g>
		<g>
			<path id="path-1_1_" fill="#FF4785" d="M35.256,88.882l-2.77-73.798c-0.092-2.437,1.777-4.503,4.211-4.655l62.771-3.923
				c2.478-0.155,4.612,1.729,4.767,4.206c0.006,0.094,0.009,0.187,0.009,0.28v80.417c0,2.482-2.012,4.496-4.495,4.496
				c-0.067,0-0.135-0.002-0.201-0.006l-60.002-2.694C37.209,93.099,35.344,91.22,35.256,88.882L35.256,88.882z"/>
		</g>
		<defs>
			<filter id="Adobe_OpacityMaskFilter" filterUnits="userSpaceOnUse" x="50.964" y="6.497" width="43.931" height="72.461">
				<feColorMatrix  type="matrix" values="1 0 0 0 0  0 1 0 0 0  0 0 1 0 0  0 0 0 1 0"/>
			</filter>
		</defs>
		<mask maskUnits="userSpaceOnUse" x="50.964" y="6.497" width="43.931" height="72.461" id="mask-2">
			<g filter="url(#Adobe_OpacityMaskFilter)">
				<path id="path-1" fill="#FFFFFF" d="M35.256,88.882l-2.77-73.798c-0.092-2.437,1.777-4.503,4.211-4.655l62.771-3.923
					c2.478-0.155,4.612,1.729,4.767,4.206c0.006,0.094,0.009,0.187,0.009,0.28v80.417c0,2.482-2.012,4.496-4.495,4.496
					c-0.067,0-0.135-0.002-0.201-0.006l-60.002-2.694C37.209,93.099,35.344,91.22,35.256,88.882L35.256,88.882z"/>
			</g>
		</mask>
		<path mask="url(#mask-2)" fill="#FFFFFF" d="M85.473,17.486l0.429-10.312l8.62-0.677l0.372,10.635
			c0.013,0.37-0.277,0.68-0.647,0.693c-0.158,0.006-0.313-0.045-0.438-0.144l-3.325-2.619l-3.936,2.986
			c-0.295,0.224-0.716,0.166-0.94-0.129C85.514,17.795,85.467,17.642,85.473,17.486z M74.449,40.195
			c0,1.75,11.779,0.911,13.361-0.317c0-11.909-6.39-18.167-18.091-18.167c-11.702,0-18.259,6.355-18.259,15.889
			c0,16.604,22.408,16.922,22.408,25.979c0,2.542-1.245,4.052-3.984,4.052c-3.568,0-4.979-1.822-4.813-8.019
			c0-1.345-13.611-1.764-14.025,0c-1.057,15.017,8.299,19.348,19.005,19.348c10.374,0,18.507-5.53,18.507-15.54
			c0-17.795-22.739-17.319-22.739-26.137c0-3.575,2.656-4.052,4.232-4.052C71.71,33.229,74.698,33.522,74.449,40.195z"/>
	</g>
</g>
</svg>
