<?xml version="1.0" encoding="utf-8"?>
<!-- Generator: Adobe Illustrator 16.0.3, SVG Export Plug-In . SVG Version: 6.00 Build 0)  -->
<!DOCTYPE svg PUBLIC "-//W3C//DTD SVG 1.1//EN" "http://www.w3.org/Graphics/SVG/1.1/DTD/svg11.dtd">
<svg version="1.1" id="Ebene_1" xmlns="http://www.w3.org/2000/svg" xmlns:xlink="http://www.w3.org/1999/xlink" x="0px" y="0px"
	 width="319px" height="319px" viewBox="-31.5 0 319 319" enable-background="new -31.5 0 319 319" xml:space="preserve">
<g>
	<g>
		<path id="path-1_1_" fill="#FF4785" d="M49.479,248.245L42.932,73.78c-0.216-5.762,4.202-10.645,9.957-11.005L201.283,53.5
			c5.858-0.367,10.902,4.085,11.269,9.943c0.015,0.221,0.021,0.442,0.021,0.663v190.111c0,5.87-4.758,10.628-10.628,10.628
			c-0.157,0-0.317-0.004-0.477-0.011l-141.847-6.371C54.098,258.214,49.687,253.771,49.479,248.245L49.479,248.245z"/>
	</g>
	<defs>
		<filter id="Adobe_OpacityMaskFilter" filterUnits="userSpaceOnUse" x="86.614" y="53.479" width="103.855" height="171.305">
			<feColorMatrix  type="matrix" values="1 0 0 0 0  0 1 0 0 0  0 0 1 0 0  0 0 0 1 0"/>
		</filter>
	</defs>
	<mask maskUnits="userSpaceOnUse" x="86.614" y="53.479" width="103.855" height="171.305" id="mask-2">
		<g filter="url(#Adobe_OpacityMaskFilter)">
			<path id="path-1" fill="#FFFFFF" d="M49.479,248.245L42.932,73.78c-0.216-5.762,4.202-10.645,9.957-11.005L201.283,53.5
				c5.858-0.367,10.902,4.085,11.269,9.943c0.015,0.221,0.021,0.442,0.021,0.663v190.111c0,5.87-4.758,10.628-10.628,10.628
				c-0.157,0-0.317-0.004-0.477-0.011l-141.847-6.371C54.098,258.214,49.687,253.771,49.479,248.245L49.479,248.245z"/>
		</g>
	</mask>
	<path mask="url(#mask-2)" fill="#FFFFFF" d="M168.198,79.459l1.013-24.379l20.379-1.601l0.878,25.141
		c0.03,0.875-0.654,1.609-1.529,1.64c-0.374,0.013-0.741-0.107-1.036-0.339l-7.858-6.191l-9.305,7.058
		c-0.697,0.529-1.692,0.393-2.221-0.305C168.295,80.189,168.182,79.827,168.198,79.459z M142.135,133.146
		c0,4.134,27.849,2.153,31.587-0.751c0-28.155-15.106-42.95-42.771-42.95s-43.164,15.025-43.164,37.563
		c0,39.252,52.973,40.004,52.973,61.415c0,6.012-2.942,9.578-9.418,9.578c-8.436,0-11.771-4.308-11.379-18.957
		c0-3.179-32.176-4.168-33.157,0c-2.498,35.5,19.619,45.741,44.93,45.741c24.523,0,43.752-13.073,43.752-36.737
		c0-42.07-53.759-40.943-53.759-61.791c0-8.452,6.278-9.579,10.007-9.579C135.66,116.677,142.724,117.369,142.135,133.146z"/>
</g>
</svg>
