<svg xmlns="http://www.w3.org/2000/svg" width="256" height="256" viewBox="0 28.5 256 256"><path fill="#3185B8" d="M201.584 76.922c-1.066-.875-9.449-5.37-9.449-5.37l-8.944 5.197-.005-.003 8.945-5.196-8.942-5.329-.003 10.525-9.328-5.221s-7.632 4.46-11.337 6.599c-4.664 2.691-16.102 9.502-16.102 9.502v10.057l-9.424 24.551v13.331l-6.613 3.86-2.632 6.884L109.205 98.2l.003-10.551-36.959-21.44-18.463 10.687-.018-.004v10.872l11.513 27.731 6.997 4.121.006 12.646 27.736 67.367 27.719 15.863v.091l27.684-16.02 46.261-112.021-.1-10.62"/><path fill="#3185B8" d="M127.761 215.503l-27.74-15.874-27.736-67.367-.006-12.646-6.997-4.121-11.513-27.731V76.892l9.11 5.312v10.703l9.416 5.464.001-10.765L90.693 98.25l.887 10.538 26.745 69.421 18.586 10.827v21.232l-9.176-5.398.026 10.633"/><path fill="#61A5CE" d="M109.205 98.2l18.545 48.109-.039 26.5-9.4 5.346-26.731-69.446-.887-10.46 18.515-10.6-.003 10.551M62.879 82.203v10.703l9.417-5.301-9.417-5.402"/><path fill="#EAE9E6" d="M72.294 98.371l.001-10.765-9.417 5.301 9.416 5.464"/><path fill="#3185B8" d="M127.711 172.81l9.271 5.304 10.321-25.915 7.949 4.73V132.09l2.536-5.997 6.769 3.963v-10.5l-9.214-5.353 9.265-5.378-9.11-5.25-.024-10.671-9.055-5.279v10.057l-9.424 24.551v13.331l-6.613 3.86-2.632 6.884-.039 26.502"/><path fill="#61A5CE" d="M127.584 183.658l9.327 5.377-.047 21.236 18.56-10.708 46.261-112.021-.101-10.621-27.727 15.982v21.323l-9.3 5.33v10.5l-6.769-3.963-2.536 5.997v24.786l-12.88 7.574-5.391 13.663-9.397 5.545"/><path fill="#EAE9E6" d="M90.634 108.903l9.303-5.405v10.693l-9.303-5.288"/><path fill="#3185B8" d="M99.937 114.191l9.226 5.211v-10.5l-9.226-5.405v10.694"/><path fill="#61A5CE" d="M81.473 135.422v10.77l9.314-5.36-9.314-5.41"/><path fill="#EAE9E6" d="M100.084 146.242l-9.347 5.442-9.265-5.492 9.314-5.36 9.298 5.41"/><path fill="#61A5CE" d="M99.958 178.233v10.861l9.363-5.413-9.363-5.448"/><path fill="#EAE9E6" d="M118.344 199.513l9.431 5.482.034-11.031-9.465 5.549"/><path fill="#61A5CE" d="M127.74 215.583l.034-10.588 9.09 5.276-9.124 5.312"/><path fill="#EAE9E6" d="M127.711 172.81l-9.4 5.346 9.272 5.503 9.398-5.545-9.27-5.304"/><path fill="#3185B8" d="M173.857 114.227V92.904l-9.181-5.226v10.624l-9.179 5.273 18.36 10.652"/><path fill="#EAE9E6" d="M155.344 114.204l9.265-5.378 9.249 5.401-9.3 5.33-9.214-5.353"/><path fill="#61A5CE" d="M155.498 103.576l9.179-5.273V87.679l-9.203 5.226.024 10.671"/><path fill="#3185B8" d="M183.186 76.746l.003-10.525 8.942 5.329-8.945 5.196"/><path fill="#EAE9E6" d="M201.584 76.922l-27.727 15.982-9.181-5.226-9.203 5.226-9.055-5.279s11.438-6.811 16.102-9.502c3.705-2.138 11.337-6.599 11.337-6.599l9.333 5.225 8.944-5.197c.001 0 8.384 4.495 9.45 5.37-2.522 1.474 0 0 0 0m-92.376 10.727l-18.515 10.6-36.907-21.353 18.462-10.687 36.96 21.44"/><path fill="#3185B8" d="M192.275 92.661V82.287l-9.021 5.206 9.021 5.168m-27.343 48.228l8.977-5.15v10.329l-8.977-5.179"/><path fill="#EAE9E6" d="M146.173 183.587v10.703l9.35-5.409-9.35-5.294"/><path fill="#3185B8" d="M155.581 188.881l-.115-10.617-9.293 5.323 9.408 5.294"/><path fill="#3285B7" d="M63.854 246.174h4.012l7.609-23.036h-2.871l-6.745 20.442-6.745-20.442h-2.871l7.611 23.036zm23.104-23.036h-4.012l-7.782 23.036h3.009l1.868-5.534h9.789l1.902 5.534h3.009l-7.783-23.036zm2.109 14.908h-8.231l4.116-12.763 4.115 12.763zm11.795-8.301c0-3.113 1.142-4.255 4.946-4.255 1.902 0 3.978.208 6.191.588l.346-2.559a30.03 30.03 0 0 0-6.399-.727c-5.741 0-8.059 2.145-8.059 6.813v10.134c0 4.255 1.798 6.78 7.678 6.78 2.387 0 5.05-.347 7.298-1.004v-9.927h-2.871v7.816a22.868 22.868 0 0 1-4.323.415c-3.943 0-4.808-1.313-4.808-4.254v-9.82zm31.89 16.429h3.424l-5.983-8.682c2.663-.761 3.666-2.629 3.666-5.361v-3.32c0-3.527-1.729-5.673-6.675-5.673h-8.785v23.036h2.975v-8.336h5.638l5.74 8.336zm-1.868-17.328v3.32c0 2.248-.968 3.044-3.804 3.044h-5.707v-9.408h5.707c2.836 0 3.804.761 3.804 3.044zm19.473-5.708h-4.013l-7.782 23.036h3.009l1.868-5.534h9.788l1.902 5.534h3.01l-7.782-23.036zm2.11 14.908h-8.232l4.117-12.763 4.115 12.763zm22.447 8.128h4.082v-23.036h-2.837v19.716l-10.03-19.716h-4.081v23.036h2.836v-19.611l10.03 19.611zm14.596 0h2.975v-20.372h6.883v-2.664h-16.74v2.664h6.883v20.372z"/></svg>