<svg xmlns="http://www.w3.org/2000/svg" width="256" height="256"><path fill="#368FB9" d="M128 44.43c-46.141 0-83.57 37.429-83.57 83.57s37.429 83.569 83.57 83.569S211.569 174.14 211.569 128 174.141 44.43 128 44.43"/><path fill="#FFF" d="M177.174 158.072c-5.162 1.227-7.776 2.355-14.165 6.518-9.97 6.453-20.876 9.454-20.876 9.454s-.903 1.355-3.517 1.968c-4.519 1.098-21.522 2.034-23.071 2.065-4.162.032-6.711-1.064-7.421-2.774-2.162-5.163 3.098-7.422 3.098-7.422s-1.162-.709-1.839-1.355c-.613-.612-1.258-1.839-1.452-1.388-.806 1.97-1.226 6.776-3.388 8.938-2.968 3.001-8.583 2-11.906.259-3.646-1.937.258-6.485.258-6.485s-1.968 1.161-3.549-1.228c-1.42-2.193-2.743-5.937-2.388-10.551.387-5.259 6.26-10.357 6.26-10.357s-1.032-7.775 2.355-15.746c3.065-7.259 11.326-13.1 11.326-13.1s-6.938-7.68-4.356-14.584c1.678-4.517 2.355-4.485 2.904-4.679 1.936-.742 3.808-1.549 5.195-3.065 6.938-7.485 15.778-6.066 15.778-6.066s4.194-12.745 8.066-10.261c1.193.774 5.485 10.325 5.485 10.325s4.582-2.678 5.098-1.678c2.775 5.389 3.099 15.682 1.872 21.941-2.064 10.325-7.228 15.875-9.292 19.359-.485.807 5.549 3.355 9.356 13.906 3.518 9.648.388 17.747.936 18.651.097.16.13.226.13.226s4.033.322 12.132-4.679c4.323-2.678 9.454-5.679 15.294-5.743 5.646-.096 5.936 6.518 1.677 7.551zm7.68-4.743c-.581-4.582-4.453-7.744-9.422-7.68-7.422.097-13.648 3.937-17.778 6.485-1.613 1.001-3.001 1.743-4.195 2.291.259-3.743.032-8.647-1.903-14.035-2.355-6.453-5.518-10.423-7.776-12.713 2.613-3.807 6.195-9.357 7.873-17.94 1.452-7.325 1-18.714-2.323-25.104-.678-1.291-1.808-2.226-3.227-2.613-.581-.161-1.678-.484-3.84.129-3.259-6.744-4.388-7.453-5.259-8.034-1.808-1.162-3.937-1.42-5.938-.678-2.678.968-4.969 3.549-7.131 8.131a34.207 34.207 0 0 0-.872 1.968c-4.098.29-10.551 1.774-16.004 7.679-.677.742-2 1.291-3.388 1.807h.032c-2.84 1-4.13 3.323-5.711 7.518-2.194 5.873.064 11.648 2.291 15.391-3.033 2.71-7.066 7.034-9.196 12.1-2.646 6.26-2.936 12.391-2.84 15.714-2.258 2.388-5.743 6.873-6.13 11.906-.516 7.033 2.033 11.81 3.162 13.552a8.89 8.89 0 0 0 1.065 1.354c-.129.872-.161 1.808.032 2.775.419 2.259 1.839 4.098 4.001 5.26 4.259 2.259 10.196 3.227 14.778.936 1.645 1.742 4.646 3.421 10.099 3.421h.323c1.387 0 19.004-.937 24.135-2.195 2.291-.548 3.872-1.516 4.904-2.387 3.291-1.033 12.391-4.131 20.973-9.68 6.066-3.937 8.163-4.775 12.682-5.873 4.388-1.063 7.131-5.064 6.583-9.485z"/></svg>