<svg xmlns="http://www.w3.org/2000/svg" width="400" height="216" viewBox="0 -8 400 216"><path d="M165.401 112.637l6.378 16.344h-1.619l-1.976-5.105h-7.416l-1.971 5.105h-1.625l6.49-16.344h1.739zm2.203 9.967l-3.245-8.342-3.246 8.342h6.491zm7.187-5.446v2.072c.229-.684.813-1.27 1.508-1.729a4.162 4.162 0 0 1 2.32-.699c.809 0 1.504.119 2.083.355.583.223 1.042.457 1.392.922.345.346.578.813.691 1.385.12.586.236 1.158.236 1.857v7.535h-1.391v-7.295c0-.475 0-.939-.117-1.391-.117-.467-.229-.82-.467-1.168-.229-.346-.575-.578-.925-.813-.346-.232-.93-.232-1.503-.232-.583 0-1.047.121-1.51.354-.466.232-.813.459-1.157.813-.35.338-.583.813-.695 1.27-.237.457-.237 1.047-.237 1.625v6.838h-1.387v-11.701h1.158v.002zm20.051-4.521v16.344h-1.503v-16.344h1.503zm10.785 0c.683 0 1.392.113 1.962.225.58.123 1.158.348 1.625.693.467.354.821.707 1.158 1.279.225.465.467 1.156.467 1.857 0 .467-.122.813-.242 1.271-.104.354-.338.813-.562 1.043-.241.348-.589.58-.942.813-.346.234-.683.355-1.158.459 1.046.121 1.859.578 2.56 1.287.578.686.925 1.625.925 2.664 0 .232 0 .576-.111.916 0 .354-.121.709-.233 1.045-.12.354-.354.699-.578 1.047-.234.354-.579.578-1.046.926-.468.232-.927.465-1.625.588-.578.109-1.392.232-2.316.232h-6.953v-16.346h7.069v.001zm0 7.181c.569 0 1.158-.111 1.616-.232s.813-.354 1.167-.58c.337-.23.569-.578.683-.924.121-.354.233-.699.233-1.047 0-2.09-1.271-3.008-3.699-3.008h-5.336v5.791h5.336zm0 7.772c.569 0 1.158 0 1.616-.111.458-.123.926-.244 1.399-.59.337-.23.684-.578.916-1.035.234-.477.354-.934.354-1.625 0-1.037-.354-1.857-1.168-2.324-.69-.578-1.729-.813-3.12-.813h-5.336v6.498h5.339zm11.002-14.953l5.454 14.252 5.564-14.252h2.308v16.344h-1.503v-14.146l-5.679 14.146h-1.505l-5.332-14.146v14.146h-1.504v-16.344h2.197zm35.123 3.242c-.345-.459-.699-.934-1.157-1.271-.459-.346-.925-.58-1.504-.813-.578-.121-1.167-.24-1.745-.24-1.047 0-1.963.24-2.774.586-.813.469-1.392.924-1.851 1.625a6.876 6.876 0 0 0-1.055 2.316c-.232.811-.337 1.736-.337 2.662 0 .932.104 1.734.337 2.67.232.813.579 1.625 1.055 2.314a4.95 4.95 0 0 0 1.851 1.625 6.96 6.96 0 0 0 2.774.58c.813 0 1.512-.121 2.083-.459.587-.242 1.167-.709 1.624-1.168.476-.457.813-1.045 1.046-1.625.232-.578.467-1.27.467-2.082h1.503c-.111 1.037-.354 1.971-.69 2.662a6.539 6.539 0 0 1-1.393 2.09c-.577.58-1.277 1.039-2.082 1.271-.813.354-1.625.467-2.661.467-1.288 0-2.446-.232-3.371-.699-.925-.459-1.736-1.039-2.438-1.85-.579-.814-1.158-1.625-1.382-2.67-.347-1.039-.467-2.084-.467-3.25 0-1.16.12-2.195.467-3.244.337-1.045.803-1.959 1.382-2.668.7-.805 1.4-1.393 2.438-1.852.925-.459 2.084-.691 3.371-.691.804 0 1.504.113 2.308.348.699.23 1.392.578 1.979 1.037.57.473 1.148 1.053 1.502 1.623.347.699.685 1.391.806 2.324h-1.504c-.124-.573-.348-1.04-.582-1.618zm12.281 1.504a5.029 5.029 0 0 1 1.737 1.393c.476.578.813 1.277 1.054 1.969.225.701.338 1.504.338 2.445 0 .805-.113 1.615-.338 2.42-.241.701-.578 1.391-1.054 1.98a5.244 5.244 0 0 1-1.737 1.389c-.683.348-1.505.459-2.429.459-.926 0-1.736-.111-2.438-.459a5.261 5.261 0 0 1-1.729-1.389 6.176 6.176 0 0 1-1.046-1.98 8.16 8.16 0 0 1-.346-2.42c0-.82.112-1.625.346-2.445.225-.803.57-1.391 1.046-1.969a5.065 5.065 0 0 1 1.729-1.393c.699-.346 1.512-.459 2.438-.459 1.038-.121 1.748.111 2.429.459zm-4.165 1.045c-.467.232-.927.701-1.279 1.158-.346.465-.588 1.037-.813 1.625-.225.578-.225 1.27-.225 1.857 0 .57.121 1.271.225 1.85.225.578.467 1.168.813 1.625.354.459.813.813 1.279 1.158.578.232 1.148.459 1.857.459.691 0 1.271-.121 1.857-.459.449-.225.916-.699 1.271-1.158.346-.457.57-1.047.805-1.625.232-.578.232-1.166.232-1.85 0-.59-.12-1.279-.232-1.857-.121-.588-.46-1.16-.805-1.625-.354-.457-.82-.813-1.271-1.158-.477-.232-1.167-.465-1.857-.465-.707.119-1.277.23-1.857.465zm11.356-1.27v1.971h.122c.336-.701.924-1.289 1.494-1.746.587-.459 1.399-.58 2.324-.58a4.04 4.04 0 0 1 2.092.58c.57.344 1.046.932 1.271 1.746.345-.814.813-1.402 1.502-1.746.7-.348 1.393-.58 2.205-.58 2.551 0 3.94 1.393 3.94 4.176v8.002h-1.391v-7.891c0-.916-.234-1.736-.57-2.197-.478-.465-1.168-.811-2.214-.811-.578 0-1.157.111-1.503.346-.468.232-.692.578-1.046.924-.233.355-.468.822-.468 1.393-.111.467-.111 1.047-.111 1.625v6.725h-1.615v-8.002c0-.348 0-.814-.122-1.148-.111-.355-.224-.711-.458-.936-.233-.232-.467-.459-.821-.578-.345-.111-.69-.234-1.157-.234-.578 0-1.157.123-1.625.355a2.74 2.74 0 0 0-1.037.918 4.013 4.013 0 0 0-.588 1.389c-.104.588-.225 1.168-.225 1.746v6.605h-1.391v-12.05h1.392v-.002zm19.463 0v2.193c.354-.805.942-1.512 1.625-1.85.82-.467 1.625-.699 2.56-.699.924 0 1.625.119 2.314.465.701.348 1.271.813 1.625 1.393.459.57.804 1.281.926 1.963.232.701.346 1.504.346 2.445a8.75 8.75 0 0 1-.346 2.428c-.225.813-.571 1.393-.926 1.98a6.43 6.43 0 0 1-1.625 1.383c-.689.346-1.392.467-2.314.467-.459 0-.813 0-1.271-.121-.467-.111-.813-.227-1.168-.459-.345-.232-.683-.467-.925-.813a10.048 10.048 0 0 1-.699-1.166v6.609h-1.392v-16.219h1.27zm7.89 4.053a4.27 4.27 0 0 0-.69-1.625 5.505 5.505 0 0 0-1.168-1.158c-.458-.346-1.037-.465-1.737-.465-.813 0-1.503.119-1.961.465-.589.232-.934.578-1.271 1.037a4.196 4.196 0 0 0-.708 1.625c-.111.586-.233 1.279-.233 1.979 0 .57.122 1.158.233 1.85.12.578.354 1.168.708 1.625.338.459.805.813 1.271 1.158.458.338 1.148.459 1.961.459.7 0 1.28-.121 1.737-.459.467-.346.934-.699 1.168-1.158.337-.457.569-1.047.69-1.625s.232-1.166.232-1.85c.002-.59-.111-1.167-.232-1.858zm4.642-2.205a3.785 3.785 0 0 1 1.037-1.277 3.708 3.708 0 0 1 1.504-.691c.587-.113 1.166-.232 1.856-.232.468 0 1.037 0 1.513.119.459.113.917.346 1.393.58.466.225.691.691 1.037 1.156.232.469.345 1.16.345 1.965v6.264c0 .59.233.926.813.926.121 0 .345 0 .466-.111v1.158c-.121 0-.345 0-.466.121h-.458c-.355 0-.7 0-.935-.121-.232-.111-.338-.232-.458-.467-.112-.232-.232-.354-.232-.691v-.813c-.233.348-.588.701-.813 1.045-.232.35-.579.58-.925.693-.354.232-.7.354-1.159.467-.465.111-.933.111-1.513.111-.577 0-1.046-.111-1.503-.225a4.275 4.275 0 0 1-1.271-.588c-.354-.232-.71-.578-.821-1.037a3.312 3.312 0 0 1-.346-1.504c0-.813.226-1.514.578-1.979.354-.459.813-.803 1.504-1.037.588-.232 1.28-.467 1.979-.467.805-.121 1.504-.24 2.309-.24.354 0 .587-.105.82-.105a.863.863 0 0 0 .57-.232c.12-.113.233-.227.354-.467.121-.232.121-.467.121-.805 0-.467-.121-.932-.241-1.168a1.027 1.027 0 0 0-.691-.689c-.227-.234-.579-.346-.934-.346-.338-.121-.805-.121-1.148-.121-.927 0-1.625.232-2.205.699-.578.457-.934 1.158-.934 2.082h-1.625c.125-.805.246-1.514.479-1.973zm7.182 3.473c-.121.123-.232.357-.578.357-.233.109-.46.109-.692.109-.586.123-1.278.242-1.856.242-.691.105-1.28.227-1.747.338-.57.113-.915.467-1.27.701-.347.344-.459.813-.459 1.381 0 .355.112.701.226.936.111.223.345.578.587.689.233.244.57.355.813.469.338.109.69.109.925.109.579 0 1.037-.109 1.625-.223.459-.111.925-.469 1.271-.701.347-.346.692-.701.926-1.158a3.21 3.21 0 0 0 .354-1.502l-.125-1.747zm6.264-5.321v2.072c.233-.684.805-1.27 1.505-1.729a4.112 4.112 0 0 1 2.308-.699c.821 0 1.512.119 2.091.355.58.223 1.046.457 1.393.922.354.346.578.813.699 1.385.104.586.227 1.158.227 1.857v7.535h-1.394v-7.295c0-.475 0-.939-.111-1.391-.12-.467-.232-.82-.468-1.168-.223-.346-.577-.578-.925-.813-.346-.232-.924-.232-1.513-.232a3.22 3.22 0 0 0-1.503.354c-.458.232-.804.459-1.158.813-.347.338-.579.813-.691 1.27a6.631 6.631 0 0 0-.226 1.625v6.838H315.5v-11.701h1.165v.002zm11.47 0l3.94 10.076 3.596-10.076h1.384l-5.101 13.551c-.225.465-.459.932-.57 1.289-.242.336-.354.568-.588.803-.225.234-.458.346-.805.467-.354.111-.708.111-1.156.111h-.7c-.121 0-.354 0-.466-.111v-1.166c.111 0 .345.119.466.119h.466c.347 0 .579 0 .805-.119.232-.105.354-.225.587-.34.113-.121.233-.352.347-.588.112-.223.233-.465.338-.803l.466-1.277-4.753-11.711h1.746l-.002-.225zm-22.144-36.515c0-7.42 3.018-11.127 9.162-11.127 6.146 0 9.161 3.709 9.161 11.127 0 7.187-3.016 10.776-9.161 10.776-6.144 0-9.162-3.589-9.162-10.776m9.05-15.996c-5.565 0-10.432 1.277-14.605 3.707-4.986 2.903-7.536 6.957-7.536 12.289 0 5.104 2.551 9.156 7.657 12.058 4.166 2.311 9.031 3.473 14.484 3.473 5.558 0 10.434-1.162 14.485-3.591 5.107-3.018 7.649-6.957 7.649-11.939 0-5.216-2.542-9.273-7.537-12.289-4.164-2.43-9.039-3.708-14.597-3.708m-25.27 17.967h-9.396v4.982c0 2.203-1.503 3.25-4.407 3.25-2.308 0-3.475-1.047-3.475-3.018V70.557h16.006v-4.059h-16.006V58.62h-6.369c-.588 2.896-1.503 4.87-2.661 6.022-1.504 1.396-3.951 2.205-7.304 2.205v3.823h4.175v14.606c0 6.953 5.202 10.432 15.521 10.432 3.483 0 6.38-.463 8.816-1.391 3.475-1.158 5.099-3.245 5.099-6.262l.001-5.441zM252.21 65.575c-1.393-.229-3.018-.346-4.969-.346-6.62 0-11.6 2.082-15.073 6.141h-.121v-6.023l-18.78 1.387v3.941h3.716c1.971 0 2.896 1.041 2.896 3.016v14.14c0 2.083-.925 3.017-2.896 3.017h-3.819v3.938h25.833v-3.938h-4.045c-1.867 0-2.904-1.047-2.904-3.018v-4.057c0-3.592.468-6.146 1.28-7.883 1.27-2.32 3.48-3.475 6.725-3.475 1.961 0 2.895.695 2.895 2.204v4.17h9.152V65.575h.11zm-41.371 14.836c0-5.1-2.55-9.27-7.536-12.169-4.175-2.316-8.924-3.479-14.489-3.479-5.444 0-10.314 1.279-14.602 3.713-4.983 2.895-7.532 6.952-7.532 12.284 0 4.987 2.666 9.04 7.882 12.052 4.17 2.32 9.037 3.479 14.604 3.479 4.519 0 8.577-.694 12.057-1.972 4.407-1.619 7.527-4.17 9.377-7.648h-12.395c-.691 1.625-1.854 2.783-3.708 3.708-1.625.696-3.362 1.04-5.332 1.04-5.795 0-8.924-3.124-9.387-9.273h31.063l-.002-1.735zm-30.95-2.201c.467-5.795 3.479-8.694 9.044-8.694 5.563 0 8.578 2.9 9.036 8.694h-18.08zm-40.106 12.748c-6.603 0-9.848-3.473-9.848-10.314 0-3.246.93-5.795 2.666-7.648 1.738-1.975 4.174-2.9 7.303-2.9s5.445 1.047 7.069 3.018c1.508 1.854 2.32 4.402 2.32 7.531s-.813 5.563-2.32 7.418c-1.735 1.97-4.056 2.895-7.19 2.895m5.684-25.962c-6.724 0-11.823 1.854-15.301 5.562h-.229V65.23c-4.058.229-7.648.463-10.781.576-3.125.12-5.792.35-7.883.467v4.172h3.713c1.854 0 2.783.813 2.783 2.551v25.378c0 2.089-.93 3.012-2.783 3.012h-3.713v4.063h25.389v-3.951h-3.828c-1.967 0-2.896-1.035-2.896-3.007v-7.186h.346c1.279 1.396 3.479 2.666 6.262 3.596 1.274.35 2.55.695 3.708.924 1.158.238 2.438.352 3.592.352 5.453 0 9.857-1.273 13.098-3.824 3.479-2.896 5.217-6.957 5.217-12.285 0-4.871-1.62-8.694-4.749-11.244-2.901-2.554-6.846-3.828-11.945-3.828M92.496 84.122c0 2.083-1.388 3.824-4.055 5.445-2.319 1.277-4.641 1.97-6.953 1.97-4.402 0-6.61-1.388-6.61-4.175 0-2.199 1.625-3.707 4.757-4.521 1.504-.345 4.054-.458 7.416-.458h5.444l.001 1.739zm15.069 6.724c-1.966 0-2.895-1.047-2.895-3.018V74.731c0-4.059-2.55-6.836-7.649-8.232-2.899-.809-7.069-1.152-12.52-1.152-13.331 0-20.05 3.127-20.05 9.385H76.62c0-3.476 2.667-5.101 7.882-5.101 5.329 0 8.115 1.972 8.115 5.912v2.783H81.023c-12.057 0-18.08 3.007-18.195 9.036-.117 5.912 4.632 8.928 14.021 8.928 3.017 0 5.911-.35 8.578-1.042 3.712-1.046 6.028-2.549 6.953-4.524h.237v4.174h17.384v-4.052h-2.436z"/></svg>