<?xml version="1.0" encoding="utf-8"?>
<!-- Generator: Adobe Illustrator 16.0.3, SVG Export Plug-In . SVG Version: 6.00 Build 0)  -->
<!DOCTYPE svg PUBLIC "-//W3C//DTD SVG 1.1//EN" "http://www.w3.org/Graphics/SVG/1.1/DTD/svg11.dtd">
<svg version="1.1" id="Ebene_1" xmlns="http://www.w3.org/2000/svg" xmlns:xlink="http://www.w3.org/1999/xlink" x="0px" y="0px"
	 width="400px" height="216px" viewBox="0 0 400 216" enable-background="new 0 0 400 216" xml:space="preserve">
<path fill="#6432FA" d="M158.905,126.638h-8.433v9.94h8.433v16.976c0,10.107,7.095,14.991,15.944,14.991
	c3.255,0,5.425-0.331,7.263-0.911v-10.022c-1.335,0.498-2.839,0.662-4.591,0.662c-5.008,0-7.179-1.902-7.179-6.957v-14.738h9.184
	v-9.941h-9.184v-16.533l-11.437,9.629V126.638z M55.55,152.063c0,3.396-3.17,5.713-7.931,5.713c-4.84,0-9.934-2.567-12.854-6.957
	l-9.265,7.704c4.257,6.459,12.187,10.516,21.62,10.516c12.271,0,20.701-7.204,20.785-17.723c0-8.86-5.426-14.327-14.108-17.473
	l-4.757-1.741c-6.261-2.234-9.184-3.809-9.184-7.37c0-3.479,3.841-5.218,7.931-5.218c4.091,0,7.764,1.655,10.603,5.052l8.014-8.199
	c-5.092-5.63-11.437-8.117-18.7-8.117c-11.521,0-20.035,6.545-20.035,17.642c0,8.033,5.092,13.499,14.608,16.812l5.009,1.74
	C53.132,146.431,55.55,148.753,55.55,152.063z M61.479,78.266c0,3.81-2.922,6.71-7.429,6.71H41.944V71.477H54.05
	C58.557,71.477,61.479,74.456,61.479,78.266L61.479,78.266z M57.389,54.745c0,3.643-2.839,6.542-7.012,6.542h-8.433V48.122h8.433
	C54.55,48.122,57.389,51.186,57.389,54.745z M73.249,78.681c0-6.625-3.589-11.43-8.768-13.914c2.839-2.483,4.675-6.046,4.675-10.517
	c0-9.358-7.679-17.061-17.613-17.061H29.84v58.8h25.044C65.403,95.99,73.249,88.453,73.249,78.681L73.249,78.681z M77.372,119.731
	v6.903h-8.432v9.94h8.432v16.978c0,10.105,7.096,14.989,15.943,14.989c3.172,0,5.428-0.331,7.264-0.91v-10.021
	c-1.335,0.497-2.838,0.747-4.675,0.747c-4.926,0-7.095-1.989-7.095-7.038v-14.742h11.771v-9.94H88.81v-16.534L77.372,119.731
	L77.372,119.731z M96.472,41.992c0-3.479-2.837-6.295-6.26-6.295c-3.506,0-6.344,2.815-6.344,6.295c0,3.396,2.838,6.21,6.344,6.21
	C93.633,48.204,96.472,45.387,96.472,41.992z M116.09,41.992c0-3.479-2.839-6.295-6.261-6.295c-3.507,0-6.343,2.815-6.343,6.295
	c0,3.396,2.836,6.21,6.343,6.21C113.25,48.204,116.09,45.387,116.09,41.992L116.09,41.992z M110.328,75.286
	c0,6.375-4.341,11.014-10.351,11.014s-10.434-4.638-10.434-11.014c0-6.378,4.424-11.016,10.434-11.016
	C105.987,64.269,110.328,68.908,110.328,75.286L110.328,75.286z M121.932,75.286c0-12.094-9.849-21.615-21.955-21.615
	c-12.104,0-21.955,9.521-21.955,21.615c0,12.091,9.851,21.614,21.955,21.614C112.083,96.9,121.932,87.377,121.932,75.286z
	 M125.356,158.605c-4.926,0-7.098-3.645-7.098-9.853v-22.115h-11.436v24.017c0,11.016,5.594,18.306,15.693,18.306
	c5.342,0,9.268-2.319,11.438-5.634v4.721h11.437v-41.409h-11.437v20.209C133.953,154.88,130.448,158.605,125.356,158.605z
	 M149.096,65.181c1.835,0,3.422,0.333,5.175,0.909V54.58c-1.419-0.413-2.672-0.498-3.839-0.498c-4.675,0-8.932,3.066-10.353,7.125
	v-6.625h-11.436v41.41h11.436V76.197C140.078,69.405,143.668,65.181,149.096,65.181z M168.953,65.594
	c0-1.739,1.837-2.567,4.426-2.567c3.089,0,6.011,1.324,8.347,3.395l6.427-6.874c-3.422-3.642-8.181-5.88-14.275-5.88
	c-8.764,0-15.193,5.052-15.276,12.587c-0.166,6.461,3.672,11.429,11.269,13.416l2.922,0.828c4.506,1.242,6.176,1.989,6.176,3.813
	c0,1.986-2.253,2.979-5.173,2.979c-3.924,0-7.514-1.656-9.435-4.552l-7.68,6.46c3.674,5.217,9.936,7.702,16.53,7.702
	c9.349,0,16.195-5.216,16.195-13.251c0-6.791-4.174-11.429-11.521-13.499l-3.924-1.075
	C169.872,67.914,168.953,67.085,168.953,65.594z M190.293,119.731v6.903h-6.677v9.94h6.677v16.978
	c0,10.105,7.096,14.989,15.943,14.989c3.172,0,5.428-0.331,7.262-0.91v-10.021c-1.335,0.497-2.837,0.662-4.674,0.662
	c-4.925,0-7.095-1.904-7.095-6.958v-14.74h11.769v-9.94H201.73v-16.531L190.293,119.731z M224.441,70.234h-19.534
	c1.086-5.053,5.844-7.206,10.103-7.206C219.266,63.028,223.439,65.348,224.441,70.234z M235.711,77.934
	c0.167-1.739,0.167-2.899,0.167-3.893c0-13.416-9.599-20.372-20.535-20.372c-12.688,0-21.955,9.359-21.955,21.615
	c0,13.084,9.684,21.614,22.121,21.614c8.768,0,15.526-3.726,19.367-9.274l-8.514-6.296c-1.836,2.817-5.593,5.217-10.77,5.217
	c-5.508,0-10.436-3.063-11.102-8.612h31.22V77.934z M250.07,146.682c0,6.294-4.761,10.6-10.519,10.6c-5.76,0-10.6-4.306-10.6-10.6
	c0-6.378,4.839-10.602,10.6-10.602C245.311,136.08,250.07,140.303,250.07,146.682z M260.588,164.814v-38.177h-11.437v4.64
	c-2.089-3.147-6.679-5.549-12.022-5.549c-10.85,0-19.698,9.275-19.698,20.953c0,11.592,8.849,20.869,19.698,20.869
	c5.344,0,9.934-2.404,12.022-5.467v2.815c0,6.626-4.34,11.346-11.104,11.346c-4.591,0-9.349-1.655-13.022-5.135l-6.26,8.447
	c4.757,4.472,12.27,6.626,19.448,6.626C250.989,186.184,260.588,179.808,260.588,164.814z M298.235,147.343
	c0,6.46-4.256,11.263-10.516,11.263c-6.263,0-10.521-4.803-10.521-11.263s4.259-11.263,10.521-11.263
	C293.979,136.08,298.235,140.883,298.235,147.343z M297.319,168.047h11.435v-41.409h-11.435v4.64
	c-1.839-2.65-6.262-5.549-12.021-5.549c-11.104,0-19.617,9.854-19.617,21.614s8.513,21.615,19.616,21.615
	c5.761,0,10.183-2.9,12.022-5.55V168.047L297.319,168.047z M334.63,137.238c1.839,0,3.424,0.331,5.179,0.91v-11.511
	c-1.422-0.415-2.672-0.498-3.84-0.498c-4.675,0-8.934,3.064-10.354,7.122v-6.627h-11.437v41.41h11.437v-19.792
	C325.615,141.462,329.205,137.24,334.63,137.238L334.63,137.238z M362.73,151.316v-14.738H374.5v-9.94H362.73v-16.534l-11.437,9.629
	v6.905h-8.433v9.94h8.433v16.976c0,10.107,7.097,14.991,15.943,14.991c3.171,0,5.425-0.331,7.262-0.911v-10.022
	c-1.335,0.498-2.839,0.748-4.674,0.748C364.901,158.358,362.73,156.369,362.73,151.316z"/>
</svg>
