<?xml version="1.0" encoding="utf-8"?>
<!-- Generator: Adobe Illustrator 16.0.3, SVG Export Plug-In . SVG Version: 6.00 Build 0)  -->
<!DOCTYPE svg PUBLIC "-//W3C//DTD SVG 1.1//EN" "http://www.w3.org/Graphics/SVG/1.1/DTD/svg11.dtd">
<svg version="1.1" id="Ebene_1" xmlns="http://www.w3.org/2000/svg" xmlns:xlink="http://www.w3.org/1999/xlink" x="0px" y="0px"
	 width="400px" height="216px" viewBox="-91 -61 400 216" enable-background="new -91 -61 400 216" xml:space="preserve">
<path fill="#6432FA" d="M83.33,56.805h-5.267v6.209h5.267v10.604c0,6.313,4.432,9.364,9.959,9.364c2.034,0,3.389-0.207,4.537-0.569
	v-6.26c-0.834,0.311-1.773,0.414-2.868,0.414c-3.128,0-4.484-1.189-4.484-4.346v-9.207h5.736v-6.209h-5.736V46.477l-7.144,6.015
	V56.805z M18.771,72.687c0,2.122-1.981,3.569-4.954,3.569c-3.024,0-6.205-1.604-8.03-4.346L0,76.723
	c2.659,4.034,7.613,6.568,13.505,6.568c7.665,0,12.931-4.5,12.984-11.07c0-5.535-3.39-8.95-8.813-10.915l-2.972-1.087
	c-3.911-1.396-5.736-2.379-5.736-4.604c0-2.173,2.399-3.259,4.954-3.259c2.556,0,4.85,1.034,6.623,3.156l5.006-5.122
	c-3.181-3.517-7.144-5.07-11.681-5.07c-7.196,0-12.514,4.088-12.514,11.02c0,5.018,3.18,8.432,9.125,10.501l3.129,1.087
	C17.26,69.169,18.771,70.619,18.771,72.687z M22.474,26.59c0,2.38-1.825,4.191-4.641,4.191h-7.561v-8.432h7.561
	C20.649,22.349,22.474,24.21,22.474,26.59L22.474,26.59z M19.919,11.898c0,2.276-1.773,4.087-4.38,4.087h-5.267V7.761h5.267
	C18.146,7.761,19.919,9.675,19.919,11.898z M29.826,26.849c0-4.138-2.242-7.139-5.476-8.691c1.773-1.551,2.92-3.776,2.92-6.569
	c0-5.846-4.797-10.657-11.002-10.657H2.711v36.729h15.644C24.925,37.661,29.826,32.953,29.826,26.849L29.826,26.849z M32.402,52.491
	v4.313h-5.267v6.209h5.267v10.604c0,6.313,4.432,9.364,9.959,9.364c1.981,0,3.39-0.207,4.537-0.569v-6.26
	c-0.834,0.311-1.773,0.467-2.92,0.467c-3.077,0-4.432-1.242-4.432-4.396v-9.209h7.353v-6.209h-7.353V46.477L32.402,52.491
	L32.402,52.491z M44.332,3.932c0-2.173-1.772-3.932-3.91-3.932c-2.19,0-3.963,1.759-3.963,3.932c0,2.122,1.773,3.879,3.963,3.879
	C42.559,7.812,44.332,6.053,44.332,3.932z M56.586,3.932C56.586,1.759,54.813,0,52.675,0c-2.19,0-3.962,1.759-3.962,3.932
	c0,2.122,1.772,3.879,3.962,3.879C54.813,7.812,56.586,6.053,56.586,3.932L56.586,3.932z M52.988,24.729
	c0,3.982-2.712,6.88-6.466,6.88c-3.754,0-6.518-2.897-6.518-6.88c0-3.984,2.764-6.881,6.518-6.881
	C50.276,17.847,52.988,20.745,52.988,24.729L52.988,24.729z M60.236,24.729c0-7.554-6.153-13.502-13.714-13.502
	s-13.714,5.948-13.714,13.502c0,7.552,6.153,13.501,13.714,13.501S60.236,32.281,60.236,24.729z M62.374,76.773
	c-3.077,0-4.433-2.276-4.433-6.154V56.805h-7.144v15.002c0,6.881,3.494,11.434,9.803,11.434c3.337,0,5.789-1.448,7.144-3.518v2.948
	h7.144V56.805h-7.144v12.624C67.744,74.446,65.555,76.773,62.374,76.773z M77.203,18.417c1.147,0,2.138,0.208,3.233,0.568v-7.19
	c-0.887-0.258-1.669-0.311-2.399-0.311c-2.92,0-5.579,1.915-6.466,4.45v-4.138h-7.144v25.866h7.144V25.298
	C71.571,21.055,73.813,18.417,77.203,18.417z M89.607,18.675c0-1.086,1.147-1.604,2.764-1.604c1.93,0,3.755,0.827,5.214,2.121
	l4.015-4.294c-2.138-2.275-5.11-3.673-8.917-3.673c-5.475,0-9.49,3.156-9.542,7.863c-0.104,4.036,2.294,7.139,7.039,8.38
	l1.825,0.517c2.815,0.776,3.858,1.242,3.858,2.381c0,1.241-1.408,1.861-3.232,1.861c-2.451,0-4.693-1.034-5.893-2.843l-4.797,4.035
	c2.295,3.259,6.206,4.811,10.325,4.811c5.84,0,10.116-3.258,10.116-8.277c0-4.242-2.607-7.139-7.196-8.432l-2.451-0.672
	C90.181,20.124,89.607,19.606,89.607,18.675z M102.937,52.491v4.313h-4.171v6.209h4.171v10.604c0,6.313,4.432,9.364,9.959,9.364
	c1.981,0,3.39-0.207,4.536-0.569v-6.26c-0.834,0.311-1.773,0.414-2.92,0.414c-3.076,0-4.432-1.189-4.432-4.346v-9.207h7.352v-6.209
	h-7.352V46.477L102.937,52.491z M124.267,21.573h-12.202c0.678-3.156,3.65-4.501,6.31-4.501
	C121.034,17.072,123.641,18.521,124.267,21.573z M131.307,26.383c0.104-1.086,0.104-1.811,0.104-2.432
	c0-8.38-5.996-12.725-12.827-12.725c-7.926,0-13.714,5.846-13.714,13.502c0,8.173,6.049,13.501,13.818,13.501
	c5.476,0,9.698-2.327,12.097-5.793l-5.318-3.933c-1.146,1.76-3.493,3.259-6.727,3.259c-3.44,0-6.518-1.914-6.934-5.38H131.307
	L131.307,26.383z M140.276,69.325c0,3.932-2.974,6.621-6.571,6.621s-6.621-2.689-6.621-6.621c0-3.983,3.023-6.622,6.621-6.622
	S140.276,65.341,140.276,69.325z M146.846,80.653V56.805h-7.144v2.898c-1.304-1.966-4.171-3.466-7.509-3.466
	c-6.778,0-12.305,5.794-12.305,13.088c0,7.242,5.527,13.036,12.305,13.036c3.338,0,6.205-1.501,7.509-3.415v1.759
	c0,4.139-2.711,7.087-6.935,7.087c-2.868,0-5.84-1.034-8.135-3.207l-3.91,5.276c2.972,2.793,7.664,4.139,12.148,4.139
	C140.85,94,146.846,90.017,146.846,80.653z M170.362,69.738c0,4.036-2.659,7.035-6.569,7.035c-3.912,0-6.572-2.999-6.572-7.035
	c0-4.035,2.66-7.035,6.572-7.035C167.703,62.703,170.362,65.703,170.362,69.738z M169.789,82.671h7.143V56.805h-7.143v2.898
	c-1.148-1.655-3.911-3.466-7.508-3.466c-6.937,0-12.254,6.155-12.254,13.501c0,7.347,5.317,13.502,12.253,13.502
	c3.598,0,6.36-1.811,7.509-3.466V82.671L169.789,82.671z M193.096,63.427c1.148,0,2.139,0.207,3.234,0.568v-7.19
	c-0.887-0.259-1.669-0.311-2.398-0.311c-2.92,0-5.58,1.914-6.468,4.449v-4.139h-7.143v25.866h7.143V70.307
	C187.464,66.065,189.707,63.428,193.096,63.427L193.096,63.427z M210.648,72.221v-9.207H218v-6.209h-7.352V46.477l-7.144,6.015
	v4.313h-5.267v6.209h5.267v10.604c0,6.313,4.433,9.364,9.959,9.364c1.981,0,3.389-0.207,4.536-0.569v-6.26
	c-0.834,0.311-1.773,0.467-2.92,0.467C212.004,76.619,210.648,75.377,210.648,72.221z"/>
</svg>
