<?xml version="1.0" encoding="UTF-8" standalone="no"?>
<!DOCTYPE svg PUBLIC "-//W3C//DTD SVG 1.1//EN" "http://www.w3.org/Graphics/SVG/1.1/DTD/svg11.dtd">
<svg width="100%" height="100%" viewBox="0 0 400 216" version="1.1" xmlns="http://www.w3.org/2000/svg" xmlns:xlink="http://www.w3.org/1999/xlink" xml:space="preserve" xmlns:serif="http://www.serif.com/" style="fill-rule:evenodd;clip-rule:evenodd;stroke-linejoin:round;stroke-miterlimit:2;">
    <g transform="matrix(1,0,0,1,-380.036,-90.9511)">
        <g>
            <g transform="matrix(0.305397,0,0,0.305397,403.288,138.864)">
                <path d="M0,4.4L98.4,4.4C143.4,4.4 178.2,39.6 178.2,82.4C178.2,102.8 169.9,119.1 157,130.5C180.5,141.8 196.7,163.8 196.7,194.1C196.7,238.7 161.1,273.2 113.4,273.2L0,273.2L0,4.4ZM93.1,114.5C112,114.5 124.9,101.3 124.9,84.6C124.9,68.3 112,54.3 93.1,54.3L54.8,54.3L54.8,114.5L93.1,114.5ZM109.7,222.8C130.1,222.8 143.4,209.6 143.4,192.1C143.4,174.7 130.2,161.1 109.7,161.1L54.8,161.1L54.8,222.8L109.7,222.8ZM254.8,194.4C268,214.5 291.1,226.2 313.1,226.2C334.7,226.2 349,215.6 349,200.1C349,185 338,174.4 311.5,165.3L288.8,157.4C245.7,142.3 222.6,117.3 222.6,80.6C222.6,29.9 261.2,0 313.4,0C346.3,0 375.1,11.4 398.2,37.1L361.9,74.6C349,59.1 332.4,51.5 313.8,51.5C295.2,51.5 277.8,59.4 277.8,75.3C277.8,91.6 291,98.8 319.4,109L341,116.9C380.4,131.3 404.9,156.3 404.9,196.7C404.5,244.8 366.3,277.7 310.7,277.7C267.9,277.7 232,259.2 212.7,229.6L254.8,194.4ZM442.5,4.4L531.1,4.4C608.3,4.4 669.2,63.8 669.2,138.7C669.2,213.6 608.3,273 531.1,273L442.5,273L442.5,4.4ZM531,222.8C580.6,222.8 613.9,185.3 613.9,138.8C613.9,92.3 580.6,54.8 531,54.8L497.3,54.8L497.3,222.8L531,222.8Z" style="fill:rgb(100,50,250);fill-rule:nonzero;"/>
                <path d="M706.3,4.4L873.6,4.4L873.6,56.6L761.1,56.6L761.1,111.8L850.8,111.8L850.8,164L761.1,164L761.1,220.8L873.5,220.8L873.5,273L706.3,273L706.3,4.4Z" style="fill:rgb(100,50,250);fill-rule:nonzero;"/>
                <path d="M1023.7,180L953.7,273.1L889.4,273.1L990.4,137.2L895,4.4L958.6,4.4L1023.7,94.5L1088.4,4.4L1152,4.4L1056.6,137.2L1157.6,273.1L1093.3,273.1L1023.7,180Z" style="fill:rgb(100,50,250);fill-rule:nonzero;"/>
            </g>
            <g transform="matrix(0.305397,0,0,0.305397,403.257,236.53)">
                <path d="M0,3.5L18.6,3.5C28.2,3.5 34.6,10.3 34.6,18.3C34.6,23.1 32.6,26.5 29.6,28.7C34.5,30.7 38.2,34.8 38.2,41.5C38.2,50.4 31.1,57.2 20.9,57.2L0,57.2L0,3.5ZM18.1,26.1C22.9,26.1 25.9,22.9 25.9,18.8C25.9,14.9 23,11.5 18.1,11.5L8.9,11.5L8.9,26L18.1,26L18.1,26.1ZM20.7,49.1C26.4,49.1 29.6,45.8 29.6,41.4C29.6,37 26.4,33.7 20.7,33.7L8.9,33.7L8.9,49.1L20.7,49.1ZM63.8,57.9C52.6,57.9 44,49.2 44,38.3C44,27.3 52.6,18.6 63.8,18.6C75,18.6 83.6,27.3 83.6,38.3C83.7,49.2 75,57.9 63.8,57.9ZM55.2,12.8C52.4,12.8 50.1,10.5 50.1,7.8C50.1,5 52.4,2.7 55.2,2.7C57.9,2.7 60.1,5 60.1,7.8C60.1,10.5 58,12.8 55.2,12.8ZM63.8,50.2C70.5,50.2 75.1,45 75.1,38.3C75.1,31.6 70.4,26.4 63.8,26.4C57.1,26.4 52.4,31.6 52.4,38.3C52.4,45 57.1,50.2 63.8,50.2ZM72.5,12.8C69.8,12.8 67.5,10.5 67.5,7.8C67.5,5 69.8,2.7 72.5,2.7C75.3,2.7 77.5,5 77.5,7.8C77.5,10.5 75.3,12.8 72.5,12.8ZM92,19.4L100.3,19.4L100.3,26.1C101.7,21.8 106,19 110.3,19C111.4,19 112.4,19.1 113.6,19.3L113.6,27.8C112.2,27.3 111,27.1 109.4,27.1C104.6,27.1 100.3,31.1 100.3,38.7L100.3,57.1L92,57.1L92,19.4ZM131.6,57.9C125.3,57.9 119.5,55.3 116.8,50L122.8,45.7C124.3,48.9 128,50.8 131.9,50.8C135.1,50.8 137.6,49.4 137.6,46.9C137.6,44.6 135.9,43.3 131.5,42L128.3,41C121.9,39.1 118.5,35 118.6,29.4C118.7,22.9 124.2,18.6 131.8,18.6C136.9,18.6 141.2,20.3 144.3,24L139.4,29.1C137.3,26.9 134.7,25.5 131.5,25.5C128.6,25.5 126.3,26.7 126.3,28.9C126.3,30.9 127.4,32 131.5,33.2L135.3,34.4C141.9,36.4 145.5,40.3 145.5,46.2C145.4,53.7 139.6,57.9 131.6,57.9ZM171.1,18.6C181,18.6 189.3,25.2 189.3,37.3C189.3,38.1 189.3,38.8 189.2,40L159.5,40C159.9,46.2 164.9,50.3 171.1,50.3C176.4,50.3 179.9,47.9 181.9,44.6L188.2,49.1C184.8,54.5 178.9,57.9 171,57.9C159.5,57.9 151.3,49.7 151.3,38.3C151.4,27.2 159.7,18.6 171.1,18.6ZM160,34L181,34C180.1,28.6 175.7,25.6 170.9,25.6C166,25.6 161.1,28.4 160,34ZM219.4,42.9C222.2,47.2 226.7,49.8 231.9,49.8C236.9,49.8 240.6,47.2 240.6,43.1C240.6,39.3 238.1,36.8 233,34.9L227.1,32.8C218.6,29.7 214.4,25 214.4,17.7C214.4,8.3 221.9,2.6 231.9,2.6C238.6,2.6 244.2,5.2 248.1,9.9L242,15.9C239.3,12.7 236,10.9 231.8,10.9C227.3,10.9 223.3,13.2 223.3,17.1C223.3,21 225.9,22.8 231.5,24.8L236.9,26.8C244.8,29.7 249.6,34.5 249.5,42.5C249.5,51.9 242.1,58 231.6,58C222.9,58 215.7,54.1 212.5,48.3L219.4,42.9ZM273.1,57.5C265.8,57.5 260.2,53.5 260.2,45L260.2,26.8L252.3,26.8L252.3,19.4L260.2,19.4L260.2,8.9L268.5,8.9L268.5,19.4L279.3,19.4L279.3,26.8L268.5,26.8L268.5,43.7C268.5,48.4 270.5,50.1 274.8,50.1C276.4,50.1 278.1,49.8 279.3,49.3L279.3,56.7C277.6,57.2 275.6,57.5 273.1,57.5ZM286.6,19.4L294.9,19.4L294.9,40.6C294.9,46.6 297.6,50.3 302.5,50.3C307.9,50.3 311.7,46 311.7,37.9L311.7,19.3L320,19.3L320,57.1L311.7,57.1L311.7,52C309.5,55.8 305.5,57.9 300.7,57.9C292,57.9 286.6,51.6 286.6,42L286.6,19.4ZM347.6,57.5C340.3,57.5 334.7,53.5 334.7,45L334.7,26.8L326.8,26.8L326.8,19.4L334.7,19.4L334.7,8.9L343,8.9L343,19.4L351.8,19.4L351.8,26.8L342.9,26.8L342.9,43.7C342.9,48.4 344.9,50 349.2,50C350.8,50 352.5,49.8 353.7,49.3L353.7,56.7C352.1,57.2 350.1,57.5 347.6,57.5ZM374.9,57.5C367.6,57.5 362,53.5 362,45L362,26.8L355.7,26.8L355.7,19.4L362,19.4L362,8.9L370.3,8.9L370.3,19.4L381.1,19.4L381.1,26.8L370.3,26.8L370.3,43.7C370.3,48.4 372.3,50 376.6,50C378.2,50 379.9,49.8 381.1,49.3L381.1,56.7C379.4,57.2 377.5,57.5 374.9,57.5ZM404.7,73.7C397.3,73.7 390.7,70.9 387,66.7L392,60.7C395.2,64.2 399.6,66.2 404.6,66.2C410.9,66.2 415.9,62 415.9,54.4L415.9,50.9C413.7,54.2 409.1,56.8 403.9,56.8C393.7,56.8 385.7,48.3 385.7,37.6C385.7,26.9 393.7,18.5 403.9,18.5C409.1,18.5 413.7,21 415.9,24.3L415.9,19.2L424.2,19.2L424.2,54.4C424.3,67.7 415.9,73.7 404.7,73.7ZM405.4,49.3C411.9,49.3 416.7,44.5 416.7,37.7C416.7,30.9 411.9,26.1 405.4,26.1C399,26.1 394.2,30.9 394.2,37.7C394.2,44.5 399,49.3 405.4,49.3ZM451.1,18.6C456.5,18.6 461.1,21.4 463.2,24.4L463.2,19.3L471.5,19.3L471.5,57.1L463.2,57.1L463.2,52C461.1,55 456.5,57.8 451.1,57.8C440.7,57.8 432.9,49 432.9,38.2C432.8,27.5 440.7,18.6 451.1,18.6ZM452.6,26.2C445.9,26.2 441.3,31.5 441.3,38.3C441.3,45.1 445.8,50.4 452.6,50.4C459.4,50.4 463.9,45.1 463.9,38.3C463.8,31.5 459.3,26.2 452.6,26.2ZM482.7,19.4L491,19.4L491,26.1C492.4,21.8 496.7,19 501,19C502.1,19 503.1,19.1 504.3,19.3L504.3,27.8C502.9,27.3 501.7,27.1 500.1,27.1C495.3,27.1 491,31.1 491,38.7L491,57.1L482.7,57.1L482.7,19.4ZM527.8,57.5C520.5,57.5 514.9,53.5 514.9,45L514.9,26.8L507,26.8L507,19.4L514.9,19.4L514.9,8.9L523.2,8.9L523.2,19.4L534,19.4L534,26.8L523.2,26.8L523.2,43.7C523.2,48.4 525.2,50.1 529.5,50.1C531.1,50.1 532.8,49.8 534,49.3L534,56.7C532.4,57.2 530.4,57.5 527.8,57.5ZM560.6,3.5L577.1,3.5C593,3.5 605.2,15.1 605.2,30.3C605.2,45.5 593,57.1 577.1,57.1L560.6,57.1L560.6,3.5ZM577.1,48.9C588.6,48.9 596.2,40.8 596.2,30.3C596.2,19.8 588.6,11.7 577.1,11.7L569.5,11.7L569.5,48.9L577.1,48.9ZM617.7,11.1C614.7,11.1 612.1,8.6 612.1,5.5C612.1,2.5 614.7,0 617.7,0C620.8,0 623.2,2.5 623.2,5.5C623.2,8.6 620.8,11.1 617.7,11.1ZM613.5,19.4L621.8,19.4L621.8,57.2L613.5,57.2L613.5,19.4ZM649.3,73.7C641.9,73.7 635.3,70.9 631.6,66.7L636.6,60.7C639.8,64.2 644.2,66.2 649.2,66.2C655.5,66.2 660.5,62 660.5,54.4L660.5,50.9C658.3,54.2 653.7,56.8 648.5,56.8C638.3,56.8 630.3,48.3 630.3,37.6C630.3,26.9 638.3,18.5 648.5,18.5C653.7,18.5 658.3,21 660.5,24.3L660.5,19.2L668.8,19.2L668.8,54.4C668.9,67.7 660.4,73.7 649.3,73.7ZM650,49.3C656.5,49.3 661.3,44.5 661.3,37.7C661.3,30.9 656.5,26.1 650,26.1C643.6,26.1 638.8,30.9 638.8,37.7C638.8,44.5 643.6,49.3 650,49.3ZM684.3,11.1C681.3,11.1 678.7,8.6 678.7,5.5C678.7,2.5 681.3,0 684.3,0C687.4,0 689.8,2.5 689.8,5.5C689.8,8.6 687.4,11.1 684.3,11.1ZM680.1,19.4L688.4,19.4L688.4,57.2L680.1,57.2L680.1,19.4ZM716,57.5C708.7,57.5 703.1,53.5 703.1,45L703.1,26.8L695.2,26.8L695.2,19.4L703.1,19.4L703.1,8.9L711.4,8.9L711.4,19.4L722.2,19.4L722.2,26.8L711.4,26.8L711.4,43.7C711.4,48.4 713.4,50.1 717.7,50.1C719.3,50.1 721,49.8 722.2,49.3L722.2,56.7C720.6,57.2 718.6,57.5 716,57.5ZM745,18.6C750.4,18.6 755,21.4 757.1,24.4L757.1,19.3L765.4,19.3L765.4,57.1L757.1,57.1L757.1,52C755,55 750.4,57.8 745,57.8C734.6,57.8 726.8,49 726.8,38.2C726.8,27.5 734.7,18.6 745,18.6ZM746.6,26.2C739.9,26.2 735.3,31.5 735.3,38.3C735.3,45.1 739.8,50.4 746.6,50.4C753.3,50.4 757.9,45.1 757.9,38.3C757.8,31.5 753.3,26.2 746.6,26.2Z" style="fill:rgb(100,100,100);fill-rule:nonzero;"/>
                <path d="M776.7,0.5L785,0.5L785,57.2L776.7,57.2L776.7,0.5Z" style="fill:rgb(100,100,100);fill-rule:nonzero;"/>
                <path d="M814.9,3.5L847.2,3.5L847.2,12L823.8,12L823.8,25.8L842.7,25.8L842.7,34.3L823.8,34.3L823.8,48.8L847.2,48.8L847.2,57.3L814.9,57.3L814.9,3.5Z" style="fill:rgb(100,100,100);fill-rule:nonzero;"/>
                <path d="M866.2,38.3L852,19.3L861.9,19.3L871.4,32L880.9,19.3L890.9,19.3L876.7,38.3L891.7,57.1L881.6,57.1L871.4,44.3L861.2,57.1L851.1,57.1L866.2,38.3Z" style="fill:rgb(100,100,100);fill-rule:nonzero;"/>
                <path d="M913.2,57.9C901.9,57.9 893.2,49.4 893.2,38.3C893.2,27.1 901.8,18.6 913.2,18.6C921,18.6 927.6,22.8 930.8,29L923.5,32.9C921.7,29 918,26.2 913.1,26.2C906.4,26.2 901.6,31.4 901.6,38.1C901.6,44.8 906.4,50 913.1,50C917.9,50 921.6,47.2 923.5,43.3L930.8,47.2C927.5,53.8 920.9,57.9 913.2,57.9ZM938.4,0.5L946.7,0.5L946.7,24.5C949,20.7 953.3,18.6 958.2,18.6C967,18.6 972.6,24.8 972.6,34.4L972.6,57.1L964.3,57.1L964.3,35.7C964.3,29.7 961.3,26.1 956.4,26.1C950.9,26.1 946.7,30.4 946.7,38.5L946.7,57.1L938.4,57.1L938.4,0.5ZM998.8,18.6C1004.2,18.6 1008.8,21.4 1010.9,24.4L1010.9,19.3L1019.2,19.3L1019.2,57.1L1010.9,57.1L1010.9,52C1008.8,55 1004.2,57.8 998.8,57.8C988.4,57.8 980.6,49 980.6,38.2C980.5,27.5 988.4,18.6 998.8,18.6ZM1000.3,26.2C993.6,26.2 989,31.5 989,38.3C989,45.1 993.5,50.4 1000.3,50.4C1007,50.4 1011.6,45.1 1011.6,38.3C1011.5,31.5 1007,26.2 1000.3,26.2ZM1030.4,19.4L1038.7,19.4L1038.7,24.5C1041,20.7 1045.3,18.6 1050.2,18.6C1059,18.6 1064.6,24.8 1064.6,34.4L1064.6,57.1L1056.3,57.1L1056.3,35.7C1056.3,29.7 1053.3,26.1 1048.4,26.1C1042.9,26.1 1038.7,30.4 1038.7,38.5L1038.7,57.1L1030.4,57.1L1030.4,19.4ZM1091.6,73.7C1084.2,73.7 1077.6,70.9 1073.9,66.7L1078.9,60.7C1082.1,64.2 1086.5,66.2 1091.5,66.2C1097.8,66.2 1102.8,62 1102.8,54.4L1102.8,50.9C1100.6,54.2 1096,56.8 1090.8,56.8C1080.6,56.8 1072.6,48.3 1072.6,37.6C1072.6,26.9 1080.6,18.5 1090.8,18.5C1096,18.5 1100.6,21 1102.8,24.3L1102.8,19.2L1111.1,19.2L1111.1,54.4C1111.2,67.7 1102.7,73.7 1091.6,73.7ZM1092.3,49.3C1098.8,49.3 1103.6,44.5 1103.6,37.7C1103.6,30.9 1098.8,26.1 1092.3,26.1C1085.9,26.1 1081.1,30.9 1081.1,37.7C1081.1,44.5 1085.9,49.3 1092.3,49.3ZM1139.5,18.6C1149.4,18.6 1157.7,25.2 1157.7,37.3C1157.7,38.1 1157.7,38.8 1157.6,40L1127.9,40C1128.3,46.2 1133.3,50.3 1139.5,50.3C1144.8,50.3 1148.3,47.9 1150.3,44.6L1156.6,49.1C1153.2,54.5 1147.3,57.9 1139.4,57.9C1127.9,57.9 1119.7,49.7 1119.7,38.3C1119.8,27.2 1128,18.6 1139.5,18.6ZM1128.3,34L1149.3,34C1148.4,28.6 1144,25.6 1139.2,25.6C1134.4,25.6 1129.5,28.4 1128.3,34Z" style="fill:rgb(100,100,100);fill-rule:nonzero;"/>
            </g>
        </g>
    </g>
</svg>
