<svg xmlns="http://www.w3.org/2000/svg" width="400" height="216" viewBox="0 92 400 216"><path fill="#005FD8" d="M112.283 199.743c.001-12.711-.056-25.423.019-38.134.055-9.046 4-16.107 11.779-20.649a6534.898 6534.898 0 0 1 64.04-36.979c7.805-4.446 16.001-4.434 23.816.027a7103.482 7103.482 0 0 1 64.036 36.988c7.786 4.551 11.703 11.64 11.722 20.678.055 25.569.057 51.142 0 76.711-.019 9.045-3.99 16.106-11.769 20.654a6615.492 6615.492 0 0 1-64.046 36.987c-7.806 4.445-16.009 4.422-23.817-.033a6953.308 6953.308 0 0 1-64.044-36.99c-7.779-4.551-11.677-11.643-11.72-20.683-.063-12.862-.016-25.718-.016-38.577z"/><path fill="#F9F9FA" d="M161.483 182.166c-2.583 3.99-6.095 5.073-10.713 4.855-7.981-.376-9.535 1.399-9.675 9.236-.01.585-.014 1.167-.019 1.753-.081 11.252.404 11.652 11.534 10.917 3.304-.217 4.658-1.738 4.692-4.956.044-4.225-.334-8.456.447-12.667.769-4.147 3.061-6.848 7.073-8.061 4.433-1.337 8.902-1.625 13.305.049 4.84 1.839 7.111 5.173 7.158 10.331.051 5.545.073 11.095.042 16.641-.008 1.333.552 3.148-1.852 3.128-2.035-.016-4.227.315-5.081-2.283-.136-.404-.105-.866-.178-1.294-.454-2.659 1.361-6.33-.961-7.784-2.009-1.256-5.389-.44-8.156-.335-2.141.081-3.177-.416-3.149-2.872.026-2.428 1.334-2.5 3.084-2.457 1.898.053 3.821-.181 5.689.053 3.15.396 3.826-1.1 3.331-3.778-.675-3.662-2.785-5.679-6.588-5.691-3.844-.008-6.422 2.228-6.621 6.055-.194 3.787-.055 7.592-.092 11.386-.058 6.055-1.665 8.048-7.752 9.03-5.648.916-11.333.901-16.97-.246-3.937-.801-6.162-3.064-6.097-7.271.057-3.649.022-7.305.049-10.955.055-7.854 3.996-12.081 11.843-12.716a28.025 28.025 0 0 1 2.189-.064c4.468-.004 8.938-.004 13.468-.004z"/><path fill="#F7F8F8" d="M234.247 195.864c.01-3.214-.024-6.423.022-9.631.023-1.754-.708-3.949 2.548-3.755 2.727.162 4.503.864 4.47 4.005-.056 4.814.002 9.632.033 14.451.042 6.066.979 7.016 7.164 7.062 4.087.028 8.172-.032 12.258-.086 1.671-.02 3.342-.202 3.578-2.344.23-2.09-.95-3.298-2.841-3.808-3.511-.949-7.103-1.645-10.556-2.761-5.088-1.646-6.935-4.433-6.398-9.005.54-4.619 3.349-7.34 8.575-7.647 4.652-.279 9.332-.073 14.001-.089 1.988-.008 3.484.635 3.579 2.89.113 2.745-2.025 1.948-3.435 1.98-3.794.09-7.592-.084-11.382.053-2.215.081-4.621.498-4.923 3.311-.3 2.773 2.139 3.19 4.032 3.748 3.623 1.071 7.385 1.718 10.941 2.963 4.747 1.657 6.729 4.882 5.928 9.387-.76 4.279-3.538 6.446-7.885 6.806-7.717.643-15.441 1.123-23.118-.142-4.794-.788-6.48-2.986-6.585-7.752-.067-3.214-.011-6.427-.006-9.636z"/><path fill="#F9F9FA" d="M187.301 190.799c-.54-2.19-1.653-3.715-2.969-5.267 6.164-3.946 12.365-3.828 18.564-1.108 4.271 1.867 5.456 5.865 5.693 10.121.178 3.206.035 6.428.096 9.641.057 2.974 1.57 4.438 4.597 4.704 10.403.915 11.32.113 11.262-10.404-.008-1.313.011-2.632-.068-3.945-.334-5.504-2.442-7.514-7.951-7.627-4.383-.088-9.215 1.156-12.02-4.684 7.057.259 14.096-1.394 20.829 1.536 4.051 1.758 6.36 4.956 6.262 9.632-.087 4.09-.078 8.186.017 12.274.096 4.18-1.963 6.654-5.901 7.462a46.09 46.09 0 0 1-18.269.057c-3.967-.784-6.062-3.187-5.956-7.385.078-3.063.057-6.14-.056-9.204-.123-3.363.026-7.158-3.908-8.508-3.681-1.26-7.478-1.28-10.222 2.705z"/></svg>