<?xml version="1.0" encoding="UTF-8" standalone="no"?>
<!DOCTYPE svg PUBLIC "-//W3C//DTD SVG 1.1//EN" "http://www.w3.org/Graphics/SVG/1.1/DTD/svg11.dtd">
<svg width="100%" height="100%" viewBox="0 0 400 216" version="1.1" xmlns="http://www.w3.org/2000/svg" xmlns:xlink="http://www.w3.org/1999/xlink" xml:space="preserve" xmlns:serif="http://www.serif.com/" style="fill-rule:evenodd;clip-rule:evenodd;stroke-linejoin:round;stroke-miterlimit:2;">
    <g transform="matrix(0.0706957,0,0,0.0706957,12.02,67.801)">
        <path d="M2492.1,715.38C2468.6,715.38 2448.1,711.28 2430.7,702.98C2413.3,694.78 2399.7,683.08 2389.9,668.08C2380.2,653.08 2375.3,635.38 2375.3,615.18C2375.3,590.88 2380.8,569.18 2391.9,550.08C2403,531.08 2418.5,515.98 2438.5,504.88C2458.5,493.78 2481.7,488.28 2508.2,488.28C2530.6,488.28 2549.9,492.38 2565.9,500.48C2582,508.58 2594.4,519.88 2603.2,534.28C2611.9,548.78 2616.4,565.58 2616.4,584.68C2616.4,591.18 2616,597.38 2615.2,603.38C2614.4,609.28 2613.3,615.18 2611.9,620.78L2435.5,620.78L2442.8,580.18L2576.1,580.18L2544.1,591.98C2546.2,581.48 2545.9,572.58 2543.1,565.38C2540.2,558.28 2535.5,552.68 2528.9,548.78C2522.3,544.88 2514.1,542.88 2504.4,542.88C2492,542.88 2481.7,545.98 2473.8,552.18C2465.8,558.38 2459.9,566.88 2456,577.48C2452.1,588.18 2450.1,599.68 2450.1,612.08C2450.1,627.18 2454.3,638.38 2462.6,645.48C2471,652.68 2483.5,656.28 2500.3,656.28C2510,656.28 2519.6,654.68 2528.9,651.68C2538.2,648.58 2546.4,644.18 2553.4,638.48L2585.4,686.78C2571.6,697.08 2556.7,704.28 2540.6,708.68C2524.9,713.18 2508.5,715.38 2492.1,715.38Z" style="fill:rgb(55,56,62);fill-rule:nonzero;"/>
        <path d="M2626.6,711.68L2686.6,410.88L2763.6,410.88L2740.1,529.28L2721.4,601.08L2709.6,662.28L2699.9,711.68L2626.6,711.68ZM2776.2,715.38C2760.5,715.38 2746.6,712.58 2734.5,707.08C2722.3,701.58 2712.9,692.78 2706.1,680.68C2699.3,668.58 2696,652.98 2696,633.88C2696,614.78 2698.3,595.98 2702.9,578.58C2707.4,561.18 2714.3,545.68 2723.4,532.18C2732.4,518.68 2743.6,507.98 2756.8,500.18C2770,492.28 2785.3,488.38 2802.6,488.38C2818.6,488.38 2833.6,492.28 2847.8,500.18C2862,508.08 2873.4,519.28 2882.2,533.98C2890.9,548.78 2895.4,566.78 2895.4,588.08C2895.4,606.48 2892.3,623.38 2886.1,638.78C2879.9,654.18 2871.3,667.68 2860.4,679.18C2849.4,690.68 2836.8,699.58 2822.5,705.88C2808.1,712.18 2792.7,715.38 2776.2,715.38ZM2765.2,653.38C2775.5,653.38 2784.5,650.78 2792.4,645.68C2800.3,640.58 2806.4,633.38 2810.9,624.28C2815.4,615.08 2817.6,604.38 2817.6,592.28C2817.6,579.58 2813.9,569.38 2806.6,561.68C2799.3,553.98 2789.1,550.08 2775.8,550.08C2765.8,550.08 2756.8,552.68 2748.9,557.98C2740.9,563.28 2734.7,570.48 2730.2,579.68C2725.7,588.88 2723.5,599.58 2723.5,611.68C2723.5,624.38 2727.2,634.48 2734.5,642.08C2741.7,649.58 2752,653.38 2765.2,653.38Z" style="fill:rgb(55,56,62);fill-rule:nonzero;"/>
        <path d="M3032.3,715.38C3008.8,715.38 2988.3,711.28 2970.9,702.98C2953.5,694.78 2939.9,683.08 2930.1,668.08C2920.4,653.08 2915.5,635.38 2915.5,615.18C2915.5,590.88 2921,569.18 2932.1,550.08C2943.2,531.08 2958.7,515.98 2978.7,504.88C2998.7,493.78 3021.9,488.28 3048.4,488.28C3070.8,488.28 3090.1,492.38 3106.1,500.48C3122.2,508.58 3134.6,519.88 3143.4,534.28C3152.1,548.78 3156.6,565.58 3156.6,584.68C3156.6,591.18 3156.2,597.38 3155.4,603.38C3154.6,609.28 3153.5,615.18 3152.1,620.78L2975.9,620.78L2983.2,580.18L3116.5,580.18L3084.5,591.98C3086.6,581.48 3086.3,572.58 3083.5,565.38C3080.6,558.28 3075.9,552.68 3069.3,548.78C3062.7,544.88 3054.5,542.88 3044.8,542.88C3032.4,542.88 3022.1,545.98 3014.2,552.18C3006.2,558.38 3000.3,566.88 2996.4,577.48C2992.5,588.18 2990.5,599.68 2990.5,612.08C2990.5,627.18 2994.7,638.38 3003,645.48C3011.4,652.68 3023.9,656.28 3040.7,656.28C3050.4,656.28 3060,654.68 3069.3,651.68C3078.6,648.58 3086.8,644.18 3093.8,638.48L3125.8,686.78C3112,697.08 3097.1,704.28 3081,708.68C3065.1,713.18 3048.8,715.38 3032.3,715.38Z" style="fill:rgb(55,56,62);fill-rule:nonzero;"/>
        <path d="M3167,711.68L3210.8,491.98L3283.8,491.98L3271.2,554.48L3263.9,536.68C3273.6,519.18 3286.5,506.68 3302.4,499.38C3318.4,492.08 3337,488.38 3358.3,488.38L3344.9,557.78C3341.6,557.28 3338.7,556.98 3336,556.78C3333.3,556.68 3330.5,556.58 3327.5,556.58C3310.8,556.58 3297,560.58 3286.3,568.58C3275.6,576.58 3268.6,589.68 3265,608.08L3243.9,711.68L3167,711.68Z" style="fill:rgb(55,56,62);fill-rule:nonzero;"/>
        <path d="M3345.7,711.68L3405.7,410.88L3482.7,410.88L3422.7,711.68L3345.7,711.68Z" style="fill:rgb(55,56,62);fill-rule:nonzero;"/>
        <path d="M3596.6,715.38C3573.1,715.38 3552.6,711.28 3535.2,702.98C3517.8,694.78 3504.2,683.08 3494.4,668.08C3484.7,653.08 3479.8,635.38 3479.8,615.18C3479.8,590.88 3485.3,569.18 3496.4,550.08C3507.5,531.08 3523,515.98 3543,504.88C3563,493.78 3586.2,488.28 3612.7,488.28C3635.1,488.28 3654.4,492.38 3670.4,500.48C3686.5,508.58 3698.9,519.88 3707.7,534.28C3716.4,548.78 3720.9,565.58 3720.9,584.68C3720.9,591.18 3720.5,597.38 3719.7,603.38C3718.9,609.28 3717.8,615.18 3716.4,620.78L3540,620.78L3547.3,580.18L3680.6,580.18L3648.6,591.98C3650.7,581.48 3650.4,572.58 3647.6,565.38C3644.7,558.28 3640,552.68 3633.4,548.78C3626.8,544.88 3618.6,542.88 3608.9,542.88C3596.5,542.88 3586.2,545.98 3578.3,552.18C3570.3,558.38 3564.4,566.88 3560.5,577.48C3556.6,588.18 3554.6,599.68 3554.6,612.08C3554.6,627.18 3558.8,638.38 3567.1,645.48C3575.4,652.58 3588,656.28 3604.8,656.28C3614.5,656.28 3624.1,654.68 3633.4,651.68C3642.7,648.58 3650.9,644.18 3657.9,638.48L3689.9,686.78C3676.1,697.08 3661.2,704.28 3645.1,708.68C3629.4,713.18 3613.1,715.38 3596.6,715.38Z" style="fill:rgb(55,56,62);fill-rule:nonzero;"/>
        <path d="M3731.2,711.68L3775,491.98L3851.6,491.98L3807.8,711.68L3731.2,711.68ZM3824,467.68C3810.5,467.68 3799.7,463.98 3791.8,456.58C3783.8,449.18 3779.8,440.18 3779.8,429.68C3779.8,417.28 3784.3,406.88 3793.4,398.48C3802.4,390.08 3814.4,385.98 3829.3,385.98C3842.8,385.98 3853.6,389.48 3861.7,396.48C3869.8,403.58 3873.9,412.28 3873.9,422.88C3873.9,436.08 3869.3,446.88 3860.1,455.28C3850.9,463.58 3838.9,467.68 3824,467.68Z" style="fill:rgb(55,56,62);fill-rule:nonzero;"/>
        <path d="M4038.8,488.38C4057.5,488.38 4073.2,492.28 4086.2,499.98C4099.2,507.68 4108.4,518.98 4114,533.98C4119.5,548.98 4120,567.68 4115.4,590.18L4091.1,711.78L4014.1,711.78L4036.9,597.48C4039.9,583.48 4039,572.68 4034.3,565.08C4029.6,557.48 4020.8,553.78 4008.2,553.78C3995.6,553.78 3984.2,557.88 3975.3,565.98C3966.4,574.08 3960.2,586.58 3956.6,603.28L3934.7,711.88L3857.6,711.88L3901.4,492.18L3974.4,492.18L3961.9,553.88L3952.2,536.08C3962.7,519.58 3975.8,507.58 3991.3,499.98C4006.7,492.18 4022.6,488.38 4038.8,488.38Z" style="fill:rgb(55,56,62);fill-rule:nonzero;"/>
        <path d="M4257.7,711.68L4317.7,410.88L4394.7,410.88L4334.7,711.68L4257.7,711.68ZM4332.7,674.47L4349.7,578.87L4452.3,492.17L4549.6,492.17L4427.2,597.97L4383.4,629.97L4332.7,674.47ZM4420.6,711.68L4369.9,627.38L4424.2,568.58L4510.6,711.68L4420.6,711.68Z" style="fill:rgb(55,56,62);fill-rule:nonzero;"/>
        <path d="M4618.9,715.38C4601.1,715.38 4585.6,711.48 4572.5,703.78C4559.4,696.08 4550.1,684.68 4544.7,669.48C4539.3,654.38 4538.8,635.58 4543.1,613.08L4567.4,491.88L4644.4,491.88L4621.7,605.78C4618.7,619.78 4619.6,630.58 4624.3,638.18C4629,645.78 4637.5,649.48 4649.6,649.48C4662.6,649.48 4673.5,645.48 4682.3,637.48C4691,629.48 4697.1,617.18 4700.3,600.38L4722.2,491.78L4799.2,491.78L4755.4,711.48L4682.4,711.48L4694.9,649.48L4704.6,667.28C4694.1,683.78 4681.1,695.88 4665.9,703.58C4650.8,711.58 4635.1,715.38 4618.9,715.38Z" style="fill:rgb(55,56,62);fill-rule:nonzero;"/>
        <path d="M4986.1,488.38C5004.8,488.38 5020.5,492.28 5033.5,499.98C5046.5,507.68 5055.7,518.98 5061.3,533.98C5066.8,548.98 5067.3,567.68 5062.7,590.18L5038.4,711.78L4961.4,711.78L4984.1,597.48C4987.1,583.48 4986.2,572.68 4981.5,565.08C4976.8,557.48 4968,553.78 4955.4,553.78C4942.8,553.78 4931.4,557.88 4922.5,565.98C4913.6,574.08 4907.4,586.58 4903.8,603.28L4881.9,711.88L4804.9,711.88L4848.7,492.18L4921.7,492.18L4909.2,553.88L4899.5,536.08C4910,519.58 4923.1,507.58 4938.6,499.98C4954,492.18 4969.9,488.38 4986.1,488.38Z" style="fill:rgb(55,56,62);fill-rule:nonzero;"/>
        <path d="M5075.3,711.68L5084.2,666.28L5232.6,524.38L5244.4,549.08L5110.9,549.08L5122.2,491.88L5318,491.88L5308.7,536.88L5161.2,679.18L5148.7,654.08L5289.7,654.08L5277.9,711.68L5075.3,711.68Z" style="fill:rgb(55,56,62);fill-rule:nonzero;"/>
        <path d="M1480.6,610.68L1396.2,694.68C1374,716.88 1338.7,717.58 1315.4,697.28L1315.4,697.78L1185,567.48L1322.6,431.68C1340,414.28 1368.2,414.28 1385.6,431.68L1480.5,526.58C1503.8,549.78 1503.8,587.48 1480.6,610.68M1840,409.87L1495.9,65.77C1408.2,-21.93 1266,-21.93 1178.3,65.77L675.3,567.47L1178.3,1071.47C1266,1159.17 1408.2,1159.17 1495.9,1071.47L1840,727.37C1927.7,639.67 1927.7,497.57 1840,409.87" style="fill:rgb(231,220,73);fill-rule:nonzero;"/>
        <path d="M489.8,435.18C522.4,435.18 552.2,447.58 575,467.98L675.6,567.48L579.2,665.08L579.1,664.98C555.8,687.68 524.4,701.58 489.8,701.58C418.1,701.58 360,641.98 360,568.38C360,494.78 418.2,435.28 489.8,435.18M489.2,66.87C219,66.87 0,291.68 0,568.97C0,846.26 219,1071.07 489.2,1071.07C619.7,1071.07 738.2,1018.47 825.9,932.97L1185.7,567.47L810.6,190.57C724.6,113.67 612.3,66.87 489.2,66.87" style="fill:rgb(82,127,228);fill-rule:nonzero;"/>
        <path d="M675.3,567.57L932.1,825.18L1185.3,567.57L931.5,312.47L675.3,567.57Z" style="fill:rgb(82,129,99);fill-rule:nonzero;"/>
    </g>
</svg>
