<?xml version="1.0" encoding="UTF-8" standalone="no"?>
<!DOCTYPE svg PUBLIC "-//W3C//DTD SVG 1.1//EN" "http://www.w3.org/Graphics/SVG/1.1/DTD/svg11.dtd">
<svg width="100%" height="100%" viewBox="0 0 400 216" version="1.1" xmlns="http://www.w3.org/2000/svg" xmlns:xlink="http://www.w3.org/1999/xlink" xml:space="preserve" xmlns:serif="http://www.serif.com/" style="fill-rule:evenodd;clip-rule:evenodd;stroke-linejoin:round;stroke-miterlimit:2;">
    <g transform="matrix(0.0717366,0,0,0.0717366,21.8555,71.5981)">
        <g transform="matrix(4.16667,0,0,4.16667,0,0)">
            <path d="M25.85,243.57L0,243.57L39.77,0L65.61,0L25.85,243.57Z" style="fill:rgb(244,36,15);fill-rule:nonzero;"/>
        </g>
        <g transform="matrix(4.16667,0,0,4.16667,0,0)">
            <path d="M199.75,88.96L199.75,111L105.29,111L105.29,88.96L199.75,88.96ZM175.61,28.09C181.03,28.09 185.97,28.66 190.43,29.8C194.89,30.94 198.26,32.47 200.53,34.39L195.28,54.59C193.35,53.37 191.17,52.45 188.72,51.84C186.27,51.23 183.47,50.92 180.32,50.92C173.15,50.92 167.5,52.59 163.4,55.91C159.29,59.24 157.23,64.66 157.23,72.18L157.23,91.33L158.02,98.41L158.02,220.16L129.94,220.16L129.94,70.07C129.94,63.42 130.94,57.48 132.96,52.23C134.97,46.98 137.99,42.57 142.01,38.98C146.03,35.4 150.89,32.68 156.57,30.85C162.27,29.01 168.61,28.09 175.61,28.09ZM253.01,88.96L253.01,220.15L224.93,220.15L224.93,88.96L253.01,88.96Z" style="fill-rule:nonzero;"/>
            <path d="M288.71,220.16L288.71,88.96L313.64,88.96L315.48,123.07L311.81,119.4C314.26,111.88 317.8,105.62 322.44,100.64C327.07,95.65 332.58,92.03 338.97,89.75C345.35,87.48 352.13,86.34 359.3,86.34C368.57,86.34 376.92,88.14 384.36,91.72C391.79,95.31 397.7,100.69 402.07,107.86C406.44,115.03 408.63,124.13 408.63,135.15L408.63,220.16L380.56,220.16L380.56,143.8C380.56,130.86 377.89,121.89 372.56,116.91C367.22,111.92 360.53,109.43 352.49,109.43C346.72,109.43 341.12,110.79 335.7,113.5C330.28,116.21 325.77,120.54 322.19,126.49C318.6,132.44 316.81,140.4 316.81,150.37L316.81,220.16L288.71,220.16Z" style="fill-rule:nonzero;"/>
            <path d="M494.13,222.78C481.01,222.78 469.03,220.24 458.18,215.17C447.33,210.1 438.76,202.93 432.47,193.65L451.89,176.86C455.74,184.03 461.29,189.76 468.55,194.05C475.81,198.34 484.51,200.48 494.66,200.48C502.7,200.48 509.09,199.08 513.81,196.28C518.53,193.48 520.89,189.55 520.89,184.47C520.89,181.15 519.8,178.22 517.61,175.68C515.42,173.15 511.27,171.18 505.15,169.78L477.6,164.01C463.6,161.21 453.63,156.71 447.69,150.5C441.74,144.29 438.77,136.38 438.77,126.75C438.77,119.58 440.87,112.93 445.07,106.81C449.27,100.69 455.43,95.75 463.57,91.99C471.7,88.23 481.45,86.35 492.83,86.35C505.95,86.35 517.14,88.67 526.41,93.3C535.68,97.94 542.76,104.54 547.66,113.11L528.24,129.38C524.91,122.39 520.02,117.18 513.55,113.77C507.08,110.36 500.34,108.65 493.35,108.65C487.75,108.65 482.94,109.35 478.92,110.75C474.89,112.15 471.84,114.08 469.74,116.52C467.64,118.97 466.59,121.86 466.59,125.18C466.59,128.68 467.9,131.74 470.53,134.36C473.15,136.98 477.88,139 484.7,140.4L514.61,146.7C527.2,149.15 536.08,153.31 541.24,159.16C546.4,165.02 548.98,172.15 548.98,180.54C548.98,188.93 546.79,196.33 542.42,202.71C538.05,209.1 531.75,214.04 523.53,217.53C515.29,221.03 505.5,222.78 494.13,222.78Z" style="fill-rule:nonzero;"/>
            <path d="M669.66,88.96L669.66,111L571.27,111L571.27,88.96L669.66,88.96ZM624.53,50.39L624.53,180.79C624.53,187.26 626.24,191.99 629.65,194.96C633.06,197.94 637.65,199.42 643.43,199.42C648.15,199.42 652.26,198.68 655.76,197.19C659.26,195.71 662.49,193.65 665.47,191.02L671.77,211.49C667.74,214.99 662.8,217.75 656.95,219.75C651.09,221.76 644.57,222.77 637.4,222.77C629.88,222.77 622.97,221.54 616.67,219.1C610.37,216.65 605.47,212.67 601.98,207.16C598.48,201.65 596.64,194.43 596.47,185.51L596.47,58.27L624.53,50.39Z" style="fill-rule:nonzero;"/>
            <path d="M700.62,220.16L700.62,88.96L724.5,88.96L727.12,112.57C730.62,104 735.82,97.48 742.73,93.02C749.64,88.56 758.17,86.33 768.31,86.33C770.93,86.33 773.56,86.55 776.18,86.99C778.8,87.43 780.99,88.08 782.74,88.96L778.8,113.62C776.87,112.92 774.73,112.35 772.37,111.91C770.01,111.48 766.81,111.25 762.79,111.25C757.37,111.25 752.03,112.69 746.78,115.58C741.53,118.47 737.2,122.8 733.79,128.57C730.38,134.34 728.67,141.69 728.67,150.61L728.67,220.14L700.62,220.14L700.62,220.16Z" style="fill-rule:nonzero;"/>
            <path d="M862.71,222.78C849.59,222.78 838.05,220.07 828.08,214.65C818.11,209.23 810.37,201.4 804.86,191.17C799.35,180.94 796.6,168.74 796.6,154.57C796.6,140.4 799.35,128.2 804.86,117.97C810.37,107.74 818.02,99.91 827.82,94.49C837.61,89.07 848.72,86.36 861.14,86.36C873.91,86.36 884.75,88.98 893.68,94.23C902.6,99.48 909.42,106.65 914.15,115.74C918.87,124.84 921.23,135.16 921.23,146.7C921.23,149.85 921.14,152.82 920.97,155.62C920.79,158.42 920.53,160.87 920.18,162.97L814.69,162.97L814.69,141.45L907.84,141.45L893.93,145.65C893.93,133.76 890.95,124.62 885.01,118.23C879.06,111.85 870.93,108.65 860.61,108.65C853.09,108.65 846.53,110.4 840.93,113.9C835.33,117.4 831.05,122.6 828.07,129.51C825.09,136.42 823.61,144.86 823.61,154.83C823.61,164.63 825.18,172.93 828.33,179.76C831.48,186.59 835.94,191.74 841.71,195.24C847.48,198.74 854.3,200.49 862.18,200.49C870.92,200.49 878.01,198.83 883.43,195.5C888.85,192.18 893.14,187.54 896.29,181.59L918.59,192.09C915.44,198.39 911.2,203.86 905.86,208.49C900.52,213.13 894.18,216.67 886.84,219.12C879.5,221.55 871.45,222.78 862.71,222.78Z" style="fill-rule:nonzero;"/>
            <path d="M1012.51,222.78C999.39,222.78 987.85,220.07 977.88,214.65C967.91,209.23 960.17,201.4 954.66,191.17C949.15,180.94 946.4,168.74 946.4,154.57C946.4,140.4 949.15,128.2 954.66,117.97C960.17,107.74 967.82,99.91 977.62,94.49C987.41,89.07 998.52,86.36 1010.94,86.36C1023.71,86.36 1034.55,88.98 1043.48,94.23C1052.4,99.48 1059.22,106.65 1063.95,115.74C1068.67,124.84 1071.03,135.16 1071.03,146.7C1071.03,149.85 1070.94,152.82 1070.77,155.62C1070.59,158.42 1070.33,160.87 1069.98,162.97L964.5,162.97L964.5,141.45L1057.65,141.45L1043.74,145.65C1043.74,133.76 1040.76,124.62 1034.82,118.23C1028.87,111.85 1020.74,108.65 1010.42,108.65C1002.9,108.65 996.34,110.4 990.74,113.9C985.14,117.4 980.86,122.6 977.88,129.51C974.9,136.42 973.42,144.86 973.42,154.83C973.42,164.63 974.99,172.93 978.14,179.76C981.29,186.59 985.75,191.74 991.52,195.24C997.29,198.74 1004.11,200.49 1011.99,200.49C1020.73,200.49 1027.82,198.83 1033.24,195.5C1038.66,192.18 1042.95,187.54 1046.1,181.59L1068.4,192.09C1065.25,198.39 1061.01,203.86 1055.67,208.49C1050.33,213.13 1043.99,216.67 1036.65,219.12C1029.31,221.55 1021.26,222.78 1012.51,222.78Z" style="fill-rule:nonzero;"/>
            <path d="M1189.88,88.96L1189.88,111L1091.49,111L1091.49,88.96L1189.88,88.96ZM1144.75,50.39L1144.75,180.79C1144.75,187.26 1146.46,191.99 1149.87,194.96C1153.28,197.94 1157.87,199.42 1163.65,199.42C1168.37,199.42 1172.48,198.68 1175.98,197.19C1179.48,195.71 1182.71,193.65 1185.69,191.02L1191.99,211.49C1187.96,214.99 1183.02,217.75 1177.17,219.75C1171.31,221.76 1164.79,222.77 1157.62,222.77C1150.1,222.77 1143.19,221.54 1136.89,219.1C1130.59,216.65 1125.69,212.67 1122.2,207.16C1118.7,201.65 1116.86,194.43 1116.69,185.51L1116.69,58.27L1144.75,50.39Z" style="fill-rule:nonzero;"/>
        </g>
    </g>
</svg>
