<?xml version="1.0" encoding="utf-8"?>
<!-- Generator: Adobe Illustrator 16.0.3, SVG Export Plug-In . SVG Version: 6.00 Build 0)  -->
<!DOCTYPE svg PUBLIC "-//W3C//DTD SVG 1.1//EN" "http://www.w3.org/Graphics/SVG/1.1/DTD/svg11.dtd">
<svg version="1.1" id="Ebene_1" xmlns="http://www.w3.org/2000/svg" xmlns:xlink="http://www.w3.org/1999/xlink" x="0px" y="0px"
	 width="400px" height="216px" viewBox="371.18 288.85 400 216" enable-background="new 371.18 288.85 400 216"
	 xml:space="preserve">
<polygon fill="#123E8C" points="671.326,400.211 682.234,344.262 663.236,344.262 648.856,418.818 683.498,418.858 686.962,400.211 
	"/>
<path fill="#123E8C" d="M727.077,360.761c3.125,0,7.606,0.751,10.311,1.708l3.229-17.178c-3.956-0.642-8.223-1.07-12.905-1.07
	c-20.609,0-30.295,12.273-30.295,26.035c0,18.033,18.324,17.827,18.324,25.502c0,3.844-2.705,5.979-8.534,5.979
	c-4.062,0-9.681-0.965-13.02-2.244l-3.524,18.433c3.852,0.743,9.257,1.308,14.667,1.308c18.421,0,31.331-12.275,31.331-27.104
	c0-17.5-18.421-17.815-18.421-25.502C718.24,363.216,720.529,360.761,727.077,360.761"/>
<path fill="#123E8C" d="M633.923,344.278c-28.315,0-46.486,21.199-46.486,47.221c0,16.277,8.563,27.517,30.193,27.517
	c8.558,0,17.593-1.578,24.803-4.676l6.948-36.01h-19.015l-4.073,21.953c-1.672,0.424-3.657,0.533-5.224,0.533
	c-9.504,0-12.951-5.245-12.951-12.2c0-12.955,7.94-26.337,24.133-26.337c4.55,0,9.532,0.848,13.984,2.232
	c0.457,0.133,0.921,0.274,1.405,0.44c1.603,0.545,2.979,1.142,3.969,1.675l3.859-19.479
	C648.949,345.368,641.129,344.278,633.923,344.278"/>
<path fill="#FCBF00" d="M491.666,344.504l-5.099,24.735h35.17c-29.139,43.176-86.978,35.846-102.274,17.945
	c-13.165-15.421-1.792-41.812,37.242-58.117c-38.635,11.756-60.326,42.639-47.585,63.422c14.445,23.569,59.478,33.403,99.505,21.961
	c26.746-9.406,38.163-22.571,42.333-29.672l-6.548,34.239h26.289l14.263-74.512H491.666z"/>
<path fill="#123E8C" d="M424.812,439.747c-1.579-0.732-3.448-1.123-5.083-1.123c-5.446,0-9.108,4.671-9.108,10.146
	c0,2.704,1.445,5.381,5.466,5.381c1.308,0,2.394-0.222,3.459-0.537l1.425-7.541h3.206l-1.841,9.851
	c-2.12,0.803-4.663,1.219-6.807,1.219c-5.789,0-8.421-3.335-8.421-7.98c0-7.788,5.539-13.48,12.983-13.48
	c1.999,0,3.968,0.291,5.697,0.832L424.812,439.747z"/>
<path fill="#123E8C" d="M434.743,443.629c-2.18,0-3.638,1.998-4.235,4.355c4.113-0.165,6.043-1.017,6.043-2.789
	C436.552,444.19,435.853,443.629,434.743,443.629 M430.109,450.279c-0.061,0.392-0.129,1.073-0.129,1.529
	c0,2.115,0.763,2.677,3.028,2.677c1.421,0,2.967-0.339,4.304-0.899v2.579c-1.546,0.602-3.399,0.973-5.361,0.973
	c-3.633,0-5.208-1.651-5.208-5.111c0-6.152,3.509-10.875,8.353-10.875c3.447,0,4.626,1.801,4.626,3.625
	C439.729,448.232,436.31,450.052,430.109,450.279z"/>
<path fill="#123E8C" d="M453.56,456.823h-3.181l1.853-9.738c0.42-2.188,0.02-3.112-1.163-3.112c-2.414,0-5.381,5.495-6.043,9.196
	l-0.67,3.65h-3.177l1.518-8.03c0.48-2.579,0.969-5.261,1.304-7.319h3.145c-0.178,0.949-0.573,2.58-1.542,5.466l0.064,0.033
	c1.421-3.044,3.658-5.846,6.686-5.846c2.834,0,3.742,2.079,3.169,5.188L453.56,456.823z"/>
<path fill="#123E8C" d="M466.244,443.629c-2.18,0-3.633,1.998-4.239,4.355c4.118-0.165,6.043-1.017,6.043-2.789
	C468.049,444.19,467.354,443.629,466.244,443.629 M461.614,450.279c-0.061,0.392-0.122,1.073-0.122,1.529
	c0,2.115,0.755,2.677,3.016,2.677c1.425,0,2.971-0.339,4.307-0.899v2.579c-1.542,0.602-3.399,0.973-5.361,0.973
	c-3.634,0-5.204-1.651-5.204-5.111c0-6.152,3.508-10.875,8.349-10.875c3.448,0,4.63,1.801,4.63,3.625
	C471.234,448.232,467.81,450.052,461.614,450.279z"/>
<path fill="#123E8C" d="M483.304,444.339c-2.515-0.755-5.325,4.381-6.201,9.072l-0.634,3.411h-3.181l1.506-8.029
	c0.4-2.165,0.912-5.035,1.304-7.32h3.088c-0.206,1.264-0.602,2.777-1.425,5.185l0.06,0.023c1.676-3.505,3.396-5.987,6.153-5.526
	L483.304,444.339z"/>
<path fill="#123E8C" d="M493.531,443.787c-4.021,0-5.716,4.47-5.716,8.021c0,1.777,0.508,2.512,1.36,2.512
	c2.535,0,5.418-5.648,6.08-9.152l0.21-1.118C494.919,443.9,494.285,443.787,493.531,443.787 M496.284,456.823h-3.149
	c0.274-1.265,0.787-3.093,1.603-5.624l-0.061-0.024c-1.146,2.31-3.326,5.983-6.709,5.983c-2.212,0-3.423-1.481-3.423-4.771
	c0-5.713,2.935-11.167,9.535-11.167c1.749,0,3.448,0.146,4.994,0.461C497.584,449.5,496.917,453.024,496.284,456.823z"/>
<polygon fill="#123E8C" points="504.035,456.823 500.85,456.823 504.761,435.653 507.939,435.653 "/>
<polygon fill="#123E8C" points="526.553,456.823 516.465,456.823 520.429,435.587 523.659,435.587 520.256,453.879 527.123,453.879 
	"/>
<path fill="#123E8C" d="M537.833,443.972c-3.088,0-5.046,3.602-5.046,7.13c0,2.019,0.775,3.185,2.806,3.185
	c2.85,0,5.115-3.152,5.115-7.169C540.703,445.067,539.831,443.972,537.833,443.972 M535.14,457.137c-3.96,0-5.696-2.019-5.696-5.498
	c0-6.277,3.997-10.488,8.877-10.488c4.114,0,5.741,2.309,5.741,5.6C544.066,453.048,539.735,457.137,535.14,457.137z"/>
<path fill="#123E8C" d="M555.418,443.787c-4.033,0-5.72,4.47-5.72,8.021c0,1.777,0.517,2.512,1.349,2.512
	c2.555,0,5.426-5.648,6.096-9.152l0.214-1.118C556.807,443.9,556.169,443.787,555.418,443.787 M557.857,458.038
	c-0.714,3.916-3.145,6.597-8.946,6.597c-1.695,0-3.064-0.251-4.21-0.609l0.767-3.117c1.175,0.59,2.693,0.904,4.045,0.904
	c3.004,0,4.756-1.188,5.357-4.332c0.396-2.11,0.755-3.282,1.696-6.177h-0.061c-1.09,2.192-3.27,5.866-6.665,5.866
	c-2.201,0-3.424-1.481-3.424-4.771c0-5.713,2.972-11.167,9.536-11.167c1.76,0,3.46,0.146,4.989,0.461L557.857,458.038z"/>
<path fill="#123E8C" d="M567.82,439.184c-1.146,0-1.97-0.924-1.934-1.994c0.024-1.219,1.054-2.139,2.2-2.139
	c1.126,0,1.938,0.88,1.918,1.941C569.972,438.26,568.938,439.184,567.82,439.184 M565.85,456.823h-3.169l2.871-15.354h3.185
	L565.85,456.823z"/>
<path fill="#123E8C" d="M580.323,443.997c-0.67-0.242-1.434-0.335-2.152-0.335c-1.78,0-2.688,0.8-2.688,1.966
	c0,2.192,4.268,2.972,4.268,6.371c0,2.563-2.212,5.135-6.657,5.135c-1.006,0-1.821-0.093-2.576-0.246l0.541-2.851
	c0.767,0.247,1.579,0.396,2.39,0.396c1.784,0,2.971-0.707,2.971-2.096c0-2.265-4.238-2.696-4.238-6.375
	c0-2.676,2.083-4.815,6.172-4.815c0.998,0,1.809,0.096,2.576,0.246L580.323,443.997z"/>
<path fill="#123E8C" d="M593.181,444.025h-3.831l-1.414,7.537c-0.383,2.144-0.072,2.725,1.293,2.725
	c0.807,0,1.408-0.093,1.985-0.218l-0.246,2.697c-0.933,0.197-2.055,0.322-2.943,0.322c-3.133,0-4.021-1.51-3.322-5.09l1.486-7.977
	h-2.851l0.529-2.557h2.793l0.908-4.893l3.307-0.707l-1.058,5.6h3.879L593.181,444.025z"/>
<path fill="#123E8C" d="M599.996,439.184c-1.143,0-1.982-0.924-1.935-1.994c0.024-1.219,1.059-2.139,2.204-2.139
	c1.123,0,1.938,0.88,1.91,1.941C602.127,438.26,601.122,439.184,599.996,439.184 M598.009,456.823h-3.16l2.874-15.354h3.186
	L598.009,456.823z"/>
<path fill="#123E8C" d="M614.404,444.489c-0.743-0.342-1.583-0.564-2.588-0.564c-3.517,0-5.095,4.017-5.095,7.25
	c0,1.563,0.524,3.017,2.891,3.017c1.086,0,2.228-0.247,3.136-0.683l-0.237,2.918c-1.063,0.367-2.395,0.662-3.808,0.662
	c-3.968,0-5.385-2.119-5.385-5.183c0-5.866,3.302-10.723,8.712-10.723c1.175,0,2.155,0.165,3.112,0.427L614.404,444.489z"/>
<path fill="#123E8C" d="M625.436,443.997c-0.674-0.242-1.416-0.335-2.14-0.335c-1.788,0-2.7,0.8-2.7,1.966
	c0,2.192,4.264,2.972,4.264,6.371c0,2.563-2.205,5.135-6.649,5.135c-1.005,0-1.821-0.093-2.567-0.246l0.532-2.851
	c0.763,0.247,1.583,0.396,2.394,0.396c1.789,0,2.968-0.707,2.968-2.096c0-2.265-4.238-2.696-4.238-6.375
	c0-2.676,2.082-4.815,6.172-4.815c1.005,0,1.816,0.096,2.58,0.246L625.436,443.997z"/>
<path fill="#123E8C" d="M647.68,438.934c-1.005-0.339-2.059-0.504-2.842-0.504c-2.874,0-4.098,1.578-4.098,3.111
	c0,3.501,6.08,3.606,6.08,8.571c0,3.956-3.399,7.024-8.252,7.024c-1.175,0-2.511-0.093-3.496-0.416l0.598-3.189
	c0.863,0.392,2.083,0.659,3.137,0.659c2.919,0,4.518-1.39,4.518-3.525c0-3.334-6.031-3.358-6.031-8.34
	c0-3.605,2.66-6.669,7.755-6.669c1.078,0,2.06,0.076,3.205,0.27L647.68,438.934z"/>
<path fill="#123E8C" d="M652.803,461.804c-1.893,1.873-3.807,2.802-5.644,2.802c-0.747,0-1.563-0.097-2.18-0.25l0.549-2.903
	c0.577,0.206,1.224,0.303,1.841,0.303c1.029,0,2.18-0.562,3.117-1.537c1.069-1.115,1.55-2.411,1.55-4.474
	c0-4.211-0.908-9.272-2.249-14.279h3.541c0.956,3.698,1.651,8.296,1.651,11.578c0,0.461-0.093,1.095-0.194,1.607h0.024
	c2.225-4.037,4.158-8.276,6.366-13.818l3.056,0.875C660.07,451.562,656.481,458.066,652.803,461.804"/>
<path fill="#123E8C" d="M673.574,443.997c-0.657-0.242-1.417-0.335-2.139-0.335c-1.785,0-2.701,0.8-2.701,1.966
	c0,2.192,4.259,2.972,4.259,6.371c0,2.563-2.2,5.135-6.648,5.135c-1.002,0-1.817-0.093-2.563-0.246l0.532-2.851
	c0.759,0.247,1.583,0.396,2.398,0.396c1.784,0,2.963-0.707,2.963-2.096c0-2.265-4.243-2.696-4.243-6.375
	c0-2.676,2.088-4.815,6.177-4.815c1.001,0,1.817,0.096,2.58,0.246L673.574,443.997z"/>
<path fill="#123E8C" d="M686.444,444.025h-3.852l-1.389,7.537c-0.387,2.144-0.097,2.725,1.268,2.725c0.809,0,1.43-0.093,2.011-0.218
	l-0.246,2.697c-0.956,0.197-2.059,0.322-2.943,0.322c-3.156,0-4.021-1.51-3.322-5.09l1.478-7.977h-2.842l0.509-2.557h2.813
	l0.912-4.893l3.303-0.707l-1.078,5.6h3.88L686.444,444.025z"/>
<path fill="#123E8C" d="M696.181,443.629c-2.176,0-3.633,1.998-4.234,4.355c4.113-0.165,6.052-1.017,6.052-2.789
	C697.999,444.19,697.301,443.629,696.181,443.629 M691.559,450.279c-0.072,0.392-0.117,1.073-0.117,1.529
	c0,2.115,0.747,2.677,3.016,2.677c1.413,0,2.964-0.339,4.304-0.899v2.579c-1.554,0.602-3.403,0.973-5.357,0.973
	c-3.638,0-5.22-1.651-5.22-5.111c0-6.152,3.521-10.875,8.353-10.875c3.447,0,4.639,1.801,4.639,3.625
	C701.179,448.232,697.757,450.052,691.559,450.279z"/>
<path fill="#123E8C" d="M723.936,456.823h-3.177l1.809-9.738c0.432-2.188,0.024-3.112-1.05-3.112c-2.011,0-5.119,4.627-5.979,9.196
	l-0.69,3.65h-3.142l1.817-9.737c0.415-2.188,0.053-3.113-1.074-3.113c-2.253,0-5.269,5.256-5.979,9.196l-0.67,3.649h-3.182
	l1.53-8.029c0.473-2.58,0.953-5.231,1.292-7.319h3.152c-0.186,0.974-0.613,2.648-1.554,5.467l0.072,0.032
	c1.389-3.044,3.593-5.847,6.58-5.847c1.89,0,3.044,1.079,3.044,3.024c0,0.803-0.218,1.558-0.601,2.87h0.048
	c1.389-3.092,3.617-5.895,6.608-5.895c2.749,0,3.682,2.08,3.109,5.188L723.936,456.823z"/>
<path fill="#123E8C" d="M738.365,443.997c-0.666-0.242-1.421-0.335-2.152-0.335c-1.776,0-2.685,0.8-2.685,1.966
	c0,2.192,4.264,2.972,4.264,6.371c0,2.563-2.205,5.135-6.649,5.135c-1.005,0-1.816-0.093-2.588-0.246l0.558-2.851
	c0.759,0.247,1.578,0.396,2.39,0.396c1.792,0,2.963-0.707,2.963-2.096c0-2.265-4.234-2.696-4.234-6.375
	c0-2.676,2.087-4.815,6.173-4.815c1.001,0,1.816,0.096,2.563,0.246L738.365,443.997z"/>
<path fill="#123E8C" d="M424.812,439.747c-1.579-0.732-3.448-1.123-5.083-1.123c-5.446,0-9.108,4.671-9.108,10.146
	c0,2.704,1.445,5.381,5.466,5.381c1.308,0,2.394-0.222,3.459-0.537l1.425-7.541h3.206l-1.841,9.851
	c-2.12,0.803-4.663,1.219-6.807,1.219c-5.789,0-8.421-3.335-8.421-7.98c0-7.788,5.539-13.48,12.983-13.48
	c1.999,0,3.968,0.291,5.697,0.832L424.812,439.747z"/>
<path fill="#123E8C" d="M434.743,443.629c-2.18,0-3.638,1.998-4.235,4.355c4.113-0.165,6.043-1.017,6.043-2.789
	C436.552,444.19,435.853,443.629,434.743,443.629 M430.109,450.279c-0.061,0.392-0.129,1.073-0.129,1.529
	c0,2.115,0.763,2.677,3.028,2.677c1.421,0,2.967-0.339,4.304-0.899v2.579c-1.546,0.602-3.399,0.973-5.361,0.973
	c-3.633,0-5.208-1.651-5.208-5.111c0-6.152,3.509-10.875,8.353-10.875c3.447,0,4.626,1.801,4.626,3.625
	C439.729,448.232,436.31,450.052,430.109,450.279z"/>
<path fill="#123E8C" d="M453.56,456.823h-3.181l1.853-9.738c0.42-2.188,0.02-3.112-1.163-3.112c-2.414,0-5.381,5.495-6.043,9.196
	l-0.67,3.65h-3.177l1.518-8.03c0.48-2.579,0.969-5.261,1.304-7.319h3.145c-0.178,0.949-0.573,2.58-1.542,5.466l0.064,0.033
	c1.421-3.044,3.658-5.846,6.686-5.846c2.834,0,3.742,2.079,3.169,5.188L453.56,456.823z"/>
<path fill="#123E8C" d="M466.244,443.629c-2.18,0-3.633,1.998-4.239,4.355c4.118-0.165,6.043-1.017,6.043-2.789
	C468.049,444.19,467.354,443.629,466.244,443.629 M461.614,450.279c-0.061,0.392-0.122,1.073-0.122,1.529
	c0,2.115,0.755,2.677,3.016,2.677c1.425,0,2.971-0.339,4.307-0.899v2.579c-1.542,0.602-3.399,0.973-5.361,0.973
	c-3.634,0-5.204-1.651-5.204-5.111c0-6.152,3.508-10.875,8.349-10.875c3.448,0,4.63,1.801,4.63,3.625
	C471.234,448.232,467.81,450.052,461.614,450.279z"/>
<path fill="#123E8C" d="M483.304,444.339c-2.515-0.755-5.325,4.381-6.201,9.072l-0.634,3.411h-3.181l1.506-8.029
	c0.4-2.165,0.912-5.035,1.304-7.32h3.088c-0.206,1.264-0.602,2.777-1.425,5.185l0.06,0.023c1.676-3.505,3.396-5.987,6.153-5.526
	L483.304,444.339z"/>
<path fill="#123E8C" d="M493.531,443.787c-4.021,0-5.716,4.47-5.716,8.021c0,1.777,0.508,2.512,1.36,2.512
	c2.535,0,5.418-5.648,6.08-9.152l0.21-1.118C494.919,443.9,494.285,443.787,493.531,443.787 M496.284,456.823h-3.149
	c0.274-1.265,0.787-3.093,1.603-5.624l-0.061-0.024c-1.146,2.31-3.326,5.983-6.709,5.983c-2.212,0-3.423-1.481-3.423-4.771
	c0-5.713,2.935-11.167,9.535-11.167c1.749,0,3.448,0.146,4.994,0.461C497.584,449.5,496.917,453.024,496.284,456.823z"/>
<polygon fill="#123E8C" points="504.035,456.823 500.85,456.823 504.761,435.653 507.939,435.653 "/>
<polygon fill="#123E8C" points="526.553,456.823 516.465,456.823 520.429,435.587 523.659,435.587 520.256,453.879 527.123,453.879 
	"/>
<path fill="#123E8C" d="M537.833,443.972c-3.088,0-5.046,3.602-5.046,7.13c0,2.019,0.775,3.185,2.806,3.185
	c2.85,0,5.115-3.152,5.115-7.169C540.703,445.067,539.831,443.972,537.833,443.972 M535.14,457.137c-3.96,0-5.696-2.019-5.696-5.498
	c0-6.277,3.997-10.488,8.877-10.488c4.114,0,5.741,2.309,5.741,5.6C544.066,453.048,539.735,457.137,535.14,457.137z"/>
<path fill="#123E8C" d="M555.418,443.787c-4.033,0-5.72,4.47-5.72,8.021c0,1.777,0.517,2.512,1.349,2.512
	c2.555,0,5.426-5.648,6.096-9.152l0.214-1.118C556.807,443.9,556.169,443.787,555.418,443.787 M557.857,458.038
	c-0.714,3.916-3.145,6.597-8.946,6.597c-1.695,0-3.064-0.251-4.21-0.609l0.767-3.117c1.175,0.59,2.693,0.904,4.045,0.904
	c3.004,0,4.756-1.188,5.357-4.332c0.396-2.11,0.755-3.282,1.696-6.177h-0.061c-1.09,2.192-3.27,5.866-6.665,5.866
	c-2.201,0-3.424-1.481-3.424-4.771c0-5.713,2.972-11.167,9.536-11.167c1.76,0,3.46,0.146,4.989,0.461L557.857,458.038z"/>
<path fill="#123E8C" d="M567.82,439.184c-1.146,0-1.97-0.924-1.934-1.994c0.024-1.219,1.054-2.139,2.2-2.139
	c1.126,0,1.938,0.88,1.918,1.941C569.972,438.26,568.938,439.184,567.82,439.184 M565.85,456.823h-3.169l2.871-15.354h3.185
	L565.85,456.823z"/>
<path fill="#123E8C" d="M580.323,443.997c-0.67-0.242-1.434-0.335-2.152-0.335c-1.78,0-2.688,0.8-2.688,1.966
	c0,2.192,4.268,2.972,4.268,6.371c0,2.563-2.212,5.135-6.657,5.135c-1.006,0-1.821-0.093-2.576-0.246l0.541-2.851
	c0.767,0.247,1.579,0.396,2.39,0.396c1.784,0,2.971-0.707,2.971-2.096c0-2.265-4.238-2.696-4.238-6.375
	c0-2.676,2.083-4.815,6.172-4.815c0.998,0,1.809,0.096,2.576,0.246L580.323,443.997z"/>
<path fill="#123E8C" d="M593.181,444.025h-3.831l-1.414,7.537c-0.383,2.144-0.072,2.725,1.293,2.725
	c0.807,0,1.408-0.093,1.985-0.218l-0.246,2.697c-0.933,0.197-2.055,0.322-2.943,0.322c-3.133,0-4.021-1.51-3.322-5.09l1.486-7.977
	h-2.851l0.529-2.557h2.793l0.908-4.893l3.307-0.707l-1.058,5.6h3.879L593.181,444.025z"/>
<path fill="#123E8C" d="M599.996,439.184c-1.143,0-1.982-0.924-1.935-1.994c0.024-1.219,1.059-2.139,2.204-2.139
	c1.123,0,1.938,0.88,1.91,1.941C602.127,438.26,601.122,439.184,599.996,439.184 M598.009,456.823h-3.16l2.874-15.354h3.186
	L598.009,456.823z"/>
<path fill="#123E8C" d="M614.404,444.489c-0.743-0.342-1.583-0.564-2.588-0.564c-3.517,0-5.095,4.017-5.095,7.25
	c0,1.563,0.524,3.017,2.891,3.017c1.086,0,2.228-0.247,3.136-0.683l-0.237,2.918c-1.063,0.367-2.395,0.662-3.808,0.662
	c-3.968,0-5.385-2.119-5.385-5.183c0-5.866,3.302-10.723,8.712-10.723c1.175,0,2.155,0.165,3.112,0.427L614.404,444.489z"/>
<path fill="#123E8C" d="M625.436,443.997c-0.674-0.242-1.416-0.335-2.14-0.335c-1.788,0-2.7,0.8-2.7,1.966
	c0,2.192,4.264,2.972,4.264,6.371c0,2.563-2.205,5.135-6.649,5.135c-1.005,0-1.821-0.093-2.567-0.246l0.532-2.851
	c0.763,0.247,1.583,0.396,2.394,0.396c1.789,0,2.968-0.707,2.968-2.096c0-2.265-4.238-2.696-4.238-6.375
	c0-2.676,2.082-4.815,6.172-4.815c1.005,0,1.816,0.096,2.58,0.246L625.436,443.997z"/>
<path fill="#123E8C" d="M647.68,438.934c-1.005-0.339-2.059-0.504-2.842-0.504c-2.874,0-4.098,1.578-4.098,3.111
	c0,3.501,6.08,3.606,6.08,8.571c0,3.956-3.399,7.024-8.252,7.024c-1.175,0-2.511-0.093-3.496-0.416l0.598-3.189
	c0.863,0.392,2.083,0.659,3.137,0.659c2.919,0,4.518-1.39,4.518-3.525c0-3.334-6.031-3.358-6.031-8.34
	c0-3.605,2.66-6.669,7.755-6.669c1.078,0,2.06,0.076,3.205,0.27L647.68,438.934z"/>
<path fill="#123E8C" d="M652.803,461.804c-1.893,1.873-3.807,2.802-5.644,2.802c-0.747,0-1.563-0.097-2.18-0.25l0.549-2.903
	c0.577,0.206,1.224,0.303,1.841,0.303c1.029,0,2.18-0.562,3.117-1.537c1.069-1.115,1.55-2.411,1.55-4.474
	c0-4.211-0.908-9.272-2.249-14.279h3.541c0.956,3.698,1.651,8.296,1.651,11.578c0,0.461-0.093,1.095-0.194,1.607h0.024
	c2.225-4.037,4.158-8.276,6.366-13.818l3.056,0.875C660.07,451.562,656.481,458.066,652.803,461.804"/>
<path fill="#123E8C" d="M673.574,443.997c-0.657-0.242-1.417-0.335-2.139-0.335c-1.785,0-2.701,0.8-2.701,1.966
	c0,2.192,4.259,2.972,4.259,6.371c0,2.563-2.2,5.135-6.648,5.135c-1.002,0-1.817-0.093-2.563-0.246l0.532-2.851
	c0.759,0.247,1.583,0.396,2.398,0.396c1.784,0,2.963-0.707,2.963-2.096c0-2.265-4.243-2.696-4.243-6.375
	c0-2.676,2.088-4.815,6.177-4.815c1.001,0,1.817,0.096,2.58,0.246L673.574,443.997z"/>
<path fill="#123E8C" d="M686.444,444.025h-3.852l-1.389,7.537c-0.387,2.144-0.097,2.725,1.268,2.725c0.809,0,1.43-0.093,2.011-0.218
	l-0.246,2.697c-0.956,0.197-2.059,0.322-2.943,0.322c-3.156,0-4.021-1.51-3.322-5.09l1.478-7.977h-2.842l0.509-2.557h2.813
	l0.912-4.893l3.303-0.707l-1.078,5.6h3.88L686.444,444.025z"/>
<path fill="#123E8C" d="M696.181,443.629c-2.176,0-3.633,1.998-4.234,4.355c4.113-0.165,6.052-1.017,6.052-2.789
	C697.999,444.19,697.301,443.629,696.181,443.629 M691.559,450.279c-0.072,0.392-0.117,1.073-0.117,1.529
	c0,2.115,0.747,2.677,3.016,2.677c1.413,0,2.964-0.339,4.304-0.899v2.579c-1.554,0.602-3.403,0.973-5.357,0.973
	c-3.638,0-5.22-1.651-5.22-5.111c0-6.152,3.521-10.875,8.353-10.875c3.447,0,4.639,1.801,4.639,3.625
	C701.179,448.232,697.757,450.052,691.559,450.279z"/>
<path fill="#123E8C" d="M723.936,456.823h-3.177l1.809-9.738c0.432-2.188,0.024-3.112-1.05-3.112c-2.011,0-5.119,4.627-5.979,9.196
	l-0.69,3.65h-3.142l1.817-9.737c0.415-2.188,0.053-3.113-1.074-3.113c-2.253,0-5.269,5.256-5.979,9.196l-0.67,3.649h-3.182
	l1.53-8.029c0.473-2.58,0.953-5.231,1.292-7.319h3.152c-0.186,0.974-0.613,2.648-1.554,5.467l0.072,0.032
	c1.389-3.044,3.593-5.847,6.58-5.847c1.89,0,3.044,1.079,3.044,3.024c0,0.803-0.218,1.558-0.601,2.87h0.048
	c1.389-3.092,3.617-5.895,6.608-5.895c2.749,0,3.682,2.08,3.109,5.188L723.936,456.823z"/>
<path fill="#123E8C" d="M738.365,443.997c-0.666-0.242-1.421-0.335-2.152-0.335c-1.776,0-2.685,0.8-2.685,1.966
	c0,2.192,4.264,2.972,4.264,6.371c0,2.563-2.205,5.135-6.649,5.135c-1.005,0-1.816-0.093-2.588-0.246l0.558-2.851
	c0.759,0.247,1.578,0.396,2.39,0.396c1.792,0,2.963-0.707,2.963-2.096c0-2.265-4.234-2.696-4.234-6.375
	c0-2.676,2.087-4.815,6.173-4.815c1.001,0,1.816,0.096,2.563,0.246L738.365,443.997z"/>
</svg>
