<?xml version="1.0" encoding="UTF-8" standalone="no"?>
<!DOCTYPE svg PUBLIC "-//W3C//DTD SVG 1.1//EN" "http://www.w3.org/Graphics/SVG/1.1/DTD/svg11.dtd">
<svg width="100%" height="100%" viewBox="0 0 400 216" version="1.1" xmlns="http://www.w3.org/2000/svg" xmlns:xlink="http://www.w3.org/1999/xlink" xml:space="preserve" xmlns:serif="http://www.serif.com/" style="fill-rule:evenodd;clip-rule:evenodd;stroke-linejoin:round;stroke-miterlimit:2;">
    <g transform="matrix(4.56567,0,0,4.56567,26.5927,61.7996)">
        <path d="M31,13.7C30.965,13.701 30.93,13.701 30.895,13.701C28.81,13.701 27.095,11.986 27.095,9.901C27.095,9.834 27.096,9.767 27.1,9.7C27.099,9.666 27.099,9.632 27.099,9.599C27.099,7.459 28.859,5.699 30.999,5.699C31.032,5.699 31.066,5.699 31.1,5.7C32.285,5.675 33.409,6.237 34.1,7.2L33.2,8C32.718,7.318 31.935,6.908 31.1,6.9C29.709,6.949 28.592,8.107 28.592,9.498C28.592,9.566 28.595,9.633 28.6,9.7C28.595,9.767 28.592,9.834 28.592,9.902C28.592,11.348 29.755,12.55 31.2,12.6C31.884,12.631 32.558,12.418 33.1,12L33.1,10.7L31.2,10.7L31.2,9.5L34.4,9.5L34.4,12.5C33.43,13.264 32.234,13.686 31,13.7ZM48.7,13.5L48.7,10.4C48.7,9.7 48.3,9.2 47.7,9.2C47.1,9.2 46.6,9.7 46.6,10.5L46.6,13.5L45.3,13.5L45.3,10.4C45.3,9.6 44.9,9.2 44.3,9.2C43.7,9.2 43.2,9.7 43.2,10.6L43.2,13.5L41.9,13.5L41.9,8.2L43.1,8.2L43.1,9L43.2,8.9C43.546,8.412 44.102,8.116 44.7,8.1C45.316,8.03 45.915,8.35 46.2,8.9L46.3,9L46.4,8.9C46.721,8.385 47.294,8.08 47.9,8.1C47.934,8.098 47.968,8.097 48.003,8.097C49.1,8.097 50.003,9 50.003,10.097C50.003,10.132 50.002,10.166 50,10.2L50,13.5L48.7,13.5ZM53.9,13.7C53.867,13.701 53.833,13.702 53.8,13.702C52.264,13.702 51,12.438 51,10.902C51,10.901 51,10.901 51,10.9C50.999,10.864 50.998,10.828 50.998,10.792C50.998,9.311 52.217,8.092 53.698,8.092C53.765,8.092 53.833,8.095 53.9,8.1C53.933,8.099 53.967,8.098 54,8.098C55.536,8.098 56.8,9.362 56.8,10.898L56.8,10.902C56.8,12.438 55.536,13.702 54,13.702C53.967,13.702 53.933,13.701 53.9,13.7ZM53.9,9.1C53.005,9.151 52.297,9.901 52.297,10.797C52.297,10.832 52.298,10.866 52.3,10.9C52.3,11.778 53.022,12.5 53.9,12.5C54.778,12.5 55.5,11.778 55.5,10.9C55.4,9.9 54.8,9.1 53.9,9.1ZM73.4,13.7C71.864,13.7 70.6,12.436 70.6,10.9C70.6,9.364 71.864,8.1 73.4,8.1C73.433,8.099 73.467,8.098 73.5,8.098C75.036,8.098 76.3,9.362 76.3,10.898C76.3,10.899 76.3,10.899 76.3,10.9C76.301,10.936 76.302,10.972 76.302,11.008C76.302,12.489 75.083,13.708 73.602,13.708C73.535,13.708 73.467,13.705 73.4,13.7ZM73.4,9.1C72.505,9.151 71.797,9.901 71.797,10.797C71.797,10.832 71.798,10.866 71.8,10.9C71.8,11.778 72.522,12.5 73.4,12.5C74.278,12.5 75,11.778 75,10.9C75.002,10.866 75.003,10.832 75.003,10.797C75.003,9.901 74.295,9.151 73.4,9.1ZM61.6,13.5L61.6,10.5C61.603,10.467 61.604,10.433 61.604,10.4C61.604,9.742 61.062,9.2 60.404,9.2L60.385,9.2C59.671,9.2 59.085,9.787 59.085,10.5C59.085,10.567 59.09,10.634 59.1,10.7L59.1,13.5L57.8,13.5L57.8,8.2L59,8.2L59,9.2L59.1,8.9C59.428,8.331 60.043,7.985 60.7,8C60.734,7.998 60.768,7.997 60.803,7.997C61.9,7.997 62.803,8.9 62.803,9.997C62.803,10.032 62.802,10.066 62.8,10.1L62.8,13.4C62.405,13.479 62.002,13.512 61.6,13.5ZM66.5,13.7C66.497,13.7 66.495,13.7 66.492,13.7C65.066,13.7 63.892,12.526 63.892,11.1C63.892,11.033 63.895,10.967 63.9,10.9C63.895,10.833 63.892,10.765 63.892,10.698C63.892,9.271 65.066,8.098 66.492,8.098C66.528,8.098 66.564,8.099 66.6,8.1C67.196,8.051 67.784,8.271 68.2,8.7L68.3,8.8L68.3,5.9L69.6,5.9L69.6,13.5L68.4,13.5L68.4,12.8L68.3,13C67.85,13.511 67.177,13.773 66.5,13.7ZM66.803,9.2L66.797,9.2C65.919,9.2 65.197,9.922 65.197,10.8C65.197,10.833 65.198,10.867 65.2,10.9C65.2,11.778 65.922,12.5 66.8,12.5C67.678,12.5 68.4,11.778 68.4,10.9C68.402,10.867 68.403,10.833 68.403,10.8C68.403,9.922 67.681,9.2 66.803,9.2ZM37.6,15.8C36.824,15.818 36.06,15.609 35.4,15.2L36,14.2C36.452,14.472 36.972,14.611 37.5,14.6C37.566,14.608 37.633,14.613 37.7,14.613C38.578,14.613 39.3,13.89 39.3,13.013C39.3,13.008 39.3,13.004 39.3,13L39.3,12.3L39.2,12.6C38.847,13.131 38.237,13.436 37.6,13.4C37.566,13.402 37.532,13.403 37.497,13.403C36.4,13.403 35.497,12.5 35.497,11.403C35.497,11.368 35.498,11.334 35.5,11.3L35.5,8.1L36.8,8.1L36.8,10.9C36.8,11.7 37.2,12.2 38,12.2C38.005,12.2 38.01,12.2 38.015,12.2C38.729,12.2 39.315,11.613 39.315,10.9C39.315,10.833 39.31,10.766 39.3,10.7L39.3,8.1L40.6,8.1L40.6,12.9C40.6,12.901 40.6,12.901 40.6,12.902C40.6,14.493 39.291,15.802 37.7,15.802C37.667,15.802 37.633,15.801 37.6,15.8ZM13.9,19.8C12.932,19.829 11.971,19.623 11.1,19.2C10.259,19.608 9.334,19.813 8.4,19.8C3.8,19.8 0,15.4 0,9.9C0,4.4 3.6,0 8.2,0C9.138,-0.058 10.074,0.15 10.9,0.6C11.737,0.181 12.664,-0.025 13.6,0C16.7,0 19.5,2.1 19.5,4.4C19.5,5.826 18.326,7 16.9,7C15.2,7 14.2,5.7 13.3,4.4C12.661,3.398 11.848,2.517 10.9,1.8C8.184,3.579 6.588,6.655 6.7,9.9C6.7,13.6 8.5,16.8 11.1,18.1C13.376,16.858 14.826,14.492 14.9,11.9L14.9,11.7C14.24,12.595 13.211,13.146 12.1,13.2C12.067,13.201 12.033,13.202 12,13.202C10.464,13.202 9.2,11.938 9.2,10.402C9.2,10.401 9.2,10.401 9.2,10.4C9.254,8.792 10.591,7.499 12.2,7.5C13.559,7.592 14.775,8.39 15.4,9.6C16.076,8.806 17.057,8.333 18.1,8.3C19.874,8.35 21.306,9.824 21.306,11.599C21.306,11.666 21.304,11.733 21.3,11.8C21.2,16 17.8,19.8 13.9,19.8ZM12.4,18.5C12.857,18.623 13.327,18.69 13.8,18.7C17.2,18.7 20.1,15.4 20.1,11.7C20.1,11 19.7,9.3 18,9.3C17.127,9.36 16.323,9.799 15.8,10.5C15.924,10.923 15.991,11.36 16,11.8C16.064,14.508 14.694,17.058 12.4,18.5ZM8.3,1.1C4.3,1.1 1.2,5 1.2,9.9C1.2,14.8 4.5,18.7 8.5,18.7C8.94,18.683 9.376,18.616 9.8,18.5C7.061,16.511 5.485,13.283 5.6,9.9C5.513,6.545 7.039,3.344 9.7,1.3C9.245,1.17 8.774,1.103 8.3,1.1ZM12.3,8.6C12.234,8.592 12.167,8.588 12.1,8.588C11.167,8.588 10.4,9.356 10.4,10.288L10.4,10.303C10.4,11.236 11.167,12.003 12.1,12.003C12.133,12.003 12.167,12.002 12.2,12C13.22,11.839 14.127,11.258 14.7,10.4C14.279,9.416 13.363,8.728 12.3,8.6ZM12.2,1.3C13.006,1.963 13.713,2.738 14.3,3.6C15.3,4.9 15.9,5.7 17,5.7C17.768,5.7 18.4,5.068 18.4,4.3C18.4,2.8 16.3,1.1 13.6,1.1C13.127,1.11 12.657,1.177 12.2,1.3Z" style="fill:rgb(255,127,102);fill-rule:nonzero;"/>
    </g>
</svg>
