<svg xmlns="http://www.w3.org/2000/svg" width="400" height="216" viewBox="0 92 400 216"><path fill="#0D4479" d="M80.473 161.736c-4.689 0-8.418 3.73-8.418 8.312 0 4.687 3.73 8.418 8.313 8.418a8.37 8.37 0 0 0 8.418-8.418c-.002-4.582-3.732-8.312-8.313-8.312m-6.286 72.88c0 1.6.212 1.814 1.811 1.814h9.59c1.493 0 1.705-.214 1.705-1.813v-47.521c0-1.6-.212-1.813-1.705-1.813H66.3c-1.49 0-1.704.213-1.704 1.813v5.967c0 1.596.215 1.81 1.704 1.81h7.887v39.744zm23.523-49.332c-1.6 0-1.812.105-1.812 1.704v6.073c0 1.493.212 1.705 1.811 1.705h7.033v27.17c0 5.01.32 6.929 1.49 9.484 2.024 4.369 6.501 6.818 12.574 6.818 3.941 0 8.525-.96 12.146-2.45 1.066-.425 1.493-.853 1.493-1.704 0-.213 0-.32-.107-.533l-.107-.532-1.705-7.245c-.212-.746-.53-1.064-1.065-1.064-.212 0-.533 0-.85.213-3.838 1.492-4.797 1.705-6.819 1.705-3.196 0-3.836-1.172-3.836-6.605v-25.255h10.23c1.171 0 1.6-.212 1.812-1.493l1.384-6.071c0-.214.107-.32.107-.426v-.427c0-.851-.32-1.065-1.705-1.065h-11.829v-14.597c0-1.281-.32-1.813-1.064-1.813-.109 0-.217.109-.534.109h-.32l-9.59 1.384c-1.493.212-1.705.426-1.705 1.81v13.108l-7.033-.002z"/><path fill="#C6C7C6" d="M158.917 192.956c5.22 0 7.244 3.197 7.46 11.828h-16.199c.961-8.525 3.304-11.828 8.74-11.828m18.86 21.417c1.917 0 2.341-.532 2.341-2.666 0-18.751-6.818-28.234-20.564-28.234-13.637 0-22.589 11.08-22.589 27.809 0 17.476 8.1 26.957 23.123 26.957 4.581 0 8.632-.744 12.896-2.343 4.261-1.6 5.753-2.557 5.753-3.836 0-.32-.106-.532-.32-1.173l-2.664-6.07c-.21-.645-.639-.961-1.172-.961-.318 0-.745.107-1.278.426-4.047 2.127-7.99 3.197-11.935 3.197-7.563 0-11.188-4.261-11.4-13.104l27.808-.002zm35.162-20.244c3.624 0 4.689 1.918 4.689 8.737v31.752c0 1.6.214 1.813 1.81 1.813h9.483c1.493 0 1.704-.216 1.704-1.813v-36.121c3.73-3.41 6.07-4.69 8.949-4.69 3.409 0 4.692 2.133 4.692 8.102v32.71c0 1.6.21 1.814 1.704 1.814h9.482c1.489 0 1.81-.215 1.81-1.813v-33.99c0-6.5-.425-8.95-1.917-11.936-1.6-3.303-5.223-5.22-9.91-5.22-5.752 0-10.017 1.918-15.877 7.247-2.345-4.902-5.967-7.246-11.4-7.246-5.647 0-9.696 2.023-15.344 7.246-.961-4.476-2.236-7.353-3.304-7.353-.214 0-.638 0-1.066.212l-8.416 2.77c-.854.321-1.171.638-1.171 1.172 0 .32.105.745.317 1.17 1.599 3.943 1.92 5.862 1.92 11.191v34.734c0 1.6.212 1.813 1.705 1.813h9.482c1.6 0 1.81-.215 1.81-1.813v-36.12c3.523-3.092 6.184-4.368 8.848-4.368m63.733-32.393c4.69 0 8.417 3.73 8.417 8.312 0 4.687-3.727 8.418-8.311 8.418a8.369 8.369 0 0 1-8.417-8.418c0-4.582 3.73-8.312 8.31-8.312m6.286 72.88c0 1.6-.213 1.814-1.81 1.814h-9.59c-1.491 0-1.704-.214-1.704-1.813v-47.521c0-1.6.213-1.813 1.705-1.813h19.288c1.485 0 1.703.213 1.703 1.813v5.967c0 1.596-.217 1.81-1.703 1.81h-7.89l.002 39.744zm15.023-2.769c0 .533.426.96 1.171 1.492 5.438 2.981 12.471 4.903 18.65 4.903 10.547 0 17.687-6.82 17.687-16.729 0-3.623-1.174-6.928-3.197-9.485-2.345-2.77-4.476-4.049-13.106-7.353-5.75-2.235-6.923-3.195-6.923-6.07 0-3.305 2.448-5.223 6.712-5.223 2.771 0 6.5.96 10.44 2.664.32.105.64.214.853.214.426 0 .64-.214.96-.959l2.662-5.86c.214-.535.32-.852.32-1.067 0-.533-.32-.85-.854-1.172-3.62-2.13-10.123-3.727-15.02-3.727-10.87 0-18.542 7.03-18.542 16.834 0 3.623 1.171 6.925 3.303 9.271 2.026 2.45 4.264 3.621 11.722 6.498 6.712 2.561 7.993 3.625 7.993 6.607 0 3.197-2.452 5.328-6.073 5.328-3.94 0-8.526-1.387-14.066-4.369-.319-.215-.745-.319-.957-.319-.428 0-.854.32-1.067.958l-2.344 6.287c-.217.745-.324.958-.324 1.277"/></svg>