<svg xmlns="http://www.w3.org/2000/svg" width="400" height="216"><path fill="#010202" d="M99.421 74.354H84.138c0 12.542-5.757 23.988-15.764 31.527l-6.031 4.524 23.439 31.938h19.259L83.453 112.94c10.212-10.143 15.968-23.85 15.968-38.586zm-54.624 0h15.626v67.989H44.797zm64.768 0H124.3v67.989h-14.735zm143.997 19.67c-5.62 0-10.966 1.714-14.529 6.58v-5.277h-13.981v47.017h14.187V117.67c0-7.128 4.799-10.623 10.555-10.623 6.169 0 9.732 3.7 9.732 10.555v24.811h14.05v-29.951c-.002-10.967-8.705-18.438-20.014-18.438zm-84.712 1.303v3.015c-3.975-2.741-8.773-4.318-13.982-4.318-13.707 0-24.811 11.103-24.811 24.811s11.104 24.811 24.811 24.811c5.209 0 10.007-1.576 13.982-4.317v3.016h14.05V95.327h-14.05zm-12.817 35.571c-7.059 0-12.748-5.416-12.748-12.063s5.688-12.063 12.748-12.063 12.748 5.415 12.748 12.063-5.688 12.063-12.748 12.063zm48.661-29.471v-6.1h-14.392v47.017h14.461v-21.933c0-7.402 8.019-11.377 13.569-11.377h.139V95.327c-5.689 0-10.966 2.467-13.777 6.1zm112.608-6.1v3.015c-3.975-2.741-8.772-4.318-13.981-4.318-13.707 0-24.812 11.103-24.812 24.811s11.104 24.811 24.812 24.811c5.209 0 10.007-1.576 13.981-4.317v3.016h14.05V95.327h-14.05zm-12.817 35.571c-7.06 0-12.748-5.416-12.748-12.063s5.688-12.063 12.748-12.063c7.059 0 12.747 5.415 12.747 12.063.07 6.647-5.688 12.063-12.747 12.063z"/><g fill="#010202"><path d="M342.249 96.697c0-.685-.479-1.096-1.233-1.096h-1.303v3.564h.617v-1.302h.686l.548 1.302h.686l-.617-1.439c.411-.206.616-.549.616-1.029zm-1.233.549h-.686V96.15h.686c.411 0 .616.206.616.548 0 .343-.137.548-.616.548z"/><path d="M340.81 94.093a3.363 3.363 0 0 0-3.358 3.358c.068 1.851 1.508 3.358 3.358 3.358s3.359-1.507 3.359-3.358-1.509-3.358-3.359-3.358zm0 6.1c-1.508 0-2.673-1.234-2.673-2.741 0-1.508 1.233-2.742 2.673-2.742 1.509 0 2.673 1.234 2.673 2.742-.001 1.507-1.234 2.741-2.673 2.741z"/></g><path fill="#010202" d="M346.362 125.688c-4.867 0-8.843 3.976-8.843 8.841 0 4.867 3.976 8.843 8.843 8.843 4.865 0 8.841-3.976 8.841-8.843a8.82 8.82 0 0 0-8.841-8.841z"/></svg>