<?xml version="1.0" encoding="utf-8"?>
<!-- Generator: Adobe Illustrator 16.0.3, SVG Export Plug-In . SVG Version: 6.00 Build 0)  -->
<!DOCTYPE svg PUBLIC "-//W3C//DTD SVG 1.1//EN" "http://www.w3.org/Graphics/SVG/1.1/DTD/svg11.dtd">
<svg version="1.1" id="Ebene_1" xmlns="http://www.w3.org/2000/svg" xmlns:xlink="http://www.w3.org/1999/xlink" x="0px" y="0px"
	 width="400px" height="216px" viewBox="300 592 400 216" enable-background="new 300 592 400 216" xml:space="preserve">
<path id="Osram_Logo" fill="#EA5B0B" d="M364.089,742.631c-20.675,0-34.458-15.203-34.458-37.298
	c0-21.892,14.797-37.499,34.458-37.499c20.271,0,34.459,15,34.459,37.499C398.549,727.428,384.968,742.631,364.089,742.631
	 M364.089,682.833c-12.364,0-17.635,11.554-17.635,22.5c0,10.946,5.676,22.298,17.635,22.298c11.959,0,17.433-11.352,17.433-22.298
	C381.522,694.185,376.454,682.833,364.089,682.833 M460.98,719.928c0.203,13.784-12.973,22.905-28.784,22.905
	c-31.418,0-29.189-23.311-29.391-25.338h16.621c-0.608,7.298,6.689,11.352,13.581,11.149c4.865,0,10.946-1.014,11.757-7.501
	c1.622-12.973-40.945-3.648-40.945-30.81c0-14.392,14.391-22.297,28.377-22.297c19.865,0,28.784,11.756,28.784,24.324h-17.026
	c0,0,0.811-10.135-11.96-10.135c-5.067,0-10.54,2.027-11.148,6.689C418.818,701.279,460.575,692.158,460.98,719.928 M512.466,717.09
	l11.757,23.717h-18.041l-10.54-22.703h-10.743v22.703H468.48v-70.946h36.08c12.771,0,22.298,10.54,22.298,24.324
	C526.656,705.131,521.79,712.631,512.466,717.09 M502.128,684.861h-17.229v19.053h16.621c4.864,0,8.311-4.662,8.311-9.527
	C510.033,690.131,506.992,684.861,502.128,684.861 M580.37,740.807l-4.257-12.162h-27.77l-4.257,12.162h-17.635l25.742-70.946
	h20.067l25.743,70.946H580.37z M571.046,713.847l-8.919-25.945l-8.919,25.945H571.046z M652.532,740.807V702.9l-17.027,27.973
	L618.479,702.9v37.906H600.64v-70.946h17.839l17.026,28.783l17.027-28.783h17.837v70.946H652.532z"/>
</svg>
