<svg xmlns:svg="http://www.w3.org/2000/svg" xmlns="http://www.w3.org/2000/svg" version="1.0" width="400" height="216" style=""><rect id="backgroundrect" width="100%" height="100%" x="0" y="0" fill="none" stroke="none" class="" style=""/>
  <defs id="defs7219"/>
  
<g class="currentLayer" style=""><title>Layer 1</title><g id="layer1" class="">
    <g id="g7654">
      <path d="M130.89107195174867,118.1577261826155 C130.32232947787938,124.46632906030791 136.78598903526142,127.9308845032646 142.57757360733876,127.82746512302455 C146.8693889501917,127.72404160617475 152.14385593802,127.00010180788456 152.81609638771454,121.36373110666716 C154.16053592100604,110.09098556762252 117.60163401988873,118.20943794104042 117.3431372769105,94.73316830418088 C117.23963930108519,82.27110196068041 129.75346290571775,75.0834322826426 141.90533315764415,75.44541045500716 C159.17634070146616,75.96250321959774 166.15728330748698,85.63223802339702 166.15728330748698,96.59471714850197 L152.04035796219475,96.59471714850197 C152.04035796219475,96.59471714850197 153.3331726058661,88.21772666600832 141.6467123163735,87.85576504008269 C137.25135763159784,87.7523415232329 132.5457572159312,89.51048339714316 131.97705610815933,93.54384749972502 C130.52907723294513,104.1443649989044 166.57086154981337,96.2844672810013 166.82948239108407,120.2778296824514 C166.93285626861694,132.17109150293635 155.91859506272144,140.2378197081001 142.2155788885351,140.03098922083944 C115.01625292913083,139.66901104847489 116.61918920540074,119.81243212984671 116.51581532786794,118.1577261826155 L130.89107195174867,118.1577261826155 " style="fill: rgb(240, 70, 28); fill-rule: evenodd; stroke: none;" id="path115"/>
      <path d="M331.7837868519071,103.78238682653978 L331.7837868519071,137.75575458233865 L346.57278718250416,137.75575458233865 L346.5210381945914,77.04840050720375 L331.6286639864617,77.04840050720375 L316.4259199491486,101.97254974064363 L302.1540372028007,77.04840050720375 L286.48592456915117,77.04840050720375 L286.48592456915117,137.70404282391374 L301.74041759437694,137.70404282391374 L301.74041759437694,104.76488128034474 L316.6327918025068,128.8099554402197 L331.7837868519071,103.78238682653978 " style="fill: rgb(240, 70, 28); fill-rule: evenodd; stroke: none;" id="path119"/>
      <path d="M261.8721451648946,77.04840050720375 L283.952127001916,137.70404282391374 L268.80113195251556,137.70404282391374 L265.2333060472696,127.10352532473436 L241.34335061623045,127.10352532473436 L237.67181990467205,137.70404282391374 L222.4174923438361,137.70404282391374 L244.54934726706256,77.04840050720375 L261.8721451648946,77.04840050720375 zM253.33993253832156,92.35452669526921 L245.5834169711709,114.38290432571917 L260.94128387392936,114.38290432571917 L253.33993253832156,92.1993914199945 L253.33993253832156,92.35452669526921 " style="fill: rgb(240, 70, 28); fill-rule: evenodd; stroke: none;" id="path123"/>
      <path d="M196.45910794189817,118.3128614578902 L187.254778963923,118.3128614578902 L187.254778963923,137.70404282391374 L173.086270095108,137.70404282391374 L173.086270095108,77.10011226562864 L204.11220826541864,77.10011226562864 C215.28159233675967,77.10011226562864 223.9688037304858,86.66644009901715 223.29656328079133,98.40457078083713 C222.83123605055235,107.19523464768132 219.00458247354848,113.71067628585388 210.93786254160423,117.38207876251016 L221.07301144444713,137.70404282391374 L205.5084381527203,137.70404282391374 L196.45910794189817,118.3128614578902 zM187.04790711056495,89.92415678149368 L201.47507818674814,89.92415678149368 C205.71514454168852,89.92415678149368 208.55918783981463,93.69897863839002 208.76605969317268,97.93918563806176 C208.9729315465308,101.66228332670396 206.07713926049215,106.21275674031534 201.8886564290745,106.21275674031534 L187.04790711056495,106.21275674031534 L187.04790711056495,89.92415678149368 " style="fill: rgb(240, 70, 28); fill-rule: evenodd; stroke: none;" id="path132"/>
      <path d="M83.21470043159286,140.54808198543003 C101.36482027846743,140.65150550227983 113.46490017638378,126.17274262935433 113.05115646966765,108.2811484817263 C113.8785197848076,89.09679760296343 100.74420471839312,75.91079146117283 83.21470043159286,75.96250321959774 C66.1503992767392,75.96250321959774 53.3262885751182,89.35535225847822 53.42982791704084,108.2811484817263 C53.22295606368277,126.94839418606944 65.3230359615992,141.16859826687036 83.21470043159286,140.54808198543003 zM83.21470043159286,88.73483597703782 C93.91855044220765,88.57970070176314 98.41727900451613,98.35285902241223 98.3656954809934,108.22943672330143 C97.74503855482165,117.27865524566036 93.60834607741413,127.25865646339935 83.16295144368027,127.36207998024912 C72.87263830929435,127.36207998024912 68.11528890571518,117.69232863001085 67.96020740636715,108.2811484817263 C68.11528890571518,98.81824416518764 72.5106435904908,88.57970070176314 83.21470043159286,88.73483597703782 " style="fill: rgb(240, 70, 28); fill-rule: evenodd; stroke: none;" id="path141"/>
    </g>
  </g></g></svg>