<svg xmlns="http://www.w3.org/2000/svg" width="400" height="216" viewBox="0 92 400 216"><path fill="#9EA2A2" d="M63.14 194.127c-.537-.562-.91-1.958-1.014-2.171-1.17.899 0 2.569 1.015 2.17m.945-.268c1.227-.473.71-2.828-.922-2.49.098.193.84 1.64.922 2.49m-1.393-2.988c1.186-.241 2.61.957 3.984 1.594-1.29 1.877-4.315 2.023-5.527 2.692-.274-.416-1.188-3.751 1.543-4.286m-10.615 1.183c-.085.204-.465 1.567-.984 2.124.984.388 2.144-1.244.984-2.124m-1.006-.571c-1.594-.331-2.1 1.966-.9 2.429.076-.834.805-2.245.9-2.43m1.94 3.694c-1.178-.65-4.11-.791-5.37-2.616 1.34-.615 2.727-1.79 3.888-1.55 2.644.52 1.754 3.755 1.483 4.166m-7.533-20.767c-4.116 7.737 10.094 4.22 8.252 10.807 3.227-7.7-9.702-3.698-8.252-10.807m-2.5-7.96c-.757-2.56-4.952-1.421-4.103-.396.4.478 2.037-.951 4.103.396m-1.812 8.982c.18-2.436 1.736-4.585 1.714-7.065-.026-3.646-4.211-.2-4.848-1.734-1.675-4.07 10.69-6.12 10.549 1.085-.083 3.793-1.134 7.987 1.835 8.42l2.249-9.183 2.363 13.18c-2.154-2.712-6.415-1.592-7.371-5.935-.701-3.152 3.25-11.071-5.46-10.49 10.083 3.069-5.612 11.616 3.71 17.075 2.496 1.468 3.373 4.068 2.253 5.19-.148-3.7-3.825-4.162-5.175-5.731-1.204-1.41-1.704-2.668-1.818-3.855l-3.47-1.655 3.469.698zm11.813 13.365c-1.394-.01-3.003 1.546-3.298.539-.221-.783 1.21-2.08 3.08-2.213-1.581-.443-4.192 1.022-4.664 2.62-.501.048-1.372-.601-1.372-.601.432 3.668 3.85.445 5.153.445 1.167 0 4.83 2.642 4.9-.641-1.284 1.498-2.186-.15-3.8-.15m7.002 1.723c1.854 0 2.129-.866 3.538-.866 1.402 0 1.915.92 3.044.92 1.118 0 1.8-.81 1.284-1.517-.723 1.193-2.022-.424-2.977-.424-1.461 0-2.085.602-3.036 1.074-1.065.543-2.087.026-1.688-.601-.825-.008-1.348-1.016.055-2.206-2.475.275-2.082 3.62-.22 3.62m1.972 13.125c-.073.183-.614.4-1.716.819-.151.247-.49.657-.83.856 1.314.367 2.778-.963 2.546-1.675m-1.288 4.66c2.228 3.946-2.21 5.28-.846 11.38.932 4.132 3.017 3.753 3.202 6.812.2 3.052-1.654 5.154-.302 7.184 1.334 2.013 3.982 2.908 3.129 5.48 1.377-2.53-1.245-4.53-1.932-7.306-.517-2.134 2.707-4.034 1.788-6.813-.38-1.137-.827-1.853-1.581-3.37l-1.582-3.187c-1.91-4.037 1.914-6.941-1.876-10.18m-7.835 21.576c2.826-3.537 1.013-1.802 2.03-6.565.629-2.943 1.523-2.844 2.475-5.25.824-2.095.424-6.755-2.83-8.982 1.752 3.025 1.644 5.15.914 7.662-.726 2.499-1.756 2.762-2.86 5.602-.825 2.143-.396 4.256-.396 4.256l.667 3.277zm-1.988 1.507c0-3.1-.95-2.892-.95-6.651 0-4.098 3.5-5.201 3.795-8.427.404-4.35-3.913-4.471-2.527-10.56-1.834 8.053.767 7.414.767 10.293 0 2.878-4.582 3.234-4.582 8.287 0 2.977 1.829 3.8 1.829 6.967 0 3.177-2.057 4.04-2.057 4.04.773.085 3.725-.492 3.725-3.95m.963-28.944c.067.53 2.395 1.418 2.395 1.418s-.573.44-1.772.01c.619 1.065 2.15 1.05 2.15 1.05s-.114.629-1.791.182c.406 1.19 2.188 1.48 2.755 1.313.607-.185 1.31-2.088 1.039-2.674-.001 0-2.452-1.157-4.776-1.3m1.065-1.747c.065 1.365 2.049 1.736 2.863 1.624-2.494-.568-2.35-1.954-1.493-2.236.039-.562-1.415-.462-1.37.612m1.305 6.532c-.283 0-.343.097-.343.15-.017.102.13.229.34.285.016.002 1.976.465 3.14.404 1.154.06 3.119-.402 3.138-.404.21-.056.35-.183.342-.285-.011-.055-.07-.15-.355-.15-.051 0-2.066.057-3.125.057-1.063-.001-3.073-.057-3.137-.057m-10.598 3.759c-.13-3.691 2.196-8.453 3.19-8.985-7.283 3.896-4.12 10.399-6.17 14.143-3.163 5.747-8.735 2.6-10.588 6.08-1.155 2.159 1.937 2.267 1.937 6.91 0-1.126-.4-3.836 1.717-4.978l-.97.09c-.303-1.094-1.404-.748-1.404-.748 1.115-1.881 5.457-.581 11.58-5.793 5.42-4.606 5.06-11.924 6.596-14.703l-1.462 1.466c-2.162 2.319-2.248 6.1-4.981 10.485.522-.842.627-1.99.555-3.967m-13.01 16.1c-.325 2.027-1.225 1.557-1.382 1.472-.157-.087-.222-.31-.101-.462.14-.17.16-.4-.035-.563-.197-.165-1.656.264-1.385 1.7.125.708.837 1.43 1.947 1.293 1.093-.137 2.152-1.118.956-3.44m11.21-22.876c-1.24 1.968-3.328 3.8-5.948 3.202-2.618-.604-6.642-1.46-7.825 2.466 3.043-3.375 8.966 4.663 13.774-5.668m-18.104 7.46c1.474 1.114 3.45-.705 2.516-2.531-3.508 1.933-4.674-2.24-6.933.498.852-.234 1.71.258 3.2 1.374l1.217.659zm14.072-7.46c2.55-.151 4.528-.923 4.654-2.825-.616.706-2.112 1.667-4.744 1.828-2.611.162-6.91-3.05-8.556 1.682 3.71-2.06 7.162 2.519 9.652.319m-1.384-7.624c-3.623.678-8.867-4.042-9.848-5.183-.59-.688-1.148-1.377-2.282-1.544-.07-.015-.052.08-.04.197.013.16.04.399-.06.446-.063.037-.226.006-.63-.341-.405-.357-1.035-.523-1.753-.465-.625.047-1.264.267-1.68.578-.422.312-.57.66-.422.98.216.5.922.118 1.727.062.65-.037 1.39.27 2.047.48.525.16.89.742 1.424 1.32 2.668 2.892 7.92 4.974 11.517 3.47m-18.403-2.162s3.222-3.074 5.98-.325c-2.258-2.247-5.028-2.806-5.98.325m14.416-15.096c-5.708-.974-4.307-4.215-3.28-5.994-3.423-.268-3.6 7.513 3.28 5.994m49.07 18.573c1.318.095 5.412-4.652 4.002-5.213-1.403-.573-1.303 4.176-4.001 5.213m-21.1 3.638c-.397.287-1.361.564-2.113 1.065-.08.133-.206.588-.37.699.768.159 2.422-.946 2.484-1.764m-16.858-13.562c-6.442 1.06-2.74-6.691-7.704-7.024 2.726 1.3 1.587 2.999 2.004 5.695.505 3.249 4.56 3.66 5.7 1.329m23.01 6.756c.162.952 1.844-1.03 5.068.347-1.101-1.602-5.31-1.757-5.068-.347m9.573-11.205c1.559-.402 2.523.965 3.738.603.679-.195.695-.964.155-1.165 0 0 2.059-2.121 1.372-3.308-1.693 3.434-4.938 3.309-5.265 3.87m-5.273-6.727c1.738-2.54 3.333-2.107 4.162-4.808-1.168 2.154-4.155 2.603-5.352 4.375-2.088 3.096.7 7.583-3.685 8.88 5.527.14 2.878-6.241 4.875-8.447m-5.03 2.746c-.752 2.03-2.85 2.6-3.864 4.375.569.016 3.535-1.134 4.66-3.023 1.08-1.83.084-6.708 3.563-8.014 3.63-1.365 7.433-3.375 3.139-7.75 6.585 1.67 2.883 8.673 2.102 9.7-.741.953-3.166 2.867-3.166 5.95 0 2.275-2.055 4.877-3.655 5.193 1.69.678 4.21-3.177 4.21-3.177l8.216-10.58-4.726 2.432s1.296-1.113 1.296-4.81c0-5.221-5.631-6.158-5.571-4.536.04 1.075 1.912 1.837 1.967 3.616.058 1.778-2.442 2.783-4.394 3.347l-.868-2.92v3.285c-3.19 1.643-2.113 4.77-2.908 6.912M69.04 193.4c.334.728 1.698-.892 3.75-.268-.991-.676-3.928-.67-3.75.268m-9.162-22.74c1.994 6.434-2.633 6.424-2.62 9.597-.813-3.72 3.664-6.141 2.62-9.596m.035 13.225c-3.245 1.474-2.571-2.372-1.68-3.367 0 0 1.548 2.163 3.719 3.06-2.896-4.781.37-4.66-.167-10.941-.271-3.174-1.965-4.224-1.92-7.136.062-3.506 5.239-4.428 5.294-3.074.035.965-3.77 1.069-3.83 4.692-.05 3.392 3.754 4.212 3.664 7.508-.06 2.157-3.945 4.148-1.522 8.205l5.515-15.508-4.222 4.76c-1.354-1.68-2.422-1.838-2.422-4.854 0-3.027 3.38-3.46 3.38-4.863 0-1.132-1.692-1.294-2.925-1.353-1.913-.083-5.291 1.562-5.291 5.074 0 3.515 2.378 5.293.016 8.584l-2.046-3.073 1.515 3.933s-1.382 1.61-1.382 4.474c.003 5.622 4.629 6.139 4.304 3.879m29.468 39.886l-.81-.828c1.122.222 2.482-.668 3.295-1.15-1.518.897-3.49.356-4.85-.728l.725 1.16c-3.61-.96-3.213-6.78-5.356-8.652-1.84-1.614-3.917-.738-6.708-2.88-2.758-2.112-3.896-7.7-9.004-11.147 6.946-1.964 9.227 10.587 15.877 10.587 3.315 0 5.07-2.8 8.06-3.268 2.097-.328 4.386-.142 4.744 1.742.372 1.983-.368 3.545-.368 3.545s1.012-1.076 1.012-3.002c0-3.788-3.795-3.743-5.085-3.64-2.938.239-3.652 2.128-7.317 1.287-4.667-1.078-5.594-9.185-11.026-9.691 2.834-2.36 5.556 1.91 8.119 1.875 1.862-.033 2.489-1.537 3.712-4.541 1.41-3.471 3.379-.638 4.947.823 1.585 1.45 3.903.896 5.256-.281-.363 1.119-1.612 1.095-1.125 1.833.215.329.542.175.892-.138 1.779-1.644 2.202-5.961.289-6.995 1.46 6.86-4.597 5.252-4.43 4.332 1.124.377 3.033-.756 2.248-.756-5.275 0-4.468-2.55-7.348-2.282 0 0-2.4-.108-3.837 3.747-.921 2.468-3.397-.957-6.323 0 1.96-2.597 3.434-.421 5.044-1.502 1.61-1.094 3.476-4.465 7.296-2.776l2.038-1.786-1.358 2.224c3.969 2.609 6.272 2.365 5.884-2.546 5.134 2.992 2.303 9.877-1.584 9.83-2.296-.02-3.08-1.183-4.4-1.698-.934-.35-1.682.366-2.557 1.286l3.686 1.446-4.468-.646c-1.356 1.334-3.375 2.51-6.222 1.238l.558 1.046H94.59l-10.747 4.787c2.872.594 6.41-2.93 10.464-.492 3.909 2.346 2.144 7.682.512 7.672-1.461-.017 1.333-4.798-2.66-4.698-1.466.035-2.64 1.236-4.064 2.364l1.313 3.253-2.157-2.632c-1.157.83-2.398 1.458-3.803 1.273l7.429 4.383h-5.063c-.06 1.239.056 2.108.559 3.18l.51-.211c.393.815 2.677 2.183 5.886 1.633-1.193 4.614-7.878 3.315-9.15 2.022l.069 1.662c-2.925-7.206-5.173-7.636-9.527-7.636l10.128 10.226-2.418-.51c.73 2.87-2.71 7.874-5.17 8.156-.961.109 1.738-1.893 1.738-4.75 0-2.871-3.2-3.741-4.558-4.862-2.481-2.057-3.485-6.246-4.446-7.864 1.745.909 3.812 4.299 5.326 6.028 1.524 1.724 4.747 2.993 4.747 5.694 0 2.693-1.008 3.642-1.126 3.97 1.01 0 4.17-5.527 1.182-8.171a125.16 125.16 0 0 0-3.942-3.407c-2.001-1.663-3.888-3.865-5.204-5.808-2.803-4.113-7.276-7.055-5.174-10.388-3.246 5.146 2.684 9.016 3.36 13.05.68 4.032 2.855 8.35 5.177 8.928a4.334 4.334 0 0 1-1.152.152l-.657-.06c-3.764-.722-6.912-13.064-6.912-11.301 0 3.239 5.649 17.977 5.649 17.977l-5.13-3.263c-.831 3.375 2.875 3.535 2.52 6.597-.416 3.467-4.44 3.147-4.363 2.355.048-.5 1.59.022 1.59-.797 0-.798-2.49-1.291-3.54-2.516-.646-.756-1.206-1.368-1.43-4.248l-1.57 2.068s1.9-4.947 2.175-6.243c.26-1.274-2.712-1.426-3.583-3.961l-.585 12.602-3.795-5.143c-.724 5.647-8.698 5.27-9.21 4.683 5.794-4.29 2.992-6.216 1.55-9.866l-3.062 1.827 2.665-3.015c-.176-.671-.231-1.534-.168-2.34.328-4.461 6.828-4.058 2.926-8.47l-10.503 16.85 1.329-9.07c-6.23 2.23-4.07 2.552-5.852 6.62-1.456 3.32-4.422 2.422-5.313 1.007-1.317-2.048.289-3.596 2.01-3.517 1.038-.855-1.953-2.19-.756-4.888 1.745-3.93 6.663-2.224 9.159-5.492l-6.146.648 6.865-1.903c.487-1.123.776-2.647.79-4.718l-13.06 7.194 3.977-6.547c-7.292 6.022-9.052-1.53-12.527-.933.897-4.034 4.278-1.731 5.77-1.731 1.5 0 3.68-2.665 4.439-3.247l-7.81-4.166h19.466c1.463 0 2.284-.501 1.574-1.334-.923-1.108-4.521.205-8.59.507-2.477.172-3.97-.778-5.196-1.906l-3.426 1.039 2.902-1.54c-1.998-1.981-3.524-4.012-8.233-1.161-1.461-3.782 2.058-7.014 5.218-7.095 4.494-.116 5.368 5.15 8.849 3.312l-5.96-6.918 9.674 4.755-1.238-3.664-4.166-1.091 4.056.332c-1.128-3.778-5.375-3.107-7.115-4.95-3.776-4.007.309-9.127 3.397-7.694-2.13 4.545 1.805 6.483 5.065 5.838l-1.578-5.291 12.493 12.638c-2.863 2.162-6.048.25-7.624-4.433-1.512-4.482-4.593.572-9.325-1.172 2.502.924 5.762-.411 6.434 4.99.44 3.527 2.195 6.754 6.027 5.877-1.49 2.225-5.06-.537-7.321 2.676 3.938-.437 5.369 2.847 8.097 4.72-3.372-2.326-.935-4.737-5.094-5.282 1.51.197 2.679.342 4.137-.14 1.51-.492 2.255-1.516 2.147-3.004 1.567.625 1.71 2.11.984 3.074-.73.965-2.184 1.503-2.224 2.333 0 0 .043-.15 1.048-.637-.755 1.008-.264 2.385.566 3.283-.043-.6-.042-1.536.31-1.71.633 1.458 2.055 2.228 2.974 2.009-1.671-1.767-.52-3.274-.52-3.274-.727-.02-1.468 1.026-1.468 1.026s-.501-1.667 1.258-2.37c-.14-.248-.021-.54-.021-.54 1.43 1.453 3.976 1.379 4.689 1.856 0 0-3.721-.53-3.273 1.508.417 1.914 6.215.638 5.483-5.218 0 0 1.005-.104 1.373.262.376.352-.074 1.43-.074 1.43l.74.339s-.785 2.928-.604 3.494c.107.322 1.428.348 1.636.356.29.02.11.302-.016.302h-2.086c-.307.022-1.226 1.114-.354 1.308 0 0 1.077.273 2.17.273 1.095 0 2.168-.273 2.168-.273s-.178.87-2.193.87c-2.005 0-2.8-.343-2.8-.343-.467 1.254 2.186 2.518 2.452 2.6.276.087.704.06.794 0 .089-.067 1.929-1.524 1.929-1.524l-.556.892c2.467-.572 2.1-1.813 1.25-2.093-.034-.561 1.415-.461 1.37.612-.06 1.365-3.558 2.125-3.992 3.047-.281.586.432 2.489 1.033 2.674.574.169 1.936.149 2.624-.225.207-.111 2.07-3.6 2.07-4.46 0-.856-1.917-5.075-1.917-5.075.366-1.088 2.004-.805 3.498-1.765-2.434 2.525-.782 2.848 1.005 2.929-1.354 1.139-2.295 1.883-1.76 3.643 7.872 1.725 6.308 10.833 12.004 12.77-4.528.683-8.19-5.047-8.61-7.674-.17 2.8.854 5.288 3.002 7.543 1.867 1.948 5.108 1.646 7.739 1.653 4.668.044 3.087 6.048 6.99 7.404 0 .002 1.4.618 3.949.618m-5.25-39.164c.73 4.645-8.991 2.904-10.146 6.667 1.866-6.071 9.182-2.204 10.147-6.667m-8.784 8.615c.99-2.876 5.45-2.806 7.357-4.07 1.335-.881 2.63-1.782 2.69-6 .053-3.61 1.747-4.563 2.758-4.886 0-1.031-1.558-.338-2.853.725 1.864-4.631 5.82-.75 5.82-.75-2.341-4.054-5.646-2.173-6.852-.173-1.2 2.019-.308 6.575-2.784 7.703-2.464 1.135-3.77-.943-5.498-.447-2.53.725-2.593 4.067-5.127 2.983 1.94-1.24 1.854-2.41 3.15-3.821 2.7-2.953 7.13.287 8.109-8.067l.444 1.584c4.67-6.28 10.058-.778 9.266.937-6.471-1.186-5.115 3.947-5.736 7.402h4.723l-15.467 6.88z"/><path fill="#D62130" d="M340.7 165.952c3.448 0 5.914 2.464 5.914 5.832 0 3.37-2.466 5.832-5.914 5.832-3.45 0-5.913-2.462-5.913-5.832 0-3.368 2.463-5.832 5.913-5.832m-5.502 17.415h10.922v37.782h-10.922v-37.782zm-47.083-17.415c3.451 0 5.915 2.464 5.915 5.832 0 3.37-2.464 5.832-5.915 5.832-3.449 0-5.912-2.462-5.912-5.832 0-3.368 2.463-5.832 5.912-5.832m-5.5 17.415h10.924v37.782h-10.925v-37.782zm-44.717 36.285c7.558 0 8.873-10.266 8.873-18.972 0-9.694-2.876-16.428-8.296-16.428-3.532 0-6.819 2.795-7.394 8.212v19.878c0 3.696 3.121 7.31 6.817 7.31m2.136 2.301c-4.354 0-7.394-1.97-8.953-4.517v3.698h-10.925v-59.959h10.925v25.628c1.646-2.878 5.34-4.685 10.102-4.685 10.104 0 16.922 6.98 16.922 18.396 0 13.062-7.229 21.44-18.07 21.44m23.821-.82h10.923v-59.959h-10.923v59.96zm-62.353-.002h10.924v-37.779h-10.924v27.76c0 4.105-4.023 7.72-8.049 7.72-4.189 0-6.49-2.874-6.49-8.706 0-6.485 4.687-26.772 4.687-26.772h-10.923s-4.602 20.287-4.602 26.445c0 7.39 5.257 12.154 13.062 12.154 6.077 0 10.347-2.789 12.316-6.159v5.337zm-52.726.837c13.552 0 22.833-9.692 22.833-23.654 0-16.51-13.716-28.172-28.83-28.172-16.426 0-28.339 11.577-28.339 27.76 0 5.995 1.563 11.501 4.437 16.265l1.641-.825c-1.97-3.614-3.285-8.788-3.285-13.552 0-13.717 9.857-21.437 22.26-21.437 12.236 0 21.436 8.542 21.436 21.273 0 11.748-6.486 20.207-16.917 20.207V190.94l-10.924-.009v47.705h10.924v-16.913c1.48.164 2.956.246 4.764.246m170.098-39.837c-12.318 0-19.136 8.708-19.136 19.878 0 12.318 6.98 19.958 19.218 19.958 7.558 0 10.925-3.532 10.925-3.532l-1.315-1.233s-2.958 2.3-6.899 2.3c-7.64 0-10.186-7.962-10.186-17.575 0-11.086 2.63-17.497 9.445-17.497 3.862 0 6.41 1.89 6.41 1.89l1.315-1.395c.001 0-3.207-2.794-9.777-2.794m49.114-13.799c6.735 0 10.353 3.123 10.353 3.123l-1.482 1.232s-2.788-2.382-7.966-2.382c-3.776 0-6.405 2.627-6.405 6.323 0 4.683 4.515 8.953 9.855 14.456 4.685 4.847 9.694 10.35 9.694 17.002 0 8.623-7.72 13.882-17.495 13.882-4.718 0-8.072-1.166-11.06-3.647l1.313-1.56c2.134 1.89 5.394 3.233 9.336 3.233 4.926 0 8.626-2.543 8.626-6.817 0-4.516-4.932-9.77-9.696-14.7-5.418-5.668-10.678-11.418-10.678-17.659 0-7.637 6.325-12.486 15.605-12.486m-68.979 69.676c1.81 0 2.996-.97 2.996-2.404v-.031c0-1.561-1.17-2.371-2.935-2.371h-2.762v4.807h2.701zm-3.934-5.946h4.09c2.466 0 4.088 1.309 4.088 3.464v.033c0 2.355-1.967 3.57-4.292 3.57h-2.652v3.855h-1.233v-10.922zm10.354 0h1.233v10.924h-1.233v-10.924zm13.033 0l-4.027 5.353 4.183 5.57h-1.467l-3.495-4.712-3.497 4.712h-1.419l4.184-5.57-4.026-5.353h1.45l3.34 4.493 3.34-4.493h1.434zm2.205 0h7.896v1.123H321.9v3.73h5.962v1.123H321.9v3.823h6.744v1.123h-7.975v-10.922zm10.218 0h1.231v9.783h6.15v1.14h-7.382v-10.923zm13.369 5.946c1.81 0 2.996-.97 2.996-2.404v-.031c0-1.561-1.17-2.371-2.934-2.371h-2.763v4.807h2.7zm-3.934-5.946h4.089c2.467 0 4.089 1.309 4.089 3.464v.033c0 2.355-1.966 3.57-4.291 3.57h-2.653v3.855h-1.234v-10.922zm16.365 6.913l-2.482-5.557-2.495 5.557h4.977zm-3.043-6.991h1.154l4.978 11h-1.327l-1.279-2.885h-5.946l-1.295 2.886h-1.263l4.978-11.001zm12.725 5.649c1.64 0 2.81-.843 2.81-2.249v-.028c0-1.344-1.031-2.153-2.794-2.153h-3.372v4.432l3.356-.002zm-4.588-5.57h4.697c1.343 0 2.419.404 3.105 1.091.53.53.843 1.296.843 2.152v.031c0 1.81-1.248 2.872-2.965 3.184l3.354 4.464H369.3l-3.166-4.243h-3.123v4.243h-1.231v-10.923zm11.25-.001h1.234v6.523l6.272-6.523h1.593l-4.682 4.773 4.884 6.15h-1.544l-4.198-5.289-2.325 2.355v2.933h-1.233v-10.922z"/></svg>