<svg xmlns="http://www.w3.org/2000/svg" width="400" height="216" viewBox="0 92 400 216"><path fill="#FFCC0F" d="M4.652 228.558h389.907v-10.262H4.652"/><path fill="#1B171B" d="M377.893 206.486c0 2.045-.358 2.465-2.348 3.776l.094.433h11.063l.112-.433c-1.94-1.313-2.373-1.73-2.373-3.776v-31.118c6.45 0 7.816 1.366 10.49 4.503l.418-.208-2.045-7.34H369.04l-1.98 7.34.42.208c2.614-3.137 3.98-4.503 10.41-4.503m-22.933-3.927c-6.301 0-11.85 3.666-11.85 10.424 0 6.354 4.02 9.556 8.053 12.217l2.948 1.934 2.596 1.928c1.522 1.367 2.54 2.91 2.54 4.937 0 3.661-2.562 5.981-5.56 5.981-5.296 0-8.688-2.942-9.367-7.877l-.477-.203-2.047 7.55s5.766 3.295 11.89 3.295c6.607 0 12.013-3.72 12.013-10.472 0-6.602-4.04-9.64-8.077-12.124l-2.98-1.798-2.575-1.902c-1.504-1.364-2.51-2.973-2.51-5.188 0-3.57 1.837-5.98 5.403-5.98 5.335 0 7.439 2.882 8.157 7.705l.426.21 2.046-7.327c-.001-.002-4.923-3.31-10.63-3.31zm-30.92 3.36c5.349 0 9.165 5.712 9.165 16.661 0 11.364-3.301 16.771-9.164 16.771-5.354 0-9.063-5.674-9.063-16.77-.003-11.159 3.2-16.662 9.063-16.662zm0-3.046c-9.431 0-16.292 7.961-16.292 19.706 0 11.686 6.805 19.802 16.293 19.802 9.433 0 16.354-7.868 16.354-19.594-.002-11.743-6.871-19.914-16.354-19.914zm-35.745 23.712h-1.477v-20.116h2.635c6.24 0 8.594 3.53 8.594 10.405 0 8.116-3.81 9.711-9.752 9.711zm1.426-23.144h-11.365l-.111.432c1.688 1.307 2.047 1.726 2.047 3.776v29.953c0 2.047-.358 2.465-2.047 3.777l.11.432H289.4l.11-.432c-2.261-1.313-2.674-1.73-2.674-3.777v-8.005h1.456c10.342 0 16.98-3.719 16.98-13.052.002-7.966-4.612-13.104-15.553-13.104zm-49.043 38.372h18.973l3.147-7.302-.377-.248c-2.654 3.19-5.544 4.497-9.902 4.497l-3.34-.359v-15.555h1.727c4.019 0 6.072.15 8.273.83l.358-.11 1.157-4.289-.36-.11c-2.201.68-4.254.738-8.271.738h-2.883V175.47l2.196-.1c6.607 0 7.953 1.366 10.476 4.504l.359-.208-1.993-7.34h-19.541l-.092.431c1.673 1.307 2.024 1.726 2.024 3.776v29.952c0 2.047-.354 2.467-2.024 3.778l.093.433zm-11.798-4.209c0 2.045-.358 2.465-2.024 3.776l.092.433h10.28l.15-.433c-1.687-1.313-2.104-1.73-2.104-3.776v-29.954c0-2.052.418-2.47 2.104-3.776l-.15-.433h-10.28l-.092.433c1.666 1.307 2.024 1.726 2.024 3.776v11.836h-12.554v-11.836c0-2.052.41-2.47 2.077-3.776l-.144-.433h-10.32l-.118.433c1.687 1.307 2.053 1.726 2.053 3.776v29.954c0 2.045-.366 2.465-2.053 3.776l.119.433h10.319l.144-.433c-1.666-1.313-2.077-1.73-2.077-3.776V191.76h12.554v14.727zm-41.454-15.235c0-10.849 3.516-16.562 9.489-16.562 3.889 0 5.672 3.412 5.98 8.234l.47.15 2.355-8.438c-2.412-1.83-5.184-2.883-8.484-2.883-10.02 0-17.182 7.751-17.182 18.908 0 12.162 6.39 20.601 16.77 20.601 3.98 0 6.962-1.726 9.368-4.188l-1.662-3.302h-.425c-1.777 2.884-3.62 4.46-6.98 4.46-5.917.001-9.7-5.973-9.7-16.98zm-20.582-19.81c-6.274 0-11.835 3.666-11.835 10.424 0 6.354 4.02 9.556 8.045 12.217l2.935 1.934 2.609 1.928c1.507 1.367 2.54 2.91 2.54 4.937 0 3.661-2.562 5.981-5.541 5.981-5.294 0-8.706-2.942-9.393-7.877l-.47-.203-2.04 7.55s5.772 3.295 11.902 3.295c6.6 0 11.985-3.72 11.985-10.472 0-6.602-4.038-9.64-8.076-12.124l-2.962-1.798-2.581-1.902c-1.498-1.364-2.504-2.973-2.504-5.188 0-3.57 1.823-5.98 5.385-5.98 5.354 0 7.438 2.882 8.184 7.705l.412.21 2.052-7.327c-.001-.002-4.935-3.31-10.647-3.31zm-24.568 35.045c0 2.045-.38 2.465-2.104 3.776l.11.433h10.32l.099-.433c-1.674-1.313-2.085-1.73-2.085-3.776v-29.954c0-2.052.412-2.47 2.046-3.776l-.11-.433h-10.208l-.111.433c1.667 1.307 2.046 1.726 2.046 3.776v29.954h-.003zm-13.312 4.21h5.195v-34.164c0-2.052.359-2.47 2.354-3.776l-.151-.433h-7.875l-.1.433c2.145 1.307 2.505 1.726 2.505 3.776v23.145l-15.28-27.354h-7.974l-.092.432c1.935 1.307 2.346 1.726 2.346 3.776v29.953c0 2.047-.413 2.465-2.346 3.777l.092.432h7.854l.118-.432c-2.111-1.313-2.522-1.73-2.522-3.777v-23.769l15.876 27.98zm-33.072-4.21c0 2.045-.36 2.465-2.084 3.776l.117.433h10.32l.092-.433c-1.674-1.313-2.085-1.73-2.085-3.776v-29.954c0-2.052.41-2.47 2.025-3.776l-.091-.433h-10.23l-.092.433c1.667 1.307 2.026 1.726 2.026 3.776v29.954h.002zm-26.762 4.21h18.965l3.15-7.303-.358-.248c-2.682 3.19-5.563 4.497-9.91 4.497l-3.353-.359v-15.555h1.732c4.033 0 6.065.15 8.26.83l.388-.11 1.157-4.289-.386-.11c-2.19.68-4.25.738-8.27.738H77.62V175.47l2.196-.1c6.607 0 7.974 1.366 10.478 4.504l.378-.208-1.993-7.34H69.125l-.1.431c1.674 1.307 2.052 1.726 2.052 3.776v29.952c0 2.047-.378 2.467-2.052 3.778l.103.433zm-11.785-4.21c0 2.045-.38 2.465-2.052 3.776l.116.433h10.269l.144-.433c-1.667-1.313-2.08-1.73-2.08-3.776v-29.954c0-2.052.413-2.47 2.08-3.776l-.144-.433h-10.27l-.115.432c1.673 1.307 2.052 1.726 2.052 3.776v11.836H44.768v-11.836c0-2.052.412-2.47 2.084-3.776l-.15-.433H36.385l-.1.432c1.667 1.307 2.027 1.726 2.027 3.776v29.952c0 2.047-.36 2.467-2.027 3.778l.1.431h10.319l.15-.43c-1.673-1.314-2.084-1.732-2.084-3.779v-14.724h12.575l-.001 14.728zm-40.771-11.458l-3.222-.176V175.35h2.065c6.45 0 9.58 3.208 9.58 9.72.002 7.117-3.454 9.96-8.423 9.96zm0-22.705H4.892l-.117.432c1.688 1.308 2.052 1.726 2.052 3.777v29.954c0 2.045-.364 2.465-2.052 3.776l.118.433h10.463l.118-.433c-1.687-1.313-2.104-1.73-2.104-3.776v-8.366h2.942l8.058 12.575h8.96l.11-.432c-1.992-1.313-2.828-2.09-4.044-3.777l-6.653-9.372c4.727-1.573 9.483-5.294 9.483-12.26 0-7.753-5.026-12.53-15.654-12.53z"/></svg>