<?xml version="1.0" encoding="utf-8"?>
<!-- Generator: Adobe Illustrator 16.0.3, SVG Export Plug-In . SVG Version: 6.00 Build 0)  -->
<!DOCTYPE svg PUBLIC "-//W3C//DTD SVG 1.1//EN" "http://www.w3.org/Graphics/SVG/1.1/DTD/svg11.dtd">
<svg version="1.1" id="Layer_1" xmlns="http://www.w3.org/2000/svg" xmlns:xlink="http://www.w3.org/1999/xlink" x="0px" y="0px"
	 width="400px" height="216px" viewBox="371.18 288.85 400 216" enable-background="new 371.18 288.85 400 216"
	 xml:space="preserve">
<path fill="#2D3239" d="M404.841,410.203l-3.484-10.74h-2.322v10.74h-4.354v-26.707h6.967c4.064,0,6.676,1.452,6.676,5.516v4.935
	c0,2.613-1.161,4.064-2.903,4.935l3.774,11.32H404.841z M399.034,395.689h2.322c1.452,0,2.323-0.581,2.323-2.322v-3.484
	c0-1.742-0.871-2.322-2.323-2.322h-2.322V395.689z M427.484,383.206h0.291c4.064,0,6.677,1.452,6.677,5.516v15.965
	c0,4.065-2.613,5.516-6.677,5.516h-0.291c-4.064,0-6.677-1.45-6.677-5.516v-15.965C420.807,384.658,423.42,383.206,427.484,383.206z
	 M427.774,406.72c1.452,0,2.322-0.58,2.322-2.322v-14.805c0-1.742-0.871-2.323-2.322-2.323s-2.322,0.581-2.322,2.323v14.515
	C425.161,406.14,426.323,406.72,427.774,406.72z M460.868,404.979c0,4.063-2.613,5.516-6.677,5.516l0,0
	c-4.064,0-6.677-1.452-6.677-5.516v-16.257c0-4.064,2.612-5.516,6.677-5.516l0,0c4.064,0,6.677,1.742,6.677,5.516v4.935h-4.355
	v-4.064c0-1.742-0.87-2.323-2.322-2.323c-1.452,0-2.322,0.581-2.322,2.323v14.515c0,1.741,0.87,2.322,2.322,2.322
	c1.452,0,2.322-0.581,2.322-2.322v-4.937h4.355V404.979z M483.51,410.203l-3.773-11.61l-2.032,4.063v7.547h-4.354v-26.707h4.354
	v11.902l4.935-11.902h4.645l-5.225,10.161l5.516,16.838 M499.187,410.203v-26.707h11.612v4.064h-7.257v7.257h6.096v4.064h-6.096
	v7.548h7.257v4.064L499.187,410.203 M535.183,387.27h-4.354v22.933h-4.645V387.27h-4.355v-4.064h13.354 M565.665,410.203v-26.707
	h4.354v26.707 M583.373,410.203v-26.707h4.354l5.516,16.547v-16.547h4.064v26.707h-4.354l-5.806-17.417v17.417 M622.272,387.27
	h-4.354v22.933h-4.354V387.27h-4.645v-4.064h13.354V387.27L622.272,387.27z M633.885,410.203v-26.707h11.612v4.064h-7.258v7.257
	h6.096v4.064h-6.096v7.548h7.258v4.064L633.885,410.203 M668.139,410.203l-3.483-10.74h-2.322v10.74h-4.355v-26.707h6.968
	c4.063,0,6.677,1.452,6.677,5.516v4.935c0,2.613-1.161,4.064-2.903,4.935l3.774,11.32H668.139z M662.624,395.689h2.322
	c1.451,0,2.322-0.581,2.322-2.322v-3.484c0-1.742-0.871-2.322-2.322-2.322h-2.322V395.689z M684.686,410.203v-26.707h4.354
	l5.516,16.547v-16.547h4.064v26.707h-4.354l-5.807-17.417v17.417 M711.684,410.203v-26.707h11.611v4.064h-7.257v7.257h6.096v4.064
	h-6.096v7.548h7.257v4.064L711.684,410.203 M747.68,387.27h-4.645v22.933h-4.354V387.27h-4.354v-4.064h13.354"/>
</svg>
