<?xml version="1.0" encoding="UTF-8" standalone="no"?>
<!DOCTYPE svg PUBLIC "-//W3C//DTD SVG 1.1//EN" "http://www.w3.org/Graphics/SVG/1.1/DTD/svg11.dtd">
<svg width="100%" height="100%" viewBox="0 0 400 216" version="1.1" xmlns="http://www.w3.org/2000/svg" xmlns:xlink="http://www.w3.org/1999/xlink" xml:space="preserve" xmlns:serif="http://www.serif.com/" style="fill-rule:evenodd;clip-rule:evenodd;stroke-linejoin:round;stroke-miterlimit:2;">
    <g transform="matrix(0.789407,0,0,0.789407,42.1186,22.744)">
        <g transform="matrix(0.669489,0,0,0.669489,152.214,70.4665)">
            <path d="M0,0C10.082,7.225 16.683,18.114 19.25,30.25C21.916,46.778 19.207,62.257 10.125,76.5C3.509,85.388 -5.869,91.233 -16.75,93.25C-31.353,94.838 -40.853,92.173 -52.75,83.25C-53.08,100.74 -53.41,118.23 -53.75,136.25L-85.75,136.25L-85.75,-4.75L-55.75,-4.75C-55.42,-1.45 -55.09,1.85 -54.75,5.25C-53.018,3.641 -53.018,3.641 -51.25,2C-36.773,-10.681 -15.86,-9.707 0,0ZM-50.75,28.25C-54.901,34.514 -55.653,40.882 -54.75,48.25C-53.194,54.842 -50.187,59.459 -44.688,63.5C-38.899,66.949 -33.329,66.73 -26.75,66.25C-20.626,64.134 -16.606,60.12 -13.5,54.5C-10.481,47.959 -10.083,41.409 -11.895,34.453C-14.367,28.086 -18.782,23.493 -24.75,20.25C-34.368,16.403 -44.288,20.94 -50.75,28.25Z" style="fill:rgb(22,35,55);fill-rule:nonzero;"/>
        </g>
        <g transform="matrix(0.669489,0,0,0.669489,299.669,35.151)">
            <path d="M0,0L33,0C33.33,27.39 33.66,54.78 34,83C41.956,73.491 41.956,73.491 49.688,63.813C50.108,63.274 50.529,62.736 50.963,62.182C51.392,61.633 51.82,61.085 52.262,60.52C52.713,59.972 53.165,59.424 53.63,58.86C55.095,56.985 55.095,56.985 56.188,54.592C57.877,51.592 59.145,49.965 62,48C68.472,46.477 75.354,47.158 81.938,47.438C83.784,47.483 85.631,47.524 87.479,47.561C91.988,47.659 96.493,47.814 101,48C99.731,50.734 98.376,52.923 96.383,55.18C95.864,55.772 95.346,56.364 94.811,56.974C94.255,57.601 93.698,58.229 93.125,58.875C91.946,60.22 90.768,61.565 89.59,62.91C88.992,63.591 88.393,64.272 87.777,64.973C85.062,68.07 82.37,71.187 79.688,74.313C79.196,74.885 78.704,75.458 78.197,76.049C74.015,80.941 69.969,85.934 66,91C68.569,95.686 71.296,99.861 74.625,104.063C78.591,109.123 82.385,114.275 86.086,119.533C88.431,122.848 90.829,126.111 93.297,129.336C93.85,130.061 94.403,130.785 94.973,131.532C96.057,132.946 97.146,134.355 98.242,135.759C98.977,136.719 98.977,136.719 99.727,137.699C100.385,138.547 100.385,138.547 101.057,139.413C102,141 102,141 102,144C68.27,146.684 68.27,146.684 60.104,142.525C56.014,138.82 53.855,134.271 51.889,129.18C50.618,126.062 48.765,123.48 46.813,120.75C45.554,118.853 44.296,116.955 43,115C40.03,110.71 37.06,106.42 34,102C33.67,115.86 33.34,129.72 33,144L0,144L0,0Z" style="fill:rgb(22,35,55);fill-rule:nonzero;"/>
        </g>
        <g transform="matrix(0.669489,0,0,0.669489,226.527,71.0942)">
            <path d="M0,0C11.674,11.998 12.41,27.579 12.348,43.34C12.346,44.697 12.344,46.055 12.343,47.413C12.34,50.965 12.33,54.518 12.319,58.07C12.308,61.704 12.304,65.337 12.299,68.971C12.289,76.085 12.269,83.199 12.25,90.313L-16.75,90.313C-17.245,86.353 -17.245,86.353 -17.75,82.313C-18.637,83.22 -19.524,84.128 -20.438,85.063C-27.688,91.231 -37.467,93.018 -46.777,92.625C-56.469,91.606 -64.564,89.154 -71.75,82.313C-75.511,77.472 -78.485,72.551 -78.75,66.313C-78.799,65.637 -78.848,64.962 -78.898,64.266C-79.226,56.953 -77.728,50.477 -73.188,44.625C-61.448,32.256 -43.462,30.459 -27.313,29.75C-26.39,29.707 -25.468,29.664 -24.518,29.619C-22.262,29.514 -20.006,29.412 -17.75,29.313C-18.351,27.85 -18.964,26.393 -19.582,24.938C-20.092,23.719 -20.092,23.719 -20.613,22.477C-21.683,20.062 -21.683,20.062 -24.438,18.313C-33.785,15.491 -40.656,16.553 -49.75,20.313C-52.346,21.817 -54.44,23.379 -56.75,25.313C-59.789,23.966 -61.754,22.508 -63.984,20.055C-64.845,19.117 -64.845,19.117 -65.723,18.16C-66.309,17.509 -66.896,16.858 -67.5,16.188C-68.102,15.529 -68.704,14.87 -69.324,14.191C-70.805,12.57 -72.28,10.943 -73.75,9.313C-70.306,2.045 -63.041,-1.508 -55.863,-4.586C-36.798,-11.332 -17.238,-10.578 0,0ZM-30.75,49.125C-31.436,49.195 -32.122,49.266 -32.828,49.338C-38.615,50.028 -42.927,51.537 -47.125,55.625C-49.122,58.928 -49.461,60.518 -48.75,64.313C-45.694,68.029 -43.422,70.023 -38.551,70.551C-32.364,70.735 -27.851,69.938 -22.75,66.313C-18.354,61.916 -16.824,57.608 -16.625,51.438C-16.666,50.406 -16.708,49.375 -16.75,48.313C-21.469,48.217 -26.07,48.566 -30.75,49.125Z" style="fill:rgb(22,35,55);fill-rule:nonzero;"/>
        </g>
        <g transform="matrix(0.669489,0,0,0.669489,84.0936,73.9813)">
            <path d="M0,0C-1.647,4.272 -4.771,6.959 -8,10.063C-12.328,14.241 -12.328,14.241 -16,19C-19.168,18.376 -21.38,17.278 -24.063,15.5C-28.456,12.599 -31.666,11.862 -36.938,11.875C-37.978,11.872 -39.018,11.87 -40.09,11.867C-43.215,11.914 -43.215,11.914 -47,13L-47,22C-45.479,22.417 -43.958,22.834 -42.438,23.25C-41.438,23.526 -40.439,23.802 -39.41,24.086C-37.03,24.724 -34.641,25.331 -32.246,25.914C-21.609,28.555 -11.765,31.873 -4.813,40.813C-0.518,48.364 0.344,56.531 -1.723,64.941C-5.117,75.041 -10.576,80.309 -20,85C-34.39,91.282 -52.387,89.938 -66.813,84.75C-80.498,79.071 -80.498,79.071 -82.953,74.051C-83,72 -83,72 -81.594,70.141C-80.903,69.517 -80.212,68.893 -79.5,68.25C-75.896,64.892 -72.731,61.399 -69.641,57.566C-67.737,55.749 -66.62,55.188 -64,55C-62.562,56.17 -61.131,57.35 -59.75,58.586C-53.887,63.323 -47.867,64.443 -40.48,64.336C-37.849,63.98 -36.178,63.521 -34,62C-33.181,58.438 -33.181,58.438 -33,55C-38.093,51.071 -43.066,49.682 -49.25,48.125C-61.436,44.84 -70.211,41.092 -76.813,29.938C-79.639,22.654 -78.932,13.243 -76.098,6.059C-70.947,-3.602 -62.274,-8.335 -52.113,-11.441C-34.206,-16.175 -14.146,-11.801 0,0Z" style="fill:rgb(22,35,55);fill-rule:nonzero;"/>
        </g>
        <g transform="matrix(0.669489,0,0,0.669489,292.305,65.9475)">
            <path d="M0,0C-0.139,4.084 -0.287,8.167 -0.438,12.25C-0.477,13.409 -0.516,14.568 -0.557,15.762C-0.619,17.434 -0.619,17.434 -0.684,19.141C-0.72,20.167 -0.757,21.193 -0.795,22.251C-0.973,24.636 -1.328,26.713 -2,29C-3.286,28.948 -3.286,28.948 -4.598,28.895C-12.948,28.697 -17.756,29.203 -24.75,33.813C-30.041,38.957 -31.082,45.154 -31.205,52.249C-31.225,53.27 -31.245,54.291 -31.266,55.342C-31.291,56.977 -31.291,56.977 -31.316,58.645C-31.337,59.769 -31.358,60.894 -31.379,62.053C-31.445,65.64 -31.504,69.226 -31.563,72.813C-31.606,75.247 -31.649,77.681 -31.693,80.115C-31.801,86.077 -31.9,92.038 -32,98L-64,98L-64,2L-33,2C-32.67,5.63 -32.34,9.26 -32,13C-31.051,11.783 -30.103,10.566 -29.125,9.313C-20.749,-0.082 -11.985,-0.719 0,0Z" style="fill:rgb(22,35,55);fill-rule:nonzero;"/>
        </g>
        <g transform="matrix(0.669489,0,0,0.669489,222.008,152.981)">
            <path d="M0,0L9,0C11.168,5.585 12.997,11.174 14.625,16.938C15.643,21.852 15.643,21.852 18,26C20.64,17.42 23.28,8.84 26,0L36,0C37.341,3.935 38.671,7.873 40,11.813C40.382,12.932 40.763,14.052 41.156,15.205C41.517,16.278 41.878,17.351 42.25,18.457C42.585,19.447 42.92,20.437 43.266,21.456C44,24 44,24 44,27L46,27C46.227,25.701 46.454,24.401 46.688,23.063C48.236,15.231 50.681,7.63 53,0L63,0C60.702,8.894 57.844,17.526 54.813,26.188C54.344,27.534 53.876,28.881 53.408,30.229C52.276,33.487 51.139,36.744 50,40L40,40C37.03,31.42 34.06,22.84 31,14C28.409,22.181 28.409,22.181 25.824,30.365C25.502,31.378 25.18,32.39 24.848,33.434C24.518,34.476 24.188,35.518 23.848,36.592C23,39 23,39 22,40C20.314,40.072 18.625,40.084 16.938,40.063C16.018,40.053 15.099,40.044 14.152,40.035C13.442,40.024 12.732,40.012 12,40C10.283,34.949 8.575,29.895 6.873,24.839C6.293,23.119 5.711,21.401 5.127,19.683C4.287,17.212 3.455,14.739 2.625,12.266C2.231,11.115 2.231,11.115 1.83,9.942C0.655,6.419 0,3.753 0,0Z" style="fill:rgb(0,168,225);fill-rule:nonzero;"/>
        </g>
        <g transform="matrix(0.669489,0,0,0.669489,323.101,136.913)">
            <path d="M0,0L9,0C9.33,12.87 9.66,25.74 10,39C12.063,36.525 14.125,34.05 16.25,31.5C22.499,24.415 22.499,24.415 27.602,23.004C30.539,23.056 33.151,23.296 36,24C34.654,27.039 33.196,29.004 30.742,31.234C30.117,31.808 29.492,32.382 28.848,32.973C27.871,33.852 27.871,33.852 26.875,34.75C26.216,35.352 25.558,35.954 24.879,36.574C23.257,38.055 21.631,39.53 20,41C21.427,45.8 24.316,48.605 27.875,51.938C31.871,55.705 35.108,59.313 38,64C33.494,64.689 29.485,64.909 25,64C21.208,60.855 18.72,57.074 16,53C14.836,51.585 13.652,50.185 12.438,48.813C11.231,47.42 11.231,47.42 10,46C9.67,51.94 9.34,57.88 9,64L0,64L0,0Z" style="fill:rgb(0,168,225);fill-rule:nonzero;"/>
        </g>
        <g transform="matrix(0.669489,0,0,0.669489,194.601,153.441)">
            <path d="M0,0C5.286,4.162 7.588,7.678 8.938,14.313L8.938,22.313C-6.408,22.808 -6.408,22.808 -22.063,23.313C-18.971,29.766 -18.971,29.766 -13.063,32.313C-7.747,33.088 -5.296,31.417 -1.063,28.313C-0.073,27.983 0.918,27.653 1.938,27.313C4.625,29.25 4.625,29.25 6.938,31.313C5.443,35.117 3.243,36.974 -0.063,39.313C-6.203,41.359 -14.537,41.577 -20.688,39.371C-25.564,36.425 -28.944,32.773 -31.313,27.563C-33.156,19.573 -32.328,12.599 -27.996,5.586C-21.843,-2.658 -9.081,-4.825 0,0ZM-19.063,8.313C-21.766,11.493 -21.766,11.493 -23.063,15.313L-0.063,15.313C-2.066,8.865 -2.066,8.865 -7.063,5.313C-12.04,4.69 -15.146,5.137 -19.063,8.313Z" style="fill:rgb(0,168,225);fill-rule:nonzero;"/>
        </g>
        <g transform="matrix(0.669489,0,0,0.669489,289.376,153.441)">
            <path d="M0,0C5.388,3.285 8.735,8.236 10.375,14.313C11.33,21.253 10.393,27.48 6.375,33.313C-0.323,39.728 -5.971,40.669 -15.098,40.594C-21.068,40.118 -24.702,38.184 -28.938,34.063C-32.584,28.121 -34.633,22.329 -33.625,15.313C-31.953,8.784 -29.123,3.594 -23.25,0C-16.267,-3.204 -6.983,-3.204 0,0ZM-21.938,10.5C-24.065,14.045 -24.827,17.225 -24.625,21.313C-23.183,25.867 -21.624,29.576 -17.625,32.313C-13.392,33.464 -9.922,33.831 -5.813,32.188C-1.375,28.384 1.005,25.414 1.473,19.367C1.247,14.624 -0.678,11.313 -3.875,7.938C-10.857,3.812 -16.222,5.094 -21.938,10.5Z" style="fill:rgb(0,168,225);fill-rule:nonzero;"/>
        </g>
        <g transform="matrix(0.669489,0,0,0.669489,160.415,152.312)">
            <path d="M0,0C4.563,2.2 6.818,4.477 9,9C9.341,12.505 9.341,12.505 9.293,16.488C9.289,17.191 9.284,17.895 9.28,18.619C9.263,20.851 9.226,23.081 9.188,25.313C9.172,26.831 9.159,28.35 9.146,29.869C9.114,33.58 9.062,37.29 9,41L1,41C0.98,40.31 0.96,39.619 0.94,38.908C0.844,35.751 0.735,32.594 0.625,29.438C0.594,28.351 0.563,27.265 0.531,26.146C0.324,20.455 0.032,15.348 -2,10C-4.46,7.891 -5.76,7.99 -9,8.125C-12.437,9.127 -13.792,10.22 -16,13C-17.037,16.111 -17.2,18.495 -17.316,21.762C-17.358,22.88 -17.4,23.998 -17.443,25.15C-17.483,26.318 -17.522,27.485 -17.563,28.688C-17.606,29.866 -17.649,31.045 -17.693,32.26C-17.8,35.173 -17.902,38.086 -18,41L-27,41L-27,1L-19,1L-19,5C-18.55,4.639 -18.1,4.278 -17.637,3.906C-11.911,-0.224 -6.976,-1.152 0,0Z" style="fill:rgb(0,168,225);fill-rule:nonzero;"/>
        </g>
        <g transform="matrix(0.669489,0,0,0.669489,367.748,153.232)">
            <path d="M0,0C2.313,1.625 2.313,1.625 4.313,3.625C4.25,5.563 4.25,5.563 3.313,7.625C0.75,9.375 0.75,9.375 -1.688,10.625C-2.708,9.635 -2.708,9.635 -3.75,8.625C-7.39,6.146 -9.364,6.065 -13.688,6.625C-15.631,7.979 -15.631,7.979 -16.688,9.625C-16.358,10.615 -16.028,11.605 -15.688,12.625C-12.619,13.785 -9.57,14.69 -6.41,15.555C-1.666,16.971 1.032,18.74 4.313,22.625C5.867,25.735 5.599,28.188 5.313,31.625C3.001,36.077 0.804,38.454 -3.688,40.625C-11.521,41.678 -18.818,41.682 -25.465,37.109C-26.688,35.625 -26.688,35.625 -26.688,31.625C-24.688,29.875 -24.688,29.875 -22.688,28.625C-18.688,30.625 -18.688,30.625 -16.875,31.75C-13.722,33.011 -11.047,32.869 -7.688,32.625C-6.698,31.965 -5.707,31.305 -4.688,30.625C-5.183,28.15 -5.183,28.15 -5.688,25.625C-6.712,25.334 -7.737,25.042 -8.793,24.742C-10.154,24.329 -11.515,23.915 -12.875,23.5C-13.549,23.312 -14.222,23.124 -14.916,22.93C-20.173,21.288 -22.607,19.213 -25.688,14.625C-26.393,9.597 -25.722,6.671 -22.688,2.625C-17.426,-3.514 -6.985,-2.604 0,0Z" style="fill:rgb(0,168,225);fill-rule:nonzero;"/>
        </g>
        <g transform="matrix(0.669489,0,0,0.669489,207.949,144.947)">
            <path d="M0,0L9,0L9,12L19,12L19,19L9,19C9.33,27.58 9.66,36.16 10,45L19,45L19,52C15.313,53.843 11.033,53.356 7,53C4.051,51.771 2.613,50.946 0.887,48.284C-0.265,45.317 -0.225,42.883 -0.195,39.703C-0.186,37.895 -0.186,37.895 -0.176,36.051C-0.159,34.797 -0.142,33.542 -0.125,32.25C-0.116,30.98 -0.107,29.711 -0.098,28.402C-0.074,25.268 -0.041,22.134 0,19L-8,19L-8,12L0,12L0,0Z" style="fill:rgb(0,168,225);fill-rule:nonzero;"/>
        </g>
        <g transform="matrix(0.669489,0,0,0.669489,319.084,152.312)">
            <path d="M0,0C-0.33,2.64 -0.66,5.28 -1,8C-1.603,8.086 -2.207,8.173 -2.828,8.262C-3.627,8.402 -4.427,8.543 -5.25,8.688C-6.039,8.815 -6.828,8.943 -7.641,9.074C-10.919,10.361 -12.054,12.089 -14,15C-14.634,17.982 -14.634,17.982 -14.609,21.176C-14.642,22.333 -14.674,23.49 -14.707,24.682C-14.728,26.479 -14.728,26.479 -14.75,28.313C-14.78,29.53 -14.809,30.748 -14.84,32.002C-14.91,35.001 -14.963,38 -15,41L-24,41C-24.33,27.8 -24.66,14.6 -25,1L-16,1C-15.67,1.99 -15.34,2.98 -15,4C-14.196,3.34 -13.391,2.68 -12.563,2C-8.566,-0.722 -4.667,-0.373 0,0Z" style="fill:rgb(0,168,225);fill-rule:nonzero;"/>
        </g>
    </g>
</svg>
