<?xml version="1.0" encoding="UTF-8" standalone="no"?>
<!DOCTYPE svg PUBLIC "-//W3C//DTD SVG 1.1//EN" "http://www.w3.org/Graphics/SVG/1.1/DTD/svg11.dtd">
<svg width="100%" height="100%" viewBox="0 0 400 216" version="1.1" xmlns="http://www.w3.org/2000/svg" xmlns:xlink="http://www.w3.org/1999/xlink" xml:space="preserve" xmlns:serif="http://www.serif.com/" style="fill-rule:evenodd;clip-rule:evenodd;stroke-linejoin:round;stroke-miterlimit:2;">
    <g transform="matrix(6.15524,0,0,-6.15524,-2793.56,4336.72)">
        <g id="_220510_BVR_JB_DS" serif:id="220510_BVR_JB_DS">
            <g>
                <g transform="matrix(0.752049,0,0,-0.752504,345.027,769.123)">
                    <rect x="164.316" y="93.399" width="47.183" height="31.437" style="fill:white;"/>
                </g>
                <g id="g34" transform="matrix(1,0,0,1,468.6,679.323)">
                    <path id="path36" d="M0,0L0,-4.14L14.284,-4.14L13.352,0L0,0Z" style="fill:rgb(242,92,25);fill-rule:nonzero;"/>
                </g>
                <g id="g38" transform="matrix(1,0,0,1,-34.4953,-0.805078)">
                    <g id="g40">
                        <g id="g46" transform="matrix(1,0,0,1,538.58,675.988)">
                            <path id="path48" d="M0,0L0,4.14L-13.596,4.14C-13.959,2.23 -14.267,0.63 -14.385,0L0,0Z" style="fill:rgb(242,92,25);fill-rule:nonzero;"/>
                        </g>
                        <g id="g50" transform="matrix(1,0,0,1,510.265,689.955)">
                            <path id="path52" d="M0,0L-1.018,4.305L7.669,4.305L10.482,-8.053L10.602,-8.053L12.374,-0.136C13.268,3.457 13.605,4.305 18.638,4.305L22.258,4.305C22.258,4.305 21.526,0.992 20.618,-2.604C20.27,-3.975 17.248,-3.813 17.399,-2.532C17.415,-2.399 17.558,-1.435 17.671,-0.749C17.835,0.239 16.689,0.361 16.483,-0.615C16.336,-1.314 15.672,-4.787 15.051,-8.053L28.315,-8.053L28.315,9.69L-7.169,9.69L-7.169,-8.053L5.789,-8.053L3.985,-0.006L0,0Z" style="fill:rgb(28,99,183);fill-rule:nonzero;"/>
                        </g>
                        <g id="g54">
                        </g>
                        <g id="g58">
                        </g>
                        <g id="g62">
                        </g>
                    </g>
                </g>
            </g>
        </g>
    </g>
</svg>
