<?xml version="1.0" encoding="UTF-8" standalone="no"?>
<!DOCTYPE svg PUBLIC "-//W3C//DTD SVG 1.1//EN" "http://www.w3.org/Graphics/SVG/1.1/DTD/svg11.dtd">
<svg width="100%" height="100%" viewBox="0 0 400 216" version="1.1" xmlns="http://www.w3.org/2000/svg" xmlns:xlink="http://www.w3.org/1999/xlink" xml:space="preserve" xmlns:serif="http://www.serif.com/" style="fill-rule:evenodd;clip-rule:evenodd;stroke-linejoin:round;stroke-miterlimit:2;">
    <g transform="matrix(0.768226,0,0,0.768226,34.8409,68.0522)">
        <g>
            <path d="M151.679,102.708L151.679,84.662L93.896,84.662C92.336,92.952 90.996,99.971 90.483,102.708L151.679,102.708" style="fill:rgb(255,102,0);"/>
            <path d="M0.083,84.662L0.083,102.708L60.852,102.708L56.812,84.662L0.083,84.662" style="fill:rgb(255,102,0);"/>
            <path d="M29.958,42.187L25.545,23.551L63.259,23.551L75.754,78.221L83.714,42.781C87.603,27.214 89.067,23.551 110.925,23.551L126.657,23.551C126.657,23.551 123.477,37.896 119.538,53.473C118.024,59.411 104.875,58.713 105.545,53.171C105.612,52.58 106.225,48.403 106.719,45.431C107.442,41.157 102.446,40.637 101.562,44.857C100.916,47.893 98.046,62.943 95.339,77.067L151.679,77.067L151.679,0.208L0.087,0.208L0.087,77.067L55.106,77.067L47.27,42.224L29.958,42.187" style="fill:rgb(0,102,179);"/>
            <path d="M281.392,95.34C280.085,97.062 278.1,98.164 275.553,98.164C272.572,98.164 270.271,96.998 270.271,94.297C270.271,89.447 275.803,88.831 279.525,88.831L283.134,88.831C283.134,91.286 282.76,93.558 281.392,95.34ZM290.252,88.275L290.252,84.221C290.252,74.888 286.216,70.894 276.463,70.894C272.919,70.894 268.573,71.817 265.342,73.292L265.595,80.354C268.388,78.265 271.928,76.913 275.466,76.913C280.374,76.913 282.675,78.635 282.675,83.735L278.077,83.735C274.597,83.735 270.5,84.041 267.333,85.573C264.166,87.109 261.865,89.874 261.865,94.6C261.865,100.619 267.394,104 273.047,104C276.837,104 280.998,102.031 282.921,98.531L283.046,98.531C283.11,99.513 283.11,101.605 283.42,103.261L290.747,103.261C290.565,100.806 290.437,98.594 290.377,96.199C290.313,93.864 290.252,91.469 290.252,88.275ZM180,103.261L188.695,103.261L188.695,84.464L203.354,84.464L203.354,77.712L188.695,77.712L188.695,67.15L204.098,67.15L204.098,60.395L180,60.395L180,103.261ZM210.499,103.261L218.82,103.261L218.82,71.633L210.499,71.633L210.499,103.261ZM210.499,65.861L218.82,65.861L218.82,58L210.499,58L210.499,65.861ZM225.963,103.261L234.287,103.261L234.287,87.785C234.287,83.735 235.591,77.283 241.615,77.283C246.958,77.283 247.022,82.506 247.022,86.373L247.022,103.261L255.346,103.261L255.346,83.302C255.346,76.177 252.052,70.894 244.475,70.894C240.126,70.894 236.585,72.31 233.977,75.93L233.853,75.93L233.853,71.633L225.963,71.633L225.963,103.261ZM297.893,103.261L306.214,103.261L306.214,87.785C306.214,83.735 307.521,77.283 313.545,77.283C318.888,77.283 318.949,82.506 318.949,86.373L318.949,103.261L327.27,103.261L327.27,83.302C327.27,76.177 323.982,70.894 316.402,70.894C312.053,70.894 308.515,72.31 305.904,75.93L305.78,75.93L305.78,71.633L297.893,71.633L297.893,103.261ZM335.096,78.019L350.627,78.019L334.416,96.565L334.416,103.261L361,103.261L361,96.872L344.543,96.872L360.441,78.389L360.441,71.633L335.096,71.633L335.096,78.019ZM225.759,18.362L222.853,18.362L222.853,6.776L225.759,6.776C230.185,6.776 235.116,7.208 235.116,12.382C235.116,17.742 230.124,18.362 225.759,18.362ZM235.241,21.748L235.241,21.622C240.87,20.883 244.345,16.696 244.345,11.647C244.345,-0.309 233.026,0.001 223.547,0.001L214,0.001L214,43L222.853,43L222.853,25.134L225.694,25.134C229.423,25.134 230.561,26.368 231.828,29.572L237.138,43L247,43L239.925,26.183C239.038,24.276 237.649,21.929 235.241,21.748Z" style="fill:rgb(0,102,179);"/>
            <path d="M191.487,33.759L191.355,33.759L179.735,0L170,0L185.58,43L196.744,43L212,0L202.978,0L191.487,33.759" style="fill:rgb(0,102,179);"/>
            <path d="M270.721,12.903C270.721,8.164 274.424,6.855 277.288,6.855C280.217,6.855 283.146,7.542 285.773,8.725L286.551,1.558C283.502,0.497 280.159,0 276.576,0C269.228,0 262,3.553 262,13.275C262,27.672 280.275,24.244 280.275,32.533C280.275,36.461 276.038,38.141 272.869,38.141C269.584,38.141 266.302,37.083 263.432,35.46L262.658,43.317C266.779,44.375 268.807,45 273.349,45C281.769,45 289,41.383 289,31.847C289,17.264 270.721,20.441 270.721,12.903M392.584,19.832L392.461,19.832L392.461,12.728L385,12.728L385,44L393.4,44L393.4,32.525C393.4,28.03 393.4,19.773 400.232,19.773C401.739,19.773 403.245,20.016 404,20.441L404,12.24C403.119,12 402.242,12 401.429,12C396.41,12 392.961,16.917 392.584,19.832M429.748,37.634C428.853,38.196 427.388,38.508 425.86,38.508C422.612,38.508 421.845,35.949 421.845,33.204L421.845,18.225L429.426,18.225L429.426,12.109L421.845,12.109L421.845,3L413.31,5.681L413.31,12.109L407,12.109L407,18.225L413.31,18.225L413.31,34.578C413.31,40.941 417.004,45 423.694,45C426.24,45 428.217,44.75 430,44.249L429.748,37.634M332.085,12C328.247,12 324.174,13.759 322.286,17.523C320.52,13.64 317.417,12 313.038,12C309.994,12 306.281,13.275 303.727,17.102L303.605,17.102L303.605,12.728L296,12.728L296,44L304.152,44L304.152,28.82C304.152,24.753 304.819,18.314 310.235,18.314C314.922,18.314 314.922,22.447 314.922,25.359L314.922,44L323.078,44L323.078,28.82C323.078,24.753 323.745,18.314 329.164,18.314C333.848,18.314 333.848,22.447 333.848,25.359L333.848,44L342,44L342,24.265C342,17.283 339.812,12 332.085,12M368.606,36.37C367.294,38.083 365.305,39.182 362.744,39.182C359.75,39.182 357.44,38.023 357.44,35.327C357.44,30.492 362.994,29.881 366.732,29.881L370.352,29.881C370.352,32.325 369.976,34.59 368.606,36.37ZM377.503,29.327L377.503,25.286C377.503,15.978 373.45,12 363.654,12C360.099,12 355.735,12.92 352.491,14.388L352.745,21.427C355.549,19.345 359.108,18 362.656,18C367.585,18 369.892,19.714 369.892,24.798L365.278,24.798C361.787,24.798 357.67,25.103 354.487,26.631C351.31,28.161 349,30.921 349,35.629C349,41.633 354.551,45 360.227,45C364.033,45 368.21,43.038 370.142,39.551L370.267,39.551C370.331,40.527 370.331,42.612 370.643,44.263L378,44.263C377.814,41.816 377.689,39.611 377.628,37.223C377.567,34.895 377.503,32.508 377.503,29.327Z" style="fill:rgb(0,102,179);"/>
        </g>
    </g>
</svg>
