<?xml version="1.0" encoding="utf-8"?>
<!-- Generator: Adobe Illustrator 16.0.3, SVG Export Plug-In . SVG Version: 6.00 Build 0)  -->
<!DOCTYPE svg PUBLIC "-//W3C//DTD SVG 1.1//EN" "http://www.w3.org/Graphics/SVG/1.1/DTD/svg11.dtd">
<svg version="1.1" id="Ebene_1" xmlns="http://www.w3.org/2000/svg" xmlns:xlink="http://www.w3.org/1999/xlink" x="0px" y="0px"
	 width="400px" height="216px" viewBox="0 0 400 216" enable-background="new 0 0 400 216" xml:space="preserve">
<path fill="#E40000" d="M67.31,104.011c-7.639,0-15.279-0.016-22.921,0.021c-0.84,0.003-0.993-0.247-0.993-1.026
	c0.023-15.247,0.027-30.493-0.006-45.738c-0.002-0.893,0.256-1.041,1.081-1.039c15.246,0.026,30.494,0.027,45.739,0
	c0.852-0.001,1.075,0.203,1.074,1.069c-0.029,15.212-0.032,30.423,0.004,45.635c0.003,0.971-0.308,1.101-1.161,1.098
	C82.522,103.998,74.916,104.011,67.31,104.011z M67.328,160.215c-7.64,0-15.279-0.014-22.921,0.019
	c-0.797,0.003-1.016-0.188-1.014-1.005c0.027-15.278,0.026-30.559,0.001-45.836c-0.001-0.772,0.184-0.959,0.957-0.957
	c15.313,0.025,30.627,0.026,45.942-0.003c0.874-0.004,0.985,0.298,0.984,1.051c-0.018,15.246-0.021,30.493,0.004,45.737
	c0.001,0.83-0.24,1.018-1.036,1.014C82.607,160.203,74.969,160.215,67.328,160.215z"/>
<path fill="#171A1B" d="M120.382,134.556c-0.381,1.719-0.768,3.438-1.143,5.157c-1.443,6.578-2.891,13.153-4.303,19.738
	c-0.126,0.598-0.33,0.787-0.929,0.777c-2.236-0.03-4.477-0.05-6.713,0.01c-0.725,0.018-0.925-0.262-1.026-0.893
	c-0.759-4.685-1.538-9.363-2.313-14.045c-1.55-9.359-3.1-18.72-4.652-28.08c-0.226-1.356-0.432-2.717-0.703-4.063
	c-0.134-0.668,0.16-0.716,0.698-0.712c3.028,0.019,6.058,0.027,9.089-0.006c0.581-0.007,0.725,0.183,0.797,0.729
	c0.714,5.352,1.465,10.697,2.2,16.046c0.5,3.646,0.993,7.293,1.488,10.939c0.024,0.168,0.041,0.347,0.281,0.423l3.807-20.135
	c0.461-2.43,0.948-4.855,1.374-7.294c0.098-0.562,0.3-0.715,0.849-0.706c1.997,0.033,3.995,0.055,5.991-0.008
	c0.715-0.021,0.918,0.252,1.034,0.878c1.035,5.681,2.091,11.356,3.144,17.033c0.644,3.48,1.289,6.96,2.053,10.452
	c0.34-2.307,0.688-4.609,1.019-6.916c0.985-6.911,1.96-13.822,2.924-20.737c0.069-0.5,0.215-0.71,0.759-0.7
	c1.962,0.029,3.925,0.042,5.886-0.004c0.683-0.018,0.616,0.306,0.539,0.751c-0.909,5.32-1.813,10.64-2.719,15.96
	c-1.628,9.592-3.267,19.179-4.882,28.773c-0.386,2.288-0.352,2.295-2.716,2.295c-1.689,0-3.378-0.044-5.062,0.018
	c-0.705,0.026-0.934-0.237-1.072-0.872c-1.517-6.946-3.058-13.888-4.594-20.832c-0.292-1.322-0.598-2.642-0.899-3.961
	C120.518,134.567,120.45,134.561,120.382,134.556L120.382,134.556z M113.21,83.915l3.633-19.347
	c0.461-2.466,0.937-4.928,1.379-7.397c0.115-0.643,0.283-0.985,1.088-0.95c1.957,0.084,3.922,0.047,5.883,0.016
	c0.585-0.011,0.8,0.128,0.913,0.757c1.606,8.787,3.252,17.566,4.891,26.348c0.059,0.326,0.007,0.694,0.376,0.976
	c0.709-4.967,1.41-9.892,2.113-14.816c0.6-4.186,1.204-8.37,1.812-12.555c0.044-0.304-0.072-0.708,0.494-0.703
	c2.232,0.018,4.465,0.008,6.741,0.008c-1.402,8.287-2.782,16.483-4.173,24.68c-1.26,7.419-2.54,14.835-3.775,22.259
	c-0.106,0.641-0.289,0.849-0.947,0.838c-2.202-0.044-4.406-0.043-6.608,0.002c-0.665,0.014-0.866-0.224-0.998-0.835
	c-1.773-8.119-3.574-16.233-5.372-24.347c-0.043-0.195-0.121-0.381-0.272-0.85c-0.63,2.874-1.204,5.479-1.771,8.085
	c-1.249,5.738-2.5,11.477-3.727,17.219c-0.114,0.534-0.316,0.731-0.88,0.724c-2.306-0.036-4.611-0.035-6.917,0.003
	c-0.615,0.011-0.745-0.275-0.824-0.764c-0.771-4.713-1.545-9.428-2.324-14.14c-1.481-8.951-2.962-17.902-4.446-26.853
	c-0.292-1.763-0.573-3.528-0.897-5.286c-0.11-0.595,0.04-0.758,0.651-0.752c3.063,0.029,6.127,0.021,9.19,0.005
	c0.444-0.001,0.63,0.072,0.699,0.588c1.004,7.496,2.043,14.988,3.072,22.48c0.22,1.602,0.432,3.203,0.647,4.804
	c0.066,0.064,0.117,0.237,0.15,0.207C113.123,84.219,113.14,84.05,113.21,83.915L113.21,83.915z M202.632,125.825
	c1.661-1.092,3.26-1.808,5.054-2.092c5.296-0.839,8.902,1.997,9.26,7.342c0.038,0.583,0.062,1.167,0.063,1.753
	c0.003,8.813-0.01,17.63,0.02,26.443c0.003,0.768-0.178,0.982-0.957,0.965c-2.581-0.053-5.164-0.053-7.745,0
	c-0.778,0.018-0.963-0.195-0.959-0.963c0.028-8.471,0.018-16.941,0.015-25.41c0-0.412-0.021-0.826-0.075-1.234
	c-0.119-0.926-0.572-1.645-1.497-1.909c-1.043-0.301-2.048-0.097-2.953,0.494c-0.395,0.26-0.213,0.698-0.214,1.052
	c-0.011,8.916-0.026,17.835,0.019,26.753c0.005,1.022-0.277,1.25-1.252,1.222c-2.545-0.072-5.094-0.044-7.644-0.012
	c-0.615,0.01-0.812-0.126-0.809-0.785c0.02-15.081,0.019-30.161,0.001-45.24c0-0.562,0.192-0.771,0.7-0.895
	c2.738-0.658,5.475-1.32,8.201-2.03c0.734-0.193,0.788,0.091,0.786,0.694c-0.019,4.166-0.011,8.334-0.011,12.499L202.632,125.825
	L202.632,125.825z M254.912,54.991v14.682c1.697-1.104,3.379-1.888,5.301-2.104c5.413-0.611,8.748,2.169,8.98,7.647
	c0.113,2.681,0.056,5.37,0.056,8.055c0.005,6.575-0.013,13.149,0.017,19.724c0.003,0.756-0.118,1.06-0.981,1.039
	c-2.581-0.066-5.164-0.051-7.743-0.005c-0.725,0.012-0.91-0.182-0.906-0.906c0.024-8.33,0.017-16.661,0.017-24.991
	c0-0.344,0.01-0.689-0.012-1.033c-0.131-2.19-1.479-3.094-3.593-2.481c-0.85,0.246-1.175,0.653-1.17,1.594
	c0.041,8.915,0.012,17.831,0.045,26.745c0.004,0.863-0.219,1.094-1.074,1.074c-2.581-0.058-5.163-0.039-7.743-0.007
	c-0.633,0.007-0.876-0.103-0.876-0.822c0.021-15.008,0.018-30.016,0.017-45.024c0-0.449-0.054-0.801,0.604-0.952
	C248.82,56.542,251.774,55.774,254.912,54.991L254.912,54.991z M166.278,142.508c-0.095,2.887-0.109,5.774-0.54,8.644
	c-0.903,6.021-4.533,9.415-10.623,9.81c-2.069,0.132-4.125,0.009-6.132-0.572c-4.117-1.193-6.329-4.139-7.14-8.146
	c-1.276-6.298-1.399-12.668-0.15-18.969c1.51-7.613,6.879-10.253,13.699-9.555c6.422,0.657,9.809,4.378,10.517,11.059
	C166.178,137.349,166.218,139.929,166.278,142.508z M287.053,101.243c-1.223,1.504-2.612,2.571-4.34,3.186
	c-4.803,1.711-9.217-0.598-10.421-5.536c-0.77-3.155-0.722-6.367-0.086-9.522c0.757-3.727,3.624-6.015,7.713-6.467
	c1.681-0.186,3.359-0.263,5.044-0.063c0.354,0.042,0.788,0.193,0.758-0.464c-0.083-1.854,0.18-3.719-0.172-5.56
	c-0.446-2.32-3.82-3.695-5.785-2.389c-0.387,0.258-0.326,0.661-0.383,1.008c-0.234,1.424-0.456,2.851-0.626,4.283
	c-0.058,0.483-0.227,0.643-0.701,0.635c-1.376-0.021-2.752-0.021-4.127,0c-0.442,0.005-0.602-0.134-0.599-0.587
	c0.014-2.959,0.012-5.919,0-8.879c-0.001-0.352,0.107-0.571,0.416-0.738c4.859-2.646,9.945-3.592,15.283-1.755
	c3.681,1.266,5.738,4.385,5.79,8.649c0.07,5.712,0.032,11.424,0.027,17.135c-0.003,3.002,0.25,5.977,0.961,8.899
	c0.174,0.716,0.048,0.969-0.745,0.95c-2.03-0.055-4.061-0.053-6.091,0.005c-0.729,0.022-1.04-0.22-1.215-0.888
	C287.602,102.552,287.334,101.987,287.053,101.243L287.053,101.243z M242.151,150.443c0,2.244-0.018,4.274,0.015,6.305
	c0.007,0.505-0.155,0.848-0.561,1.112c-4.307,2.797-8.97,3.904-13.943,2.396c-4.169-1.266-6.579-4.448-7.253-8.61
	c-1.069-6.611-1.322-13.298,0.172-19.895c1.192-5.268,4.484-7.812,9.988-8.119c1.66-0.091,3.307-0.007,4.904,0.483
	c4.011,1.229,6.03,4.181,6.664,8.12c0.661,4.127,0.357,8.307,0.303,12.468c-0.01,0.661-0.399,0.577-0.811,0.577
	c-3.682-0.002-7.364-0.002-11.049-0.002c-1.427,0-1.414,0-1.432,1.484c-0.012,1.037,0.021,2.069,0.261,3.077
	c0.668,2.844,3.202,4.369,6.353,3.836C238.15,153.269,240.255,152.275,242.151,150.443z M316.309,63.469
	c-1.492-0.395-2.821-0.885-4.263-0.822c-1.9,0.082-2.819,0.906-3.049,2.795c-0.34,2.793-0.34,2.793,2.442,2.793
	c1.032,0,2.067,0.035,3.097-0.013c0.607-0.029,0.75,0.186,0.733,0.759c-0.037,1.515-0.054,3.031,0.006,4.542
	c0.03,0.726-0.248,0.861-0.886,0.843c-1.306-0.04-2.621,0.055-3.921-0.035c-0.92-0.064-1.037,0.292-1.035,1.099
	c0.028,9.154,0.005,18.309,0.039,27.463c0.004,0.885-0.172,1.17-1.113,1.142c-2.546-0.067-5.093-0.069-7.639-0.004
	c-0.799,0.019-0.945-0.224-0.943-0.973c0.025-9.223,0.004-18.445,0.041-27.668c0.002-0.871-0.216-1.083-1.07-1.058
	c-2.202,0.061-2.204,0.018-2.204-2.168c0-1.067,0.034-2.136-0.013-3.199c-0.026-0.604,0.188-0.819,0.761-0.729
	c0.034,0.004,0.069,0.002,0.104,0c0.777-0.057,1.842,0.344,2.257-0.17c0.393-0.485,0.132-1.505,0.14-2.291
	c0.013-1.106,0.152-2.195,0.417-3.267c0.911-3.701,3.692-6.094,7.518-6.449c2.635-0.246,5.215,0.047,7.744,0.829
	c0.593,0.184,0.881,0.434,0.857,1.134C316.269,59.807,316.309,61.596,316.309,63.469L316.309,63.469z M217.615,74.621
	c0,1.41-0.027,2.822,0.013,4.232c0.017,0.592-0.175,0.764-0.755,0.744c-1.203-0.041-2.409-0.041-3.612-0.001
	c-0.58,0.018-0.84-0.098-0.898-0.761c-0.125-1.401-0.374-2.793-0.574-4.187c-0.033-0.223,0.054-0.525-0.262-0.61
	c-1.376-0.374-2.731-0.37-3.964,0.451c-0.933,0.62-1.399,1.984-1.093,3.124c0.251,0.937,0.876,1.621,1.603,2.224
	c1.193,0.992,2.541,1.757,3.852,2.573c1.466,0.911,2.888,1.876,4.073,3.14c3.071,3.272,4.162,7.132,2.826,11.413
	c-1.334,4.278-4.692,6.391-8.907,7.181c-3.846,0.721-7.512-0.006-10.975-1.819c-0.588-0.308-0.801-0.687-0.789-1.37
	c0.046-2.786,0.042-5.574,0.002-8.361c-0.009-0.682,0.182-0.887,0.86-0.854c1.167,0.054,2.34,0.039,3.509,0.003
	c0.543-0.017,0.765,0.118,0.84,0.709c0.199,1.601,0.513,3.188,0.744,4.786c0.055,0.391,0.158,0.643,0.577,0.706
	c1.232,0.187,2.46,0.292,3.661-0.181c2.266-0.893,2.921-3.32,1.41-5.226c-0.649-0.819-1.492-1.415-2.347-2
	c-1.786-1.221-3.697-2.266-5.332-3.698c-3.713-3.257-5.198-7.271-3.93-12.122c1.007-3.861,4.295-6.538,8.49-7.089
	c3.625-0.476,7.035,0.215,10.31,1.776c0.507,0.242,0.701,0.52,0.685,1.088C217.585,71.867,217.615,73.244,217.615,74.621z
	 M335.449,96.828c0-1.48,0.019-2.96-0.01-4.44c-0.012-0.493,0.14-0.658,0.64-0.644c1.202,0.032,2.412,0.06,3.613-0.009
	c0.688-0.039,0.887,0.246,0.967,0.844c0.204,1.5,0.466,2.989,0.659,4.489c0.073,0.565,0.276,0.849,0.876,0.921
	c1.175,0.143,2.335,0.212,3.456-0.243c2.164-0.878,2.819-3.194,1.453-5.094c-0.637-0.886-1.519-1.489-2.399-2.091
	c-1.562-1.066-3.2-2.028-4.692-3.184c-3.55-2.749-5.493-6.293-4.947-10.912c0.577-4.864,4.032-8.248,8.904-8.851
	c3.594-0.444,6.968,0.249,10.215,1.774c0.525,0.247,0.756,0.536,0.746,1.156c-0.043,2.719-0.042,5.439,0.002,8.158
	c0.015,0.747-0.224,0.931-0.93,0.897c-1.166-0.055-2.341-0.061-3.51,0.002c-0.651,0.035-0.825-0.242-0.89-0.803
	c-0.154-1.332-0.376-2.657-0.507-3.991c-0.062-0.642-0.385-0.844-0.956-0.938c-2.358-0.389-4.113,0.616-4.446,2.567
	c-0.177,1.039,0.196,1.888,0.864,2.644c0.947,1.072,2.161,1.804,3.358,2.546c1.696,1.052,3.407,2.075,4.871,3.454
	c3,2.822,4.276,6.318,3.679,10.353c-0.665,4.516-4.222,7.804-9.151,8.702c-3.783,0.689-7.381,0.036-10.822-1.641
	c-0.763-0.371-1.127-0.838-1.067-1.743C335.516,99.449,335.449,98.137,335.449,96.828z M190.302,149.891
	c0,2.471-0.006,4.73,0.01,6.987c0.001,0.379-0.257,0.544-0.478,0.744c-3.626,3.326-10.094,4.286-14.507,2.105
	c-3.685-1.822-5.54-5.007-6.031-8.925c-0.726-5.79-0.744-11.611,0.15-17.394c0.804-5.207,4.02-8.707,8.663-9.559
	c4.062-0.74,7.839,0.242,11.473,2.014c0.366,0.177,0.472,0.41,0.471,0.804c-0.014,3.409-0.019,6.813,0.003,10.223
	c0.005,0.599-0.275,0.669-0.757,0.662c-1.271-0.02-2.548-0.037-3.821,0.007c-0.568,0.02-0.77-0.187-0.861-0.722
	c-0.292-1.729-0.646-3.446-0.936-5.172c-0.103-0.616-0.324-0.952-0.997-1.082c-2.145-0.41-3.652,0.509-3.941,2.678
	c-0.456,3.416-0.394,6.866-0.362,10.31c0.018,1.922,0.042,3.852,0.328,5.767c0.539,3.605,3.072,5.19,6.563,4.097
	C186.911,152.919,188.122,152.08,190.302,149.891z M242.626,93.682c0,2.486-0.01,4.713,0.006,6.94
	c0.003,0.411-0.263,0.609-0.514,0.839c-3.601,3.274-10.065,4.217-14.429,2.06c-3.452-1.706-5.391-4.642-5.909-8.327
	c-0.869-6.192-0.963-12.44,0.129-18.616c1.086-6.133,5.422-9.388,11.703-9.108c2.855,0.126,5.546,0.9,8.11,2.151
	c0.469,0.228,0.65,0.47,0.646,0.998c-0.021,3.339-0.022,6.679-0.001,10.019c0.004,0.562-0.114,0.794-0.73,0.771
	c-1.273-0.042-2.548-0.042-3.821-0.002c-0.564,0.015-0.763-0.18-0.854-0.74c-0.294-1.797-0.669-3.581-0.985-5.375
	c-0.064-0.372-0.164-0.616-0.551-0.766c-1.834-0.709-3.687,0.2-4.248,2.091c-0.208,0.703-0.272,1.425-0.295,2.142
	c-0.143,4.61-0.304,9.222,0.092,13.829c0.027,0.307,0.069,0.615,0.135,0.916c0.736,3.377,3.148,4.775,6.47,3.749
	C239.55,96.646,241.062,95.368,242.626,93.682z M156.857,68.236c2.467,0,4.873,0.008,7.278-0.007
	c0.395-0.002,0.514,0.169,0.608,0.516c0.251,0.928,0.549,1.841,0.841,2.802c0.495-0.082,0.672-0.541,0.96-0.838
	c2.752-2.827,5.965-3.774,9.771-2.483c0.742,0.252,1.069,0.599,1.054,1.463c-0.055,3.75-0.056,7.501-0.003,11.252
	c0.012,0.802-0.23,0.982-0.978,0.941c-1.168-0.063-2.339-0.063-3.508,0.001c-0.631,0.034-0.833-0.193-0.908-0.772
	c-0.192-1.464-0.456-2.919-0.638-4.385c-0.058-0.468-0.228-0.625-0.684-0.688c-1.848-0.26-3.097,0.656-3.317,2.506
	c-0.06,0.51-0.067,1.029-0.068,1.544c-0.006,7.639-0.016,15.277,0.014,22.917c0.002,0.786-0.168,1.047-1,1.028
	c-2.546-0.066-5.093-0.064-7.638,0.004c-0.925,0.028-1.028-0.301-1.024-1.101c0.028-7.915,0.003-15.829,0.023-23.743
	C157.65,75.547,157.509,71.916,156.857,68.236L156.857,68.236z M333.403,95.587c0,2.131-0.012,4.05,0.009,5.966
	c0.004,0.415-0.204,0.623-0.515,0.81c-3.167,1.904-6.572,2.709-10.179,1.746c-3.311-0.884-4.837-3.412-5.358-6.64
	c-0.156-0.952-0.199-1.913-0.197-2.88c0.009-8.227,0.014-16.454-0.009-24.679c-0.001-0.639,0.167-1.069,0.663-1.496
	c2.529-2.177,5.021-4.397,7.527-6.602c0.13-0.114,0.26-0.226,0.388-0.34c0.259-0.231,0.575-0.255,0.874-0.163
	c0.369,0.114,0.216,0.464,0.218,0.71c0.013,1.791,0.033,3.58-0.01,5.369c-0.015,0.647,0.126,0.897,0.834,0.864
	c1.339-0.061,2.685,0.011,4.023-0.03c0.63-0.02,0.911,0.098,0.88,0.822c-0.056,1.479-0.058,2.959-0.005,4.439
	c0.017,0.663-0.157,0.913-0.861,0.886c-1.376-0.054-2.754,0.012-4.129-0.03c-0.596-0.018-0.741,0.18-0.739,0.753
	c0.02,6.644,0.005,13.287,0.021,19.929c0.003,1.705,0.799,2.425,2.505,2.399C330.876,97.399,332.065,96.587,333.403,95.587
	L333.403,95.587z M195.921,95.57c0,2.182-0.006,4.159,0.005,6.137c0.002,0.388-0.268,0.528-0.529,0.686
	c-2.972,1.775-6.159,2.553-9.585,1.842c-3.199-0.663-5.224-2.931-5.836-6.314c-0.184-1.021-0.238-2.048-0.238-3.081
	c0.003-8.331,0.007-16.661-0.011-24.991c-0.001-0.592,0.136-1.01,0.607-1.414c2.558-2.199,5.084-4.435,7.612-6.665
	c0.344-0.303,0.696-0.669,1.168-0.455c0.48,0.218,0.235,0.733,0.241,1.111c0.026,1.651,0.037,3.304-0.001,4.956
	c-0.017,0.642,0.116,0.907,0.837,0.875c1.411-0.064,2.822-0.001,4.235-0.028c0.474-0.008,0.661,0.101,0.65,0.619
	c-0.033,1.618-0.036,3.236,0.001,4.854c0.013,0.588-0.238,0.673-0.736,0.664c-1.411-0.025-2.823,0.018-4.233-0.021
	c-0.601-0.018-0.753,0.197-0.751,0.77c0.017,6.609-0.007,13.219,0.023,19.829c0.01,2.085,1.376,2.953,3.556,2.347
	C194,96.993,194.917,96.406,195.921,95.57L195.921,95.57z M153.924,86.182c0,5.645-0.013,11.29,0.019,16.935
	c0.004,0.717-0.173,0.925-0.905,0.913c-2.615-0.042-5.23-0.044-7.846-0.004c-0.674,0.008-0.948-0.106-0.947-0.878
	c0.027-11.359,0.025-22.717,0.002-34.077c-0.001-0.684,0.19-0.857,0.86-0.849c2.65,0.038,5.302,0.046,7.951-0.004
	c0.756-0.015,0.886,0.231,0.883,0.924C153.912,74.822,153.924,80.502,153.924,86.182L153.924,86.182z M149.127,56.248
	c1.373,0,2.747,0.024,4.12-0.011c0.542-0.015,0.697,0.147,0.691,0.69c-0.031,2.197-0.031,4.395,0,6.591
	c0.008,0.581-0.156,0.765-0.748,0.76c-2.747-0.03-5.494-0.027-8.24-0.002c-0.549,0.005-0.703-0.179-0.696-0.712
	c0.023-2.231,0.023-4.462,0-6.694c-0.007-0.509,0.17-0.641,0.651-0.632C146.311,56.264,147.72,56.248,149.127,56.248z"/>
<path fill="#868889" d="M113.21,83.915c0.067,0.288,0.042,0.632-0.249,0.679c-0.202,0.034-0.132-0.298-0.098-0.482L113.21,83.915z"
	/>
<path fill="#FEFEFE" d="M156.598,142.483c-0.031,2.817-0.017,5.637-0.384,8.438c-0.072,0.543-0.195,1.079-0.364,1.602
	c-0.402,1.246-1.017,1.684-2.261,1.677c-1.22-0.011-1.91-0.486-2.288-1.682c-0.494-1.555-0.574-3.18-0.612-4.789
	c-0.104-4.297-0.199-8.593,0.147-12.885c0.077-0.96,0.233-1.904,0.57-2.813c0.367-0.989,1.071-1.434,2.131-1.44
	c1.094-0.007,1.858,0.424,2.243,1.449c0.404,1.069,0.555,2.199,0.611,3.331C156.513,137.74,156.656,140.108,156.598,142.483
	L156.598,142.483z M285.713,91.995c0,1.029,0.03,2.058-0.007,3.086c-0.047,1.274-0.643,2.221-1.839,2.732
	c-1.31,0.56-2.491,0.071-2.819-1.296c-0.519-2.154-0.598-4.353-0.08-6.522c0.413-1.734,2.929-2.748,4.51-1.903
	c0.339,0.181,0.231,0.464,0.232,0.713c0.014,1.063,0.007,2.126,0.007,3.19H285.713z M234.308,136.457
	c0,0.825-0.025,1.651,0.011,2.475c0.021,0.518-0.114,0.733-0.68,0.716c-1.271-0.035-2.543-0.037-3.813-0.002
	c-0.559,0.018-0.696-0.198-0.683-0.72c0.055-2.023-0.093-4.055,0.19-6.075c0.054-0.407,0.112-0.819,0.232-1.212
	c0.333-1.086,1.086-1.619,2.222-1.625c1.085-0.011,1.752,0.572,2.06,1.542C234.353,133.148,234.298,134.809,234.308,136.457
	L234.308,136.457z"/>
</svg>
