<svg xmlns="http://www.w3.org/2000/svg" width="400" height="216"><path fill="#004A8E" d="M144.966 99.227h-1.546c-6.039 0-12.078-.015-18.116.02-.739.004-.889-.207-.875-.898.044-2.21.033-4.421.005-6.631-.007-.558.074-.787.729-.785 10.109.024 20.22.023 30.33.001.631-.001.749.19.739.772a265.211 265.211 0 0 0-.002 6.793c.007.525-.159.907-.49 1.3-6.575 7.814-13.138 15.637-19.701 23.459-.235.279-.459.568-.708.879.347.196.645.111.925.111 6.12.006 12.24.017 18.36-.014.669-.002.854.153.837.834a179.042 179.042 0 0 0-.006 6.389c.006.515-.114.688-.66.686a9685.027 9685.027 0 0 0-30.492 0c-.549.002-.676-.178-.67-.695.024-2.211.028-4.422-.002-6.631-.008-.494.231-.807.51-1.133l13.42-15.751 7.413-8.706zM71.708 69.134V80.28c0 5.311-.004 10.621.005 15.931 0 .497-.085.937-.341 1.378a8899.19 8899.19 0 0 0-10.474 18.182c-.204.356-.438.647-.813.858-7.961 4.502-15.916 9.017-23.871 13.526-.133.074-.269.145-.604.324 12.05-20.597 23.991-41.009 35.935-61.422.054.027.109.052.163.077z"/><path fill="#1190CF" d="M108.601 132.145H36.782c.019-.281.244-.308.391-.391 7.913-4.497 15.83-8.988 23.742-13.486a2.062 2.062 0 0 1 1.07-.279c7.064.009 14.131.008 21.195.002.357 0 .676.057.999.238 7.962 4.522 15.93 9.033 23.895 13.549.151.085.29.201.527.367z"/><path fill="#40C7F3" d="M73.603 68.962c11.99 20.476 23.896 40.811 35.804 61.145l-.173.166c-.596-.334-1.192-.662-1.785-.998-7.377-4.188-14.751-8.379-22.136-12.553a2.56 2.56 0 0 1-1.004-.994c-3.49-6.068-6.996-12.13-10.5-18.191-.166-.286-.271-.568-.271-.91.007-9.111.007-18.221.009-27.332 0-.053.016-.105.056-.333z"/><path fill="#004A8E" d="M253.327 103.708c0-6.203.009-12.405-.015-18.607-.002-.61.121-.818.778-.803 2.104.047 4.207.035 6.312.005.501-.007.686.151.79.633.38 1.762.819 3.511 1.204 5.271.119.544.315.77.938.762 2.966-.042 5.933-.003 8.897-.033.563-.005.724.136.716.708a238.797 238.797 0 0 0-.002 6.876c.007.555-.124.73-.704.723-2.589-.033-5.179.003-7.768-.027-.581-.007-.784.11-.78.745.025 6.067.011 12.134.021 18.202.001.916.111 1.824.407 2.703.594 1.765 1.896 2.828 3.759 2.931 1.424.078 2.854.082 4.283.063.567-.008.797.093.784.739-.045 2.292-.026 4.585-.01 6.876.005.453-.056.678-.602.672-3.315-.047-6.634.035-9.945-.095-5.133-.202-8.313-3.266-8.918-8.369a22.785 22.785 0 0 1-.149-2.661c.006-5.773.004-11.543.004-17.314z"/><path fill="#ECC206" d="M62.787 116.163l9.801-16.98c.216.344.387.598.54.861 2.959 5.125 5.92 10.25 8.864 15.382.131.229.778.733-.181.734-6.275.006-12.551.003-19.024.003z"/><path fill="#004A8E" d="M326.003 119.746c0-8.736.008-17.472-.016-26.207-.002-.678.151-.971.865-1.097 6.681-1.181 13.397-1.826 20.181-1.314 3.192.241 6.271 1.001 9.098 2.577 3.868 2.158 6.288 5.476 7.313 9.716 1.497 6.192 1.258 12.364-1.004 18.35-2.053 5.435-6.148 8.575-11.758 9.764-4.656.986-9.261.893-13.688-1.106-.77-.348-.569.207-.569.554-.007 5.043-.021 10.086.014 15.127.005.752-.202.938-.938.928a298.782 298.782 0 0 0-8.573-.002c-.718.01-.944-.153-.941-.918.027-8.794.016-17.582.016-26.372zm10.403.94c-.004.51.174.771.613.987 2.007.979 4.123 1.526 6.34 1.754 5.169.53 8.662-1.853 9.954-6.866.775-3.008.899-6.067.469-9.135-.635-4.523-3.498-7.401-7.775-7.898-2.883-.335-5.745-.06-8.615.217-.885.086-.996.467-.987 1.224.035 3.232.016 6.465.016 9.697-.003 3.339.009 6.68-.015 10.02zm-53.469-19.55c0-2.632.007-5.241-.008-7.851-.002-.318.142-.415.404-.474 7.245-1.621 14.524-2.619 21.932-1.165 1.643.323 3.227.856 4.713 1.637 4.116 2.163 6.163 5.704 6.228 10.226.131 9.353.051 18.708.073 28.061.001.488-.182.574-.609.569a188.725 188.725 0 0 0-4.934.001c-.415.004-.704-.139-.985-.43-.9-.93-1.855-1.807-2.727-2.764-.403-.441-.668-.392-1.124-.104-5.852 3.701-12.138 4.15-18.617 2.197-4.612-1.391-7.007-4.766-7.568-9.484-.32-2.688-.184-5.334 1.075-7.802 1.598-3.131 4.38-4.727 7.615-5.648 3.665-1.045 7.422-1.221 11.209-1.042 1.91.09 3.811.297 5.692.636.404.073.534.006.526-.408-.021-.997.026-1.997-.023-2.991-.119-2.288-1.37-3.731-3.488-4.452-2.321-.79-4.723-.675-7.12-.544-4.019.218-7.969.869-11.877 1.796-.103.026-.211.022-.387.036zm22.902 14.352c.021-.488-.171-.674-.622-.729-1.095-.137-2.185-.344-3.282-.438-2.549-.215-5.104-.446-7.644.094-1.604.342-3.034.99-3.813 2.561-1.574 3.178.225 6.859 3.708 7.459 3.87.665 7.405-.332 10.717-2.352.706-.432 1.025-.911.938-1.742-.072-.693-.016-1.4-.016-2.102.003-.919-.026-1.837.014-2.751zm-120.289-.27c-4.26 0-8.521.022-12.781-.021-.786-.01-.92.228-.852.942.309 3.242 2.07 5.345 5.027 6.521 2.104.836 4.315 1.104 6.564 1.161 4.353.115 8.663-.269 12.941-1.037.594-.106.668.059.663.574a343.27 343.27 0 0 0 .003 6.957c.006.516-.171.68-.666.771-3.506.657-7.042.911-10.604 1.002-3.435.088-6.834-.064-10.192-.84-7.714-1.777-12.535-6.938-13.76-14.747-.729-4.661-.663-9.292.662-13.846 1.624-5.587 5.231-9.24 10.873-10.776 4.613-1.256 9.281-1.299 13.916-.204 6.534 1.545 10.288 5.813 11.617 12.313.72 3.52.684 7.063.316 10.619-.059.559-.318.617-.783.615-4.315-.01-8.629-.004-12.944-.004zm1.666-7.28c2.354 0 2.354 0 2.025-2.37-.458-3.306-2.388-5.433-5.644-6.142a13.022 13.022 0 0 0-5.373-.026c-1.196.24-2.307.719-3.263 1.51-1.983 1.641-2.662 3.898-3.023 6.317-.082.552.056.733.65.726 2.667-.034 5.333-.015 8-.015h6.628zm38.33-17.127c3.492.059 6.806.389 9.962 1.632 4.505 1.773 7.616 4.947 9.123 9.535 2.063 6.273 2.074 12.632.072 18.909-1.729 5.414-5.555 8.825-11.003 10.307-5.306 1.44-10.671 1.449-15.972-.008-6.049-1.666-9.853-5.676-11.426-11.713-1.39-5.336-1.4-10.728.027-16.06 1.796-6.705 6.294-10.566 13.01-11.977 2.093-.439 4.215-.559 6.207-.625zm9.807 16.449c-.418-2.348-1.198-4.54-3.021-6.196-1.977-1.798-4.392-2.252-6.97-2.221-4.604.054-7.746 2.393-8.914 6.83-1.025 3.903-.976 7.842.046 11.744.521 1.991 1.493 3.748 3.174 5.03 1.919 1.464 4.146 1.841 6.481 1.804 4.279-.067 7.241-2.24 8.609-6.281.718-2.121.883-4.313.928-5.999.015-1.933-.087-3.33-.333-4.711z"/></svg>