<svg xmlns="http://www.w3.org/2000/svg" width="400" height="216" viewBox="165 142 400 216"><path d="M402.605 275.582l-50.047-86.98 35.955-20.65 62.233 107.63h-48.141M269.3 263.396l35.955-20.791 19.024 32.978h-48.001l-6.977-12.187m70.559 67.676h10.233v-41.396H339.86v41.396zm128.234.976c-11.441 0-18.325-5.907-18.697-14.232h10.79c0 2.604 1.629 6.418 8.605 6.558 4.65 0 6.837-2.744 6.837-4.79-.278-3.257-4.372-3.535-8.744-4.233-4.372-.697-8.093-1.488-10.791-2.884-3.441-1.768-5.768-5.581-5.768-9.953 0-7.396 6.419-13.256 17.117-13.256 10.372 0 16.93 5.44 17.628 13.535h-10.42c-.092-2.187-.511-5.628-6.65-5.628-4.14 0-6.884.837-7.116 3.72 0 4.233 8.604 3.954 15.303 5.722 6.419 1.628 10.512 5.628 10.512 11.21 0 10.278-8.326 14.23-18.606 14.23M480 277.21c2.467 0 4.699 2.093 4.699 4.604 0 2.466-2.232 4.559-4.698 4.559-2.465 0-4.512-2.093-4.512-4.56 0-2.51 2.047-4.603 4.512-4.603zm0-.697c-2.883 0-5.208 2.37-5.208 5.302 0 2.884 2.325 5.256 5.209 5.256 2.93 0 5.396-2.372 5.396-5.256 0-2.931-2.465-5.302-5.396-5.302zm1.257 5.487c.512-.186.884-.744.884-1.488 0-1.116-.884-1.628-1.953-1.628h-2v5.814h.93v-2.372h1.256c.698 0 .884.559.884 1.675 0 .325 0 .51.187.697h.884c-.187-.372-.187-.884-.187-1.628-.001-.93-.513-1.07-.885-1.07zm-2.138-2.232h1.255c.512 0 .884.373.884.93s-.744.745-1.256.745h-.883v-1.675M311.44 226.465l35.955-20.745 40.326 69.862h-37.628v10.232H339.86v-10.28l-28.42-49.07m.93 105.584c-11.906 0-21.581-9.722-21.581-21.488 0-11.907 9.674-21.303 21.582-21.303 4.512 0 8.605 1.209 12.187 3.674v-17.35h10.233v55.49h-10.233v-2.744c-3.582 2.326-7.675 3.72-12.187 3.72zm-11.767-21.488c0 6.419 5.488 11.767 12.047 11.767 6.419 0 11.907-5.348 11.907-11.767s-5.488-11.907-11.907-11.907c-6.558 0-12.047 5.488-12.047 11.907M388 275.582h10.093v55.489H388v-2.744c-3.442 2.325-7.675 3.72-12.326 3.72-11.767 0-21.442-9.721-21.442-21.487 0-11.907 9.675-21.303 21.442-21.303 4.65 0 8.745 1.209 12.326 3.674v-17.35zm-23.814 34.978c0 6.419 5.488 11.767 11.768 11.767 6.559 0 12.047-5.348 12.047-11.767s-5.488-11.907-12.047-11.907c-6.28 0-11.768 5.488-11.768 11.907m58.792 21.488c-11.722 0-21.442-9.722-21.442-21.488 0-11.907 9.72-21.303 21.442-21.303 4.512 0 8.744 1.209 12.186 3.674v-3.302h10.233v41.442h-10.233v-2.744c-3.442 2.326-7.536 3.72-12.186 3.72zm-11.49-21.488c0 6.419 5.49 11.767 11.908 11.767 6.419 0 11.768-5.348 11.768-11.767s-5.35-11.907-11.768-11.907c-6.418 0-11.907 5.488-11.907 11.907m-158.329 0c0 6.419 5.489 11.767 11.908 11.767 6.558 0 12.047-5.348 12.047-11.767s-5.49-11.907-12.047-11.907c-6.42 0-11.907 5.488-11.907 11.907zm11.629 21.488c-11.768 0-21.49-9.722-21.49-21.488 0-11.907 9.722-21.303 21.49-21.303 4.512 0 8.744 1.209 12.326 3.674v-3.302h10.093v41.442h-10.093v-2.744c-3.442 2.326-7.675 3.72-12.326 3.72"/></svg>