<svg xmlns="http://www.w3.org/2000/svg" width="400" height="216" viewBox="-128.5 -90.501 400 216"><path fill="#B95A84" d="M-93 57.757h329v-80.519H-93v80.519z"/><path d="M-73.993 32.854L-60.61 1.872h6.692l13.383 30.982h-7.355l-2.88-6.687h-12.985l-2.878 6.687h-7.361zm12.853-12.775h7.759l-3.851-8.988-3.908 8.988zm29.57 12.775V1.872h9.362l7.967 17.009 8.03-17.009h9.305v30.982H-3.83V13.351l-8.37 16.935h-4.116l-8.31-16.935v19.503h-6.945zm43.643 0L25.438 1.872h6.71l13.36 30.982h-7.357l-2.86-6.687H22.307l-2.882 6.687h-7.352zm12.849-12.775h7.743l-3.85-8.988-3.893 8.988zm29.566 12.775V1.872h6.92V14.59l11.69-12.718h8.58L69.345 15.561c1.054 1.467 3.016 4.221 5.904 8.278 2.859 4.014 4.98 7.046 6.434 9.015h-8.067L64.5 20.634l-3.09 3.407v8.808l-6.922.005zm36.419-13.668V1.874h6.926v17.125c0 2.45.584 4.404 1.706 5.86 1.178 1.415 2.73 2.161 4.677 2.161 1.942 0 3.493-.748 4.612-2.161 1.16-1.456 1.734-3.401 1.734-5.86V1.874h6.877v17.312c0 4.487-1.244 7.947-3.728 10.332-2.453 2.428-5.64 3.644-9.501 3.644-3.864 0-7.05-1.221-9.547-3.664-2.501-2.4-3.756-5.856-3.756-10.312zm39.126 13.668V1.872h11.758c4.819 0 8.22.814 10.3 2.441 2.032 1.628 3.048 4.239 3.048 7.856 0 4.962-1.957 8.167-5.871 9.589l7.813 11.1H148.6l-6.851-9.895h-4.791v9.89h-6.925zm6.936-15.859h5.01c2.396 0 4.007-.399 4.838-1.154.867-.775 1.285-2.001 1.285-3.663 0-1.679-.431-2.82-1.325-3.444-.854-.598-2.425-.913-4.651-.913h-5.163v9.175l.006-.001zm30.657 15.859V1.872h6.944v30.982h-6.944zm15.923 0l13.344-30.982h6.713l13.383 30.982h-7.36l-2.876-6.687h-12.964l-2.886 6.687h-7.354zm12.849-12.775h7.739l-3.852-8.988-3.887 8.988z" fill="#FFF"/></svg>