<?xml version="1.0" encoding="utf-8"?>
<!-- Generator: Adobe Illustrator 16.0.3, SVG Export Plug-In . SVG Version: 6.00 Build 0)  -->
<!DOCTYPE svg PUBLIC "-//W3C//DTD SVG 1.1//EN" "http://www.w3.org/Graphics/SVG/1.1/DTD/svg11.dtd">
<svg version="1.1" id="Ebene_1" xmlns:serif="http://www.serif.com/"
	 xmlns="http://www.w3.org/2000/svg" xmlns:xlink="http://www.w3.org/1999/xlink" x="0px" y="0px" width="400px" height="216px"
	 viewBox="0 0 400 216" enable-background="new 0 0 400 216" xml:space="preserve">
<g id="XMLID_1_">
	<path id="XMLID_131_" fill="#2C3B43" d="M185.744,54.349c0-1.395-1.128-2.534-2.506-2.534c-0.627,0-1.222,0.222-1.661,0.633
		l-0.062,0.031l-8.178,7.35c-0.062,0.063-0.125,0.127-0.188,0.19c-0.438,0.349-0.971,0.539-1.535,0.539
		c-0.407,0-0.814-0.095-1.16-0.285c-0.063-0.031-0.125-0.063-0.156-0.095l-0.345-0.19l-48.752-28.636l-0.126-0.095
		c-0.345-0.19-0.752-0.285-1.19-0.285c-0.47,0-0.909,0.127-1.285,0.38L55.152,68.572c-0.032,0.032-0.063,0.032-0.094,0.063
		c-0.72,0.444-1.19,1.236-1.19,2.187v90.693c0,1.394,1.128,2.534,2.506,2.534c0.595,0,1.159-0.222,1.598-0.57l0.094-0.096
		l8.241-7.412c0.438-0.412,1.034-0.665,1.692-0.665c0.408,0,0.814,0.096,1.159,0.285c0.031,0.031,0.094,0.031,0.125,0.063h0.031
		l0.376,0.223l48.94,28.731l0.125,0.063c0.345,0.191,0.752,0.317,1.191,0.317c0.375,0,0.751-0.094,1.065-0.253l0.313-0.19
		l63.009-36.999l0.375-0.223c0.658-0.443,1.065-1.203,1.065-2.091L185.744,54.349L185.744,54.349z M169.953,136.015
		c0,0.855-0.439,1.614-1.065,2.06c-0.126,0.094-0.25,0.156-0.376,0.222l-47.25,27.749c-0.093,0.062-0.188,0.127-0.281,0.158h-0.032
		c-0.313,0.158-0.689,0.253-1.065,0.253c-0.439,0-0.846-0.126-1.19-0.317c-0.032-0.032-0.095-0.032-0.126-0.063l-36.752-21.572
		l-0.25-0.159c-0.345-0.157-0.721-0.253-1.097-0.253c-0.658,0-1.222,0.253-1.692,0.666l-4.794,4.308
		c-0.093,0.095-0.188,0.189-0.313,0.284c-0.407,0.317-0.94,0.508-1.504,0.508c-1.379,0-2.506-1.141-2.506-2.535V80.356v-0.569
		c0.094-0.761,0.5-1.458,1.127-1.87c0.063-0.063,0.157-0.095,0.219-0.126l47.625-27.94c0.375-0.221,0.814-0.38,1.284-0.38
		c0.439,0,0.847,0.126,1.191,0.317l36.627,21.509l0.376,0.221c0.313,0.159,0.689,0.254,1.064,0.254c0.534,0,1.066-0.191,1.474-0.475
		l0.345-0.317l4.825-4.339c0.438-0.412,1.034-0.666,1.692-0.666c1.316,0,2.413,1.045,2.475,2.375v67.665H169.953L169.953,136.015z"
		/>
	<g id="XMLID_360_">
		<path id="XMLID_402_" fill="#2C3B43" d="M231.019,65.879c0,2.599-1.566,3.929-3.102,4.625c2.318,0.697,4.197,2.059,4.197,4.815
			c0,3.421-2.818,5.449-7.111,5.449h-8.71v-19.83h8.334C228.48,60.906,231.019,62.838,231.019,65.879z M228.763,66.196
			c0-1.996-1.535-3.263-4.355-3.263h-5.952v6.843h5.795C226.914,69.745,228.763,68.541,228.763,66.196z M229.859,75.161
			c0-2.186-1.786-3.421-5.201-3.421h-6.203v7.001h6.578C228.012,78.741,229.859,77.411,229.859,75.161z"/>
		<path id="XMLID_400_" fill="#2C3B43" d="M244.867,81.084c-5.671,0-9.838-4.498-9.838-10.231c0-5.67,4.136-10.295,9.933-10.295
			c3.571,0,5.702,1.267,7.645,3.136l-1.504,1.647c-1.66-1.583-3.51-2.725-6.173-2.725c-4.355,0-7.582,3.548-7.582,8.172
			c0,4.625,3.29,8.206,7.582,8.206c2.695,0,4.45-1.046,6.329-2.852l1.442,1.458C250.664,79.691,248.408,81.084,244.867,81.084z"/>
		<path id="XMLID_398_" fill="#2C3B43" d="M264.638,81.084c-6.172,0-9.964-4.529-9.964-10.231c0-5.48,3.948-10.295,9.839-10.295
			c3.321,0,5.358,0.951,7.301,2.629l-1.442,1.71c-1.504-1.33-3.194-2.281-5.953-2.281c-4.354,0-7.457,3.707-7.457,8.172
			c0,4.752,3.009,8.268,7.771,8.268c2.255,0,4.323-0.887,5.671-1.996v-4.941h-5.954v-1.996h8.084v7.888
			C270.717,79.691,267.96,81.084,264.638,81.084z"/>
		<path id="XMLID_395_" fill="#2C3B43" d="M224.438,112.225h-8.114V90.176h8.114c6.861,0,11.594,4.752,11.594,10.992
			C236,107.409,231.27,112.225,224.438,112.225z M224.438,93.724h-4.291v14.984h4.291c4.575,0,7.552-3.105,7.552-7.444
			C231.99,96.924,229.014,93.724,224.438,93.724z"/>
		<path id="XMLID_392_" fill="#2C3B43" d="M239.698,93.059v-3.612h4.041v3.612H239.698z M239.854,112.225V95.593h3.76v16.631
			H239.854z"/>
		<path id="XMLID_389_" fill="#2C3B43" d="M255.02,117.324c-2.694,0-5.232-0.696-7.363-1.995l1.41-2.852
			c1.754,1.109,3.603,1.774,5.859,1.774c3.353,0,5.2-1.774,5.2-5.101v-1.299c-1.378,1.806-3.07,3.042-5.797,3.042
			c-3.854,0-7.456-2.851-7.456-7.793c0-4.941,3.634-7.824,7.456-7.824c2.758,0,4.481,1.299,5.767,2.82v-2.471h3.76v13.209
			C263.887,114.694,260.69,117.324,255.02,117.324L255.02,117.324z M255.333,98.477c-2.602,0-4.669,1.836-4.669,4.592
			c0,2.756,2.1,4.625,4.669,4.625c2.601,0,4.825-1.869,4.825-4.594C260.158,100.281,257.965,98.477,255.333,98.477z"/>
		<path id="XMLID_386_" fill="#2C3B43" d="M268.022,93.059v-3.612h4.041v3.612H268.022z M268.178,112.225V95.593h3.761v16.631
			H268.178z"/>
		<path id="XMLID_384_" fill="#2C3B43" d="M280.617,107.029c0,1.489,0.752,2.09,2.036,2.09c0.847,0,1.6-0.189,2.351-0.57v3.105
			c-0.94,0.538-2.006,0.854-3.384,0.854c-2.758,0-4.731-1.235-4.731-4.878v-8.743h-2.1v-3.263h2.1v-4.562h3.76v4.562h4.419v3.263
			h-4.45V107.029L280.617,107.029z"/>
		<path id="XMLID_381_" fill="#2C3B43" d="M298.351,112.225v-2.061c-1.128,1.363-2.819,2.408-5.326,2.408
			c-3.103,0-5.858-1.805-5.858-5.131v-0.064c0-3.58,2.819-5.353,6.673-5.353c2.005,0,3.259,0.285,4.544,0.697v-0.412
			c0-2.313-1.44-3.548-4.043-3.548c-1.849,0-3.195,0.412-4.698,1.045l-1.035-3.042c1.818-0.822,3.572-1.393,6.267-1.393
			c4.856,0,7.237,2.565,7.237,7.032v9.852h-3.76V112.225z M298.444,105.16c-0.97-0.38-2.317-0.665-3.759-0.665
			c-2.381,0-3.76,0.981-3.76,2.66v0.064c0,1.583,1.41,2.47,3.164,2.47c2.476,0,4.354-1.425,4.354-3.485V105.16L298.444,105.16z"/>
		<rect id="XMLID_379_" x="306.246" y="89.258" fill="#2C3B43" width="3.76" height="22.967"/>
		<path id="XMLID_377_" fill="#2C3B43" d="M231.771,121.664h4.136l-9.054,22.206h-3.354l-9.055-22.206h4.229l6.58,16.946
			L231.771,121.664L231.771,121.664z"/>
		<path id="XMLID_374_" fill="#2C3B43" d="M244.305,140.955c1.848,0,3.132-0.696,4.448-1.995l2.225,1.995
			c-1.566,1.901-3.697,3.105-6.736,3.105c-4.763,0-8.428-3.485-8.428-8.648c0-4.782,3.32-8.68,8.021-8.68
			c5.232,0,7.863,4.15,7.863,8.965c0,0.349-0.031,0.665-0.063,1.045h-12.063C240.011,139.435,241.891,140.955,244.305,140.955
			L244.305,140.955z M248.001,134.208c-0.25-2.471-1.692-4.37-4.167-4.37c-2.319,0-3.918,1.805-4.262,4.37H248.001z"/>
		<path id="XMLID_372_" fill="#2C3B43" d="M258.779,143.68h-3.76v-16.63h3.76v2.564c1.064-1.583,2.568-2.913,5.139-2.913
			c3.696,0,5.858,2.503,5.858,6.398v10.58h-3.76v-9.439c0-2.566-1.284-4.055-3.509-4.055c-2.193,0-3.697,1.552-3.697,4.117v9.377
			H258.779L258.779,143.68z"/>
		<path id="XMLID_370_" fill="#2C3B43" d="M278.078,138.484c0,1.489,0.753,2.091,2.038,2.091c0.846,0,1.598-0.19,2.35-0.57v3.104
			c-0.94,0.539-2.005,0.856-3.383,0.856c-2.759,0-4.731-1.236-4.731-4.88v-8.742h-2.1v-3.263h2.1v-4.562h3.759v4.562h4.387v3.263
			h-4.419V138.484L278.078,138.484z"/>
		<path id="XMLID_368_" fill="#2C3B43" d="M296.346,127.081h3.76v16.631h-3.76v-2.567c-1.064,1.585-2.57,2.916-5.139,2.916
			c-3.696,0-5.858-2.503-5.858-6.4v-10.579h3.759v9.44c0,2.564,1.285,4.054,3.51,4.054c2.194,0,3.697-1.552,3.697-4.119v-9.375
			H296.346L296.346,127.081z"/>
		<path id="XMLID_366_" fill="#2C3B43" d="M308.095,143.68h-3.759v-16.63h3.759v3.769c1.035-2.47,2.915-4.182,5.829-4.054v4.022
			h-0.22c-3.29,0-5.609,2.186-5.609,6.589V143.68L308.095,143.68z"/>
		<path id="XMLID_363_" fill="#2C3B43" d="M323.918,140.955c1.849,0,3.133-0.696,4.448-1.995l2.226,1.995
			c-1.567,1.901-3.697,3.105-6.737,3.105c-4.761,0-8.428-3.485-8.428-8.648c0-4.782,3.321-8.68,8.021-8.68
			c5.232,0,7.865,4.15,7.865,8.965c0,0.349-0.032,0.665-0.063,1.045h-12.095C319.626,139.435,321.506,140.955,323.918,140.955
			L323.918,140.955z M327.584,134.208c-0.251-2.471-1.691-4.37-4.167-4.37c-2.319,0-3.916,1.805-4.262,4.37H327.584L327.584,134.208
			z"/>
		<path id="XMLID_361_" fill="#2C3B43" d="M340.053,143.997c-2.349,0-4.918-0.855-6.985-2.472l1.692-2.565
			c1.785,1.362,3.696,2.059,5.389,2.059c1.629,0,2.536-0.696,2.536-1.806v-0.063c0-1.3-1.754-1.743-3.664-2.345
			c-2.444-0.697-5.139-1.71-5.139-4.878v-0.063c0-3.137,2.569-5.068,5.859-5.068c2.067,0,4.291,0.729,6.047,1.9l-1.505,2.692
			c-1.599-0.98-3.258-1.583-4.638-1.583c-1.472,0-2.317,0.696-2.317,1.678v0.063c0,1.204,1.786,1.711,3.697,2.345
			c2.412,0.76,5.106,1.869,5.106,4.847v0.063C346.163,142.286,343.469,143.997,340.053,143.997L340.053,143.997z"/>
	</g>
</g>
</svg>
