<?xml version="1.0" encoding="utf-8"?>
<!-- Generator: Adobe Illustrator 16.0.3, SVG Export Plug-In . SVG Version: 6.00 Build 0)  -->
<!DOCTYPE svg PUBLIC "-//W3C//DTD SVG 1.1//EN" "http://www.w3.org/Graphics/SVG/1.1/DTD/svg11.dtd">
<svg version="1.1" id="Ebene_1" xmlns="http://www.w3.org/2000/svg" xmlns:xlink="http://www.w3.org/1999/xlink" x="0px" y="0px"
	 width="400px" height="216px" viewBox="106 288 400 216" enable-background="new 106 288 400 216" xml:space="preserve">
<title>brickblock_logo_for_dark_background</title>
<g id="Ebene_2">
	<g id="Ebene_1-2">
		<g id="Ebene_2-2">
			<g id="Ebene_1-2-2">
				<polygon points="142.767,426.807 169.913,413.229 169.913,379.823 142.767,393.393 				"/>
				<polygon points="114.707,378.764 140.809,365.194 168.993,378.764 141.854,392.341 				"/>
				<path d="M206.244,374.478h21.863c7.914,0,11.93,5.044,11.93,10.591c0,5.237-3.242,8.727-7.164,9.531
					c4.425,0.681,7.976,4.982,7.976,10.211c0,6.189-4.169,11.21-12.084,11.21h-22.52V374.478z M226.18,391.173
					c2.995,0,4.859-1.934,4.859-4.642c0-2.553-1.864-4.549-4.859-4.549h-11.094v9.191H226.18z M226.49,408.486
					c3.366,0,5.354-1.934,5.354-4.92c0-2.615-1.872-4.858-5.354-4.858h-11.403v9.81L226.49,408.486z"/>
				<path d="M247.223,385.943h7.915v4.116c2.348-2.918,5.85-4.669,9.593-4.797v7.737c-0.716-0.163-1.448-0.246-2.182-0.248
					c-2.615,0-6.104,1.493-7.411,3.427v19.851h-7.915V385.943z"/>
				<path d="M268.715,377.348c0-2.615,2.12-4.734,4.735-4.734c2.615,0,4.734,2.12,4.734,4.734s-2.12,4.735-4.734,4.735l0,0l0,0
					C270.844,382.062,268.736,379.954,268.715,377.348z M269.488,385.943h7.915v30.086h-7.883L269.488,385.943z"/>
				<path d="M299.173,385.192c6.189,0,9.903,2.677,11.898,5.416l-5.167,4.858c-1.409-2.112-3.814-3.34-6.352-3.242
					c-4.796,0-8.162,3.489-8.162,8.727c0,5.238,3.365,8.781,8.162,8.781c2.524,0.042,4.905-1.174,6.352-3.241l5.167,4.796
					c-1.995,2.801-5.732,5.485-11.898,5.485c-9.284,0-15.944-6.537-15.944-15.821C283.228,391.668,289.889,385.192,299.173,385.192z
					"/>
				<path d="M327.635,404.44l-3.613,3.868v7.736h-7.914v-41.567h7.914v24.857l11.403-13.392h9.717l-11.906,13.639l12.271,16.447
					h-9.903L327.635,404.44z"/>
				<path d="M349.304,374.478h7.915v15.326c2.191-2.922,5.631-4.642,9.283-4.642c7.659,0,13.33,5.98,13.33,15.821
					c0,10.057-5.733,15.759-13.33,15.759c-3.649-0.012-7.084-1.729-9.283-4.642v3.868h-7.915V374.478z M364.003,409.74
					c4.642,0,7.659-3.489,7.659-8.727c0-5.238-3.094-8.781-7.659-8.781c-2.68,0.058-5.184,1.345-6.793,3.489v10.653
					C358.852,408.464,361.347,409.7,364.003,409.74z"/>
				<path d="M385.681,374.478h7.914v41.552h-7.914V374.478z"/>
				<path d="M399.406,400.951c0-8.51,5.979-15.759,15.882-15.759c9.903,0,15.945,7.226,15.945,15.759s-5.98,15.821-15.945,15.821
					C405.323,416.772,399.406,409.555,399.406,400.951z M423.017,400.951c0-4.642-2.802-8.727-7.737-8.727s-7.658,4.046-7.658,8.727
					c0,4.681,2.738,8.781,7.658,8.781C420.2,409.732,423.017,405.687,423.017,400.951z"/>
				<path d="M450.952,385.192c6.189,0,9.902,2.677,11.898,5.416l-5.168,4.858c-1.409-2.112-3.813-3.34-6.352-3.242
					c-4.796,0-8.161,3.489-8.161,8.727c0,5.238,3.365,8.781,8.161,8.781c2.524,0.042,4.904-1.174,6.352-3.241l5.168,4.796
					c-1.995,2.801-5.732,5.485-11.898,5.485c-9.283,0-15.944-6.537-15.944-15.821C435.008,391.668,441.669,385.192,450.952,385.192z
					"/>
				<path d="M479.414,404.44l-3.612,3.868v7.736h-7.914v-41.567h7.914v24.857l11.403-13.392h9.678l-11.859,13.639l12.27,16.447
					h-9.902L479.414,404.44z"/>
			</g>
		</g>
	</g>
</g>
</svg>
