<svg xmlns="http://www.w3.org/2000/svg" width="400" height="216" viewBox="0 92 400 216"><path fill="#009DE1" d="M82.625 243.529c-16.313 4.464-30.974 1.014-43.172-10.439-13.465-12.642-17.795-28.523-12.475-46.229 5.359-17.827 17.896-28.535 36.17-31.742 14.195-2.491 26.866 1.611 37.771 11.102 1.292 1.125 1.467 1.777.135 3.058-4.422 4.248-8.737 8.608-13.021 12.997-.989 1.012-1.571 1.155-2.769.188-14.534-11.749-34.94-3.931-37.702 14.551-1.201 8.033 1.72 14.829 7.723 20.272 1.045.945 2.219 1.75 3.333 2.617 7.951 7.928 15.569 16.194 24.007 23.625zm75.086-51.287c1.413.449 2.837.867 4.236 1.353 8.536 2.958 14.355 8.531 15.962 17.623 1.867 10.56-.781 19.781-9.292 26.783-5.532 4.554-12.139 6.635-19.148 7.261-14.823 1.322-28.682-1.08-40.515-10.986-1.801-1.506-2.438-2.409-.317-4.336 4.207-3.822 8.159-7.934 12.091-12.047 1.263-1.316 2.056-1.301 3.443-.188 5.578 4.477 11.839 7.148 19.164 6.615 1.143-.084 2.299-.243 3.405-.537 4.971-1.32 7.721-4.889 7.309-9.383-.375-4.092-4.042-7.455-8.879-7.7-4.701-.239-9.423-.195-14.132-.097-1.893.041-2.712-.316-2.603-2.446.202-3.901-.941-8.244.431-11.604 1.369-3.355 5.109-5.757 7.857-8.53 1.935-1.952 3.946-3.828 5.924-5.737.948-.377 1.507.3 2.043.838 4.351 4.362 8.819 8.606 13.021 13.118zm-13.315-16.011c-6.475-.523-12.962-.107-19.443-.218-3.467-.058-6.938-.104-10.401.029-1.794.067-2.234-.558-2.197-2.273.107-5.153.094-10.313.004-15.467-.027-1.578.328-2.161 2.041-2.156 18.849.058 37.697.047 56.545.017 1.47-.001 2.271.214 2.233 2.014-.114 5.42-.049 10.846-.033 16.269.002.927-.055 1.786-.996 2.283-1.827.551-3.705.34-5.563.345-6.133.02-12.268.03-18.4-.009-1.305-.007-2.701.225-3.79-.834z"/><path fill="#0089D0" d="M82.625 243.529c-1.167.062-1.963-.564-2.745-1.352-6.864-6.898-13.761-13.765-20.617-20.673-.383-.386-1.43-.676-.645-1.601 7.316 3.669 14.71 4.213 22.198.527 1.678-.826 3.297-1.795 4.588-3.141 1.037-1.08 1.631-.747 2.514.15 4.416 4.49 8.881 8.932 13.351 13.367.764.758 1.343 1.327.209 2.318-5.532 4.851-11.573 8.744-18.853 10.405z"/><path fill="#019EE1" d="M335.964 232.12c0 3.765-.06 6.784.027 9.8.039 1.423-.27 2.199-1.881 2.012-.875-.104-1.779-.082-2.661-.007-1.328.114-1.679-.536-1.672-1.735.026-6.217.031-12.435-.007-18.651-.005-1.235.417-1.666 1.686-1.761 2.642-.196 4.696.267 6.294 2.769 1.836 2.873 4.165 5.431 6.751 8.724v-7.763c0-3.862 0-3.856 4.158-3.698.981.037 2.024-.138 2.02 1.385-.021 6.482-.015 12.969-.018 19.453 0 .867-.402 1.237-1.296 1.278-2.426.109-4.554.099-6.16-2.434-1.976-3.116-4.503-5.883-7.241-9.372z"/><path fill="#009EE1" d="M263.17 233.047c0 2.813-.09 5.633.033 8.439.074 1.777-.354 2.548-2.331 2.467-4.729-.193-3.817.454-3.864-3.741-.062-5.333.053-10.67-.053-16.001-.035-1.773.353-2.404 2.295-2.48 2.461-.096 4.137.541 5.556 2.641 1.916 2.833 4.173 5.436 6.822 7.99 0-2.611.104-5.229-.033-7.834-.105-1.975.318-2.891 2.591-2.767 4.375.242 3.565-.392 3.605 3.755.051 5.066.054 10.135-.021 15.2-.016 1.043.712 2.826-.636 3.015-1.848.258-4.074 1.086-5.664-.986-2.537-3.301-5.12-6.563-7.684-9.844l-.616.146z"/><path fill="#019EE1" d="M254.554 167.166c0-3.023.04-6.047-.02-9.069-.022-1.246.386-1.729 1.681-1.714 4.801.056 9.604.107 14.403-.015 2.314-.058 1.699 1.461 1.76 2.676.067 1.353.27 2.7-1.895 2.586-2.66-.14-5.333.001-8-.046-1.149-.02-1.796.182-1.796 1.579 0 1.405.664 1.596 1.807 1.568 2.043-.05 4.099.107 6.133-.048 1.941-.147 2.604.427 2.627 2.487.022 2.188-.726 2.769-2.763 2.609-2.032-.161-4.09.028-6.131-.058-1.292-.053-1.66.42-1.67 1.681-.013 1.296.421 1.683 1.684 1.648 2.843-.076 5.693.065 8.535-.049 2.242-.091 1.583 1.503 1.504 2.537-.078 1.054 1.033 2.874-1.462 2.843a498.329 498.329 0 0 0-14.672.015c-1.493.026-1.774-.595-1.749-1.896.068-3.109.024-6.223.024-9.334zm51.977 65.588c0-2.934.075-5.867-.028-8.797-.059-1.563.31-2.225 2.041-2.182 4.616.109 9.242.137 13.86-.006 2.255-.066 1.873 1.344 1.8 2.606-.07 1.229.765 3.015-1.782 2.882-2.658-.138-5.331-.014-7.995-.037-1.083-.01-1.877.092-1.886 1.53-.005 1.379.66 1.627 1.813 1.606 2.398-.039 4.801.072 7.197-.032 2.173-.095 1.593 1.431 1.581 2.534-.011 1.09.632 2.64-1.569 2.539-2.396-.11-4.8.039-7.196-.049-1.397-.051-1.831.438-1.835 1.832-.005 1.5.813 1.494 1.871 1.483 2.757-.022 5.515.095 8.264-.039 2.166-.104 1.688 1.362 1.61 2.476-.081 1.109.843 2.856-1.564 2.827a507.97 507.97 0 0 0-14.396.011c-1.428.021-1.837-.502-1.805-1.855.07-3.106.019-6.219.019-9.329zm49.259-65.247c0-3.02.091-6.044-.034-9.059-.07-1.682.544-2.107 2.135-2.076 4.616.089 9.24.117 13.854-.009 1.916-.053 2.01.958 1.869 2.313-.13 1.247.706 3.04-1.803 2.944-2.66-.103-5.331.006-7.994-.034-1.128-.017-1.825.156-1.825 1.564-.002 1.393.66 1.604 1.809 1.581 2.31-.046 4.622.054 6.93-.03 2.151-.077 1.565 1.453 1.581 2.566.019 1.142.501 2.62-1.642 2.502-2.126-.118-4.264-.033-6.395-.022-1.109.007-2.28-.331-2.305 1.588-.023 1.828.962 1.719 2.181 1.704 2.665-.034 5.335.077 7.994-.036 2.172-.092 1.669 1.425 1.572 2.516-.095 1.078.956 2.88-1.488 2.859a681.14 681.14 0 0 0-14.924.013c-1.437.018-1.545-.709-1.529-1.823.042-3.02.014-6.041.014-9.061zm-74.557 32.572c0-2.934.054-5.868-.022-8.797-.042-1.515.293-2.246 2.048-2.2 4.619.117 9.245.149 13.861-.005 2.418-.081 1.925 1.438 1.938 2.786.013 1.292.404 2.713-1.864 2.557-2.741-.19-5.511.029-8.261-.073-1.436-.055-1.527.642-1.554 1.77-.033 1.219.463 1.501 1.571 1.476 2.484-.059 4.979.071 7.461-.043 1.938-.09 1.646 1.19 1.561 2.285-.085 1.06.724 2.688-1.488 2.64-2.485-.054-4.978.051-7.463-.033-1.336-.045-1.631.504-1.646 1.724-.018 1.302.466 1.69 1.71 1.661 2.755-.066 5.516.096 8.263-.055 2.282-.123 1.809 1.381 1.783 2.627-.025 1.192.606 2.715-1.737 2.646-4.796-.144-9.599-.088-14.396-.015-1.452.022-1.816-.555-1.786-1.883.066-3.023.021-6.045.021-9.068z"/><path fill="#009EE1" d="M217.98 211.534c-5.771-.035-10.029-3.132-11.458-7.88-1.476-4.912.311-10.197 4.382-12.978 4.063-2.771 10.293-2.599 13.991.383 2.266 1.827 2.204 2.038.046 3.877-1.549 1.323-2.666 2.069-4.655.325-2.058-1.805-4.946-1.075-6.597 1.025-1.762 2.241-1.6 6.132.338 8.117 1.693 1.736 4.723 1.854 6.841.35.65-.46 1.036-1.75 2.129-1.113a22.343 22.343 0 0 1 3.663 2.643c.625.561-.162 1.104-.536 1.531-2.321 2.647-5.295 3.78-8.144 3.72zm-11.762-44.254c.024-4.916 2.446-8.634 6.812-10.455 4.296-1.792 9.635-.872 12.688 2.098 1.095 1.066 1.393 1.777-.124 2.814-1.784 1.222-3.041 2.971-5.495.616-1.774-1.701-4.857-.783-6.361 1.177-1.741 2.271-1.635 5.818.237 7.882 1.771 1.947 4.507 2.196 6.773.759.744-.47 1.095-1.953 2.294-1.298 1.312.715 2.608 1.578 3.654 2.633.777.783-.351 1.374-.815 1.877-3.085 3.329-8.258 4.338-12.778 2.555-4.408-1.737-6.91-5.61-6.885-10.658zm12.231 54.226c2.633-.068 5.291.961 7.56 3.035 1.034.943 1.379 1.781-.112 2.646-.761.442-1.465 1.018-2.104 1.627-.812.771-1.328.625-2.195-.08-2.693-2.196-5.381-2.125-7.35-.016-2.057 2.203-2.086 6.077-.063 8.295 2.01 2.2 4.763 2.176 7.587-.031 2.465-1.928 3.283 1.027 4.721 1.802 1.666.899-.095 1.798-.671 2.388-3.438 3.523-9.641 4.186-14.056 1.605-4.325-2.524-6.404-7.873-5.028-12.928 1.415-5.195 5.703-8.369 11.711-8.343z"/><path fill="#008AD0" d="M144.396 176.231c8.328 0 16.654-.014 24.981.01.934.001 1.968-.343 2.771.488l-14.437 15.51c-1.225-.046-1.776-1.069-2.526-1.777-4.235-4-8.026-8.458-12.538-12.177l1.749-2.054z"/><path fill="#009DE1" d="M353.086 156.403c-2.895 7.195-5.651 13.987-8.341 20.805-.405 1.025-1.03 1.413-2.005 1.226-1.549-.295-3.754 1.035-4.579-.882-2.972-6.886-5.653-13.894-8.563-21.148 1.942 0 3.535.085 5.112-.024 1.398-.099 2.009.448 2.449 1.772 1.247 3.739 2.67 7.419 4.246 11.733 1.475-4.052 2.855-7.385 3.877-10.826.646-2.178 1.756-2.981 3.946-2.682 1.127.153 2.293.026 3.858.026z"/><path fill="#029EE1" d="M364.777 221.813c2.573 0 5.149.08 7.719-.021 2.491-.098 1.747 1.68 1.775 2.93.03 1.202.574 2.653-1.727 2.704-4.793.11-4.791.229-4.791 5.158 0 3.106-.077 6.216.03 9.315.062 1.705-.643 2.205-2.198 2.028a9.09 9.09 0 0 0-2.124.001c-1.568.201-1.944-.505-1.917-1.97.085-4.17-.041-8.343.064-12.51.041-1.603-.362-2.357-2.049-2.084-.347.057-.708.009-1.063.009-3.216-.004-4.385-1.674-3.402-4.725.316-.981 1.026-.823 1.695-.828 2.664-.02 5.326-.009 7.988-.007z"/><path fill="#019EE1" d="M292.496 221.813c2.572 0 5.15.105 7.717-.03 2.433-.13 1.881 1.526 1.896 2.847.018 1.355.438 2.805-1.953 2.801-4.658-.007-4.658.131-4.658 4.74 0 3.196-.104 6.395.04 9.582.082 1.823-.597 2.248-2.282 2.191-4.563-.151-3.73.445-3.79-3.824-.048-3.549-.083-7.1.022-10.646.048-1.598-.399-2.344-2.067-2.107-.438.061-.887.01-1.331.009-3.076-.003-4.184-1.642-3.241-4.649.348-1.11 1.177-.894 1.929-.9 2.571-.029 5.144-.014 7.718-.014z"/><path fill="#009DE1" d="M307.416 156.405c2.666 0 5.33.041 7.994-.013 2.604-.051 1.464 1.891 1.613 3.049.154 1.182.375 2.396-1.692 2.438-4.896.1-4.896.216-4.896 5.024 0 3.108-.108 6.223.043 9.324.087 1.821-.587 2.377-2.265 2.149a6.013 6.013 0 0 0-1.597 0c-1.677.228-2.323-.33-2.264-2.149.137-4.081-.049-8.172.083-12.253.061-1.812-.574-2.412-2.271-2.157-.347.053-.708.007-1.063.007-3.212-.001-4.196-1.406-3.318-4.525.284-1.015.959-.884 1.64-.888 2.666-.016 5.33-.006 7.993-.006z"/><path fill="#019EE1" d="M320.489 167.228c0-2.926.097-5.858-.036-8.779-.075-1.65.437-2.131 2.076-2.08 5.276.162 4.202-.516 4.266 4.145.068 5.231-.059 10.466.059 15.697.04 1.793-.549 2.395-2.263 2.172a9.574 9.574 0 0 0-2.392-.001c-1.486.183-1.767-.529-1.733-1.842.075-3.103.023-6.208.023-9.312z"/><path fill="#09A1E2" d="M331.487 193.021c0 4.94.001 9.881-.002 14.823 0 .711-.005 1.422-.024 2.131-.016.613-.275 1.016-.957.984-.695-.027-.86-.492-.86-1.078 0-6.57 0-13.14.005-19.712 0-.461.114-.883.651-1.006.972-.224 1.435.452 1.938 1.088 3.194 4.037 6.395 8.07 9.6 12.099 1.259 1.586 2.535 3.159 4.339 5.405V196.58c.001-2.042-.001-4.083.009-6.126.002-.626-.016-1.313.904-1.292.883.021.923.696.926 1.323.01 6.394.012 12.787.005 19.181 0 .516.055 1.116-.646 1.271-.867.192-1.268-.455-1.707-1.012-4.024-5.076-8.05-10.154-12.079-15.228-.489-.614-1.008-1.206-1.514-1.809-.198.047-.392.089-.588.133z"/><path fill="#009EE1" d="M248.483 175.002c-.688-1.032-1.366-2.076-2.116-3.065-.586-.768-.618-1.18.261-1.886 3.165-2.549 4.118-5.565 2.892-8.859-1.253-3.363-4.015-4.603-7.335-4.726-3.372-.126-6.75-.009-10.123-.081-1.275-.029-1.689.433-1.682 1.697.046 6.216.051 12.433-.004 18.649-.012 1.301.465 1.613 1.701 1.667 4.525.197 4.522.247 4.556-4.115.003-.178-.027-.362.008-.533.139-.702-.419-1.724.78-1.96 1.023-.201 1.896.014 2.507 1.019.876 1.44 1.843 2.822 2.775 4.228.494.75.982 1.404 2.081 1.35 1.829-.087 3.664-.022 5.884-.022-.867-1.335-1.514-2.357-2.185-3.363zm-4.845-10.658c-.186 2.96-2.786 2.257-4.726 2.537-2.661.383-2.141-1.375-2.322-2.954-.316-2.757 1.541-2.141 3.317-2.19 1.602.056 3.9-.104 3.731 2.607z"/><path fill="#019EE1" d="M256.154 200.003c.001-3.017-.004-6.033.007-9.051.002-.89-.086-1.876 1.274-1.821 3.625.144 7.272-.381 10.877.393 5.567 1.198 8.881 5.265 8.728 10.747-.161 5.61-4.002 10-9.646 10.572-3.251.33-6.558.091-9.837.169-1.284.029-1.417-.691-1.409-1.693.022-3.106.006-6.214.006-9.316zm6.186 4.278c.007.498-.088 1 .616 1.271 2.043.797 5.911-.605 7.058-2.633 1.328-2.354.698-5.716-1.407-7.198-1.711-1.205-3.821-1.513-5.597-.846-1.488.559-.436 2.508-.669 3.816-.076.431-.011.885-.01 1.329 0 1.421-.011 2.841.009 4.261z"/><path fill="#009DE1" d="M240.722 211.527c-6.714.035-11.921-4.92-11.923-11.337 0-6.423 5.155-11.414 11.839-11.459 6.774-.046 11.807 4.764 11.857 11.336.052 6.454-5.061 11.431-11.773 11.46zm-.1-17.211c-2.981.015-5.441 2.583-5.489 5.73-.047 3.146 2.611 5.978 5.602 5.965 2.89-.01 5.449-2.71 5.488-5.783.045-3.212-2.528-5.927-5.601-5.912zm.971 27.188c6.805-.021 11.755 4.771 11.751 11.382-.005 6.576-4.955 11.384-11.758 11.416-6.749.031-11.811-4.848-11.804-11.381.003-6.501 5.065-11.396 11.811-11.417zm.017 5.517c-3.062-.047-5.554 2.65-5.504 5.949.053 3.315 2.531 5.807 5.69 5.719 3.026-.086 5.3-2.627 5.249-5.865-.049-3.127-2.516-5.761-5.435-5.803z"/><path fill="#009EE1" d="M299.081 178.366c-1.604 0-2.77-.127-3.896.027-2.072.284-3.376-.34-3.771-2.524-.205-1.127-.975-1.555-2.13-1.481-1.237.077-2.493.11-3.725-.006-2.067-.192-3.675.133-4.075 2.577-.185 1.138-.975 1.508-2.133 1.43-1.499-.098-3.008-.023-4.874-.023 1.394-3.384 2.681-6.547 4-9.697 1.298-3.104 2.641-6.191 3.949-9.291 1.292-3.054 3.354-4.032 6.572-3.179.721.192.98.648 1.229 1.235 2.887 6.837 5.783 13.67 8.854 20.932zm-14.07-10.587c-.682 1.412-.264 1.843 1.235 1.891 1.941.063 3.194-.106 1.845-2.471-.554-.971-.617-2.201-1.557-3.116-.517 1.272-.951 2.517-1.523 3.696z"/><path fill="#029EE1" d="M361.522 211c-5.284.002-5.284.002-5.284-5.205 0-4.798.095-9.597-.046-14.39-.058-1.932.586-2.473 2.413-2.313 2.643.233 5.312-.224 7.956.384 5.667 1.302 9.195 6.048 8.605 11.699-.588 5.667-4.94 9.664-10.715 9.819-.974.027-1.951.005-2.929.006zm-3.593-7.864c0 6.636 0 6.636 6.687 6.24 4.7-.278 8.298-3.658 8.702-8.177.447-4.979-2.397-8.947-7.145-10.095-2.202-.532-4.421-.274-6.635-.394-1.341-.072-1.654.556-1.629 1.757.062 2.487.02 4.979.02 7.468v3.201z"/><path fill="#039EE1" d="M324.164 210.165c.229 1.063-.6.854-1.134.763-.711-.121-.938-.828-1.064-1.406-2.01-4.834-1.653-4.653-7.399-4.49-2.122 0-1.423.014-2.122 0-5.604-.119-5.025-.831-7.399 4.512-.199.889-.767 1.866-1.834 1.314-.914-.471-.009-1.266.238-1.807 2.819-6.203 5.694-12.384 8.56-18.567.325-.701.5-1.499 1.604-1.465.955.03 1.139.7 1.425 1.324 2.9 6.265 5.79 12.535 8.684 18.804.144.32.28.645.441 1.018zm-5.102-6.899c-1.854-4.059-3.59-7.851-5.558-12.16-1.979 4.333-3.688 8.083-5.547 12.16h11.105z"/></svg>