<?xml version="1.0" encoding="utf-8"?>
<!-- Generator: Adobe Illustrator 16.0.3, SVG Export Plug-In . SVG Version: 6.00 Build 0)  -->
<!DOCTYPE svg PUBLIC "-//W3C//DTD SVG 1.1//EN" "http://www.w3.org/Graphics/SVG/1.1/DTD/svg11.dtd">
<svg version="1.1" id="Ebene_1" xmlns="http://www.w3.org/2000/svg" xmlns:xlink="http://www.w3.org/1999/xlink" x="0px" y="0px"
	 width="400px" height="216px" viewBox="-96.063 -94.834 400 216" enable-background="new -96.063 -94.834 400 216"
	 xml:space="preserve">
<path fill="#656868" d="M-32.505-5.222c-7.521,0-7.726,0.469-7.361,2.714h2.506c2.35,0,2.873,0.316,2.873,2.349v24.647
	c0,3.499-0.992,3.867-6.579,4.18c-0.167,0.678-0.167,1.515,0,2.035h19.622c14.93,0,21.093-7.208,21.093-17.965
	c0-11.173-6.535-17.965-21.577-17.965L-32.505-5.222z M-27.962,24.126V-2.141h5.38c10.026,0,15.247,5.845,15.247,15.875
	c0,11.245-5.691,14.111-14.619,14.111c-4.859,0-6.006-0.521-6.006-3.705 M22.799-4.857c-2.457,0-3.132,0.838-4.859,4.859
	L7.603,24.495c-1.411,3.335-1.88,3.647-5.902,4.173c-0.156,0.679-0.156,1.515,0,2.035h14.937c1.303,0,1.669-0.839,1.303-2.35h-4.486
	c-2.875,0-2.875-0.782-1.675-3.865l2.141-5.695h13.474l3.29,7.887c0.578,1.357,0,1.827-5.69,1.983c-0.158,0.688-0.158,1.526,0,2.047
	h16.918c1.358,0,1.676-0.837,1.358-2.345h-1.191c-2.662,0-3.24-0.467-3.816-1.825L26.198-0.976
	c-0.837-1.825-1.191-2.701-1.359-3.854L22.799-4.857z M20.5,2.348l5.694,13.582H15.07L20.5,2.348z M48.96-4.175
	c-2.193,0-2.505,0.99-2.193,2.345h2.508c2.401,0,2.87,0.316,2.87,2.197v24.96c0,2.141-1.005,2.663-5.175,3.342
	c-0.224,0.681-0.224,1.518,0,2.038h15.861c1.564,0,1.712-0.838,1.359-2.349h-2.812c-2.197,0-2.718-0.367-2.718-2.193V1.356
	c0-2.192,0.67-3.183,5.212-3.499c0.149-0.522,0.149-1.564,0-2.035L48.96-4.175z M111.679-4.175L99.615,20.941L86.506-4.178H75.96
	c-2.178,0-2.495,1.136-2.178,2.346c5.175,0.149,5.492,0.726,5.325,2.401l-2.142,24.537c-0.148,2.197-0.633,3.239-6.367,3.556
	c-0.149,0.671-0.149,1.358,0,2.029h17.127c1.471,0,1.675-0.838,1.303-2.346h-2.811c-5.529,0-5.529-0.523-5.38-2.568l1.676-23.458
	l14.428,28.503c1.191,0,1.619-0.316,2.569-2.197l12.542-26.324l2.346,22.768c0.262,2.55-0.47,3.128-4.854,3.388l-2.822,0.147
	c-0.204,0.671-0.204,1.344,0,2.029h18.431c1.465,0,1.62-0.837,1.465-2.346c-4.021-0.523-4.858-0.671-5.016-2.347l-2.513-25.485
	c-0.152-1.508,0.162-2.346,5.008-2.662c0.22-0.67,0.22-1.36,0-2.03L111.679-4.175z M136.641-4.175c-2.194,0-2.507,0.99-2.194,2.345
	h2.505c2.195,0,2.873,0.316,2.873,2.197v23.915c0,3.396-1.149,4.074-6.215,4.387c-0.168,0.681-0.112,1.356,0,2.038h25.466
	c0.671-3.239,1.62-6.267,2.719-9.402c0.537-1.556-0.149-2.195-1.565-2.195l-0.166,0.006l-1.473,3.236
	c-2.198,4.701-2.719,4.963-6.59,4.963h-3.35c-1.473,0-2.366-0.47-2.366-2.196V2.037c0-3.394,1.043-3.865,6.523-4.18
	c0.148-0.521,0.148-1.564,0-2.035L136.641-4.175z M170.479-4.175c-2.298,0-2.506,0.99-2.298,2.345h2.495
	c2.346,0,2.812,0.316,2.812,2.197v24.127c0,3.496-1.006,3.862-6.535,4.176c-0.204,0.68-0.204,1.355,0,2.036h28.818
	c0.671-3.238,1.676-6.424,2.719-9.401c0.501-1.508-0.168-2.198-1.564-2.198l-0.168,0.006l-1.47,3.234
	c-2.197,4.699-2.719,4.963-6.591,4.963h-4.486c-3.555,0-4.021-0.783-4.021-2.663v-9.192h5.479c1.359,0,2.038,0.47,2.718,4.541
	c0.272,0.123,0.59,0.178,0.899,0.178c0.347,0,0.682-0.056,0.932-0.168c-0.154-3.388-0.154-7,0-10.276
	c0.106-1.62-0.465-1.974-1.507-1.974h-0.627l-0.354,2.662c-0.164,1.359-0.477,1.88-2.04,1.88h-5.484V-1.122h8.36
	c2.87,0,3.965,0.838,4.851,4.021l0.69,2.346c0.129,0.019,0.241,0.019,0.358,0.019c1.396,0,1.918-0.875,1.676-2.365
	c-0.361-2.234-0.67-4.691-0.828-7.037L170.479-4.175z M207.868-4.334c-2.141,0.156-2.508,1.148-2.141,2.505h2.506
	c2.141,0,2.874,0.316,2.874,2.364v24.127c0,3.184-1.044,3.704-5.59,4.021c-0.155,0.688-0.104,1.47,0,2.048h16.45
	c1.517,0,1.674-0.837,1.517-2.345h-2.66c-2.719,0-3.188-0.522-3.188-2.029v-7.671h3.501c3.183,0,3.289,0.169,4.595,2.515
	c1.358,2.401,3.238,4.505,4.964,6.013c3.862,3.352,7.048,4.394,11.904,4.394c5.548,0,6.852-1.359,6.386-3.184
	c-4.542,0-6.831-0.466-13.72-6.014c-1.975-1.618-5.902-5.213-5.902-5.213c4.337-1.824,7.056-5.379,7.056-9.755
	c0-7.148-5.529-11.895-15.563-11.895c-7.297,0-10.444,0-12.939,0.205 M217.69-1.43h1.785c5.902,0,10.072,2.197,10.072,9.241
	c0,7.044-4.174,7.888-9.346,7.888h-2.507L217.69-1.43z"/>
</svg>
