<svg xmlns="http://www.w3.org/2000/svg" width="400" height="216"><g fill-rule="evenodd" clip-rule="evenodd"><path fill="#4C4D4F" d="M357.238 130.993c0-1.933.007-3.865-.008-5.798-.001-.311.083-.395.393-.393.706.005 1.416.067 2.116-.083.699-.149.975-.509.894-1.226-.183-1.611-.494-3.202-.803-4.791-1.218-6.257-2.438-12.512-3.664-18.766-.409-2.08-.833-4.158-1.27-6.232-.063-.299.01-.343.284-.343 2.699.008 5.398.009 8.097-.002.273-.001.345.087.369.342.216 2.214.446 4.427.67 6.641.288 2.844.573 5.687.857 8.532.19 1.891.374 3.782.563 5.673.021.216.055.43.158.646.091-.879.186-1.757.275-2.636.317-3.167.635-6.333.95-9.501.307-3.079.617-6.158.907-9.238.033-.36.139-.462.498-.46 2.522.017 5.044.017 7.565 0 .366-.002.405.104.344.422-1.024 5.29-2.043 10.58-3.059 15.871-.958 4.987-1.91 9.977-2.867 14.965a9.962 9.962 0 0 1-1.358 3.424c-1.082 1.732-2.688 2.581-4.652 2.86-.094.014-.214-.037-.271.094l-6.988-.001z"/><path fill="#231F20" d="M87.746 85.424c.006 1.739.006 3.479.026 5.219.003.256-.115.292-.308.3-.368.017-.734.034-1.095.122-.739.181-1.023.498-1.064 1.25-.02.368.008.738-.008 1.105-.01.231.066.309.301.304.619-.014 1.239.008 1.857-.01.257-.008.315.078.314.322-.01 1.829-.011 3.657.002 5.486.001.277-.074.351-.344.339-.515-.022-1.032.001-1.548-.01-.206-.005-.305.055-.285.272.01.117.001.236.001.354 0 8.098-.003 16.192.01 24.289 0 .413-.116.499-.509.497a536.089 536.089 0 0 0-7.609 0c-.371.002-.455-.093-.454-.458.011-8.141.005-16.281.018-24.422 0-.411-.071-.584-.52-.538-.423.044-.854 0-1.282.014-.212.007-.276-.064-.276-.276.007-1.858.008-3.716-.001-5.575-.001-.238.079-.301.304-.293.442.015.886-.015 1.327.012.335.02.454-.064.449-.43a31.376 31.376 0 0 1 .168-3.573c.245-2.409 1.407-3.681 3.793-4.142.451-.086.925-.052 1.353-.255h.443a.677.677 0 0 0 .53 0h2.921c.337.101.684.016 1.024.046.154.015.317-.048.462.051zM23.427 99.665c.152-.22.346-.386.583-.517 7.438-4.118 14.874-8.238 22.31-12.358.816-.453 1.112-.371 1.558.433l4.94 8.917c.056.102.109.205.188.354-.808.145-1.586.292-2.366.424-.736.125-.737.118-1.097-.529l-2.914-5.244c-.354-.635-.66-.726-1.29-.376-5.737 3.18-11.475 6.36-17.212 9.542-.692.384-.778.672-.402 1.349a43544.1 43544.1 0 0 0 6.464 11.654c.369.666.667.752 1.319.393.476-.263.953-.524 1.431-.784.024-.013.058-.01.103-.016.179.983.355 1.969.538 2.951.032.172-.023.266-.176.35-1.058.578-2.105 1.176-3.167 1.747-.501.271-.887.115-1.193-.438-2.796-5.042-5.589-10.085-8.384-15.127-.406-.732-.82-1.461-1.231-2.192-.002-.18-.002-.357-.002-.533z"/><path fill="#A4A5A6" d="M337.326 85.328c-.009.035-.018.07-.025.105-.159.139-.357.125-.546.125-2.474.005-4.949.003-7.423 0-.205 0-.417.013-.587-.14l-.003-.091 8.584.001z"/><path fill="#646262" d="M87.746 85.424c-.494-.06-1 .089-1.485-.096h1.504a1.627 1.627 0 0 0-.019.096z"/><path fill="#545051" d="M83.339 85.328c-.177.127-.354.146-.53 0h.53z"/><path fill="#4C4D4F" d="M211.315 97.157c.377-.534.756-1.067 1.127-1.604.918-1.324 2.046-2.352 3.697-2.656a10.118 10.118 0 0 1 4.166.074c1.258.292 2.124 1.094 2.777 2.165.384.629.673 1.303.935 2.072.291-.449.549-.853.813-1.253.633-.963 1.263-1.916 2.333-2.48 1.315-.695 2.723-.792 4.165-.732 1.34.056 2.606.353 3.653 1.239 1.295 1.097 1.886 2.562 2.071 4.212.039.351.045.706.045 1.06.002 8.494-.002 16.988.012 25.482.001.43-.106.532-.53.528a454.328 454.328 0 0 0-7.566 0c-.406.004-.473-.118-.472-.491.011-7.152.009-14.305.007-21.456 0-.608-.067-1.207-.303-1.774-.314-.759-.891-1.148-1.712-1.171-.822-.023-1.411.333-1.757 1.085-.326.709-.445 1.461-.445 2.234-.003 7.02-.005 14.039.007 21.059 0 .386-.072.518-.494.514a448.821 448.821 0 0 0-7.609 0c-.422.004-.497-.128-.497-.516.012-7.139.007-14.275.01-21.414 0-.608-.053-1.206-.284-1.776-.317-.776-.909-1.177-1.743-1.188-.838-.01-1.444.346-1.775 1.13a5.142 5.142 0 0 0-.39 2.022c.005 7.064-.003 14.128.015 21.192.001.454-.117.552-.556.548a502.15 502.15 0 0 0-7.566-.002c-.349.001-.47-.058-.47-.446.014-10.337.012-20.675.004-31.012 0-.325.053-.451.422-.448 2.463.019 4.926.019 7.388 0 .384-.003.458.115.449.47-.022 1.099-.009 2.198-.009 3.298l.082.035zm50.834.017c.443-.667.884-1.31 1.304-1.964.985-1.532 2.438-2.261 4.201-2.433 1.148-.112 2.299-.104 3.424.193 2.242.591 3.41 2.171 3.944 4.325.19.765.216 1.545.217 2.326.005 8.376 0 16.752.011 25.128 0 .39-.079.519-.498.515a494.983 494.983 0 0 0-7.61-.001c-.368.002-.459-.091-.459-.46.012-7.093.011-14.187.005-21.279 0-.737-.056-1.471-.4-2.151-.362-.713-.962-1.004-1.73-1-.746.005-1.296.336-1.623 1.015-.347.718-.477 1.479-.477 2.271.001 7.034-.003 14.068.011 21.103.001.405-.104.505-.505.501a459.89 459.89 0 0 0-7.521 0c-.439.004-.583-.08-.582-.558.019-7.139.013-14.276.015-21.414 0-.564-.061-1.117-.262-1.648-.324-.852-.923-1.27-1.816-1.272-.87-.002-1.451.402-1.785 1.251-.292.738-.371 1.513-.371 2.297-.002 6.947-.005 13.892.009 20.837 0 .399-.096.51-.503.506-2.536-.02-5.073-.018-7.609 0-.359.001-.429-.108-.429-.444.01-10.337.008-20.675.001-31.013 0-.325.053-.452.422-.449 2.479.018 4.956.018 7.434 0 .347-.002.407.106.402.422-.019 1.116-.007 2.232-.007 3.486.438-.626.798-1.152 1.171-1.668.749-1.036 1.561-2.005 2.831-2.436 1.787-.607 3.593-.596 5.39-.087 1.473.417 2.255 1.581 2.888 2.865.19.391.332.807.507 1.236zm49.996-.41c.341-.459.702-.905 1.018-1.38 1.257-1.891 3.067-2.665 5.277-2.664.826 0 1.647.042 2.448.278 2.221.655 3.285 2.301 3.774 4.428.146.632.188 1.28.188 1.931-.003 8.45-.005 16.899.007 25.349.001.419-.063.567-.534.562a414.604 414.604 0 0 0-7.564-.004c-.381.002-.49-.081-.49-.48.015-7.196.011-14.392.012-21.588 0-.563-.027-1.121-.226-1.655-.279-.754-.845-1.154-1.649-1.168-.839-.015-1.441.356-1.755 1.089-.292.682-.293 1.406-.293 2.129-.001 7.034-.006 14.068.011 21.102.001.464-.118.577-.576.572a577.927 577.927 0 0 0-7.564-.005c-.32.002-.451-.045-.449-.419.012-10.352.009-20.703.003-31.055-.001-.304.037-.432.395-.429 2.493.018 4.984.016 7.477.001.338-.002.419.095.413.42-.022.983-.008 1.968-.008 2.952.026.012.055.023.085.034zm-20.523 24.983c-.404.537-.737.975-1.063 1.418-.711.968-1.561 1.771-2.708 2.192-1.746.642-3.531.739-5.277.089-2.206-.819-3.262-2.587-3.654-4.819-.085-.48-.092-.967-.092-1.453.002-8.436.005-16.872-.008-25.308 0-.389.079-.514.496-.51 2.536.022 5.072.02 7.609.001.392-.003.483.098.482.486-.012 7.241-.007 14.482-.012 21.724 0 .602.116 1.168.389 1.702.342.671.887 1.011 1.642.975.766-.037 1.311-.409 1.603-1.121.215-.524.281-1.078.281-1.644-.004-7.197.001-14.394-.013-21.591-.001-.414.078-.538.518-.534 2.552.024 5.104.019 7.654.004.334-.002.415.087.415.417-.01 10.353-.009 20.706-.001 31.059.001.315-.057.43-.404.428a621.344 621.344 0 0 0-7.478-.001c-.316.001-.393-.099-.387-.399.019-.998.008-1.995.008-3.115zm-137.499-12.501c0-2.625-.004-5.25.001-7.875.007-4.05 1.916-6.766 5.783-7.96 3.414-1.054 6.877-1.05 10.23.252 3.142 1.221 4.709 3.684 4.973 7 .11 1.397.02 2.801.044 4.201.004.227-.064.306-.298.305-2.655-.006-5.31-.009-7.965.002-.29.001-.291-.137-.294-.351-.019-1.532.057-3.066-.063-4.597-.079-1.009-.483-1.507-1.358-1.616-1.232-.152-2.033.243-2.344 1.169a3.527 3.527 0 0 0-.161 1.133v16.726c0 .401.054.79.212 1.164.384.9 1.104 1.324 2.077 1.209.892-.104 1.413-.648 1.584-1.633.054-.308.054-.615.054-.925.001-1.77.007-3.539-.006-5.31-.002-.319.044-.454.419-.45 2.596.019 5.192.017 7.788.001.339-.002.409.094.406.416-.017 1.593-.008 3.186-.008 4.779 0 4.449-2.25 7.4-6.58 8.475-3.221.8-6.437.759-9.536-.558-3.308-1.404-4.932-3.972-4.957-7.548-.016-2.669-.001-5.339-.001-8.009z"/><path fill="#231F20" d="M41.305 118.793c-.56 0-.884-.277-.976-.795-.357-1.998-.709-3.998-1.061-5.997l-1.629-9.259c-.025-.145-.057-.289-.076-.434-.08-.635.198-1.018.829-1.128 3.391-.596 6.783-1.188 10.173-1.785l12.258-2.157c.131-.023.261-.044.393-.064.718-.111 1.083.144 1.212.862.275 1.535.542 3.071.813 4.607.638 3.623 1.274 7.247 1.915 10.869.125.707-.12 1.097-.839 1.226-3.447.616-6.896 1.223-10.345 1.831-4.086.721-8.172 1.44-12.258 2.159-.162.029-.322.051-.409.065z"/><path fill="#4C4D4F" d="M342.562 110.446c0-3.376-.005-6.754.008-10.131.002-.358-.075-.497-.455-.468-.454.035-.914-.004-1.37.013-.245.01-.328-.06-.325-.316.009-1.844.009-3.687 0-5.53-.002-.234.069-.305.3-.298.486.016.974-.014 1.459.012.316.017.394-.092.391-.397-.013-2.02.009-4.041-.019-6.061-.005-.445.13-.525.542-.522 2.536.02 5.073.017 7.609.002.346-.002.441.084.438.436-.017 2.035 0 4.07-.016 6.105-.004.346.082.462.435.438.47-.032.944.004 1.415-.013.233-.007.302.068.3.301a536.51 536.51 0 0 0 .002 5.53c.002.264-.093.321-.333.313-.484-.015-.973.008-1.459-.01-.256-.009-.358.042-.358.333.009 5.811.006 11.621.01 17.432 0 .19.034.383.068.57.155.862.484 1.155 1.357 1.215.824.056.824.056.824.886 0 1.741-.007 3.481.006 5.222.003.307-.082.402-.396.398-1.827-.023-3.656.01-5.483-.046-1.403-.045-2.717-.396-3.667-1.55-.935-1.135-1.273-2.475-1.278-3.909-.013-3.317-.005-6.636-.005-9.955z"/><path fill="#231F20" d="M115.907 110.573c0-3.422-.005-6.843.009-10.265.002-.362-.075-.491-.454-.461-.454.037-.914-.003-1.371.013-.238.008-.331-.047-.329-.31.011-1.843.011-3.688 0-5.531-.002-.273.105-.311.335-.304.442.015.889-.029 1.327.014.43.043.495-.132.491-.513-.018-2.005-.002-4.011-.015-6.017-.001-.316.039-.455.417-.452a548.7 548.7 0 0 0 7.698.002c.356-.002.439.102.437.443-.015 2.006.008 4.013-.019 6.018-.006.443.126.552.541.518.454-.038.915.002 1.371-.013.213-.006.274.061.273.273a647.516 647.516 0 0 0 0 5.575c.001.231-.06.307-.294.297-.427-.019-.856-.005-1.283-.005-.596 0-.596 0-.596.575v6.106c0 3.452-.002 6.902.002 10.353 0 .368.015.737.05 1.104.094.981.491 1.356 1.467 1.411.739.041.739.041.739.769 0 1.785-.004 3.569.004 5.354.001.259-.025.389-.345.384-1.813-.026-3.626-.025-5.439-.037a6.358 6.358 0 0 1-1.57-.23c-2.062-.547-2.98-2.057-3.354-4.015-.083-.435-.094-.877-.094-1.32.004-3.246.002-6.492.002-9.736z"/><path fill="#4C4D4F" d="M328.728 109.263c0-5.146.005-10.292-.009-15.439 0-.358.073-.469.452-.466 2.565.018 5.133.018 7.697 0 .38-.003.452.116.452.472-.01 10.323-.01 20.645 0 30.968 0 .362-.087.467-.457.465a533.735 533.735 0 0 0-7.697.001c-.391.004-.447-.125-.446-.472.01-5.178.008-10.354.008-15.529zm.017-23.844l8.556.014c.004 1.829.004 3.657.016 5.485.001.249-.07.329-.324.329-2.654-.008-5.309-.008-7.964-.001-.227 0-.306-.064-.305-.298.013-1.843.015-3.686.021-5.529z"/><path fill="#231F20" d="M111.305 109.325c0 2.757.043 5.514-.01 8.27-.074 3.789-2.03 6.447-5.648 7.552-3.6 1.099-7.22 1.067-10.712-.443-2.885-1.249-4.362-3.569-4.604-6.682-.104-1.324-.038-2.652-.04-3.979-.007-4.231-.013-8.462.002-12.693.006-2.048.544-3.926 1.924-5.499 1.251-1.426 2.862-2.243 4.675-2.672 2.986-.708 5.961-.665 8.883.32 3.556 1.199 5.529 4.051 5.542 7.954.01 2.625.002 5.249.002 7.873l-.014-.001zm-12.48 8.168c-.001.369.021.737.101 1.098.199.896.834 1.406 1.765 1.428 1.092.025 1.688-.385 1.956-1.337.101-.358.116-.726.116-1.095 0-5.513.001-11.026-.001-16.54 0-.264-.014-.53-.047-.792-.127-1.001-.746-1.601-1.697-1.661-1.135-.072-1.831.375-2.077 1.352a4.59 4.59 0 0 0-.116 1.14c.003 2.742.001 5.483.001 8.227.001 2.726.003 5.454-.001 8.18zm30.313-8.199c0-2.579-.006-5.159.002-7.74.005-1.754.343-3.422 1.339-4.909 1.266-1.89 3.093-2.952 5.255-3.457 3.367-.786 6.703-.725 9.897.729 2.582 1.176 4.033 3.248 4.444 6.054.081.557.094 1.114.094 1.675 0 5.249.013 10.498-.007 15.747-.009 2.346-.693 4.442-2.512 6.043-1.198 1.053-2.619 1.683-4.168 2.009-3.148.663-6.273.632-9.296-.57-3.184-1.266-4.864-3.699-4.997-7.091-.109-2.825-.022-5.659-.022-8.49h-.029zm12.503-8.141c0-.337-.024-.679-.082-1.011-.173-1-.82-1.537-1.837-1.554-1.061-.019-1.728.465-1.934 1.429a4.164 4.164 0 0 0-.092.876c-.005 5.617-.003 11.233-.003 16.85 0 .385.052.767.18 1.128.286.807.94 1.181 1.977 1.147.824-.026 1.401-.461 1.634-1.238.128-.427.161-.866.162-1.309v-8.183c-.001-2.711.001-5.423-.005-8.135z"/><path fill="#4C4D4F" d="M199.374 109.366v8.007c-.003 3.87-1.997 6.667-5.702 7.79-3.438 1.042-6.905 1.025-10.274-.288-3.21-1.252-4.931-3.721-4.999-7.136-.107-5.408-.053-10.821-.049-16.233.001-1.864.403-3.623 1.542-5.156 1.273-1.714 3.021-2.687 5.056-3.166 3.109-.731 6.201-.691 9.216.439 3.301 1.237 5.202 4.036 5.208 7.558.005 2.728.002 5.457.002 8.185zm-12.476 8.121c0 .278.022.559.06.836.156 1.15.804 1.702 1.973 1.695 1.083-.007 1.723-.598 1.854-1.726.039-.335.061-.674.062-1.012.003-5.394.005-10.788 0-16.183 0-.667-.035-1.343-.483-1.887-.558-.675-1.321-.722-2.102-.558-.772.163-1.146.728-1.282 1.463a5.183 5.183 0 0 0-.08.923c-.006 2.741-.003 5.482-.003 8.223-.001 2.744-.003 5.485.001 8.226z"/></g></svg>