<svg xmlns="http://www.w3.org/2000/svg" width="400" height="216" viewBox="0 92 400 216"><path fill="#F60" d="M67.659 230.048v-39.311l-16.865 39.311h-9.355l-16.585-39.311v39.311H7.433v-68.094h23.321l16.021 38.447 16.767-38.447h21.534v68.093l-17.417.001zm30.825 0v-68.094h14.896c1.305 0 2.61 1.305 2.61 2.725v65.369H98.484zm65.838-39.216h22.143c1.747 0 2.734 1.43 2.734 3.109v35.174c-6.229 1.393-15.961 2.246-23.196 2.246-25.385 0-38.772-12.103-38.772-35.453.001-20.836 13.388-35.271 35.701-35.271 9.829 0 18.447 2.62 23.995 6.363l-6.862 11.719c-4.801-2.15-11.258-3.647-15.828-3.647-12.83 0-18.83 8.513-18.83 20.836 0 13.158 6.948 21.287 19.761 21.287 2.341 0 5.26-.086 7.592-.451v-11.995h-8.438v-13.917zm63.728-15.758h-8.569v17.073h8.569c5.115 0 9.137-2.725 9.137-9.204 0-6.565-4.022-7.869-9.137-7.869zm12.899 54.974l-8.081-18.744c-1.651-3.819-2.806-5.71-6.309-5.71h-7.08v24.454h-17.112v-65.369c0-1.42 1.556-2.725 2.669-2.725h24.155c13.129 0 24.386 2.725 24.386 19.674 0 7.591-4.2 15.367-12.083 16.94 3.927 1.334 7.883 6.364 10.021 11.825l7.784 19.654-18.35.001zm56.184-54.974c-9.186 0-15.721 6.555-15.721 20.836 0 14.483 6.535 21.019 15.72 21.019 7.88 0 14.329-6.536 14.329-21.019.001-14.282-6.449-20.836-14.328-20.836zm0 56.287c-22.295 0-34.092-15.748-34.092-35.452 0-19.532 11.797-35.271 34.091-35.271 20.885 0 32.699 15.739 32.699 35.271.001 19.704-11.815 35.452-32.698 35.452zm66.22 0c-11.516 0-22.208-4.125-26.978-7.408l7.765-13.764c4.328 2.621 12.754 6.651 20.52 6.651 4.396 0 9.952-.845 9.952-5.729 0-4.586-6.209-5.987-14.35-8.32-9.827-2.813-21.267-6.728-21.267-19.943 0-14.243 12.657-22.208 29.129-22.208 10.872 0 19.299 3.848 23.599 7.965l-9.454 10.759c-4.673-2.793-9.453-4.961-14.809-4.961-6.449 0-10.096 2.447-10.096 6.007.001 3.532 4.674 5.336 10.565 7.111 10.415 3.216 24.638 6.498 24.638 20.135.004 14.052-11.228 23.705-29.214 23.705z"/></svg>