<svg xmlns="http://www.w3.org/2000/svg" width="400" height="216" viewBox="0 92 400 216"><g fill="#BCBCBB"><path d="M22.1 159.408v17.579h37.302c-15.466 15.271-43.104 42.512-43.104 42.512l12.369 12.775s32.47-32.673 49.874-50.067v49.856h17.198v-72.655H22.1z"/><path d="M61.718 208.882c6.406 0 11.6 5.201 11.6 11.607 0 6.391-5.193 11.574-11.6 11.574s-11.6-5.185-11.6-11.574c0-6.405 5.194-11.607 11.6-11.607z"/></g><path fill="#1D1D1B" d="M342.155 189.747c-.566.963-1.928 1.938-3.661 1.938-2.319 0-3.098-1.355-3.098-2.708 0-1.547 1.17-2.512 3.098-2.512 1.929 0 2.706.194 3.661.769v2.513zm5.415 5.988v-13.528c0-4.636-3.292-7.149-8.314-7.149-3.277 0-5.201.771-7.717 2.124l2.124 3.672c1.93-.965 3.081-1.354 5.593-1.354 1.944 0 2.899 1.158 2.899 2.513v.973c-.777-.389-2.123-.778-3.855-.778-4.638 0-8.318 2.318-8.318 6.768 0 4.831 3.858 7.344 7.537 7.344 1.947 0 3.682-.77 4.637-1.744v1.16h5.414zm30.735 0V174.29l-5.608 2.893v-5.219l6.583-3.478h4.424v27.066h-5.398v.183zm-231.35-18.357c0 2.317-1.354 3.476-3.867 3.476h-5.795V173.9h5.6c2.514 0 4.062 1.159 4.062 3.478zm5.6-.196c0-5.793-4.247-8.697-9.271-8.697h-11.21v27.065h5.407v-9.67h5.414c5.413.194 9.66-2.318 9.66-8.698zm13.528 4.451c-.77-.779-1.929-1.354-3.089-1.354-2.124 0-3.476.963-3.476 4.44v11.016h-5.415v-20.286h5.415v1.353c.963-.972 2.318-1.743 4.247-1.743 1.744 0 3.096.771 3.673 1.354l-1.355 5.22zm15.075 4.052c0 2.901-1.158 5.414-3.856 5.414-2.514 0-3.681-2.318-3.681-5.414 0-3.088 1.166-5.405 3.681-5.405 2.699-.195 3.856 2.316 3.856 5.405zm5.61 0c0-6.184-3.867-10.626-9.28-10.626-5.211 0-9.272 4.442-9.272 10.626 0 6.194 3.866 10.635 9.272 10.635 5.218-.195 9.28-4.442 9.28-10.635zm12.173 10.44c-4.44 0-8.502-1.93-10.625-4.83l3.866-3.478c1.93 2.124 4.247 3.087 6.953 3.087 3.282 0 4.637-.964 4.637-2.893 0-1.743-.964-2.513-5.988-3.672-5.028-1.169-8.504-2.707-8.504-8.123 0-4.829 4.257-7.926 9.661-7.926 4.256 0 7.345 1.549 9.857 4.255l-3.867 3.866c-1.733-1.743-3.671-2.707-6.184-2.707-2.892 0-3.857 1.159-3.857 2.514 0 1.743 1.159 2.318 5.407 3.282 4.253.974 9.083 2.513 9.083 8.316.384 4.831-2.899 8.309-10.439 8.309zm17.403-22.42c-1.733 0-3.098-1.354-3.098-3.088 0-1.744 1.364-3.096 3.098-3.096 1.735 0 3.079 1.353 3.079 3.096 0 1.734-1.539 3.088-3.079 3.088zm-2.725 22.03v-20.287h5.414v20.286l-5.414.001zm22.05-12.368h-6.974c.212-2.125 1.363-3.672 3.292-3.672 2.336 0 3.486 1.743 3.682 3.672zm5.025 2.318c0-5.795-3.099-10.626-8.494-10.626-5.24 0-9.096 4.442-9.096 10.626 0 6.379 3.682 10.635 9.66 10.635 2.707 0 5.61-1.16 7.347-3.283l-3.876-3.095c-.762.964-1.911 1.355-3.471 1.355-1.93 0-4.068-.966-4.245-3.866h12.175v-1.746zm16.244.195c0 3.485-1.168 5.218-3.115 5.218-1.521 0-2.689-.574-3.663-1.732v-7.733c.777-.975 1.538-1.745 3.291-1.745 2.122.197 3.487 1.939 3.487 5.992zm5.591 0c0-7.539-3.469-10.822-7.925-10.822-1.931 0-3.293.771-4.248 1.743v-8.891h-5.415v27.825h5.415v-1.161c.955.975 2.514 1.549 4.248 1.549 5.023.002 7.925-4.245 7.925-10.243zm15.076-2.513h-6.954c.194-2.125 1.362-3.672 3.272-3.672 2.338 0 3.487 1.743 3.682 3.672zm5.026 2.318c0-5.795-3.08-10.626-8.495-10.626-5.237 0-9.095 4.442-9.095 10.626 0 6.379 3.68 10.635 9.662 10.635 2.707 0 5.608-1.16 7.36-3.283l-3.875-3.095c-.778.964-1.928 1.355-3.485 1.355-1.93 0-4.053-.966-4.247-3.866h12.175v-1.746zm16.031 10.05V184.72c0-3.671-1.151-4.635-3.469-4.635-2.125 0-3.469 1.158-3.469 4.635v11.016h-5.415v-20.287h5.415v1.353c.956-.972 2.689-1.743 4.814-1.743 5.237 0 7.536 3.477 7.536 9.28v11.396h-5.412zm18.367.39c-4.441 0-8.493-1.93-10.613-4.83l3.856-3.478c1.946 2.124 4.248 3.087 6.971 3.087 3.275 0 4.637-.964 4.637-2.893 0-1.743-.976-2.513-6.002-3.672-5.024-1.168-8.508-2.706-8.508-8.121 0-4.83 4.244-7.926 9.659-7.926 4.247 0 7.362 1.548 9.874 4.254l-3.874 3.866c-1.751-1.743-3.664-2.707-6.176-2.707-2.899 0-3.873 1.16-3.873 2.514 0 1.743 1.147 2.318 5.413 3.282 4.246.973 9.076 2.513 9.076 8.316.194 4.83-2.902 8.308-10.44 8.308zm47.742-.575s-3.08.77-5.203.77c-3.289 0-5.414-2.513-5.414-6.185v-9.661h-3.483v-5.025h3.483v-6.77h5.414v6.77h4.814v5.025h-4.814v8.113c0 2.318.76 2.513 1.91 2.513.976 0 2.516-.195 3.293-.39v4.84zm6.759.575a3.47 3.47 0 0 1-3.468-3.477 3.464 3.464 0 0 1 3.468-3.478 3.457 3.457 0 0 1 3.486 3.478 3.463 3.463 0 0 1-3.486 3.477z"/><path fill="#E40040" d="M145.602 205.201c1.742.586 3.086 1.735 4.255 3.486a9.834 9.834 0 0 1 1.735 4.44c.388 1.557.388 3.097.388 4.636 0 3.68-.583 6.761-1.938 9.273-1.734 3.503-4.634 5.237-8.307 5.237h-10.82v-27.639h10.82c1.549.002 2.707.179 3.867.567zm-9.662 4.07v17.98h4.831c2.513 0 4.245-1.363 5.22-4.072.575-1.538.769-3.288.769-5.2 0-2.901-.389-5.026-1.158-6.389-.771-1.539-2.319-2.319-4.832-2.319h-4.83zm20.102 2.513h4.83v20.28h-4.83v-20.28zm33.629-8.121a2.713 2.713 0 0 1 2.706 2.705 2.713 2.713 0 0 1-2.706 2.707 2.713 2.713 0 0 1-2.708-2.707 2.713 2.713 0 0 1 2.708-2.705zm-14.697 8.121c1.16.567 2.131 1.54 2.903 2.901v-2.901h4.635v19.323c0 2.708-.38 4.637-1.16 5.981-1.352 2.336-4.05 3.503-7.917 3.503h-.779v-4.069h1.159c1.743 0 2.9-.583 3.486-1.946.381-.759.575-2.123.575-4.035v-1.361c-.389.974-.966 1.54-1.549 1.929-.964.779-2.124 1.169-3.672 1.169-2.318 0-4.247-.975-5.6-2.727-1.355-1.908-2.134-4.245-2.134-7.538 0-3.078.779-5.591 2.134-7.537 1.352-2.123 3.282-3.078 5.794-3.078.587-.198 1.55-.002 2.125.386zm1.743 14.493c.771-.975 1.16-2.513 1.16-4.442 0-1.944-.389-3.484-1.16-4.46-.769-.955-1.743-1.537-2.9-1.537-1.734 0-2.895.972-3.477 2.706-.389.955-.575 2.123-.575 3.468 0 1.167.187 2.336.575 3.114.583 1.733 1.743 2.514 3.477 2.514 1.157.001 2.131-.389 2.9-1.363zm10.822-14.493h4.838v20.28h-4.838v-20.28zm-29.375-8.121a2.712 2.712 0 0 1 2.706 2.705 2.711 2.711 0 0 1-2.706 2.707 2.712 2.712 0 0 1-2.707-2.707 2.714 2.714 0 0 1 2.707-2.705zm37.302 11.98v-3.858h2.512v-7.343h4.831v7.343h3.096v3.858h-3.096v10.829c0 .779 0 1.346.194 1.557.194.176.77.371 1.743.371h.773v4.052h-2.321c-2.317 0-3.864-.389-4.635-1.346-.584-.565-.778-1.557-.778-2.901v-12.562h-2.319zm21.057 4.07c.972-.214 1.557-.214 1.945-.39.779-.391.955-.779.955-1.559 0-.777-.176-1.345-.777-1.733-.566-.389-1.346-.389-2.302-.389-1.169 0-1.945.389-2.515.973-.389.372-.584 1.149-.778 1.93h-4.635c.186-1.735.574-3.292 1.346-4.441 1.344-1.751 3.483-2.706 6.582-2.706 2.124 0 3.857.389 5.416 1.344 1.538.974 2.301 2.513 2.301 5.024v11.607c0 .779.211 1.168.211 1.346.178.195.389.389.761.583v.763h-5.219c-.177-.371-.177-.763-.391-1.15-.176-.373-.176-.762-.176-1.15-.602.777-1.363 1.538-2.336 2.123-.955.566-2.301.955-3.469.955-1.733 0-3.096-.565-4.257-1.54-1.158-.972-1.743-2.512-1.743-4.441 0-2.512.976-4.245 2.708-5.415.955-.582 2.318-.955 4.246-1.344l2.127-.39zm2.9 2.513c-.39.177-.567.389-.955.564-.389.214-.778.214-1.344.389l-1.168.196c-.976.196-1.734.391-2.125.779-.778.584-1.168 1.149-1.168 2.318 0 .955.195 1.557.779 1.928.389.39.956.585 1.734.585.955 0 1.947-.39 2.902-.955.954-.602 1.344-1.946 1.344-3.682v-2.122h.001zm14.297 9.837h-4.813v-27.428h4.813v27.428z"/></svg>