<svg xmlns="http://www.w3.org/2000/svg" width="400" height="216" viewBox="0 92 400 216"><path fill="#D2112E" d="M57.009 165.239c-19.201 0-34.763 15.562-34.763 34.762 0 19.201 15.562 34.761 34.763 34.761 19.192 0 34.761-15.561 34.761-34.761 0-19.201-15.568-34.762-34.761-34.762zm0 6.145c8.632 0 16.379 3.833 21.627 9.88h-9.989l.915-1.871c1.018-2.209-2.89-4.132-4.021-1.707l-1.811 3.578H35.378a28.517 28.517 0 0 1 21.631-9.88zM28.391 200a28.533 28.533 0 0 1 4.242-15.003s26.48 1.16 26.748 1.163a.917.917 0 0 1 .865.591l2.769 6.523c.132.316.117.907-.905.907l-25.814-.005a3.196 3.196 0 0 0-3.211 3.18v9.679c0 .76.223 1.449.657 1.957.725.842 1.937 1.273 2.146 1.352.333.119.395-.102.395-.275l-.003-12.315c0-.324.2-.47.417-.47l2.811.002c.073 0 .39-.009.156.338-.874 1.311-1.331 2.576-1.331 4.836 0 3.484 2.577 5.908 3.404 6.504.092.061.238.293.071.621-.156.328-2.529 5.02-2.621 5.195-.132.252-.225.559.092.873l12.568 12.481C38.506 225.711 28.391 214.047 28.391 200zm30.064 28.58s-12.072-12.102-12.915-12.943c-.289-.291-.069-.52.061-.789.127-.264 4.346-8.233 4.527-8.602a.823.823 0 0 1 .659-.445h2.841c.079 0 .428.041.237.428-.183.39-3.948 7.873-4.039 8.058a.56.56 0 0 0 .113.627c.158.174 13.07 13.073 13.07 13.073-1.48.316-3.005.519-4.554.593zm9.287-2.047l-11.426-11.459c-.225-.236-.146-.531-.088-.666l4.101-8.189a.766.766 0 0 1 .729-.416h7.189c.208 0 .314.187.21.438l-1.93 4.37c-.029.109-.107.414.154.593l2.642 1.728c.338.219.577 0 .672-.201.073-.16 2.831-6.519 2.831-6.519.183-.319.403-.407.74-.407h2.424c.088.01.376.077.224.416-.155.34-2 4.577-2 4.577-.037.111-.107.412.151.591l2.663 1.758c.336.219.576-.004.666-.203.095-.199 2.929-6.646 3.164-7.193.76-1.764.434-4.725-3.063-4.725h-3.907c-.435 0-.542-.338-.542-.49V187c0-.549.287-.824.681-.87.17-.016 7.361-1.122 7.361-1.122A28.465 28.465 0 0 1 85.619 200c-.001 12.012-7.388 22.289-17.877 26.533zm194.056-59.472c-.062-.309-.258-.36-.473-.36h-1.79a.43.43 0 0 0-.402.268c-.1.21-10.733 25.092-10.92 25.515-.188.422-.366.366-.574-.09-.108-.242-11.579-25.152-11.691-25.384-.115-.235-.273-.31-.498-.31h-1.918c-.099 0-.344.04-.395.291-.045.249-5.302 34.081-5.325 34.228-.024.146-.045.508.387.508h2.387c.344 0 .607-.156.659-.477l3.61-23.126c.058-.398.167-.421.342-.049.101.207 10.694 23.245 10.775 23.411.082.171.226.242.32.242h1.185c.104 0 .223-.086.309-.271s9.776-22.864 9.946-23.25c.166-.383.264-.383.347.058l4.079 23.116c.05.289.226.349.527.349h4.616c.338 0 .568-.289.52-.568-.146-.796-5.975-33.851-6.023-34.101zm28.153 20.038c.109.245.082.5-.409.5h-9.854c-.39 0-.518-.195-.361-.555l4.971-11.511c.157-.365.422-.292.549-.002.191.43 5.001 11.331 5.104 11.568zm-2.477-19.357c-.404-.896-.881-1.045-1.244-1.045h-1.417c-.145 0-.338.073-.468.363-.126.29-14.443 33.499-14.664 33.992-.174.39-.174.675.334.675h2.585c.237 0 .429-.082.603-.472.199-.466 4.09-9.483 4.235-9.831.193-.453.584-.417.848-.417h12.837c.245 0 .536-.056.732.418l4.332 9.812c.123.291.413.486.665.486h4.854c.418 0 .592-.348.459-.652-.103-.225-14.331-32.538-14.691-33.329zm-81.053 6.163c0-2.557 1.825-4.523 4.272-5.061 2.388-.525 5.381-.017 6.939 2.01.211.272.41.612.601.942.129.224.354.438.825.464.115.005.584.026.831.033.245.005.591-.157.571-.516-.036-.695-.153-3.115-.174-3.497-.023-.479-.222-.552-.508-.678a17.503 17.503 0 0 0-3.871-1.186c-3.116-.558-6.453-.385-9.395.852-2.716 1.141-4.764 3.386-5.574 6.229-.627 2.199-.438 4.705.757 6.698 1.116 1.851 2.806 3.002 4.737 3.845 1.961.857 3.984 1.575 5.954 2.414 2.438 1.04 4.342 2.229 4.959 4.3.745 2.511.288 5.195-1.748 7.038-2.757 2.489-10.175 2.093-12.659-1.582-.454-.67-.536-1.079-1.246-1.065-.448.007-1.079 0-1.079.608l.004 3.805c0 .42.029.76.466.947.774.332 1.659.64 2.483.904 1.333.424 2.679.633 4.069.776 8.996.939 15.513-3.6 15.513-11.445 0-2.79-1.026-5.558-3.353-7.246-1.987-1.446-4.495-2.31-6.8-3.088-1.332-.449-2.936-.972-4.125-1.743-1.695-1.103-2.427-2.731-2.449-4.758m171.331-6.624a.582.582 0 0 0-.576-.583h-2.4a.587.587 0 0 0-.584.583v23.591c0 .617-.195.795-.604.374-1.287-1.347-22.006-23.154-23.019-24.212a.975.975 0 0 0-.808-.336h-1.781a.582.582 0 0 0-.584.582v33.86c0 .32.261.584.584.584h2.394a.587.587 0 0 0 .584-.584v-23.982c0-.965.521-.428.776-.154 1.527 1.602 20.807 21.896 23.148 24.354.339.357.624.365.768.365l1.514.002a.584.584 0 0 0 .588-.584v-33.86zm-250.02 33.509c-.579-.729-10.708-13.702-11.25-14.431-.245-.327-.17-.57.485-.813 1.457-.543 6.592-2.876 6.884-8.992.243-5.153-3.345-9.855-8.955-9.855h-13.854a.583.583 0 0 0-.584.581v33.862c0 .324.264.582.577.582l4.307.002c.316 0 .603-.197.603-.584v-14.194c0-.31.26-.575.584-.575h2.505c.193 0 .55.002.899.461.345.459 11.343 14.533 11.343 14.533.277.283.497.357.745.357h5.245c.472.003.763-.56.466-.934zm-18.92-17.735h-2.315c-.326 0-.546-.291-.546-.587v-12.126c0-.317.257-.573.573-.572h3.71c3.88 0 7.553 1.121 7.553 6.146-.004 2.529-1.314 7.147-8.975 7.139zm70.383-9.15c0-2.557 1.823-4.523 4.271-5.061 2.39-.525 5.382-.017 6.941 2.01.211.272.411.612.601.942.13.224.354.438.823.464.115.005.584.026.832.033.245.005.592-.157.573-.516-.037-.695-.156-3.115-.174-3.497-.025-.479-.224-.552-.509-.678a17.48 17.48 0 0 0-3.872-1.186c-3.116-.558-6.454-.385-9.394.852-2.716 1.141-4.765 3.386-5.574 6.229-.625 2.199-.438 4.705.76 6.698 1.113 1.851 2.802 3.002 4.736 3.845 1.962.857 3.982 1.575 5.954 2.414 2.438 1.04 4.34 2.229 4.957 4.3.747 2.511.288 5.195-1.749 7.038-2.753 2.489-10.174 2.093-12.659-1.582-.451-.67-.533-1.079-1.242-1.065-.448.007-1.08 0-1.08.608v3.805c0 .42.03.76.469.947.776.332 1.656.64 2.481.904 1.334.424 2.679.633 4.069.776 8.997.939 15.515-3.6 15.515-11.445 0-2.79-1.032-5.558-3.357-7.246-1.985-1.446-4.495-2.31-6.8-3.088-1.33-.449-2.931-.972-4.121-1.743-1.699-1.104-2.429-2.732-2.449-4.759m-30.719-8.665c-10.561 0-19.119 8.559-19.119 19.119 0 10.561 8.559 19.119 19.119 19.119 10.558 0 19.119-8.558 19.119-19.119-.001-10.561-8.558-19.119-19.119-19.119zm0 3.379a15.729 15.729 0 0 1 11.897 5.433h-5.495l.504-1.028c.559-1.215-1.59-2.273-2.211-.939l-.999 1.967h-15.591a15.686 15.686 0 0 1 11.895-5.433zm-15.738 15.74a15.693 15.693 0 0 1 2.333-8.252s14.565.638 14.712.64c.211-.001.4.127.474.325l1.521 3.587c.073.174.065.499-.497.499l-14.198-.003a1.754 1.754 0 0 0-1.766 1.744v5.327c0 .418.121.797.361 1.075.396.464 1.064.702 1.18.745.182.066.215-.055.215-.151v-6.775c0-.177.109-.257.231-.257h1.545c.039 0 .214-.006.086.186-.482.721-.732 1.416-.732 2.659 0 1.917 1.419 3.252 1.874 3.577.051.035.129.161.039.343-.086.18-1.39 2.762-1.441 2.857-.073.141-.125.306.05.48l6.914 6.867a15.73 15.73 0 0 1-12.901-15.473zm16.534 15.72s-6.64-6.658-7.102-7.118c-.16-.162-.039-.287.032-.435.069-.146 2.39-4.53 2.49-4.733a.456.456 0 0 1 .362-.245h1.561c.043 0 .233.024.131.234-.103.214-2.173 4.331-2.223 4.432a.307.307 0 0 0 .063.344c.087.096 7.188 7.192 7.188 7.192-.809.177-1.649.285-2.502.329zm5.108-1.127l-6.281-6.302c-.126-.131-.082-.292-.051-.365l2.255-4.506a.426.426 0 0 1 .402-.229h3.955c.111 0 .173.103.116.242l-1.063 2.405c-.017.059-.059.226.085.325l1.453.95c.184.119.315 0 .368-.111l1.558-3.586c.102-.176.222-.224.407-.224h1.334c.047.006.207.042.125.229-.084.187-1.101 2.519-1.101 2.519-.021.061-.061.226.082.325l1.466.967c.185.12.316-.002.363-.111.054-.109 1.611-3.655 1.741-3.957.418-.969.237-2.596-1.685-2.596h-2.147c-.242 0-.299-.187-.299-.27v-7.444c0-.303.16-.454.375-.478.093-.01 4.05-.618 4.05-.618a15.666 15.666 0 0 1 2.327 8.247 15.73 15.73 0 0 1-9.835 14.588zm183.208-31.67c0-.32-.26-.58-.58-.583h-2.396a.588.588 0 0 0-.587.583v23.591c0 .617-.192.795-.601.374-1.291-1.347-22.006-23.154-23.021-24.212a.958.958 0 0 0-.709-.336h-1.877a.585.585 0 0 0-.587.581v33.863a.589.589 0 0 0 .585.584h2.395a.589.589 0 0 0 .588-.584v-23.983c0-.965.518-.428.774-.154 1.528 1.602 20.806 21.896 23.147 24.354.342.356.623.365.765.365l1.519.002a.586.586 0 0 0 .586-.584c-.001.001-.001-33.857-.001-33.861z"/></svg>