<?xml version="1.0" encoding="utf-8"?>
<!-- Generator: Adobe Illustrator 16.0.3, SVG Export Plug-In . SVG Version: 6.00 Build 0)  -->
<!DOCTYPE svg PUBLIC "-//W3C//DTD SVG 1.1//EN" "http://www.w3.org/Graphics/SVG/1.1/DTD/svg11.dtd">
<svg version="1.1" id="Ebene_1" xmlns="http://www.w3.org/2000/svg" xmlns:xlink="http://www.w3.org/1999/xlink" x="0px" y="0px"
	 width="400px" height="216px" viewBox="0 0 400 216" enable-background="new 0 0 400 216" xml:space="preserve">
<g>
	<path id="path95" fill="#154391" d="M320.829,93.218c-0.443-0.444,0.953-9.469-0.763-12.901c-1.461-3.05-10.486-2.479-12.773-2.604
		c-0.381-0.064-0.763-0.192-0.444-0.638c0.571-0.763,2.033-2.351,2.667-3.366c0.192-0.319,0.128-0.383-0.126-0.447
		c-2.097-0.254-4.129-0.444-6.165-0.699c-13.28-1.78-17.094-9.787-17.412-12.773c-0.127-0.954,0.51-1.206,1.019-0.444
		c6.1,8.771,13.089,8.898,13.216,8.388c0.192-0.508-6.607-6.61-4.51-13.727c1.907-6.48,16.841-17.477,18.238-19.001
		c1.652-1.841,0-4.256-3.56-3.43c-1.207,0.252-1.969,0.951-2.479,0.698c-0.443-0.191,0.953-1.397,0.128-2.163
		c-0.763-0.826-1.398-0.316-1.778-0.698c-0.446-0.38-0.318-1.206,0.064-1.27c1.205-0.127,2.412-0.127,3.62-0.127
		c3.941,0.127,8.072,1.333,8.262,5.209c0.254,5.149-15.062,14.618-14.172,21.544c0.256,1.908,3.94,1.908,6.674,1.908
		c2.797,0,8.771-2.479,12.327-2.923c1.844-0.254,2.67,1.778,6.482,1.969c6.546,0.255,10.422-1.716,18.813-1.334
		c2.986,0.699,2.476,10.803,2.352,13.218c-0.063,0.446,0,0.51,0.191,0.51c1.333-0.191,5.464-0.574,10.356,0.061
		c12.329,1.591,25.104,5.532,26.309,19.575c0.574,6.671-0.57,12.263-1.396,17.158c-0.571,3.368-0.571,5.975-0.508,8.453
		c0,0.571,0.253,1.716,0.316,2.16c0.128,0.57-0.063,0.763-0.38,0.763c-0.318,0-0.954,0-1.209-0.128
		c-0.252-0.128-0.699-0.252-0.891,0.827c-1.015,7.053-0.125,12.266,0.384,14.553c0.127,0.636,0.19,1.079-0.192,1.079h-10.166
		c-0.7,0-0.319-0.89-0.128-1.398c0.254-0.57,0.89-2.286,0.89-2.478c0.063-4.132-1.081-9.849-3.622-13.026
		c-0.762-1.018-2.415-2.035-4.131-2.734c-3.433-1.396-15.316-3.876-19.384-4.067c-1.206,0-2.287,0.383-2.287,1.907
		c0,3.686,3.876,14.108,5.972,19.764c0.511,1.335,0.891,2.033-0.124,2.033h-10.805c-0.636,0-0.38-0.571-0.316-0.824
		c1.015-2.606,1.079-3.433,0.762-4.386c-3.433-9.915-10.167-23.26-12.71-33.619c-0.063-0.38-0.063-0.316-0.446-0.316
		C324.641,93.41,321.275,93.601,320.829,93.218"/>
	<path id="path99" fill="#E30615" d="M56.017,103.26h7.88l10.422,29.168H62.563l-1.908-6.291h-4.638h-4.83l-1.78,6.291H38.224
		l10.232-29.168H56.017z M56.017,119.083h3.241l-3.177-10.04l-3.369,10.04H56.017z"/>
	<path id="path103" fill="#E30615" d="M186.23,103.386h4.132c5.018,0,10.04,1.588,10.04,7.181c0,4.004-2.16,6.164-6.037,7.118
		c4.068,0.634,6.546,3.812,6.546,6.798c0,7.182-5.911,8.008-12.011,8.008h-2.67h-14.043v-29.105H186.23z M186.23,114.508
		c1.716-0.128,3.178-0.826,3.178-2.795c0-2.036-1.397-2.734-3.178-2.798c-0.127,0-0.254-0.064-0.446-0.064h-3.05v5.657h2.798H186.23
		z M186.23,126.519c1.844-0.128,3.497-0.953,3.497-2.985c0-2.352-1.589-2.862-3.497-2.99h-0.446h-3.05v5.976h2.925H186.23z"/>
	<path id="path107" fill="#E30615" d="M153.629,125.629c4.323-0.063,4.766-4.767,4.766-7.88c0-2.671-0.571-7.944-4.766-7.944
		c-4.258-0.063-4.83,5.273-4.83,7.944c0,3.113,0.698,7.88,4.766,7.88H153.629z M153.629,102.751
		c10.104,0,16.143,5.337,16.143,15.125c0,9.913-6.039,15.062-16.143,15.125c-10.295,0-16.27-5.212-16.27-15.125
		c0-9.851,5.975-15.125,16.206-15.125H153.629z"/>
	<path id="path111" fill="#E30615" d="M90.08,103.26h3.557c6.993,0,11.313,2.16,11.313,7.752c0,4.514-2.604,6.738-6.734,7.753
		c2.415,0.509,3.939,1.651,4.89,3.241c1.844,3.052,2.798,7.563,3.433,10.485H94.91c-0.382-2.096-1.334-6.671-2.224-8.451
		c-0.637-1.145-1.461-1.397-2.606-1.46c-0.191-0.064-0.383-0.064-0.571-0.064H86.52v9.976H75.717V103.26H90.08z M90.08,115.97
		c2.033-0.063,3.621-0.508,3.621-3.179c0-2.414-1.588-2.922-3.621-2.985c-0.191,0-0.319-0.064-0.507-0.064h-3.114v6.292h2.922
		C89.634,116.033,89.889,116.033,90.08,115.97"/>
	<path id="path115" fill="#E30615" d="M259.694,132.492h21.417v-8.643h-10.232v-20.59h-11.185V132.492z"/>
	<path id="path119" fill="#E30615" d="M135.518,117.621h-9.596v7.816c-0.699,0.255-1.844,0.255-2.67,0.255
		c-4.447,0-6.1-3.56-6.1-7.564c0-5.273,3.685-8.132,9.278-8.132c3.116,0,6.103,0.762,7.691,1.717v-7.883
		c-2.797-0.699-5.465-1.079-10.933-1.079c-9.341,0-17.473,4.891-17.473,14.678c0,10.422,7.752,15.571,17.473,15.571
		c4.642,0,8.518-0.51,12.33-1.652V117.621z"/>
	<path id="path123" fill="#E30615" d="M214.192,103.26h-11.248v17.73c0,8.643,6.673,12.012,14.809,12.012
		c8.83,0,14.679-3.116,14.679-12.586V103.26h-10.994v17.603c0,2.859-0.635,4.831-3.561,4.831c-2.667,0-3.685-2.1-3.685-4.894V103.26
		z"/>
	<path id="path127" fill="#E30615" d="M235.609,132.492h21.671v-8.643h-10.486v-20.59h-11.185V132.492z"/>
	<path id="path131" fill="#E30615" d="M37.905,124.04c-2.097,0.698-4.067,1.143-6.1,1.143c-4.639,0-8.008-2.54-8.008-7.562
		c0-4.83,3.622-7.372,8.388-7.372c1.907,0,3.749,0.509,5.592,1.081v-7.689c-2.986-0.51-4.83-0.89-7.943-0.89
		c-9.341,0-17.477,4.891-17.477,14.678c0,10.422,7.755,15.508,17.477,15.508c2.861,0,5.975-0.571,8.071-1.146V124.04z"/>
	<path id="path135" fill="#154391" d="M263.57,69.959l-18.621,17.412v11.185h35.08v-10.04H261.41l19.701-18.302V60.046h-69.905
		v9.913h11.12v28.597h14.808V69.959H263.57z"/>
	<path id="path137" fill="#154391" d="M192.522,60.046h14.806v38.51h-14.806V60.046z"/>
	<path id="path141" fill="#154391" d="M133.738,98.556h12.646l0.128-30.25h0.255l7.306,30.25h12.266l7.562-30.25h0.127l0.191,30.25
		H187.5v-38.51h-21.796l-4.958,21.098h-0.063l-5.021-21.098h-21.924V98.556z"/>
	<path id="path145" fill="#154391" d="M113.848,73.327h-9.913V60.046H89.125v38.51h14.809V84.704h9.913v13.852h14.742v-38.51
		h-14.742V73.327z"/>
	<path id="path149" fill="#154391" d="M84.741,87.499c-2.731,0.953-5.337,1.461-8.071,1.461c-6.228,0-10.93-3.369-10.93-9.977
		c0-6.292,5.021-9.66,11.44-9.66c2.479,0,5.019,0.635,7.498,1.397V60.618c-4.068-0.763-6.546-1.208-10.676-1.208
		c-12.521,0-23.387,6.418-23.387,19.319c0,13.792,10.422,20.527,23.387,20.527c3.813,0,7.944-0.763,10.739-1.589V87.499z"/>
	<path id="path153" fill="#154391" d="M46.167,60.68c-4.004-0.826-8.834-1.27-12.965-1.27c-8.834,0-20.59,1.841-20.59,12.456
		c0,14.933,21.225,10.231,21.225,15.441c0,1.971-3.876,2.67-7.307,2.67c-4.45,0-9.216-0.89-13.156-2.542v9.979
		c5.528,1.27,10.358,1.841,16.015,1.841c8.579,0,19.256-2.604,19.256-12.899c0-14.87-21.164-10.107-21.164-15.189
		c0-2.479,4.958-2.542,7.245-2.542c4.195,0,8.135,0.826,11.44,1.971V60.68z"/>
	<path id="path157" fill="#707070" d="M36.189,180.663h3.432v-7.054c0-2.798,2.352-3.813,4.129-3.813
		c2.861,0,3.305,1.588,3.305,3.05v7.816h3.433v-8.962c0-3.558-2.733-4.575-5.593-4.575c-2.351,0-4.067,0.954-5.21,2.352h-0.064
		v-6.862h-3.432V180.663z"/>
	<path id="path161" fill="#707070" d="M330.616,181.044v-2.097c1.779-0.255,3.876-1.145,3.876-3.559v-1.271
		c-0.891,0.38-1.907,0.507-3.876,0.762v-2.098c3.496-0.381,3.939-0.636,3.939-1.526c0-1.523-1.716-1.904-3.748-1.904h-0.191V167
		h0.191c6.925,0,7.116,2.732,7.116,4.447v6.228c0,0.7,0.509,0.764,0.764,0.764c0.315,0,0.826-0.063,1.078-0.063v2.414
		c-0.635,0.127-1.27,0.255-2.414,0.255c-2.224,0-2.478-1.146-2.604-1.652C334.237,179.898,333.031,180.725,330.616,181.044"/>
	<path id="path165" fill="#707070" d="M347.267,180.663h3.433v-7.054c0-2.798,2.286-3.813,4.066-3.813
		c2.858,0,3.303,1.588,3.303,3.05v7.816h3.432v-8.962c0-3.558-2.73-4.575-5.592-4.575c-2.287,0-4.067,0.954-5.146,2.352h-0.063
		v-1.969h-3.433V180.663z"/>
	<path id="path169" fill="#707070" d="M374.274,180.472l-0.763,1.589c-0.382,0.827-1.081,1.018-1.971,1.018
		c-0.763,0-1.462,0-1.714-0.064v2.669c0.635,0,1.524,0.063,2.097,0.063c2.922,0,3.748-0.444,4.766-2.732l7.182-15.506h-3.624
		l-4.129,9.404l-4.259-9.404h-3.749L374.274,180.472z"/>
	<path id="path171" fill="#707070" d="M385.905,180.664h3.876v-3.496h-3.876V180.664z"/>
	<path id="path175" fill="#707070" d="M330.616,166.999v2.352c-2.16,0.063-3.306,0.762-3.433,2.16h-3.306
		C324.324,168.142,326.804,167.063,330.616,166.999"/>
	<path id="path179" fill="#707070" d="M330.616,172.783v2.096c-0.192,0-0.447,0.063-0.635,0.063
		c-2.607,0.319-3.241,0.891-3.241,1.972c0,1.777,1.588,2.097,2.795,2.097c0.318,0,0.698-0.064,1.081-0.064v2.099
		c-0.635,0.125-1.271,0.125-2.035,0.125c-3.431,0-5.401-1.523-5.401-4.128c0-3.624,3.752-3.94,5.911-4.131
		C329.662,172.847,330.169,172.783,330.616,172.783"/>
	<path id="path183" fill="#707070" d="M308.818,181.171v-2.605c3.241,0,4.447-2.16,4.447-4.447c0-2.161-1.206-4.323-4.447-4.323
		v-2.604c0.255,0,0.508-0.063,0.826-0.063c5.021,0,7.182,3.686,7.182,6.991c0,3.432-2.16,7.053-7.182,7.053H308.818z"/>
	<path id="path187" fill="#707070" d="M308.818,167.19v2.606c-3.242,0-4.448,2.16-4.448,4.32c0,2.287,1.206,4.449,4.448,4.449v2.604
		c-2.352-0.253-4.004-1.588-4.259-2.287h-0.064v6.865h-3.43V167.51h3.43v1.904h0.064
		C305.449,168.017,307.038,167.318,308.818,167.19"/>
	<path id="path191" fill="#707070" d="M254.038,181.171v-2.605c3.369,0,4.575-2.16,4.575-4.447c0-2.288-1.206-4.45-4.575-4.45
		v-2.669c5.911,0,8.198,3.434,8.198,7.119C262.236,177.738,259.949,181.171,254.038,181.171"/>
	<path id="path195" fill="#707070" d="M279.521,180.663h3.433v-7.31c0-2.922,2.352-3.557,3.558-3.557c3.05,0,3.241,1.651,3.241,3.05
		v7.816h3.433v-8.707c0-4.067-3.113-4.83-5.213-4.83c-2.795,0-4.511,1.271-5.4,2.479c-0.891-2.16-3.115-2.479-4.639-2.479
		c-2.352,0-4.067,0.954-5.211,2.352v-1.969h-3.496v13.154h3.496v-7.31c0-2.922,2.353-3.557,3.558-3.557
		c3.05,0,3.241,1.651,3.241,3.05V180.663z"/>
	<path id="path199" fill="#707070" d="M254.038,166.999v2.67c-3.305,0-4.575,2.16-4.575,4.448c0,2.287,1.271,4.446,4.575,4.446
		v2.606c-5.909,0-8.135-3.432-8.135-7.053C245.903,170.432,248.129,166.999,254.038,166.999"/>
	<path id="path203" fill="#707070" d="M185.722,181.171v-2.479h0.064c2.288,0,3.241-0.762,3.94-1.907h3.749
		c-0.763,1.465-2.542,4.387-7.625,4.387H185.722z"/>
	<path id="path207" fill="#707070" d="M185.722,174.943v-2.16h4.45c-0.446-2.606-2.734-3.433-4.45-3.433v-2.352
		c5.784,0.063,8.008,3.621,8.008,7.5v0.444H185.722z"/>
	<path id="path211" fill="#707070" d="M201.293,180.663h3.496v-6.356c0-3.05,2.411-3.939,4.192-3.939c0.571,0,1.208,0,2.16,0.319
		v-3.433c-0.444-0.063-0.827-0.128-1.334-0.128c-2.668,0-4.067,1.462-5.019,2.922v-2.539h-3.496V180.663z"/>
	<path id="path215" fill="#707070" d="M239.168,169.478c-0.381-3.812-3.558-7.053-9.724-7.053c-6.991,0-9.913,4.383-9.913,9.404
		c0,4.957,3.05,9.342,9.469,9.342c7.308,0,9.66-3.749,10.168-7.245H235.1c-0.252,1.844-1.588,4.45-5.466,4.45
		c-3.684,0-6.227-2.543-6.227-6.228c0-4.641,2.543-6.929,5.973-6.929c3.178,0,5.404,1.588,5.72,4.258H239.168z"/>
	<path id="path219" fill="#707070" d="M185.722,166.999v2.352c-1.588,0-3.875,0.762-4.447,3.433h4.447v2.16h-4.447
		c0.126,1.461,1.079,3.748,4.447,3.748v2.479c-5.847-0.063-8.007-3.493-8.007-6.926c0-4.449,3.241-7.245,7.943-7.245H185.722z"/>
	<path id="path223" fill="#707070" d="M137.043,181.044v-2.097c1.78-0.255,3.875-1.145,3.875-3.559v-1.271
		c-0.953,0.38-1.907,0.507-3.875,0.762v-2.098c3.496-0.381,3.939-0.636,3.939-1.526c0-1.523-1.78-1.904-3.749-1.904h-0.19V167h0.19
		c6.863,0,7.118,2.732,7.118,4.447v6.228c0,0.7,0.507,0.764,0.698,0.764c0.316,0,0.89-0.063,1.142-0.063v2.414
		c-0.698,0.127-1.269,0.255-2.415,0.255c-2.288,0-2.54-1.146-2.604-1.652C140.601,179.898,139.458,180.725,137.043,181.044"/>
	<path id="path225" fill="#707070" d="M153.501,180.664h3.433v-13.153h-3.433V180.664z"/>
	<path id="path227" fill="#707070" d="M153.501,165.411h3.433v-2.798h-3.433V165.411z"/>
	<path id="path229" fill="#707070" d="M166.339,180.664h3.433v-18.048h-3.433V180.664z"/>
	<path id="path233" fill="#707070" d="M137.043,166.999v2.352c-2.16,0.063-3.305,0.762-3.433,2.16h-3.366
		C130.752,168.142,133.231,167.063,137.043,166.999"/>
	<path id="path237" fill="#707070" d="M137.043,172.783v2.096c-0.191,0-0.447,0.063-0.635,0.063
		c-2.606,0.319-3.241,0.891-3.241,1.972c0,1.777,1.588,2.097,2.794,2.097c0.319,0,0.699-0.064,1.082-0.064v2.099
		c-0.635,0.125-1.334,0.125-2.097,0.125c-3.432,0-5.34-1.523-5.34-4.128c0-3.624,3.688-3.94,5.911-4.131
		C136.089,172.847,136.597,172.783,137.043,172.783"/>
	<path id="path241" fill="#707070" d="M65.867,181.171v-2.479c2.288,0,3.305-0.762,3.94-1.907h3.749
		c-0.763,1.465-2.541,4.387-7.561,4.387H65.867z"/>
	<path id="path245" fill="#707070" d="M65.867,174.943v-2.16h4.384c-0.38-2.606-2.732-3.433-4.384-3.433v-2.352
		c5.784,0.063,8.008,3.621,8.008,7.5v0.444H65.867z"/>
	<path id="path249" fill="#707070" d="M97.515,180.663h3.685v-14.935h6.674v-2.797H90.841v2.797h6.674V180.663z"/>
	<path id="path253" fill="#707070" d="M113.657,180.663h3.433v-6.356c0-3.05,2.476-3.939,4.256-3.939c0.573,0,1.208,0,2.163,0.319
		v-3.433c-0.447-0.063-0.827-0.128-1.336-0.128c-2.668,0-4.067,1.462-5.02,2.922h-0.063v-2.539h-3.433V180.663z"/>
	<path id="path257" fill="#707070" d="M19.73,180.663h3.685v-14.935h6.674v-2.797H13.056v2.797h6.674V180.663z"/>
	<path id="path261" fill="#707070" d="M65.867,166.999v2.352h-0.063c-1.589,0-3.813,0.762-4.384,3.433h4.447v2.16H61.42
		c0.061,1.461,1.079,3.748,4.447,3.748v2.479c-5.848-0.063-8.071-3.493-8.071-6.926c0-4.449,3.305-7.245,7.944-7.245H65.867z"/>
</g>
</svg>
