<svg version="1.2" baseProfile="tiny" xmlns="http://www.w3.org/2000/svg" width="400" height="216"><path d="M122.605 105.147l-4.587.734c-.367-1.927-1.927-2.661-3.486-2.661s-2.294.734-2.294 1.927c0 .734.367 1.192 1.56 1.56l3.854.734c3.486.734 5.046 2.661 5.046 5.413 0 3.854-3.486 6.146-7.706 6.146-4.221 0-7.707-1.927-8.073-5.779l4.587-.734c.366 1.926 1.927 2.66 3.853 2.66 1.927 0 2.661-.734 2.661-1.926 0-.734-.367-1.193-1.927-1.561l-3.854-.733c-2.66-.733-5.046-1.927-5.046-5.413 0-3.853 3.12-5.78 7.34-5.78s7.247 2.293 8.072 5.413zm16.514 8.074h-10.367c.367 1.926 1.56 2.66 3.119 2.66 1.193 0 2.294-.367 3.12-1.56l3.853.733c-1.192 3.119-3.853 4.588-6.973 4.588-4.22 0-7.339-3.119-7.339-7.34 0-4.587 3.486-7.339 7.339-7.339 3.854 0 6.973 2.661 7.34 7.339l-.092.919zm-10.367-2.753h5.78c-.367-1.56-1.56-2.293-2.661-2.293-1.1-.001-2.385.825-3.119 2.293zm23.119-5.78v4.587h-.733c-3.119 0-4.587 1.56-4.587 5.412v4.588h-4.588v-14.22h4.588v2.661c1.192-1.927 2.66-3.12 4.587-3.12-.092.092.275.092.733.092zM162.605 119h-4.587l-5.78-14.22h4.588l3.485 8.441 3.486-8.441h4.588l-5.78 14.22zm12.752-18.073c0 1.56-1.192 2.661-2.66 2.661-1.56 0-2.66-1.193-2.66-2.661 0-1.193 1.192-2.661 2.66-2.661 1.468-.092 2.66 1.101 2.66 2.661zM170.312 119v-14.312h4.588v14.22h-4.588V119zm17.707-5.779l4.22.733c-.733 3.119-3.853 5.413-6.973 5.413-4.22 0-7.706-3.119-7.706-7.34 0-4.587 3.486-7.339 7.706-7.339 3.486 0 6.515 1.927 6.973 5.414l-4.22 1.191c-.367-1.926-1.56-2.66-3.119-2.66a3.485 3.485 0 0 0-3.486 3.486c0 1.927 1.192 3.486 3.486 3.486 1.559-.091 2.751-.826 3.119-2.384zm20 0h-10.367c.367 1.926 1.56 2.66 3.119 2.66 1.192 0 2.294-.367 3.119-1.56l3.854.733c-1.192 3.119-3.854 4.588-6.973 4.588-3.853 0-7.339-3.119-7.339-7.34 0-4.587 3.486-7.339 7.339-7.339 3.854 0 6.973 2.661 7.34 7.339l-.092.919zm-10-2.753h5.779c-.366-1.56-1.56-2.293-2.66-2.293-1.56-.001-2.752.825-3.119 2.293zm28.073-10.367c4.22 0 6.973 2.66 6.973 6.514 0 3.853-2.661 6.514-6.973 6.514h-4.587v5.779h-4.587v-18.807h9.174zm-.367 9.266c1.927 0 3.119-1.193 3.119-2.661 0-1.56-1.192-2.661-3.119-2.661h-3.854v5.413h3.854v-.091zM250.403 119h-4.587v-1.193c-1.192.734-2.66 1.561-4.587 1.561-3.854 0-6.973-3.119-6.973-7.34 0-4.587 3.119-7.339 6.973-7.339 1.927 0 3.119.734 4.587 1.56v-1.192h4.587V119zm-4.678-6.973c0-1.926-1.56-3.853-3.486-3.853-1.926 0-3.486 1.56-3.486 3.853 0 1.927 1.561 3.854 3.486 3.854 2.018-.367 3.486-1.927 3.486-3.854zm18.073-7.339l-.366 4.587h-.734c-3.119 0-4.587 1.56-4.587 5.412v4.588h-4.587v-14.22h4.587v2.661c1.192-1.927 2.66-3.12 4.587-3.12.366.092.734.092 1.1.092zm12.386 13.486c-1.192.734-2.294 1.193-3.854 1.193-3.486 0-5.412-1.927-5.412-5.779v-5.414h-2.661v-3.486h2.661v-4.22h4.587v4.22h4.22v3.486h-4.22v5.046c0 1.559.733 1.926 1.927 1.926.733 0 1.56 0 1.926-.734l.826 3.762zm16.146-7.706v8.44h-4.587v-7.707c0-1.559-.734-2.66-2.294-2.66s-3.119 1.193-3.119 3.853v6.514h-4.22v-13.853h4.587v1.192c1.192-1.192 2.66-1.926 4.221-1.926 3.119.367 5.412 2.752 5.412 6.147zm16.514 2.753h-10.367c.367 1.926 1.561 2.66 3.12 2.66 1.192 0 2.293-.367 3.119-1.56l3.853.733c-1.192 3.119-3.853 4.588-6.972 4.588-4.221 0-7.34-3.119-7.34-7.34 0-4.587 3.486-7.339 7.34-7.339 3.853 0 6.972 2.661 7.339 7.339l-.092.919zm-10-2.753h5.78c-.367-1.56-1.56-2.293-2.661-2.293-1.56-.001-2.752.825-3.119 2.293zm22.753-5.78l-.367 4.587h-.734c-3.119 0-4.587 1.56-4.587 5.412v4.588h-4.587v-14.22h4.587v2.661c1.192-1.927 2.66-3.12 4.587-3.12.275.092.733.092 1.101.092zm27.706 5.046c0 5.412-4.22 9.633-9.633 9.633s-9.633-4.221-9.633-9.633c0-5.413 4.22-9.633 9.633-9.633s9.633 4.22 9.633 9.633zm-1.56 0c0-4.587-3.486-8.441-8.073-8.441s-8.073 3.854-8.073 8.441c0 4.587 3.486 8.439 8.073 8.439s8.073-3.852 8.073-8.439zm21.56 9.266h-1.192l-13.027-16.147V119h-1.56v-18.899h1.192l13.119 16.147v-16.147h1.56L369.303 119zm6.972-10h11.192v1.193h-11.192v7.705h11.927v1.193h-13.486V100.1h13.486v1.192h-11.927V109z" fill="#55677B"/><path fill="#48B5DD" d="M13.798 87.899v42.203c0 .458.275.825.643 1.1l36.514 21.102c.184.092.275.092.459.184h.184c.184 0 .458-.092.642-.184l36.514-21.102c.367-.183.643-.642.643-1.1V87.716c-.092-.367-.275-.734-.643-.917L52.238 65.697c-.367-.184-.825-.184-1.284 0L14.44 86.798c-.367.183-.551.55-.643.917l.001.184zm2.477 39.999V90.009L49.027 109l-32.752 18.898zm36.514-21.1v-37.89l32.752 18.899-32.752 18.991zm-2.477 0L17.56 87.899l32.752-18.991v37.89zm1.193 42.936L17.56 130.102l34.679-20L86.827 90.01v39.266l-35.322 20.458z"/></svg>