<svg xmlns="http://www.w3.org/2000/svg" width="400" height="216" viewBox="0 92 400 216"><path fill="#1A171B" d="M354.053 140.695c9.98 0 19.966.143 29.941-.06 5.194-.106 11.058 4.05 12.218 10.397.587 3.209.052 6.215-1.591 9.066-10.014 17.386-19.994 34.791-29.996 52.184-2.884 5.017-8.83 6.536-13.451 3.464-4.149-2.757-5.381-8.118-2.833-12.58 5.013-8.774 10.059-17.528 15.092-26.291 2.706-4.714 5.404-9.432 8.13-14.134.502-.865.677-1.68.109-2.562-.446-.694-1.095-.842-1.886-.841-14.26.017-28.52.021-42.777.001-1.821-.003-3.654.185-5.468-.183-4.81-.973-7.895-5.302-7.38-10.369.455-4.473 4.521-8.082 9.179-8.089 10.237-.014 20.475-.003 30.713-.003zm-86.492 66.27c-2.172 1.229-4.282 2.279-6.563 2.938-3.48 1.01-7.008 1.463-10.606.797-3.762-.698-6.097-2.988-7.051-6.649-.756-2.909-.705-5.864-.151-8.807.767-4.082 3.413-6.196 7.345-6.928 1.587-.295 3.188-.401 4.8-.402 3.657-.001 7.313.005 10.97-.009.368-.001.923.257.915-.532-.036-2.924.125-5.862-.1-8.771-.296-3.827-2.378-5.628-6.482-6.104-4.894-.568-9.701.121-14.487.988-.842.151-1.143.012-1.148-.822-.002-.322-.119-.644-.174-.968-.388-2.273-.397-2.331 1.935-2.794 5.631-1.119 11.301-1.618 16.968-.329 5.171 1.177 7.995 4.607 8.354 9.881a29.5 29.5 0 0 1 .069 1.972c.005 9.544-.009 19.086.024 28.63.004.914-.242 1.229-1.151 1.133-1.012-.104-2.305.398-2.976-.188-.648-.567-.348-1.901-.491-3.036zm-130.275-16.037c-3.875 0-7.751.044-11.627-.029-1.056-.021-1.258.324-1.221 1.278.082 2.081-.011 4.165.154 6.248.402 5.035 3.033 7.667 8.059 8.097 5.023.431 9.909-.36 14.744-1.588.785-.201 1.117-.166 1.196.729.07.793.306 1.574.508 2.352.12.456.096.739-.435.903-6.412 1.983-12.94 2.829-19.563 1.454-5.397-1.12-8.616-5.053-9.322-10.811-.457-3.718-.201-7.45-.221-11.175-.015-2.92-.182-5.847.191-8.764.828-6.483 4.589-10.424 11.084-11.453 2.938-.466 5.896-.479 8.833.128 5.953 1.228 9.498 5.128 10.186 11.17.412 3.61.108 7.232.229 10.848.023.729-.408.614-.839.614l-11.956-.001zm-66.222-11.629c-.728-5.766-4.066-9.618-9.575-10.883-3.794-.872-7.625-.822-11.392.191-4.347 1.169-7.251 3.918-8.553 8.267-.462 1.543-.736 3.129-.745 4.745-.021 4.386-.023 8.771-.029 13.156-.003 1.644.028 3.283.246 4.92.789 5.934 4.119 9.579 9.968 10.833 2.195.475 4.419.494 6.651.44 4.112-.1 8.131-.722 12.053-1.987.624-.201.822-.416.609-1.071-.235-.724-.418-1.486-.479-2.242-.071-.896-.409-.935-1.194-.733-4.796 1.217-9.644 2.006-14.627 1.599-5.126-.419-7.729-2.987-8.175-8.09-.19-2.191-.075-4.384-.157-6.573-.029-.785.222-.964.976-.958 3.91.038 7.821.018 11.731.018 4.02 0 8.04.003 12.06-.006.388 0 .901.207.879-.563-.11-3.689.219-7.385-.247-11.063zm91.32 10.093c0-6.469.032-12.939-.03-19.408-.01-1.104.321-1.419 1.338-1.267.395.059.804.009 1.205.009 1.923 0 1.923 0 2.049 1.982.108 1.72.103 1.702 1.69 1.039 4.15-1.734 8.394-3.156 12.877-3.744 1.419-.187 2.854-.229 4.266-.034 4.148.571 6.532 3.226 6.834 7.547.06.838.074 1.68.074 2.521.006 10.307-.013 20.614.029 30.923.005 1.031-.291 1.328-1.274 1.233-.87-.082-1.76-.084-2.629.002-.916.093-1.059-.288-1.057-1.104.026-10.527.017-21.055.016-31.581 0-.439.015-.879-.021-1.315-.193-2.316-1.491-3.564-3.816-3.696-2.108-.12-4.135.336-6.157.848a52.804 52.804 0 0 0-9.556 3.422c-.65.306-.873.664-.871 1.396.029 10.271.008 20.542.041 30.813.003.922-.153 1.34-1.176 1.217a11.53 11.53 0 0 0-2.519-.002c-1.026.108-1.352-.182-1.342-1.283.06-6.506.029-13.011.029-19.518z"/><path fill="#67A82F" d="M343.128 166.927c4.604 0 9.209-.003 13.813.002 1.753.002 2.43 1.147 1.548 2.686-4.605 8.043-9.225 16.08-13.851 24.112-.782 1.359-2.228 1.353-3.015-.012-4.629-8.03-9.251-16.064-13.862-24.105-.878-1.532-.195-2.679 1.557-2.681 4.603-.005 9.206-.002 13.81-.002z"/><path fill="#1A171B" d="M17.327 210.996c-4.468-.016-8.256-.451-11.908-1.786-.617-.226-.909-.412-.657-1.146.259-.752.377-1.56.495-2.353.096-.647.293-.842.997-.632 3.989 1.197 8.076 1.637 12.234 1.436a17.962 17.962 0 0 0 3.252-.438c2.244-.529 3.316-1.652 3.683-3.923.323-2 .342-4.026 0-6.008-.324-1.887-1.789-2.903-3.485-3.437-2.188-.688-4.43-1.203-6.652-1.78-1.766-.459-3.516-.955-5.188-1.702-2.987-1.336-4.927-3.404-5.151-6.854-.128-1.974-.301-3.951-.052-5.908.58-4.567 3.041-7.228 7.655-8.075 5.65-1.036 11.271-.606 16.843.725.564.135.688.359.591.896-.154.862-.321 1.735-.329 2.605-.007.864-.419.829-1.036.706a54.574 54.574 0 0 0-11.547-1.027c-1.208.02-2.405.129-3.587.398-2.238.509-3.217 1.492-3.583 3.71-.325 1.965-.215 3.926.125 5.887.248 1.434 1.037 2.35 2.353 2.91 2.327.99 4.789 1.523 7.205 2.215 1.717.491 3.438.975 5.119 1.575 3.801 1.358 5.67 3.979 5.789 8.003.051 1.717.167 3.444-.072 5.147-.743 5.273-3.164 7.683-8.458 8.508-1.74.278-3.493.316-4.636.348zm77.987-4.439c4.175-12.332 8.306-24.469 12.367-36.627.337-1.009.777-1.293 1.763-1.223 1.19.085 2.392.02 3.711.02-1.106 3.271-2.169 6.407-3.231 9.542-3.495 10.313-7.002 20.625-10.466 30.95-.257.769-.591.999-1.371.978a115.19 115.19 0 0 0-5.699-.004c-.594.012-.907-.133-1.111-.736a13617.24 13617.24 0 0 0-13.482-39.851c-.281-.827-.026-.918.686-.887.985.042 1.981.09 2.957-.013.933-.098 1.232.307 1.503 1.121 3.938 11.818 7.91 23.625 11.877 35.432.126.374.282.739.496 1.298zm141.096-37.831c-.661 1.977-1.277 3.836-1.906 5.691-3.932 11.595-7.87 23.187-11.779 34.788-.248.736-.561 1.023-1.362.994a93.481 93.481 0 0 0-5.703-.006c-.674.02-.926-.221-1.134-.842a11266.301 11266.301 0 0 0-13.438-39.653c-.308-.899-.096-1.04.744-.986.983.063 1.979.074 2.959-.004.809-.064 1.125.25 1.375.996 3.945 11.821 7.924 23.63 11.898 35.44.137.406.178.858.563 1.261 1.58-4.652 3.143-9.25 4.699-13.85 2.578-7.629 5.16-15.258 7.718-22.894.228-.681.497-1.007 1.287-.957 1.307.083 2.623.022 4.079.022zm54.289-17.637v1.244c0 18.861-.011 37.723.026 56.583.002 1.093-.292 1.381-1.327 1.279-.978-.094-1.973-.043-2.959-.01-.53.019-.734-.18-.689-.695.021-.254.004-.512.004-.766 0-18.535.007-37.066-.021-55.6-.001-.98.093-1.54 1.288-1.552 1.194-.01 2.382-.301 3.678-.483zM175.747 256.141c0-4.494.026-8.99-.024-13.484-.01-.899.272-1.094 1.097-1.059.724.033 1.153.014 1.142 1.006-.062 5.227-.042 10.455-.012 15.682.003.699-.184.842-.887.926-1.669.194-2.565-.383-3.301-1.96-1.846-3.961-3.93-7.812-5.92-11.706-.156-.307-.325-.605-.658-.865v4.002c0 3.254-.035 6.506.021 9.76.017.951-.554.748-1.052.722-.496-.022-1.174.327-1.166-.729.042-5.336.028-10.672.007-16.009-.002-.597.145-.75.771-.833 1.741-.23 2.68.362 3.455 2.039 1.965 4.254 4.204 8.381 6.333 12.559.063-.021.129-.038.194-.051zm24.812-5.766c0 1.168.006 2.339-.002 3.507-.018 3.108-1.52 4.925-4.584 5.42-1.447.236-2.917.207-4.351-.174-2.153-.573-3.57-2.146-3.685-4.487a86.294 86.294 0 0 1-.007-8.435c.127-2.579 1.632-4.112 4.182-4.628 1.746-.352 3.49-.334 5.188.256 1.945.676 3.165 2.314 3.235 4.375.049 1.389.01 2.777.01 4.166h.014zm40.806.057c0 1.135.004 2.268-.002 3.397-.015 3.142-1.473 4.938-4.533 5.464-1.483.253-2.991.223-4.457-.182-2.206-.604-3.579-2.293-3.668-4.746a110.495 110.495 0 0 1-.003-7.893c.098-2.728 1.593-4.373 4.274-4.904 1.669-.33 3.341-.318 4.977.218 2.071.679 3.323 2.313 3.392 4.481.045 1.387.008 2.776.008 4.164l.012.001zm-86.44.004c0 2.598-.063 5.194.031 7.787.038 1.053-.486.948-1.178.967-.752.021-1.171-.039-1.127-1.014.092-2.043.007-4.092.041-6.139.012-.605-.135-.822-.778-.811-2.046.041-4.096.043-6.142 0-.669-.017-.872.157-.856.844.047 2.084-.043 4.171.041 6.25.048 1.185-.72.796-1.291.851-.619.06-1.071.08-1.063-.848a826.3 826.3 0 0 0 0-15.901c-.01-1.008.57-.814 1.115-.791.538.021 1.278-.336 1.235.788-.074 1.972.008 3.947-.036 5.921-.017.686.202.869.868.855 2.01-.041 4.021-.053 6.03.005.78.022.889-.289.875-.952-.034-1.938.047-3.877-.037-5.811-.042-.979.523-.842 1.089-.812.544.026 1.238-.308 1.208.806-.076 2.667-.025 5.339-.025 8.005zm-51.568-.045c0-2.595.04-5.189-.021-7.781-.021-.853.241-1.021 1.039-1.008 2.813.049 5.628.063 8.439-.006.897-.021.885.393.883 1.039 0 .65.012 1.075-.884 1.043-2.081-.072-4.166.008-6.248-.039-.731-.018-.949.209-.917.928a42.522 42.522 0 0 1 0 3.728c-.026.667.159.878.849.861 1.936-.048 3.875.034 5.809-.037.959-.037.836.514.843 1.106.007.586.044 1.045-.822 1.016-1.972-.067-3.946-.004-5.92-.032-.555-.008-.772.124-.756.726a71.967 71.967 0 0 1-.001 4.383c-.021.683.206.867.871.854 2.118-.041 4.241.038 6.357-.039.949-.033.839.48.842 1.077.002.576.064 1.011-.812.991-2.923-.066-5.848-.042-8.77-.012-.621.006-.8-.174-.793-.795.03-2.667.012-5.335.012-8.003zm181.436-.034c0-2.631.021-5.262-.016-7.894-.01-.668.156-.87.846-.86 2.886.039 5.772.061 8.657-.008.949-.022.812.479.852 1.07.047.708-.08 1.036-.917 1.009-2.08-.063-4.164.002-6.247-.034-.65-.011-.911.151-.884.849.05 1.276.06 2.561-.003 3.835-.036.725.25.839.882.826 1.863-.035 3.729.029 5.59-.032.817-.026 1.055.196 1.057 1.028.003.861-.228 1.125-1.102 1.093-1.825-.069-3.655.022-5.48-.04-.794-.027-.979.238-.945.984a41.817 41.817 0 0 1 0 3.943c-.04.801.163 1.075 1.017 1.049 2.08-.066 4.167.036 6.247-.049 1.012-.039.763.568.807 1.111.053.631-.029.973-.842.955a235.8 235.8 0 0 0-8.659-.002c-.775.015-.878-.28-.87-.943.029-2.627.01-5.258.01-7.89zm-31.644.028c0 1.352-.026 2.704.006 4.057.047 1.92.673 2.602 2.579 2.877 1.246.183 2.479-.036 3.713-.143.563-.05.604-.388.6-.835-.013-1.497.043-2.997-.021-4.493-.045-1.035.649-.736 1.169-.757.522-.021 1.093-.187 1.063.749-.064 2.044-.03 4.094-.014 6.141.004.451-.064.74-.579.858-2.479.572-4.973.853-7.486.317-1.834-.393-3.011-1.586-3.18-3.445-.32-3.529-.341-7.082.007-10.611.212-2.158 1.756-3.371 4.396-3.649 1.935-.204 3.86-.035 5.777.323 1.128.213.445.945.506 1.437.082.656-.389.638-.869.57-1.81-.255-3.617-.546-5.447-.214-1.433.262-2.129.978-2.188 2.434-.062 1.46-.013 2.923-.013 4.387-.008-.003-.014-.003-.019-.003zm56.04 8.991c-1.509.065-2.966-.204-4.419-.61-1.065-.299-.426-.973-.416-1.478.014-.685.46-.539.929-.413a15.19 15.19 0 0 0 4.986.518c1.754-.117 2.374-.715 2.508-2.397.173-2.156-.235-2.83-1.989-3.288-1.305-.341-2.616-.646-3.905-1.036-1.531-.462-2.352-1.521-2.405-3.142-.013-.366-.039-.729-.054-1.094-.127-3.479 1.195-4.918 4.65-5.041 1.684-.062 3.35.047 5.009.381 1.268.257.461 1.096.5 1.639.058.77-.557.339-.864.294-1.811-.271-3.609-.494-5.441-.176-.994.172-1.448.774-1.546 1.704-.054.507-.009 1.021-.041 1.531-.067 1.069.436 1.744 1.432 2.037 1.151.338 2.323.61 3.478.944 1.344.386 2.844.75 3.197 2.31.444 1.959.64 4.004-.576 5.815-.789 1.175-2.105 1.354-3.389 1.491-.544.058-1.096.011-1.644.011zm-183.941-9.013c0 1.388-.03 2.775.008 4.162.046 1.746.663 2.422 2.357 2.729 1.647.298 3.275.027 4.903-.162.344-.041.726-.165.653.363-.073.529.701 1.354-.237 1.557-2.438.521-4.924.762-7.337-.14-1.537-.574-2.387-1.804-2.533-3.412-.29-3.204-.247-6.424-.053-9.626.168-2.777 1.743-4.165 4.64-4.414 1.643-.141 3.277.01 4.912.225 1.189.155.64.91.651 1.519.017.872-.509.528-.949.491-1.596-.139-3.188-.406-4.797-.094-1.449.283-2.13.955-2.191 2.424-.06 1.455-.013 2.92-.013 4.379l-.014-.001z"/><path fill="#1B181C" d="M89.667 251.377c0 2.339-.047 4.68.02 7.018.032 1.142-.73.731-1.251.767-.545.038-1.122.21-1.108-.796.059-4.568.002-9.139.047-13.708.008-.841-.227-1.069-1.041-1.021-1.165.072-2.34-.021-3.507.03-.967.044-.672-.622-.708-1.108-.041-.531-.079-.967.741-.957a494.5 494.5 0 0 0 11.295 0c.833-.01.759.453.729.967-.028.492.249 1.146-.714 1.102-1.204-.059-2.415.034-3.618-.031-.758-.039-.913.246-.901.939.039 2.264.016 4.53.016 6.798zm120.532-.981c0-2.595.064-5.19-.029-7.781-.043-1.118.549-.967 1.256-1.014.833-.058 1.114.164 1.103 1.06-.05 4.495-.001 8.989-.042 13.483-.008.828.213 1.056 1.036 1.029 1.938-.064 3.876.034 5.81-.045.946-.037.745.528.752 1.043.007.528.173 1.051-.767 1.027-2.773-.073-5.554-.057-8.33-.01-.755.017-.804-.303-.799-.899.026-2.629.01-5.26.01-7.893z"/><path fill="#1A171B" d="M274.481 250.385c0 2.665-.046 5.333.023 7.997.03 1.12-.688.749-1.217.783-.563.037-1.098.166-1.086-.808.053-5.295.057-10.592-.003-15.887-.013-1.062.581-.841 1.169-.851.611-.013 1.174-.155 1.142.876-.083 2.628-.028 5.26-.028 7.89z"/><path fill="#FEFEFE" d="M259.928 192.386c2.119 0 4.237.021 6.356-.012.653-.01.963.079.945.868-.054 2.776-.021 5.553-.019 8.33 0 .402.013.75-.41 1.031-4.532 3.022-9.434 4.523-14.92 3.74-2.2-.313-3.447-1.557-3.854-3.722-.379-2.034-.442-4.068.016-6.09.608-2.693 2.101-3.896 5.201-4.044 2.223-.105 4.454-.02 6.684-.02l.001-.081zm-124.994-5.876c-3.176 0-6.353-.026-9.529.019-.791.012-.981-.24-.961-.991.059-2.114-.049-4.233.369-6.328.764-3.817 2.849-5.946 6.662-6.747a17.43 17.43 0 0 1 7.495.073c3.487.787 5.519 3.244 6.042 7.16.273 2.036.173 4.081.232 6.123.021.756-.395.697-.892.696-3.139-.009-6.279-.005-9.418-.005zm-68.671-6.635c-.467-3.958-2.494-6.502-5.998-7.323-2.48-.581-4.984-.584-7.497-.111-3.828.72-5.989 3.043-6.734 6.809-.415 2.098-.3 4.215-.369 6.329-.026.808.271.956 1.001.947 3.104-.037 6.207-.016 9.311-.016 3.213 0 6.426-.019 9.641.016.674.007.877-.174.857-.854-.055-1.933.015-3.866-.212-5.797zm123.925 70.486c0-1.314-.033-2.633.007-3.946.048-1.495.847-2.438 2.285-2.83.859-.231 1.733-.271 2.609-.172 2.245.25 3.214 1.348 3.221 3.623.007 2.302.017 4.604-.002 6.907-.014 2-.887 3.039-2.854 3.385a6.77 6.77 0 0 1-2.615-.038c-1.834-.401-2.622-1.337-2.656-3.201-.021-1.241-.004-2.483-.004-3.728h.009zm40.805.034c0-1.315-.032-2.634.009-3.945.046-1.551.852-2.486 2.36-2.879.646-.166 1.297-.209 1.954-.192 2.661.065 3.799 1.213 3.803 3.847.002 2.229.012 4.459-.003 6.688-.014 2.021-.863 3.045-2.826 3.412a6.898 6.898 0 0 1-2.51-.001c-1.937-.364-2.766-1.35-2.794-3.311-.019-1.207-.004-2.412-.004-3.619h.011z"/></svg>