<svg xmlns="http://www.w3.org/2000/svg" width="400" height="216" viewBox="0 92 400 216"><path fill="#E40000" d="M45.276 195.348c-8.908 0-17.816-.018-26.727.025-.978.004-1.158-.288-1.157-1.196.027-17.778.031-35.556-.007-53.333-.002-1.041.299-1.213 1.261-1.211 17.777.03 35.556.031 53.333 0 .993-.002 1.254.236 1.252 1.246-.034 17.737-.037 35.475.005 53.212.003 1.131-.36 1.283-1.354 1.279-8.868-.037-17.737-.022-26.606-.022zm.021 65.536c-8.908 0-17.816-.015-26.726.021-.93.005-1.185-.217-1.183-1.17.031-17.816.03-35.633.001-53.449-.001-.899.214-1.117 1.115-1.115 17.856.029 35.713.031 53.57-.004 1.019-.003 1.149.348 1.148 1.227-.021 17.777-.024 35.555.006 53.33.001.969-.28 1.187-1.208 1.183-8.906-.037-17.814-.023-26.723-.023z"/><path fill="#171A1B" d="M107.16 230.964c-.444 2.005-.895 4.009-1.333 6.015-1.682 7.67-3.371 15.338-5.017 23.015-.148.698-.385.917-1.083.907-2.608-.037-5.22-.06-7.828.01-.846.021-1.079-.303-1.197-1.041-.884-5.462-1.793-10.918-2.697-16.376-1.807-10.914-3.615-21.829-5.425-32.743-.263-1.581-.504-3.168-.819-4.738-.156-.779.186-.834.813-.83 3.532.022 7.065.031 10.599-.007.678-.008.845.212.93.849.833 6.24 1.708 12.475 2.565 18.711.583 4.252 1.158 8.504 1.736 12.755.027.196.046.405.327.493l4.438-23.476c.537-2.835 1.106-5.663 1.602-8.506.114-.655.349-.834.99-.823 2.328.037 4.658.062 6.985-.01.834-.025 1.071.293 1.205 1.025 1.207 6.623 2.439 13.242 3.666 19.861.751 4.058 1.503 8.114 2.395 12.186.396-2.688.803-5.375 1.187-8.064a8218.355 8218.355 0 0 0 3.41-24.179c.081-.585.251-.828.885-.817 2.288.034 4.577.049 6.864-.006.796-.02.718.357.628.877-1.06 6.203-2.115 12.406-3.17 18.61-1.9 11.183-3.81 22.364-5.693 33.55-.45 2.668-.41 2.676-3.168 2.676-1.968 0-3.938-.051-5.901.022-.822.03-1.089-.277-1.25-1.017-1.77-8.101-3.565-16.194-5.357-24.291-.341-1.541-.698-3.08-1.049-4.619a16.437 16.437 0 0 1-.238-.019zm-8.363-59.049l4.236-22.56c.539-2.874 1.093-5.746 1.609-8.624.135-.75.33-1.15 1.268-1.109 2.283.099 4.574.056 6.861.018.682-.011.932.15 1.064.883 1.873 10.246 3.792 20.484 5.702 30.723.07.38.009.809.44 1.138.826-5.792 1.643-11.535 2.464-17.277.699-4.88 1.404-9.76 2.112-14.639.052-.355-.084-.825.576-.82 2.604.021 5.207.009 7.861.009-1.635 9.663-3.245 19.221-4.867 28.779-1.468 8.651-2.962 17.298-4.402 25.954-.124.748-.337.991-1.104.978a194.029 194.029 0 0 0-7.705.002c-.775.017-1.009-.261-1.164-.974-2.067-9.467-4.167-18.928-6.263-28.389-.05-.227-.141-.444-.317-.992-.735 3.352-1.404 6.389-2.065 9.428-1.455 6.691-2.914 13.382-4.346 20.078-.133.623-.368.853-1.026.844a252.187 252.187 0 0 0-8.066.004c-.716.013-.868-.32-.961-.89a9280.06 9280.06 0 0 0-2.71-16.489c-1.727-10.437-3.454-20.874-5.184-31.311-.34-2.056-.668-4.114-1.047-6.163-.128-.694.047-.884.759-.877 3.572.034 7.145.024 10.717.006.517-.003.734.083.815.685 1.171 8.741 2.382 17.477 3.582 26.213.256 1.867.503 3.734.755 5.602.076.075.136.276.175.242.13-.117.15-.314.231-.472zm104.27 48.869c1.938-1.273 3.801-2.107 5.893-2.438 6.175-.979 10.38 2.328 10.797 8.559.045.681.072 1.363.073 2.046.004 10.276-.011 20.556.023 30.833.003.895-.207 1.145-1.116 1.126a217.562 217.562 0 0 0-9.032-.001c-.907.02-1.122-.227-1.118-1.123.034-9.876.021-19.753.018-29.629 0-.479-.025-.963-.088-1.438-.139-1.081-.667-1.918-1.745-2.228-1.217-.35-2.389-.112-3.445.578-.459.301-.247.813-.248 1.226-.013 10.397-.031 20.797.021 31.194.006 1.193-.322 1.457-1.46 1.425-2.968-.085-5.94-.052-8.912-.013-.718.01-.946-.148-.944-.916.023-17.584.022-35.168.001-52.752 0-.656.224-.899.817-1.043 3.192-.768 6.384-1.539 9.561-2.368.857-.224.92.106.918.811-.022 4.857-.013 9.716-.013 14.573l-.001 1.578zm60.961-82.594v17.118c1.979-1.286 3.94-2.2 6.18-2.453 6.313-.713 10.202 2.53 10.473 8.919.132 3.125.063 6.26.063 9.391.007 7.667-.013 15.333.021 22.999.003.882-.138 1.237-1.145 1.212-3.009-.077-6.021-.06-9.029-.007-.844.015-1.061-.212-1.057-1.057.029-9.713.02-19.426.02-29.139 0-.401.011-.804-.013-1.204-.153-2.554-1.724-3.607-4.19-2.894-.99.287-1.37.762-1.364 1.858.047 10.396.014 20.791.053 31.186.004 1.006-.256 1.275-1.253 1.253-3.01-.067-6.021-.046-9.03-.009-.737.009-1.021-.119-1.021-.958.026-17.5.021-35 .02-52.5 0-.524-.063-.935.703-1.11 3.464-.797 6.909-1.693 10.569-2.605zM160.676 240.238c-.11 3.365-.127 6.732-.629 10.078-1.053 7.022-5.286 10.979-12.387 11.437-2.413.155-4.81.013-7.15-.666-4.801-1.392-7.38-4.825-8.326-9.497-1.487-7.344-1.632-14.771-.175-22.119 1.761-8.878 8.021-11.955 15.973-11.142 7.488.767 11.437 5.106 12.263 12.896.316 2.998.362 6.005.431 9.013zm140.829-48.118c-1.424 1.754-3.046 2.998-5.06 3.715-5.6 1.996-10.747-.696-12.152-6.454-.897-3.679-.841-7.425-.099-11.103.881-4.347 4.225-7.015 8.993-7.542 1.96-.217 3.917-.307 5.882-.073.412.049.918.226.884-.541-.098-2.161.209-4.337-.201-6.483-.52-2.705-4.455-4.309-6.746-2.785-.451.3-.381.77-.447 1.175-.273 1.66-.531 3.324-.73 4.995-.066.563-.263.749-.817.74a154.443 154.443 0 0 0-4.813-.001c-.515.007-.701-.156-.698-.684.017-3.45.015-6.901.001-10.352-.002-.41.125-.666.486-.862 5.665-3.085 11.595-4.188 17.819-2.046 4.292 1.476 6.691 5.113 6.752 10.085.082 6.66.038 13.321.032 19.981-.004 3.501.291 6.969 1.12 10.376.203.834.056 1.129-.869 1.107a128.331 128.331 0 0 0-7.101.006c-.85.026-1.213-.257-1.416-1.035-.179-.693-.493-1.351-.82-2.219zm-52.357 57.369c0 2.618-.021 4.985.016 7.352.009.591-.181.988-.654 1.298-5.021 3.262-10.458 4.553-16.258 2.793-4.86-1.475-7.672-5.187-8.457-10.039-1.247-7.709-1.542-15.507.2-23.197 1.391-6.143 5.229-9.111 11.648-9.469 1.935-.107 3.854-.009 5.718.563 4.677 1.435 7.031 4.876 7.771 9.469.771 4.813.416 9.687.353 14.537-.011.772-.466.675-.946.675-4.293-.003-8.587-.002-12.882-.002-1.666 0-1.65 0-1.67 1.729-.014 1.209.025 2.414.303 3.589.78 3.317 3.735 5.094 7.409 4.472 2.783-.474 5.239-1.633 7.449-3.77zm86.472-101.415c-1.741-.46-3.291-1.031-4.971-.958-2.217.096-3.288 1.057-3.556 3.26-.396 3.257-.396 3.257 2.849 3.257 1.204 0 2.41.041 3.611-.016.707-.034.874.217.855.885-.044 1.765-.063 3.533.007 5.296.034.846-.289 1.004-1.034.982-1.522-.045-3.056.065-4.572-.041-1.072-.074-1.209.341-1.207 1.282.033 10.674.006 21.349.046 32.023.004 1.032-.2 1.364-1.298 1.332a169.547 169.547 0 0 0-8.907-.005c-.932.021-1.103-.262-1.1-1.134.03-10.754.004-21.509.047-32.263.003-1.015-.252-1.262-1.248-1.233-2.567.072-2.569.021-2.569-2.528 0-1.244.039-2.49-.015-3.731-.031-.704.219-.955.888-.85.039.006.08.003.12 0 .907-.065 2.147.401 2.633-.199.457-.565.152-1.755.162-2.67.015-1.29.179-2.56.486-3.809 1.063-4.315 4.306-7.106 8.767-7.521 3.071-.286 6.079.055 9.029.968.692.214 1.028.505 1 1.321-.07 2.083-.023 4.169-.023 6.352zm-115.082 13.004c0 1.645-.032 3.291.015 4.935.02.691-.203.891-.88.868a64.296 64.296 0 0 0-4.212-.001c-.677.021-.979-.114-1.048-.887-.146-1.634-.436-3.256-.67-4.882-.038-.26.063-.612-.304-.711-1.606-.435-3.185-.431-4.623.526-1.087.722-1.631 2.313-1.273 3.643.291 1.091 1.021 1.889 1.867 2.592 1.393 1.157 2.964 2.049 4.493 3 1.708 1.061 3.366 2.189 4.749 3.662 3.582 3.816 4.852 8.316 3.295 13.308-1.555 4.988-5.472 7.452-10.386 8.373-4.485.841-8.76-.008-12.797-2.121-.686-.359-.934-.801-.92-1.597.054-3.249.049-6.5.003-9.749-.011-.795.212-1.034 1.002-.997 1.361.064 2.729.046 4.091.005.634-.019.892.136.979.826.234 1.867.599 3.718.868 5.581.065.456.185.75.673.824 1.438.217 2.869.34 4.27-.212 2.641-1.04 3.406-3.87 1.644-6.094-.758-.955-1.74-1.649-2.736-2.331-2.083-1.424-4.312-2.642-6.218-4.313-4.329-3.797-6.06-8.479-4.583-14.134 1.175-4.503 5.009-7.623 9.9-8.266 4.227-.555 8.203.251 12.021 2.071.592.282.818.607.798 1.269-.053 1.601-.018 3.207-.018 4.812zm137.4 25.895c0-1.726.021-3.452-.012-5.178-.012-.574.163-.767.746-.751 1.402.037 2.813.069 4.213-.011.802-.045 1.033.288 1.128.984.238 1.748.543 3.486.768 5.235.085.658.322.99 1.021 1.074 1.37.166 2.724.247 4.031-.283 2.523-1.024 3.288-3.725 1.694-5.94-.742-1.032-1.771-1.736-2.798-2.438-1.82-1.243-3.731-2.365-5.471-3.712-4.139-3.206-6.405-7.339-5.769-12.724.673-5.673 4.702-9.618 10.383-10.321 4.19-.518 8.126.29 11.911 2.069.612.287.881.624.87 1.347a298.69 298.69 0 0 0 .002 9.513c.016.871-.261 1.085-1.084 1.046-1.36-.065-2.73-.07-4.093.003-.759.04-.962-.282-1.037-.937-.18-1.553-.439-3.098-.591-4.653-.071-.749-.449-.984-1.114-1.094-2.75-.454-4.797.719-5.185 2.993-.207 1.211.229 2.202 1.007 3.082 1.105 1.251 2.521 2.104 3.917 2.969 1.978 1.226 3.973 2.42 5.68 4.027 3.497 3.292 4.986 7.368 4.29 12.073-.777 5.265-4.924 9.099-10.672 10.146-4.411.804-8.607.042-12.62-1.913-.888-.433-1.313-.978-1.243-2.032.105-1.518.028-3.048.028-4.574zm-169.247 61.873c0 2.881-.008 5.516.01 8.147.002.442-.299.633-.556.868-4.229 3.878-11.771 4.998-16.915 2.455-4.297-2.125-6.46-5.838-7.033-10.406-.847-6.752-.868-13.539.175-20.281.938-6.072 4.688-10.154 10.101-11.146 4.736-.865 9.141.283 13.378 2.346.426.207.55.48.549.938-.016 3.974-.022 7.946.004 11.92.006.697-.321.779-.883.771-1.483-.021-2.971-.042-4.455.009-.662.023-.898-.218-1.004-.841-.34-2.016-.754-4.018-1.091-6.031-.12-.719-.378-1.111-1.162-1.262-2.501-.477-4.259.595-4.596 3.123-.531 3.984-.459 8.007-.423 12.02.021 2.243.049 4.492.383 6.725.629 4.205 3.582 6.052 7.653 4.777 1.911-.601 3.322-1.58 5.865-4.132zm61.01-65.542c0 2.899-.01 5.496.008 8.092.003.48-.306.712-.599.979-4.2 3.818-11.737 4.918-16.825 2.403-4.025-1.99-6.286-5.413-6.89-9.71-1.013-7.221-1.123-14.506.151-21.706 1.266-7.152 6.321-10.947 13.646-10.621 3.33.148 6.466 1.05 9.457 2.509.546.266.758.548.753 1.163a874.962 874.962 0 0 0-.002 11.683c.005.654-.133.926-.852.899a69.688 69.688 0 0 0-4.456-.003c-.658.018-.889-.209-.996-.863-.343-2.095-.78-4.175-1.149-6.267-.075-.434-.191-.719-.643-.893-2.137-.829-4.298.233-4.952 2.438-.243.82-.318 1.661-.345 2.497-.166 5.375-.353 10.753.109 16.125.03.358.079.718.156 1.069.858 3.937 3.672 5.567 7.544 4.371 2.299-.708 4.061-2.199 5.885-4.165zm-100.009-29.67c2.877 0 5.682.009 8.486-.009.461-.003.6.197.709.602.293 1.081.64 2.146.98 3.267.578-.096.784-.63 1.12-.976 3.209-3.298 6.956-4.402 11.392-2.896.866.294 1.247.698 1.23 1.706a459.049 459.049 0 0 0-.004 13.12c.013.936-.269 1.146-1.141 1.098a37.96 37.96 0 0 0-4.09.001c-.735.04-.971-.226-1.059-.9-.224-1.708-.531-3.405-.743-5.114-.068-.546-.266-.729-.798-.803-2.156-.302-3.612.766-3.867 2.923-.07.595-.08 1.2-.081 1.801-.006 8.907-.018 17.814.017 26.722.003.916-.196 1.22-1.167 1.198a168.43 168.43 0 0 0-8.906.005c-1.078.032-1.199-.351-1.194-1.284.033-9.228.003-18.457.027-27.685.014-4.252-.151-8.486-.911-12.776zm205.859 31.891c0 2.486-.014 4.723.01 6.958.005.483-.238.726-.6.944-3.693 2.22-7.663 3.159-11.868 2.036-3.86-1.031-5.641-3.978-6.249-7.743-.182-1.109-.232-2.23-.23-3.358.011-9.593.016-19.185-.01-28.777-.001-.745.194-1.246.773-1.744 2.949-2.538 5.856-5.127 8.777-7.699.151-.132.304-.263.452-.396.302-.27.671-.298 1.019-.19.431.134.252.541.254.829.015 2.087.04 4.174-.01 6.26-.019.756.146 1.046.971 1.008 1.562-.071 3.13.013 4.693-.035.734-.023 1.061.114 1.024.958a72.041 72.041 0 0 0-.006 5.176c.021.773-.182 1.065-1.003 1.033-1.604-.063-3.211.015-4.814-.034-.694-.021-.864.21-.862.879.022 7.746.006 15.492.024 23.238.005 1.987.932 2.827 2.921 2.797 1.788-.027 3.174-.973 4.734-2.14zm-160.309-.019c0 2.544-.007 4.85.005 7.156.002.451-.312.616-.617.799-3.465 2.07-7.181 2.976-11.177 2.148-3.73-.772-6.09-3.418-6.804-7.362-.215-1.19-.279-2.388-.278-3.593.004-9.714.008-19.427-.012-29.141-.001-.69.158-1.177.708-1.649 2.982-2.563 5.928-5.17 8.876-7.771.401-.354.811-.78 1.362-.53.56.254.274.855.281 1.294.031 1.926.043 3.854-.001 5.779-.019.749.136 1.058.977 1.021 1.644-.075 3.291-.002 4.937-.033.553-.01.771.117.759.722-.038 1.886-.042 3.773.001 5.659.016.686-.277.785-.858.774-1.646-.029-3.292.021-4.937-.024-.7-.02-.878.229-.876.898.02 7.707-.008 15.414.027 23.12.011 2.432 1.604 3.444 4.146 2.738 1.24-.346 2.311-1.031 3.481-2.005zm-48.97-10.948c0 6.582-.016 13.165.021 19.747.005.836-.201 1.079-1.054 1.064a296.843 296.843 0 0 0-9.149-.005c-.786.01-1.105-.123-1.104-1.023.031-13.245.029-26.49.003-39.735-.002-.798.221-1.001 1.002-.99 3.09.044 6.182.054 9.271-.005.881-.017 1.033.27 1.029 1.079-.034 6.623-.019 13.245-.019 19.868zm-5.594-34.904c1.602 0 3.203.028 4.804-.014.632-.017.813.173.806.806a277.359 277.359 0 0 0 0 7.686c.009.677-.182.892-.872.885-3.203-.034-6.405-.03-9.608-.002-.64.006-.819-.209-.812-.829.027-2.602.027-5.204-.001-7.806-.007-.594.199-.747.76-.737 1.64.03 3.282.011 4.923.011z"/><path fill="#868889" d="M98.797 171.915c.078.335.049.737-.29.792-.235.039-.154-.347-.114-.563l.404-.229z"/><path fill="#FEFEFE" d="M149.39 240.208c-.036 3.285-.02 6.573-.448 9.84a10.521 10.521 0 0 1-.425 1.867c-.469 1.454-1.186 1.964-2.636 1.955-1.422-.011-2.226-.565-2.667-1.96-.576-1.813-.67-3.707-.715-5.585-.12-5.009-.231-10.019.172-15.022.09-1.119.272-2.222.665-3.281.428-1.155 1.249-1.672 2.485-1.68 1.275-.009 2.167.493 2.616 1.689.471 1.248.646 2.564.712 3.885.141 2.762.307 5.523.241 8.292zm150.553-58.871c0 1.2.035 2.4-.008 3.599-.055 1.485-.749 2.589-2.144 3.185-1.527.653-2.905.083-3.288-1.512-.604-2.512-.697-5.075-.093-7.604.482-2.023 3.415-3.204 5.258-2.22.396.211.27.541.272.832.016 1.24.007 2.479.007 3.72h-.004zm-59.941 51.845c0 .963-.03 1.926.012 2.885.026.604-.133.855-.792.836a78.49 78.49 0 0 0-4.447-.002c-.651.019-.811-.233-.795-.84.063-2.361-.109-4.73.221-7.084.064-.475.131-.955.271-1.412.389-1.268 1.268-1.889 2.592-1.898 1.264-.012 2.042.669 2.401 1.8.589 1.856.526 3.793.537 5.715z"/></svg>