<svg xmlns="http://www.w3.org/2000/svg" width="400" height="216" viewBox="0 92 400 216"><path fill="#010202" d="M136.106 228.109h-33.7c-1.131 0-1.972-.875-1.972-2.051v-4.213c-.035-1.031.29-1.482.94-2.304l26.819-31.905h-26.269c-1.139 0-1.98-.877-1.98-2.043v-2.983c0-1.131.843-2.036 1.98-2.036h34.018c1.133 0 1.973.87 1.973 2.036v4.313c0 .777-.254 1.42-.84 2.135l-26.856 32.009h25.915c1.139 0 1.979.877 1.979 2.035v3c-.034 1.132-.876 2.007-2.007 2.007zm66.383.866c2.433-.029 4.214-.553 4.893-1.315.227-.312.354-.623.326-.947-.036-.269-.036-.269-.68-3.437l-.035-.058c-.127-.848-.715-1.216-1.202-1.216h-.063s-.615-.027-1.193-.027c-1.719-.057-3.146-.312-3.175-2.884v-54.004c0-.905-.522-1.817-1.555-1.845h-.298l-4.693 1.23c-.813.099-1.619.679-1.591 1.746v53.015c.033 6.276 3.306 9.742 9.266 9.742zm95.114-.866h-4.2c-1.146 0-1.979-.875-1.979-2.051v-32.461c-.07-5.507-1.685-7.034-7.451-7.097-6.504 0-13.121 1.689-15.326 2.304v37.299c0 1.157-.776 2.035-1.867 2.035h-4.283c-1.146 0-1.98-.878-1.98-2.035v-36.458c-.069-3.372.271-5.705 4.937-7.261 4.469-1.583 13.051-2.912 18.721-2.912 10.787 0 15.411 4.016 15.411 13.348v33.284c-.032 1.13-.882 2.005-1.983 2.005zm42.162-40.279c-1.556-.417-5.939-1.428-10.859-1.428-9.034.099-12.823 2.594-12.923 18.012.1 16.91 5.021 17.816 13.021 17.929v.341-.384c4.99 0 9.261-1.06 10.787-1.483V187.83h-.026zm2.231 39.658l-.479.128c-2.658.679-6.32 1.653-12.739 1.653h-.025c-17.66-.027-21.168-9.162-21.168-24.941.043-18.083 5.613-24.827 20.644-24.855 5.316 0 8.936.714 11.565 1.357l-.027-14.577c-.029-.65.254-1.492 1.752-1.753l4.694-1.231h.255c1.074.036 1.471 1.005 1.471 1.853v54.76c.053 3.423-.342 6.377-5.943 7.606zm34.245-5.288c-11.564-.056-12.145-6.15-12.243-17.814.1-11.728.649-17.851 12.243-17.915 11.565.063 12.188 6.187 12.244 17.916-.083 11.663-.677 17.786-12.244 17.813zm0-42.763c-19.088.036-20.7 12.895-20.728 24.949 0 12.017 1.611 24.827 20.728 24.856 19.088-.029 20.698-12.811 20.729-24.856-.03-12.605-1.641-24.913-20.729-24.949zm-132.339 25.204c-1.924.026-11.185.17-14.875.976l-.296.069c-4.144.935-7.424 1.711-7.479 8.004 0 7.932 5.924 8.652 11.989 8.682v.354-.354c3.787 0 7.381-.553 10.66-1.654v-16.077h.001zm8.201-11.559v25.203c.085 6.263-1.499 8.271-7.663 9.713-2.688.595-6.83 1.245-11.311 1.273-6.562-.028-20.276-.028-20.305-15.201-.029-11.918 6.928-14.025 15.384-15.313 5.542-.919 11.185-1.045 14.024-1.045h1.556V193.4c-.027-2.849-.027-4.566-2.614-5.57-1.598-.679-3.987-1.004-7.509-1.004-5.839 0-11.084 1.329-14.563 2.234l-1.329.326c-.111.034-.283.063-.479.098-.622 0-1.302-.389-1.528-1.201l-.027-.063-.776-4.05v-.227c0-.94.691-1.521 1.329-1.718 2.785-1.068 10.166-2.75 18.14-2.75 5.797 0 10.011.777 12.839 2.361 4.86 2.593 4.832 7.386 4.832 11.246zm-76.731 27.662c-3.274 1.104-6.865 1.654-10.662 1.654v.367-.367c-6.06-.058-11.982-.735-11.982-8.683.027-6.319 3.301-7.069 7.48-8.003l.296-.056c3.688-.82 12.958-.991 14.868-.991v16.079zm3.371-38.91c-2.821-1.583-7.034-2.361-12.831-2.361-7.968 0-15.327 1.682-18.146 2.75-.616.197-1.295.777-1.33 1.718v.198l.777 4.051.036.092c.262.813.903 1.201 1.519 1.201.199 0 .362-.034.488-.098l1.329-.326c3.472-.869 8.718-2.234 14.55-2.234 3.527 0 5.932.325 7.549 1.004 2.588 1.004 2.588 2.722 2.624 5.57v4.254h-1.591c-2.85 0-8.483.113-14.026 1.019-8.455 1.33-15.454 3.422-15.391 15.37 0 15.17 13.709 15.199 20.318 15.199 4.468 0 8.582-.681 11.304-1.273 6.157-1.456 7.713-3.464 7.648-9.713v-25.174c-.034-3.859-.034-8.652-4.827-11.247z"/><path fill="#ED6A1D" d="M76.682 193.4c-5.536-6.963-13.249-13.701-23.387-19.794l-.035-.029c-10.173-5.966-19.766-9.431-28.412-10.858-5.38-.905-7.975.134-9.141.849-1.167.678-3.337 2.46-5.281 7.677-3.11 8.392-4.92 18.628-5.021 30.651v.028c.064 12.019 1.909 22.283 5.021 30.683 1.944 5.246 4.114 7 5.281 7.705 1.166.693 3.761 1.754 9.141.85 8.646-1.43 18.204-4.936 28.412-10.887l.035-.043c10.138-6.08 17.851-12.823 23.387-19.795 3.437-4.326 3.859-7.155 3.859-8.513 0-1.358-.39-4.183-3.859-8.524"/></svg>